<svg width="20" height="20" viewBox="0 0 20 20" fill="none" xmlns="http://www.w3.org/2000/svg">
<path fill-rule="evenodd" clip-rule="evenodd" d="M3.33366 10.0013C3.33366 6.3194 6.31843 3.33464 10.0003 3.33464C13.6822 3.33464 16.667 6.3194 16.667 10.0013C16.667 10.205 16.6633 10.9187 16.4493 11.5607C16.3437 11.8775 16.2058 12.117 16.0457 12.2699C15.9055 12.4039 15.7202 12.5013 15.417 12.5013C15.0805 12.5013 14.9187 12.409 14.8082 12.2961C14.6697 12.1545 14.5214 11.8839 14.4067 11.3791C14.1722 10.3471 14.167 8.79555 14.167 6.66797C14.167 6.20774 13.7939 5.83464 13.3337 5.83464C12.8735 5.83464 12.5005 6.20757 12.5003 6.66767C11.8039 6.14459 10.9383 5.83464 10.0003 5.83464C7.69914 5.83464 5.83366 7.70012 5.83366 10.0013C5.83366 12.3025 7.69914 14.168 10.0003 14.168C11.2451 14.168 12.3622 13.6222 13.1257 12.7569C13.2542 13.0159 13.4146 13.2549 13.6169 13.4616C14.0924 13.9478 14.7118 14.168 15.417 14.168C16.1555 14.168 16.7514 13.9008 17.1972 13.4749C17.623 13.068 17.8757 12.5522 18.0305 12.0877C18.3339 11.1776 18.3337 10.2356 18.3337 10.0087V10.0013C18.3337 5.39893 14.6027 1.66797 10.0003 1.66797C5.39795 1.66797 1.66699 5.39893 1.66699 10.0013C1.66699 14.6036 5.39795 18.3346 10.0003 18.3346C11.3292 18.3346 12.5877 18.023 13.7045 17.468C14.1167 17.2631 14.2847 16.763 14.0799 16.3508C13.8751 15.9387 13.3749 15.7706 12.9628 15.9755C12.0713 16.4185 11.0662 16.668 10.0003 16.668C6.31843 16.668 3.33366 13.6832 3.33366 10.0013ZM12.5003 10.0013C12.5003 11.3821 11.3811 12.5013 10.0003 12.5013C8.61958 12.5013 7.50033 11.3821 7.50033 10.0013C7.50033 8.62055 8.61958 7.5013 10.0003 7.5013C11.3811 7.5013 12.5003 8.62055 12.5003 10.0013Z" fill="#FB6514"/>
</svg>
