<svg width="606" height="400" viewBox="0 0 606 400" fill="none" xmlns="http://www.w3.org/2000/svg">
<path d="M511.455 20.4529V379.497C511.455 390.83 502.285 400.001 490.953 400.001H476.887V0.00062561H491.019C501.631 0.00062561 510.349 8.08086 511.355 18.4415C511.422 19.1121 511.455 19.7825 511.455 20.4529Z" fill="#FFA893"/>
<path d="M502.761 20.5331V379.494C502.761 390.826 493.591 399.997 482.258 399.997H104.606C93.2734 399.997 84.0862 390.826 84.0862 379.494V20.5331C84.0862 9.2008 93.2734 0.0138245 104.606 0.0138245H482.258C493.591 0.0140278 502.761 9.2008 502.761 20.5331Z" fill="white"/>
<path d="M502.774 20.457V41.4961H84.1007V20.457C84.1007 9.15743 93.2373 0.0039978 104.537 0.0039978H482.338C493.62 0.0039978 502.774 9.15722 502.774 20.457Z" fill="#FF6F47"/>
<path d="M111.496 21.7585C111.496 25.3624 108.578 28.2806 104.974 28.2806C101.378 28.2806 98.4601 25.3624 98.4601 21.7585C98.4601 18.1546 101.378 15.2364 104.974 15.2364C108.578 15.2366 111.496 18.1546 111.496 21.7585Z" fill="white"/>
<path d="M129.246 21.7583C129.246 25.3622 126.329 28.2804 122.725 28.2804C119.129 28.2804 116.211 25.3622 116.211 21.7583C116.211 18.1544 119.129 15.2362 122.725 15.2362C126.329 15.2364 129.246 18.1544 129.246 21.7583Z" fill="white"/>
<path d="M146.996 21.7583C146.996 25.3622 144.078 28.2804 140.474 28.2804C136.878 28.2804 133.96 25.3622 133.96 21.7583C133.96 18.1544 136.878 15.2362 140.474 15.2362C144.078 15.2364 146.996 18.1544 146.996 21.7583Z" fill="white"/>
<path d="M218.157 259.948H110.447C107.429 259.948 104.982 257.502 104.982 254.483V75.923C104.982 72.9047 107.429 70.458 110.447 70.458H218.157C221.175 70.458 223.622 72.9047 223.622 75.923V254.483C223.622 257.501 221.175 259.948 218.157 259.948Z" fill="#F1F9FF"/>
<path d="M164.302 151.721C180.734 151.721 194.055 138.177 194.055 121.471C194.055 104.764 180.734 91.2205 164.302 91.2205C147.87 91.2205 134.55 104.764 134.55 121.471C134.55 138.177 147.87 151.721 164.302 151.721Z" fill="white"/>
<path d="M164.302 117.211C167.437 117.211 169.978 114.628 169.978 111.441C169.978 108.254 167.437 105.67 164.302 105.67C161.168 105.67 158.626 108.254 158.626 111.441C158.626 114.628 161.168 117.211 164.302 117.211Z" fill="#373A50"/>
<path d="M178.68 135.019C178.373 127.204 172.062 120.96 164.301 120.96C156.539 120.96 150.229 127.204 149.921 135.019H178.68Z" fill="#373A50"/>
<path d="M135.939 169.838V178.334C135.939 179.826 134.725 181.04 133.234 181.04H124.723C123.232 181.04 122.018 179.826 122.018 178.334V169.838C122.018 168.347 123.232 167.134 124.723 167.134H133.234C134.725 167.134 135.939 168.347 135.939 169.838Z" fill="#D6EEFF"/>
<path d="M210.75 171.558H140.896V176.615H210.75V171.558Z" fill="#D6EEFF"/>
<path d="M135.939 219.575V228.071C135.939 229.562 134.725 230.776 133.234 230.776H124.723C123.232 230.776 122.018 229.562 122.018 228.071V219.575C122.018 218.083 123.232 216.87 124.723 216.87H133.234C134.725 216.87 135.939 218.083 135.939 219.575Z" fill="#D6EEFF"/>
<path d="M210.75 221.295H140.896V226.351H210.75V221.295Z" fill="#D6EEFF"/>
<path d="M135.939 194.346V202.842C135.939 204.333 134.725 205.547 133.234 205.547H124.723C123.232 205.547 122.018 204.334 122.018 202.842V194.346C122.018 192.854 123.232 191.641 124.723 191.641H133.234C134.725 191.641 135.939 192.854 135.939 194.346Z" fill="#D6EEFF"/>
<path d="M210.75 196.066H140.896V201.123H210.75V196.066Z" fill="#D6EEFF"/>
<path d="M306.559 139.33H256.498C251.798 139.33 247.988 135.52 247.988 130.82V86.0271C247.988 81.3274 251.798 77.5174 256.498 77.5174H306.559C311.259 77.5174 315.069 81.3272 315.069 86.0271V130.82C315.069 135.519 311.259 139.33 306.559 139.33Z" fill="#FF5329"/>
<path d="M388.693 139.33H338.632C333.932 139.33 330.122 135.52 330.122 130.82V86.0271C330.122 81.3274 333.932 77.5174 338.632 77.5174H388.693C393.393 77.5174 397.203 81.3272 397.203 86.0271V130.82C397.203 135.519 393.393 139.33 388.693 139.33Z" fill="#32A8FD"/>
<path d="M472.556 373.476H256.498C251.798 373.476 247.988 369.666 247.988 364.966V315.996C247.988 311.296 251.798 307.487 256.498 307.487H472.556C477.256 307.487 481.066 311.296 481.066 315.996V364.966C481.066 369.666 477.256 373.476 472.556 373.476Z" fill="url(#paint0_linear_412_9622)"/>
<path d="M464.073 140.183C463.601 140.183 463.219 139.8 463.219 139.329C463.219 138.857 463.601 138.475 464.073 138.475H470.825C471.295 138.475 471.726 138.854 471.727 139.323C471.731 139.793 471.404 140.177 470.933 140.182C470.928 140.182 470.833 140.183 470.82 140.183H464.073V140.183ZM457.321 140.183H450.566C450.095 140.183 449.713 139.8 449.713 139.329C449.713 138.857 450.095 138.475 450.566 138.475H457.321C457.792 138.475 458.174 138.857 458.174 139.329C458.174 139.8 457.792 140.183 457.321 140.183ZM443.814 140.183H437.062C436.59 140.183 436.208 139.8 436.208 139.329C436.208 138.857 436.59 138.475 437.062 138.475H443.814C444.286 138.475 444.668 138.857 444.668 139.329C444.668 139.8 444.286 140.183 443.814 140.183ZM430.309 140.183H423.555C423.083 140.183 422.702 139.8 422.702 139.329C422.702 138.857 423.083 138.475 423.555 138.475H430.309C430.781 138.475 431.163 138.857 431.163 139.329C431.163 139.8 430.781 140.183 430.309 140.183ZM416.945 139.28C416.815 139.28 416.685 139.251 416.562 139.189C414.332 138.068 412.614 136.066 411.85 133.697C411.705 133.248 411.952 132.767 412.401 132.622C412.849 132.477 413.33 132.724 413.475 133.172C414.1 135.109 415.504 136.746 417.329 137.663C417.751 137.875 417.919 138.388 417.708 138.81C417.557 139.108 417.257 139.28 416.945 139.28ZM476.959 137.573C476.745 137.573 476.532 137.493 476.367 137.334C476.027 137.007 476.017 136.467 476.343 136.127C477.723 134.693 478.481 132.808 478.481 130.82V130.588C478.481 130.116 478.863 129.734 479.335 129.734C479.807 129.734 480.189 130.116 480.189 130.588V130.82C480.189 133.251 479.26 135.557 477.574 137.311C477.407 137.485 477.182 137.573 476.959 137.573ZM412.254 127.579C411.782 127.579 411.4 127.197 411.4 126.725V119.973C411.4 119.501 411.782 119.119 412.254 119.119C412.726 119.119 413.108 119.501 413.108 119.973V126.725C413.108 127.197 412.726 127.579 412.254 127.579ZM479.335 124.689C478.863 124.689 478.481 124.306 478.481 123.835V117.082C478.481 116.611 478.863 116.228 479.335 116.228C479.807 116.228 480.189 116.611 480.189 117.082V123.835C480.189 124.306 479.807 124.689 479.335 124.689ZM412.254 114.074C411.782 114.074 411.4 113.692 411.4 113.22V106.467C411.4 105.996 411.782 105.614 412.254 105.614C412.726 105.614 413.108 105.996 413.108 106.467V113.22C413.108 113.692 412.726 114.074 412.254 114.074ZM479.335 111.183C478.863 111.183 478.481 110.801 478.481 110.33V103.577C478.481 103.106 478.863 102.723 479.335 102.723C479.807 102.723 480.189 103.106 480.189 103.577V110.33C480.189 110.801 479.807 111.183 479.335 111.183ZM412.254 100.568C411.782 100.568 411.4 100.186 411.4 99.7146V92.9619C411.4 92.4904 411.782 92.1081 412.254 92.1081C412.726 92.1081 413.108 92.4904 413.108 92.9619V99.7146C413.108 100.186 412.726 100.568 412.254 100.568ZM479.335 97.678C478.863 97.678 478.481 97.2957 478.481 96.8242V90.0715C478.481 89.6 478.863 89.2177 479.335 89.2177C479.807 89.2177 480.189 89.6 480.189 90.0715V96.8242C480.189 97.2957 479.807 97.678 479.335 97.678ZM412.254 87.0632C411.782 87.0632 411.4 86.6809 411.4 86.2094V86.0266C411.4 83.5742 412.342 81.2552 414.052 79.4968C414.38 79.1583 414.921 79.1524 415.259 79.4799C415.598 79.8087 415.604 80.3494 415.276 80.6875C413.878 82.1253 413.108 84.0214 413.108 86.0266V86.2094C413.108 86.6809 412.726 87.0632 412.254 87.0632ZM478.91 84.2188C478.552 84.2188 478.218 83.9911 478.1 83.6316C477.463 81.6985 476.05 80.07 474.221 79.1631C473.797 78.9537 473.625 78.4415 473.834 78.019C474.046 77.5954 474.559 77.4255 474.978 77.6331C477.214 78.7416 478.943 80.7335 479.72 83.098C479.869 83.546 479.625 84.0287 479.177 84.1759C479.088 84.205 478.998 84.2188 478.91 84.2188ZM467.984 78.3712H461.231C460.759 78.3712 460.377 77.9889 460.377 77.5174C460.377 77.0458 460.759 76.6636 461.231 76.6636H467.984C468.455 76.6636 468.837 77.0458 468.837 77.5174C468.837 77.9889 468.455 78.3712 467.984 78.3712ZM454.477 78.3712H447.725C447.253 78.3712 446.871 77.9889 446.871 77.5174C446.871 77.0458 447.253 76.6636 447.725 76.6636H454.477C454.949 76.6636 455.331 77.0458 455.331 77.5174C455.331 77.9889 454.949 78.3712 454.477 78.3712ZM440.972 78.3712H434.22C433.748 78.3712 433.366 77.9889 433.366 77.5174C433.366 77.0458 433.748 76.6636 434.22 76.6636H440.972C441.444 76.6636 441.826 77.0458 441.826 77.5174C441.826 77.9889 441.445 78.3712 440.972 78.3712ZM427.468 78.3712H420.764C420.292 78.3712 419.885 77.9889 419.885 77.5174C419.885 77.0458 420.242 76.6636 420.714 76.6636H427.468C427.94 76.6636 428.322 77.0458 428.322 77.5174C428.322 77.9889 427.94 78.3712 427.468 78.3712Z" fill="#7F5ACC"/>
<path d="M367.324 121.515H339.721L353.518 104.498L359.29 111.613L367.324 121.515Z" fill="white"/>
<path d="M387.6 121.516H352.829L370.212 100.082L387.6 121.516Z" fill="white"/>
<path d="M361.835 98.6339C361.835 100.461 360.35 101.945 358.523 101.945C356.696 101.945 355.212 100.461 355.212 98.6339C355.212 96.8068 356.696 95.3306 358.523 95.3306C360.35 95.3306 361.835 96.8066 361.835 98.6339Z" fill="white"/>
<path d="M292.111 110.768L276.475 120.238C274.663 121.339 272.325 120.035 272.325 117.901L272.291 98.9615C272.291 96.8276 274.629 95.5057 276.459 96.6067L292.111 106.077C293.873 107.144 293.873 109.701 292.111 110.768Z" fill="white"/>
<path d="M479.341 176.538V279.365C479.341 286.456 473.572 292.207 466.481 292.207H260.829C253.739 292.207 247.987 286.456 247.987 279.365V176.538C247.987 169.448 253.739 163.696 260.829 163.696H466.481C473.572 163.696 479.341 169.448 479.341 176.538Z" fill="url(#paint1_linear_412_9622)" fill-opacity="0.22"/>
<path d="M427.356 216.002C428.307 216.002 429.069 216.763 429.069 217.715C429.069 218.651 428.308 219.412 427.356 219.412H412.207C411.271 219.412 410.51 218.651 410.51 217.715C410.51 216.763 411.271 216.002 412.207 216.002H427.356Z" fill="white"/>
<path d="M424.768 231.5C424.768 232.452 424.007 233.213 423.071 233.213H354.827C353.891 233.213 353.13 232.452 353.13 231.5C353.13 230.564 353.892 229.803 354.827 229.803H423.071C424.007 229.803 424.768 230.564 424.768 231.5Z" fill="white"/>
<path d="M287.873 219.413C286.921 219.413 286.16 218.651 286.16 217.716C286.16 216.764 286.921 216.003 287.873 216.003H313.348C314.283 216.003 315.061 216.764 315.061 217.716C315.061 218.651 314.283 219.413 313.348 219.413H287.873Z" fill="white"/>
<path d="M339.791 231.5C339.791 232.452 339.029 233.213 338.078 233.213H314.744C313.808 233.213 313.047 232.452 313.047 231.5C313.047 230.564 313.808 229.803 314.744 229.803H338.078C339.029 229.803 339.791 230.564 339.791 231.5Z" fill="white"/>
<path d="M397.201 219.413H329.195C328.259 219.413 327.498 218.651 327.498 217.716C327.498 216.764 328.259 216.002 329.195 216.002H397.201C398.137 216.002 398.898 216.764 398.898 217.716C398.898 218.651 398.137 219.413 397.201 219.413Z" fill="white"/>
<path d="M325.784 260.798H289.475C288.523 260.798 287.762 260.036 287.762 259.085C287.762 258.149 288.523 257.387 289.475 257.387H325.784C326.72 257.387 327.497 258.149 327.497 259.085C327.497 260.036 326.72 260.798 325.784 260.798Z" fill="white"/>
<path d="M286.159 203.519C286.159 202.583 286.921 201.806 287.872 201.806H325.783C326.719 201.806 327.497 202.583 327.497 203.519C327.497 204.455 326.719 205.217 325.783 205.217H287.872C286.921 205.216 286.159 204.454 286.159 203.519Z" fill="white"/>
<path d="M411.239 246.998H308.543C307.591 246.998 306.829 246.236 306.829 245.3C306.829 244.349 307.591 243.587 308.543 243.587H411.239C412.191 243.587 412.952 244.349 412.952 245.3C412.952 246.236 412.191 246.998 411.239 246.998Z" fill="white"/>
<path d="M406.321 257.387C407.257 257.387 408.018 258.149 408.018 259.085C408.018 260.036 407.257 260.797 406.321 260.797H338.997C338.061 260.797 337.284 260.036 337.284 259.085C337.284 258.149 338.062 257.387 338.997 257.387H406.321Z" fill="white"/>
<path d="M414.839 272.885C414.839 273.822 414.078 274.582 413.126 274.582H314.744C313.808 274.582 313.047 273.822 313.047 272.885C313.047 271.933 313.808 271.172 314.744 271.172H413.126C414.078 271.172 414.839 271.933 414.839 272.885Z" fill="white"/>
<path d="M412.079 189.322C412.079 188.386 412.841 187.625 413.777 187.625H434.905C435.841 187.625 436.602 188.386 436.602 189.322C436.602 190.258 435.841 191.035 434.905 191.035H413.777C412.841 191.035 412.079 190.258 412.079 189.322Z" fill="white"/>
<path d="M293.917 189.322C293.917 188.386 294.695 187.625 295.63 187.625H334.477C335.429 187.625 336.19 188.386 336.19 189.322C336.19 190.258 335.429 191.035 334.477 191.035H295.63C294.695 191.035 293.917 190.258 293.917 189.322Z" fill="white"/>
<path d="M342.853 203.519C342.853 202.583 343.614 201.806 344.566 201.806H439.188C440.14 201.806 440.902 202.583 440.902 203.519C440.902 204.455 440.14 205.217 439.188 205.217H344.566C343.614 205.217 342.853 204.454 342.853 203.519Z" fill="white"/>
<path d="M466.931 245.3C466.931 246.236 466.17 246.998 465.234 246.998H427.339C426.387 246.998 425.625 246.236 425.625 245.3C425.625 244.349 426.387 243.587 427.339 243.587H465.234C466.169 243.587 466.931 244.349 466.931 245.3Z" fill="white"/>
<path d="M346.786 189.322C346.786 188.386 347.548 187.625 348.484 187.625H397.978C398.93 187.625 399.691 188.386 399.691 189.322C399.691 190.258 398.93 191.035 397.978 191.035H348.484C347.548 191.035 346.786 190.258 346.786 189.322Z" fill="white"/>
<path d="M270.168 193.121C272.265 193.121 273.966 191.42 273.966 189.323C273.966 187.225 272.265 185.525 270.168 185.525C268.07 185.525 266.37 187.225 266.37 189.323C266.37 191.42 268.07 193.121 270.168 193.121Z" fill="white"/>
<path d="M270.168 207.315C272.265 207.315 273.966 205.614 273.966 203.517C273.966 201.419 272.265 199.719 270.168 199.719C268.07 199.719 266.37 201.419 266.37 203.517C266.37 205.614 268.07 207.315 270.168 207.315Z" fill="white"/>
<path d="M270.168 221.509C272.265 221.509 273.966 219.808 273.966 217.711C273.966 215.613 272.265 213.913 270.168 213.913C268.07 213.913 266.37 215.613 266.37 217.711C266.37 219.808 268.07 221.509 270.168 221.509Z" fill="white"/>
<path d="M270.168 235.703C272.265 235.703 273.966 234.002 273.966 231.905C273.966 229.807 272.265 228.107 270.168 228.107C268.07 228.107 266.37 229.807 266.37 231.905C266.37 234.002 268.07 235.703 270.168 235.703Z" fill="white"/>
<path d="M273.932 246.707C274.268 244.637 272.862 242.686 270.792 242.35C268.722 242.014 266.771 243.42 266.435 245.49C266.099 247.561 267.505 249.512 269.575 249.848C271.646 250.184 273.596 248.778 273.932 246.707Z" fill="white"/>
<path d="M271.64 263.801C273.578 262.998 274.498 260.777 273.696 258.839C272.893 256.901 270.671 255.981 268.733 256.783C266.796 257.586 265.875 259.808 266.678 261.746C267.481 263.684 269.702 264.604 271.64 263.801Z" fill="white"/>
<path d="M270.168 278.285C272.265 278.285 273.966 276.585 273.966 274.487C273.966 272.39 272.265 270.689 270.168 270.689C268.07 270.689 266.37 272.39 266.37 274.487C266.37 276.585 268.07 278.285 270.168 278.285Z" fill="white"/>
<g opacity="0.03">
<path d="M232.083 287.44V349.535C232.083 354.145 228.345 357.901 223.718 357.901H84.0867V279.075H223.718C228.345 279.075 232.083 282.813 232.083 287.44Z" fill="#111228"/>
</g>
<path d="M227.556 282.376V344.472C227.556 349.082 223.818 352.838 219.191 352.838H48.6966C44.0695 352.838 40.3311 349.083 40.3311 344.472V282.376C40.3311 277.75 44.0695 274.012 48.6966 274.012H219.191C223.818 274.012 227.556 277.75 227.556 282.376Z" fill="url(#paint2_linear_412_9622)"/>
<path d="M100.415 315.537V307.808H94.7828C94.2462 305.042 93.1734 302.461 91.6476 300.215L95.6209 296.241L90.1222 290.759L86.1655 294.716C83.9193 293.19 81.3543 292.101 78.5712 291.564V285.965H70.8261V291.564C68.06 292.101 65.4782 293.19 63.2318 294.716L59.2754 290.759L53.7933 296.241L57.7664 300.215C56.241 302.461 55.1512 305.042 54.6315 307.808H48.9985V315.537H54.6148C55.151 318.303 56.2242 320.868 57.7496 323.131L53.7931 327.105L59.2752 332.569L63.2316 328.63C65.4782 330.155 68.0598 331.246 70.8259 331.765V337.365H78.571V331.765C81.354 331.246 83.9191 330.155 86.182 328.63L90.1217 332.569L95.6205 327.105L91.6472 323.131C93.173 320.868 94.2624 318.303 94.7823 315.537H100.415ZM74.6967 324.188C67.7883 324.188 62.1936 318.573 62.1936 311.685C62.1936 304.777 67.7883 299.14 74.6967 299.14C81.6263 299.14 87.2206 304.777 87.2206 311.685C87.2206 318.573 81.6265 324.188 74.6967 324.188Z" fill="white"/>
<path d="M167.063 296.88H109.872V307.201H167.063V296.88Z" fill="white"/>
<path d="M218.381 314.209H109.872V318.494H218.381V314.209Z" fill="white"/>
<path d="M159.373 325.675H109.872V329.959H159.373V325.675Z" fill="white"/>
<path d="M198.02 325.675H169.751V329.959H198.02V325.675Z" fill="white"/>
<path d="M284.994 331.919C284.292 331.214 283.321 330.949 282.173 331.385L265.25 338.979C264.037 339.549 263.243 340.608 263.243 341.94V342.279C263.243 343.622 264.043 344.675 265.263 345.248L282.174 352.834L282.221 352.854C283.171 353.211 284.25 353.047 284.993 352.304C286.296 351.005 285.79 348.835 284.086 348.126L270.553 342.111L284.068 336.103C285.867 335.352 286.246 333.167 284.994 331.919Z" fill="white"/>
<path d="M299.777 323.192L288.543 356.041C287.916 357.932 289.229 359.518 290.95 359.518C292.213 359.518 293.078 358.721 293.394 357.765L304.626 324.916C304.99 323.839 304.728 322.886 304.078 322.205C302.866 320.938 300.424 321.233 299.777 323.192Z" fill="white"/>
<path d="M327.867 338.972L310.945 331.381C310.075 331.006 308.866 331.186 308.136 331.918C306.84 333.214 307.333 335.381 309.045 336.096L322.578 342.111L309.063 348.117C307.274 348.865 306.876 351.043 308.136 352.301C308.94 353.108 310.121 353.193 310.957 352.834L327.88 345.242C329.097 344.67 329.887 343.609 329.887 342.28V341.941C329.887 340.603 329.095 339.553 327.867 338.972Z" fill="white"/>
<path d="M463.56 320.191H343.981V324.163H463.56V320.191Z" fill="white"/>
<path d="M404.53 329.343H389.238V333.316H404.53V329.343Z" fill="white"/>
<path d="M382.706 329.343H343.981V333.316H382.706V329.343Z" fill="white"/>
<path d="M433.041 329.343H409.785V333.316H433.041V329.343Z" fill="white"/>
<path d="M463.561 329.343H438.457V333.316H463.561V329.343Z" fill="white"/>
<path d="M366.14 338.495H343.981V342.468H366.14V338.495Z" fill="white"/>
<path d="M412.653 338.495H374.265V342.468H412.653V338.495Z" fill="white"/>
<path d="M450.403 338.495H418.864V342.468H450.403V338.495Z" fill="white"/>
<path d="M391.626 347.647H343.981V351.62H391.626V347.647Z" fill="white"/>
<path d="M430.174 347.647H398.794V351.62H430.174V347.647Z" fill="white"/>
<path d="M463.562 347.647H440.05V351.62H463.562V347.647Z" fill="white"/>
<path d="M365.184 356.799H343.981V360.772H365.184V356.799Z" fill="white"/>
<path d="M396.564 356.799H373.627V360.772H396.564V356.799Z" fill="white"/>
<path d="M415.998 356.799H403.255V360.772H415.998V356.799Z" fill="white"/>
<path d="M58.9975 156.858L60.4511 165.884C60.6201 167.067 59.6061 168.115 58.4229 167.912L47.8764 166.221C41.8259 169.703 34.7949 171.697 27.3242 171.697C4.5412 171.697 -13.9489 153.241 -13.9489 130.458C-13.9489 107.674 4.5412 89.1846 27.3242 89.1846C50.1072 89.1846 68.5637 107.675 68.5637 130.458C68.5637 140.497 64.9468 149.725 58.9975 156.858Z" fill="#7F5ACC"/>
<path d="M27.3044 156.349C13.0196 156.349 1.39734 144.727 1.39734 130.441C1.39734 116.155 13.0198 104.533 27.3044 104.533C41.5903 104.533 53.2126 116.155 53.2126 130.441C53.2126 144.726 41.5903 156.349 27.3044 156.349ZM27.3044 107.012C14.3866 107.012 3.87677 117.522 3.87677 130.441C3.87677 143.36 14.3866 153.869 27.3044 153.869C40.2233 153.869 50.7332 143.36 50.7332 130.441C50.7332 117.522 40.2233 107.012 27.3044 107.012Z" fill="white"/>
<path d="M27.3093 119.704C20.8952 119.704 14.7318 117.341 9.95569 113.052L11.6118 111.207C15.9327 115.087 21.5078 117.225 27.3093 117.225C33.1096 117.225 38.6848 115.088 43.0068 111.207L44.6629 113.052C39.8856 117.341 33.7222 119.704 27.3093 119.704Z" fill="white"/>
<path d="M11.6259 149.685L9.96729 147.842C14.7385 143.544 20.8985 141.176 27.3102 141.176C33.7218 141.176 39.8818 143.544 44.6518 147.842L42.9932 149.684C38.6783 145.797 33.1082 143.656 27.3102 143.656C21.5123 143.656 15.942 145.797 11.6259 149.685Z" fill="white"/>
<path d="M27.3047 156.349C18.9754 156.349 12.451 144.969 12.451 130.441C12.451 115.913 18.9754 104.533 27.3047 104.533C35.634 104.533 42.1596 115.913 42.1596 130.441C42.1596 144.968 35.634 156.349 27.3047 156.349ZM27.3047 107.012C20.5976 107.012 14.9305 117.741 14.9305 130.441C14.9305 143.141 20.5976 153.869 27.3047 153.869C34.0131 153.869 39.6801 143.141 39.6801 130.441C39.6801 117.741 34.0131 107.012 27.3047 107.012Z" fill="white"/>
<path d="M28.545 105.773H26.0656V155.109H28.545V105.773Z" fill="white"/>
<path d="M51.9744 129.201H2.63855V131.681H51.9744V129.201Z" fill="white"/>
<path d="M603.311 72.4939C603.693 81.4904 600.16 89.6651 594.296 95.4719C590.246 99.4833 587.305 104.067 585.872 109.244H559.933C558.577 104.182 555.846 99.6364 551.834 95.7964C546.047 90.2575 542.456 82.4649 542.456 73.8117C542.456 56.2385 557.355 42.1422 575.214 43.46C590.495 44.6064 602.662 57.1935 603.311 72.4939Z" fill="#FF7C5C"/>
<path d="M581.344 77.7161C581.286 77.708 581.226 77.7084 581.171 77.7098C581.113 77.7088 581.053 77.7088 580.997 77.7161C578.76 77.8438 576.98 79.7035 576.98 81.9719V84.7583H573.834H571.949H568.804V81.9719C568.804 79.7035 567.023 77.8438 564.786 77.7161C564.729 77.708 564.67 77.7084 564.613 77.7098C564.556 77.7088 564.496 77.7088 564.44 77.7161C562.203 77.8438 560.422 79.7035 560.422 81.9719C560.422 84.3218 562.334 86.2337 564.684 86.2337H567.328V110.332C567.328 110.739 567.658 111.07 568.065 111.07C568.473 111.07 568.803 110.739 568.803 110.332V86.2337H571.949H573.834H576.979V110.332C576.979 110.739 577.31 111.07 577.717 111.07C578.124 111.07 578.455 110.739 578.455 110.332V86.2337H581.098C583.449 86.2337 585.36 84.3218 585.36 81.9719C585.361 79.7035 583.58 77.8438 581.344 77.7161ZM567.328 84.7583H564.685C563.148 84.7583 561.899 83.5082 561.899 81.9719C561.899 80.4591 563.11 79.2238 564.613 79.1858C566.117 79.2238 567.328 80.4591 567.328 81.9719V84.7583ZM581.099 84.7583H578.455V81.9719C578.455 80.4591 579.667 79.2238 581.171 79.1858C582.674 79.2238 583.885 80.4591 583.885 81.9719C583.885 83.5082 582.636 84.7583 581.099 84.7583Z" fill="white"/>
<path d="M587.29 110.732V117.202C587.29 118.02 586.619 118.69 585.802 118.69H559.981C559.163 118.69 558.504 118.02 558.504 117.202V110.732C558.504 109.914 559.163 109.244 559.981 109.244H585.802C586.619 109.244 587.29 109.914 587.29 110.732Z" fill="#373A50"/>
<path d="M581.722 118.69V122.241C581.722 122.868 581.222 123.367 580.596 123.367H565.185C564.567 123.367 564.059 122.868 564.059 122.241V118.69H581.722Z" fill="#373A50"/>
<path d="M572.642 37.0403C571.931 37.0403 571.356 36.4643 571.356 35.7541V29.5654C571.356 28.855 571.932 28.2791 572.642 28.2791C573.352 28.2791 573.928 28.8552 573.928 29.5654V35.7541C573.928 36.4643 573.352 37.0403 572.642 37.0403Z" fill="#FF7C5C"/>
<path d="M557.463 41.3786C557.018 41.3786 556.586 41.1478 556.348 40.7351L553.253 35.3752C552.898 34.7599 553.109 33.9732 553.724 33.618C554.338 33.2616 555.126 33.4738 555.481 34.0887L558.576 39.4486C558.931 40.0638 558.72 40.8506 558.105 41.2058C557.903 41.3231 557.681 41.3786 557.463 41.3786Z" fill="#FF7C5C"/>
<path d="M546.482 52.7256C546.264 52.7256 546.043 52.6701 545.84 52.553L540.481 49.4587C539.865 49.1035 539.655 48.3168 540.01 47.7017C540.365 47.0868 541.15 46.8741 541.767 47.231L547.127 50.3253C547.742 50.6805 547.953 51.4672 547.598 52.0825C547.359 52.4949 546.927 52.7256 546.482 52.7256Z" fill="#FF7C5C"/>
<path d="M599.304 51.8535C598.859 51.8535 598.427 51.6227 598.188 51.21C597.833 50.5947 598.044 49.808 598.659 49.453L604.019 46.3586C604.633 46.0018 605.42 46.2145 605.776 46.8294C606.131 47.4447 605.921 48.2314 605.305 48.5864L599.946 51.6807C599.743 51.798 599.521 51.8535 599.304 51.8535Z" fill="#FF7C5C"/>
<path d="M587.954 40.8762C587.736 40.8762 587.515 40.8207 587.312 40.7036C586.698 40.3484 586.487 39.5617 586.842 38.9464L589.935 33.5867C590.291 32.9714 591.076 32.7596 591.693 33.116C592.308 33.4712 592.519 34.2579 592.164 34.873L589.07 40.2327C588.831 40.6452 588.399 40.8762 587.954 40.8762Z" fill="#FF7C5C"/>
<defs>
<linearGradient id="paint0_linear_412_9622" x1="364.527" y1="307.487" x2="364.527" y2="373.476" gradientUnits="userSpaceOnUse">
<stop stop-color="#D7EEFF"/>
<stop offset="1" stop-color="#B6E1FF"/>
</linearGradient>
<linearGradient id="paint1_linear_412_9622" x1="363.037" y1="182.025" x2="364.84" y2="314.081" gradientUnits="userSpaceOnUse">
<stop stop-color="#A37EF0"/>
<stop offset="1" stop-color="#7F5ACC"/>
</linearGradient>
<linearGradient id="paint2_linear_412_9622" x1="79.7036" y1="246.481" x2="188.185" y2="380.362" gradientUnits="userSpaceOnUse">
<stop stop-color="#35ABFF"/>
<stop offset="1" stop-color="#269EF4"/>
</linearGradient>
</defs>
</svg>
