<svg width="480" height="561" viewBox="0 0 480 561" fill="none" xmlns="http://www.w3.org/2000/svg">
<path d="M458.581 380.319H261.664V266.343H458.581V380.319ZM262.866 379.118H457.379V267.544H262.866V379.118Z" fill="#E0E0E0"/>
<path d="M417.962 327.114H288.015V330.925H417.962V327.114Z" fill="#F0F0F0"/>
<path d="M426.911 341.32H288.015V345.479H426.911V341.32Z" fill="#F0F0F0"/>
<path d="M426.911 355.693H288.015V359.852H426.911V355.693Z" fill="#F0F0F0"/>
<path d="M333.43 306.481H288.015V316.37H333.43V306.481Z" fill="#F0F0F0"/>
<path d="M457.98 266.942H262.265V285.087H457.98V266.942Z" fill="#E0E0E0"/>
<path d="M442.918 282.376C442.668 282.137 445.191 279.095 448.55 275.583C451.911 272.069 454.837 269.415 455.087 269.655C455.337 269.894 452.815 272.935 449.453 276.448C446.095 279.961 443.168 282.615 442.918 282.376Z" fill="white"/>
<path d="M455.088 282.376C454.838 282.615 451.912 279.96 448.552 276.448C445.19 272.934 442.669 269.892 442.918 269.654C443.168 269.417 446.093 272.069 449.455 275.583C452.816 279.095 455.338 282.137 455.088 282.376Z" fill="white"/>
<path d="M226.234 250.759H29.3174V136.782H226.234V250.759ZM30.5191 249.557H225.033V137.984H30.5191V249.557Z" fill="#E0E0E0"/>
<path d="M185.614 197.553H55.666V201.365H185.614V197.553Z" fill="#F0F0F0"/>
<path d="M194.564 211.761H55.666V215.919H194.564V211.761Z" fill="#F0F0F0"/>
<path d="M194.564 226.132H55.666V230.29H194.564V226.132Z" fill="#F0F0F0"/>
<path d="M101.081 176.92H55.666V186.81H101.081V176.92Z" fill="#F0F0F0"/>
<path d="M225.633 137.383H29.918V155.528H225.633V137.383Z" fill="#E0E0E0"/>
<path d="M369.373 276.877H138.278V483.76H369.373V276.877Z" fill="#E6E6E6"/>
<path d="M432.739 82.3923H201.644V312.715H432.739V82.3923Z" fill="#F0F0F0"/>
<path d="M432.739 82.3923H201.644V109.371H432.739V82.3923Z" fill="#E0E0E0"/>
<path d="M221.323 95.6039C221.323 98.4928 219.083 100.835 216.319 100.835C213.556 100.835 211.316 98.4928 211.316 95.6039C211.316 92.715 213.556 90.374 216.319 90.374C219.082 90.374 221.323 92.7162 221.323 95.6039Z" fill="white"/>
<path d="M240.155 92.0672C242.197 94.1101 242.269 97.35 240.315 99.3027C238.361 101.257 235.121 101.185 233.079 99.1429C231.038 97.1 230.964 93.8602 232.918 91.9062C234.871 89.9522 238.111 90.0243 240.155 92.0672Z" fill="white"/>
<path d="M261.916 95.6039C261.916 98.4928 259.676 100.835 256.912 100.835C254.148 100.835 251.909 98.4928 251.909 95.6039C251.909 92.715 254.148 90.374 256.912 90.374C259.676 90.374 261.916 92.7162 261.916 95.6039Z" fill="white"/>
<path d="M419.056 544.868C419.056 545.04 327.496 545.182 214.577 545.182C101.62 545.182 10.0791 545.041 10.0791 544.868C10.0791 544.695 101.619 544.555 214.577 544.555C327.496 544.556 419.056 544.697 419.056 544.868Z" fill="#221047"/>
<path d="M301.502 397.755C282.938 384.785 278.726 360.711 279.46 339.071C279.583 335.458 279.185 331.65 280.903 328.48C282.623 325.311 286.632 323.146 289.866 324.667C292.548 325.93 293.717 329.05 295.218 331.631C297.214 335.064 300.19 337.906 303.69 339.722C305.99 340.915 308.836 341.646 311.107 340.394C314.223 338.674 314.59 334.37 314.568 330.776C314.526 324.08 314.485 317.383 314.443 310.689C314.42 307.097 314.411 303.428 315.527 300.018C316.645 296.609 319.113 293.441 322.531 292.484C325.95 291.527 330.175 293.497 330.897 297.014C331.198 298.478 330.9 299.997 330.999 301.488C331.099 302.98 331.794 304.629 333.21 305.045C334.644 305.467 336.083 304.448 337.156 303.397C340.864 299.77 343.381 295.096 345.732 290.449C348.084 285.802 350.366 281.045 353.731 277.087C357.096 273.13 361.75 269.996 366.895 269.704C372.04 269.413 377.523 272.588 378.823 277.64C380.127 282.705 377.172 287.844 373.956 291.944C369.185 298.027 363.542 303.407 357.258 307.861C356.126 308.665 354.898 309.534 354.465 310.864C353.685 313.259 355.954 315.638 358.319 316.426C360.997 317.317 363.902 317.04 366.704 317.369C369.505 317.698 372.54 318.935 373.599 321.582C375.071 325.255 371.999 329.104 368.977 331.624C362.927 336.672 356.017 340.661 348.645 343.361C346.003 344.328 343.221 345.177 341.09 347.033C338.959 348.891 337.672 352.119 338.961 354.65C340.249 357.183 343.554 357.993 346.322 357.479C349.09 356.965 351.568 355.462 354.207 354.467C359.144 352.603 365.52 352.943 368.683 357.211C370.761 360.015 370.944 363.921 369.893 367.264C368.843 370.607 366.711 373.488 364.447 376.144C356.533 385.428 346.403 392.902 334.949 396.873C323.497 400.844 312.885 401.918 301.502 397.755Z" fill="#FF5329"/>
<path d="M373.632 272.712C373.641 272.72 373.522 272.837 373.284 273.053C373.018 273.29 372.665 273.605 372.217 274.005C371.276 274.837 369.888 276.064 368.144 277.692C364.653 280.938 359.749 285.822 354.422 292.503C351.748 295.833 348.971 299.603 346.061 303.704C343.159 307.813 340.085 312.222 337.028 316.978C333.971 321.732 330.91 326.828 328.164 332.333C326.78 335.079 325.544 337.953 324.284 340.883C323.03 343.813 321.759 346.785 320.472 349.793C315.367 361.84 310.877 373.487 307.669 384.366C304.442 395.235 302.522 405.309 301.682 413.845C300.82 422.385 300.997 429.355 301.345 434.137C301.533 436.529 301.717 438.386 301.885 439.638C301.955 440.239 302.009 440.711 302.051 441.067C302.084 441.389 302.096 441.556 302.086 441.558C302.074 441.559 302.04 441.397 301.983 441.077C301.927 440.725 301.85 440.254 301.753 439.657C301.541 438.408 301.317 436.554 301.088 434.159C300.662 429.373 300.412 422.377 301.217 413.801C302 405.228 303.881 395.103 307.087 384.191C310.272 373.269 314.757 361.587 319.866 349.531C321.154 346.521 322.428 343.547 323.683 340.617C324.942 337.695 326.191 334.796 327.587 332.037C330.357 326.504 333.441 321.397 336.521 316.642C339.598 311.882 342.694 307.478 345.617 303.381C348.55 299.288 351.356 295.525 354.06 292.205C359.448 285.54 364.422 280.69 367.972 277.501C369.745 275.899 371.159 274.702 372.13 273.903C372.598 273.524 372.963 273.226 373.239 273.002C373.492 272.801 373.625 272.702 373.632 272.712Z" fill="#221047"/>
<path d="M327.78 332.01C327.735 332.018 327.613 331.472 327.429 330.478C327.24 329.486 327.014 328.041 326.762 326.251C326.254 322.673 325.721 317.71 325.154 312.235C324.587 306.756 323.985 301.815 323.425 298.255C323.149 296.476 322.912 295.036 322.735 294.043C322.563 293.05 322.49 292.494 322.534 292.484C322.579 292.474 322.737 293.01 322.986 293.989C323.241 294.967 323.55 296.398 323.884 298.174C324.565 301.726 325.244 306.679 325.81 312.163C326.356 317.567 326.848 322.456 327.226 326.192C327.406 327.878 327.56 329.299 327.684 330.44C327.788 331.444 327.827 332.004 327.78 332.01Z" fill="#221047"/>
<path d="M373.968 323.379C373.969 323.424 373.312 323.501 372.126 323.6C370.941 323.706 369.225 323.849 367.111 324.094C362.88 324.55 357.059 325.386 350.675 326.588C344.293 327.803 338.563 329.148 334.447 330.24C332.384 330.772 330.727 331.247 329.579 331.57C328.433 331.895 327.792 332.055 327.777 332.012C327.762 331.967 328.377 331.725 329.502 331.321C330.629 330.923 332.271 330.377 334.324 329.785C338.419 328.572 344.152 327.151 350.554 325.931C356.956 324.726 362.81 323.96 367.066 323.624C369.193 323.439 370.918 323.365 372.112 323.341C373.306 323.321 373.966 323.332 373.968 323.379Z" fill="#221047"/>
<path d="M307.656 383.339C307.635 383.349 307.528 383.156 307.339 382.776C307.125 382.324 306.865 381.772 306.55 381.104C305.871 379.65 304.942 377.521 303.829 374.873C301.601 369.582 298.752 362.176 295.72 353.961C292.685 345.743 289.91 338.319 287.794 332.99C286.759 330.399 285.905 328.267 285.271 326.683C284.999 325.996 284.777 325.429 284.593 324.962C284.445 324.567 284.377 324.354 284.398 324.344C284.42 324.335 284.527 324.529 284.716 324.908C284.93 325.36 285.19 325.911 285.505 326.579C286.184 328.033 287.113 330.162 288.226 332.81C290.455 338.101 293.303 345.507 296.336 353.726C299.369 361.942 302.145 369.363 304.26 374.694C305.297 377.284 306.15 379.417 306.784 381C307.056 381.687 307.278 382.255 307.462 382.721C307.61 383.118 307.678 383.33 307.656 383.339Z" fill="#221047"/>
<path d="M369.038 363.557C369.044 363.58 368.834 363.665 368.429 363.808C367.95 363.969 367.36 364.166 366.647 364.405C365.001 364.939 362.777 365.66 360.074 366.535C354.524 368.335 346.887 370.909 338.454 373.764C330.016 376.622 322.349 379.127 316.76 380.812C313.966 381.656 311.698 382.316 310.123 382.739C309.395 382.93 308.794 383.087 308.305 383.217C307.887 383.319 307.664 383.361 307.658 383.339C307.652 383.318 307.863 383.231 308.268 383.087C308.746 382.927 309.336 382.73 310.05 382.491C311.696 381.958 313.918 381.238 316.622 380.36C322.171 378.561 329.81 375.986 338.246 373.13C346.68 370.273 354.346 367.768 359.935 366.083C362.729 365.239 364.997 364.579 366.574 364.155C367.302 363.964 367.902 363.806 368.392 363.678C368.809 363.577 369.031 363.535 369.038 363.557Z" fill="#221047"/>
<path d="M344.001 72.0509L337.809 74.2657L335.162 66.1793C330.278 51.2636 314.691 43.283 300.436 48.3831C286.171 53.4856 278.545 69.7701 283.429 84.6858L286.076 92.7721L279.863 94.9941C275.032 96.7222 272.418 102.291 274.072 107.347L291.3 159.971C292.98 165.103 298.315 167.84 303.145 166.112L367.286 143.167C372.195 141.412 374.812 135.83 373.131 130.698L355.903 78.0739C354.246 73.0183 348.909 70.294 344.001 72.0509ZM295.114 80.5038C292.438 72.3297 296.615 63.4034 304.436 60.6058C312.25 57.8106 320.787 62.1884 323.463 70.3625L326.11 78.4501L297.762 88.5902L295.114 80.5038ZM331.177 127.194L335.576 140.633C335.761 141.201 335.437 141.782 334.888 141.979L328.732 144.18C328.261 144.349 327.658 144.1 327.473 143.531L323.073 130.093C318.306 129.891 313.882 126.731 312.226 121.676C310.099 115.176 313.426 108.069 319.664 105.837C325.899 103.607 332.693 107.092 334.821 113.593C336.476 118.649 334.831 123.981 331.177 127.194Z" fill="#FF5329"/>
<path d="M337.538 74.1199C337.597 74.2822 326.061 78.6011 311.775 83.7637C297.486 88.9287 285.858 92.9833 285.799 92.821C285.74 92.6588 297.273 88.341 311.564 83.1761C325.847 78.0135 337.479 73.9577 337.538 74.1199Z" fill="#221047"/>
<path d="M351.159 76.3348C351.17 76.3312 351.216 76.4382 351.297 76.6497C351.388 76.8948 351.504 77.2048 351.647 77.5918C351.955 78.4679 352.384 79.6864 352.93 81.2342C354.034 84.4512 355.606 89.0285 357.541 94.667C359.47 100.36 361.761 107.116 364.303 114.615C365.559 118.38 366.93 122.292 368.246 126.424C368.854 128.5 369.359 130.72 369.147 133.019C369.04 134.159 368.73 135.307 368.175 136.345C367.609 137.376 366.819 138.283 365.904 139.022C364.057 140.499 361.894 141.362 359.805 142.136C357.708 142.889 355.64 143.632 353.61 144.362C349.548 145.814 345.631 147.217 341.897 148.554C334.437 151.21 327.714 153.604 322.052 155.62C316.428 157.598 311.863 159.204 308.655 160.332C307.104 160.864 305.88 161.283 305.003 161.583C304.611 161.711 304.297 161.813 304.048 161.893C303.83 161.961 303.719 161.99 303.715 161.979C303.711 161.969 303.817 161.92 304.026 161.833C304.27 161.737 304.578 161.616 304.96 161.464C305.83 161.138 307.039 160.681 308.573 160.103C311.765 158.929 316.308 157.26 321.904 155.203C327.552 153.151 334.259 150.715 341.704 148.012C345.433 146.664 349.347 145.251 353.404 143.785C355.432 143.053 357.497 142.308 359.591 141.552C361.664 140.784 363.768 139.932 365.511 138.536C366.375 137.839 367.103 136.997 367.627 136.048C368.139 135.092 368.427 134.033 368.53 132.96C368.733 130.8 368.256 128.643 367.659 126.598C366.365 122.507 364.994 118.561 363.757 114.801C361.264 107.286 359.017 100.513 357.123 94.8088C355.267 89.1439 353.759 84.5449 352.701 81.3135C352.202 79.7501 351.81 78.5183 351.529 77.6339C351.409 77.2385 351.314 76.9224 351.239 76.6713C351.174 76.4514 351.148 76.3384 351.159 76.3348Z" fill="#221047"/>
<path d="M317.322 59.7632C317.291 59.816 316.684 59.4399 315.503 58.964C314.319 58.5122 312.527 57.9846 310.257 57.9125C308.002 57.8296 305.257 58.1781 302.517 59.375C299.787 60.5575 297.097 62.6569 295.172 65.5134C293.209 68.359 292.349 71.6517 292.348 74.638C292.323 77.6375 292.96 80.3089 293.572 82.5008C294.205 84.6952 294.853 86.4365 295.279 87.6454C295.711 88.8543 295.944 89.5261 295.902 89.5429C295.863 89.5573 295.554 88.9168 295.052 87.7343C294.556 86.5494 293.843 84.8286 293.149 82.6282C292.476 80.4303 291.779 77.7252 291.771 74.6344C291.739 71.5604 292.619 68.1067 294.653 65.1613C296.65 62.2002 299.449 60.0408 302.289 58.845C305.138 57.6373 307.968 57.3273 310.279 57.4691C312.606 57.6001 314.424 58.2093 315.599 58.7393C316.181 59.0241 316.625 59.2572 316.905 59.4531C317.191 59.6394 317.334 59.7439 317.322 59.7632Z" fill="#221047"/>
<path d="M317.869 106.786C317.861 106.771 318.069 106.667 318.478 106.483C318.883 106.295 319.503 106.053 320.332 105.817C321.155 105.558 322.21 105.371 323.455 105.297C324.697 105.236 326.159 105.365 327.671 105.926C330.741 107.005 333.572 110.144 334.961 114.303C335.629 116.404 335.688 118.843 335.016 121.202C334.3 123.551 332.985 125.805 331.086 127.699L331.166 127.38C332.762 131.76 334.499 136.528 336.309 141.487L336.418 141.789L336.114 141.891C335.243 142.183 334.308 142.497 333.367 142.811C331.342 143.489 329.346 144.157 327.387 144.813L327.092 144.912L326.995 144.615C325.348 139.633 323.544 134.935 322.234 130.446L322.494 130.65C320.034 130.485 317.823 129.453 316.062 128.107C314.295 126.748 312.94 125.061 312.027 123.286C311.129 121.505 310.678 119.615 310.753 117.873C310.798 116.133 311.199 114.558 311.762 113.23C312.883 110.551 314.553 108.866 315.791 107.947C317.051 107.025 317.869 106.786 317.869 106.786C317.897 106.84 317.106 107.142 315.903 108.093C314.724 109.042 313.13 110.729 312.082 113.361C311.036 115.929 310.581 119.621 312.454 123.066C313.351 124.769 314.675 126.388 316.385 127.684C318.087 128.968 320.212 129.935 322.524 130.077L322.727 130.089L322.784 130.281C324.109 134.739 325.923 139.418 327.583 144.42L327.189 144.223C329.147 143.567 331.143 142.897 333.168 142.218C334.109 141.903 335.042 141.589 335.915 141.297L335.72 141.7C333.924 136.736 332.196 131.963 330.61 127.581L330.546 127.404L330.689 127.262C332.486 125.485 333.796 123.281 334.486 121.046C335.142 118.79 335.104 116.472 334.481 114.448C333.168 110.412 330.467 107.343 327.539 106.265C326.093 105.7 324.678 105.546 323.461 105.579C322.243 105.622 321.201 105.777 320.379 106.003C318.73 106.428 317.89 106.839 317.869 106.786Z" fill="#221047"/>
<path d="M280.725 453.763L160.697 453.207C146.26 453.141 134.61 441.387 134.671 426.951L135.944 126.036C136.005 111.592 147.766 99.934 162.21 100.001L282.238 100.555C296.675 100.623 308.324 112.377 308.263 126.812L306.99 427.726C306.931 442.171 295.17 453.83 280.725 453.763Z" fill="#35ABFF"/>
<path d="M282.068 110.94L258.797 110.833C255.676 110.819 253.134 113.453 253.121 116.715L253.102 120.936C253.088 124.199 250.547 126.832 247.426 126.818L202.065 126.608C198.944 126.594 196.425 123.937 196.438 120.674L196.456 116.453C196.47 113.19 193.951 110.533 190.83 110.519L182.645 110.48L162.277 110.386C152.162 110.34 143.924 118.504 143.881 128.62L142.64 422.334C142.597 432.445 150.756 440.677 160.866 440.724L280.656 441.277C290.771 441.324 299.007 433.159 299.052 423.043L300.293 129.328C300.336 119.219 292.178 110.988 282.068 110.94Z" fill="white"/>
<path d="M265.948 402.097L176.872 401.686C175.95 401.681 175.206 400.678 175.212 399.444L175.31 376.14C175.315 374.906 176.068 373.91 176.989 373.913L266.065 374.326C266.988 374.33 267.732 375.334 267.726 376.568L267.628 399.87C267.623 401.105 266.87 402.102 265.948 402.097Z" fill="#FF5329"/>
<path d="M204.046 389.925C203.539 389.923 203.052 389.84 202.584 389.675C202.123 389.504 201.766 389.287 201.514 389.026L201.799 388.471C202.039 388.707 202.36 388.907 202.762 389.071C203.171 389.229 203.6 389.309 204.049 389.311C204.478 389.313 204.826 389.263 205.093 389.16C205.367 389.05 205.566 388.905 205.69 388.724C205.821 388.542 205.887 388.341 205.888 388.12C205.889 387.853 205.812 387.638 205.656 387.475C205.507 387.312 205.31 387.184 205.063 387.092C204.816 386.993 204.543 386.907 204.245 386.834C203.946 386.761 203.647 386.685 203.348 386.606C203.049 386.52 202.774 386.408 202.52 386.27C202.274 386.133 202.073 385.953 201.918 385.731C201.769 385.503 201.696 385.207 201.697 384.842C201.699 384.504 201.788 384.196 201.965 383.917C202.148 383.632 202.425 383.405 202.797 383.238C203.168 383.064 203.643 382.978 204.222 382.981C204.605 382.983 204.986 383.04 205.362 383.152C205.739 383.258 206.064 383.406 206.336 383.596L206.09 384.17C205.798 383.974 205.486 383.829 205.155 383.737C204.83 383.644 204.515 383.597 204.209 383.596C203.8 383.594 203.461 383.647 203.194 383.757C202.927 383.866 202.728 384.015 202.597 384.203C202.473 384.384 202.41 384.592 202.41 384.826C202.408 385.093 202.482 385.308 202.631 385.471C202.787 385.634 202.988 385.762 203.234 385.854C203.488 385.946 203.764 386.029 204.062 386.102C204.361 386.175 204.657 386.254 204.949 386.34C205.248 386.426 205.52 386.538 205.767 386.675C206.02 386.807 206.221 386.983 206.37 387.205C206.525 387.427 206.602 387.716 206.6 388.074C206.599 388.406 206.506 388.714 206.323 389C206.14 389.278 205.859 389.505 205.481 389.678C205.11 389.846 204.632 389.928 204.046 389.925ZM208.165 389.886L208.194 383.058L208.916 383.061L208.887 389.889L208.165 389.886ZM211.109 389.899L211.137 383.071L211.732 383.074L216.419 389.026L216.107 389.025L216.131 383.094L216.843 383.098L216.815 389.926L216.22 389.923L211.543 383.971L211.855 383.972L211.83 389.903L211.109 389.899ZM222.038 390.008C221.517 390.006 221.037 389.919 220.595 389.748C220.16 389.57 219.781 389.325 219.457 389.011C219.14 388.698 218.891 388.329 218.711 387.905C218.537 387.482 218.451 387.02 218.453 386.519C218.455 386.018 218.545 385.557 218.722 385.135C218.906 384.713 219.161 384.347 219.488 384.037C219.814 383.726 220.196 383.487 220.632 383.32C221.075 383.146 221.556 383.061 222.077 383.063C222.597 383.066 223.071 383.149 223.5 383.314C223.935 383.478 224.304 383.727 224.609 384.06L224.158 384.516C223.873 384.229 223.559 384.023 223.214 383.898C222.87 383.772 222.5 383.709 222.103 383.707C221.681 383.705 221.29 383.775 220.932 383.916C220.58 384.051 220.27 384.248 220.003 384.507C219.741 384.76 219.535 385.058 219.384 385.402C219.24 385.739 219.167 386.113 219.165 386.522C219.163 386.926 219.233 387.3 219.375 387.645C219.523 387.991 219.727 388.294 219.986 388.555C220.251 388.81 220.559 389.01 220.91 389.154C221.267 389.293 221.653 389.363 222.07 389.365C222.46 389.366 222.827 389.31 223.173 389.194C223.524 389.079 223.847 388.882 224.141 388.604L224.548 389.152C224.222 389.436 223.841 389.652 223.404 389.8C222.968 389.941 222.512 390.01 222.038 390.008ZM223.856 389.061L223.867 386.544L224.559 386.547L224.548 389.152L223.856 389.061ZM231.891 390.054C231.02 390.05 230.335 389.796 229.836 389.293C229.337 388.79 229.09 388.048 229.094 387.066L229.111 383.154L229.833 383.157L229.816 387.04C229.813 387.846 229.992 388.442 230.355 388.827C230.717 389.213 231.23 389.407 231.894 389.41C232.563 389.413 233.081 389.223 233.447 388.841C233.813 388.459 233.997 387.865 234.001 387.059L234.017 383.177L234.719 383.18L234.703 387.091C234.699 388.073 234.445 388.813 233.943 389.312C233.446 389.81 232.762 390.058 231.891 390.054ZM236.866 390.018L236.894 383.19L239.45 383.202C240.029 383.204 240.526 383.301 240.941 383.491C241.357 383.675 241.674 383.944 241.894 384.296C242.12 384.641 242.232 385.061 242.23 385.556C242.228 386.037 242.112 386.452 241.883 386.803C241.661 387.146 241.341 387.411 240.924 387.598C240.507 387.785 240.009 387.877 239.43 387.874L237.275 387.864L237.598 387.524L237.588 390.021L236.866 390.018ZM237.598 387.583L237.277 387.23L239.414 387.24C240.096 387.243 240.614 387.099 240.966 386.808C241.325 386.511 241.506 386.092 241.508 385.552C241.51 385.006 241.333 384.582 240.977 384.282C240.627 383.981 240.111 383.829 239.428 383.826L237.292 383.816L237.615 383.476L237.598 387.583Z" fill="#E8E8E3"/>
<path d="M194.622 197.256L163.718 197.114L163.692 202.785L194.596 202.927L194.622 197.256Z" fill="#FF5329"/>
<path opacity="0.1" d="M194.622 197.256L163.718 197.114L163.692 202.785L194.596 202.927L194.622 197.256Z" fill="black"/>
<path d="M285.247 232.055C285.242 232.031 285.505 232.07 285.952 231.889C286.374 231.726 287.04 231.213 287.117 230.272C287.113 228.355 287.107 225.57 287.1 221.993C287.1 220.192 287.099 218.193 287.098 216.006C287.099 215.458 287.099 214.901 287.099 214.33C287.114 213.746 287.113 213.204 286.762 212.756C286.446 212.31 285.905 212.025 285.341 212.023C284.724 212.021 284.097 212.02 283.459 212.019C278.345 212.009 272.528 211.997 266.101 211.985C240.357 211.889 204.829 211.758 165.588 211.613C165.07 211.609 164.564 211.863 164.264 212.282C163.93 212.708 163.944 213.209 163.952 213.853C163.947 215.073 163.941 216.288 163.936 217.5C163.925 219.924 163.914 222.331 163.905 224.72C163.9 225.916 163.894 227.105 163.888 228.291C163.907 228.86 163.833 229.54 163.938 229.981C164.057 230.463 164.423 230.872 164.877 231.064C165.114 231.16 165.335 231.194 165.621 231.191L166.5 231.196L168.254 231.204C169.421 231.21 170.583 231.216 171.74 231.222C180.994 231.272 189.922 231.32 198.428 231.364C215.431 231.468 230.745 231.561 243.615 231.639C256.46 231.74 266.863 231.823 274.078 231.88C277.657 231.922 280.444 231.954 282.36 231.977C283.29 231.995 284.006 232.008 284.514 232.018C284.998 232.032 285.247 232.055 285.247 232.055C285.247 232.055 284.998 232.076 284.513 232.083C284.004 232.088 283.289 232.095 282.359 232.105C280.441 232.109 277.654 232.117 274.076 232.125C266.859 232.115 256.457 232.101 243.611 232.084C230.742 232.043 215.427 231.995 198.423 231.942C189.918 231.909 180.991 231.874 171.736 231.838C170.579 231.833 169.417 231.828 168.25 231.823L166.496 231.816L165.616 231.812C165.316 231.819 164.943 231.772 164.635 231.637C164.007 231.373 163.506 230.81 163.338 230.141C163.243 229.801 163.264 229.457 163.263 229.18L163.267 228.291C163.271 227.105 163.276 225.914 163.281 224.72C163.291 222.33 163.3 219.923 163.31 217.5C163.315 216.289 163.32 215.073 163.324 213.853C163.334 213.54 163.306 213.266 163.356 212.893C163.408 212.542 163.544 212.202 163.757 211.916C164.169 211.335 164.878 210.981 165.59 210.989C204.829 211.205 240.357 211.403 266.1 211.544C272.529 211.591 278.345 211.633 283.459 211.671C284.097 211.675 284.725 211.68 285.341 211.686C286.014 211.692 286.654 212.038 287.022 212.567C287.434 213.085 287.43 213.794 287.406 214.332C287.402 214.903 287.398 215.462 287.393 216.009C287.373 218.196 287.356 220.194 287.34 221.994C287.296 225.576 287.262 228.365 287.238 230.283C287.134 231.285 286.414 231.799 285.97 231.95C285.505 232.115 285.247 232.055 285.247 232.055Z" fill="#E0E0E0"/>
<path d="M228.546 219.185L172.014 218.925L171.989 224.226L228.522 224.486L228.546 219.185Z" fill="#FF5329"/>
<path opacity="0.2" d="M228.546 219.185L172.014 218.925L171.989 224.226L228.522 224.486L228.546 219.185Z" fill="white"/>
<path d="M194.405 249.006L163.5 248.864L163.474 254.535L194.379 254.677L194.405 249.006Z" fill="#FF5329"/>
<path opacity="0.1" d="M194.405 249.006L163.5 248.864L163.474 254.535L194.379 254.677L194.405 249.006Z" fill="black"/>
<path d="M284.454 283.802C284.452 283.781 284.707 283.803 285.167 283.668C285.603 283.525 286.306 283.164 286.69 282.306C286.895 281.883 286.916 281.37 286.898 280.782C286.895 280.198 286.893 279.561 286.89 278.873C286.888 277.49 286.884 275.897 286.881 274.109C286.881 272.315 286.879 270.323 286.879 268.144C286.879 267.598 286.879 267.042 286.879 266.474C286.906 265.899 286.836 265.367 286.529 264.887C286.24 264.416 285.77 264.042 285.222 263.875C284.685 263.705 284.042 263.797 283.406 263.772C278.311 263.762 272.514 263.75 266.107 263.738C240.452 263.643 205.047 263.511 165.944 263.367C164.857 263.341 163.854 264.226 163.749 265.301C163.713 266.443 163.73 267.706 163.718 268.899C163.707 271.313 163.696 273.713 163.687 276.093C163.682 277.284 163.676 278.471 163.671 279.653C163.691 280.243 163.607 280.859 163.747 281.33C163.883 281.828 164.2 282.271 164.624 282.562C165.065 282.859 165.542 282.968 166.119 282.947L167.867 282.955C169.031 282.961 170.188 282.967 171.342 282.973C180.565 283.021 189.461 283.069 197.936 283.114C214.881 283.217 230.142 283.311 242.966 283.389C255.767 283.49 266.133 283.572 273.324 283.628C276.891 283.67 279.667 283.703 281.578 283.725C282.504 283.743 283.217 283.757 283.724 283.766C284.207 283.779 284.454 283.802 284.454 283.802C284.454 283.802 284.207 283.823 283.723 283.83C283.217 283.835 282.503 283.842 281.576 283.852C279.667 283.856 276.89 283.864 273.323 283.873C266.133 283.864 255.766 283.849 242.964 283.832C230.139 283.793 214.879 283.745 197.933 283.692C189.457 283.658 180.561 283.623 171.339 283.587C170.186 283.582 169.028 283.578 167.865 283.573L166.117 283.566C165.529 283.597 164.807 283.455 164.276 283.075C163.731 282.703 163.325 282.134 163.15 281.495C162.97 280.822 163.077 280.237 163.051 279.65C163.056 278.469 163.059 277.282 163.064 276.091C163.074 273.709 163.085 271.31 163.093 268.895C163.107 267.672 163.083 266.511 163.128 265.226C163.261 263.843 164.552 262.705 165.946 262.74C205.05 262.956 240.454 263.152 266.108 263.294C272.514 263.341 278.31 263.383 283.406 263.421C284.035 263.455 284.671 263.353 285.321 263.552C285.949 263.748 286.479 264.178 286.804 264.717C287.149 265.244 287.223 265.918 287.188 266.474C287.183 267.042 287.18 267.598 287.175 268.145C287.156 270.324 287.138 272.316 287.122 274.11C287.103 275.9 287.087 277.491 287.073 278.874C287.065 279.563 287.057 280.2 287.051 280.782C287.062 281.356 287.027 281.924 286.803 282.358C286.38 283.251 285.637 283.602 285.183 283.729C284.707 283.848 284.454 283.802 284.454 283.802Z" fill="#E0E0E0"/>
<path d="M194.173 302.985L163.268 302.843L163.242 308.514L194.147 308.656L194.173 302.985Z" fill="#FF5329"/>
<path opacity="0.1" d="M194.173 302.985L163.268 302.843L163.242 308.514L194.147 308.656L194.173 302.985Z" fill="black"/>
<path d="M284.226 337.775C284.225 337.754 284.48 337.776 284.939 337.642C285.376 337.499 286.078 337.137 286.462 336.279C286.667 335.856 286.688 335.343 286.67 334.755C286.667 334.171 286.665 333.534 286.662 332.846C286.66 331.463 286.657 329.87 286.654 328.082C286.653 326.288 286.653 324.296 286.651 322.116C286.651 321.571 286.653 321.014 286.653 320.444C286.678 319.87 286.609 319.339 286.302 318.859C286.012 318.388 285.543 318.014 284.995 317.846C284.458 317.677 283.815 317.769 283.179 317.743C278.084 317.732 272.286 317.721 265.88 317.709C240.224 317.614 204.821 317.483 165.717 317.338C164.629 317.311 163.627 318.197 163.522 319.271C163.486 320.414 163.503 321.677 163.492 322.869C163.482 325.283 163.471 327.683 163.461 330.064C163.456 331.255 163.45 332.44 163.445 333.623C163.466 334.212 163.381 334.829 163.52 335.301C163.656 335.798 163.973 336.242 164.397 336.533C164.838 336.83 165.315 336.94 165.892 336.917L167.641 336.926C168.804 336.932 169.961 336.938 171.115 336.944C180.337 336.993 189.233 337.04 197.709 337.084C214.654 337.189 229.915 337.281 242.74 337.359C255.54 337.46 265.906 337.542 273.097 337.599C276.664 337.641 279.441 337.674 281.351 337.696C282.277 337.714 282.991 337.726 283.497 337.737C283.979 337.754 284.226 337.775 284.226 337.775C284.226 337.775 283.979 337.796 283.496 337.803C282.989 337.808 282.276 337.815 281.349 337.825C279.439 337.829 276.662 337.837 273.095 337.846C265.905 337.835 255.539 337.822 242.736 337.805C229.911 337.766 214.651 337.718 197.705 337.665C189.229 337.631 180.333 337.596 171.111 337.56C169.958 337.555 168.8 337.549 167.637 337.545L165.889 337.537C165.301 337.569 164.579 337.426 164.048 337.047C163.503 336.673 163.097 336.106 162.922 335.467C162.744 334.794 162.849 334.207 162.823 333.622C162.828 332.441 162.833 331.254 162.837 330.064C162.847 327.682 162.857 325.282 162.866 322.868C162.881 321.646 162.857 320.485 162.901 319.199C163.034 317.816 164.325 316.678 165.719 316.714C204.823 316.93 240.226 317.126 265.881 317.268C272.286 317.315 278.083 317.357 283.18 317.394C283.808 317.427 284.444 317.326 285.094 317.525C285.721 317.721 286.251 318.151 286.577 318.691C286.922 319.218 286.996 319.893 286.961 320.448C286.957 321.016 286.952 321.573 286.947 322.118C286.928 324.298 286.911 326.29 286.895 328.083C286.876 329.873 286.861 331.465 286.846 332.848C286.838 333.536 286.829 334.174 286.822 334.757C286.833 335.331 286.798 335.898 286.573 336.332C286.15 337.224 285.408 337.576 284.955 337.703C284.48 337.82 284.226 337.775 284.226 337.775Z" fill="#E0E0E0"/>
<path d="M228.328 270.936L171.795 270.676L171.771 275.977L228.304 276.237L228.328 270.936Z" fill="#FF5329"/>
<path opacity="0.2" d="M228.328 270.936L171.795 270.676L171.771 275.977L228.304 276.237L228.328 270.936Z" fill="white"/>
<path d="M176.921 327.966C176.915 329.421 175.804 330.596 174.438 330.59C173.073 330.583 171.973 329.398 171.979 327.943C171.985 326.488 173.096 325.311 174.461 325.318C175.826 325.324 176.927 326.509 176.921 327.966Z" fill="#FF5329"/>
<path d="M184.579 328.002C184.573 329.457 183.462 330.632 182.097 330.626C180.732 330.62 179.631 329.436 179.637 327.979C179.643 326.524 180.754 325.349 182.12 325.355C183.485 325.359 184.585 326.545 184.579 328.002Z" fill="#FF5329"/>
<path d="M192.238 328.037C192.232 329.492 191.12 330.668 189.755 330.661C188.39 330.655 187.289 329.47 187.295 328.014C187.301 326.558 188.413 325.383 189.778 325.389C191.142 325.395 192.244 326.58 192.238 328.037Z" fill="#FF5329"/>
<path d="M199.896 328.071C199.89 329.527 198.778 330.703 197.414 330.696C196.049 330.69 194.947 329.505 194.954 328.048C194.96 326.593 196.072 325.418 197.437 325.424C198.801 325.431 199.903 326.616 199.896 328.071Z" fill="#FF5329"/>
<path d="M207.556 328.106C207.55 329.563 206.439 330.738 205.073 330.731C203.708 330.725 202.606 329.54 202.612 328.085C202.62 326.628 203.731 325.453 205.095 325.459C206.46 325.466 207.561 326.651 207.556 328.106Z" fill="#FF5329"/>
<path d="M215.213 328.143C215.207 329.599 214.096 330.774 212.73 330.767C211.365 330.761 210.265 329.576 210.271 328.121C210.277 326.664 211.388 325.49 212.752 325.495C214.118 325.501 215.219 326.687 215.213 328.143Z" fill="#FF5329"/>
<path d="M222.873 328.177C222.866 329.634 221.755 330.809 220.391 330.803C219.025 330.796 217.925 329.611 217.931 328.156C217.937 326.699 219.048 325.525 220.412 325.531C221.776 325.537 222.878 326.722 222.873 328.177Z" fill="#FF5329"/>
<path d="M230.53 328.212C230.524 329.669 229.413 330.844 228.049 330.838C226.684 330.831 225.582 329.647 225.589 328.19C225.595 326.735 226.707 325.56 228.07 325.566C229.436 325.572 230.536 326.757 230.53 328.212Z" fill="#FF5329"/>
<path d="M238.189 328.249C238.183 329.705 237.071 330.88 235.707 330.874C234.342 330.868 233.24 329.683 233.246 328.227C233.253 326.771 234.365 325.597 235.729 325.602C237.094 325.607 238.195 326.793 238.189 328.249Z" fill="#FF5329"/>
<g opacity="0.2">
<path d="M176.921 327.966C176.915 329.421 175.804 330.596 174.438 330.59C173.073 330.583 171.973 329.398 171.979 327.943C171.985 326.488 173.096 325.311 174.461 325.318C175.826 325.324 176.927 326.509 176.921 327.966Z" fill="white"/>
<path d="M184.579 328.002C184.573 329.457 183.462 330.632 182.097 330.626C180.732 330.62 179.631 329.436 179.637 327.979C179.643 326.524 180.754 325.349 182.12 325.355C183.485 325.359 184.585 326.545 184.579 328.002Z" fill="white"/>
<path d="M192.238 328.037C192.232 329.492 191.12 330.668 189.755 330.661C188.39 330.655 187.289 329.47 187.295 328.014C187.301 326.558 188.413 325.383 189.778 325.389C191.142 325.395 192.244 326.58 192.238 328.037Z" fill="white"/>
<path d="M199.896 328.071C199.89 329.527 198.778 330.703 197.414 330.696C196.049 330.69 194.947 329.505 194.954 328.048C194.96 326.593 196.072 325.418 197.437 325.424C198.801 325.431 199.903 326.616 199.896 328.071Z" fill="white"/>
<path d="M207.556 328.106C207.55 329.563 206.439 330.738 205.073 330.731C203.708 330.725 202.606 329.54 202.612 328.085C202.62 326.628 203.731 325.453 205.095 325.459C206.46 325.466 207.561 326.651 207.556 328.106Z" fill="white"/>
<path d="M215.213 328.143C215.207 329.599 214.096 330.774 212.73 330.767C211.365 330.761 210.265 329.576 210.271 328.121C210.277 326.664 211.388 325.49 212.752 325.495C214.118 325.501 215.219 326.687 215.213 328.143Z" fill="white"/>
<path d="M222.873 328.177C222.866 329.634 221.755 330.809 220.391 330.803C219.025 330.796 217.925 329.611 217.931 328.156C217.937 326.699 219.048 325.525 220.412 325.531C221.776 325.537 222.878 326.722 222.873 328.177Z" fill="white"/>
<path d="M230.53 328.212C230.524 329.669 229.413 330.844 228.049 330.838C226.684 330.831 225.582 329.647 225.589 328.19C225.595 326.735 226.707 325.56 228.07 325.566C229.436 325.572 230.536 326.757 230.53 328.212Z" fill="white"/>
<path d="M238.189 328.249C238.183 329.705 237.071 330.88 235.707 330.874C234.342 330.868 233.24 329.683 233.246 328.227C233.253 326.771 234.365 325.597 235.729 325.602C237.094 325.607 238.195 326.793 238.189 328.249Z" fill="white"/>
</g>
<path d="M227.311 154.761C228.929 154.082 230.079 152.416 230.089 150.451C230.099 147.877 228.151 145.781 225.737 145.769C223.324 145.758 221.358 147.836 221.348 150.41C221.34 152.393 222.499 154.081 224.133 154.761C217.407 155.774 217.712 163.084 217.712 163.084L233.616 163.158C233.616 163.158 233.979 155.768 227.311 154.761Z" fill="#FF5329"/>
<path opacity="0.1" d="M227.311 154.761C228.929 154.082 230.079 152.416 230.089 150.451C230.099 147.877 228.151 145.781 225.737 145.769C223.324 145.758 221.358 147.836 221.348 150.41C221.34 152.393 222.499 154.081 224.133 154.761C217.407 155.774 217.712 163.084 217.712 163.084L233.616 163.158C233.616 163.158 233.979 155.768 227.311 154.761Z" fill="black"/>
<path d="M253.163 167.939L196.45 167.678L196.419 174.459L253.132 174.72L253.163 167.939Z" fill="#FF5329"/>
<path opacity="0.2" d="M253.163 167.939L196.45 167.678L196.419 174.459L253.132 174.72L253.163 167.939Z" fill="white"/>
<path d="M44.6789 203.035C44.6789 203.047 44.489 203.068 44.1213 203.098C43.7235 203.127 43.1815 203.166 42.4857 203.217C41.7635 203.229 40.885 203.386 39.8492 203.569C39.3336 203.673 38.764 203.715 38.1824 203.887C37.5983 204.049 36.9771 204.221 36.3197 204.404C33.7264 205.222 30.6031 206.523 27.4583 208.8C24.3218 211.059 21.1841 214.29 18.7386 218.506C17.4528 220.578 16.5202 222.97 15.6826 225.486C15.0013 228.045 14.398 230.765 14.3523 233.631C14.2249 235.06 14.3692 236.511 14.4292 237.987C14.4677 238.725 14.6263 239.456 14.7213 240.2C14.8222 240.943 14.9316 241.691 15.1431 242.425C15.7511 245.413 16.9685 248.341 18.5079 251.147C21.5855 256.781 26.7576 261.635 33.1448 264.448C36.3401 265.857 39.8732 266.618 43.4663 266.766C47.0631 266.994 50.7475 266.416 54.2397 265.216L55.296 264.827L55.4354 264.777L55.5616 264.841C60.7326 267.466 65.8038 270.041 70.7176 272.535L70.267 272.92C68.6483 267.897 67.0801 263.027 65.5743 258.354L65.5166 258.174L65.65 258.04C69.4703 254.215 72.1321 249.568 73.6078 244.811C75.0871 240.038 75.3395 235.179 74.7626 230.725C74.1858 226.262 72.7269 222.204 70.7814 218.789C68.837 215.364 66.4191 212.582 63.9376 210.409C61.4272 208.252 58.8243 206.791 56.4917 205.672C54.1027 204.672 51.9733 204.031 50.2031 203.69C49.3187 203.539 48.5316 203.405 47.8454 203.289C47.1652 203.241 46.586 203.201 46.1065 203.167C45.6595 203.133 45.3074 203.106 45.0406 203.086C44.8014 203.06 44.6789 203.045 44.6789 203.035C44.6789 203.027 44.8014 203.024 45.0418 203.028C45.3086 203.035 45.6619 203.046 46.1113 203.058C46.5932 203.077 47.1772 203.101 47.8622 203.129C48.5544 203.232 49.3487 203.35 50.2416 203.483C52.0298 203.796 54.1868 204.41 56.6131 205.393C58.9805 206.495 61.6291 207.949 64.1887 210.112C66.7195 212.29 69.1891 215.093 71.1827 218.555C73.1764 222.008 74.6809 226.121 75.2866 230.653C75.8922 235.174 75.6543 240.115 74.1642 244.976C72.6777 249.823 69.9786 254.566 66.0898 258.474L66.1656 258.16C67.6773 262.83 69.254 267.698 70.8799 272.719L71.1178 273.453L70.4292 273.105C65.513 270.613 60.4418 268.042 55.2684 265.419L55.534 265.432L54.4548 265.829C50.8845 267.057 47.1159 267.644 43.4399 267.411C39.7686 267.259 36.1563 266.476 32.8936 265.032C26.3695 262.151 21.1072 257.186 17.9863 251.439C16.4241 248.577 15.1971 245.59 14.5855 242.549C14.374 241.801 14.2658 241.041 14.1649 240.284C14.0711 239.528 13.9137 238.783 13.8765 238.033C13.82 236.533 13.6794 235.056 13.8152 233.606C13.874 230.694 14.4977 227.932 15.2044 225.338C16.0672 222.788 17.0286 220.366 18.3444 218.272C20.85 214.012 24.0538 210.761 27.2492 208.503C30.4517 206.227 33.6231 204.948 36.25 204.16C36.9146 203.987 37.5443 203.822 38.1355 203.669C38.7231 203.505 39.2988 203.471 39.8191 203.378C40.8658 203.213 41.7503 203.076 42.4773 203.086C43.1767 203.062 43.7223 203.045 44.1225 203.03C44.4902 203.023 44.6789 203.024 44.6789 203.035Z" fill="#FF5329"/>
<path d="M51.5315 231.094H49.3107L44.4642 224.339V219.906C44.4642 219.906 41.0321 219.695 41.4347 225.5C41.8384 231.306 41.4022 229.828 41.4022 229.828C41.4022 229.828 34.1138 229.855 33.5081 230.489C33.0671 230.949 32.8688 238.189 32.7919 242.115C32.7534 244.092 33.966 245.931 35.8046 246.398C36.0654 246.465 36.3298 246.504 36.5893 246.504C38.4075 246.504 47.6956 245.026 47.6956 245.026H51.5315V231.094Z" fill="#FF5329"/>
<path d="M57.8873 229.877L56.5222 245.067H52.7188V230.183L57.8873 229.877Z" fill="#FF5329"/>
<path d="M103.184 539.112V528.83L84.76 528.707L84.6074 544.239L85.749 544.324C90.8311 544.652 111.611 545.13 115.016 544.076C118.814 542.902 103.184 539.112 103.184 539.112Z" fill="#FF5329"/>
<path d="M115.451 543.113C115.451 543.287 108.559 543.426 100.061 543.426C91.5584 543.426 84.6689 543.287 84.6689 543.113C84.6689 542.94 91.5584 542.8 100.061 542.8C108.559 542.801 115.451 542.941 115.451 543.113Z" fill="#221047"/>
<path d="M103.506 541.21C103.354 541.131 103.484 540.588 103.88 540.052C104.274 539.515 104.756 539.229 104.876 539.35C105 539.474 104.747 539.926 104.383 540.423C104.019 540.917 103.661 541.293 103.506 541.21Z" fill="#221047"/>
<path d="M104.681 541.888C104.521 541.828 104.604 541.219 104.966 540.578C105.327 539.935 105.806 539.551 105.939 539.655C106.078 539.764 105.846 540.288 105.51 540.885C105.175 541.481 104.846 541.952 104.681 541.888Z" fill="#221047"/>
<path d="M90.2185 543.067C90.1464 543.117 89.8724 542.847 89.4734 542.395C89.072 541.947 88.5469 541.312 87.8571 540.777C87.1733 540.243 86.4198 539.975 85.8634 539.905C85.3034 539.83 84.9357 539.917 84.9045 539.827C84.872 539.76 85.2145 539.503 85.8791 539.463C86.5328 539.419 87.4569 539.667 88.2392 540.28C89.0167 540.887 89.5142 541.61 89.8303 542.134C90.1451 542.663 90.287 543.019 90.2185 543.067Z" fill="#221047"/>
<path d="M103.563 539.278C103.653 539.423 103.337 539.78 102.81 539.972C102.285 540.167 101.812 540.099 101.788 539.93C101.76 539.757 102.134 539.557 102.594 539.386C103.055 539.216 103.471 539.129 103.563 539.278Z" fill="#221047"/>
<path d="M103.275 538.284C103.292 538.457 102.8 538.605 102.179 538.612C101.556 538.621 101.061 538.487 101.074 538.314C101.086 538.141 101.577 537.995 102.17 537.986C102.763 537.979 103.258 538.112 103.275 538.284Z" fill="#221047"/>
<path d="M148.55 539.112L148.551 528.83L130.127 528.706L129.975 544.081L131.116 544.165C136.198 544.493 156.978 545.13 160.384 544.076C164.181 542.902 148.55 539.112 148.55 539.112Z" fill="#FF5329"/>
<path d="M160.818 543.137C160.818 543.309 153.927 543.45 145.428 543.45C136.926 543.45 130.036 543.31 130.036 543.137C130.036 542.964 136.926 542.823 145.428 542.823C153.926 542.823 160.818 542.964 160.818 543.137Z" fill="#221047"/>
<path d="M148.872 541.21C148.721 541.131 148.85 540.588 149.247 540.052C149.641 539.515 150.123 539.229 150.243 539.35C150.367 539.474 150.115 539.926 149.75 540.423C149.385 540.917 149.026 541.293 148.872 541.21Z" fill="#221047"/>
<path d="M150.05 541.888C149.891 541.828 149.973 541.219 150.335 540.578C150.696 539.935 151.175 539.551 151.309 539.655C151.447 539.763 151.215 540.287 150.881 540.885C150.544 541.481 150.214 541.952 150.05 541.888Z" fill="#221047"/>
<path d="M135.586 543.067C135.514 543.117 135.24 542.847 134.841 542.395C134.44 541.947 133.914 541.312 133.224 540.776C132.54 540.243 131.788 539.975 131.231 539.905C130.671 539.829 130.303 539.917 130.272 539.827C130.239 539.76 130.582 539.502 131.245 539.463C131.899 539.418 132.824 539.667 133.605 540.28C134.384 540.887 134.879 541.61 135.196 542.134C135.514 542.663 135.655 543.019 135.586 543.067Z" fill="#221047"/>
<path d="M148.93 539.278C149.02 539.423 148.704 539.78 148.179 539.972C147.652 540.167 147.18 540.099 147.155 539.93C147.127 539.757 147.501 539.557 147.961 539.386C148.423 539.216 148.838 539.129 148.93 539.278Z" fill="#221047"/>
<path d="M148.64 538.284C148.657 538.457 148.165 538.605 147.544 538.612C146.922 538.62 146.428 538.487 146.44 538.314C146.452 538.141 146.943 537.994 147.537 537.986C148.129 537.979 148.623 538.112 148.64 538.284Z" fill="#221047"/>
<path d="M216.416 234.001C215.936 233.506 214.753 233.739 214.753 233.739C214.753 233.739 214.96 232.334 214.741 231.655C214.524 230.976 213.01 231.107 213.01 231.107C213.01 231.107 212.916 230.453 213.048 229.398C213.082 229.134 212.935 228.939 212.696 228.794C211.978 228.36 210.432 228.38 210.432 228.38C209.504 227.717 213.258 222.468 214.65 220.788C216.026 219.128 215.794 217.798 214.553 217.801C213.707 217.802 209.324 222.848 207.986 224.542C206.65 226.235 203.064 230.947 202.943 227.187C202.82 223.427 201.31 220.583 200.365 220.098C199.421 219.614 198.401 220.751 198.924 221.795C199.347 222.639 199.614 224.265 199.765 225.494C199.89 226.508 199.848 227.537 199.627 228.533C199 231.35 198.326 233.179 198.01 233.961L197.917 233.91C197.917 233.91 171.687 259.06 169.797 260.856C168.095 262.471 134.012 258.945 127.184 258.22C125.318 258.011 122.554 257.636 120.159 257.742C117.197 257.872 116.67 258.292 113.706 258.332C104.628 258.453 97.0631 259.337 91.4331 260.29C84.6265 261.441 79.0458 266.286 76.9392 272.861C70.0473 294.368 54.4562 345.286 51.6779 373.892C49.4896 378.006 47.0441 382.812 46.0502 385.516C44.1191 390.773 44.5877 390.952 45.2391 391.074C46.9864 391.397 48.986 381.955 49.7323 384.233C50.4798 386.513 45.9445 395.497 47.7843 395.76C50.1829 396.103 52.0949 386.18 52.3184 385.352C52.5359 384.548 53.746 384.82 53.5045 385.557C53.156 386.615 49.7744 397.827 52.1273 398.187C53.4312 398.386 53.5718 396.01 53.5718 396.01C53.5718 396.01 55.9632 385.287 57.0676 385.494C58.19 385.704 56.9979 392.047 56.4439 394.157C55.8971 396.242 56.6674 397.35 57.7922 396.826C58.5589 396.468 60.4059 390.044 60.9034 387.944C61.4022 385.845 62.6652 380.061 64.362 383.419C66.0588 386.776 68.6269 388.718 69.688 388.76C70.7479 388.801 71.1926 387.341 70.278 386.614C69.539 386.028 68.6113 384.666 67.9551 383.615C67.4144 382.748 67.0178 381.798 66.7991 380.8C65.9543 376.955 65.9615 374.718 65.9615 374.718L65.7656 373.483C68.4562 360.152 76.2133 321.042 87.3556 296.056L91.9438 305.498L93.935 312.487L81.7076 342.697L133.878 342.01L126.1 312.04L135.549 280.79H135.548C145.775 281.018 172.041 281.399 176.454 279.426C181.957 276.967 210.437 241.067 210.437 241.067H210.435C212.359 239.535 214.316 237.887 215.759 236.449C215.761 236.446 217.459 235.073 216.416 234.001Z" fill="#FFBE9D"/>
<path d="M79.4388 320.455C80.9494 315.289 88.7269 289.743 88.7269 289.743C88.7269 289.743 92.5436 310.57 91.5401 313.078C90.3841 315.968 88.2594 319.275 88.2594 319.275C79.4388 332.709 80.5961 339.423 80.5961 339.423L133.88 337.798C134.01 330.346 129.599 313.021 128.677 310.261C127.754 307.501 130.813 298.441 130.813 298.441C130.813 298.441 136.835 292.325 136.602 289.178C136.132 282.838 135.552 280.79 135.552 280.79L167.974 281.983L166.955 259.983L120.349 255.32C118.736 259.909 104.06 257.661 104.06 257.661C88.215 258.181 87.256 261.095 80.6478 266.211C74.0407 271.326 63.1592 315.264 63.1592 315.264L79.4388 320.455Z" fill="#FF5329"/>
<path d="M110.952 315.259C110.95 315.342 109.878 315.413 108.143 315.401C106.409 315.39 104.012 315.282 101.378 315.019C98.7422 314.752 96.3724 314.38 94.6695 314.045C92.9679 313.711 91.9308 313.429 91.9465 313.347C91.9633 313.259 93.0268 313.388 94.7405 313.609C96.4541 313.831 98.8191 314.132 101.44 314.395C104.06 314.658 106.437 314.835 108.16 314.958C109.884 315.083 110.953 315.169 110.952 315.259Z" fill="#221047"/>
<path d="M114.6 310.727C114.622 310.804 113.523 311.221 111.69 311.719C109.859 312.215 107.286 312.764 104.407 313.108C101.526 313.448 98.8956 313.519 96.9981 313.464C95.0994 313.41 93.9337 313.259 93.9385 313.181C93.9421 313.089 95.1126 313.08 96.9969 313.021C98.8812 312.962 101.479 312.824 104.332 312.487C107.183 312.147 109.742 311.672 111.588 311.289C113.434 310.904 114.574 310.637 114.6 310.727Z" fill="#221047"/>
<path d="M132.523 290.513C132.606 290.531 132.469 291.569 132.159 293.231C131.849 294.893 131.362 297.177 130.748 299.681C130.133 302.187 129.509 304.437 129.015 306.054C128.521 307.671 128.163 308.656 128.08 308.633C127.996 308.609 128.204 307.584 128.587 305.94C129.041 304.064 129.564 301.91 130.14 299.533C130.729 297.16 131.262 295.01 131.727 293.137C132.147 291.5 132.437 290.495 132.523 290.513Z" fill="#221047"/>
<path d="M79.9964 317.395C79.9507 317.562 76.2758 316.705 71.7886 315.48C67.3002 314.255 63.6999 313.128 63.7455 312.96C63.7912 312.793 67.4649 313.651 71.9533 314.876C76.4405 316.1 80.042 317.229 79.9964 317.395Z" fill="#221047"/>
<path d="M136.138 280.508C136.138 280.536 135.644 280.588 134.758 280.5C133.877 280.41 132.588 280.205 131.094 279.627C129.599 279.067 127.9 278.131 126.313 276.715C124.725 275.305 123.306 273.366 122.401 271.084C121.482 268.803 121.18 266.426 121.324 264.31C121.464 262.197 122.024 260.288 122.969 258.95C123.906 257.594 125.147 256.938 126.011 256.711C126.448 256.595 126.802 256.567 127.037 256.573C127.274 256.579 127.395 256.605 127.395 256.625C127.398 256.684 126.897 256.656 126.084 256.943C125.286 257.229 124.164 257.903 123.337 259.198C121.702 261.769 121.245 266.464 122.984 270.853C123.855 273.047 125.195 274.91 126.702 276.29C128.208 277.675 129.828 278.621 131.26 279.217C134.147 280.414 136.16 280.374 136.138 280.508Z" fill="#221047"/>
<path d="M164.149 281.544C163.977 281.544 163.846 276.585 163.858 270.47C163.87 264.352 164.02 259.396 164.192 259.396C164.365 259.397 164.495 264.354 164.483 270.471C164.472 276.587 164.322 281.545 164.149 281.544Z" fill="#221047"/>
<path d="M120.064 256.659C120.195 253.977 120.476 250.948 120.476 250.948C120.476 250.948 127.108 250.217 127.51 243.366C127.913 236.515 127.51 220.718 127.51 220.718L115.432 214.568L102.146 225.053L104.158 259.303L116.383 260.081C118.311 260.203 119.966 258.668 120.064 256.659Z" fill="#FFBE9D"/>
<path d="M121.258 237.948C121.277 237.952 121.278 238.076 121.153 238.242C121.031 238.403 120.763 238.586 120.39 238.578C119.62 238.541 118.88 237.69 118.607 236.652C118.47 236.125 118.471 235.59 118.574 235.13C118.656 234.677 118.918 234.221 119.295 234.097C119.476 234.03 119.663 234.037 119.806 234.109C119.947 234.18 120.033 234.287 120.078 234.386C120.168 234.59 120.098 234.714 120.08 234.704C120.052 234.703 120.06 234.59 119.959 234.461C119.864 234.33 119.638 234.211 119.388 234.341C119.133 234.457 118.959 234.782 118.894 235.199C118.818 235.613 118.828 236.087 118.949 236.557C119.19 237.487 119.835 238.249 120.408 238.318C120.692 238.354 120.927 238.244 121.055 238.141C121.187 238.033 121.232 237.936 121.258 237.948Z" fill="#EB996E"/>
<path d="M131.629 217.021C130.706 213.868 127.353 212.301 124.298 211.435C119.651 210.118 114.617 209.535 110.077 211.207C105.537 212.879 100.076 215.819 100.078 220.835C97.3978 220.614 95.8668 222.962 94.8033 225.871C94.1748 227.59 93.7614 229.503 93.6641 231.398L93.6196 231.384C93.2747 237.949 91.4457 246.994 87.1892 251.85C84.8387 254.531 81.4547 256.383 80.0847 259.723C78.8938 262.625 79.5103 266.054 78.3843 268.984C77.3905 271.57 75.1901 273.407 73.6122 275.656C70.1765 280.557 69.9422 287.48 72.467 292.949C74.9918 298.418 79.9946 302.42 85.5477 304.253C91.1008 306.087 97.1503 305.885 102.802 304.414C106.974 303.328 111.034 301.53 114.359 298.688C117.684 295.846 120.235 291.896 120.996 287.486C121.842 282.577 120.468 277.592 119.458 272.717C116.261 257.293 117.174 256.491 121.209 242.184C121.3 241.931 121.356 241.668 121.426 241.408C121.479 241.219 121.531 241.037 121.585 240.842L121.576 240.84C121.689 240.28 121.763 239.71 121.765 239.129C120.597 239.589 119.186 239.283 118.29 238.377C117.394 237.47 117.06 236.009 117.468 234.78C117.936 233.365 119.234 232.421 120.567 231.86C121.9 231.298 123.333 231.021 124.642 230.4C127.417 229.079 129.341 226.339 130.649 223.468C131.569 221.455 132.252 219.15 131.629 217.021Z" fill="#221047"/>
<path d="M121.735 238.24C121.777 238.222 122.01 238.669 122.367 239.427C122.724 240.185 123.202 241.256 123.734 242.486L123.834 242.72L123.579 242.741C123.179 242.776 122.774 242.811 122.356 242.847C121.517 242.901 120.818 243.002 120.005 242.994C119.877 242.971 119.734 242.853 119.695 242.721C119.652 242.591 119.664 242.482 119.677 242.387C119.712 242.198 119.754 242.059 119.79 241.899L120.003 241.048C120.269 240.01 120.458 239.373 120.509 239.385C120.559 239.397 120.461 240.054 120.261 241.106L120.094 241.965C120.033 242.256 119.927 242.69 120.083 242.656C120.682 242.631 121.534 242.531 122.325 242.472C122.743 242.438 123.148 242.407 123.548 242.375L123.394 242.629C122.88 241.393 122.444 240.303 122.146 239.519C121.851 238.737 121.693 238.258 121.735 238.24Z" fill="#FF5329"/>
<path d="M80.5958 339.423L133.88 337.798L157.055 428.334L152.787 532.185H124.583L128.078 430.545L107.466 367.52L110.642 536.212L82.1689 536.633L79.1694 378.069C79.0444 373.662 77.5939 363.719 78.1335 359.347L80.5958 339.423Z" fill="#221047"/>
<path d="M114.565 368.8C114.554 368.883 113.554 368.834 111.951 368.645C110.348 368.456 108.143 368.117 105.727 367.633C103.312 367.146 101.148 366.606 99.5961 366.159C98.0447 365.712 97.1037 365.374 97.1254 365.291C97.1734 365.117 101.042 366.055 105.851 367.019C110.657 367.991 114.588 368.621 114.565 368.8Z" fill="#7F5ACC"/>
<path d="M152.53 526.489C152.53 526.664 146.144 526.803 138.271 526.803C130.393 526.803 124.01 526.664 124.01 526.489C124.01 526.318 130.393 526.177 138.271 526.177C146.144 526.178 152.53 526.318 152.53 526.489Z" fill="#7F5ACC"/>
<path d="M110.387 531.83C110.387 532.004 104.194 532.144 96.5531 532.144C88.9114 532.144 82.7178 532.004 82.7178 531.83C82.7178 531.657 88.9114 531.518 96.5531 531.518C104.194 531.518 110.387 531.657 110.387 531.83Z" fill="#7F5ACC"/>
<path d="M106.719 531.397C106.546 531.4 105.798 494.538 105.046 449.076C104.295 403.597 103.827 366.738 104 366.736C104.173 366.733 104.922 403.586 105.673 449.065C106.424 494.529 106.892 531.394 106.719 531.397Z" fill="#7F5ACC"/>
<path d="M148.742 526.49C148.731 526.49 148.728 526.323 148.729 525.999C148.735 525.645 148.745 525.169 148.755 524.56C148.793 523.261 148.847 521.403 148.915 519.027C149.084 514.19 149.324 507.247 149.622 498.681C150.279 481.476 151.187 457.76 152.189 431.565C152.198 431.323 152.208 431.082 152.216 430.858L152.226 430.947C145.911 405.659 140.203 382.803 136.064 366.231C134.033 357.976 132.388 351.288 131.242 346.627C130.691 344.337 130.262 342.545 129.962 341.293C129.827 340.705 129.723 340.245 129.645 339.903C129.576 339.588 129.546 339.427 129.557 339.424C129.566 339.422 129.617 339.579 129.706 339.888C129.798 340.226 129.923 340.683 130.083 341.264C130.411 342.51 130.879 344.292 131.477 346.571C132.669 351.218 134.379 357.89 136.491 366.125C140.675 382.685 146.447 405.526 152.832 430.796L152.843 430.839L152.841 430.885C152.833 431.107 152.822 431.348 152.814 431.591C151.741 457.783 150.768 481.494 150.063 498.699C149.682 507.261 149.373 514.2 149.158 519.037C149.038 521.411 148.945 523.267 148.88 524.566C148.843 525.174 148.814 525.65 148.793 526.003C148.77 526.326 148.753 526.491 148.742 526.49Z" fill="#7F5ACC"/>
<path d="M139.549 428.745C139.578 428.916 136.789 429.536 133.319 430.132C130.728 430.578 128.49 430.883 127.513 430.938L127.512 430.694C127.836 430.783 128.011 430.853 128.003 430.896C127.997 430.94 127.809 430.953 127.473 430.938L126.745 430.907L127.472 430.694C128.412 430.419 130.623 429.961 133.214 429.517C136.682 428.919 139.519 428.573 139.549 428.745Z" fill="#7F5ACC"/>
<path d="M139.01 432.2C138.986 432.375 136.483 432.181 133.4 431.944C130.318 431.702 127.815 431.505 127.818 431.328C127.822 431.157 130.347 431.076 133.45 431.32C136.55 431.559 139.033 432.032 139.01 432.2Z" fill="#7F5ACC"/>
<path opacity="0.2" d="M80.3594 341.336C81.6476 343.15 83.485 343.785 85.6205 344.135C87.7547 344.485 89.9334 344.252 92.0821 344.012C105.836 342.486 120.41 341.079 133.88 337.797C116.445 338.774 98.0318 338.445 80.5961 339.422C80.5961 339.422 80.4471 340.621 80.4122 340.91" fill="black"/>
<g opacity="0.2">
<path d="M98.332 365.912L108.155 404.046L107.467 367.519L98.332 365.912Z" fill="black"/>
</g>
</svg>
