<svg width="496" height="339" viewBox="0 0 496 339" fill="none" xmlns="http://www.w3.org/2000/svg">
<path d="M35.6646 185.405L0.543945 286.558L150.616 338.664L185.737 237.51L35.6646 185.405Z" fill="#7F5ACC"/>
<path d="M185.728 237.522C185.746 237.568 185.104 237.863 183.864 238.384C182.49 238.941 180.678 239.676 178.415 240.593C173.512 242.511 166.665 245.19 158.26 248.48C141.054 255.064 117.5 264.075 91.4131 274.057L90.8625 274.268L90.5467 273.768C90.3059 273.387 90.0447 272.974 89.7835 272.559C74.7731 248.612 61.1895 226.941 51.2569 211.097C46.448 203.295 42.528 196.936 39.722 192.382C38.4442 190.252 37.4218 188.547 36.648 187.256C35.9589 186.075 35.6168 185.442 35.6587 185.416C35.7006 185.389 36.1246 185.97 36.8936 187.101C37.7259 188.356 38.8243 190.012 40.1966 192.083C43.0972 196.576 47.1488 202.853 52.1194 210.553C62.1436 226.339 75.853 247.931 91.0028 271.79C91.264 272.205 91.5242 272.618 91.765 272.999L90.9005 272.71C117.047 262.884 140.653 254.014 157.898 247.534C166.371 244.422 173.273 241.888 178.215 240.074C180.518 239.26 182.361 238.609 183.76 238.115C185.034 237.681 185.711 237.475 185.728 237.522Z" fill="#FAFAFA"/>
<path d="M0.539021 286.566C0.335321 286.223 16.4354 276.277 36.4936 264.351C56.5595 252.421 72.9852 243.032 73.1889 243.375C73.3926 243.717 57.2963 253.662 37.2314 265.591C17.1723 277.516 0.742721 286.908 0.539021 286.566Z" fill="#FAFAFA"/>
<path d="M123.511 259.43C123.888 259.301 130.259 276.938 137.74 298.816C145.225 320.703 150.984 338.544 150.607 338.673C150.229 338.802 143.859 321.17 136.376 299.283C128.894 277.405 123.134 259.559 123.511 259.43Z" fill="#FAFAFA"/>
<path d="M478.483 159.112L329.999 184.278L346.962 284.362L495.446 259.195L478.483 159.112Z" fill="#7F5ACC"/>
<path d="M478.503 159.148C478.539 159.178 478.14 159.717 477.346 160.714C476.458 161.805 475.288 163.242 473.826 165.037C470.626 168.868 466.158 174.218 460.674 180.787C449.378 194.109 433.915 212.344 416.788 232.541L416.426 232.967L415.936 232.695C415.562 232.488 415.156 232.263 414.751 232.039C391.351 218.984 370.174 207.172 354.691 198.534C347.136 194.245 340.977 190.748 336.567 188.244C334.533 187.056 332.906 186.106 331.673 185.386C330.562 184.72 329.989 184.349 330.011 184.308C330.034 184.268 330.652 184.557 331.807 185.146C333.071 185.809 334.739 186.685 336.825 187.779C341.286 190.19 347.516 193.558 355.16 197.689C370.693 206.236 391.937 217.926 415.413 230.843C415.819 231.068 416.224 231.292 416.599 231.5L415.748 231.654C432.995 211.559 448.567 193.417 459.943 180.164C465.565 173.713 470.145 168.458 473.424 164.696C474.967 162.969 476.202 161.587 477.139 160.538C477.998 159.597 478.467 159.118 478.503 159.148Z" fill="#EBEBEB"/>
<path d="M346.971 284.397C346.645 284.205 355.487 268.594 366.716 249.532C377.95 230.463 387.317 215.166 387.642 215.357C387.967 215.548 379.128 231.157 367.894 250.226C356.665 269.288 347.296 284.589 346.971 284.397Z" fill="#EBEBEB"/>
<path d="M436.788 205.742C437.042 205.463 450.384 217.214 466.583 231.983C482.788 246.759 495.714 258.958 495.459 259.237C495.205 259.516 481.866 247.769 465.662 232.994C449.463 218.223 436.533 206.021 436.788 205.742Z" fill="#EBEBEB"/>
<path d="M330.024 -0.000136706L303.28 68.0187L404.194 107.697L430.938 39.678L330.024 -0.000136706Z" fill="#7F5ACC"/>
<path d="M430.965 40.6071C430.976 40.6393 430.529 40.8225 429.67 41.1432C428.717 41.4853 427.461 41.9365 425.892 42.4999C422.495 43.6734 417.751 45.3117 411.927 47.3234C400.009 51.3389 383.697 56.8359 365.628 62.9235L365.247 63.0522L365.045 62.7023C364.891 62.4352 364.725 62.1467 364.559 61.8573C354.982 45.109 346.314 29.9533 339.978 18.8716C336.914 13.4175 334.416 8.97218 332.627 5.789C331.815 4.30072 331.165 3.1097 330.672 2.20719C330.235 1.38264 330.019 0.942102 330.049 0.924558C330.078 0.907989 330.351 1.31539 330.844 2.10777C331.377 2.9869 332.08 4.14673 332.96 5.59699C334.815 8.74217 337.404 13.1339 340.582 18.5237C346.984 29.5673 355.738 44.6733 365.413 61.3651C365.58 61.6545 365.747 61.944 365.9 62.2101L365.318 61.9888C383.423 56.0094 399.769 50.6109 411.71 46.6665C417.575 44.7786 422.352 43.2406 425.773 42.1393C427.367 41.648 428.641 41.2543 429.609 40.9561C430.487 40.6968 430.954 40.5759 430.965 40.6071Z" fill="#FAFAFA"/>
<path d="M303.301 68.9479C303.171 68.7091 314.426 62.3681 328.437 54.7883C342.452 47.2056 353.915 41.2544 354.045 41.4942C354.174 41.733 342.921 48.072 328.906 55.6548C314.895 63.2346 303.43 69.1867 303.301 68.9479Z" fill="#FAFAFA"/>
<path d="M387.924 53.8331C388.184 53.7561 392.044 65.9606 396.543 81.09C401.043 96.2242 404.479 108.552 404.218 108.629C403.958 108.706 400.099 96.5049 395.598 81.3697C391.1 66.2413 387.664 53.9111 387.924 53.8331Z" fill="#FAFAFA"/>
<path d="M133.613 163.712L363.502 162.042L369.91 318.338L131.869 316.132L133.613 163.712Z" fill="#F53D00"/>
<path d="M133.615 163.712L242.416 75.6757C247.023 71.9477 253.614 71.9692 258.198 75.7254L363.505 162.043" fill="#F53D00"/>
<g opacity="0.3">
<path d="M133.615 163.712L242.416 75.6757C247.023 71.9477 253.614 71.9692 258.198 75.7254L363.505 162.043" fill="black"/>
</g>
<path d="M131.87 316.132C131.583 315.863 149.987 295.769 172.971 271.255C195.964 246.734 214.828 227.08 215.116 227.349C215.402 227.618 197.002 247.708 174.01 272.229C151.025 296.742 132.156 316.401 131.87 316.132Z" fill="#281353"/>
<path d="M369.91 318.339C369.615 318.6 351.693 298.912 329.882 274.37C308.064 249.818 290.621 229.711 290.916 229.45C291.209 229.189 309.129 248.874 330.947 273.424C352.757 297.966 370.203 318.077 369.91 318.339Z" fill="#281353"/>
<g opacity="0.5">
<path d="M363.504 162.043L248.067 254.262L133.615 163.712" fill="black"/>
</g>
<path d="M145.193 172.252L144.834 100.452L346.133 98.0719L348.401 173.617L248.056 253.055L145.193 172.252Z" fill="#FAFAFA"/>
<path d="M145.196 172.252C145.196 172.252 145.847 172.739 147.084 173.698C148.323 174.664 150.154 176.09 152.545 177.952C157.327 181.693 164.346 187.182 173.317 194.2C191.242 208.251 216.966 228.417 248.186 252.891L247.929 252.892C276.836 229.993 311.135 202.821 348.248 173.421L348.152 173.626C347.719 159.213 347.264 144.094 346.801 128.708C346.49 118.351 346.183 108.115 345.882 98.0805L346.138 98.3252C265.017 99.2482 193.456 100.062 144.839 100.616L145 100.452C145.079 123.043 145.141 140.98 145.184 153.279C145.197 159.427 145.206 164.165 145.212 167.374C145.211 168.972 145.21 170.188 145.209 171.012C145.207 171.83 145.196 172.252 145.196 172.252C145.196 172.252 145.18 171.843 145.168 171.032C145.16 170.211 145.147 169 145.129 167.411C145.104 164.207 145.066 159.476 145.017 153.338C144.937 141.026 144.821 123.069 144.673 100.454L144.672 100.292L144.834 100.29C193.451 99.6936 265.011 98.8154 346.131 97.8203L346.379 97.8174L346.386 98.0659C346.688 108.1 346.996 118.336 347.307 128.693C347.768 144.08 348.222 159.198 348.653 173.611L348.657 173.738L348.558 173.816C311.425 203.192 277.108 230.34 248.186 253.219L248.058 253.322L247.929 253.22C216.732 228.663 191.027 208.431 173.116 194.331C164.184 187.284 157.196 181.77 152.433 178.013C150.066 176.138 148.253 174.702 147.026 173.729C145.809 172.758 145.196 172.252 145.196 172.252Z" fill="#7C54D0"/>
<path d="M314.318 134.223C314.319 134.363 283.534 134.663 245.567 134.894C207.586 135.125 176.807 135.198 176.806 135.058C176.805 134.918 207.583 134.617 245.564 134.386C283.531 134.156 314.317 134.082 314.318 134.223Z" fill="#7C54D0"/>
<path d="M314.318 154.504C314.319 154.644 283.534 154.945 245.567 155.176C207.586 155.407 176.807 155.48 176.806 155.339C176.805 155.199 207.583 154.899 245.564 154.668C283.531 154.437 314.317 154.364 314.318 154.504Z" fill="#7C54D0"/>
<path d="M314.318 177.88C314.319 178.02 283.534 178.32 245.567 178.551C207.586 178.781 176.807 178.855 176.806 178.715C176.805 178.575 207.583 178.275 245.564 178.044C283.531 177.813 314.317 177.739 314.318 177.88Z" fill="#7C54D0"/>
<path d="M314.32 201.255C314.321 201.395 284.951 201.687 248.728 201.907C212.494 202.127 183.129 202.191 183.128 202.051C183.127 201.911 212.491 201.619 248.725 201.399C284.947 201.18 314.319 201.115 314.32 201.255Z" fill="#7C54D0"/>
<path d="M288.573 221.773C288.573 221.79 288.295 221.809 287.767 221.829C287.192 221.845 286.422 221.866 285.455 221.892C283.396 221.926 280.503 221.974 276.951 222.032C269.726 222.135 259.828 222.278 248.893 222.435C237.933 222.618 228.009 222.679 220.827 222.688C217.273 222.679 214.38 222.672 212.321 222.668C211.353 222.654 210.583 222.643 210.008 222.635C209.48 222.623 209.202 222.607 209.202 222.59C209.202 222.572 209.48 222.554 210.008 222.533C210.583 222.517 211.353 222.496 212.32 222.471C214.379 222.437 217.271 222.389 220.824 222.33C228.049 222.227 237.947 222.085 248.886 221.928C259.843 221.745 269.765 221.683 276.948 221.674C280.501 221.683 283.394 221.69 285.453 221.695C286.421 221.709 287.191 221.719 287.766 221.727C288.295 221.74 288.573 221.755 288.573 221.773Z" fill="#7C54D0"/>
<path d="M262.659 241.495C262.659 241.635 256.095 241.748 248 241.748C239.902 241.748 233.34 241.634 233.34 241.495C233.34 241.355 239.902 241.241 248 241.241C256.095 241.24 262.659 241.355 262.659 241.495Z" fill="#7C54D0"/>
<path d="M330.416 225.57C343.845 225.57 354.731 214.684 354.731 201.255C354.731 187.826 343.845 176.939 330.416 176.939C316.987 176.939 306.101 187.826 306.101 201.255C306.101 214.684 316.987 225.57 330.416 225.57Z" fill="#592FB0"/>
<path d="M324.085 225.57C337.514 225.57 348.4 214.684 348.4 201.255C348.4 187.826 337.514 176.939 324.085 176.939C310.656 176.939 299.77 187.826 299.77 201.255C299.77 214.684 310.656 225.57 324.085 225.57Z" fill="#7F5ACC"/>
<path d="M327.177 189.933V210.15H323.422V193.081H319.147V189.933H327.177Z" fill="#EBEBEB"/>
<path d="M146.771 67.6606L169.007 67.6538L166.001 64.1987L165.998 55.924C165.996 51.4494 162.368 47.8228 157.893 47.8237C153.418 47.8257 149.792 51.4543 149.793 55.9289L149.796 63.803L146.771 67.6606Z" fill="#35AFE3"/>
<path d="M154.78 66.568C154.832 67.8653 155.688 69.0963 156.885 69.5982C158.083 70.1001 159.561 69.8458 160.522 68.9725C161.483 68.0992 161.878 66.6528 161.494 65.4131" fill="#227396"/>
<path d="M159.128 44.4573H156.946V49.0937H159.128V44.4573Z" fill="#227396"/>
<path d="M190.316 52.4406C190.304 52.4426 190.252 52.2447 190.161 51.8588C190.066 51.4416 189.937 50.8724 189.771 50.1424C189.639 49.3783 189.336 48.4719 188.982 47.4008C188.792 46.8706 188.655 46.2731 188.386 45.6825C188.126 45.0879 187.85 44.4564 187.559 43.7878C186.305 41.165 184.48 38.0549 181.664 35.0764C178.868 32.1028 175.09 29.2812 170.434 27.3485C168.132 26.3095 165.564 25.6955 162.889 25.2003C160.194 24.8787 157.352 24.6643 154.452 25.0658C152.989 25.1545 151.548 25.5346 150.069 25.8309C149.331 25.9879 148.62 26.2705 147.885 26.4869C147.151 26.711 146.414 26.943 145.709 27.2822C142.795 28.3952 140.041 30.1447 137.463 32.2178C132.286 36.3649 128.241 42.6114 126.454 49.8286C125.558 53.4387 125.374 57.306 125.816 61.1403C126.179 64.9911 127.369 68.8088 129.156 72.3253L129.721 73.3857L129.796 73.526L129.753 73.6703C127.955 79.5669 126.194 85.3494 124.487 90.9527L124.025 90.5345C128.826 88.0307 133.482 85.6038 137.947 83.2744L138.12 83.1848L138.277 83.3056C142.765 86.7578 147.893 88.8533 152.936 89.673C157.995 90.4946 162.939 90.0014 167.338 88.6905C171.746 87.3796 175.6 85.1954 178.725 82.597C181.861 79.9977 184.27 76.9967 186.052 74.0251C187.815 71.0241 188.861 68.0339 189.605 65.3849C190.22 62.6939 190.516 60.3343 190.568 58.4035C190.575 57.4415 190.58 56.5858 190.585 55.8402C190.521 55.1102 190.466 54.4903 190.421 53.9767C190.382 53.4971 190.352 53.119 190.329 52.8334C190.311 52.5742 190.306 52.4426 190.316 52.4406C190.325 52.4397 190.347 52.5683 190.383 52.8237C190.419 53.1083 190.468 53.4845 190.528 53.963C190.588 54.4776 190.661 55.1004 190.746 55.8314C190.755 56.5819 190.767 57.4425 190.78 58.4103C190.759 60.3567 190.494 62.7406 189.903 65.4677C189.18 68.1519 188.15 71.1888 186.389 74.2424C184.609 77.2677 182.187 80.3271 179.023 82.984C175.868 85.6399 171.965 87.8796 167.493 89.2324C163.031 90.5842 158.006 91.1057 152.855 90.286C147.72 89.4683 142.489 87.3484 137.906 83.8368L138.236 83.868C133.773 86.2042 129.122 88.6389 124.323 91.1495L123.621 91.517L123.86 90.7324C125.565 85.1272 127.323 79.3437 129.117 73.4461L129.147 73.7297L128.569 72.6469C126.742 69.0524 125.528 65.147 125.158 61.2114C124.708 57.2934 124.902 53.3393 125.821 49.6512C127.653 42.279 131.795 35.9195 137.079 31.708C139.711 29.6028 142.52 27.8329 145.489 26.7081C146.208 26.367 146.958 26.1331 147.705 25.907C148.452 25.6896 149.177 25.405 149.928 25.2481C151.433 24.9528 152.898 24.5727 154.385 24.4889C157.332 24.0951 160.221 24.3241 162.956 24.6662C165.671 25.1818 168.272 25.8212 170.603 26.8894C175.314 28.8806 179.121 31.7694 181.926 34.8045C184.751 37.8444 186.563 41.009 187.791 43.6718C188.075 44.3501 188.344 44.9914 188.597 45.5947C188.859 46.1932 188.986 46.7984 189.168 47.3345C189.506 48.4193 189.79 49.3364 189.901 50.1093C190.04 50.8471 190.147 51.4241 190.227 51.8451C190.296 52.2379 190.327 52.4397 190.316 52.4406Z" fill="#263238"/>
</svg>
