<svg width="451" height="481" viewBox="0 0 451 481" fill="none" xmlns="http://www.w3.org/2000/svg">
<path d="M342.91 0.615809L315.325 14.4519C313.263 15.3308 311.925 17.3555 311.925 19.597V32.5004C311.925 44.028 315.142 55.4518 321.762 65.5375C326.73 73.1081 333.32 82.7845 344.285 88.3172H349.234C361.439 84.5951 370.55 74.6725 376.119 66.1853C382.738 56.0997 385.955 44.6768 385.955 33.1483V19.598C385.955 17.3564 384.617 15.3308 382.555 14.4528L351.132 1.06375C349.732 0.466812 344.31 0.0188741 342.91 0.615809Z" fill="#E0E0E0"/>
<path d="M341.798 1.06379L310.376 14.4519C308.314 15.3308 306.976 17.3555 306.976 19.5971V32.5005C306.976 44.028 310.193 55.4518 316.811 65.5375C322.381 74.0238 331.006 82.7628 344.284 88.3172C356.489 84.5951 365.6 74.6726 371.169 66.1854C377.788 56.0997 381.005 44.6768 381.005 33.1483V19.598C381.005 17.3564 379.667 15.3308 377.604 14.4529L346.183 1.06379C344.782 0.466855 343.199 0.466855 341.798 1.06379Z" fill="#F5F5F5"/>
<path d="M380.904 29.6534C380.921 29.6525 380.941 29.8571 380.964 30.2475C380.984 30.6908 381.009 31.2566 381.041 31.9563C381.07 32.6994 381.113 33.6085 381.062 34.6637C381.009 35.718 381.053 36.9261 380.899 38.2482C380.772 39.5722 380.684 41.0292 380.412 42.571C380.286 43.3433 380.189 44.1477 380.029 44.9653C379.853 45.7811 379.674 46.6204 379.489 47.4804C378.668 50.8998 377.529 54.6172 375.866 58.3299C374.197 62.0398 372.226 65.3885 370.23 68.2873C369.182 69.7028 368.217 71.0702 367.181 72.2452C366.673 72.8393 366.21 73.4381 365.713 73.9681C365.215 74.4953 364.737 75.0017 364.278 75.4864C363.387 76.4756 362.472 77.2611 361.71 77.991C360.95 78.7266 360.251 79.3075 359.67 79.7705C359.124 80.21 358.682 80.5655 358.337 80.8437C358.03 81.0842 357.863 81.2049 357.853 81.1917C357.842 81.1785 357.988 81.0323 358.275 80.7673C358.604 80.4721 359.025 80.094 359.545 79.6263C360.105 79.1415 360.784 78.5418 361.522 77.7911C362.264 77.0461 363.158 76.2464 364.028 75.2478C364.475 74.7593 364.943 74.2482 365.43 73.7173C365.916 73.1844 366.369 72.5828 366.868 71.9868C367.884 70.808 368.83 69.4406 369.86 68.0289C371.822 65.1376 373.764 61.8097 375.419 58.1309C377.069 54.4484 378.211 50.7659 379.051 47.3776C379.24 46.5251 379.426 45.6943 379.606 44.8852C379.773 44.0742 379.878 43.2764 380.011 42.5107C380.299 40.9811 380.407 39.5345 380.555 38.2199C380.731 36.9072 380.71 35.7058 380.79 34.6571C380.867 33.6066 380.852 32.7013 380.852 31.9601C380.859 31.2604 380.864 30.6945 380.868 30.2523C380.874 29.86 380.887 29.6544 380.904 29.6534Z" fill="#E0E0E0"/>
<path d="M341.651 57.7028L323.626 43.3717L328.627 37.0826L340.714 46.6921L358.364 26.9395L364.355 32.294L341.651 57.7028Z" fill="white"/>
<path d="M42.1195 188.323L10.1649 204.351C7.77621 205.368 6.2251 207.714 6.2251 210.311V225.259C6.2251 238.613 9.95235 251.847 17.6194 263.529C23.3748 272.3 31.0085 283.509 43.7102 289.917H49.4437C63.5829 285.605 74.1366 274.11 80.5889 264.279C88.257 252.597 91.9832 239.364 91.9832 226.009V210.311C91.9832 207.714 90.4331 205.368 88.0434 204.351L51.6439 188.84C50.0219 188.15 43.7414 187.631 42.1195 188.323Z" fill="#2DA4FA"/>
<path opacity="0.3" d="M42.1195 188.323L10.1649 204.351C7.77621 205.368 6.2251 207.714 6.2251 210.311V225.259C6.2251 238.613 9.95235 251.847 17.6194 263.529C23.3748 272.3 31.0085 283.509 43.7102 289.917H49.4437C63.5829 285.605 74.1366 274.11 80.5889 264.279C88.257 252.597 91.9832 239.364 91.9832 226.009V210.311C91.9832 207.714 90.4331 205.368 88.0434 204.351L51.6439 188.84C50.0219 188.15 43.7414 187.631 42.1195 188.323Z" fill="black"/>
<path d="M40.8321 188.842L4.43146 204.351C2.04281 205.368 0.491699 207.714 0.491699 210.311V225.259C0.491699 238.613 4.21896 251.847 11.886 263.529C18.3384 273.361 28.3294 283.483 43.7104 289.917C57.8495 285.605 68.4032 274.11 74.8555 264.279C82.5236 252.597 86.2498 239.364 86.2498 226.009V210.311C86.2498 207.714 84.6997 205.368 82.31 204.351L45.9105 188.84C44.2885 188.15 42.454 188.15 40.8321 188.842Z" fill="#2DA4FA"/>
<path opacity="0.3" d="M52.0027 256.63C64.2889 251.865 70.3858 238.042 65.6205 225.756C60.8552 213.469 47.0323 207.373 34.7461 212.138C22.4599 216.903 16.363 230.726 21.1283 243.012C25.8936 255.298 39.7166 261.395 52.0027 256.63Z" fill="black"/>
<path d="M43.3715 235.714C48.8422 235.714 53.2771 231.279 53.2771 225.808C53.2771 220.337 48.8422 215.902 43.3715 215.902C37.9007 215.902 33.4658 220.337 33.4658 225.808C33.4658 231.279 37.9007 235.714 43.3715 235.714Z" fill="white"/>
<path d="M25.2793 249.95C25.2793 249.95 29.891 238.947 43.0062 238.947C56.1213 238.947 61.4633 249.95 61.4633 249.95C61.4633 249.95 55.613 258.593 42.6707 258.258C30.9525 257.955 25.2793 249.95 25.2793 249.95Z" fill="white"/>
<path d="M336.135 468.359H89.8174C83.1515 468.359 77.7471 462.77 77.7471 455.874V79.3613C77.7471 72.4662 83.1515 66.8753 89.8174 66.8753H336.136C342.803 66.8753 348.206 72.4651 348.206 79.3613V455.872C348.206 462.77 342.802 468.359 336.135 468.359Z" fill="#FF5329"/>
<path d="M217.692 450.095C217.692 456.315 212.556 461.357 206.222 461.357C199.886 461.357 194.751 456.314 194.751 450.095C194.751 443.875 199.886 438.832 206.222 438.832C212.556 438.833 217.692 443.875 217.692 450.095Z" fill="#A52900"/>
<path d="M240.696 88.0928H185.46C183.333 88.0928 181.608 86.3094 181.608 84.1082C181.608 81.9081 183.333 80.1237 185.46 80.1237H240.696C242.823 80.1237 244.548 81.9081 244.548 84.1082C244.548 86.3083 242.823 88.0928 240.696 88.0928Z" fill="#A52900"/>
<path d="M339.443 95.5198H86.0396V430.807H339.443V95.5198Z" fill="white"/>
<path d="M339.452 95.5189H328.643V430.806H339.452V95.5189Z" fill="#F5F5F5"/>
<path d="M334.047 215.978C332.185 215.978 330.677 214.469 330.677 212.608V138.441C330.677 136.58 332.185 135.071 334.047 135.071C335.907 135.071 337.417 136.579 337.417 138.441V212.608C337.417 214.469 335.908 215.978 334.047 215.978Z" fill="#E0E0E0"/>
<path d="M306.407 171.822H119.562C116.594 171.822 114.188 169.416 114.188 166.448C114.188 163.48 116.594 161.074 119.562 161.074H306.407C309.375 161.074 311.781 163.48 311.781 166.448C311.781 169.416 309.375 171.822 306.407 171.822Z" fill="#E0E0E0"/>
<path d="M277.671 132.605H160.134C157.167 132.605 154.76 130.199 154.76 127.231C154.76 124.263 157.167 121.857 160.134 121.857H277.671C280.639 121.857 283.045 124.263 283.045 127.231C283.045 130.2 280.639 132.605 277.671 132.605Z" fill="#FF725E"/>
<path d="M279.878 193.455H146.094C143.127 193.455 140.72 191.048 140.72 188.08C140.72 185.113 143.127 182.706 146.094 182.706H279.878C282.846 182.706 285.252 185.113 285.252 188.08C285.251 191.049 282.846 193.455 279.878 193.455Z" fill="#E0E0E0"/>
<path d="M219.476 287.762H116.546C113.578 287.762 111.171 285.356 111.171 282.388C111.171 279.42 113.578 277.014 116.546 277.014H219.476C222.444 277.014 224.851 279.42 224.851 282.388C224.851 285.356 222.444 287.762 219.476 287.762Z" fill="#E0E0E0"/>
<path d="M303.391 265.255H116.546C113.578 265.255 111.171 262.848 111.171 259.881C111.171 256.913 113.578 254.506 116.546 254.506H303.391C306.359 254.506 308.765 256.913 308.765 259.881C308.765 262.848 306.36 265.255 303.391 265.255Z" fill="#E0E0E0"/>
<path d="M303.391 337.754H139.846C136.879 337.754 134.472 335.348 134.472 332.38C134.472 329.412 136.879 327.006 139.846 327.006H303.391C306.359 327.006 308.766 329.412 308.766 332.38C308.766 335.348 306.36 337.754 303.391 337.754Z" fill="#E0E0E0"/>
<path d="M303.391 360.725H116.546C113.578 360.725 111.171 358.318 111.171 355.351C111.171 352.383 113.578 349.976 116.546 349.976H303.391C306.359 349.976 308.765 352.383 308.765 355.351C308.765 358.32 306.36 360.725 303.391 360.725Z" fill="#E0E0E0"/>
<path d="M303.391 384.054H116.546C113.578 384.054 111.171 381.648 111.171 378.68C111.171 375.712 113.578 373.306 116.546 373.306H303.391C306.359 373.306 308.765 375.712 308.765 378.68C308.765 381.648 306.36 384.054 303.391 384.054Z" fill="#E0E0E0"/>
<path d="M124.956 332.38C124.956 335.463 122.457 337.962 119.373 337.962C116.29 337.962 113.791 335.463 113.791 332.38C113.791 329.296 116.29 326.797 119.373 326.797C122.457 326.797 124.956 329.296 124.956 332.38Z" fill="#FF725E"/>
<path d="M303.391 244.264H139.846C136.879 244.264 134.472 241.858 134.472 238.89C134.472 235.922 136.879 233.516 139.846 233.516H303.391C306.359 233.516 308.766 235.922 308.766 238.89C308.766 241.858 306.36 244.264 303.391 244.264Z" fill="#E0E0E0"/>
<path d="M119.373 244.473C122.456 244.473 124.956 241.973 124.956 238.89C124.956 235.807 122.456 233.307 119.373 233.307C116.29 233.307 113.791 235.807 113.791 238.89C113.791 241.973 116.29 244.473 119.373 244.473Z" fill="#FF725E"/>
<path d="M298.169 418.237H256.243C251.513 418.237 247.678 414.402 247.678 409.672C247.678 404.941 251.513 401.107 256.243 401.107H298.169C302.9 401.107 306.734 404.941 306.734 409.672C306.734 414.402 302.9 418.237 298.169 418.237Z" fill="#FF725E"/>
<path d="M82.1677 14.1795L38.7053 35.9805C35.4561 37.365 33.3467 40.5558 33.3467 44.0882V64.4194C33.3467 82.5827 38.4157 100.582 48.8453 116.473C56.6738 128.401 67.0566 143.648 84.3324 152.365H92.1306C111.362 146.5 125.717 130.865 134.493 117.494C144.923 101.603 149.992 83.6046 149.992 65.4402V44.0882C149.992 40.5558 147.883 37.365 144.633 35.9805L95.1235 14.8848C92.9171 13.9452 84.3751 13.2399 82.1677 14.1795Z" fill="#592FB0"/>
<path opacity="0.3" d="M82.1677 14.1795L38.7053 35.9805C35.4561 37.365 33.3467 40.5558 33.3467 44.0882V64.4194C33.3467 82.5827 38.4157 100.582 48.8453 116.473C56.6738 128.401 67.0566 143.648 84.3324 152.365H92.1306C111.362 146.5 125.717 130.865 134.493 117.494C144.923 101.603 149.992 83.6046 149.992 65.4402V44.0882C149.992 40.5558 147.883 37.365 144.633 35.9805L95.1235 14.8848C92.9171 13.9452 84.3751 13.2399 82.1677 14.1795Z" fill="#592FB0"/>
<path d="M80.416 14.8848L30.9064 35.9805C27.6573 37.365 25.5479 40.5558 25.5479 44.0882V64.4193C25.5479 82.5827 30.6168 100.582 41.0465 116.473C49.8229 129.845 63.4121 143.614 84.3328 152.365C103.564 146.5 117.919 130.865 126.695 117.494C137.125 101.603 142.194 83.6046 142.194 65.4402V44.0882C142.194 40.5558 140.085 37.365 136.835 35.9805L87.3246 14.8848C85.1183 13.9451 82.6234 13.9451 80.416 14.8848Z" fill="#7F5ACC"/>
<path d="M142.033 59.9317C142.042 59.9317 142.052 60.0119 142.065 60.1692C142.075 60.3588 142.089 60.589 142.105 60.8682C142.128 61.5307 142.162 62.4287 142.202 63.561C142.242 64.7309 142.303 66.1622 142.217 67.8248C142.19 68.6581 142.162 69.5467 142.132 70.4874C142.116 70.9593 142.099 71.4437 142.083 71.9416C142.037 72.4375 141.99 72.9469 141.942 73.4677C141.737 75.5512 141.593 77.844 141.16 80.2712C140.961 81.4858 140.804 82.7525 140.551 84.0401C140.274 85.3235 139.99 86.6433 139.697 87.9976C138.398 93.378 136.603 99.2273 133.986 105.069C131.36 110.907 128.261 116.178 125.124 120.744C123.478 122.973 121.961 125.127 120.333 126.981C119.534 127.917 118.807 128.862 118.025 129.696C117.243 130.529 116.491 131.328 115.773 132.091C114.374 133.652 112.938 134.893 111.74 136.047C111.129 136.611 110.579 137.156 110.04 137.62C109.495 138.072 108.995 138.487 108.54 138.863C107.663 139.581 106.969 140.15 106.456 140.57C106.236 140.743 106.055 140.885 105.906 141.003C105.78 141.098 105.713 141.144 105.707 141.136C105.701 141.129 105.757 141.07 105.872 140.96C106.012 140.831 106.181 140.676 106.387 140.486C106.883 140.048 107.555 139.454 108.403 138.705C108.847 138.319 109.335 137.893 109.868 137.428C110.396 136.954 110.934 136.399 111.532 135.826C112.706 134.656 114.12 133.4 115.495 131.828C116.202 131.06 116.942 130.256 117.713 129.419C118.483 128.581 119.197 127.634 119.986 126.695C121.592 124.839 123.087 122.685 124.713 120.459C127.812 115.901 130.879 110.654 133.491 104.849C136.093 99.0408 137.891 93.2301 139.211 87.883C139.509 86.5381 139.8 85.2256 140.083 83.9505C140.343 82.6713 140.507 81.4119 140.715 80.2045C141.166 77.7919 141.331 75.5105 141.559 73.4365C141.613 72.9177 141.666 72.4114 141.718 71.9177C141.741 71.4229 141.764 70.9395 141.786 70.4697C141.831 69.5332 141.873 68.6477 141.913 67.8175C142.028 66.1612 141.997 64.733 141.991 63.5652C141.993 62.4339 141.994 61.5359 141.995 60.8745C142.001 60.5942 142.006 60.364 142.01 60.1734C142.016 60.014 142.023 59.9327 142.033 59.9317Z" fill="#7F5ACC"/>
<path d="M103.481 87.256H98.2016V58.5182C98.2016 51.7543 92.6982 46.251 85.9343 46.251C79.1705 46.251 73.6671 51.7543 73.6671 58.5182V87.256H68.3877V58.5182C68.3877 48.8428 76.2599 40.9716 85.9343 40.9716C95.6087 40.9716 103.481 48.8438 103.481 58.5182V87.256Z" fill="#F5F5F5"/>
<path d="M103.528 104.815H68.34C64.9972 104.815 62.2866 102.104 62.2866 98.7614V73.8008C62.2866 70.458 64.9972 67.7474 68.34 67.7474H103.528C106.871 67.7474 109.582 70.458 109.582 73.8008V98.7614C109.582 102.104 106.871 104.815 103.528 104.815Z" fill="white"/>
<path d="M103.528 104.815C103.523 104.775 104.091 104.82 105.102 104.544C106.082 104.271 107.594 103.547 108.615 101.83C109.129 100.99 109.453 99.9092 109.452 98.7123C109.445 97.4914 109.437 96.1684 109.43 94.7475C109.418 91.8974 109.405 88.6587 109.389 85.0814C109.373 81.5021 109.355 77.5863 109.335 73.383C109.211 71.36 107.896 69.3578 105.9 68.4963C104.901 68.0358 103.83 67.9515 102.659 67.9931C101.506 67.9952 100.336 67.9963 99.1524 67.9983C89.679 68.0046 79.2702 68.0119 68.3426 68.0192C67.0374 68.0317 65.7436 68.4661 64.7383 69.2807C63.7393 70.0901 62.9934 71.2183 62.7174 72.4621C62.5684 73.0871 62.5434 73.7017 62.5538 74.3747C62.5538 75.0351 62.5528 75.6935 62.5528 76.3487C62.5518 77.6592 62.5507 78.9593 62.5507 80.2479C62.5455 85.4012 62.5403 90.3723 62.5351 95.109C62.634 97.4591 62.1424 99.8884 63.356 101.748C64.4581 103.625 66.5759 104.693 68.627 104.591C72.8366 104.602 76.7587 104.614 80.3422 104.624C87.4821 104.66 93.2709 104.69 97.3065 104.71C99.2857 104.732 100.834 104.749 101.919 104.761C102.424 104.773 102.822 104.781 103.118 104.789C103.389 104.796 103.528 104.805 103.528 104.815C103.528 104.824 103.389 104.833 103.119 104.843C102.822 104.849 102.425 104.858 101.92 104.87C100.836 104.881 99.2868 104.899 97.3075 104.921C93.2719 104.942 87.4842 104.971 80.3432 105.007C76.7597 105.018 72.8366 105.028 68.6281 105.041C66.4655 105.16 64.1372 104.02 62.9486 101.994C62.3309 101.005 62.033 99.8008 62.0424 98.6164C62.0403 97.4632 62.0392 96.2934 62.0371 95.11C62.0319 90.3733 62.0267 85.4023 62.0215 80.2489C62.0205 78.9603 62.0205 77.6602 62.0194 76.3498C62.0194 75.6945 62.0184 75.0372 62.0184 74.3757C62.0059 73.7299 62.0309 73.009 62.1944 72.3381C62.4976 70.9766 63.3101 69.7422 64.4029 68.8578C65.4998 67.9671 66.9197 67.4889 68.3447 67.4764C79.2713 67.4837 89.6811 67.491 99.1545 67.4983C100.338 67.5004 101.507 67.5014 102.661 67.5035C103.786 67.4619 105.047 67.5577 106.096 68.0608C108.253 69.0025 109.662 71.1704 109.785 73.3507C109.821 77.5925 109.777 81.4927 109.775 85.0814C109.76 88.6587 109.747 91.8974 109.734 94.7475C109.726 96.1684 109.719 97.4924 109.712 98.7123C109.699 99.9561 109.343 101.08 108.798 101.939C107.711 103.699 106.138 104.405 105.132 104.65C104.092 104.896 103.528 104.815 103.528 104.815Z" fill="#592FB1"/>
<path d="M89.5643 87.2474C90.4893 86.3151 91.0613 85.0359 91.0613 83.616C91.0613 80.744 88.732 78.4147 85.86 78.4147C82.988 78.4147 80.6587 80.744 80.6587 83.616C80.6587 85.9932 82.2629 87.9756 84.4412 88.5965L83.3234 93.5383H88.2747L87.2798 88.5965C88.1569 88.3464 88.9403 87.8756 89.5643 87.2474Z" fill="#592FB1"/>
<path d="M26.7746 175.427L13.6948 165.029L17.3236 160.464L26.0947 167.437L38.9019 153.104L43.2492 156.989L26.7746 175.427Z" fill="#35ABFF"/>
<path d="M408.081 114.16H404.671V95.5974C404.671 91.2284 401.117 87.6741 396.748 87.6741C392.379 87.6741 388.825 91.2284 388.825 95.5974V114.16H385.415V95.5974C385.415 89.348 390.499 84.2632 396.749 84.2632C402.998 84.2632 408.083 89.348 408.083 95.5974V114.16H408.081Z" fill="#EBEBEB"/>
<path d="M409.12 125.502H384.375C382.773 125.502 381.473 124.202 381.473 122.6V104.462C381.473 102.86 382.773 101.56 384.375 101.56H409.12C410.722 101.56 412.021 102.86 412.021 104.462V122.6C412.021 124.202 410.723 125.502 409.12 125.502Z" fill="#EBEBEB"/>
<path d="M399.093 114.154C399.691 113.553 400.061 112.726 400.061 111.809C400.061 109.953 398.557 108.449 396.701 108.449C394.846 108.449 393.341 109.953 393.341 111.809C393.341 113.344 394.377 114.625 395.784 115.026L395.062 118.218H398.26L397.617 115.026C398.183 114.864 398.691 114.561 399.093 114.154Z" fill="#FAFAFA"/>
<path d="M434.856 289.022C438.813 287.362 441.627 283.282 441.651 278.474C441.676 272.175 436.91 267.046 431.003 267.019C425.099 266.991 420.289 272.075 420.263 278.375C420.243 283.227 423.077 287.357 427.077 289.022C410.621 291.501 411.366 309.388 411.366 309.388L450.282 309.567C450.282 309.567 451.171 291.485 434.856 289.022Z" fill="#EBEBEB"/>
<path d="M269.338 47.8689C272.109 47.3945 274.508 45.2067 275.234 42.1419C276.182 38.1265 273.899 34.1478 270.133 33.2576C266.37 32.3674 262.549 34.9004 261.6 38.9158C260.87 42.0098 262.068 45.0643 264.373 46.7184C253.505 45.8668 251.336 57.3906 251.336 57.3906L276.143 63.26C276.143 63.26 279.384 51.8531 269.338 47.8689Z" fill="#EBEBEB"/>
<path d="M426.487 153.305C428.798 151.917 430.181 149.127 429.763 146.136C429.213 142.218 425.788 139.457 422.113 139.971C418.44 140.485 415.906 144.078 416.457 147.997C416.88 151.015 419.013 153.328 421.65 154.005C411.642 157.025 413.713 168.078 413.713 168.078L437.924 164.692C437.924 164.692 436.851 153.371 426.487 153.305Z" fill="#F5F5F5"/>
<path d="M399.729 155.054V193.27C399.811 199.879 400.782 210.25 390.327 209.903C381.279 208.918 378.878 200.352 378.808 194.185C378.775 191.259 378.741 188.819 378.717 188.519C378.717 188.519 368.812 187.711 367.975 177.928C367.572 173.2 367.532 163.394 367.599 154.523C367.672 144.995 375.059 137.124 384.562 136.431L385.507 136.362C395.739 136.211 399.863 144.822 399.729 155.054Z" fill="#FFBF9D"/>
<path d="M378.715 188.519C378.715 188.519 384.914 188.43 391.19 183.818C391.19 183.818 388.602 191.198 378.766 191.029L378.715 188.519Z" fill="#FF9A6C"/>
<path d="M384.324 158.531C384.518 158.729 385.648 157.82 387.288 157.775C388.925 157.706 390.151 158.535 390.323 158.324C390.408 158.23 390.205 157.869 389.672 157.493C389.146 157.12 388.255 156.767 387.235 156.802C386.214 156.838 385.366 157.248 384.883 157.657C384.389 158.069 384.228 158.443 384.324 158.531Z" fill="#263238"/>
<path d="M384.299 163.168C384.325 163.869 384.94 164.423 385.672 164.409C386.402 164.395 386.974 163.817 386.948 163.117C386.921 162.418 386.306 161.861 385.576 161.874C384.844 161.889 384.272 162.468 384.299 163.168Z" fill="#263238"/>
<path d="M380.218 169.933C380.219 169.847 379.272 169.754 377.741 169.671C377.354 169.659 376.985 169.609 376.901 169.352C376.791 169.081 376.921 168.655 377.075 168.194C377.368 167.238 377.675 166.235 377.997 165.185C379.271 160.903 380.163 157.394 379.991 157.344C379.817 157.294 378.645 160.724 377.371 165.005C377.066 166.061 376.774 167.066 376.497 168.028C376.384 168.475 376.169 168.989 376.408 169.551C376.532 169.83 376.83 170.018 377.08 170.066C377.332 170.123 377.549 170.111 377.74 170.109C379.272 170.082 380.219 170.019 380.218 169.933Z" fill="#263238"/>
<path d="M385.023 151.556C385.182 151.92 386.494 151.646 388.066 151.727C389.639 151.774 390.929 152.154 391.111 151.804C391.191 151.637 390.947 151.302 390.413 150.978C389.883 150.653 389.055 150.37 388.113 150.33C387.171 150.292 386.326 150.508 385.776 150.788C385.22 151.068 384.955 151.383 385.023 151.556Z" fill="#263238"/>
<path d="M369.456 154.011C369.629 154.307 370.907 153.978 372.458 153.931C374.008 153.855 375.294 154.081 375.457 153.771C375.529 153.623 375.273 153.358 374.733 153.122C374.197 152.887 373.369 152.707 372.441 152.743C371.512 152.781 370.69 153.027 370.161 153.305C369.628 153.584 369.38 153.869 369.456 154.011Z" fill="#263238"/>
<path d="M354.615 145.739C354.722 145.345 355.008 145.022 355.359 144.814C356.125 144.363 357.008 144.422 357.86 144.409C360.457 144.367 363.033 143.574 365.218 142.172C366.241 140.697 367.392 139.311 368.642 138.023C371.607 134.964 374.047 132.883 376.572 131.868C379.836 130.553 385.296 130.02 388.701 130.913C392.105 131.806 395.162 134.568 395.636 138.056C397.545 136.441 400.411 136.455 402.736 137.39L402.794 137.364C405.384 138.288 406.855 141.023 407.619 143.664C408.383 146.304 408.709 149.129 410.107 151.495C410.4 151.99 410.747 152.583 410.492 153.098C410.294 153.496 409.789 153.66 409.349 153.596C408.91 153.531 408.519 153.288 408.144 153.05C408.433 153.741 408.721 154.433 409.011 155.124C408.073 155.288 407.104 155.212 406.194 154.937C405.644 157.407 404.988 160.226 404.352 161.9C403.27 161.897 402.278 161.975 401.612 162.574C400.704 163.39 400.299 164.923 398.792 164.342C398.025 164.045 397.326 162.436 397.068 161.655C395.365 156.469 394.799 150.915 395.415 145.492C394.343 144.349 393.048 143.415 391.625 142.757L391.741 142.861C389.006 141.912 385.914 140.977 383.32 142.262C381.307 143.257 380.125 145.345 378.62 147.012C375.768 150.17 371.922 151.886 367.671 152.069C367.527 154.824 367.758 158.717 367.614 161.473L365.297 157.06L365.295 157.081C365.105 156.758 364.948 156.432 364.796 156.106L364.744 156.007V155.995C364.503 155.471 364.274 154.946 363.969 154.428C363.96 154.435 363.951 154.444 363.943 154.451C362.45 155.768 360.251 153.754 361.427 152.149C361.66 151.83 361.94 151.547 362.259 151.313C361.577 151.953 360.56 152.26 359.665 151.985C358.77 151.71 358.076 150.805 358.154 149.873C358.207 149.236 358.663 148.668 359.237 148.416C358.031 148.508 356.798 148.246 355.747 147.646C355.057 147.253 354.381 146.605 354.615 145.739Z" fill="#263238"/>
<path d="M392.556 139.179C392.536 139.204 392.966 139.437 393.538 140.077C394.104 140.712 394.74 141.819 395.04 143.326C395.193 144.075 395.291 144.912 395.29 145.814C395.293 146.715 395.221 147.68 395.152 148.698C395.086 149.714 395.013 150.789 395.078 151.907C395.111 152.465 395.178 153.033 395.299 153.6C395.423 154.157 395.569 154.762 395.989 155.242C396.325 155.633 396.885 155.806 397.371 155.706C397.86 155.619 398.295 155.359 398.614 155.005C399.244 154.269 399.4 153.337 399.557 152.516L399.351 152.54C399.687 153.279 400.031 154.009 400.542 154.591C401.044 155.176 401.74 155.565 402.446 155.628C402.798 155.66 403.153 155.603 403.455 155.451C403.764 155.301 403.987 155.045 404.141 154.775C404.287 154.5 404.363 154.199 404.348 153.908C404.331 153.617 404.218 153.342 404.034 153.147L403.931 153.239C404.685 154.098 405.482 154.56 406.033 154.817C406.311 154.945 406.533 155.022 406.684 155.071C406.836 155.116 406.916 155.135 406.918 155.128C406.92 155.122 406.845 155.09 406.697 155.034C406.551 154.974 406.335 154.887 406.066 154.75C405.531 154.477 404.76 154.002 404.036 153.15L403.932 153.242C404.262 153.591 404.28 154.204 403.998 154.696C403.855 154.939 403.649 155.167 403.378 155.294C403.108 155.426 402.785 155.476 402.463 155.443C401.814 155.378 401.166 155.015 400.696 154.458C400.214 153.901 399.88 153.191 399.549 152.451L399.409 152.137L399.344 152.475C399.187 153.296 399.02 154.191 398.446 154.853C398.161 155.171 397.762 155.406 397.334 155.481C396.905 155.564 396.452 155.422 396.16 155.088C395.792 154.673 395.642 154.099 395.523 153.551C395.404 152.998 395.337 152.442 395.303 151.893C395.236 150.794 395.303 149.727 395.363 148.71C395.426 147.693 395.492 146.724 395.48 145.811C395.473 144.898 395.365 144.049 395.198 143.291C394.873 141.765 394.201 140.645 393.604 140.016C393.001 139.385 392.556 139.179 392.556 139.179Z" fill="#35ABFF"/>
<path d="M362.279 148.701C362.276 148.704 362.304 148.727 362.357 148.768C362.423 148.817 362.503 148.875 362.602 148.947C362.708 149.027 362.844 149.12 363.016 149.213C363.186 149.31 363.378 149.428 363.612 149.526C364.522 149.958 365.979 150.387 367.801 150.279C369.606 150.177 371.773 149.538 373.708 148.098C375.663 146.692 377.38 144.621 378.783 142.249C379.495 141.064 380.075 139.849 380.714 138.727C381.35 137.605 382.051 136.567 382.901 135.748C383.741 134.925 384.716 134.316 385.721 134.036C386.221 133.887 386.726 133.854 387.208 133.865C387.691 133.89 388.148 133.988 388.57 134.126C389.414 134.409 390.094 134.875 390.61 135.355C391.129 135.839 391.476 136.35 391.715 136.787C392.16 137.687 392.184 138.264 392.22 138.255C392.224 138.255 392.221 138.22 392.213 138.152C392.2 138.071 392.185 137.973 392.166 137.852C392.118 137.59 392.006 137.21 391.795 136.747C391.565 136.294 391.22 135.765 390.699 135.261C390.179 134.763 389.488 134.274 388.622 133.972C388.19 133.824 387.718 133.719 387.217 133.688C386.719 133.671 386.189 133.703 385.67 133.853C384.626 134.135 383.617 134.757 382.754 135.595C381.88 136.43 381.161 137.486 380.519 138.616C379.871 139.746 379.291 140.957 378.586 142.131C377.193 144.485 375.502 146.533 373.584 147.926C371.685 149.354 369.57 149.994 367.791 150.117C365.998 150.243 364.558 149.845 363.649 149.444C362.733 149.036 362.297 148.674 362.279 148.701Z" fill="#35ABFF"/>
<path d="M361.389 144.401C361.38 144.415 361.506 144.501 361.739 144.646C361.971 144.795 362.326 144.978 362.779 145.174C363.229 145.373 363.79 145.558 364.424 145.714C365.061 145.858 365.775 145.965 366.528 145.993C367.283 146.013 368.002 145.953 368.646 145.849C369.289 145.735 369.86 145.585 370.323 145.415C370.787 145.249 371.153 145.089 371.394 144.955C371.636 144.826 371.767 144.747 371.76 144.733C371.741 144.695 371.201 144.973 370.273 145.261C369.81 145.409 369.246 145.54 368.613 145.64C367.978 145.73 367.275 145.783 366.536 145.764C365.796 145.736 365.098 145.638 364.47 145.508C363.845 145.367 363.291 145.201 362.839 145.024C361.932 144.676 361.409 144.364 361.389 144.401Z" fill="#35ABFF"/>
<path d="M369.386 158.531C369.581 158.729 370.71 157.82 372.35 157.775C373.988 157.707 375.213 158.535 375.386 158.324C375.471 158.23 375.268 157.869 374.734 157.493C374.208 157.12 373.318 156.767 372.298 156.802C371.277 156.838 370.429 157.248 369.947 157.657C369.452 158.069 369.291 158.443 369.386 158.531Z" fill="#263238"/>
<path d="M371.058 163.168C371.085 163.869 371.7 164.424 372.432 164.409C373.161 164.395 373.734 163.817 373.707 163.118C373.681 162.418 373.066 161.861 372.335 161.876C371.605 161.889 371.032 162.468 371.058 163.168Z" fill="#263238"/>
<path d="M399.474 162.365C399.635 162.28 406.05 159.887 406.324 166.589C406.599 173.291 399.814 172.185 399.794 171.992C399.774 171.801 399.474 162.365 399.474 162.365Z" fill="#FFBF9D"/>
<path d="M401.737 169.37C401.765 169.347 401.857 169.447 402.059 169.529C402.255 169.609 402.589 169.656 402.932 169.511C403.629 169.222 404.179 168.074 404.162 166.864C404.155 166.253 404.003 165.678 403.767 165.206C403.543 164.724 403.212 164.394 402.853 164.346C402.494 164.279 402.251 164.503 402.176 164.694C402.094 164.886 402.143 165.018 402.108 165.03C402.09 165.048 401.96 164.923 402.002 164.644C402.024 164.51 402.096 164.349 402.248 164.213C402.404 164.077 402.638 163.999 402.887 164.016C403.405 164.031 403.89 164.488 404.149 165.005C404.437 165.525 404.622 166.171 404.631 166.857C404.643 168.209 404.004 169.501 403.046 169.821C402.58 169.964 402.18 169.837 401.971 169.688C401.755 169.531 401.714 169.382 401.737 169.37Z" fill="#FF9A6C"/>
<path d="M385.008 171.324C385.063 171.334 385.064 171.717 384.832 172.285C384.599 172.843 384.09 173.569 383.29 174.074C382.496 174.587 381.616 174.749 381.005 174.688C380.389 174.633 380.056 174.429 380.077 174.377C380.099 174.302 380.455 174.377 381.008 174.34C381.561 174.309 382.316 174.116 383.025 173.66C383.739 173.209 384.232 172.602 384.523 172.127C384.812 171.647 384.931 171.305 385.008 171.324Z" fill="#263238"/>
<path d="M418.771 436.469L420.774 459.135L427.857 476.634C428.368 477.895 427.636 479.299 426.263 479.692C425.494 479.912 424.665 479.773 424.029 479.31C419.984 476.366 405.4 465.546 405.238 464.136C405.027 462.311 401.31 440.023 401.31 440.023L418.771 436.469Z" fill="#35ABFF"/>
<path d="M426.263 479.693L404.837 461.555L405.047 463.234C405.191 464.153 405.207 464.652 405.849 465.225C407.567 466.76 412.589 471.461 423.802 479.696C424.455 480.174 425.478 479.939 426.263 479.693Z" fill="#263238"/>
<path d="M409.053 454.486C409.7 454.818 409.993 455.655 409.668 456.277C409.342 456.898 408.438 457.186 407.786 456.865C407.132 456.545 406.747 455.549 407.144 454.966C407.542 454.383 408.623 454.099 409.175 454.558" fill="white"/>
<path d="M419.647 470.359C419.79 470.408 420.199 469.169 421.559 468.389C422.892 467.571 424.257 467.757 424.273 467.615C424.288 467.557 423.962 467.412 423.391 467.393C422.824 467.372 422.019 467.527 421.275 467.967C420.533 468.409 420.036 469.026 419.814 469.515C419.586 470.009 419.586 470.347 419.647 470.359Z" fill="#263238"/>
<path d="M421.703 473.217C421.828 473.303 422.518 472.491 423.725 472.032C424.921 471.547 426.019 471.658 426.042 471.512C426.098 471.39 424.886 471.026 423.519 471.571C422.147 472.102 421.571 473.168 421.703 473.217Z" fill="#263238"/>
<path d="M416.019 466.795C416.143 466.892 417.196 465.637 419.007 464.768C420.803 463.872 422.5 463.78 422.488 463.63C422.513 463.505 420.69 463.369 418.762 464.325C416.824 465.262 415.896 466.743 416.019 466.795Z" fill="#263238"/>
<path d="M414.796 459.953C414.877 460.082 416.146 459.427 417.87 459.196C419.59 458.942 421.008 459.218 421.044 459.073C421.098 458.956 419.641 458.434 417.791 458.701C415.939 458.955 414.709 459.856 414.796 459.953Z" fill="#263238"/>
<path d="M414.03 453.313C414.119 453.436 415.371 452.549 417.206 452.445C419.039 452.303 420.411 453.014 420.481 452.88C420.515 452.829 420.221 452.571 419.631 452.326C419.048 452.078 418.156 451.883 417.167 451.947C416.18 452.015 415.326 452.328 414.786 452.651C414.241 452.972 413.988 453.267 414.03 453.313Z" fill="#263238"/>
<path d="M417.02 451.185C417.051 451.183 417.071 450.873 416.956 450.326C416.841 449.784 416.581 448.995 415.98 448.157C415.673 447.763 415.341 447.25 414.635 447.019C414.285 446.902 413.793 447.01 413.541 447.338C413.292 447.658 413.244 448.038 413.276 448.397C413.464 449.83 414.931 451.088 416.672 451.123C418.417 451.129 419.875 450.047 420.418 448.739C420.532 448.404 420.591 447.999 420.361 447.636C420.133 447.269 419.627 447.164 419.288 447.254C418.585 447.426 418.178 447.858 417.791 448.187C417.033 448.896 416.593 449.606 416.347 450.108C416.1 450.613 416.037 450.917 416.066 450.926C416.157 450.977 416.549 449.754 418.049 448.443C418.43 448.138 418.867 447.757 419.376 447.66C419.624 447.612 419.85 447.684 419.962 447.865C420.075 448.039 420.056 448.327 419.954 448.592C419.491 449.664 418.157 450.65 416.681 450.623C415.213 450.608 413.924 449.5 413.762 448.349C413.727 448.071 413.774 447.783 413.914 447.602C414.052 447.424 414.283 447.356 414.515 447.418C415.003 447.548 415.371 447.992 415.672 448.362C416.876 449.923 416.917 451.219 417.02 451.185Z" fill="#263238"/>
<path d="M361.668 437.639L362.561 456.834C362.561 456.834 342.105 464.134 341.903 467.696L381.557 467.405L381.471 437.444L361.668 437.639Z" fill="#35ABFF"/>
<path d="M374.808 455.129C375.577 455.321 376.114 456.128 375.942 456.858C375.77 457.588 374.902 458.108 374.129 457.929C373.356 457.751 372.68 456.8 372.938 456.092C373.195 455.385 374.251 454.826 374.956 455.173" fill="#E0E0E0"/>
<path d="M381.557 467.405L381.423 464.386L343.453 465.794C343.453 465.794 341.693 466.528 341.903 467.697L381.557 467.405Z" fill="#263238"/>
<path d="M361.915 456.648C361.923 456.83 362.892 456.906 363.849 457.484C364.824 458.038 365.32 458.824 365.499 458.75C365.677 458.714 365.379 457.628 364.207 456.946C363.041 456.256 361.872 456.482 361.915 456.648Z" fill="#263238"/>
<path d="M357.769 458.297C357.727 458.473 358.568 458.777 359.232 459.542C359.919 460.288 360.093 461.119 360.285 461.11C360.467 461.137 360.593 460.07 359.748 459.133C358.912 458.19 357.772 458.122 357.769 458.297Z" fill="#263238"/>
<path d="M355.446 462.993C355.622 463.031 355.884 462.119 355.379 461.126C354.881 460.129 353.964 459.742 353.884 459.895C353.776 460.045 354.368 460.576 354.77 461.397C355.191 462.209 355.253 462.976 355.446 462.993Z" fill="#263238"/>
<path d="M362.228 452.253C362.31 452.418 363.196 452.161 364.291 452.223C365.388 452.264 366.242 452.603 366.341 452.446C366.452 452.314 365.615 451.647 364.324 451.59C363.035 451.525 362.132 452.111 362.228 452.253Z" fill="#263238"/>
<path d="M354.767 299.815C354.79 300.926 359.374 454.329 359.374 454.329H383.885L388.851 323.104C388.851 323.104 394.649 391.715 394.649 393.198C394.649 394.68 399.765 455.068 399.765 455.068L422.49 453.324L421 315.163L418.222 294.907L354.767 299.815Z" fill="#103651"/>
<path d="M391.399 318.249C391.411 318.279 391.055 318.419 390.404 318.642C389.754 318.867 388.807 319.175 387.637 319.547L387.414 319.617L387.398 319.4C387.262 317.555 387.108 315.087 386.963 312.382C386.808 309.451 386.694 306.795 386.635 304.872C386.606 303.91 386.591 303.132 386.592 302.594C386.592 302.055 386.608 301.757 386.642 301.756C386.675 301.754 386.723 302.05 386.78 302.585C386.838 303.121 386.906 303.898 386.978 304.857C387.125 306.776 387.293 309.43 387.449 312.362C387.593 315.066 387.701 317.536 387.761 319.385L387.523 319.239C388.707 318.905 389.671 318.642 390.341 318.471C391.011 318.299 391.388 318.218 391.399 318.249Z" fill="#35ABFF"/>
<path d="M389.54 302.296C389.524 302.276 389.619 302.173 389.865 302.095C390.106 302.018 390.515 301.996 390.948 302.184C391.37 302.348 391.838 302.834 391.768 303.444C391.718 304.021 391.248 304.648 390.464 304.801C389.677 304.93 388.976 304.527 388.657 304.032C388.31 303.515 388.435 302.923 388.677 302.576C388.918 302.211 389.25 302.018 389.487 301.938C389.728 301.858 389.872 301.872 389.877 301.896C389.914 301.96 389.325 302.071 388.98 302.717C388.818 303.027 388.769 303.462 389.039 303.825C389.291 304.187 389.842 304.47 390.369 304.376C390.89 304.283 391.273 303.822 391.323 303.405C391.393 302.977 391.107 302.625 390.782 302.451C390.094 302.082 389.556 302.362 389.54 302.296Z" fill="#35ABFF"/>
<path d="M400.79 303.869C400.657 303.881 400.471 303.216 400.375 302.384C400.279 301.551 400.31 300.866 400.443 300.854C400.576 300.842 400.762 301.507 400.858 302.339C400.954 303.172 400.924 303.857 400.79 303.869Z" fill="#35ABFF"/>
<path d="M402.49 303.715C402.356 303.716 402.244 303.007 402.239 302.133C402.235 301.258 402.339 300.549 402.473 300.548C402.607 300.547 402.719 301.256 402.724 302.131C402.729 303.005 402.624 303.714 402.49 303.715Z" fill="#35ABFF"/>
<path d="M372.945 304.774C372.812 304.787 372.605 303.99 372.482 302.994C372.359 301.997 372.368 301.179 372.502 301.166C372.635 301.153 372.842 301.95 372.965 302.947C373.087 303.942 373.078 304.76 372.945 304.774Z" fill="#35ABFF"/>
<path d="M375.005 304.921C374.886 304.963 374.452 304.148 374.406 303.055C374.352 301.962 374.71 301.118 374.833 301.151C374.97 301.18 374.839 302.016 374.891 303.037C374.932 304.058 375.138 304.882 375.005 304.921Z" fill="#35ABFF"/>
<path d="M367.252 302.871C367.282 302.876 367.251 303.116 367.17 303.547C367.097 303.979 366.932 304.597 366.677 305.346C366.174 306.843 365.196 308.855 363.642 310.812C362.08 312.766 360.273 314.251 358.854 315.167C358.146 315.627 357.547 315.969 357.113 316.173C356.684 316.382 356.44 316.487 356.425 316.463C356.385 316.404 357.314 315.912 358.665 314.948C360.017 313.989 361.753 312.503 363.285 310.587C364.809 308.666 365.811 306.715 366.383 305.259C366.961 303.803 367.177 302.857 367.252 302.871Z" fill="#35ABFF"/>
<path d="M420.251 313.209C420.253 313.232 419.99 313.281 419.507 313.318C419.025 313.356 418.32 313.363 417.455 313.282C415.735 313.131 413.335 312.522 411.177 311.099C409.018 309.675 407.66 307.804 406.993 306.38C406.652 305.665 406.452 305.062 406.35 304.638C406.248 304.215 406.222 303.976 406.248 303.972C406.326 303.954 406.534 304.895 407.273 306.265C407.997 307.629 409.351 309.409 411.435 310.785C413.519 312.159 415.823 312.792 417.494 313.009C419.179 313.236 420.247 313.137 420.251 313.209Z" fill="#35ABFF"/>
<path d="M380.317 390.892C380.286 390.996 376.224 390.118 371.244 388.931C366.263 387.743 362.252 386.697 362.283 386.593C362.314 386.489 366.376 387.367 371.357 388.554C376.336 389.742 380.348 390.788 380.317 390.892Z" fill="#35ABFF"/>
<path d="M419.811 385.309C419.869 385.404 416.334 387.25 411.915 389.433C407.495 391.617 403.865 393.311 403.807 393.217C403.748 393.122 407.284 391.276 411.704 389.092C416.122 386.909 419.752 385.215 419.811 385.309Z" fill="#35ABFF"/>
<path d="M342.867 247.87L346.218 252.06V244.851H356.776C356.776 244.851 357.949 261.361 357.697 264.88C357.609 266.112 357.07 268.144 356.405 270.266C355.028 274.664 349.477 276.039 346.171 272.828C345.061 271.749 343.932 270.522 342.866 269.153C338.173 263.121 330.378 248.425 330.378 248.425L338.509 243.513L342.867 247.87Z" fill="#FFBF9D"/>
<path d="M342.199 247.096C342.147 247.143 342.691 247.831 343.578 248.938C344.468 250.042 345.703 251.563 347.113 253.209C348.525 254.852 349.855 256.303 350.89 257.284C351.918 258.274 352.644 258.787 352.683 258.738C352.73 258.68 352.094 258.081 351.14 257.038C350.18 256.003 348.899 254.525 347.489 252.885C344.697 249.585 342.318 246.986 342.199 247.096Z" fill="#FF9A6C"/>
<path d="M366.953 197.138L378.086 192.771L398.597 191.61L408.237 195.276L395.026 202.612L383.637 202.194L366.953 197.138Z" fill="#FFBF9D"/>
<path d="M353.82 301.913C354.827 302.087 422.028 304.941 422.028 304.941L419.668 244.518L419.474 232.654L415.656 196.714C415.656 196.714 405.612 193.26 400.487 191.611C400.487 191.611 395.093 197.233 384.836 197.081C374.809 196.932 372.715 194.671 372.715 194.671L358.697 200.046C358.697 200.046 348.729 203.62 347.013 208.03C345.344 212.323 342.284 236.842 342.284 236.842H356.814L356.54 280.156L353.82 301.913Z" fill="#35ABFF"/>
<g opacity="0.2">
<path d="M396.072 221.269L398.155 236.502L408.236 241.004L415.687 234.654V220.513L396.072 221.269Z" fill="black"/>
</g>
<path d="M415.423 225.59C415.423 225.717 411.234 225.819 406.067 225.819C400.898 225.819 396.709 225.717 396.709 225.59C396.709 225.464 400.898 225.361 406.067 225.361C411.234 225.361 415.423 225.464 415.423 225.59Z" fill="#263238"/>
<path d="M349.291 214.325C349.302 214.323 349.339 214.461 349.398 214.726C349.467 215.025 349.556 215.412 349.667 215.893C349.92 216.907 350.327 218.38 351.004 220.18C351.674 221.985 352.62 224.101 353.776 226.48C354.87 228.904 355.86 231.692 356.895 234.715L356.905 234.746V234.781C356.88 238.4 356.854 242.363 356.827 246.501C356.729 255.742 356.641 264.103 356.576 270.208C356.523 273.208 356.481 275.651 356.45 277.391C356.427 278.206 356.408 278.856 356.394 279.343C356.376 279.789 356.36 280.023 356.345 280.023C356.33 280.023 356.316 279.787 356.306 279.34C356.3 278.852 356.291 278.202 356.281 277.385C356.278 275.644 356.273 273.201 356.267 270.199C356.3 264.095 356.342 255.733 356.39 246.494C356.428 242.356 356.464 238.396 356.496 234.777L356.506 234.842C355.49 231.827 354.519 229.028 353.462 226.624C352.333 224.24 351.406 222.09 350.768 220.265C350.119 218.442 349.748 216.949 349.535 215.921C349.435 215.406 349.364 215.008 349.33 214.737C349.293 214.468 349.279 214.328 349.291 214.325Z" fill="#263238"/>
<path d="M420.536 207.256C420.567 207.259 420.555 207.718 420.523 208.546C420.489 209.453 420.446 210.633 420.392 212.054C420.272 215.093 420.112 219.146 419.935 223.628C419.732 228.109 419.548 232.163 419.412 235.201C419.329 236.622 419.262 237.8 419.21 238.708C419.153 239.536 419.108 239.992 419.078 239.991C419.047 239.99 419.035 239.531 419.041 238.701C419.057 237.793 419.079 236.612 419.104 235.19C419.178 232.226 419.312 228.132 419.5 223.61C419.688 219.09 419.894 214.998 420.086 212.039C420.182 210.559 420.275 209.362 420.355 208.536C420.438 207.708 420.507 207.253 420.536 207.256Z" fill="#263238"/>
<g opacity="0.3">
<path d="M349.328 216.52C349.001 223.151 351.5 229.574 355.926 234.522C354.559 228.288 351.145 222.486 349.328 216.52Z" fill="black"/>
</g>
<g opacity="0.3">
<path d="M378.843 276.339C381.984 276.072 384.816 274.211 386.908 271.851C388.999 269.493 390.892 266.816 392.325 264.009C394.273 260.19 395.24 256.032 395.501 251.679C391.585 262.171 385.846 270.476 378.843 276.339Z" fill="black"/>
</g>
<path d="M396.738 247.102C396.753 247.106 396.733 247.239 396.682 247.489C396.616 247.789 396.536 248.148 396.44 248.58C396.337 249.055 396.191 249.631 395.987 250.29C395.791 250.951 395.583 251.709 395.281 252.524C394.737 254.174 393.94 256.088 392.962 258.167C391.949 260.23 390.724 262.445 389.265 264.662C387.787 266.867 386.221 268.857 384.706 270.587C383.16 272.289 381.699 273.759 380.375 274.885C379.735 275.473 379.109 275.951 378.57 276.381C378.036 276.817 377.556 277.168 377.152 277.439C376.787 277.688 376.483 277.895 376.229 278.068C376.015 278.207 375.899 278.275 375.891 278.263C375.882 278.251 375.981 278.159 376.178 277.996C376.418 277.805 376.705 277.576 377.051 277.302C377.437 277.011 377.899 276.644 378.416 276.191C378.939 275.746 379.547 275.256 380.169 274.656C381.459 273.507 382.888 272.025 384.405 270.322C385.891 268.59 387.435 266.61 388.902 264.421C390.35 262.221 391.576 260.029 392.601 257.992C393.592 255.937 394.413 254.049 394.991 252.421C395.309 251.618 395.537 250.87 395.755 250.219C395.98 249.57 396.149 249.004 396.276 248.537C396.403 248.114 396.509 247.762 396.597 247.469C396.675 247.225 396.723 247.099 396.738 247.102Z" fill="#263238"/>
<path d="M394.796 228.191C394.812 228.194 394.784 228.406 394.718 228.808C394.64 229.251 394.537 229.834 394.409 230.563C394.279 231.326 394.1 232.256 393.826 233.321C393.561 234.389 393.306 235.616 392.888 236.937C392.692 237.601 392.486 238.297 392.272 239.022C392.054 239.745 391.773 240.481 391.512 241.252C391.006 242.801 390.329 244.405 389.644 246.104C388.188 249.464 386.387 253.076 384.194 256.692C381.97 260.292 379.573 263.539 377.244 266.366C376.043 267.749 374.923 269.082 373.773 270.237C373.205 270.82 372.678 271.405 372.133 271.929C371.585 272.448 371.06 272.948 370.556 273.425C369.57 274.398 368.593 275.185 367.764 275.905C366.939 276.633 366.193 277.216 365.572 277.679C364.982 278.124 364.509 278.482 364.15 278.752C363.822 278.994 363.646 279.114 363.637 279.102C363.629 279.09 363.787 278.946 364.097 278.682C364.443 278.396 364.898 278.018 365.466 277.546C366.069 277.063 366.798 276.464 367.604 275.719C368.416 274.983 369.375 274.183 370.344 273.2C370.839 272.718 371.356 272.213 371.894 271.689C372.431 271.162 372.949 270.573 373.509 269.987C374.642 268.826 375.746 267.491 376.934 266.107C379.235 263.28 381.609 260.044 383.822 256.463C386.003 252.865 387.805 249.279 389.274 245.943C389.965 244.257 390.653 242.666 391.171 241.128C391.438 240.364 391.726 239.634 391.951 238.916C392.174 238.198 392.387 237.508 392.592 236.848C393.026 235.538 393.303 234.32 393.589 233.262C393.885 232.205 394.087 231.283 394.243 230.527C394.404 229.806 394.533 229.229 394.631 228.791C394.726 228.396 394.782 228.188 394.796 228.191Z" fill="#263238"/>
<path d="M341.701 209.395C345.844 215.69 362.614 241.192 367.574 248.734C368.121 249.566 367.439 250.653 366.452 250.528L336.657 246.78C336.339 246.74 336.05 246.571 335.861 246.311L307.402 207.443C306.815 206.641 307.437 205.518 308.429 205.591L339.085 207.859C340.149 207.938 341.114 208.503 341.701 209.395Z" fill="#E0E0E0"/>
<path d="M341.701 209.395C341.701 209.395 341.64 209.261 341.463 209.037C341.285 208.818 340.988 208.502 340.5 208.225C340.023 207.931 339.313 207.772 338.515 207.743C337.707 207.677 336.781 207.601 335.742 207.515C331.545 207.186 325.513 206.713 318.07 206.129C316.204 205.986 314.25 205.836 312.213 205.68C311.194 205.602 310.155 205.523 309.097 205.442C308.822 205.426 308.591 205.392 308.276 205.392C307.962 205.398 307.65 205.533 307.418 205.747C306.94 206.166 306.819 206.954 307.192 207.497C309.787 211.057 312.56 214.859 315.476 218.859C321.319 226.848 327.74 235.629 334.479 244.845C334.912 245.429 335.297 245.978 335.766 246.585C335.912 246.742 336.094 246.867 336.296 246.943C336.506 247.026 336.712 247.035 336.874 247.057L337.925 247.189C339.325 247.365 340.714 247.539 342.093 247.713C344.853 248.059 347.571 248.399 350.244 248.734C355.587 249.401 360.742 250.045 365.653 250.658C365.973 250.692 366.238 250.743 366.599 250.763C366.964 250.768 367.335 250.614 367.586 250.352C367.845 250.095 367.99 249.736 367.994 249.372C368.008 249.015 367.799 248.633 367.635 248.418C366.971 247.412 366.316 246.42 365.671 245.441C364.38 243.485 363.126 241.586 361.913 239.75C359.487 236.08 357.226 232.662 355.161 229.539C351.03 223.318 347.684 218.279 345.354 214.772C344.198 213.05 343.296 211.706 342.668 210.771C342.366 210.331 342.131 209.988 341.959 209.737C341.794 209.506 341.708 209.39 341.701 209.395C341.694 209.399 341.766 209.525 341.914 209.765C342.076 210.023 342.298 210.374 342.582 210.826C343.192 211.773 344.068 213.135 345.191 214.878C347.488 218.406 350.791 223.475 354.866 229.732C356.915 232.866 359.159 236.295 361.567 239.977C362.773 241.818 364.02 243.722 365.304 245.682C365.947 246.663 366.599 247.657 367.26 248.665C367.45 248.932 367.534 249.113 367.542 249.373C367.538 249.616 367.439 249.862 367.263 250.035C367.091 250.214 366.848 250.313 366.6 250.31C366.347 250.296 366.004 250.239 365.709 250.206C360.799 249.584 355.646 248.93 350.303 248.253C347.632 247.915 344.913 247.572 342.154 247.224C340.774 247.051 339.384 246.875 337.986 246.699L336.934 246.567C336.746 246.541 336.593 246.533 336.472 246.482C336.342 246.433 336.224 246.351 336.129 246.249C335.714 245.686 335.297 245.12 334.879 244.554C328.128 235.345 321.697 226.573 315.845 218.59C312.92 214.606 310.14 210.82 307.537 207.275C307.273 206.897 307.355 206.348 307.693 206.045C307.857 205.894 308.069 205.798 308.293 205.793C308.513 205.79 308.813 205.825 309.067 205.839C310.126 205.915 311.165 205.989 312.183 206.063C314.22 206.208 316.175 206.347 318.042 206.481C325.49 206.998 331.527 207.418 335.727 207.709C336.768 207.778 337.695 207.839 338.502 207.892C339.314 207.908 339.969 208.042 340.451 208.315C341.413 208.847 341.671 209.431 341.701 209.395Z" fill="#263238"/>
<path d="M307.402 207.444C307.401 207.459 307.615 207.49 308.026 207.536C308.481 207.582 309.08 207.643 309.835 207.719C311.46 207.863 313.74 208.066 316.568 208.317C322.344 208.788 330.345 209.442 339.465 210.186L339.283 210.08C340.716 212.21 342.195 214.42 343.679 216.704C349.721 225.992 354.999 234.529 358.985 240.603C360.967 243.647 362.614 246.083 363.762 247.759C364.326 248.561 364.774 249.2 365.107 249.673C365.419 250.108 365.589 250.331 365.603 250.321C365.618 250.312 365.474 250.069 365.19 249.617C364.876 249.13 364.454 248.475 363.923 247.65C362.801 245.9 361.221 243.438 359.281 240.412C355.372 234.292 350.143 225.729 344.095 216.432C342.61 214.146 341.125 211.934 339.685 209.806L339.619 209.709L339.502 209.7C330.377 209.023 322.371 208.429 316.593 208C313.76 207.809 311.476 207.657 309.848 207.547C309.092 207.506 308.489 207.473 308.034 207.447C307.62 207.43 307.403 207.428 307.402 207.444Z" fill="#263238"/>
<path d="M325.876 213.002H325.875C325.87 213.001 325.867 212.999 325.863 212.998L325.876 213.002Z" fill="white"/>
<path d="M325.138 213.446C325.212 213.092 325.546 212.944 325.874 213.002C326.227 213.106 326.408 213.189 326.673 213.451C326.942 213.716 327.056 214.178 326.818 214.471C326.521 214.839 325.909 214.704 325.55 214.395C325.276 214.158 325.063 213.801 325.138 213.446Z" fill="white"/>
<path d="M339.055 235.494C339.055 235.494 340.231 232.69 337.247 232.329C334.263 231.968 326.428 232.329 326.428 232.329C326.428 232.329 322.145 232.781 323.049 235.856C323.049 235.856 320.517 238.116 321.874 240.558C323.23 242.999 323.773 242.276 323.773 242.276C323.773 242.276 323.411 245.26 325.672 245.712C325.672 245.712 328.123 248.606 330.38 248.426C332.635 248.244 342.221 243.633 342.854 242.729C343.487 241.824 344.391 241.31 343.849 240.301C343.849 240.301 345.025 237.655 342.493 237.253C342.493 237.253 342.311 235.041 339.055 235.494Z" fill="#FFBF9D"/>
<path d="M325.458 236.506C325.459 236.575 326.229 236.625 327.474 236.651C328.719 236.676 330.437 236.678 332.335 236.65C334.23 236.587 335.953 236.66 337.218 236.36C338.506 236.062 339.01 235.306 338.95 235.29C338.897 235.226 338.355 235.829 337.146 236.016C335.961 236.215 334.223 236.093 332.328 236.154C330.43 236.183 328.712 236.237 327.469 236.301C326.226 236.363 325.457 236.438 325.458 236.506Z" fill="#FF9A6C"/>
<path d="M327.595 241.027C327.587 241.053 327.811 241.159 328.244 241.25C328.675 241.343 329.318 241.415 330.108 241.365C330.898 241.319 331.829 241.152 332.828 240.872C333.829 240.596 334.893 240.211 336.017 239.866C337.14 239.519 338.226 239.269 339.226 239.204C340.203 239.159 341.259 239.186 341.96 238.651C342.306 238.405 342.544 238.066 342.613 237.719C342.679 237.379 342.61 237.081 342.499 236.873C342.263 236.442 341.943 236.417 341.952 236.441C341.927 236.479 342.183 236.57 342.323 236.951C342.479 237.317 342.397 237.986 341.763 238.36C341.154 238.776 340.25 238.728 339.201 238.746C338.146 238.789 337.012 239.038 335.871 239.39C334.756 239.756 333.693 240.105 332.699 240.431C331.726 240.73 330.834 240.926 330.076 241.014C328.555 241.204 327.612 240.941 327.595 241.027Z" fill="#FF9A6C"/>
<path d="M330.8 244.851C330.818 244.916 331.588 244.77 332.814 244.461C334.039 244.152 335.718 243.673 337.55 243.073C339.384 242.472 341.022 241.866 342.192 241.391C343.363 240.915 344.069 240.577 344.046 240.514C343.995 240.382 341.05 241.408 337.396 242.6C333.745 243.798 330.763 244.714 330.8 244.851Z" fill="#FF9A6C"/>
<path d="M330.03 248.398C330.039 248.459 330.685 248.433 331.7 248.206C332.717 247.984 334.083 247.518 335.518 246.862C336.955 246.208 338.209 245.541 339.117 245.059C340.024 244.574 340.577 244.257 340.548 244.193C340.485 244.045 338.139 245.078 335.313 246.409C332.493 247.763 330.012 248.269 330.03 248.398Z" fill="#FF9A6C"/>
<path d="M425.3 221.433C425.3 221.433 419.208 245.841 411.596 254.849C404.224 263.574 392.671 259.564 388.671 248.276C384.671 236.988 377.542 211.204 377.542 211.204L386.297 204.511L401.422 233.823L408.237 213.841L425.3 221.433Z" fill="#FFBF9D"/>
<path d="M377.947 211.881L371.528 202.578C371.528 202.578 369.397 202.082 368.793 201.729C368.065 201.303 367.35 197.608 367.365 196.886C367.38 196.165 366.12 194.479 366.63 194.004C367.14 193.529 368.861 193.493 368.768 192.8C368.748 192.652 367.492 191.11 368.488 189.979C368.848 189.57 370.297 189.21 370.297 189.21L370.194 185.66C370.194 185.66 372.111 181.468 374.07 182.985C374.07 182.985 381.459 188.66 382.203 189.568C382.947 190.475 385.79 202.294 386.294 204.511" fill="#FFBF9D"/>
<path d="M386.294 204.512C386.309 204.508 386.275 204.293 386.195 203.885C386.099 203.436 385.972 202.845 385.815 202.107C385.469 200.566 384.952 198.339 384.252 195.593C383.898 194.221 383.508 192.719 383.016 191.118C382.885 190.718 382.759 190.313 382.589 189.9C382.429 189.433 382.037 189.121 381.717 188.829C381.045 188.237 380.337 187.656 379.606 187.064C378.144 185.88 376.592 184.659 374.973 183.401C374.556 183.106 374.212 182.724 373.62 182.508C373.024 182.313 372.389 182.564 371.954 182.904C371.064 183.613 370.487 184.565 369.986 185.563L369.963 185.608L369.965 185.665C369.975 186.009 369.986 186.379 369.996 186.752C370.021 187.582 370.045 188.406 370.069 189.216L370.242 188.989C369.795 189.107 369.366 189.239 368.94 189.428C368.729 189.53 368.513 189.622 368.309 189.839C368.157 190.034 368.012 190.249 367.952 190.495C367.803 190.984 367.906 191.486 368.064 191.908C368.144 192.124 368.246 192.325 368.355 192.518L368.518 192.797L368.551 192.856C368.542 192.845 368.548 192.819 368.544 192.843C368.544 192.864 368.547 192.886 368.534 192.903C368.515 192.984 368.342 193.093 368.169 193.162C367.991 193.237 367.794 193.295 367.595 193.357C367.396 193.418 367.194 193.476 366.988 193.557C366.784 193.655 366.569 193.702 366.372 193.99C366.225 194.294 366.308 194.537 366.355 194.746C366.415 194.958 366.491 195.154 366.572 195.342C366.733 195.718 366.912 196.074 367.043 196.425C367.107 196.605 367.154 196.761 367.154 196.924C367.158 197.146 367.187 197.333 367.212 197.53C367.267 197.918 367.339 198.295 367.416 198.668C367.579 199.409 367.758 200.128 368.019 200.813C368.163 201.154 368.272 201.493 368.583 201.802C368.938 202.07 369.255 202.118 369.584 202.242C370.235 202.445 370.868 202.603 371.485 202.746L371.383 202.677C373.364 205.492 374.983 207.792 376.136 209.433C376.687 210.198 377.127 210.807 377.455 211.263C377.761 211.679 377.929 211.892 377.943 211.882C377.957 211.873 377.817 211.64 377.538 211.206C377.228 210.738 376.814 210.11 376.296 209.324C375.172 207.662 373.596 205.333 371.666 202.481L371.631 202.428L371.564 202.412C370.958 202.263 370.328 202.098 369.697 201.893C369.401 201.787 369.024 201.681 368.832 201.518C368.644 201.337 368.502 200.99 368.382 200.676C368.14 200.024 367.968 199.313 367.813 198.586C367.741 198.221 367.673 197.849 367.622 197.475C367.598 197.291 367.572 197.094 367.572 196.926C367.574 196.697 367.507 196.473 367.439 196.283C367.297 195.896 367.118 195.54 366.966 195.177C366.889 194.996 366.82 194.814 366.771 194.636C366.72 194.464 366.702 194.269 366.752 194.2C366.782 194.138 366.979 194.025 367.148 193.965C367.327 193.895 367.523 193.838 367.723 193.778C367.923 193.717 368.128 193.658 368.339 193.572C368.538 193.475 368.794 193.394 368.945 193.073C368.983 192.994 368.989 192.91 368.987 192.824C368.993 192.793 368.976 192.717 368.946 192.658L368.902 192.578L368.743 192.304C368.643 192.125 368.552 191.942 368.483 191.754C368.344 191.382 368.273 190.978 368.385 190.626C368.427 190.445 368.537 190.289 368.652 190.139C368.748 190.031 368.94 189.929 369.127 189.845C369.51 189.676 369.934 189.544 370.352 189.435L370.529 189.388L370.524 189.208C370.5 188.398 370.476 187.575 370.453 186.744C370.442 186.372 370.431 186.002 370.421 185.658L370.4 185.759C370.865 184.821 371.449 183.884 372.226 183.271C372.613 182.972 373.075 182.806 373.49 182.943C373.886 183.071 374.294 183.46 374.701 183.758C376.322 185.009 377.879 186.221 379.345 187.393C380.076 187.979 380.788 188.555 381.455 189.132C381.79 189.433 382.113 189.685 382.235 190.058C382.398 190.442 382.528 190.845 382.66 191.236C383.164 192.817 383.572 194.315 383.945 195.678C384.654 198.38 385.231 200.577 385.645 202.151C385.836 202.881 385.99 203.465 386.106 203.908C386.216 204.306 386.279 204.514 386.294 204.512Z" fill="#FF9A6C"/>
<path d="M370.297 189.21C370.3 189.288 371.047 189.229 372.213 189.341C372.802 189.385 373.436 189.605 374.233 189.803C375.051 189.983 375.952 189.891 376.846 189.826C378.642 189.582 380.158 190.341 380.961 191.16C381.787 191.982 381.87 192.769 381.953 192.741C381.993 192.761 382.031 191.901 381.196 190.941C380.788 190.476 380.189 190.014 379.429 189.7C378.677 189.359 377.72 189.292 376.814 189.371C375.9 189.439 375.052 189.534 374.315 189.392C373.579 189.233 372.847 189.022 372.236 189.021C371.02 188.988 370.294 189.164 370.297 189.21Z" fill="#FF9A6C"/>
<path d="M372.912 189.017C373.022 189.072 373.32 188.64 373.281 188.028C373.246 187.414 372.898 187.02 372.796 187.089C372.684 187.153 372.802 187.56 372.825 188.055C372.861 188.548 372.793 188.966 372.912 189.017Z" fill="#FF9A6C"/>
<path d="M368.54 192.935C368.533 193.051 371.068 193.16 374.104 192.499C374.863 192.335 375.558 192.123 376.151 192.24C376.74 192.347 377.192 192.742 377.476 193.114C378.035 193.897 378.125 194.552 378.207 194.526C378.243 194.527 378.285 193.853 377.741 192.93C377.459 192.491 376.968 191.993 376.235 191.829C375.499 191.666 374.74 191.901 374.009 192.054C371.026 192.704 368.535 192.799 368.54 192.935Z" fill="#FF9A6C"/>
<path d="M367.558 196.292C367.558 196.351 368.085 196.403 368.926 196.299C369.768 196.205 370.895 195.916 372.125 195.675C372.743 195.561 373.331 195.466 373.847 195.503C374.366 195.532 374.798 195.701 375.087 195.951C375.695 196.463 375.624 197.045 375.692 197.036C375.718 197.041 375.781 196.913 375.768 196.66C375.752 196.411 375.627 196.042 375.307 195.716C374.995 195.382 374.466 195.138 373.883 195.085C373.295 195.021 372.672 195.113 372.041 195.228C370.775 195.476 369.679 195.811 368.871 195.982C368.066 196.164 367.556 196.225 367.558 196.292Z" fill="#FF9A6C"/>
<path d="M369.759 198.955C369.682 199.013 370.308 199.67 371.46 199.667L371.233 199.471C371.256 199.674 371.278 199.867 371.301 200.066C371.468 201.38 371.703 202.43 371.828 202.412C371.952 202.393 371.918 201.32 371.753 200.014C371.726 199.816 371.7 199.625 371.671 199.424L371.642 199.216L371.443 199.228C370.478 199.286 369.816 198.856 369.759 198.955Z" fill="#FF9A6C"/>
<path d="M415.657 196.714C415.657 196.714 428.135 199.737 428.109 216.283C428.083 232.766 424.341 241.004 424.341 241.004L401.339 228.485L406.472 215.599L415.657 196.714Z" fill="#35ABFF"/>
<path d="M424.341 241.004C424.334 241.017 424.17 240.945 423.863 240.796C423.515 240.619 423.074 240.395 422.529 240.118C421.324 239.482 419.666 238.609 417.626 237.534C413.438 235.277 407.695 232.183 401.225 228.697L401.039 228.598L401.114 228.401C401.508 227.371 401.925 226.281 402.347 225.176C403.817 221.358 405.217 217.723 406.494 214.407C407.134 212.757 407.744 211.185 408.315 209.712C408.867 208.232 409.473 206.872 410.136 205.697C411.43 203.328 412.961 201.655 414.288 200.893C414.94 200.499 415.515 200.322 415.905 200.245C416.102 200.21 416.252 200.189 416.355 200.188C416.457 200.182 416.509 200.184 416.509 200.193C416.529 200.253 415.64 200.24 414.388 201.055C413.131 201.844 411.678 203.503 410.438 205.862C409.803 207.035 409.226 208.372 408.694 209.854C408.134 211.333 407.539 212.907 406.913 214.564C405.648 217.885 404.26 221.524 402.803 225.347C402.379 226.451 401.961 227.54 401.565 228.571L401.455 228.275C407.896 231.816 413.611 234.958 417.781 237.251C419.791 238.38 421.425 239.297 422.613 239.965C423.141 240.272 423.569 240.521 423.906 240.717C424.2 240.892 424.349 240.99 424.341 241.004Z" fill="#263238"/>
</svg>
