<svg width="606" height="401" viewBox="0 0 606 401" fill="none" xmlns="http://www.w3.org/2000/svg">
<path d="M511.456 21.1187V380.163C511.456 391.496 502.285 400.667 490.953 400.667H476.887V0.666504H491.02C501.631 0.666504 510.349 8.74674 511.355 19.1074C511.422 19.7779 511.456 20.4483 511.456 21.1187Z" fill="#FFA893"/>
<path d="M502.761 21.199V380.16C502.761 391.492 493.591 400.662 482.259 400.662H104.606C93.2736 400.662 84.0864 391.492 84.0864 380.16V21.199C84.0864 9.86666 93.2736 0.679688 104.606 0.679688H482.259C493.591 0.679891 502.761 9.86666 502.761 21.199Z" fill="white"/>
<path d="M502.773 21.123V42.162H84.1006V21.123C84.1006 9.82335 93.2371 0.669922 104.537 0.669922H482.337C493.62 0.669922 502.773 9.82315 502.773 21.123Z" fill="#FF6F47"/>
<path d="M111.495 22.4244C111.495 26.0283 108.578 28.9465 104.974 28.9465C101.378 28.9465 98.46 26.0283 98.46 22.4244C98.46 18.8206 101.378 15.9023 104.974 15.9023C108.578 15.9025 111.495 18.8206 111.495 22.4244Z" fill="white"/>
<path d="M129.246 22.4242C129.246 26.0281 126.329 28.9463 122.725 28.9463C119.129 28.9463 116.211 26.0281 116.211 22.4242C116.211 18.8203 119.129 15.9021 122.725 15.9021C126.329 15.9023 129.246 18.8203 129.246 22.4242Z" fill="white"/>
<path d="M146.995 22.4242C146.995 26.0281 144.078 28.9463 140.474 28.9463C136.878 28.9463 133.96 26.0281 133.96 22.4242C133.96 18.8203 136.878 15.9021 140.474 15.9021C144.078 15.9023 146.995 18.8203 146.995 22.4242Z" fill="white"/>
<path d="M218.157 260.614H110.447C107.429 260.614 104.982 258.168 104.982 255.149V76.589C104.982 73.5707 107.429 71.124 110.447 71.124H218.157C221.175 71.124 223.622 73.5707 223.622 76.589V255.149C223.622 258.167 221.175 260.614 218.157 260.614Z" fill="#F1F9FF"/>
<path d="M164.303 152.387C180.735 152.387 194.055 138.843 194.055 122.137C194.055 105.43 180.735 91.8865 164.303 91.8865C147.871 91.8865 134.55 105.43 134.55 122.137C134.55 138.843 147.871 152.387 164.303 152.387Z" fill="white"/>
<path d="M164.303 117.877C167.437 117.877 169.979 115.294 169.979 112.107C169.979 108.92 167.437 106.336 164.303 106.336C161.168 106.336 158.627 108.92 158.627 112.107C158.627 115.294 161.168 117.877 164.303 117.877Z" fill="#373A50"/>
<path d="M178.681 135.685C178.373 127.87 172.063 121.626 164.301 121.626C156.54 121.626 150.229 127.87 149.922 135.685H178.681Z" fill="#373A50"/>
<path d="M135.939 170.505V179C135.939 180.492 134.725 181.706 133.233 181.706H124.723C123.232 181.706 122.018 180.492 122.018 179V170.505C122.018 169.013 123.232 167.8 124.723 167.8H133.233C134.725 167.8 135.939 169.013 135.939 170.505Z" fill="#D6EEFF"/>
<path d="M210.75 172.224H140.896V177.281H210.75V172.224Z" fill="#D6EEFF"/>
<path d="M135.939 220.241V228.737C135.939 230.228 134.725 231.442 133.233 231.442H124.723C123.232 231.442 122.018 230.228 122.018 228.737V220.241C122.018 218.749 123.232 217.536 124.723 217.536H133.233C134.725 217.536 135.939 218.749 135.939 220.241Z" fill="#D6EEFF"/>
<path d="M210.75 221.961H140.896V227.017H210.75V221.961Z" fill="#D6EEFF"/>
<path d="M135.939 195.012V203.508C135.939 204.999 134.725 206.213 133.233 206.213H124.723C123.232 206.213 122.018 205 122.018 203.508V195.012C122.018 193.52 123.232 192.307 124.723 192.307H133.233C134.725 192.307 135.939 193.52 135.939 195.012Z" fill="#D6EEFF"/>
<path d="M210.75 196.732H140.896V201.789H210.75V196.732Z" fill="#D6EEFF"/>
<path d="M306.559 139.995H256.498C251.798 139.995 247.988 136.185 247.988 131.486V86.6928C247.988 81.9931 251.798 78.1831 256.498 78.1831H306.559C311.259 78.1831 315.069 81.9929 315.069 86.6928V131.486C315.069 136.185 311.259 139.995 306.559 139.995Z" fill="#FF5329"/>
<path d="M388.693 139.995H338.632C333.932 139.995 330.122 136.185 330.122 131.486V86.6928C330.122 81.9931 333.932 78.1831 338.632 78.1831H388.693C393.393 78.1831 397.203 81.9929 397.203 86.6928V131.486C397.203 136.185 393.393 139.995 388.693 139.995Z" fill="#32A8FD"/>
<path d="M472.556 374.142H256.498C251.798 374.142 247.988 370.332 247.988 365.632V316.662C247.988 311.962 251.798 308.152 256.498 308.152H472.556C477.256 308.152 481.066 311.962 481.066 316.662V365.632C481.066 370.332 477.256 374.142 472.556 374.142Z" fill="url(#paint0_linear_169_6359)"/>
<path d="M464.073 140.848C463.601 140.848 463.219 140.466 463.219 139.995C463.219 139.523 463.601 139.141 464.073 139.141H470.825C471.296 139.141 471.726 139.52 471.728 139.989C471.731 140.459 471.404 140.842 470.934 140.848C470.929 140.848 470.834 140.849 470.82 140.849H464.073V140.848ZM457.321 140.848H450.567C450.095 140.848 449.713 140.466 449.713 139.995C449.713 139.523 450.095 139.141 450.567 139.141H457.321C457.793 139.141 458.175 139.523 458.175 139.995C458.175 140.466 457.793 140.848 457.321 140.848ZM443.814 140.848H437.062C436.59 140.848 436.208 140.466 436.208 139.995C436.208 139.523 436.59 139.141 437.062 139.141H443.814C444.286 139.141 444.668 139.523 444.668 139.995C444.668 140.466 444.286 140.848 443.814 140.848ZM430.31 140.848H423.556C423.084 140.848 422.702 140.466 422.702 139.995C422.702 139.523 423.084 139.141 423.556 139.141H430.31C430.782 139.141 431.164 139.523 431.164 139.995C431.164 140.466 430.782 140.848 430.31 140.848ZM416.945 139.946C416.815 139.946 416.685 139.916 416.562 139.855C414.332 138.733 412.614 136.732 411.851 134.363C411.706 133.914 411.952 133.433 412.401 133.288C412.85 133.143 413.33 133.389 413.475 133.838C414.101 135.775 415.505 137.412 417.329 138.329C417.751 138.541 417.919 139.054 417.708 139.476C417.557 139.774 417.257 139.946 416.945 139.946ZM476.959 138.238C476.746 138.238 476.532 138.159 476.367 138C476.027 137.673 476.017 137.133 476.344 136.793C477.723 135.359 478.481 133.474 478.481 131.485V131.253C478.481 130.782 478.863 130.4 479.335 130.4C479.807 130.4 480.189 130.782 480.189 131.253V131.485C480.189 133.917 479.26 136.223 477.574 137.976C477.408 138.151 477.183 138.238 476.959 138.238ZM412.254 128.245C411.782 128.245 411.4 127.863 411.4 127.391V120.639C411.4 120.167 411.782 119.785 412.254 119.785C412.726 119.785 413.108 120.167 413.108 120.639V127.391C413.108 127.863 412.726 128.245 412.254 128.245ZM479.335 125.354C478.863 125.354 478.482 124.972 478.482 124.501V117.748C478.482 117.276 478.863 116.894 479.335 116.894C479.807 116.894 480.189 117.276 480.189 117.748V124.501C480.189 124.972 479.807 125.354 479.335 125.354ZM412.254 114.74C411.782 114.74 411.4 114.357 411.4 113.886V107.133C411.4 106.662 411.782 106.279 412.254 106.279C412.726 106.279 413.108 106.662 413.108 107.133V113.886C413.108 114.357 412.726 114.74 412.254 114.74ZM479.335 111.849C478.863 111.849 478.482 111.467 478.482 110.995V104.243C478.482 103.771 478.863 103.389 479.335 103.389C479.807 103.389 480.189 103.771 480.189 104.243V110.995C480.189 111.467 479.807 111.849 479.335 111.849ZM412.254 101.234C411.782 101.234 411.4 100.852 411.4 100.38V93.6277C411.4 93.1562 411.782 92.7739 412.254 92.7739C412.726 92.7739 413.108 93.1562 413.108 93.6277V100.38C413.108 100.852 412.726 101.234 412.254 101.234ZM479.335 98.3438C478.863 98.3438 478.482 97.9615 478.482 97.49V90.7373C478.482 90.2658 478.863 89.8835 479.335 89.8835C479.807 89.8835 480.189 90.2658 480.189 90.7373V97.49C480.189 97.9615 479.807 98.3438 479.335 98.3438ZM412.254 87.729C411.782 87.729 411.4 87.3467 411.4 86.8752V86.6924C411.4 84.24 412.343 81.921 414.052 80.1626C414.381 79.824 414.921 79.8181 415.259 80.1457C415.598 80.4745 415.605 81.0151 415.276 81.3533C413.879 82.791 413.108 84.6871 413.108 86.6924V86.8752C413.108 87.3467 412.726 87.729 412.254 87.729ZM478.91 84.8846C478.552 84.8846 478.218 84.6568 478.1 84.2973C477.463 82.3643 476.05 80.7358 474.221 79.8289C473.797 79.6195 473.625 79.1073 473.834 78.6847C474.046 78.2612 474.559 78.0912 474.978 78.2988C477.214 79.4074 478.943 81.3992 479.721 83.7638C479.869 84.2117 479.626 84.6944 479.177 84.8417C479.089 84.8707 478.998 84.8846 478.91 84.8846ZM467.984 79.0369H461.232C460.76 79.0369 460.378 78.6547 460.378 78.1831C460.378 77.7116 460.76 77.3293 461.232 77.3293H467.984C468.456 77.3293 468.838 77.7116 468.838 78.1831C468.838 78.6547 468.456 79.0369 467.984 79.0369ZM454.477 79.0369H447.725C447.253 79.0369 446.871 78.6547 446.871 78.1831C446.871 77.7116 447.253 77.3293 447.725 77.3293H454.477C454.949 77.3293 455.331 77.7116 455.331 78.1831C455.331 78.6547 454.949 79.0369 454.477 79.0369ZM440.973 79.0369H434.22C433.748 79.0369 433.367 78.6547 433.367 78.1831C433.367 77.7116 433.748 77.3293 434.22 77.3293H440.973C441.445 77.3293 441.826 77.7116 441.826 78.1831C441.826 78.6547 441.445 79.0369 440.973 79.0369ZM427.468 79.0369H420.764C420.292 79.0369 419.885 78.6547 419.885 78.1831C419.885 77.7116 420.242 77.3293 420.714 77.3293H427.468C427.94 77.3293 428.322 77.7116 428.322 78.1831C428.322 78.6547 427.94 79.0369 427.468 79.0369Z" fill="#7F5ACC"/>
<path d="M367.324 122.181H339.721L353.518 105.164L359.29 112.279L367.324 122.181Z" fill="white"/>
<path d="M387.6 122.182H352.829L370.212 100.748L387.6 122.182Z" fill="white"/>
<path d="M361.835 99.2999C361.835 101.127 360.35 102.611 358.524 102.611C356.697 102.611 355.212 101.127 355.212 99.2999C355.212 97.4728 356.697 95.9966 358.524 95.9966C360.35 95.9966 361.835 97.4726 361.835 99.2999Z" fill="white"/>
<path d="M292.111 111.434L276.476 120.904C274.663 122.005 272.325 120.7 272.325 118.566L272.292 99.6275C272.292 97.4935 274.629 96.1716 276.459 97.2727L292.111 106.743C293.873 107.81 293.873 110.367 292.111 111.434Z" fill="white"/>
<path d="M479.341 177.204V280.03C479.341 287.122 473.573 292.873 466.481 292.873H260.829C253.739 292.873 247.987 287.122 247.987 280.03V177.204C247.987 170.113 253.739 164.362 260.829 164.362H466.481C473.573 164.362 479.341 170.113 479.341 177.204Z" fill="url(#paint1_linear_169_6359)" fill-opacity="0.22"/>
<path d="M427.355 216.668C428.307 216.668 429.069 217.429 429.069 218.381C429.069 219.317 428.307 220.078 427.355 220.078H412.207C411.271 220.078 410.51 219.317 410.51 218.381C410.51 217.429 411.271 216.668 412.207 216.668H427.355Z" fill="white"/>
<path d="M424.768 232.166C424.768 233.118 424.007 233.879 423.071 233.879H354.827C353.891 233.879 353.13 233.118 353.13 232.166C353.13 231.229 353.891 230.469 354.827 230.469H423.071C424.007 230.469 424.768 231.229 424.768 232.166Z" fill="white"/>
<path d="M287.872 220.079C286.92 220.079 286.159 219.317 286.159 218.382C286.159 217.43 286.92 216.668 287.872 216.668H313.347C314.283 216.668 315.06 217.43 315.06 218.382C315.06 219.317 314.283 220.079 313.347 220.079H287.872Z" fill="white"/>
<path d="M339.791 232.166C339.791 233.118 339.029 233.879 338.078 233.879H314.744C313.808 233.879 313.047 233.118 313.047 232.166C313.047 231.23 313.808 230.469 314.744 230.469H338.078C339.029 230.469 339.791 231.23 339.791 232.166Z" fill="white"/>
<path d="M397.2 220.078H329.195C328.259 220.078 327.498 219.317 327.498 218.381C327.498 217.429 328.259 216.668 329.195 216.668H397.2C398.136 216.668 398.898 217.429 398.898 218.381C398.898 219.317 398.136 220.078 397.2 220.078Z" fill="white"/>
<path d="M325.784 261.464H289.475C288.523 261.464 287.762 260.702 287.762 259.751C287.762 258.815 288.523 258.053 289.475 258.053H325.784C326.72 258.053 327.497 258.815 327.497 259.751C327.497 260.702 326.72 261.464 325.784 261.464Z" fill="white"/>
<path d="M286.159 204.185C286.159 203.249 286.92 202.471 287.872 202.471H325.783C326.719 202.471 327.496 203.249 327.496 204.185C327.496 205.12 326.719 205.883 325.783 205.883H287.872C286.92 205.882 286.159 205.12 286.159 204.185Z" fill="white"/>
<path d="M411.239 247.664H308.542C307.591 247.664 306.829 246.902 306.829 245.966C306.829 245.015 307.591 244.252 308.542 244.252H411.239C412.191 244.252 412.952 245.015 412.952 245.966C412.952 246.902 412.191 247.664 411.239 247.664Z" fill="white"/>
<path d="M406.321 258.053C407.257 258.053 408.018 258.814 408.018 259.751C408.018 260.702 407.257 261.463 406.321 261.463H338.997C338.061 261.463 337.284 260.702 337.284 259.751C337.284 258.814 338.062 258.053 338.997 258.053H406.321Z" fill="white"/>
<path d="M414.839 273.551C414.839 274.487 414.078 275.248 413.126 275.248H314.744C313.808 275.248 313.047 274.487 313.047 273.551C313.047 272.599 313.808 271.838 314.744 271.838H413.126C414.078 271.838 414.839 272.599 414.839 273.551Z" fill="white"/>
<path d="M412.079 189.988C412.079 189.052 412.84 188.291 413.776 188.291H434.905C435.841 188.291 436.602 189.052 436.602 189.988C436.602 190.924 435.841 191.701 434.905 191.701H413.776C412.84 191.701 412.079 190.924 412.079 189.988Z" fill="white"/>
<path d="M293.917 189.988C293.917 189.052 294.694 188.291 295.63 188.291H334.477C335.429 188.291 336.19 189.052 336.19 189.988C336.19 190.924 335.429 191.701 334.477 191.701H295.63C294.694 191.701 293.917 190.924 293.917 189.988Z" fill="white"/>
<path d="M342.853 204.185C342.853 203.249 343.614 202.471 344.566 202.471H439.188C440.14 202.471 440.902 203.249 440.902 204.185C440.902 205.12 440.14 205.883 439.188 205.883H344.566C343.614 205.882 342.853 205.12 342.853 204.185Z" fill="white"/>
<path d="M466.931 245.966C466.931 246.902 466.169 247.664 465.233 247.664H427.338C426.386 247.664 425.625 246.902 425.625 245.966C425.625 245.015 426.386 244.252 427.338 244.252H465.233C466.169 244.252 466.931 245.015 466.931 245.966Z" fill="white"/>
<path d="M346.786 189.988C346.786 189.052 347.548 188.291 348.483 188.291H397.978C398.93 188.291 399.691 189.052 399.691 189.988C399.691 190.924 398.93 191.701 397.978 191.701H348.483C347.548 191.701 346.786 190.924 346.786 189.988Z" fill="white"/>
<path d="M270.168 193.787C272.265 193.787 273.966 192.086 273.966 189.989C273.966 187.891 272.265 186.191 270.168 186.191C268.07 186.191 266.37 187.891 266.37 189.989C266.37 192.086 268.07 193.787 270.168 193.787Z" fill="white"/>
<path d="M270.168 207.981C272.265 207.981 273.966 206.28 273.966 204.183C273.966 202.085 272.265 200.385 270.168 200.385C268.07 200.385 266.37 202.085 266.37 204.183C266.37 206.28 268.07 207.981 270.168 207.981Z" fill="white"/>
<path d="M270.168 222.175C272.265 222.175 273.966 220.474 273.966 218.377C273.966 216.279 272.265 214.579 270.168 214.579C268.07 214.579 266.37 216.279 266.37 218.377C266.37 220.474 268.07 222.175 270.168 222.175Z" fill="white"/>
<path d="M270.168 236.369C272.265 236.369 273.966 234.668 273.966 232.571C273.966 230.473 272.265 228.773 270.168 228.773C268.07 228.773 266.37 230.473 266.37 232.571C266.37 234.668 268.07 236.369 270.168 236.369Z" fill="white"/>
<path d="M273.932 247.373C274.268 245.303 272.862 243.352 270.792 243.016C268.721 242.68 266.771 244.086 266.435 246.156C266.099 248.227 267.505 250.178 269.575 250.514C271.645 250.85 273.596 249.444 273.932 247.373Z" fill="white"/>
<path d="M271.64 264.467C273.578 263.664 274.498 261.443 273.696 259.505C272.893 257.567 270.671 256.647 268.733 257.449C266.796 258.252 265.875 260.474 266.678 262.412C267.481 264.35 269.702 265.27 271.64 264.467Z" fill="white"/>
<path d="M270.168 278.951C272.265 278.951 273.966 277.251 273.966 275.153C273.966 273.056 272.265 271.355 270.168 271.355C268.07 271.355 266.37 273.056 266.37 275.153C266.37 277.251 268.07 278.951 270.168 278.951Z" fill="white"/>
<g opacity="0.03">
<path d="M232.083 288.105V350.201C232.083 354.811 228.345 358.567 223.718 358.567H84.0869V279.74H223.718C228.345 279.74 232.083 283.479 232.083 288.105Z" fill="#111228"/>
</g>
<path d="M227.556 283.042V345.138C227.556 349.748 223.818 353.504 219.191 353.504H48.6966C44.0695 353.504 40.3311 349.749 40.3311 345.138V283.042C40.3311 278.416 44.0695 274.677 48.6966 274.677H219.191C223.818 274.677 227.556 278.416 227.556 283.042Z" fill="url(#paint2_linear_169_6359)"/>
<path d="M100.415 316.203V308.474H94.7828C94.2462 305.708 93.1734 303.127 91.6476 300.88L95.6209 296.907L90.1222 291.425L86.1655 295.382C83.9193 293.856 81.3543 292.767 78.5712 292.23V286.631H70.8261V292.23C68.06 292.767 65.4782 293.856 63.2318 295.382L59.2754 291.425L53.7933 296.907L57.7664 300.88C56.241 303.127 55.1512 305.708 54.6315 308.474H48.9985V316.203H54.6148C55.151 318.969 56.2242 321.534 57.7496 323.797L53.7931 327.771L59.2752 333.235L63.2316 329.296C65.4782 330.821 68.0598 331.912 70.8259 332.431V338.031H78.571V332.431C81.354 331.912 83.9191 330.821 86.182 329.296L90.1217 333.235L95.6205 327.771L91.6472 323.797C93.173 321.534 94.2624 318.969 94.7823 316.203H100.415ZM74.6967 324.854C67.7883 324.854 62.1936 319.238 62.1936 312.351C62.1936 305.443 67.7883 299.806 74.6967 299.806C81.6263 299.806 87.2206 305.443 87.2206 312.351C87.2206 319.238 81.6265 324.854 74.6967 324.854Z" fill="white"/>
<path d="M167.063 297.545H109.872V307.867H167.063V297.545Z" fill="white"/>
<path d="M218.381 314.875H109.872V319.159H218.381V314.875Z" fill="white"/>
<path d="M159.373 326.341H109.872V330.625H159.373V326.341Z" fill="white"/>
<path d="M198.02 326.341H169.751V330.625H198.02V326.341Z" fill="white"/>
<path d="M284.994 332.585C284.292 331.88 283.321 331.615 282.173 332.051L265.25 339.645C264.037 340.215 263.243 341.274 263.243 342.606V342.945C263.243 344.288 264.043 345.341 265.263 345.914L282.174 353.5L282.221 353.52C283.171 353.877 284.25 353.713 284.993 352.97C286.296 351.671 285.79 349.501 284.086 348.792L270.553 342.777L284.068 336.769C285.867 336.018 286.246 333.833 284.994 332.585Z" fill="white"/>
<path d="M299.777 323.858L288.543 356.707C287.916 358.598 289.229 360.184 290.95 360.184C292.213 360.184 293.078 359.387 293.394 358.431L304.626 325.582C304.99 324.505 304.728 323.552 304.078 322.871C302.866 321.604 300.424 321.899 299.777 323.858Z" fill="white"/>
<path d="M327.867 339.638L310.945 332.047C310.075 331.672 308.866 331.852 308.136 332.584C306.84 333.88 307.333 336.047 309.045 336.762L322.578 342.777L309.063 348.783C307.274 349.531 306.876 351.709 308.136 352.967C308.94 353.774 310.121 353.859 310.957 353.5L327.88 345.908C329.097 345.336 329.887 344.275 329.887 342.946V342.607C329.887 341.269 329.095 340.219 327.867 339.638Z" fill="white"/>
<path d="M463.56 320.857H343.981V324.829H463.56V320.857Z" fill="white"/>
<path d="M404.53 330.009H389.238V333.982H404.53V330.009Z" fill="white"/>
<path d="M382.706 330.009H343.981V333.982H382.706V330.009Z" fill="white"/>
<path d="M433.041 330.009H409.785V333.982H433.041V330.009Z" fill="white"/>
<path d="M463.561 330.009H438.457V333.982H463.561V330.009Z" fill="white"/>
<path d="M366.14 339.161H343.981V343.134H366.14V339.161Z" fill="white"/>
<path d="M412.653 339.161H374.265V343.134H412.653V339.161Z" fill="white"/>
<path d="M450.403 339.161H418.864V343.134H450.403V339.161Z" fill="white"/>
<path d="M391.626 348.313H343.981V352.286H391.626V348.313Z" fill="white"/>
<path d="M430.173 348.313H398.794V352.286H430.173V348.313Z" fill="white"/>
<path d="M463.562 348.313H440.05V352.286H463.562V348.313Z" fill="white"/>
<path d="M365.184 357.465H343.981V361.438H365.184V357.465Z" fill="white"/>
<path d="M396.564 357.465H373.627V361.438H396.564V357.465Z" fill="white"/>
<path d="M415.998 357.465H403.255V361.438H415.998V357.465Z" fill="white"/>
<path d="M58.9977 157.524L60.4513 166.55C60.6202 167.732 59.6062 168.781 58.423 168.578L47.8766 166.887C41.826 170.369 34.795 172.363 27.3243 172.363C4.54133 172.363 -13.9487 153.907 -13.9487 131.124C-13.9487 108.34 4.54133 89.8506 27.3243 89.8506C50.1073 89.8506 68.5639 108.341 68.5639 131.124C68.5639 141.163 64.947 150.391 58.9977 157.524Z" fill="#7F5ACC"/>
<path d="M27.3045 157.015C13.0197 157.015 1.39746 145.392 1.39746 131.107C1.39746 116.821 13.02 105.198 27.3045 105.198C41.5904 105.198 53.2127 116.821 53.2127 131.107C53.2127 145.392 41.5904 157.015 27.3045 157.015ZM27.3045 107.678C14.3868 107.678 3.87689 118.188 3.87689 131.107C3.87689 144.025 14.3868 154.535 27.3045 154.535C40.2234 154.535 50.7333 144.025 50.7333 131.107C50.7333 118.188 40.2234 107.678 27.3045 107.678Z" fill="white"/>
<path d="M27.3097 120.37C20.8956 120.37 14.7321 118.007 9.95605 113.718L11.6122 111.873C15.933 115.753 21.5082 117.89 27.3097 117.89C33.11 117.89 38.6851 115.753 43.0072 111.873L44.6633 113.718C39.886 118.007 33.7226 120.37 27.3097 120.37Z" fill="white"/>
<path d="M11.6264 150.351L9.96777 148.508C14.739 144.21 20.899 141.842 27.3106 141.842C33.7223 141.842 39.8823 144.21 44.6523 148.508L42.9937 150.35C38.6788 146.463 33.1087 144.322 27.3106 144.322C21.5128 144.322 15.9425 146.463 11.6264 150.351Z" fill="white"/>
<path d="M27.3048 157.015C18.9755 157.015 12.4512 145.634 12.4512 131.107C12.4512 116.579 18.9755 105.198 27.3048 105.198C35.6341 105.198 42.1597 116.579 42.1597 131.107C42.1597 145.634 35.6341 157.015 27.3048 157.015ZM27.3048 107.678C20.5977 107.678 14.9306 118.407 14.9306 131.107C14.9306 143.806 20.5977 154.535 27.3048 154.535C34.0132 154.535 39.6803 143.806 39.6803 131.107C39.6803 118.407 34.0132 107.678 27.3048 107.678Z" fill="white"/>
<path d="M28.5449 106.438H26.0654V155.775H28.5449V106.438Z" fill="white"/>
<path d="M51.9745 129.867H2.63867V132.347H51.9745V129.867Z" fill="white"/>
<path d="M603.311 73.1599C603.694 82.1563 600.16 90.3311 594.296 96.1379C590.246 100.149 587.305 104.733 585.872 109.91H559.934C558.577 104.848 555.846 100.302 551.835 96.4624C546.047 90.9234 542.456 83.1309 542.456 74.4777C542.456 56.9044 557.355 42.8082 575.214 44.126C590.495 45.2724 602.662 57.8595 603.311 73.1599Z" fill="#FF7C5C"/>
<path d="M581.344 78.3821C581.286 78.374 581.227 78.3744 581.171 78.3758C581.113 78.3748 581.054 78.3748 580.997 78.3821C578.761 78.5098 576.98 80.3695 576.98 82.6379V85.4243H573.834H571.95H568.804V82.6379C568.804 80.3695 567.023 78.5098 564.787 78.3821C564.729 78.374 564.67 78.3744 564.613 78.3758C564.556 78.3748 564.497 78.3748 564.44 78.3821C562.204 78.5098 560.423 80.3695 560.423 82.6379C560.423 84.9878 562.334 86.8997 564.685 86.8997H567.328V110.998C567.328 111.405 567.659 111.736 568.066 111.736C568.473 111.736 568.803 111.405 568.803 110.998V86.8997H571.949H573.834H576.98V110.998C576.98 111.405 577.31 111.736 577.717 111.736C578.125 111.736 578.455 111.405 578.455 110.998V86.8997H581.098C583.449 86.8997 585.36 84.9878 585.36 82.6379C585.361 80.3695 583.58 78.5098 581.344 78.3821ZM567.329 85.4243H564.685C563.149 85.4243 561.899 84.1743 561.899 82.6379C561.899 81.1251 563.11 79.8898 564.613 79.8518C566.117 79.8898 567.329 81.1251 567.329 82.6379V85.4243ZM581.099 85.4243H578.456V82.6379C578.456 81.1251 579.667 79.8898 581.171 79.8518C582.674 79.8898 583.886 81.1251 583.886 82.6379C583.886 84.1743 582.636 85.4243 581.099 85.4243Z" fill="white"/>
<path d="M587.29 111.398V117.868C587.29 118.686 586.62 119.356 585.802 119.356H559.981C559.163 119.356 558.504 118.686 558.504 117.868V111.398C558.504 110.58 559.163 109.91 559.981 109.91H585.802C586.62 109.91 587.29 110.58 587.29 111.398Z" fill="#373A50"/>
<path d="M581.722 119.356V122.907C581.722 123.534 581.222 124.033 580.596 124.033H565.185C564.567 124.033 564.059 123.534 564.059 122.907V119.356H581.722Z" fill="#373A50"/>
<path d="M572.642 37.7063C571.932 37.7063 571.356 37.1302 571.356 36.42V30.2313C571.356 29.5209 571.932 28.9451 572.642 28.9451C573.353 28.9451 573.928 29.5211 573.928 30.2313V36.42C573.928 37.1302 573.353 37.7063 572.642 37.7063Z" fill="#FF7C5C"/>
<path d="M557.463 42.0445C557.019 42.0445 556.587 41.8137 556.348 41.4009L553.253 36.0411C552.898 35.4258 553.109 34.6391 553.724 34.2839C554.338 33.9274 555.126 34.1397 555.482 34.7546L558.576 40.1144C558.931 40.7297 558.72 41.5164 558.105 41.8717C557.903 41.989 557.681 42.0445 557.463 42.0445Z" fill="#FF7C5C"/>
<path d="M546.482 53.3915C546.264 53.3915 546.043 53.336 545.84 53.2189L540.481 50.1246C539.865 49.7693 539.655 48.9826 540.01 48.3676C540.365 47.7527 541.15 47.54 541.767 47.8969L547.127 50.9912C547.742 51.3464 547.953 52.1331 547.598 52.7484C547.359 53.1607 546.927 53.3915 546.482 53.3915Z" fill="#FF7C5C"/>
<path d="M599.304 52.5194C598.859 52.5194 598.427 52.2886 598.188 51.8759C597.834 51.2606 598.044 50.4739 598.66 50.1189L604.019 47.0245C604.633 46.6677 605.42 46.8804 605.777 47.4953C606.131 48.1106 605.921 48.8972 605.306 49.2523L599.946 52.3466C599.744 52.4639 599.522 52.5194 599.304 52.5194Z" fill="#FF7C5C"/>
<path d="M587.955 41.5422C587.737 41.5422 587.516 41.4867 587.313 41.3696C586.698 41.0144 586.487 40.2277 586.842 39.6124L589.936 34.2527C590.291 33.6374 591.076 33.4256 591.693 33.782C592.308 34.1372 592.519 34.9239 592.164 35.539L589.07 40.8987C588.831 41.3112 588.399 41.5422 587.955 41.5422Z" fill="#FF7C5C"/>
<defs>
<linearGradient id="paint0_linear_169_6359" x1="364.527" y1="308.153" x2="364.527" y2="374.142" gradientUnits="userSpaceOnUse">
<stop stop-color="#D7EEFF"/>
<stop offset="1" stop-color="#B6E1FF"/>
</linearGradient>
<linearGradient id="paint1_linear_169_6359" x1="363.037" y1="182.691" x2="364.84" y2="314.747" gradientUnits="userSpaceOnUse">
<stop stop-color="#A37EF0"/>
<stop offset="1" stop-color="#7F5ACC"/>
</linearGradient>
<linearGradient id="paint2_linear_169_6359" x1="79.7036" y1="247.147" x2="188.185" y2="381.028" gradientUnits="userSpaceOnUse">
<stop stop-color="#35ABFF"/>
<stop offset="1" stop-color="#269EF4"/>
</linearGradient>
</defs>
</svg>
