<svg width="600" height="309" viewBox="0 0 600 309" fill="none" xmlns="http://www.w3.org/2000/svg">
<g clip-path="url(#clip0_48_11892)">
<g opacity="0.46">
<path d="M86.949 282.846C77.2589 287.386 64.3388 282.672 59.8866 272.894C58.3152 269.577 57.7041 265.91 56.3074 262.593C52.7281 254.3 44.6967 248.974 37.5383 243.475C24.4436 233.435 12.3964 220.515 8.3807 204.452C7.50772 200.96 7.07123 197.294 8.11881 193.889C9.95207 188.215 15.9756 184.636 21.9119 184.199C27.8482 183.763 33.6972 185.945 38.935 188.739C52.4663 195.984 63.3785 207.595 71.7591 220.428C80.227 233.261 86.4252 247.403 92.6234 261.545" fill="#4475AB"/>
<path d="M87.822 218.245C76.2114 207.246 66.6959 193.977 60.1485 179.398C57.8788 174.422 56.0455 168.747 58.1407 163.684C58.6645 162.549 59.3628 161.414 60.3231 160.629C61.8945 159.319 64.0769 158.97 66.0848 159.232C72.9813 160.018 77.6082 166.565 81.0128 172.676C87.7347 185.072 93.1472 198.429 95.2424 212.309" fill="#4475AB"/>
<path d="M512.615 282.846C522.305 287.386 535.225 282.672 539.677 272.894C541.249 269.577 541.86 265.91 543.256 262.593C546.836 254.3 554.867 248.974 562.026 243.475C575.12 233.435 587.167 220.515 591.183 204.452C592.056 200.96 592.493 197.294 591.445 193.889C589.612 188.215 583.588 184.636 577.652 184.199C571.716 183.763 565.867 185.945 560.629 188.739C547.098 195.984 536.185 207.595 527.805 220.428C519.337 233.261 513.139 247.403 506.94 261.545" fill="#4475AB"/>
<path d="M511.742 218.245C523.352 207.246 532.868 193.977 539.415 179.398C541.685 174.422 543.518 168.747 541.423 163.684C540.899 162.549 540.201 161.414 539.241 160.629C537.669 159.319 535.487 158.97 533.479 159.232C526.582 160.018 521.956 166.565 518.551 172.676C511.829 185.072 506.416 198.429 504.321 212.309" fill="#4475AB"/>
<path d="M18.0709 146.661C24.9675 148.058 31.0783 152.248 35.2687 157.835C35.967 158.796 44.8714 175.382 41.1176 174.684C28.8086 172.502 17.5471 159.232 18.0709 146.661Z" fill="#4475AB"/>
<path d="M576.604 147.01C575.819 153.994 572.065 160.454 566.914 165.081C566.041 165.867 550.24 176.168 550.589 172.327C551.724 159.843 563.946 147.534 576.604 147.01Z" fill="#4475AB"/>
<path d="M48.887 158.272C46.0062 153.034 48.2759 145.701 53.5138 142.994C55.7836 148.407 53.7757 155.216 48.9743 158.534" fill="#4475AB"/>
<path d="M550.327 151.637C545.875 147.709 545.526 140.026 549.541 135.662C553.47 139.939 553.906 147.098 550.502 151.812" fill="#4475AB"/>
</g>
<path d="M86.7742 10.9124C86.7742 12.7456 85.2902 14.317 83.3696 14.317C81.5363 14.317 79.965 12.8329 79.965 10.9124C79.965 9.0791 81.449 7.50774 83.3696 7.50774C85.2029 7.59503 86.7742 9.0791 86.7742 10.9124Z" stroke="#F9FAFE" stroke-width="1.16945" stroke-miterlimit="10"/>
<path d="M567.35 272.196C567.35 274.029 565.866 275.6 563.946 275.6C562.112 275.6 560.541 274.116 560.541 272.196C560.541 270.362 562.025 268.791 563.946 268.791C565.866 268.791 567.35 270.362 567.35 272.196Z" stroke="#F9FAFE" stroke-width="1.16945" stroke-miterlimit="10"/>
<path d="M559.493 3.92845C559.493 5.76171 558.009 7.33308 556.089 7.33308C554.168 7.33308 552.684 5.84901 552.684 3.92845C552.684 2.09519 554.168 0.523823 556.089 0.523823C558.009 0.523823 559.493 2.09519 559.493 3.92845Z" stroke="#F9FAFE" stroke-width="1.16945" stroke-miterlimit="10"/>
<path d="M37.9748 75.9495C37.9748 77.7828 36.4907 79.3541 34.5702 79.3541C32.6496 79.3541 31.1655 77.8701 31.1655 75.9495C31.1655 74.1163 32.6496 72.5449 34.5702 72.5449C36.4907 72.5449 37.9748 74.1163 37.9748 75.9495Z" fill="#4475AB"/>
<path d="M329.551 6.28559C329.551 8.11885 328.067 9.69022 326.146 9.69022C324.225 9.69022 322.741 8.20615 322.741 6.28559C322.741 4.45233 324.225 2.88097 326.146 2.88097C328.067 2.88097 329.551 4.45233 329.551 6.28559Z" fill="#1B314F"/>
<path d="M57.7039 124.749C57.7039 126.582 56.2198 128.154 54.2993 128.154C52.3787 128.154 50.8947 126.67 50.8947 124.749C50.8947 122.916 52.3787 121.344 54.2993 121.344C56.2198 121.344 57.7039 122.829 57.7039 124.749Z" fill="#1B314F"/>
<path d="M519.86 125.884C519.86 127.717 518.376 129.289 516.455 129.289C514.622 129.289 513.051 127.805 513.051 125.884C513.051 124.051 514.535 122.479 516.455 122.479C518.376 122.479 519.86 124.051 519.86 125.884Z" fill="#1B314F"/>
<path d="M526.932 52.7282C526.932 54.5615 525.448 56.1328 523.527 56.1328C521.694 56.1328 520.122 54.6488 520.122 52.7282C520.122 50.895 521.606 49.3236 523.527 49.3236C525.448 49.3236 526.932 50.895 526.932 52.7282Z" fill="#4475AB"/>
<path d="M6.72208 279.18C6.72208 281.013 5.23801 282.584 3.31745 282.584C1.39689 282.584 0.00012207 281.013 0.00012207 279.18C0.00012207 277.346 1.48419 275.775 3.40475 275.775C5.32531 275.775 6.72208 277.259 6.72208 279.18Z" fill="#4475AB"/>
<path d="M28.7214 12.5711H12.5713V14.6663H28.7214V12.5711Z" fill="white"/>
<path d="M49.3238 18.2454H12.5713V20.3405H49.3238V18.2454Z" fill="white"/>
<path d="M57.2677 4.80153H6.54749V31.1656H57.2677V4.80153Z" stroke="white" stroke-width="0.872981" stroke-miterlimit="10"/>
<path d="M571.017 71.8465H554.867V73.9417H571.017V71.8465Z" fill="white"/>
<path d="M591.619 77.4336H554.867V79.5287H591.619V77.4336Z" fill="white"/>
<path d="M599.564 64.077H548.844V90.441H599.564V64.077Z" stroke="white" stroke-width="0.872981" stroke-miterlimit="10"/>
<path d="M567.002 110.782H586.207C588.477 110.782 590.223 108.948 590.223 106.766C590.223 104.496 588.39 102.75 586.207 102.75H567.002C564.732 102.75 562.986 104.583 562.986 106.766C562.899 108.948 564.732 110.782 567.002 110.782Z" fill="#4475AB"/>
<path d="M581.58 115.234H578.001V118.813H581.58V115.234Z" fill="white"/>
<path d="M587.254 115.234H583.675V118.813H587.254V115.234Z" fill="white"/>
<path d="M587.254 120.559H583.675V124.138H587.254V120.559Z" fill="white"/>
<path d="M478.656 298.734H99.9565C87.211 298.734 76.8225 288.346 76.8225 275.6V57.0931C76.8225 44.3476 87.211 33.9591 99.9565 33.9591H478.656C491.401 33.9591 501.79 44.3476 501.79 57.0931V275.513C501.79 288.346 491.489 298.734 478.656 298.734Z" fill="#A3B0CF"/>
<path d="M489.132 298.734H110.432C97.6868 298.734 87.2983 288.346 87.2983 275.6V57.0931C87.2983 44.3476 97.6868 33.9591 110.432 33.9591H489.132C501.877 33.9591 512.266 44.3476 512.266 57.0931V275.513C512.266 288.346 501.877 298.734 489.132 298.734Z" fill="white"/>
<path d="M215.627 58.4901C215.627 55.6965 213.357 53.4268 210.564 53.4268C207.77 53.4268 205.5 55.6965 205.5 58.4901C205.5 61.2836 207.77 63.5534 210.564 63.5534C213.357 63.5534 215.627 61.2836 215.627 58.4901Z" fill="#1B314F"/>
<path d="M210.389 58.7518C224.269 58.7518 235.531 47.4903 235.531 33.6099C235.531 19.7295 224.269 8.38076 210.389 8.38076C196.508 8.38076 185.247 19.6422 185.247 33.5226" stroke="#4475AB" stroke-width="1.74596" stroke-miterlimit="10"/>
<path d="M305.021 58.49C305.021 55.6964 302.751 53.4267 299.957 53.4267C297.164 53.4267 294.894 55.6964 294.894 58.49C294.894 61.2835 297.164 63.5533 299.957 63.5533C302.751 63.5533 305.021 61.2835 305.021 58.49Z" fill="#1B314F"/>
<path d="M299.782 58.7517C313.663 58.7517 324.924 47.4902 324.924 33.6098C324.924 19.7294 313.663 8.38066 299.782 8.38066C285.902 8.38066 274.641 19.6421 274.641 33.5225" stroke="#4475AB" stroke-width="1.74596" stroke-miterlimit="10"/>
<path d="M394.501 58.4899C394.501 55.6964 392.231 53.4266 389.438 53.4266C386.644 53.4266 384.374 55.6964 384.374 58.4899C384.374 61.2834 386.644 63.5532 389.438 63.5532C392.231 63.5532 394.501 61.2834 394.501 58.4899Z" fill="#1B314F"/>
<path d="M389.175 58.7518C403.056 58.7518 414.317 47.4903 414.317 33.6099C414.317 19.7295 403.056 8.38076 389.175 8.38076C375.295 8.38076 364.033 19.6422 364.033 33.5226" stroke="#4475AB" stroke-width="1.74596" stroke-miterlimit="10"/>
<path d="M247.403 94.5442H144.042C140.55 94.5442 137.67 91.6633 137.67 88.1714C137.67 84.6795 140.55 81.7986 144.042 81.7986H247.403C250.895 81.7986 253.776 84.6795 253.776 88.1714C253.776 91.6633 250.895 94.5442 247.403 94.5442Z" fill="#FFB264"/>
<path d="M287.997 94.5442H268.268C264.776 94.5442 261.895 91.6633 261.895 88.1714C261.895 84.6795 264.776 81.7986 268.268 81.7986H287.997C291.489 81.7986 294.37 84.6795 294.37 88.1714C294.37 91.6633 291.576 94.5442 287.997 94.5442Z" fill="#E37059"/>
<path d="M247.403 100.306H137.67V102.663H247.403V100.306Z" fill="#A3B0CF"/>
<g opacity="0.54">
<path d="M462.855 110.781H136.273V271.759H462.855V110.781Z" stroke="#BFC8DE" stroke-width="0.856482" stroke-miterlimit="10"/>
<path d="M136.36 150.852H463.291" stroke="#BFC8DE" stroke-width="0.856395" stroke-miterlimit="10"/>
<path d="M182.541 110.17V271.585" stroke="#BFC8DE" stroke-width="0.872981" stroke-miterlimit="10"/>
<path d="M229.594 110.17V271.585" stroke="#BFC8DE" stroke-width="0.872981" stroke-miterlimit="10"/>
<path d="M276.648 110.17V271.585" stroke="#BFC8DE" stroke-width="0.872981" stroke-miterlimit="10"/>
<path d="M323.614 110.17V271.585" stroke="#BFC8DE" stroke-width="0.872981" stroke-miterlimit="10"/>
<path d="M370.668 110.17V271.585" stroke="#BFC8DE" stroke-width="0.872981" stroke-miterlimit="10"/>
<path d="M417.722 110.17V271.585" stroke="#BFC8DE" stroke-width="0.872981" stroke-miterlimit="10"/>
<path d="M136.36 190.921H463.291" stroke="#BFC8DE" stroke-width="0.856395" stroke-miterlimit="10"/>
<path d="M136.36 230.991H463.291" stroke="#BFC8DE" stroke-width="0.856395" stroke-miterlimit="10"/>
</g>
<g opacity="0.88">
<path d="M245.222 171.89C245.309 167.874 248.539 164.644 252.555 164.644V158.097C244.872 158.097 238.587 164.295 238.587 172.065C238.674 171.803 241.904 171.803 245.222 171.89Z" fill="#FFB264"/>
<path d="M259.975 171.977C259.975 176.08 256.658 179.31 252.642 179.31V185.858C260.324 185.858 266.61 179.66 266.61 171.89H259.975V171.977Z" fill="#FFB264"/>
<path d="M245.221 171.977C245.221 171.89 245.221 171.89 245.221 171.803C241.904 171.803 238.674 171.803 238.674 171.977C238.674 179.659 244.872 185.945 252.642 185.945V179.397C248.539 179.397 245.221 176.08 245.221 171.977Z" fill="#1B314F"/>
<path d="M259.975 171.977H266.522C266.522 164.295 260.324 158.01 252.555 158.01V164.557C256.658 164.644 259.975 167.962 259.975 171.977Z" fill="#1B314F"/>
<path d="M252.642 167.7C250.285 167.7 248.364 169.62 248.364 171.89C250.459 171.89 252.642 171.977 252.642 171.977V167.7Z" fill="#1B314F"/>
<path d="M252.642 176.342C254.999 176.342 256.919 174.422 256.919 172.065H252.642V176.342Z" fill="#1B314F"/>
<path d="M248.277 171.89C248.277 171.977 248.277 171.977 248.277 171.89C248.277 174.334 250.198 176.255 252.555 176.255V171.977C252.642 171.977 250.372 171.977 248.277 171.89Z" fill="#1B314F"/>
</g>
<path d="M345.702 144.653C353.03 144.653 358.971 138.712 358.971 131.384C358.971 124.055 353.03 118.114 345.702 118.114C338.373 118.114 332.432 124.055 332.432 131.384C332.432 138.712 338.373 144.653 345.702 144.653Z" fill="#FFB264"/>
<path d="M347.29 130.61H350.869V127.031H347.29V130.61Z" fill="white"/>
<path d="M341.666 130.61H345.245V127.031H341.666V130.61Z" fill="white"/>
<path d="M341.666 135.992H345.245V132.413H341.666V135.992Z" fill="white"/>
<path d="M214.492 262.331H194.326C190.573 262.331 187.604 259.275 187.604 255.609V245.919C187.604 242.165 190.66 239.197 194.326 239.197H214.492C218.246 239.197 221.214 242.252 221.214 245.919V255.609C221.214 259.275 218.246 262.331 214.492 262.331Z" fill="#F5C679"/>
<path d="M201.747 249.411H195.898V250.196H201.747V249.411Z" fill="white"/>
<path d="M209.342 247.403H195.898V248.189H209.342V247.403Z" fill="white"/>
<path d="M218.071 129.987H191.969C190.834 129.987 189.961 129.114 189.961 127.979C189.961 126.844 190.834 125.971 191.969 125.971H218.071C219.206 125.971 220.079 126.844 220.079 127.979C220.079 129.026 219.206 129.987 218.071 129.987Z" fill="#E37059"/>
<path d="M198.866 138.629H191.882C190.747 138.629 189.874 137.756 189.874 136.621C189.874 135.487 190.747 134.614 191.882 134.614H198.866C200 134.614 200.873 135.487 200.873 136.621C200.961 137.756 200 138.629 198.866 138.629Z" fill="#A3B0CF"/>
<path d="M360.63 210.039H334.528C333.393 210.039 332.52 209.166 332.52 208.031C332.52 206.897 333.393 206.024 334.528 206.024H360.63C361.765 206.024 362.638 206.897 362.638 208.031C362.638 209.166 361.765 210.039 360.63 210.039Z" fill="#FFB264"/>
<path d="M341.424 218.769H334.44C333.305 218.769 332.432 217.896 332.432 216.761C332.432 215.626 333.305 214.753 334.44 214.753H341.424C342.559 214.753 343.432 215.626 343.432 216.761C343.432 217.896 342.559 218.769 341.424 218.769Z" fill="#A3B0CF"/>
<path d="M302.576 243.475L303.973 247.752C304.148 248.276 304.671 248.625 305.195 248.625H309.735C310.957 248.625 311.481 250.196 310.52 250.895L306.854 253.514C306.417 253.863 306.243 254.387 306.417 254.911L307.814 259.188C308.163 260.323 306.854 261.283 305.893 260.585L302.227 257.966C301.79 257.617 301.179 257.617 300.743 257.966L297.076 260.585C296.116 261.283 294.719 260.323 295.156 259.188L296.553 254.911C296.727 254.387 296.553 253.776 296.116 253.514L292.45 250.895C291.489 250.196 291.926 248.625 293.235 248.625H297.775C298.299 248.625 298.822 248.276 298.997 247.752L300.394 243.475C300.568 242.252 302.227 242.252 302.576 243.475Z" fill="#FFB264"/>
<path d="M398.084 264.329C405.589 262.545 410.227 255.015 408.443 247.51C406.658 240.004 399.128 235.367 391.623 237.151C384.118 238.935 379.48 246.466 381.264 253.971C383.049 261.476 390.579 266.114 398.084 264.329Z" fill="#D4603F"/>
<path d="M389.612 249.585L394.239 254.212L402.707 245.744" stroke="white" stroke-width="0.872981" stroke-miterlimit="10"/>
<path d="M155.042 205.413L167.264 217.634" stroke="#4475AB" stroke-width="4.36491" stroke-miterlimit="10" stroke-linecap="round"/>
<path d="M167.264 205.413L155.042 217.634" stroke="#4475AB" stroke-width="4.36491" stroke-miterlimit="10" stroke-linecap="round"/>
<path d="M438.412 127.019L450.633 139.241" stroke="#D4603F" stroke-width="4.36491" stroke-miterlimit="10" stroke-linecap="round"/>
<path d="M450.633 127.019L438.412 139.241" stroke="#D4603F" stroke-width="4.36491" stroke-miterlimit="10" stroke-linecap="round"/>
<path d="M119.686 94.7187C122.916 88.3459 119.336 85.9889 118.289 84.6794C115.757 81.2748 110.781 78.6558 107.376 78.9177C107.376 78.9177 102.837 77.4336 98.9959 81.1875C98.3848 81.7986 88.6074 88.6951 102.313 102.314" fill="#F5C679"/>
<path d="M102.837 93.4965C102.75 93.6711 102.488 93.8457 102.313 93.7584C101.44 93.4092 99.6943 92.6235 98.5594 94.806C98.0356 95.9409 98.4721 97.3376 99.3451 97.9487C100.043 98.3852 101.178 98.8217 101.789 98.7344C102.226 99.9566 101.44 108.337 100.829 109.036C96.7262 113.226 95.7659 113.139 95.7659 113.139C95.7659 113.139 110.519 135.487 110.868 116.456C110.868 116.456 112.44 105.456 112.527 105.456C113.924 105.718 118.987 105.718 119.773 95.7663C120.471 86.5127 114.098 84.854 112.527 84.5921C111.13 84.3302 106.504 82.8461 102.837 93.4965Z" fill="#D4603F"/>
<path d="M112.615 105.456L108.686 104.583L108.948 105.107C109.647 106.504 111.567 106.766 112.615 105.456Z" fill="#A32404"/>
<path d="M117.328 84.4175C118.289 86.3381 108.249 91.8378 106.503 92.5362C103.361 93.8457 101.44 93.8457 100.916 92.5362C100.916 92.6235 110.868 72.3704 117.328 84.4175Z" fill="#F5C679"/>
<path d="M111.815 75.5896C113.402 71.7588 111.583 67.3669 107.752 65.7801C103.921 64.1933 99.5292 66.0124 97.9424 69.8433C96.3556 73.6741 98.1747 78.0659 102.006 79.6527C105.836 81.2396 110.228 79.4204 111.815 75.5896Z" fill="#F5C679"/>
<path d="M102.226 96.2027C101.091 92.3616 99.4324 95.1552 99.4324 95.1552L102.226 96.2027Z" fill="#A32404"/>
<path d="M111.305 96.1157C112.439 96.5522 113.051 97.7744 112.701 98.9092C112.265 100.044 111.043 100.655 109.908 100.306C108.773 99.8695 108.162 98.6473 108.511 97.5125C108.86 96.2903 110.17 95.6792 111.305 96.1157Z" fill="#C73514"/>
<path d="M118.638 101.353C117.765 100.83 117.328 99.6947 117.678 98.7344C117.94 97.9487 118.9 97.5995 119.686 97.4249C119.598 97.4249 119.511 99.9566 118.638 101.353Z" fill="#C73514"/>
<path d="M112.876 93.06C112.353 93.2346 113.837 92.4489 114.448 92.5362C115.059 92.5362 115.67 92.7981 115.583 93.3219C115.583 93.3219 114.011 92.7108 112.876 93.06Z" fill="#1B314F"/>
<path d="M119.773 94.9805C120.122 95.417 119.773 94.2822 119.249 94.0203C118.726 93.6711 118.114 93.5838 117.853 94.0203C117.853 93.933 118.987 94.0203 119.773 94.9805Z" fill="#1B314F"/>
<path d="M114.273 96.552C114.098 97.0758 114.186 97.5123 114.447 97.5996C114.709 97.6869 114.971 97.3377 115.146 96.8139C115.32 96.2901 115.233 95.8537 114.971 95.7664C114.709 95.6791 114.447 96.0282 114.273 96.552Z" fill="#1B314F"/>
<path d="M117.416 97.2503C117.328 97.7741 117.328 98.2106 117.59 98.2106C117.852 98.2979 118.114 97.9487 118.289 97.4249C118.376 96.9011 118.376 96.4646 118.114 96.4646C117.852 96.3773 117.59 96.7265 117.416 97.2503Z" fill="#1B314F"/>
<path d="M116.107 96.2902L116.718 98.8218L115.321 98.4726L116.107 96.2902Z" fill="#A32404"/>
<path d="M114.098 98.9092L117.503 99.6076C117.503 99.6076 116.281 101.354 115.233 100.742C114.185 100.219 114.098 98.9092 114.098 98.9092Z" fill="white"/>
<path d="M109.035 288.521L110.781 303.885C110.781 303.885 114.971 308.512 117.154 305.806C118.289 304.496 121.693 302.925 122.217 302.139C120.995 301.441 118.201 299.52 118.201 299.52L118.9 288.171L109.035 288.521Z" fill="#D4603F"/>
<path d="M118.376 299.258L128.852 306.067C129.289 306.417 128.939 306.94 128.328 306.94C128.328 306.94 109.472 306.853 109.472 306.591C109.297 304.845 110.083 301.266 110.083 301.091C110.083 300.218 112.789 302.75 114.71 303.361C115.67 302.925 118.114 299.084 118.376 299.258Z" fill="white"/>
<path d="M68.2672 288.783L64.6007 302.488C64.6007 302.488 68.9656 308.512 71.1481 305.806C72.2829 304.496 75.6876 302.925 76.2114 302.139C74.9892 301.441 72.1956 299.52 72.1956 299.52L76.2987 288.521L68.2672 288.783Z" fill="#D4603F"/>
<path d="M72.2827 299.258L82.7584 306.067C83.1949 306.417 82.8457 306.94 82.2346 306.94C82.2346 306.94 61.8942 306.679 61.8069 306.329C62.6799 304.147 63.7274 299.52 64.775 297.774C64.8623 297.6 66.2591 300.83 68.0923 301.353C69.2272 301.092 72.0208 299.084 72.2827 299.258Z" fill="white"/>
<path d="M91.3136 150.851C87.2979 157.923 85.2028 163.073 82.933 172.065C80.2268 182.453 59.5371 276.91 58.2277 295.854C61.545 296.639 83.3695 298.385 85.3774 298.298C89.3931 279.529 101.266 204.191 104.146 192.318C104.583 190.485 105.543 190.747 105.456 192.667C104.583 209.778 100.916 277.346 99.3451 298.036C104.67 298.298 119.686 298.298 121.693 298.036C123.876 274.64 134.701 179.747 117.416 151.113C109.472 149.978 99.3451 150.589 91.3136 150.851Z" fill="#4475AB"/>
<mask id="mask0_48_11892" style="mask-type:luminance" maskUnits="userSpaceOnUse" x="58" y="150" width="70" height="149">
<path d="M91.3136 150.851C87.2979 157.923 85.2028 163.073 82.933 172.065C80.2268 182.453 59.5371 276.91 58.2277 295.854C61.545 296.639 83.3695 298.385 85.3774 298.298C89.3931 279.529 101.266 204.191 104.146 192.318C104.583 190.485 105.543 190.747 105.456 192.667C104.583 209.778 100.916 277.346 99.3451 298.036C104.67 298.298 119.686 298.298 121.693 298.036C123.876 274.64 134.701 179.747 117.416 151.113C109.472 149.978 99.3451 150.589 91.3136 150.851Z" fill="white"/>
</mask>
<g mask="url(#mask0_48_11892)">
<path d="M60.4972 226.364C68.9651 232.737 74.9013 242.34 76.8219 252.728C77.8695 258.403 77.9568 264.514 75.5997 269.926C73.4173 274.902 69.227 278.743 64.5129 281.275C58.5766 284.505 51.8546 285.902 45.3073 287.211C44.8708 287.298 45.0454 287.909 45.4819 287.822C56.4814 285.552 69.4889 282.584 75.3378 271.847C78.2187 266.609 78.5679 260.411 77.7822 254.649C77.0838 249.324 75.2505 244.086 72.6316 239.372C69.6635 234.047 65.6477 229.42 60.759 225.753C60.4972 225.579 60.148 226.102 60.4972 226.364Z" fill="#F9FAFE"/>
</g>
<mask id="mask1_48_11892" style="mask-type:luminance" maskUnits="userSpaceOnUse" x="58" y="150" width="70" height="149">
<path d="M91.3136 150.851C87.2979 157.923 85.2028 163.073 82.933 172.065C80.2268 182.453 59.5371 276.91 58.2277 295.854C61.545 296.639 83.3695 298.385 85.3774 298.298C89.3931 279.529 101.266 204.191 104.146 192.318C104.583 190.485 105.543 190.747 105.456 192.667C104.583 209.778 100.916 277.346 99.3451 298.036C104.67 298.298 119.686 298.298 121.693 298.036C123.876 274.64 134.701 179.747 117.416 151.113C109.472 149.978 99.3451 150.589 91.3136 150.851Z" fill="white"/>
</mask>
<g mask="url(#mask1_48_11892)">
<path d="M99.5197 224.444C96.6388 225.142 94.1072 227.674 92.0993 229.769C89.9169 232.039 87.909 234.57 86.6868 237.538C83.8933 244.522 84.3298 252.554 87.2979 259.363C89.0439 263.379 91.6628 266.871 95.0675 269.577C95.4167 269.839 95.8531 269.402 95.504 269.14C89.7423 264.514 86.2503 257.53 85.552 250.197C85.2028 246.617 85.552 242.951 86.6868 239.546C87.6471 236.404 89.3931 233.872 91.5755 231.428C93.6707 229.071 96.4642 225.928 99.6943 225.142C100.043 224.968 99.8689 224.356 99.5197 224.444Z" fill="#F9FAFE"/>
</g>
<mask id="mask2_48_11892" style="mask-type:luminance" maskUnits="userSpaceOnUse" x="58" y="150" width="70" height="149">
<path d="M91.3136 150.851C87.2979 157.923 85.2028 163.073 82.933 172.065C80.2268 182.453 59.5371 276.91 58.2277 295.854C61.545 296.639 83.3695 298.385 85.3774 298.298C89.3931 279.529 101.266 204.191 104.146 192.318C104.583 190.485 105.543 190.747 105.456 192.667C104.583 209.778 100.916 277.346 99.3451 298.036C104.67 298.298 119.686 298.298 121.693 298.036C123.876 274.64 134.701 179.747 117.416 151.113C109.472 149.978 99.3451 150.589 91.3136 150.851Z" fill="white"/>
</mask>
<g mask="url(#mask2_48_11892)">
<path d="M83.7187 157.311C90.4407 168.747 103.274 175.557 116.543 174.422C120.471 174.073 124.312 173.112 127.892 171.454C128.241 171.279 127.979 170.755 127.542 170.93C115.233 176.43 100.567 174.073 90.7026 164.994C88.1709 162.637 85.9885 159.93 84.2425 156.962C84.0679 156.613 83.4568 156.875 83.7187 157.311Z" fill="#F9FAFE"/>
</g>
<mask id="mask3_48_11892" style="mask-type:luminance" maskUnits="userSpaceOnUse" x="58" y="150" width="70" height="149">
<path d="M91.3136 150.851C87.2979 157.923 85.2028 163.073 82.933 172.065C80.2268 182.453 59.5371 276.91 58.2277 295.854C61.545 296.639 83.3695 298.385 85.3774 298.298C89.3931 279.529 101.266 204.191 104.146 192.318C104.583 190.485 105.543 190.747 105.456 192.667C104.583 209.778 100.916 277.346 99.3451 298.036C104.67 298.298 119.686 298.298 121.693 298.036C123.876 274.64 134.701 179.747 117.416 151.113C109.472 149.978 99.3451 150.589 91.3136 150.851Z" fill="white"/>
</mask>
<g mask="url(#mask3_48_11892)">
<path d="M104.583 194.5C113.4 200.262 117.94 210.563 118.638 220.865C119.424 232.301 115.146 243.3 108.948 252.728C105.194 258.49 100.655 263.815 95.9407 268.791C95.6788 269.053 96.1153 269.577 96.3772 269.228C104.845 260.323 112.789 250.284 116.805 238.499C120.297 228.285 120.384 216.936 115.932 206.984C113.575 201.659 109.821 197.119 104.932 193.889C104.583 193.715 104.234 194.239 104.583 194.5Z" fill="#F9FAFE"/>
</g>
<mask id="mask4_48_11892" style="mask-type:luminance" maskUnits="userSpaceOnUse" x="58" y="150" width="70" height="149">
<path d="M91.3136 150.851C87.2979 157.923 85.2028 163.073 82.933 172.065C80.2268 182.453 59.5371 276.91 58.2277 295.854C61.545 296.639 83.3695 298.385 85.3774 298.298C89.3931 279.529 101.266 204.191 104.146 192.318C104.583 190.485 105.543 190.747 105.456 192.667C104.583 209.778 100.916 277.346 99.3451 298.036C104.67 298.298 119.686 298.298 121.693 298.036C123.876 274.64 134.701 179.747 117.416 151.113C109.472 149.978 99.3451 150.589 91.3136 150.851Z" fill="white"/>
</mask>
<g mask="url(#mask4_48_11892)">
<path d="M126.582 178.001C120.645 179.922 119.947 187.255 119.86 192.58C119.773 198.342 121.431 204.627 126.582 207.944C126.931 208.206 127.28 207.595 126.931 207.421C122.042 204.365 120.558 198.429 120.558 193.016C120.558 187.953 121.082 180.533 126.844 178.699C127.193 178.525 127.018 177.826 126.582 178.001Z" fill="#F9FAFE"/>
</g>
<mask id="mask5_48_11892" style="mask-type:luminance" maskUnits="userSpaceOnUse" x="58" y="150" width="70" height="149">
<path d="M91.3136 150.851C87.2979 157.923 85.2028 163.073 82.933 172.065C80.2268 182.453 59.5371 276.91 58.2277 295.854C61.545 296.639 83.3695 298.385 85.3774 298.298C89.3931 279.529 101.266 204.191 104.146 192.318C104.583 190.485 105.543 190.747 105.456 192.667C104.583 209.778 100.916 277.346 99.3451 298.036C104.67 298.298 119.686 298.298 121.693 298.036C123.876 274.64 134.701 179.747 117.416 151.113C109.472 149.978 99.3451 150.589 91.3136 150.851Z" fill="white"/>
</mask>
<g mask="url(#mask5_48_11892)">
<path d="M82.4096 163.859C85.727 167.438 88.6951 171.366 91.1394 175.557C93.5838 179.66 95.6789 184.199 96.1154 188.913C96.6392 193.715 95.0679 198.08 91.8378 201.659C88.7824 205.064 84.854 207.77 80.9256 210.04C76.386 212.658 71.5847 214.841 66.8706 216.936C66.5214 217.111 66.7833 217.634 67.2197 217.46C75.9496 213.531 85.5524 209.516 92.187 202.27C95.2424 198.953 97.0757 194.937 96.9884 190.397C96.9011 185.596 95.0679 180.969 92.8854 176.866C90.1792 171.89 86.7745 167.351 82.9334 163.248C82.5842 163.073 82.0604 163.51 82.4096 163.859Z" fill="#F9FAFE"/>
</g>
<mask id="mask6_48_11892" style="mask-type:luminance" maskUnits="userSpaceOnUse" x="58" y="150" width="70" height="149">
<path d="M91.3136 150.851C87.2979 157.923 85.2028 163.073 82.933 172.065C80.2268 182.453 59.5371 276.91 58.2277 295.854C61.545 296.639 83.3695 298.385 85.3774 298.298C89.3931 279.529 101.266 204.191 104.146 192.318C104.583 190.485 105.543 190.747 105.456 192.667C104.583 209.778 100.916 277.346 99.3451 298.036C104.67 298.298 119.686 298.298 121.693 298.036C123.876 274.64 134.701 179.747 117.416 151.113C109.472 149.978 99.3451 150.589 91.3136 150.851Z" fill="white"/>
</mask>
<g mask="url(#mask6_48_11892)">
<path d="M131.383 258.577C124.137 262.419 116.543 266.522 111.479 273.244C106.94 279.18 105.019 287.037 105.805 294.457C106.241 298.647 107.551 302.663 109.733 306.329C109.908 306.679 110.519 306.329 110.257 305.98C106.416 299.52 105.281 291.751 106.94 284.418C108.686 276.561 113.662 270.537 120.122 265.91C123.788 263.379 127.717 261.196 131.645 259.101C132.082 258.927 131.732 258.403 131.383 258.577Z" fill="#F9FAFE"/>
</g>
<mask id="mask7_48_11892" style="mask-type:luminance" maskUnits="userSpaceOnUse" x="58" y="150" width="70" height="149">
<path d="M91.3136 150.851C87.2979 157.923 85.2028 163.073 82.933 172.065C80.2268 182.453 59.5371 276.91 58.2277 295.854C61.545 296.639 83.3695 298.385 85.3774 298.298C89.3931 279.529 101.266 204.191 104.146 192.318C104.583 190.485 105.543 190.747 105.456 192.667C104.583 209.778 100.916 277.346 99.3451 298.036C104.67 298.298 119.686 298.298 121.693 298.036C123.876 274.64 134.701 179.747 117.416 151.113C109.472 149.978 99.3451 150.589 91.3136 150.851Z" fill="white"/>
</mask>
<g mask="url(#mask7_48_11892)">
<path d="M116.019 299.607C114.273 296.203 115.757 292.012 118.289 289.481C121.083 286.6 125.011 285.291 128.765 284.068C129.201 283.894 129.027 283.283 128.59 283.457C124.575 284.767 120.21 286.251 117.329 289.568C114.884 292.362 113.662 296.552 115.408 299.957C115.67 300.306 116.194 299.957 116.019 299.607Z" fill="#F9FAFE"/>
</g>
<mask id="mask8_48_11892" style="mask-type:luminance" maskUnits="userSpaceOnUse" x="58" y="150" width="70" height="149">
<path d="M91.3136 150.851C87.2979 157.923 85.2028 163.073 82.933 172.065C80.2268 182.453 59.5371 276.91 58.2277 295.854C61.545 296.639 83.3695 298.385 85.3774 298.298C89.3931 279.529 101.266 204.191 104.146 192.318C104.583 190.485 105.543 190.747 105.456 192.667C104.583 209.778 100.916 277.346 99.3451 298.036C104.67 298.298 119.686 298.298 121.693 298.036C123.876 274.64 134.701 179.747 117.416 151.113C109.472 149.978 99.3451 150.589 91.3136 150.851Z" fill="white"/>
</mask>
<g mask="url(#mask8_48_11892)">
<path d="M91.6628 279.529C86.9487 281.624 81.6235 282.235 78.3935 286.687C75.0762 291.314 74.9889 297.163 75.5126 302.663C75.5126 303.099 76.211 303.099 76.211 302.663C75.6872 297.338 75.6872 291.576 79.0046 287.037C82.1473 282.672 87.4725 282.148 92.012 280.14C92.4485 279.878 92.0993 279.354 91.6628 279.529Z" fill="#F9FAFE"/>
</g>
<path d="M133.129 136.796C133.216 137.233 143.43 126.495 143.43 126.495C143.43 126.495 152.509 114.535 153.12 115.234C153.993 116.194 150.501 121.519 150.501 121.519C150.501 121.519 150.763 122.13 151.374 122.392C152.073 122.654 152.422 123.178 152.684 124.051C152.946 124.924 153.819 125.535 153.993 126.059C154.168 126.582 150.763 130.598 148.843 131.995C148.843 131.995 144.565 136.447 140.2 142.034" fill="#D4603F"/>
<path d="M143.692 126.495C143.692 126.495 145.526 121.345 146.311 121.432C147.097 121.607 150.414 123.003 150.327 124.313C150.24 125.622 147.359 124.575 147.359 124.575C147.359 124.575 147.883 127.455 146.486 127.892C145.002 128.241 143.692 126.495 143.692 126.495Z" fill="#D4603F"/>
<path d="M148.145 124.924C148.145 124.924 148.058 125.709 149.105 125.884C149.105 125.884 149.367 127.543 150.677 127.193C150.677 127.193 150.415 127.979 151.288 128.154C151.288 128.241 147.534 132.169 148.145 124.924Z" fill="#A32404"/>
<path d="M147.447 121.868C148.145 122.13 148.843 122.392 149.629 122.741C149.978 122.916 150.327 123.003 150.677 123.265C150.851 123.44 151.026 123.527 151.113 123.876C151.2 124.138 151.113 124.487 150.851 124.662C150.065 125.273 149.193 125.273 148.494 125.273C148.32 125.273 148.058 125.273 148.058 125.273C148.058 125.186 148.058 125.447 148.058 125.622C148.058 125.971 148.145 126.408 148.145 126.757L147.97 125.622C147.97 125.447 147.796 125.273 147.97 125.011C148.145 124.836 148.32 124.924 148.581 124.924C149.367 124.924 150.153 124.836 150.764 124.4C150.938 124.313 150.938 124.051 150.938 123.876C150.851 123.702 150.764 123.527 150.589 123.44C150.327 123.178 149.891 123.09 149.629 122.916L147.447 121.868Z" fill="#A32404"/>
<path d="M150.502 121.432C150.502 121.606 150.414 121.781 150.414 121.868C150.327 121.956 150.24 122.13 150.152 122.218C150.065 122.305 149.978 122.392 149.803 122.479C149.629 122.567 149.541 122.567 149.367 122.654C149.716 122.218 150.152 121.868 150.502 121.432Z" fill="#A32404"/>
<path d="M152.073 123.352C151.899 123.702 151.637 124.051 151.375 124.4C151.113 124.749 150.764 125.011 150.502 125.273C150.153 125.535 149.804 125.709 149.454 125.884C149.28 125.971 149.018 126.059 148.756 125.971C148.494 125.884 148.319 125.797 148.232 125.622C148.494 125.971 149.018 125.884 149.28 125.709C149.629 125.535 149.978 125.273 150.24 125.011C150.938 124.487 151.55 123.963 152.073 123.352Z" fill="#A32404"/>
<path d="M149.105 125.884C149.279 126.32 149.541 126.757 149.803 126.844C150.065 126.932 150.502 126.844 150.764 126.582C151.113 126.32 151.462 125.971 151.724 125.709C152.073 125.36 152.422 125.098 152.771 124.836C152.509 125.186 152.16 125.535 151.898 125.884C151.549 126.233 151.287 126.582 150.938 126.844C150.589 127.106 150.065 127.368 149.629 127.106C149.279 126.844 149.192 126.32 149.105 125.884Z" fill="#A32404"/>
<path d="M150.764 127.106C150.851 127.368 151.026 127.543 151.113 127.63C151.2 127.717 151.2 127.717 151.288 127.717C151.375 127.717 151.462 127.717 151.55 127.717C151.724 127.717 151.986 127.63 152.248 127.63C152.51 127.63 152.684 127.63 152.946 127.455C152.772 127.63 152.597 127.805 152.335 127.805C152.073 127.892 151.899 127.979 151.637 127.979C151.375 127.979 151.113 127.979 150.939 127.717C150.851 127.63 150.764 127.368 150.764 127.106Z" fill="#A32404"/>
<path d="M112.265 112.789C112.265 112.789 119.336 112.266 121.519 116.543C123.614 120.908 128.59 138.106 128.59 138.106L142.994 127.106L147.272 133.741C147.272 133.741 129.114 159.319 123.789 157.661C118.289 156.002 112.178 118.726 112.265 112.789Z" fill="#D4603F"/>
<path d="M124.4 124.4C123.352 121.083 122.217 118.027 121.519 116.543C119.424 112.178 112.265 112.789 112.265 112.789C112.265 115.583 113.575 125.622 115.67 135.487C118.551 131.82 121.519 128.154 124.4 124.4Z" fill="#BFC8DE" stroke="#BFC8DE" stroke-width="0.872981" stroke-miterlimit="10"/>
<path d="M118.725 146.574L117.416 151.113L91.4883 150.939L91.5756 146.574H118.725Z" fill="#D4603F"/>
<path d="M111.567 111.654C112.614 112.702 122.042 130.598 122.304 136.098C122.566 142.209 123.264 153.732 123.264 153.732C123.264 153.732 89.0436 151.724 88.4325 151.986C86.6866 135.661 85.5517 117.416 89.9166 114.797C89.9166 114.797 96.464 111.916 100.13 109.21C100.043 109.297 111.392 124.313 111.567 111.654Z" fill="#BFC8DE"/>
<path d="M92.885 116.107C92.0993 116.892 91.6628 117.416 91.6628 117.416C87.2979 120.035 86.5995 135.749 88.4328 152.074C88.8693 151.899 106.94 152.859 116.892 153.47C107.726 141.598 99.607 129.289 92.885 116.107Z" fill="#BFC8DE"/>
<path d="M81.0128 205.151L66.4341 175.906C65.0373 173.112 66.1722 169.708 68.9657 168.224L98.2106 153.645C101.004 152.248 104.409 153.383 105.893 156.177L120.472 185.421C121.868 188.215 120.733 191.62 117.94 193.104L88.6951 207.682C85.9015 209.079 82.4969 207.944 81.0128 205.151Z" fill="white"/>
<path d="M98.9965 190.223C105.107 188.302 108.512 181.755 106.591 175.644C104.671 169.533 98.1235 166.128 92.0126 168.049C85.9018 169.97 82.4971 176.517 84.4177 182.628C86.2509 188.739 92.7983 192.143 98.9965 190.223Z" fill="#4475AB"/>
<path d="M95.7662 179.049L106.766 184.374C108.25 181.668 108.599 178.437 107.639 175.295L95.7662 179.049Z" fill="#F5C679"/>
<path d="M106.591 175.557C104.671 169.446 98.1234 166.041 92.0126 167.962L95.7664 178.961L106.591 175.557Z" fill="#1B314F"/>
<path d="M85.8976 196.526L76.0338 176.763L73.9247 177.815L83.7885 197.578L85.8976 196.526Z" fill="#D4603F"/>
<path d="M83.632 160.978C83.4574 160.891 83.2828 161.065 83.3701 161.24C83.4574 162.113 83.8066 162.549 84.3304 163.859C84.5923 164.295 85.1161 165.43 86.2509 166.914C87.3858 168.311 89.0445 170.231 88.1715 170.493C87.5604 170.668 85.116 168.049 84.7669 167.612C84.0685 166.652 82.4971 165.43 82.4971 165.343C82.2352 165.168 83.632 168.049 84.6796 169.358C85.7271 170.755 86.7747 172.065 86.6001 172.501C86.4255 172.938 85.2906 171.89 85.2906 171.89C85.2906 171.89 85.8144 173.112 85.3779 173.287C85.1161 173.374 83.2828 171.715 82.0606 170.581C82.5844 172.239 81.886 172.065 81.886 172.065C81.886 172.065 79.1798 168.922 78.9179 167.7C78.656 166.739 77.6084 165.255 77.3465 164.994C77.1719 164.732 75.2514 161.152 74.7276 158.097C72.3705 154.954 54.2125 129.9 56.8315 128.328C76.91 116.456 97.0759 111.829 100.306 119.86C102.576 125.535 85.6398 131.908 85.6398 131.908L72.3705 137.582L80.7511 156.351C81.9733 156.962 85.116 158.533 85.989 159.319" fill="#D4603F"/>
<path d="M80.8381 117.591C90.7901 114.797 98.9961 109.996 100.218 119.861C100.742 123.876 94.7185 127.717 89.8298 130.074C86.8617 125.971 83.8063 121.781 80.8381 117.591Z" fill="#BFC8DE" stroke="#BFC8DE" stroke-width="0.872981" stroke-miterlimit="10"/>
<path d="M121.519 301.266L119.424 304.845" stroke="#001A61" stroke-width="0.298734" stroke-miterlimit="10"/>
<path d="M120.21 300.48L118.027 304.06" stroke="#001A61" stroke-width="0.298734" stroke-miterlimit="10"/>
<path d="M75.4254 301.266L73.3302 304.845" stroke="#001A61" stroke-width="0.298734" stroke-miterlimit="10"/>
<path d="M74.1162 300.48L71.9337 304.059" stroke="#001A61" stroke-width="0.298734" stroke-miterlimit="10"/>
<path d="M449.149 63.2913C449.149 63.2913 455.871 54.125 454.561 53.6885C453.252 53.3393 450.371 57.6169 449.76 54.998C448.625 49.4109 454.649 54.3869 454.561 53.5139C453.863 47.9268 447.49 51.506 447.49 51.506C447.49 51.506 447.752 41.2922 446.792 41.2049C445.832 41.0303 444.522 49.0617 444.522 49.0617C444.522 49.0617 443.911 40.8557 443.125 41.1176C442.252 41.3795 442.689 49.149 442.689 49.149C442.689 49.149 441.467 43.9111 441.03 45.3079C440.594 46.6174 442.165 58.4026 442.165 58.4026L449.149 63.2913Z" fill="#E37059"/>
<path d="M452.903 289.393L448.887 304.583L425.491 303.71V301.877L439.11 294.631L440.332 289.219L452.903 289.393Z" fill="#E37059"/>
<path d="M517.503 291.838L520.472 307.29L543.867 308.075V306.242L530.86 298.036L529.463 292.536L517.503 291.838Z" fill="#E37059"/>
<path d="M531.035 298.036L526.932 302.139C525.884 303.187 524.225 303.187 523.178 302.052L518.813 297.425L520.646 307.29L544.042 308.163L544.129 306.329L531.035 298.036Z" fill="#FFB264" stroke="#FFB264" stroke-width="0.872981" stroke-miterlimit="10"/>
<path d="M438.848 294.631L442.689 298.996C443.649 300.131 445.308 300.218 446.443 299.171L451.069 294.806L448.625 304.496L425.229 303.623L425.317 301.79L438.848 294.631Z" fill="#FFB264" stroke="#FFB264" stroke-width="0.872981" stroke-miterlimit="10"/>
<path d="M503.623 165.256L529.376 292.798L515.234 294.369L479.529 204.714C478.481 201.135 474.64 201.048 473.243 204.452L454.649 289.655L438.324 289.481C438.324 289.481 437.364 204.714 461.72 148.145L503.623 165.256Z" fill="#151F36"/>
<path d="M503.536 101.964L481.886 97.6868C466.783 94.6313 445.221 108.948 441.729 93.4965C439.808 85.2031 441.816 76.5606 446.792 70.1879L450.895 64.8627L441.205 57.0931C441.205 57.0931 379.485 125.186 461.72 117.503L450.982 169.446C450.982 169.446 472.807 173.374 505.893 175.033L515.583 129.289" fill="#4475AB"/>
<mask id="mask9_48_11892" style="mask-type:luminance" maskUnits="userSpaceOnUse" x="418" y="57" width="98" height="119">
<path d="M503.536 101.964L481.886 97.6868C466.783 94.6313 445.221 108.948 441.729 93.4965C439.808 85.2031 441.816 76.5606 446.792 70.1879L450.895 64.8627L441.205 57.0931C441.205 57.0931 379.485 125.186 461.72 117.503L450.982 169.446C450.982 169.446 472.807 173.374 505.893 175.033L515.583 129.289" fill="white"/>
</mask>
<g mask="url(#mask9_48_11892)">
<path d="M445.395 70.1006C430.031 71.2354 428.372 99.0835 443.3 102.314C448.014 103.361 452.815 101.702 457.18 100.044C457.53 99.8692 457.442 99.2581 457.006 99.4327C453.427 100.83 449.673 102.139 445.832 101.964C442.252 101.877 439.022 100.218 436.927 97.2503C432.999 91.8378 432.824 83.6318 435.792 77.7828C437.713 74.029 441.205 71.0608 445.482 70.7116C445.744 70.7989 445.744 70.1006 445.395 70.1006Z" fill="#F9FAFE"/>
<path d="M414.928 81.7112C420.515 85.3777 426.277 89.2188 430.118 94.8932C432.126 97.9487 433.348 101.353 433.61 105.02C433.872 109.036 433.173 113.139 432.126 117.067C431.078 121.257 429.332 125.273 426.626 128.678C426.364 129.027 426.801 129.463 427.062 129.114C431.951 123.091 434.134 114.623 434.308 106.94C434.396 103.187 433.523 99.52 431.689 96.29C430.031 93.2346 427.586 90.7029 425.055 88.3459C421.999 85.7269 418.682 83.4572 415.365 81.2747C414.841 80.8382 414.579 81.4493 414.928 81.7112Z" fill="#F9FAFE"/>
<path d="M453.601 119.162C456.569 116.98 459.624 114.797 463.204 113.575C466.346 112.527 469.751 112.44 472.981 113.4C479.616 115.321 484.679 120.733 486.949 127.106C489.393 133.741 489.48 141.598 487.647 148.407C486.687 151.899 484.854 154.954 482.06 157.311C479.528 159.407 476.473 160.891 473.33 161.938C464.95 164.732 455.783 165.605 446.966 165.081C446.53 165.081 446.53 165.692 446.966 165.779C455.434 166.303 464.077 165.517 472.195 163.073C478.656 161.153 484.854 157.573 487.473 151.026C488.869 147.534 489.306 143.606 489.393 139.764C489.48 136.011 489.131 132.257 488.084 128.678C486.076 122.043 481.624 116.281 475.076 113.575C471.759 112.178 468.18 111.742 464.688 112.527C460.41 113.488 456.656 116.107 453.164 118.638C452.99 118.813 453.339 119.424 453.601 119.162Z" fill="#F9FAFE"/>
<path d="M485.378 176.43C488.171 169.883 493.496 164.557 500.044 161.764C507.377 158.621 516.019 159.058 523.09 162.637C523.44 162.812 523.789 162.288 523.439 162.113C512.353 156.526 498.647 158.883 490.179 167.962C487.909 170.319 486.163 173.113 484.854 176.168C484.679 176.43 485.203 176.779 485.378 176.43Z" fill="#F9FAFE"/>
<path d="M470.362 89.3063C470.886 98.0361 476.211 105.718 483.195 110.694C487.036 113.401 491.488 115.583 496.203 116.194C500.917 116.805 505.543 115.932 509.908 114.099C515.233 111.829 519.948 108.512 524.487 105.195C524.836 104.933 524.487 104.409 524.138 104.671C516.805 109.996 508.512 115.932 498.996 115.845C489.917 115.758 481.013 109.821 475.862 102.576C473.069 98.6472 471.323 94.1077 471.061 89.3063C470.973 88.8698 470.275 88.8698 470.362 89.3063Z" fill="#F9FAFE"/>
</g>
<path opacity="0.55" d="M469.49 145.701C463.815 150.939 458.141 156.089 452.554 161.327L450.895 169.271C450.895 169.271 472.72 173.2 505.806 174.858L515.496 129.114L506.417 108.512C494.195 120.995 482.41 133.828 469.49 145.701Z" fill="#3A6791"/>
<path d="M504.496 87.3859L503.448 100.393C503.448 100.393 500.916 109.56 490.964 106.33C484.679 104.322 485.552 97.8617 485.552 97.8617L489.742 89.5683L502.75 85.0288C502.75 85.0288 504.146 86.4256 504.234 86.8621C504.408 87.2113 504.496 87.3859 504.496 87.3859Z" fill="#E37059"/>
<path d="M502.75 84.9415L490.441 90.0921C490.441 90.0921 489.306 93.0603 490.179 94.7189C492.012 98.0363 498.734 97.3379 500.48 89.7429" fill="#001C39"/>
<path d="M506.591 83.2829C506.591 83.2829 505.107 82.9337 503.623 83.894L504.496 74.5531C504.496 74.5531 501.79 71.1485 499.695 71.8469C497.599 72.5453 495.679 70.6247 494.719 69.7517C493.758 68.966 493.496 66.7836 493.496 66.7836C493.496 66.7836 489.917 57.8792 492.623 57.3554C495.417 56.8316 506.504 60.1489 509.297 63.7281C512.004 67.1328 514.011 74.2039 507.028 83.6321" fill="#FFB264"/>
<path d="M504.147 82.7591C504.147 83.1083 504.496 83.2829 504.758 83.1083C505.718 82.6718 507.464 82.2354 507.028 85.1162C506.416 89.0446 502.663 87.0368 502.226 87.3859C501.266 88.1716 498.036 90.8779 494.457 91.0525C492.274 91.2271 489.481 90.3541 488.171 87.7351C486.774 85.1162 485.465 86.0765 493.409 65.9979C493.409 65.9979 493.584 67.1328 494.719 68.0931C495.941 69.0533 497.512 69.9263 498.734 70.1882C500.044 70.5374 505.543 72.3707 505.282 74.9023C505.107 77.2594 504.059 80.9259 504.147 82.7591Z" fill="#E37059"/>
<path d="M488.346 80.8386C488.346 80.8386 489.393 81.8862 492.449 82.6718C492.449 82.6718 490.092 84.2432 489.044 83.3702C487.996 82.5845 488.346 80.8386 488.346 80.8386Z" fill="white"/>
<path d="M506.504 84.6795L503.885 85.4652C503.885 85.4652 505.98 82.0606 506.504 84.6795Z" fill="#C74040"/>
<path d="M492.274 77.3467C492.1 77.7832 492.187 78.2196 492.361 78.3069C492.623 78.3942 492.885 78.045 493.06 77.6086C493.234 77.1721 493.147 76.7356 492.973 76.6483C492.711 76.6483 492.449 76.9102 492.274 77.3467Z" fill="#001C39"/>
<path d="M489.83 76.0372C489.655 76.4737 489.743 76.9101 489.917 76.9974C490.179 77.0847 490.441 76.7356 490.615 76.2991C490.79 75.8626 490.703 75.4261 490.528 75.3388C490.266 75.3388 489.917 75.6007 489.83 76.0372Z" fill="#001C39"/>
<path d="M496.901 75.0769C497.337 75.688 497.075 73.5055 496.29 73.0691C495.591 72.5453 494.631 72.7199 494.195 73.331C494.195 73.331 495.766 73.5928 496.901 75.0769Z" fill="#001C39"/>
<path d="M490.79 72.7199C491.663 72.8945 492.274 73.2437 492.274 73.2437C492.361 72.5453 491.925 71.8469 491.227 71.585" fill="#001C39"/>
<path d="M491.052 76.4736L488.608 79.4417C488.608 79.529 488.608 79.529 488.608 79.6163L490.005 80.2274C490.092 80.2274 490.092 80.2274 490.092 80.1401L491.14 76.5609C491.227 76.4736 491.14 76.3863 491.052 76.4736Z" fill="#C74040"/>
<path d="M481.886 97.5995L487.56 93.5837L492.362 106.504L487.211 112.178L481.886 97.5995Z" fill="#FAE9CF"/>
<path d="M503.798 96.4646L492.362 106.504L493.758 112.877L506.504 103.798L503.798 96.4646Z" fill="#FAE9CF"/>
<path d="M505.282 156.264C505.282 156.264 494.719 158.621 495.417 159.668C495.854 160.367 498.123 160.803 499.695 160.978C500.393 161.065 500.742 161.938 500.306 162.549C498.996 164.557 496.639 168.136 494.806 170.581C492.187 174.16 492.973 175.12 498.472 169.795C503.972 164.47 495.242 175.644 496.028 176.08C496.901 176.604 501.615 170.319 502.576 170.493C503.536 170.668 498.472 176.866 499.52 178.088C500.568 179.311 504.671 172.239 505.282 172.152C505.893 172.065 503.012 177.041 503.536 177.39C505.369 178.787 511.742 165.081 512.091 163.946C512.44 162.986 505.282 156.264 505.282 156.264Z" fill="#E37059"/>
<path d="M503.449 154.169L515.67 167.787C515.67 167.787 561.676 135.05 550.59 123.527C541.947 114.448 508.337 94.8059 503.449 106.417C498.56 118.027 524.225 133.741 524.225 133.741L503.449 154.169Z" fill="#4475AB"/>
<mask id="mask10_48_11892" style="mask-type:luminance" maskUnits="userSpaceOnUse" x="502" y="102" width="51" height="66">
<path d="M503.449 154.169L515.67 167.787C515.67 167.787 561.676 135.05 550.59 123.527C541.947 114.448 508.337 94.8059 503.449 106.417C498.56 118.027 524.225 133.741 524.225 133.741L503.449 154.169Z" fill="white"/>
</mask>
<g mask="url(#mask10_48_11892)">
<path d="M527.019 99.6945C522.829 106.329 523.265 115.146 527.281 121.781C531.646 129.027 539.939 132.519 548.232 131.908C553.034 131.558 557.748 129.812 561.589 126.844C561.938 126.582 561.589 126.059 561.24 126.32C554.693 131.384 545.701 132.868 537.931 129.9C530.424 127.106 525.448 120.035 524.749 112.091C524.4 107.901 525.273 103.623 527.543 100.044C527.805 99.6072 527.281 99.3453 527.019 99.6945Z" fill="#F9FAFE"/>
<path d="M503.012 150.24C514.448 142.296 529.376 144.915 540.725 151.637C544.129 153.645 547.359 156.002 550.415 158.534C550.764 158.795 551.201 158.359 550.851 158.097C540.376 149.28 527.019 142.471 512.964 145.352C509.297 146.137 505.718 147.534 502.576 149.716C502.314 149.891 502.663 150.502 503.012 150.24Z" fill="#F9FAFE"/>
</g>
<path d="M456.395 56.0455H425.142C421.737 56.0455 419.031 53.252 419.031 49.9347V36.0543C419.031 32.6496 421.825 29.9434 425.142 29.9434H456.395C459.799 29.9434 462.505 32.7369 462.505 36.0543V49.8474C462.593 53.252 459.799 56.0455 456.395 56.0455Z" fill="#FFB264"/>
<path d="M449.062 56.3947C449.062 56.3947 454.299 49.4109 455.434 50.3712C456.569 51.3315 450.196 64.077 450.196 64.077" fill="#E37059"/>
<path d="M440.332 37.1018H427.15V38.8478H440.332V37.1018Z" fill="white"/>
<path d="M457.093 41.6413H427.15V43.3873H457.093V41.6413Z" fill="white"/>
</g>
<defs>
<clipPath id="clip0_48_11892">
<rect width="600" height="308.512" fill="white"/>
</clipPath>
</defs>
</svg>
