<svg width="600" height="398" viewBox="0 0 600 398" fill="none" xmlns="http://www.w3.org/2000/svg">
<g clip-path="url(#clip0_48_11226)">
<path d="M100.107 95.8896H102.216" stroke="white" stroke-width="0.756119" stroke-miterlimit="10"/>
<path d="M106.341 95.8896H171.062" stroke="white" stroke-width="0.756119" stroke-miterlimit="10" stroke-dasharray="4.17 4.17"/>
<path d="M173.079 95.8896H175.187" stroke="white" stroke-width="0.756119" stroke-miterlimit="10"/>
<path d="M352.85 98.9146H355.05" stroke="white" stroke-width="0.756119" stroke-miterlimit="10"/>
<path d="M359.267 98.9147H469.091C489.168 98.9147 505.394 115.141 505.394 135.217V186.462" stroke="white" stroke-width="0.756119" stroke-miterlimit="10" stroke-dasharray="4.23 4.23"/>
<path d="M505.394 188.571V190.679" stroke="white" stroke-width="0.756119" stroke-miterlimit="10"/>
<path d="M155.111 96.4397V98.5482" stroke="#A3B0D1" stroke-width="0.91673" stroke-miterlimit="10"/>
<path d="M155.111 102.857V222.123C155.111 229.457 149.152 235.416 141.819 235.416H129.168" stroke="#A3B0D1" stroke-width="0.91673" stroke-miterlimit="10" stroke-dasharray="4.3 4.3"/>
<path d="M127.059 235.508H124.951" stroke="#A3B0D1" stroke-width="0.91673" stroke-miterlimit="10"/>
<path d="M155.111 205.256H157.219" stroke="#A3B0D1" stroke-width="0.91673" stroke-miterlimit="10"/>
<path d="M161.436 205.256H398.136" stroke="#A3B0D1" stroke-width="0.91673" stroke-miterlimit="10" stroke-dasharray="4.26 4.26"/>
<path d="M400.336 205.256H402.445" stroke="#A3B0D1" stroke-width="0.91673" stroke-miterlimit="10"/>
<path d="M99.2819 47.1198C102.877 47.1198 105.791 44.2057 105.791 40.611C105.791 37.0163 102.877 34.1022 99.2819 34.1022C95.6872 34.1022 92.7731 37.0163 92.7731 40.611C92.7731 44.2057 95.6872 47.1198 99.2819 47.1198Z" stroke="#4475AB" stroke-width="0.91673" stroke-miterlimit="10"/>
<path d="M6.96704 239.175C10.5617 239.175 13.4758 236.261 13.4758 232.666C13.4758 229.071 10.5617 226.157 6.96704 226.157C3.37233 226.157 0.458252 229.071 0.458252 232.666C0.458252 236.261 3.37233 239.175 6.96704 239.175Z" stroke="#4475AB" stroke-width="0.91673" stroke-miterlimit="10"/>
<path d="M526.387 67.2876C529.981 67.2876 532.896 64.3735 532.896 60.7788C532.896 57.1841 529.981 54.27 526.387 54.27C522.792 54.27 519.878 57.1841 519.878 60.7788C519.878 64.3735 522.792 67.2876 526.387 67.2876Z" stroke="#4475AB" stroke-width="0.91673" stroke-miterlimit="10"/>
<path d="M184.263 191.688C187.858 191.688 190.772 188.774 190.772 185.179C190.772 181.584 187.858 178.67 184.263 178.67C180.668 178.67 177.754 181.584 177.754 185.179C177.754 188.774 180.668 191.688 184.263 191.688Z" stroke="white" stroke-width="0.91673" stroke-miterlimit="10"/>
<path d="M438.656 73.613C442.25 73.613 445.164 70.6989 445.164 67.1042C445.164 63.5095 442.25 60.5955 438.656 60.5955C435.061 60.5955 432.147 63.5095 432.147 67.1042C432.147 70.6989 435.061 73.613 438.656 73.613Z" stroke="white" stroke-width="0.91673" stroke-miterlimit="10"/>
<path d="M117.891 66.0043C120.271 66.0043 122.2 64.0752 122.2 61.6957C122.2 59.3161 120.271 57.387 117.891 57.387C115.512 57.387 113.583 59.3161 113.583 61.6957C113.583 64.0752 115.512 66.0043 117.891 66.0043Z" fill="white"/>
<path d="M544.355 142.185C544.355 139.801 542.429 137.876 540.046 137.876C537.662 137.876 535.737 139.801 535.737 142.185C535.737 144.568 537.662 146.493 540.046 146.493C542.521 146.493 544.355 144.568 544.355 142.185Z" fill="white"/>
<path d="M378.793 175.095C378.793 173.262 377.326 171.795 375.493 171.795C373.659 171.795 372.193 173.262 372.193 175.095C372.193 176.929 373.659 178.395 375.493 178.395C377.326 178.395 378.793 176.929 378.793 175.095Z" fill="white"/>
<path d="M256.226 262.551C256.226 260.718 254.759 259.251 252.926 259.251C251.093 259.251 249.626 260.718 249.626 262.551C249.626 264.385 251.093 265.852 252.926 265.852C254.759 265.76 256.226 264.293 256.226 262.551Z" fill="#4475AB"/>
<path d="M27.5937 247.884C27.5937 246.05 26.127 244.583 24.2935 244.583C22.4601 244.583 20.9933 246.05 20.9933 247.884C20.9933 249.717 22.4601 251.184 24.2935 251.184C26.127 251.184 27.5937 249.717 27.5937 247.884Z" fill="#4475AB"/>
<path d="M420.871 340.657C420.871 338.823 419.404 337.356 417.571 337.356C415.737 337.356 414.271 338.823 414.271 340.657C414.271 342.49 415.737 343.957 417.571 343.957C419.404 343.865 420.871 342.49 420.871 340.657Z" stroke="#4475AB" stroke-width="0.91673" stroke-miterlimit="10"/>
<path d="M97.3566 258.334C101.964 258.334 105.699 253.163 105.699 246.784C105.699 240.404 101.964 235.233 97.3566 235.233C92.7494 235.233 89.0144 240.404 89.0144 246.784C89.0144 253.163 92.7494 258.334 97.3566 258.334Z" fill="#D4603F"/>
<path d="M206.998 268.693C203.789 270.527 177.479 333.415 154.011 339.832C154.011 339.832 136.318 347.532 94.5149 314.713L107.166 292.803C107.166 292.803 145.485 309.213 146.952 307.746L189.947 257.418C189.947 257.418 190.038 243.208 191.688 241.008C195.08 236.241 201.039 226.249 202.414 226.707C205.989 227.716 200.214 240.091 200.214 240.091C200.214 240.091 217.265 225.699 222.582 223.865C227.899 222.032 219.099 231.566 219.099 231.566C219.099 231.566 224.141 227.532 225.607 228.357C227.074 229.182 221.757 235.049 221.757 235.049C221.757 235.049 229.091 231.566 228.266 234.224C227.441 236.883 222.582 242.108 222.582 242.108C222.582 242.108 230.741 237.8 229.274 241.925C227.899 245.867 206.998 268.693 206.998 268.693Z" fill="#FFB264"/>
<path d="M220.565 230.099L210.023 238.625" stroke="#ED7F51" stroke-width="0.91673" stroke-miterlimit="10"/>
<path d="M221.849 234.958L213.506 241.008" stroke="#ED7F51" stroke-width="0.91673" stroke-miterlimit="10"/>
<path d="M224.049 241.466L217.907 245.133" stroke="#ED7F51" stroke-width="0.91673" stroke-miterlimit="10"/>
<path d="M207.823 236.974C207.823 236.974 216.532 241.283 219.19 247.333" stroke="#ED7F51" stroke-width="0.91673" stroke-miterlimit="10"/>
<path d="M202.689 241.65C202.689 241.65 205.531 245.317 204.156 252.009" stroke="#ED7F51" stroke-width="0.91673" stroke-miterlimit="10"/>
<path d="M129.351 345.057C106.891 333.323 87.3644 315.905 79.9389 310.955C72.5134 306.004 74.0718 276.669 85.8976 268.51C94.6982 262.46 120 281.436 141.451 293.262C139.068 297.57 129.626 332.59 129.351 345.057Z" fill="white"/>
<path d="M50.1452 233.583C46.2033 224.599 48.1284 213.781 53.0787 205.714C55.4622 201.772 60.4126 198.105 65.1796 195.263C74.8052 189.488 87.0894 189.763 96.2567 196.272C96.3484 196.272 96.3484 196.363 96.4401 196.363C99.6486 198.655 105.791 208.739 104.874 212.589L88.8312 248.617C75.9053 246.417 56.2873 247.517 50.1452 233.583Z" fill="#1D2B4A"/>
<path d="M66.0963 223.223C65.9129 223.682 63.1627 228.632 60.8709 224.965C59.6792 223.132 54.4538 223.59 53.1704 229.182C51.8869 234.866 58.7624 237.891 62.0626 238.441C62.9794 238.624 63.8961 239.083 64.4462 239.908C66.1879 242.291 68.9381 248.158 70.4049 254.117C72.33 262.093 69.6715 276.76 69.6715 276.76C69.6715 276.76 87.0894 285.378 97.9068 279.419C97.9068 279.419 92.9565 248.525 92.4064 247.517C102.215 245.867 108.999 241.558 106.432 219.098C106.157 216.256 105.516 213.781 104.782 211.673C99.4652 206.081 91.5814 199.022 92.4064 196.455C89.1979 196.638 74.9885 201.222 66.0963 223.223Z" fill="#FFB264"/>
<path d="M92.498 247.608C92.498 247.608 89.3811 248.342 84.4308 247.883C81.9556 247.608 78.9304 247.333 78.9304 247.333L82.7807 252.375C87.456 255.676 91.0313 250.175 92.498 247.608Z" fill="#ED7F51"/>
<path d="M86.9059 192.513C86.9059 192.513 96.1649 194.805 95.9815 202.139C95.8899 204.98 94.3314 207.547 92.0396 209.197C84.9808 213.964 64.9044 227.44 61.9708 226.065C50.5117 220.748 67.5629 191.596 86.9059 192.513Z" fill="#1D2B4A"/>
<path d="M80.2138 234.316C81.2222 237.616 84.7058 239.541 88.006 238.533C91.3062 237.524 93.2314 234.041 92.223 230.74C91.2146 227.44 87.731 225.515 84.4308 226.524C81.1305 227.532 79.2054 231.016 80.2138 234.316Z" fill="#ED7F51"/>
<path d="M102.949 225.424C103.04 226.432 103.499 227.257 104.049 227.165C104.507 227.074 104.874 226.249 104.782 225.24C104.69 224.232 104.232 223.407 103.682 223.498C103.132 223.498 102.765 224.415 102.949 225.424Z" fill="#1D2B4A"/>
<path d="M95.7983 225.332C95.8899 226.34 96.3483 227.165 96.8983 227.074C97.3567 226.982 97.7234 226.157 97.6317 225.149C97.54 224.14 97.0817 223.315 96.5316 223.407C95.9816 223.407 95.7066 224.324 95.7983 225.332Z" fill="#1D2B4A"/>
<path d="M100.565 220.748L101.665 230.099L100.015 230.191L100.565 220.748Z" fill="#ED7F51"/>
<path d="M98.2733 220.015C98.2733 220.015 95.9815 216.715 93.323 220.748L98.2733 220.015Z" fill="#1D2B4A"/>
<path d="M103.315 220.473C103.315 220.473 105.057 217.265 107.349 221.115L103.315 220.473Z" fill="#1D2B4A"/>
<path d="M55.0953 230.191C55.0953 230.191 59.129 223.59 62.3375 233.308L55.0953 230.191Z" fill="#ED7F51"/>
<path d="M75.1511 197.193C82.7544 192.947 85.4765 183.342 81.2312 175.739C76.9859 168.136 67.3808 165.414 59.7776 169.659C52.1744 173.904 49.4522 183.509 53.6975 191.112C57.9428 198.716 67.5479 201.438 75.1511 197.193Z" fill="#1D2B4A"/>
<path d="M49.355 194.607C55.0744 192.412 57.9315 185.996 55.7365 180.276C53.5415 174.557 47.1256 171.7 41.4062 173.895C35.6868 176.09 32.8297 182.506 35.0247 188.225C37.2197 193.945 43.6356 196.802 49.355 194.607Z" fill="#1D2B4A"/>
<path d="M97.3569 274.377C96.7152 275.569 116.242 312.88 117.708 325.531C119.358 339.465 109.916 357.708 110.374 359.633L25.6686 360.916C25.6686 360.916 28.8771 275.294 51.337 271.26C51.337 271.26 66.1881 264.935 70.8634 265.118C70.8634 265.118 99.3737 291.978 97.3569 274.377Z" fill="white"/>
<path d="M58.304 335.615L16.1344 324.339L24.4766 294.82C27.5935 283.178 41.4362 267.502 53.0786 270.618C64.7211 273.735 71.5966 285.745 68.4797 297.387L58.304 335.615Z" fill="white"/>
<mask id="mask0_48_11226" style="mask-type:luminance" maskUnits="userSpaceOnUse" x="16" y="265" width="126" height="96">
<path d="M129.351 345.057C129.717 332.59 139.068 297.479 141.543 293.262C120 281.344 94.6983 262.46 85.9894 268.51C84.1559 269.794 82.5058 271.627 81.1307 273.735C75.6303 269.61 70.8633 265.118 70.8633 265.118C67.1964 265.027 57.1124 268.969 53.0788 270.619C41.4363 267.593 27.6853 283.269 24.5684 294.82L16.2262 324.339L28.6937 327.639C26.3102 345.607 25.6685 360.917 25.6685 360.917L110.374 359.725C110.008 358.258 114.775 348.541 116.883 337.998C120.917 340.473 125.134 342.857 129.351 345.057Z" fill="white"/>
</mask>
<g mask="url(#mask0_48_11226)">
<path d="M30.2521 262.643C37.7693 267.593 41.3445 277.677 38.2277 286.295C36.7609 290.42 33.8274 293.995 30.1604 296.47C26.7685 298.671 22.2766 300.504 18.1513 299.312C16.2261 298.762 14.4844 297.387 14.576 295.187C14.6677 292.528 17.1429 290.695 19.5264 290.237C23.835 289.32 28.877 290.97 32.6356 293.079C40.2445 297.387 45.5615 305.363 47.4866 313.797C50.2368 325.897 46.6616 338.548 41.3445 349.457C40.9779 350.282 42.1696 350.924 42.5363 350.191C47.8533 339.282 51.4286 326.906 49.1368 314.713C47.395 305.271 41.4362 296.195 32.9106 291.612C28.7853 289.412 23.285 287.761 18.6096 289.137C16.3178 289.778 14.301 291.428 13.5676 293.812C13.0176 295.737 13.5676 297.845 15.0344 299.221C18.3346 302.154 23.6517 301.237 27.3186 299.679C31.7189 297.845 35.4775 294.545 37.861 290.512C43.6364 280.794 40.3361 267.868 30.9855 261.635C30.1604 260.993 29.5187 262.185 30.2521 262.643Z" fill="#4475AB"/>
<path d="M53.9038 263.376C57.1124 275.936 66.6464 286.478 78.4722 291.612C84.8893 294.362 92.0398 295.645 99.007 294.545C106.249 293.445 112.391 289.136 116.883 283.453C122.567 276.394 125.5 267.685 128.342 259.251C128.617 258.426 127.334 258.059 127.059 258.884C122.659 272.085 116.7 288.22 101.849 292.528C95.065 294.454 87.5478 293.537 81.0391 291.153C75.2637 289.045 69.9466 285.47 65.5463 281.069C60.596 276.027 57.0207 269.793 55.2789 263.01C55.0039 262.185 53.7205 262.551 53.9038 263.376Z" fill="#4475AB"/>
<path d="M136.41 284.461C128.526 286.57 121.65 292.253 118.167 299.679C116.242 303.804 115.142 308.663 116.883 312.972C118.442 316.73 121.925 319.205 125.592 320.58C129.076 321.864 134.21 322.964 136.868 319.572C137.877 318.289 138.335 316.455 137.693 314.897C136.96 313.063 135.035 312.33 133.201 312.055C125.317 310.588 117.8 315.905 114.225 322.597C109 332.406 112.208 344.232 116.608 353.674C116.975 354.499 118.167 353.766 117.8 352.941C114.225 345.149 111.566 336.257 113.766 327.731C115.508 321.039 120.917 314.988 127.792 313.522C130.268 312.972 137.143 312.788 136.685 316.822C136.135 321.405 130.268 320.672 127.151 319.755C123.759 318.655 120.367 316.638 118.625 313.43C116.608 309.58 117.433 304.904 119.084 301.054C122.292 293.629 128.984 287.945 136.776 285.836C137.601 285.561 137.235 284.278 136.41 284.461Z" fill="#4475AB"/>
<path d="M66.738 350.832C64.2628 338.64 67.3797 324.889 78.1055 317.555C82.9641 314.163 88.9229 312.696 94.7899 313.797C100.749 314.805 106.249 318.014 110.283 322.505C115.05 327.639 117.892 334.331 119.45 341.115C119.633 341.94 121.008 341.573 120.733 340.748C117.892 328.189 109.916 315.997 96.7151 312.788C84.3392 309.763 72.2384 317.28 67.288 328.648C64.1712 335.706 63.8045 343.682 65.3629 351.199C65.6379 352.116 66.9213 351.749 66.738 350.832Z" fill="#4475AB"/>
</g>
<path d="M50.4202 333.964L48.22 336.531C48.22 336.531 112.208 340.198 118.9 340.198C125.592 340.198 163.911 358.441 145.76 360.275C143.193 360.55 61.6043 361.008 24.4767 361.375C16.0428 361.466 9.90071 353.307 12.3759 345.149L19.1597 324.981L50.4202 333.964Z" fill="#FFB264"/>
<path d="M94.8817 231.383H104.049C104.049 231.383 103.407 236.883 99.7404 236.241C96.0735 235.599 94.8817 231.383 94.8817 231.383Z" fill="white"/>
<path d="M63.6209 257.876C68.2282 257.876 71.9632 252.704 71.9632 246.325C71.9632 239.946 68.2282 234.774 63.6209 234.774C59.0136 234.774 55.2787 239.946 55.2787 246.325C55.2787 252.704 59.0136 257.876 63.6209 257.876Z" fill="#D4603F"/>
<path d="M157.494 355.508H88.0062V363.667H157.494V355.508Z" fill="#010A0F"/>
<path d="M88.0062 355.508H133.384L129.809 363.667H88.0062V355.508Z" fill="#1B314F"/>
<path d="M234.958 363.667H134.851L158.228 296.929C160.061 291.703 165.012 288.128 170.604 288.128H256.501C263.469 288.128 268.419 295.003 266.127 301.696L247.517 354.774C245.592 360.091 240.642 363.667 234.958 363.667Z" fill="#1B314F"/>
<path d="M207.365 329.839C203.606 329.839 200.489 326.722 200.489 322.964C200.489 322.414 200.581 321.864 200.672 321.314C197.647 322.047 195.447 324.797 195.447 328.006C195.447 331.764 198.564 334.881 202.322 334.881C205.531 334.881 208.281 332.681 209.015 329.656C208.556 329.839 208.006 329.839 207.365 329.839Z" fill="white"/>
<path d="M264.385 332.956C261.085 330.848 257.785 328.648 255.309 325.622C252.834 322.597 251.184 318.655 252.009 314.805C259.618 317.555 265.027 325.439 264.752 333.506" fill="#4475AB"/>
<path d="M266.402 332.865C264.66 321.956 268.694 310.313 276.761 302.888C278.686 307.196 279.786 311.963 279.419 316.638C279.053 321.314 277.036 325.989 273.461 329.106C271.719 330.664 269.519 331.765 267.41 332.773" fill="#4475AB"/>
<path d="M275.203 359.908H260.26C255.768 359.908 252.101 356.241 252.101 351.749V329.748H283.453V351.749C283.453 356.241 279.786 359.908 275.203 359.908Z" fill="white"/>
<path d="M275.203 359.908H260.26C255.768 359.908 252.101 356.241 252.101 351.749V329.748" fill="white"/>
<path d="M570.486 334.25C605.212 299.524 605.212 243.222 570.486 208.496C535.76 173.77 479.457 173.77 444.731 208.496C410.005 243.222 410.005 299.524 444.731 334.25C479.457 368.977 535.76 368.977 570.486 334.25Z" fill="#A3B0D1"/>
<mask id="mask1_48_11226" style="mask-type:luminance" maskUnits="userSpaceOnUse" x="418" y="182" width="179" height="179">
<path d="M570.486 334.25C605.212 299.524 605.212 243.222 570.486 208.496C535.76 173.77 479.457 173.77 444.731 208.496C410.005 243.222 410.005 299.524 444.731 334.25C479.457 368.977 535.76 368.977 570.486 334.25Z" fill="white"/>
</mask>
<g mask="url(#mask1_48_11226)">
<path d="M436.639 295.553L424.996 277.035L434.347 267.501C434.347 267.501 430.222 255.309 430.68 253.292C431.688 248.892 452.315 284.461 452.315 284.461L467.441 299.862L448.831 317.463L436.639 295.553Z" fill="#D4603F"/>
<path d="M443.514 270.893C441.956 271.626 440.306 272.36 438.747 273.185C438.105 273.46 437.464 273.735 437.097 274.285C436.73 274.835 436.73 275.568 437.097 276.118C437.464 276.76 438.105 277.035 438.747 277.219C439.572 277.494 440.397 277.585 441.222 277.677C442.964 277.952 444.706 277.952 446.356 277.86C446.998 277.86 446.998 276.76 446.356 276.852C444.889 276.943 443.423 276.943 442.047 276.76C441.314 276.668 440.581 276.577 439.847 276.393C439.297 276.302 438.564 276.21 438.105 275.752C437.005 274.652 439.389 273.918 440.031 273.643C441.314 273.002 442.689 272.36 443.973 271.718C444.614 271.443 444.064 270.618 443.514 270.893Z" fill="#A63C3C"/>
<path d="M434.163 268.235C435.355 269.885 436.455 271.627 437.28 273.552C437.372 273.827 437.739 273.827 438.014 273.735C438.289 273.552 438.289 273.277 438.197 273.002C437.28 271.168 436.272 269.335 435.08 267.685C434.897 267.501 434.622 267.318 434.347 267.501C434.163 267.685 434.072 268.051 434.163 268.235Z" fill="#A63C3C"/>
<path d="M438.289 277.035C438.38 277.31 438.105 277.585 437.83 277.769C437.464 277.952 437.097 277.86 436.822 277.769C436.089 277.494 435.447 276.76 434.897 276.119C433.705 274.744 432.697 273.185 431.872 271.535C431.597 270.985 430.68 271.443 430.955 272.085C431.872 274.193 433.247 276.027 434.897 277.677C435.63 278.41 436.547 279.052 437.647 278.96C438.655 278.777 439.481 277.952 439.206 276.852C439.206 276.119 438.197 276.394 438.289 277.035Z" fill="#A63C3C"/>
<path d="M436.18 278.227C435.997 279.235 435.722 280.427 435.08 281.252C434.438 282.077 433.063 280.611 432.605 280.152C431.872 279.327 431.322 278.41 430.68 277.585C429.946 276.577 429.305 275.477 428.571 274.468C428.205 273.918 427.288 274.468 427.655 275.019C428.48 276.302 429.396 277.494 430.221 278.777C430.863 279.786 431.597 280.794 432.513 281.619C433.338 282.352 434.713 283.177 435.63 282.169C436.089 281.711 436.272 281.161 436.547 280.611C436.822 279.969 437.005 279.327 437.097 278.594C437.28 277.86 436.272 277.585 436.18 278.227Z" fill="#A63C3C"/>
<path d="M432.33 281.069C432.238 281.894 431.597 282.627 430.772 282.81C429.947 282.994 429.03 282.719 428.572 281.985C428.388 281.802 428.022 281.802 427.838 281.985C427.655 282.169 427.655 282.444 427.838 282.719C428.572 283.635 429.947 284.094 431.047 283.727C432.147 283.452 433.064 282.444 433.247 281.252C433.247 280.977 433.155 280.702 432.88 280.61C432.789 280.702 432.422 280.794 432.33 281.069Z" fill="#A63C3C"/>
<path d="M507.135 379.25C507.135 379.25 523.178 278.043 527.028 271.81C527.028 271.81 518.411 267.134 506.494 291.336C494.576 315.629 492.834 322.597 492.834 322.597L467.533 296.103L446.356 317.646L492.009 378.609L505.577 380.259" fill="white"/>
<path d="M572.865 268.051C572.865 268.051 591.108 275.11 594.225 301.97C597.342 328.831 580.749 397.402 580.749 397.402C580.749 397.402 564.156 390.068 557.28 388.143C547.105 385.209 539.496 384.934 532.254 384.751L502.185 383.834L514.011 293.078C515.661 286.294 516.669 276.394 522.995 272.635L533.629 266.401L557.555 258.242L572.865 268.051Z" fill="white"/>
<path opacity="0.3" d="M503.377 378.334C511.536 362.566 575.248 276.669 574.24 269.793C582.491 274.743 594.316 284.552 596.333 301.695C599.45 328.555 582.857 397.127 582.857 397.127C582.857 397.127 566.264 389.793 559.389 387.868C549.213 384.934 541.604 384.659 534.362 384.476L500.26 383.743C499.435 382.918 503.01 379.067 503.377 378.334Z" fill="#8299D1"/>
<path d="M535.829 357.524L511.444 364.125C511.444 364.125 487.975 370.817 481.375 381.634L537.021 380.901L535.829 357.524Z" fill="#D4603F"/>
<path d="M564.339 267.501C570.573 263.651 594.041 277.127 598.808 302.429C603.667 329.564 593.766 383.284 584.874 386.401C575.982 389.518 537.937 384.935 537.937 384.935C537.937 384.935 536.471 360.916 535.371 353.582L565.714 352.941C565.623 353.032 559.297 315.905 564.339 267.501Z" fill="white"/>
<path d="M553.522 241.008L557.28 259.984L549.855 268.143C538.396 280.244 536.929 272.085 534.729 271.076L536.471 248.891L547.105 244.858L553.522 241.008Z" fill="#D4603F"/>
<path d="M547.196 244.766L536.562 250.45C536.562 250.45 535.279 260.626 538.396 260.992C540.963 261.267 549.947 253.108 549.122 246.875" fill="#B64641"/>
<path d="M553.614 243.483C553.614 243.483 555.172 235.691 553.339 237.799L548.847 220.106C548.847 220.106 545.821 223.498 542.888 225.423C539.954 227.348 533.17 226.157 531.429 225.332C529.687 224.507 530.512 216.348 530.512 216.348C530.512 216.348 518.411 211.947 519.603 209.564C519.603 209.564 518.869 206.539 523.178 206.814C523.178 206.814 520.611 202.597 522.536 200.397C524.462 198.196 529.595 195.721 532.254 198.838C532.254 198.838 541.513 197.188 544.446 197.555C547.38 197.921 548.847 198.563 549.855 200.763C549.855 200.763 553.705 198.013 555.63 200.855C557.555 203.697 557.189 206.172 557.189 206.172C557.189 206.172 561.222 204.889 561.864 206.997C562.414 209.106 559.664 211.397 559.664 211.397C559.664 211.397 562.231 212.039 561.864 213.323C561.497 214.606 560.214 217.539 560.214 217.539C560.214 217.539 559.939 223.773 554.805 244.033" fill="#25334C"/>
<path opacity="0.62" d="M551.047 228.999L553.339 237.891C555.172 235.691 553.614 243.575 553.614 243.575L554.714 244.216C556.455 237.432 557.647 232.207 558.472 228.265C555.722 227.715 553.064 227.807 551.047 228.999Z" fill="#D4603F"/>
<path d="M529.779 216.164C525.928 242.75 526.753 250.633 529.229 252.742C532.804 255.767 539.313 254.025 542.43 252.925C547.655 251 551.414 245.591 552.514 243.941C553.064 243.116 559.572 244.583 558.839 238.349C558.289 233.766 555.814 235.232 554.53 236.241C554.164 236.516 553.614 236.424 553.43 235.966C552.514 233.216 549.672 222.948 548.755 219.648C548.388 218.181 542.155 218.364 541.513 218.273C536.104 217.448 531.337 217.539 529.962 216.439L529.779 216.164Z" fill="#D4603F"/>
<path opacity="0.29" d="M558.931 238.257C558.381 233.674 555.905 235.141 554.622 236.149C554.255 236.424 553.705 236.332 553.522 235.874C553.064 234.315 551.963 230.465 550.863 226.798C550.497 227.807 550.038 228.723 549.488 229.732C547.655 233.215 544.905 236.241 541.421 237.982C536.746 240.366 532.162 239.266 527.303 238.532C526.753 247.7 527.762 251.367 529.229 252.742C532.804 255.767 539.313 254.025 542.429 252.925C547.655 251 551.413 245.591 552.513 243.941C553.155 243.116 559.756 244.491 558.931 238.257Z" fill="#25334C"/>
<path d="M528.77 239.908C528.77 239.908 530.787 241.008 535.737 240.824C535.737 240.824 532.804 244.216 530.878 243.391C529.045 242.658 528.77 239.908 528.77 239.908Z" fill="white"/>
<path d="M557.922 237.799L554.255 240.183C554.347 240.183 555.997 234.041 557.922 237.799Z" fill="#A63C3C"/>
<path d="M533.262 232.941C533.262 233.674 533.446 234.316 533.812 234.316C534.179 234.316 534.546 233.766 534.546 233.032C534.546 232.299 534.362 231.657 533.996 231.657C533.629 231.566 533.262 232.207 533.262 232.941Z" fill="#001C39"/>
<path d="M528.862 232.024C528.862 232.757 529.045 233.399 529.412 233.399C529.779 233.399 530.145 232.849 530.145 232.116C530.145 231.382 529.962 230.74 529.595 230.74C529.32 230.74 528.953 231.29 528.862 232.024Z" fill="#001C39"/>
<path d="M539.038 226.707C539.954 227.44 538.579 224.323 537.296 223.865C535.921 223.407 534.546 224.048 534.271 225.148C534.179 225.148 536.746 224.873 539.038 226.707Z" fill="#001C39"/>
<path d="M528.403 226.523C529.87 226.432 530.879 226.707 530.879 226.707C530.787 225.607 529.779 224.782 528.495 224.69" fill="#001C39"/>
<path d="M530.97 232.116L528.587 237.708C528.587 237.799 528.587 237.891 528.678 237.891L531.062 238.166C531.154 238.166 531.245 238.074 531.245 237.983V232.116C531.245 232.024 531.062 231.932 530.97 232.116Z" fill="#A63C3C"/>
<path d="M556.639 251.367C556.364 252.192 539.863 274.652 539.863 274.652L545.638 287.944L566.998 263.376L556.639 251.367Z" fill="#4475AB"/>
<path d="M535.737 259.159L539.862 274.56L533.537 284.002L528.587 268.51L535.737 259.159Z" fill="#4475AB"/>
<path d="M466.891 325.53C466.891 325.805 466.891 326.08 466.891 326.355C466.891 326.63 466.891 326.814 467.074 327.089C467.166 327.272 467.257 327.547 467.441 327.639C467.624 327.822 467.807 327.914 467.991 328.005C468.174 328.097 468.449 328.189 468.724 328.189C468.907 328.189 469.091 328.189 469.182 328.097C469.457 328.005 469.733 327.822 470.008 327.639C470.099 327.547 470.191 327.364 470.283 327.272C470.466 326.997 470.558 326.722 470.558 326.355C470.558 326.08 470.558 325.805 470.558 325.53C470.558 325.255 470.558 325.072 470.374 324.797C470.283 324.613 470.191 324.338 470.008 324.247C469.824 324.063 469.641 323.972 469.457 323.88C469.274 323.788 468.999 323.697 468.724 323.697C468.541 323.697 468.357 323.697 468.266 323.788C467.991 323.88 467.716 324.063 467.441 324.247C467.349 324.338 467.257 324.522 467.166 324.613C466.982 324.888 466.891 325.164 466.891 325.53Z" fill="#4475AB"/>
<path d="M484.584 355.049C486.967 355.049 486.967 351.382 484.584 351.382C482.2 351.382 482.2 355.049 484.584 355.049Z" fill="#4475AB"/>
<path d="M503.468 338.273C505.852 338.273 505.852 334.606 503.468 334.606C501.085 334.606 501.085 338.273 503.468 338.273Z" fill="#4475AB"/>
<path d="M512.086 298.762C514.469 298.762 514.469 295.095 512.086 295.095C509.702 295.095 509.702 298.762 512.086 298.762Z" fill="#4475AB"/>
<path d="M537.938 299.862C540.321 299.862 540.321 296.195 537.938 296.195C535.554 296.195 535.554 299.862 537.938 299.862Z" fill="#4475AB"/>
<path d="M520.611 328.005C522.995 328.005 522.995 324.338 520.611 324.338C518.228 324.338 518.228 328.005 520.611 328.005Z" fill="#4475AB"/>
<path d="M548.755 336.44C551.138 336.44 551.138 332.773 548.755 332.773C546.463 332.773 546.463 336.44 548.755 336.44Z" fill="#4475AB"/>
<path d="M579.374 289.044C581.757 289.044 581.757 285.377 579.374 285.377C576.99 285.469 576.99 289.044 579.374 289.044Z" fill="#4475AB"/>
<path d="M589.366 330.481C591.749 330.481 591.749 326.814 589.366 326.814C586.982 326.905 586.982 330.481 589.366 330.481Z" fill="#4475AB"/>
<path d="M574.973 314.163C577.357 314.163 577.357 310.496 574.973 310.496C572.681 310.496 572.681 314.163 574.973 314.163Z" fill="#4475AB"/>
</g>
<path d="M326.879 154.435C361.605 119.709 361.605 63.4067 326.879 28.6805C292.153 -6.04573 235.85 -6.04574 201.124 28.6805C166.398 63.4066 166.398 119.709 201.124 154.435C235.85 189.161 292.153 189.161 326.879 154.435Z" fill="#A3B0D1"/>
<mask id="mask2_48_11226" style="mask-type:luminance" maskUnits="userSpaceOnUse" x="175" y="2" width="178" height="179">
<path d="M326.879 154.435C361.605 119.709 361.605 63.4066 326.879 28.6804C292.153 -6.04574 235.85 -6.04574 201.124 28.6804C166.398 63.4066 166.398 119.709 201.124 154.435C235.85 189.161 292.153 189.161 326.879 154.435Z" fill="white"/>
</mask>
<g mask="url(#mask2_48_11226)">
<path d="M250.359 60.6871C244.308 48.5863 250.909 44.186 253.017 41.7108C257.693 35.2937 267.135 30.3433 273.644 30.8934C273.644 30.8934 282.261 28.0515 289.411 35.202C290.512 36.3021 309.121 49.3197 283.086 75.1715" fill="#FFCE7E"/>
<path d="M282.078 58.3953C282.261 58.762 282.628 59.0371 283.086 58.8537C284.736 58.212 288.036 56.6536 290.145 60.8705C291.245 62.979 290.328 65.7292 288.586 66.7376C287.211 67.5626 285.103 68.4794 284.003 68.296C283.086 70.4962 284.553 86.4473 285.836 87.7307C293.537 95.6146 295.462 95.4312 295.462 95.4312C295.462 95.4312 267.685 137.601 266.952 101.665C266.952 101.665 263.926 80.8552 263.743 80.8552C261.176 81.3136 251.459 81.4053 250.175 62.6123C248.892 45.1944 260.809 41.9859 263.926 41.4358C266.493 40.9775 275.202 38.319 282.078 58.3953Z" fill="#D4603F"/>
<path d="M263.743 81.0386L271.169 79.3885L270.71 80.3053C269.335 83.0554 265.668 83.4221 263.743 81.0386Z" fill="#A32404"/>
<path d="M254.851 41.2524C252.926 44.8276 271.902 55.2784 275.294 56.6535C281.161 59.037 284.92 59.1286 285.928 56.6535C285.836 56.7451 267.043 18.5175 254.851 41.2524Z" fill="#FFCE7E"/>
<path d="M315.578 36.7181C317.38 29.0284 312.608 21.3335 304.918 19.5312C297.228 17.7288 289.533 22.5014 287.731 30.1911C285.929 37.8808 290.701 45.5757 298.391 47.3781C306.081 49.1804 313.775 44.4078 315.578 36.7181Z" fill="#FFCE7E"/>
<path d="M313.796 53.5366C317.391 53.5366 320.305 50.6225 320.305 47.0278C320.305 43.4331 317.391 40.519 313.796 40.519C310.202 40.519 307.288 43.4331 307.288 47.0278C307.288 50.6225 310.202 53.5366 313.796 53.5366Z" fill="#FFCE7E"/>
<path d="M283.269 63.6205C285.47 56.3783 288.495 61.6953 288.495 61.6953L283.269 63.6205Z" fill="#A32404"/>
<path d="M266.218 63.3453C264.018 64.0787 262.918 66.4622 263.652 68.6623C264.385 70.8625 266.768 71.9625 268.969 71.2292C271.169 70.4958 272.269 68.1123 271.535 65.9121C270.802 63.712 268.327 62.6119 266.218 63.3453Z" fill="#C73514"/>
<path d="M252.376 73.2463C254.026 72.2379 254.851 70.1294 254.209 68.296C253.659 66.8292 251.917 66.0958 250.45 65.8208C250.45 65.7291 250.634 70.5878 252.376 73.2463Z" fill="#C73514"/>
<path d="M263.285 57.6616C264.202 57.9367 261.451 56.5616 260.351 56.5616C259.251 56.6532 258.151 57.1116 258.151 58.12C258.151 58.12 261.085 56.9283 263.285 57.6616Z" fill="#1B314F"/>
<path d="M250.267 61.1451C249.717 61.8785 250.359 59.8617 251.276 59.3117C252.192 58.7616 253.384 58.4866 253.934 59.3117C253.842 59.22 251.642 59.3117 250.267 61.1451Z" fill="#1B314F"/>
<path d="M260.535 64.0787C260.81 64.9954 260.626 65.9121 260.168 66.0038C259.71 66.0955 259.159 65.4538 258.884 64.4454C258.609 63.5286 258.793 62.6119 259.251 62.5202C259.71 62.4286 260.351 63.162 260.535 64.0787Z" fill="#1B314F"/>
<path d="M254.668 65.4539C254.943 66.3706 254.759 67.1957 254.301 67.2874C253.842 67.3791 253.292 66.7373 253.017 65.8206C252.742 64.9039 252.926 64.0788 253.384 63.9872C253.842 63.8955 254.392 64.5372 254.668 65.4539Z" fill="#1B314F"/>
<path d="M257.051 63.7121L256.043 68.4791L258.701 67.8374L257.051 63.7121Z" fill="#A32404"/>
<path d="M260.901 68.5708L254.484 69.9459C254.484 69.9459 256.776 73.2461 258.701 72.1461C260.626 71.046 260.901 68.5708 260.901 68.5708Z" fill="white"/>
<path d="M224.965 140.259C224.782 141.084 205.531 120.824 205.531 120.824C205.531 120.824 188.479 98.1812 187.288 99.5563C185.546 101.39 192.146 111.474 192.146 111.474C192.146 111.474 191.688 112.666 190.405 113.216C189.121 113.766 188.388 114.682 187.929 116.424C187.471 118.166 185.729 119.174 185.454 120.183C185.179 121.191 191.596 128.8 195.263 131.458C195.263 131.458 203.33 139.892 211.673 150.343" fill="#D4603F"/>
<path d="M205.072 120.733C205.072 120.733 201.589 110.924 200.214 111.199C198.747 111.474 192.421 114.224 192.605 116.699C192.788 119.174 198.197 117.158 198.197 117.158C198.197 117.158 197.188 122.658 199.939 123.391C202.597 124.033 205.072 120.733 205.072 120.733Z" fill="#D4603F"/>
<path d="M196.638 117.799C196.638 117.799 196.822 119.266 194.805 119.724C194.805 119.724 194.347 122.841 191.78 122.2C191.78 122.2 192.238 123.666 190.68 123.941C190.68 123.941 197.647 131.459 196.638 117.799Z" fill="#A32404"/>
<path d="M197.83 111.933C197.28 112.391 196.638 112.758 195.997 113.124L194.163 114.224C193.613 114.591 192.88 114.866 192.421 115.324C192.146 115.508 192.055 115.783 191.963 115.875C191.963 116.058 191.963 116.15 192.146 116.333C192.33 116.516 192.605 116.7 192.88 116.791C193.155 116.883 193.43 117.066 193.796 117.066C194.438 117.25 195.172 117.25 195.813 117.341H196.363C196.547 117.341 196.822 117.341 197.097 117.616C197.188 117.708 197.28 117.891 197.28 118.075C197.28 118.258 197.28 118.35 197.28 118.441L197.097 118.991C196.913 119.725 196.73 120.367 196.455 121.1H196.363L196.73 118.991L196.822 118.441C196.822 118.258 196.822 118.075 196.73 117.983C196.455 117.8 196.088 117.891 195.722 117.891C194.346 117.891 192.696 117.8 191.596 116.791C191.321 116.516 191.138 116.15 191.321 115.783C191.413 115.416 191.688 115.141 191.963 114.958C192.513 114.499 193.246 114.224 193.888 113.949L197.83 111.933Z" fill="#A32404"/>
<path d="M192.146 111.199C192.33 111.199 192.421 111.291 192.605 111.291L192.971 111.474C193.246 111.566 193.43 111.749 193.613 111.932C193.796 112.116 193.98 112.299 194.071 112.574L194.255 112.941C194.255 113.124 194.346 113.216 194.346 113.399H194.255L193.155 112.299L192.146 111.199Z" fill="#A32404"/>
<path d="M189.213 114.866C189.579 115.049 189.854 115.324 190.129 115.508C190.405 115.783 190.68 115.966 191.046 116.149L192.788 117.524L194.53 118.899C194.805 119.083 195.08 119.266 195.355 119.358C195.63 119.449 195.997 119.358 196.363 119.174H196.455C196.18 119.541 195.813 119.633 195.447 119.633C195.08 119.633 194.713 119.541 194.346 119.358C193.705 118.991 193.063 118.533 192.421 118.074C191.23 117.066 190.129 116.058 189.213 114.866Z" fill="#A32404"/>
<path d="M194.805 119.541C194.805 119.999 194.805 120.458 194.713 120.916C194.622 121.374 194.347 121.833 193.888 122.2C193.43 122.566 192.788 122.566 192.238 122.475C191.688 122.383 191.321 122.108 190.863 121.833C190.13 121.283 189.488 120.549 188.938 119.816C188.663 119.449 188.388 119.083 188.205 118.716C188.021 118.349 187.746 117.983 187.563 117.524H187.655C188.205 118.166 188.755 118.899 189.396 119.541C189.946 120.183 190.588 120.824 191.321 121.374C191.963 121.833 192.88 122.291 193.705 121.833C194.347 121.374 194.622 120.366 194.805 119.541Z" fill="#A32404"/>
<path d="M191.596 121.925C191.78 122.383 191.78 123.025 191.505 123.575C191.413 123.666 191.321 123.85 191.138 123.941C191.046 124.033 190.955 124.033 190.863 124.125C190.771 124.125 190.68 124.216 190.68 124.216C190.405 124.308 190.13 124.308 189.763 124.308C189.213 124.308 188.663 124.033 188.296 123.85C188.113 123.758 187.838 123.666 187.563 123.391C187.379 123.116 187.196 122.933 187.196 122.658H187.288C187.471 122.841 187.654 123.025 187.838 123.116C188.021 123.208 188.296 123.3 188.479 123.391C188.938 123.483 189.396 123.666 189.855 123.666C190.313 123.666 190.863 123.666 191.138 123.3C191.413 122.841 191.596 122.383 191.596 121.925Z" fill="#A32404"/>
<path d="M264.385 94.8809C264.385 94.8809 250.909 93.8725 246.967 102.031C242.933 110.19 233.674 142.734 233.674 142.734L206.539 121.924L198.472 134.392C198.472 134.392 232.849 182.704 242.933 179.587C253.017 176.47 264.476 105.973 264.385 94.8809Z" fill="#D4603F"/>
<path d="M234.499 118.441C236.516 112.207 246.325 100.198 248.342 97.8144C255.126 90.1139 264.385 94.8809 264.385 94.8809C264.476 100.198 262.918 116.974 259.068 135.584C254.026 133.384 239.908 125.5 234.499 118.441Z" fill="#1B314F"/>
<path d="M252.192 158.594L254.576 167.211L303.529 166.936L303.437 158.685L252.192 158.594Z" fill="#D4603F"/>
<path d="M265.668 92.7727C263.651 94.7895 245.867 128.525 245.408 138.976C244.95 150.435 243.667 172.345 243.667 172.345C243.667 172.345 308.296 168.586 309.488 169.045C312.88 138.243 314.897 103.682 306.646 98.8232C306.646 98.8232 294.178 93.3228 287.395 88.3724C287.395 88.2808 266.035 116.699 265.668 92.7727Z" fill="#1B314F"/>
<path d="M295.004 93.9644C295.37 92.8643 288.22 78.1966 288.22 78.1966L261.176 85.8972L260.076 96.1645C260.076 96.1645 252.742 121.375 269.243 110.466C285.653 99.3731 295.004 93.9644 295.004 93.9644Z" fill="#1B314F"/>
<path d="M300.962 101.023C302.429 102.49 303.346 103.406 303.346 103.406C311.596 108.265 312.88 138.151 309.488 168.861C308.663 168.494 274.469 170.419 255.676 171.428C272.819 149.335 288.311 125.958 300.962 101.023Z" fill="#BFC8DE"/>
<path d="M250.542 169.045C250.817 169.32 250.726 169.595 250.451 169.778C248.984 170.603 247.884 170.511 245.317 171.061C244.4 171.153 242.017 171.611 238.533 171.336C235.049 171.061 230.374 170.603 230.924 172.161C231.291 173.262 238.075 174.362 239.083 174.362C241.283 174.453 244.858 175.553 245.042 175.553C245.592 175.828 239.633 176.653 236.425 176.47C233.216 176.287 230.007 176.012 229.457 176.837C228.907 177.662 231.841 178.212 231.841 178.212C231.841 178.212 229.457 178.762 229.641 179.587C229.732 180.137 234.316 181.237 237.433 181.787C234.224 182.704 235.324 183.621 235.324 183.621C235.324 183.621 243.117 184.446 245.225 183.712C246.967 183.071 250.45 183.162 251.092 183.254C251.734 183.346 259.343 182.52 264.568 180.045C271.994 180.32 330.481 182.245 330.114 176.378C327.364 132.467 313.155 96.0728 297.112 99.4647C285.836 101.848 293.812 135.217 293.812 135.217L299.037 161.986L260.81 168.861C258.518 167.578 252.742 164.369 250.634 163.728" fill="#D4603F"/>
<path d="M328.739 126.692C322.506 108.174 308.938 89.289 292.07 97.9062C285.195 101.39 288.403 118.808 289.962 128.892C299.679 128.983 319.114 126.325 328.739 126.692Z" fill="#1B314F" stroke="#1B314F" stroke-width="1.06982" stroke-miterlimit="10"/>
<path d="M247.975 112.207C249.076 111.382 250.176 110.557 251.184 109.732C251.367 109.549 251.551 109.366 251.642 109.091C251.734 108.816 251.642 108.541 251.551 108.266C251.367 108.082 251.184 107.807 250.909 107.807C250.634 107.716 250.359 107.716 250.084 107.899C248.984 108.724 247.884 109.549 246.875 110.374C246.692 110.557 246.509 110.741 246.417 111.016C246.325 111.291 246.417 111.566 246.509 111.841C246.692 112.024 246.875 112.299 247.15 112.299C247.425 112.391 247.792 112.391 247.975 112.207Z" fill="white"/>
<path d="M260.901 117.341C261.818 118.441 262.827 119.541 263.743 120.549C264.11 120.916 264.843 120.916 265.21 120.549C265.577 120.091 265.577 119.541 265.21 119.083C264.293 117.983 263.285 116.882 262.368 115.874C262.001 115.507 261.268 115.507 260.901 115.874C260.535 116.241 260.535 116.882 260.901 117.341Z" fill="white"/>
<path d="M270.527 100.657C271.169 100.015 271.902 99.2816 272.544 98.6399C272.727 98.4566 272.819 98.1816 272.819 97.9065C272.819 97.6315 272.727 97.3565 272.544 97.1731C272.36 96.9898 272.085 96.8981 271.81 96.8981C271.535 96.8981 271.26 96.9898 271.077 97.1731C270.435 97.8149 269.702 98.5482 269.06 99.1899C268.877 99.3733 268.785 99.6483 268.785 99.9233C268.785 100.198 268.877 100.473 269.06 100.657C269.244 100.84 269.519 100.932 269.794 100.932C270.069 100.932 270.344 100.84 270.527 100.657Z" fill="white"/>
<path d="M286.57 109.182C287.67 110.282 288.77 111.382 289.778 112.391C290.145 112.758 290.878 112.758 291.245 112.391C291.612 112.024 291.612 111.382 291.245 110.924C290.145 109.824 289.045 108.724 288.037 107.716C287.67 107.349 286.937 107.349 286.57 107.716C286.203 108.082 286.203 108.724 286.57 109.182Z" fill="white"/>
<path d="M305.271 111.382C306.28 110.74 307.105 109.915 307.655 108.999C307.838 108.815 307.838 108.449 307.746 108.174C307.655 107.899 307.471 107.715 307.288 107.532C306.738 107.257 306.188 107.44 305.913 107.899C305.821 108.082 305.638 108.265 305.546 108.449C305.638 108.357 305.638 108.265 305.73 108.265C305.363 108.724 304.996 109.09 304.63 109.365C304.721 109.274 304.813 109.274 304.813 109.182C304.63 109.274 304.446 109.457 304.263 109.549C304.079 109.732 303.896 109.915 303.804 110.19C303.713 110.465 303.804 110.74 303.896 111.015C304.079 111.199 304.263 111.474 304.538 111.474C304.721 111.565 304.996 111.565 305.271 111.382Z" fill="white"/>
<path d="M277.586 136.225C278.228 135.125 278.961 134.025 279.603 132.925C279.878 132.467 279.694 131.734 279.236 131.55C278.686 131.275 278.136 131.458 277.861 131.917C277.219 133.017 276.486 134.117 275.844 135.217C275.569 135.675 275.752 136.409 276.211 136.592C276.761 136.867 277.311 136.684 277.586 136.225Z" fill="white"/>
<path d="M253.018 139.801C254.484 140.901 256.043 142.001 257.51 143.01C257.968 143.285 258.701 143.101 258.885 142.643C259.16 142.093 258.976 141.543 258.518 141.268C257.051 140.168 255.493 139.068 254.026 138.059C253.568 137.784 252.834 137.968 252.651 138.426C252.376 138.976 252.559 139.526 253.018 139.801Z" fill="white"/>
<path d="M277.128 153.918C277.953 154.743 278.778 155.477 279.603 156.302C279.786 156.485 280.061 156.577 280.336 156.577C280.611 156.577 280.886 156.485 281.07 156.302C281.436 155.935 281.528 155.202 281.07 154.835C280.244 154.01 279.419 153.277 278.594 152.452C278.411 152.268 278.136 152.177 277.861 152.177C277.586 152.177 277.311 152.268 277.128 152.452C276.761 152.91 276.761 153.552 277.128 153.918Z" fill="white"/>
<path d="M259.526 163.269C260.351 162.352 261.176 161.344 262.001 160.427C262.185 160.244 262.276 159.969 262.276 159.694C262.276 159.419 262.185 159.144 262.001 158.96C261.818 158.777 261.543 158.685 261.268 158.685C260.993 158.685 260.718 158.777 260.535 158.96C259.71 159.877 258.884 160.886 258.059 161.802C257.876 161.986 257.784 162.261 257.784 162.536C257.784 162.811 257.876 163.086 258.059 163.269C258.243 163.452 258.518 163.544 258.793 163.544C259.068 163.544 259.343 163.452 259.526 163.269Z" fill="white"/>
<path d="M317.83 118.533C318.472 119.083 319.205 119.633 319.847 120.183C319.939 120.274 320.03 120.366 320.214 120.366C320.305 120.458 320.489 120.458 320.58 120.458C320.855 120.458 321.13 120.366 321.314 120.183C321.497 119.999 321.589 119.724 321.589 119.449C321.589 119.174 321.497 118.899 321.314 118.716C320.672 118.166 319.939 117.616 319.297 117.066C319.205 116.974 319.114 116.883 318.93 116.883C318.839 116.791 318.655 116.791 318.564 116.791C318.289 116.791 318.014 116.883 317.83 117.066C317.647 117.249 317.555 117.524 317.555 117.799C317.555 118.074 317.647 118.349 317.83 118.533Z" fill="white"/>
<path d="M282.445 84.7969C283.545 85.7137 284.645 86.7221 285.653 87.6388C285.836 87.8221 286.111 87.9138 286.386 87.9138C286.661 87.9138 286.936 87.8221 287.12 87.6388C287.487 87.2721 287.578 86.5387 287.12 86.172C286.02 85.2553 284.92 84.2469 283.911 83.3302C283.728 83.1468 283.453 83.0551 283.178 83.0551C282.903 83.0551 282.628 83.1468 282.445 83.3302C282.078 83.7885 281.986 84.4302 282.445 84.7969Z" fill="white"/>
</g>
<path d="M99.1986 105.139C104.333 92.7428 98.4469 78.5316 86.0511 73.397C73.6553 68.2623 59.444 74.1487 54.3094 86.5445C49.1748 98.9403 55.0611 113.152 67.457 118.286C79.8528 123.421 94.064 117.534 99.1986 105.139Z" fill="#A3B0D1"/>
<path d="M80.7642 103.774H72.7887C72.7887 103.774 68.1134 93.6896 67.4716 90.0226C66.5549 84.9806 71.5969 80.7637 76.7306 80.7637C81.8643 80.7637 86.998 84.9806 85.9896 90.0226C85.4396 93.6896 80.7642 103.774 80.7642 103.774Z" fill="white"/>
<path d="M74.9889 103.499C74.9889 103.499 74.2555 93.0479 72.8804 93.7813C71.597 94.5147 69.9469 95.5231 76.2723 95.5231C82.5978 95.5231 81.7727 95.2481 81.7727 94.5147C81.7727 93.7813 80.7643 90.6644 78.6558 103.774" stroke="#1D2B4A" stroke-width="0.443972" stroke-miterlimit="10"/>
<path d="M77.0057 110.832C74.7138 110.832 72.7887 108.907 72.7887 106.615V104.782H81.2226V106.615C81.2226 108.999 79.2975 110.832 77.0057 110.832Z" fill="#1D2B4A" stroke="#1D2B4A" stroke-width="0.443972" stroke-miterlimit="10"/>
<path d="M524.442 109.421C528.968 90.878 517.604 72.1769 499.061 67.6513C480.517 63.1257 461.816 74.4893 457.291 93.0327C452.765 111.576 464.129 130.277 482.672 134.803C501.215 139.328 519.917 127.965 524.442 109.421Z" fill="#A3B0D1"/>
<g opacity="0.88">
<path d="M480.55 101.207C480.642 95.3398 485.409 90.6645 491.276 90.6645V81.1305C480.092 81.1305 470.924 90.2061 470.924 101.482C470.924 101.207 475.6 101.207 480.55 101.207Z" fill="white"/>
<path d="M502.001 101.482C502.001 107.44 497.235 112.207 491.276 112.207V121.833C502.46 121.833 511.627 112.758 511.627 101.482H502.001Z" fill="white"/>
<path d="M480.55 101.482C480.55 101.39 480.55 101.298 480.55 101.298C475.691 101.207 470.924 101.207 470.924 101.482C470.924 112.666 480 121.833 491.276 121.833V112.208C485.317 112.208 480.55 107.349 480.55 101.482Z" fill="#1B314F"/>
<path d="M502.001 101.482H511.535C511.535 90.2977 502.46 81.1304 491.184 81.1304V90.756C497.143 90.756 502.001 95.523 502.001 101.482Z" fill="#1B314F"/>
</g>
<path d="M493.476 103.224H489.076C488.067 103.224 487.334 102.399 487.334 101.482C487.334 100.473 488.159 99.74 489.076 99.74H493.476C494.484 99.74 495.218 100.565 495.218 101.482C495.218 102.399 494.393 103.224 493.476 103.224Z" fill="#1B314F"/>
<path d="M334.607 15.5844C334.607 7.15048 341.482 0.275002 349.916 0.275002H391.078C399.511 0.275002 406.387 7.15048 406.387 15.5844V41.4362C406.387 49.8701 399.511 56.7456 391.078 56.7456H353.767L334.607 79.2055V15.5844Z" stroke="white" stroke-width="0.509519" stroke-miterlimit="10"/>
<path opacity="0.48" d="M391.077 51.6118H351.475L339.74 65.3628V15.5843C339.74 9.99227 344.324 5.40862 349.916 5.40862H391.077C396.669 5.40862 401.253 9.99227 401.253 15.5843V41.4361C401.253 47.0282 396.669 51.6118 391.077 51.6118Z" fill="white"/>
<path d="M391.536 23.6517H353.95V27.227H391.536V23.6517Z" fill="white"/>
<path d="M391.536 33.2771H353.95V36.8524H391.536V33.2771Z" fill="white"/>
<path d="M474.133 185.363C474.133 176.929 467.258 170.053 458.824 170.053H417.663C409.229 170.053 402.353 176.929 402.353 185.363V211.215C402.353 219.648 409.229 226.524 417.663 226.524H454.973L474.133 248.984V185.363Z" stroke="white" stroke-width="0.509519" stroke-miterlimit="10"/>
<path opacity="0.48" d="M417.754 221.39H457.357L469.091 235.141V185.363C469.091 179.771 464.507 175.187 458.915 175.187H417.754C412.162 175.187 407.578 179.771 407.578 185.363V211.215C407.487 216.898 412.07 221.39 417.754 221.39Z" fill="white"/>
<path d="M417.169 197.047H454.755V193.472H417.169V197.047Z" fill="white"/>
<path d="M417.169 206.647H454.755V203.071H417.169V206.647Z" fill="white"/>
<path d="M366.601 292.62H358.35V313.521H366.601V292.62Z" fill="white"/>
<path d="M382.46 281.894H374.209V313.522H382.46V281.894Z" fill="#D4603F"/>
<path d="M400.978 269.243H392.727V313.521H400.978V269.243Z" fill="#1B314F"/>
<path d="M357.25 286.111L413.446 246.142" stroke="white" stroke-width="0.698824" stroke-miterlimit="10"/>
<path d="M407.395 244.308H413.904V250.817" fill="white"/>
<path d="M194.255 60.6867H141.268C139.434 60.6867 138.059 59.22 138.059 57.4782V26.8594C138.059 25.0259 139.526 23.6508 141.268 23.6508H194.255C196.088 23.6508 197.463 25.1176 197.463 26.8594V57.3865C197.463 59.22 195.996 60.6867 194.255 60.6867Z" fill="white"/>
<path d="M156.027 27.0424C156.027 26.6757 155.752 26.309 155.294 26.309C154.927 26.309 154.561 26.5841 154.561 27.0424C154.561 27.5008 154.836 27.7758 155.294 27.7758C155.661 27.7758 156.027 27.5008 156.027 27.0424Z" fill="#1B314F"/>
<path d="M155.202 27.1342C157.127 27.1342 158.686 25.5758 158.686 23.6506C158.686 21.7255 157.127 20.1671 155.202 20.1671C153.277 20.1671 151.719 21.7255 151.719 23.6506" stroke="#4475AB" stroke-width="0.244217" stroke-miterlimit="10"/>
<path d="M168.495 27.0424C168.495 26.6757 168.22 26.309 167.761 26.309C167.303 26.309 167.028 26.584 167.028 27.0424C167.028 27.5008 167.303 27.7758 167.761 27.7758C168.22 27.7758 168.495 27.5008 168.495 27.0424Z" fill="#1B314F"/>
<path d="M167.761 27.1341C169.687 27.1341 171.245 25.5757 171.245 23.6506C171.245 21.7254 169.687 20.167 167.761 20.167C165.836 20.167 164.278 21.7254 164.278 23.6506" stroke="#4475AB" stroke-width="0.244217" stroke-miterlimit="10"/>
<path d="M180.962 27.0424C180.962 26.6757 180.687 26.309 180.229 26.309C179.862 26.309 179.496 26.584 179.496 27.0424C179.496 27.5007 179.771 27.7757 180.229 27.7757C180.687 27.7757 180.962 27.5007 180.962 27.0424Z" fill="#1B314F"/>
<path d="M180.229 27.1341C182.154 27.1341 183.713 25.5757 183.713 23.6506C183.713 21.7254 182.154 20.167 180.229 20.167C178.304 20.167 176.745 21.7254 176.745 23.6506" stroke="#4475AB" stroke-width="0.244217" stroke-miterlimit="10"/>
<path d="M170.695 35.7522H146.585C145.76 35.7522 145.118 35.1105 145.118 34.2854C145.118 33.4604 145.76 32.8187 146.585 32.8187H170.695C171.52 32.8187 172.162 33.4604 172.162 34.2854C172.162 35.1105 171.52 35.7522 170.695 35.7522Z" fill="#FFB264"/>
<path d="M180.138 35.7523H175.554C174.729 35.7523 174.087 35.1106 174.087 34.2856C174.087 33.4605 174.729 32.8188 175.554 32.8188H180.138C180.963 32.8188 181.604 33.4605 181.604 34.2856C181.604 35.1106 180.963 35.7523 180.138 35.7523Z" fill="#E37059"/>
<path d="M170.695 37.1274H145.118V37.6774H170.695V37.1274Z" fill="#A3B0CF"/>
<path d="M150.527 44.3694C150.527 43.361 149.702 42.5359 148.694 42.5359C147.685 42.5359 146.86 43.361 146.86 44.3694C146.86 45.3778 147.685 46.2029 148.694 46.2029C149.702 46.2029 150.527 45.3778 150.527 44.3694Z" fill="#A3B0D1"/>
<path d="M159.97 44.3694C159.97 43.361 159.145 42.536 158.136 42.536C157.128 42.536 156.303 43.361 156.303 44.3694C156.303 45.3779 157.128 46.2029 158.136 46.2029C159.145 46.2029 159.97 45.3779 159.97 44.3694Z" fill="#A3B0D1"/>
<path d="M169.412 44.3694C169.412 43.361 168.587 42.536 167.579 42.536C166.57 42.536 165.745 43.361 165.745 44.3694C165.745 45.3779 166.57 46.2029 167.579 46.2029C168.587 46.2029 169.412 45.3779 169.412 44.3694Z" fill="#A3B0D1"/>
<path d="M178.854 44.3694C178.854 43.361 178.029 42.536 177.021 42.536C176.012 42.536 175.187 43.361 175.187 44.3694C175.187 45.3779 176.012 46.2029 177.021 46.2029C178.029 46.2029 178.854 45.3779 178.854 44.3694Z" fill="#A3B0D1"/>
<path d="M188.296 44.3694C188.296 43.361 187.471 42.536 186.463 42.536C185.455 42.536 184.63 43.361 184.63 44.3694C184.63 45.3779 185.455 46.2029 186.463 46.2029C187.471 46.2029 188.296 45.3779 188.296 44.3694Z" fill="#A3B0D1"/>
<path d="M150.527 52.2535C150.527 51.2451 149.702 50.42 148.694 50.42C147.685 50.42 146.86 51.2451 146.86 52.2535C146.86 53.2619 147.685 54.0869 148.694 54.0869C149.702 54.0869 150.527 53.2619 150.527 52.2535Z" fill="#A3B0D1"/>
<path d="M159.97 52.2534C159.97 51.245 159.145 50.42 158.136 50.42C157.128 50.42 156.303 51.245 156.303 52.2534C156.303 53.2618 157.128 54.0869 158.136 54.0869C159.145 54.0869 159.97 53.2618 159.97 52.2534Z" fill="#A3B0D1"/>
<path d="M169.412 52.2534C169.412 51.245 168.587 50.42 167.579 50.42C166.57 50.42 165.745 51.245 165.745 52.2534C165.745 53.2618 166.57 54.0869 167.579 54.0869C168.587 54.0869 169.412 53.2618 169.412 52.2534Z" fill="#A3B0D1"/>
<path d="M178.854 52.2534C178.854 51.245 178.029 50.42 177.021 50.42C176.012 50.42 175.187 51.245 175.187 52.2534C175.187 53.2618 176.012 54.0869 177.021 54.0869C178.029 54.0869 178.854 53.2618 178.854 52.2534Z" fill="#E37059"/>
<path d="M188.296 52.2534C188.296 51.245 187.471 50.42 186.463 50.42C185.455 50.42 184.63 51.245 184.63 52.2534C184.63 53.2618 185.455 54.0869 186.463 54.0869C187.471 54.0869 188.296 53.2618 188.296 52.2534Z" fill="#A3B0D1"/>
</g>
<defs>
<clipPath id="clip0_48_11226">
<rect width="600" height="397.403" fill="white"/>
</clipPath>
</defs>
</svg>
