<svg width="600" height="361" viewBox="0 0 600 361" fill="none" xmlns="http://www.w3.org/2000/svg">
<g clip-path="url(#clip0_48_11599)">
<path d="M338.347 47.935H248.989V32.9214C248.989 24.1485 256.134 17.0034 264.907 17.0034H322.339C331.112 17.0034 338.257 24.1485 338.257 32.9214V47.935H338.347Z" fill="#1B314F"/>
<path d="M368.013 351.191H179.891V55.6227H407.627V311.577C392.161 327.043 383.478 335.725 368.013 351.191Z" fill="white"/>
<path d="M360.687 41.5138H226.74V80.133H360.687V41.5138Z" fill="#4475AB"/>
<path d="M368.013 351.191V327.314C368.013 318.631 375.067 311.667 383.659 311.667H407.627L368.013 351.191Z" fill="#4475AB"/>
<path opacity="0.74" d="M248.781 149.299C256.611 147.464 261.47 139.629 259.635 131.8C257.8 123.97 249.965 119.11 242.135 120.946C234.305 122.781 229.446 130.616 231.281 138.445C233.116 146.275 240.951 151.135 248.781 149.299Z" fill="#BFC8DE"/>
<path opacity="0.74" d="M248.782 213.784C256.612 211.949 261.471 204.114 259.636 196.285C257.801 188.455 249.966 183.595 242.136 185.431C234.306 187.266 229.447 195.101 231.282 202.93C233.117 210.76 240.952 215.62 248.782 213.784Z" fill="#BFC8DE"/>
<path opacity="0.74" d="M248.781 285.776C256.611 283.941 261.471 276.106 259.635 268.276C257.8 260.446 249.965 255.587 242.136 257.422C234.306 259.257 229.446 267.092 231.282 274.922C233.117 282.752 240.952 287.611 248.781 285.776Z" fill="#BFC8DE"/>
<path d="M230.81 193.006C235.152 197.076 239.041 201.598 242.477 206.482C243.653 208.11 246.457 208.562 247.542 206.482C253.059 195.357 260.566 185.499 269.882 177.269C271.058 176.184 270.967 174.194 269.882 173.108C268.706 171.933 266.988 172.023 265.721 173.108C256.134 181.61 248.175 192.011 242.477 203.497C244.196 203.497 245.824 203.497 247.542 203.497C243.834 198.252 239.674 193.277 234.971 188.846C232.257 186.223 228.097 190.383 230.81 193.006Z" fill="#D4603F"/>
<path d="M230.81 129.695C235.152 133.765 239.041 138.288 242.477 143.172C243.653 144.799 246.457 145.252 247.542 143.172C253.059 132.047 260.566 122.189 269.882 113.958C271.058 112.873 270.967 110.883 269.882 109.798C268.706 108.622 266.988 108.713 265.721 109.798C256.134 118.3 248.175 128.701 242.477 140.187C244.196 140.187 245.824 140.187 247.542 140.187C243.834 134.941 239.674 129.967 234.971 125.535C232.257 123.003 228.097 127.073 230.81 129.695Z" fill="#D4603F"/>
<path opacity="0.74" d="M362.043 140.187H279.016C275.399 140.187 272.414 137.203 272.414 133.585C272.414 129.967 275.399 126.983 279.016 126.983H362.043C365.661 126.983 368.646 129.967 368.646 133.585C368.646 137.293 365.661 140.187 362.043 140.187Z" fill="#BFC8DE"/>
<path opacity="0.74" d="M362.043 208.743H279.016C275.399 208.743 272.414 205.759 272.414 202.141C272.414 198.523 275.399 195.539 279.016 195.539H362.043C365.661 195.539 368.646 198.523 368.646 202.141C368.646 205.849 365.661 208.743 362.043 208.743Z" fill="#BFC8DE"/>
<path opacity="0.74" d="M362.043 281.279H279.016C275.399 281.279 272.414 278.294 272.414 274.676C272.414 271.059 275.399 268.074 279.016 268.074H362.043C365.661 268.074 368.646 271.059 368.646 274.676C368.646 278.294 365.661 281.279 362.043 281.279Z" fill="#BFC8DE"/>
<path d="M127.524 51.2814H159.36C163.069 51.2814 166.053 48.2968 166.053 44.5886C166.053 40.8805 163.069 37.8959 159.36 37.8959H127.524C123.816 37.8959 120.832 40.8805 120.832 44.5886C120.832 48.2968 123.816 51.2814 127.524 51.2814Z" fill="#1B314F"/>
<path d="M151.672 58.6976H145.703V64.6669H151.672V58.6976Z" fill="white"/>
<path d="M161.079 58.6976H155.109V64.6669H161.079V58.6976Z" fill="white"/>
<path d="M161.079 67.561H155.109V73.5303H161.079V67.561Z" fill="white"/>
<path d="M104.781 61.2509C105.202 48.0207 94.8175 36.9543 81.5873 36.5335C68.357 36.1126 57.2906 46.4967 56.8698 59.7269C56.449 72.9572 66.833 84.0235 80.0633 84.4444C93.2935 84.8652 104.36 74.4811 104.781 61.2509Z" fill="#1B314F"/>
<path d="M103.014 69.551C108.079 57.3411 102.2 43.3224 89.9905 38.3481L80.8557 60.5066L103.014 69.551Z" fill="white"/>
<path d="M81.127 60.5971L92.2515 33.7355C84.8352 30.7508 76.8762 30.9317 70.093 33.8259L81.127 60.5971Z" fill="#4475AB"/>
<path opacity="0.32" d="M190.201 18.8124H123.635V32.6502H190.201V18.8124Z" fill="#4475AB"/>
<path opacity="0.32" d="M449.502 47.1211H382.936V60.9589H449.502V47.1211Z" fill="#4475AB"/>
<path d="M403.919 13.2953H394.874V29.756H403.919V13.2953Z" fill="white"/>
<path d="M420.379 9.40625H411.335V29.756H420.379V9.40625Z" fill="white"/>
<path d="M436.84 5.60764H427.796V29.756H436.84V5.60764Z" fill="white"/>
<path d="M453.301 0.000160217H444.256V29.756H453.301V0.000160217Z" fill="white"/>
<path d="M385.378 2.08037V35.0017H477.72" stroke="white" stroke-width="0.823756" stroke-miterlimit="10"/>
<path d="M512.993 98.6737L511.456 100.392C511.275 100.573 511.275 100.844 511.456 101.025C513.898 103.829 516.792 106.09 520.138 107.718C520.41 107.808 520.681 107.718 520.771 107.537L522.128 105.547C523.213 103.919 525.203 103.196 527.193 103.558C527.283 103.558 527.374 103.648 527.555 103.648C529.363 104.01 530.811 105.276 531.263 107.085L532.077 109.979C532.167 110.25 532.348 110.341 532.619 110.341C536.328 110.25 540.036 109.256 543.292 107.718C543.473 107.628 543.653 107.356 543.563 107.085L542.839 104.552C542.297 102.653 543.02 100.754 544.467 99.4877C544.558 99.4877 544.558 99.3972 544.648 99.3972C544.648 99.3972 544.648 99.3972 544.739 99.3068C546.186 98.131 548.176 97.7692 549.894 98.5832L552.426 99.759C552.607 99.8494 552.879 99.759 553.06 99.5781C555.23 96.5935 556.858 93.1566 557.672 89.5389C557.763 89.2676 557.582 89.0867 557.401 88.9963L554.959 87.9109C553.24 87.1874 552.065 85.469 552.065 83.6601C552.065 83.3888 552.065 83.2079 552.065 82.9366C551.974 80.9468 553.15 79.1379 555.049 78.324L557.129 77.51C557.401 77.4195 557.491 77.1482 557.401 76.8769C556.406 73.2591 554.778 70.0032 552.426 67.0186C552.246 66.8377 552.065 66.7472 551.793 66.8377L548.899 68.1039C547.271 68.8274 545.462 68.5561 544.015 67.4708C543.925 67.3803 543.834 67.2899 543.653 67.1995C542.116 66.0237 541.392 64.0339 541.935 62.1346L542.568 59.8735C542.659 59.6022 542.478 59.3309 542.297 59.2404C538.95 57.7934 535.242 56.9794 531.534 56.9794C531.263 56.9794 531.082 57.1603 531.082 57.3411L530.449 60.1449C529.997 61.9537 528.64 63.3104 526.831 63.7626C526.741 63.7626 526.65 63.7626 526.65 63.853C524.751 64.3053 522.671 63.7626 521.495 62.1346L519.957 60.1449C519.776 59.964 519.505 59.8736 519.324 59.964C517.696 60.778 516.159 61.8633 514.802 63.0391C513.355 64.2148 512.089 65.5715 510.913 67.0186C510.732 67.1994 510.732 67.4708 510.913 67.6517L512.541 69.4605C513.807 70.9076 514.169 72.9878 513.355 74.7062C513.264 74.8871 513.174 75.1584 513.084 75.3393C512.27 77.1482 510.461 78.2335 508.561 78.1431L506.119 78.0526C505.848 78.0526 505.667 78.2335 505.577 78.5048C504.853 82.1226 504.944 85.9212 505.848 89.4485C505.939 89.7198 506.12 89.9007 506.391 89.8102L508.833 89.6294C510.732 89.5389 512.541 90.5338 513.445 92.2522C513.536 92.4331 513.626 92.7044 513.807 92.8853C514.531 95.0559 514.259 97.1361 512.993 98.6737ZM519.415 78.4144C525.113 66.8377 541.121 68.3752 544.558 80.7659C545.281 83.5697 545.01 86.5543 543.744 89.0867C538.046 100.663 522.038 99.1259 518.601 86.7352C517.877 83.9314 518.148 80.9468 519.415 78.4144Z" fill="white"/>
<path opacity="0.54" d="M548.164 86.6659C549.862 77.5313 543.834 68.7493 534.699 67.051C525.565 65.3526 516.783 71.381 515.084 80.5157C513.386 89.6503 519.414 98.4322 528.549 100.131C537.684 101.829 546.466 95.8006 548.164 86.6659Z" stroke="#BFC8DE" stroke-width="0.75502" stroke-miterlimit="10"/>
<path opacity="0.32" d="M546.096 124.269L545.191 125.264C545.101 125.354 545.101 125.535 545.191 125.626C546.638 127.344 548.357 128.61 550.347 129.605C550.437 129.696 550.618 129.605 550.708 129.515L551.522 128.339C552.155 127.344 553.331 126.892 554.507 127.163C554.597 127.163 554.597 127.163 554.688 127.163C555.773 127.344 556.587 128.158 556.858 129.153L557.311 130.871C557.311 130.962 557.492 131.143 557.582 131.052C559.753 130.962 561.923 130.419 563.913 129.515C564.003 129.424 564.094 129.334 564.094 129.153L563.732 127.706C563.461 126.62 563.823 125.445 564.727 124.721C564.727 124.721 564.817 124.721 564.817 124.631C565.631 123.907 566.807 123.726 567.893 124.179L569.43 124.812C569.52 124.902 569.701 124.812 569.792 124.721C571.058 123.003 572.053 120.923 572.505 118.752C572.505 118.571 572.505 118.481 572.324 118.39L570.877 117.757C569.882 117.305 569.159 116.31 569.159 115.225C569.159 115.134 569.159 114.953 569.159 114.863C569.068 113.687 569.792 112.602 570.968 112.15L572.234 111.607C572.415 111.516 572.415 111.426 572.415 111.245C571.872 109.165 570.877 107.175 569.43 105.457C569.34 105.366 569.159 105.276 569.068 105.366L567.35 106.09C566.355 106.542 565.27 106.361 564.456 105.728C564.365 105.638 564.365 105.638 564.275 105.547C563.37 104.824 562.918 103.648 563.28 102.563L563.642 101.206C563.642 101.025 563.642 100.935 563.461 100.844C561.471 99.9398 559.3 99.4875 557.13 99.578C556.949 99.578 556.858 99.6684 556.858 99.8493L556.497 101.477C556.225 102.563 555.411 103.377 554.326 103.648H554.236C553.06 103.919 551.884 103.557 551.161 102.653L550.256 101.477C550.166 101.387 549.985 101.296 549.894 101.387C548.899 101.93 547.995 102.472 547.181 103.196C546.367 103.919 545.553 104.733 544.92 105.547C544.83 105.638 544.83 105.819 544.92 105.909L545.915 106.994C546.638 107.808 546.91 109.075 546.367 110.069C546.277 110.16 546.277 110.341 546.186 110.431C545.734 111.516 544.649 112.15 543.473 112.059H542.026C541.845 112.059 541.754 112.15 541.754 112.33C541.393 114.501 541.393 116.672 541.845 118.842C541.845 119.023 542.026 119.114 542.116 119.114L543.563 119.023C544.739 118.933 545.824 119.566 546.277 120.561C546.367 120.651 546.367 120.832 546.458 120.923C547.091 122.098 546.91 123.365 546.096 124.269ZM549.985 112.24C553.331 105.366 562.828 106.271 564.817 113.597C565.27 115.225 565.089 117.034 564.365 118.481C561.019 125.354 551.522 124.45 549.533 117.124C548.99 115.586 549.171 113.778 549.985 112.24Z" fill="#4475AB"/>
<path opacity="0.54" d="M557.13 125.354C562.624 125.354 567.079 120.9 567.079 115.406C567.079 109.911 562.624 105.457 557.13 105.457C551.635 105.457 547.181 109.911 547.181 115.406C547.181 120.9 551.635 125.354 557.13 125.354Z" stroke="#BFC8DE" stroke-width="0.446247" stroke-miterlimit="10"/>
<path d="M60.0538 244.106L61.5913 242.388C61.7722 242.207 61.7722 241.936 61.5913 241.755C59.1493 238.951 56.2551 236.69 52.9087 235.062C52.6374 234.972 52.3661 235.062 52.2756 235.243L50.919 237.233C49.8337 238.861 47.8439 239.584 45.8542 239.222C45.7637 239.222 45.6733 239.132 45.4924 239.132C43.6835 238.77 42.2365 237.504 41.7842 235.695L40.9702 232.801C40.8798 232.53 40.6989 232.439 40.4276 232.439C36.7194 232.53 33.0113 233.524 29.7553 235.062C29.5744 235.152 29.3935 235.424 29.484 235.695L30.2075 238.227C30.7502 240.127 30.0266 242.026 28.5795 243.292C28.4891 243.292 28.4891 243.383 28.3987 243.383C28.3987 243.383 28.3986 243.383 28.3082 243.473C26.8611 244.649 24.8714 245.011 23.1529 244.197L20.6205 243.021C20.4397 242.931 20.1683 243.021 19.9874 243.202C17.8168 246.186 16.1888 249.623 15.3748 253.241C15.2844 253.512 15.4653 253.693 15.6462 253.784L18.0881 254.869C19.8065 255.593 20.9823 257.311 20.9823 259.12C20.9823 259.391 20.9823 259.572 20.9823 259.843C21.0728 261.833 19.897 263.642 17.9977 264.456L15.9175 265.27C15.6462 265.36 15.5557 265.632 15.6462 265.903C16.641 269.521 18.269 272.777 20.6205 275.761C20.8014 275.942 20.9823 276.033 21.2536 275.942L24.1478 274.676C25.7758 273.953 27.5847 274.224 29.0318 275.309C29.1222 275.4 29.2126 275.49 29.3935 275.581C30.9311 276.756 31.6546 278.746 31.1119 280.645L30.4788 282.906C30.3884 283.178 30.5693 283.449 30.7502 283.54C34.0966 284.987 37.8047 285.801 41.5129 285.801C41.7842 285.801 41.9651 285.62 41.9651 285.439L42.5982 282.635C43.0504 280.826 44.4071 279.47 46.216 279.017C46.3064 279.017 46.3968 279.017 46.3968 278.927C48.2961 278.475 50.3763 279.017 51.5521 280.645L53.0896 282.635C53.2705 282.816 53.5419 282.906 53.7227 282.816C55.3507 282.002 56.8883 280.917 58.2449 279.741C59.692 278.565 60.9582 277.208 62.1339 275.761C62.3148 275.581 62.3148 275.309 62.1339 275.128L60.506 273.319C59.2398 271.872 58.878 269.792 59.692 268.074C59.7824 267.893 59.8729 267.622 59.9633 267.441C60.7773 265.632 62.5862 264.546 64.4855 264.637L66.9274 264.727C67.1988 264.727 67.3797 264.546 67.4701 264.275C68.1936 260.657 68.1032 256.859 67.1988 253.332C67.1083 253.06 66.9274 252.879 66.6561 252.97L64.2141 253.151C62.3148 253.241 60.506 252.246 59.6015 250.528C59.5111 250.347 59.4207 250.076 59.2398 249.895C58.4258 247.724 58.7876 245.644 60.0538 244.106ZM53.6323 264.366C47.9344 275.942 31.9259 274.405 28.4891 262.014C27.7655 259.21 28.0369 256.226 29.3031 253.693C35.001 242.117 51.0094 243.654 54.4463 256.045C55.1698 258.849 54.8985 261.833 53.6323 264.366Z" fill="white"/>
<path opacity="0.54" d="M56.9544 265.582C60.51 256.998 56.4339 247.157 47.8501 243.602C39.2664 240.046 29.4255 244.122 25.8699 252.706C22.3143 261.29 26.3905 271.131 34.9742 274.686C43.558 278.242 53.3988 274.166 56.9544 265.582Z" stroke="#BFC8DE" stroke-width="0.75502" stroke-miterlimit="10"/>
<path opacity="0.32" d="M26.8611 218.511L27.7656 217.516C27.856 217.426 27.856 217.245 27.7656 217.154C26.3185 215.436 24.6 214.17 22.6103 213.175C22.5198 213.084 22.339 213.175 22.2485 213.265L21.4345 214.441C20.8014 215.436 19.6257 215.888 18.4499 215.617C18.3595 215.617 18.3595 215.617 18.269 215.617C17.1837 215.436 16.3697 214.622 16.0984 213.627L15.6462 211.909C15.6462 211.818 15.4653 211.637 15.3748 211.728C13.2042 211.818 11.0336 212.361 9.04382 213.265C8.95337 213.356 8.86293 213.446 8.86293 213.627L9.2247 215.074C9.49603 216.159 9.13426 217.335 8.22983 218.059C8.22983 218.059 8.13939 218.059 8.13939 218.149C7.3254 218.873 6.14964 219.054 5.06432 218.601L3.61723 217.878C3.52678 217.787 3.3459 217.878 3.25546 217.968C1.98925 219.687 0.994376 221.767 0.54216 223.937C0.54216 224.118 0.54216 224.209 0.723046 224.299L2.17014 224.932C3.16501 225.385 3.88856 226.379 3.88856 227.465C3.88856 227.555 3.88856 227.736 3.88856 227.827C3.979 229.002 3.25545 230.088 2.07969 230.54L0.813489 231.082C0.632603 231.173 0.632603 231.263 0.632603 231.444C1.17526 233.524 2.17014 235.514 3.61723 237.233C3.70767 237.323 3.88856 237.414 3.979 237.323L5.69742 236.6C6.6923 236.147 7.77761 236.328 8.5916 236.961C8.68204 237.052 8.68204 237.052 8.77249 237.142C9.67692 237.866 10.1291 239.041 9.76736 240.127L9.40559 241.483C9.40559 241.664 9.40559 241.755 9.58648 241.845C11.5762 242.75 13.7469 243.202 15.9175 243.111C16.0984 243.111 16.1888 243.021 16.1888 242.84L16.5506 241.212C16.8219 240.127 17.6359 239.313 18.7212 239.041H18.8117C19.9874 238.77 21.1632 239.132 21.8867 240.036L22.7912 241.212C22.8816 241.303 23.0625 241.393 23.153 241.303C24.1478 240.76 25.0523 240.217 25.8662 239.494C26.6802 238.77 27.4942 237.956 28.1273 237.142C28.2178 237.052 28.2178 236.871 28.1273 236.78L27.1325 235.695C26.4089 234.881 26.1376 233.615 26.6802 232.62C26.7707 232.53 26.7707 232.349 26.8611 232.258C27.3133 231.173 28.3987 230.54 29.5744 230.63H31.0215C31.2024 230.63 31.2928 230.54 31.2928 230.359C31.6546 228.188 31.6546 226.018 31.2024 223.847C31.2024 223.666 31.0215 223.576 30.9311 223.576L29.484 223.666C28.3082 223.757 27.2229 223.123 26.7707 222.129C26.6802 222.038 26.6802 221.857 26.5898 221.767C25.9567 220.682 26.1376 219.415 26.8611 218.511ZM23.0625 230.54C19.7161 237.414 10.2196 236.509 8.22983 229.183C7.77761 227.555 7.9585 225.746 8.68204 224.299C12.0284 217.426 21.525 218.33 23.5147 225.656C23.9669 227.193 23.7861 229.002 23.0625 230.54Z" fill="#4475AB"/>
<path opacity="0.54" d="M15.9175 237.323C21.412 237.323 25.8662 232.869 25.8662 227.374C25.8662 221.88 21.412 217.426 15.9175 217.426C10.4229 217.426 5.96873 221.88 5.96873 227.374C5.96873 232.869 10.4229 237.323 15.9175 237.323Z" stroke="#BFC8DE" stroke-width="0.446247" stroke-miterlimit="10"/>
<path d="M453.934 89.8103C453.482 87.8205 456.647 82.7557 458.366 81.6704C460.355 80.3137 462.616 79.3188 464.968 78.7762C469.942 77.6004 474.645 79.2284 478.263 82.8461C489.93 94.3324 470.304 107.447 470.304 107.447" fill="#FAE9CF"/>
<path d="M476.273 103.467C476.273 100.483 478.715 98.0406 481.7 98.0406C484.685 98.0406 487.127 100.483 487.127 103.467C487.127 106.452 484.685 108.894 481.7 108.894C478.715 108.894 476.273 106.452 476.273 103.467Z" fill="#FAE9CF"/>
<path d="M473.56 94.6942C473.56 94.9655 473.831 95.1464 474.103 95.1464C475.188 95.056 477.72 94.6037 478.354 97.4075C478.987 100.302 476.364 102.201 474.645 102.472C474.193 102.563 471.842 104.462 471.57 104.824C470.666 106 472.927 117.667 473.379 121.284C474.284 128.068 464.335 131.324 464.335 131.324C464.335 131.324 458.637 129.786 458.004 121.284C458.004 121.284 458.275 104.824 458.185 104.733C456.738 103.467 451.402 103.377 453.753 91.8904C455.924 81.3086 463.521 81.3086 465.511 81.4895C467.048 81.6704 472.746 81.5799 473.56 94.6942Z" fill="#D4603F"/>
<path d="M459.994 81.0373C459.994 81.0373 471.842 94.1515 473.741 95.1464C473.831 95.056 479.529 77.3291 459.994 81.0373Z" fill="#FAE9CF"/>
<path d="M477.087 98.4024C477.087 98.4024 475.007 94.8751 473.289 100.03L477.087 98.4024Z" fill="#AD4021"/>
<path d="M463.883 95.5986C462.436 95.6891 461.35 96.9553 461.441 98.4024C461.531 99.8494 462.797 100.935 464.244 100.844C465.691 100.754 466.777 99.4877 466.686 98.0406C466.596 96.5935 465.33 95.5082 463.883 95.5986Z" fill="#AD4021"/>
<path d="M453.21 97.4979C454.386 97.1362 455.2 96.0508 455.11 94.7846C455.019 93.7898 454.477 92.9758 453.663 92.614C453.663 92.614 452.758 95.5986 453.21 97.4979Z" fill="#AD4021"/>
<path d="M455.291 95.9604L459.451 97.5884C459.451 97.5884 457.642 99.1259 456.557 98.4928C455.381 97.7693 455.291 95.9604 455.291 95.9604Z" fill="white"/>
<path d="M458.004 92.7948L457.642 95.689L456.195 95.2368C455.923 95.1463 455.833 94.7845 456.104 94.6037L458.004 92.7948Z" fill="#AD4021"/>
<path d="M462.978 91.3478C463.34 91.8 462.978 90.172 462.436 89.8103C461.802 89.4485 461.079 89.6294 460.808 90.172C460.898 90.0816 462.074 90.2625 462.978 91.3478Z" fill="black"/>
<path d="M455.291 89.1771C454.748 89.358 455.833 88.0918 456.557 88.0918C457.28 88.0918 457.823 88.544 457.823 89.1771C457.823 89.0867 456.647 88.6345 455.291 89.1771Z" fill="black"/>
<path d="M460.898 93.6089C460.717 94.0611 460.446 94.4229 460.174 94.3324C459.903 94.242 459.903 93.7897 459.993 93.3375C460.174 92.8853 460.446 92.5235 460.717 92.614C460.988 92.614 461.079 93.0662 460.898 93.6089Z" fill="black"/>
<path d="M457.099 92.1617C456.918 92.6139 456.647 92.9757 456.466 92.8852C456.195 92.7948 456.195 92.3426 456.285 91.8904C456.466 91.4381 456.737 91.0764 456.918 91.1668C457.19 91.2573 457.28 91.7095 457.099 92.1617Z" fill="black"/>
<path d="M458.094 104.733C458.094 104.733 463.069 105.276 465.601 104.824C468.133 104.462 457.823 112.511 458.094 104.733Z" fill="#AD4021"/>
<path d="M455.381 94.8751C457.129 94.8751 458.547 93.2959 458.547 91.3478C458.547 89.3997 457.129 87.8205 455.381 87.8205C453.633 87.8205 452.216 89.3997 452.216 91.3478C452.216 93.2959 453.633 94.8751 455.381 94.8751Z" stroke="white" stroke-width="0.495448" stroke-miterlimit="10"/>
<path d="M461.983 97.4978C463.731 97.4978 465.149 95.9185 465.149 93.9705C465.149 92.0224 463.731 90.4432 461.983 90.4432C460.235 90.4432 458.818 92.0224 458.818 93.9705C458.818 95.9185 460.235 97.4978 461.983 97.4978Z" stroke="white" stroke-width="0.495448" stroke-miterlimit="10"/>
<path d="M465.058 93.9706L473.831 95.056" stroke="white" stroke-width="0.495448" stroke-miterlimit="10"/>
<path d="M461.803 333.283L459.994 346.036C459.994 346.036 457.1 354.537 454.386 351.191C451.673 347.935 449.05 346.217 449.05 346.217L448.146 332.922L461.803 333.283Z" fill="#D4603F"/>
<path d="M504.492 332.288L508.471 345.041C508.471 345.041 511.456 347.664 512.632 347.664C514.621 347.573 515.707 344.136 515.707 344.136L516.068 332.379H504.492V332.288Z" fill="#D4603F"/>
<path d="M448.236 346.217L437.564 354.899C437.021 355.261 437.383 355.985 438.197 355.985L454.025 356.075C454.386 356.075 454.748 355.894 454.839 355.623L456.014 353.181C456.376 352.457 457.009 352.457 457.009 353.181L457.552 355.532C457.552 355.894 461.26 355.804 461.351 355.442C461.531 353.362 461.079 346.488 460.717 344.589C460.627 344.317 460.356 344.136 459.994 344.046C459.632 343.956 459.361 344.046 459.089 344.317C458.004 345.312 454.567 348.478 452.758 347.845C451.583 347.392 449.955 346.669 449.502 346.217C449.141 345.945 448.598 345.945 448.236 346.217Z" fill="#1B314F"/>
<path d="M515.797 343.684L521.857 353.904C522.49 354.899 522.128 356.075 520.952 356.799C519.053 357.974 517.515 360.145 516.34 360.235C514.169 360.326 510.823 357.974 508.833 357.16C507.476 356.618 506.481 355.713 506.662 354.628L508.2 344.408C508.2 344.317 508.471 344.227 508.562 344.317L510.913 346.398C511.637 347.121 513.717 347.031 514.259 346.126C514.621 345.493 515.526 343.594 515.526 343.594C515.526 343.503 515.707 343.503 515.797 343.684Z" fill="#1B314F"/>
<path d="M483.6 164.245C488.483 172.928 491.106 179.259 493.91 190.293C497.166 203.045 532.62 311.306 534.157 334.64C530.087 335.635 503.316 335.454 500.784 335.364C492.644 312.12 472.204 236.69 468.676 222.038C468.134 219.777 464.697 220.32 464.968 222.581C466.958 239.313 477.54 309.678 482.876 335.364C480.796 336.449 450.045 336.178 447.603 335.906C444.98 307.236 430.871 198.704 452.125 163.521C461.803 162.255 473.651 163.974 483.6 164.245Z" fill="#1B314F"/>
<path d="M409.526 171.933C409.526 171.933 423.907 168.948 436.297 163.974C432.951 161.351 429.605 158.638 426.349 155.743L411.697 163.521C410.883 163.883 411.245 165.059 402.653 168.134L409.526 171.933Z" fill="#D4603F"/>
<path d="M411.607 163.702C411.607 163.702 401.477 166.144 400.844 167.049C400.211 167.863 406.994 167.049 406.723 167.863C406.723 167.863 410.973 164.697 411.607 163.702Z" fill="#D4603F"/>
<path d="M446.518 122.279C443.895 127.616 434.398 149.774 434.398 149.774L423.183 156.015L430.6 167.591C430.6 167.591 441.181 165.149 446.427 160.356C451.492 155.743 458.004 125.354 458.004 118.119C458.004 118.119 449.14 116.943 446.518 122.279Z" fill="white"/>
<path d="M454.657 119.023C454.929 119.747 446.608 139.644 446.879 146.337C447.241 153.12 451.854 164.516 451.492 165.602C451.492 165.602 456.738 169.762 485.86 165.149C494.814 157.371 486.946 130.781 483.961 122.37C483.961 122.37 474.645 115.044 472.203 114.863C472.203 114.863 466.053 122.37 454.657 119.023Z" fill="white"/>
<mask id="mask0_48_11599" style="mask-type:luminance" maskUnits="userSpaceOnUse" x="440" y="163" width="95" height="174">
<path d="M483.599 164.245C488.483 172.928 491.106 179.259 493.91 190.293C497.165 203.045 532.619 311.306 534.157 334.64C530.087 335.635 503.316 335.454 500.783 335.364C492.643 312.12 472.203 236.69 468.676 222.038C468.133 219.777 464.696 220.32 464.968 222.581C466.957 239.313 477.539 309.678 482.876 335.364C480.795 336.449 450.045 336.178 447.603 335.906C444.98 307.236 430.871 198.704 452.125 163.522C461.802 162.255 473.65 163.974 483.599 164.245Z" fill="white"/>
</mask>
<g mask="url(#mask0_48_11599)">
<path d="M427.434 188.122C428.972 196.352 433.675 204.854 440.729 209.557C444.347 211.909 448.417 212.542 452.668 211.818C457.099 211.095 461.26 209.286 465.692 208.653C470.214 207.929 474.736 208.743 478.534 211.366C482.604 214.17 484.504 218.421 486.132 222.943C487.579 227.013 489.297 230.721 492.191 233.977C494.905 237.052 498.161 239.494 501.778 241.393C511.275 246.367 522.309 247.091 532.8 247.001C533.253 247.001 533.253 246.277 532.8 246.277C523.123 246.367 513.084 245.825 504.13 241.755C500.422 240.036 496.894 237.775 494 234.881C490.835 231.716 488.755 228.098 487.217 223.938C485.77 219.958 484.413 215.888 481.338 212.904C478.625 210.19 475.007 208.381 471.209 207.929C462.526 206.753 454.386 213.356 445.704 211.185C440.729 210.009 436.84 205.939 433.946 201.869C431.052 197.709 429.062 193.006 428.067 188.032C428.067 187.399 427.344 187.579 427.434 188.122Z" fill="white"/>
</g>
<mask id="mask1_48_11599" style="mask-type:luminance" maskUnits="userSpaceOnUse" x="440" y="163" width="95" height="174">
<path d="M483.599 164.245C488.483 172.928 491.106 179.259 493.91 190.293C497.165 203.045 532.619 311.306 534.157 334.64C530.087 335.635 503.316 335.454 500.783 335.364C492.643 312.12 472.203 236.69 468.676 222.038C468.133 219.777 464.696 220.32 464.968 222.581C466.957 239.313 477.539 309.678 482.876 335.364C480.795 336.449 450.045 336.178 447.603 335.906C444.98 307.236 430.871 198.704 452.125 163.522C461.802 162.255 473.65 163.974 483.599 164.245Z" fill="white"/>
</mask>
<g mask="url(#mask1_48_11599)">
<path d="M430.237 221.586C445.613 226.199 454.657 241.665 458.546 256.316C463.159 273.32 461.802 292.494 450.587 306.784C445.251 313.567 438.106 318.813 429.785 321.255C429.333 321.345 429.514 322.069 429.966 321.978C445.613 317.456 456.737 303.437 460.265 287.972C462.435 278.746 462.073 269.069 460.084 259.753C458.275 251.523 455.2 243.473 450.406 236.509C445.522 229.364 438.739 223.486 430.328 220.953C429.966 220.772 429.785 221.496 430.237 221.586Z" fill="white"/>
</g>
<mask id="mask2_48_11599" style="mask-type:luminance" maskUnits="userSpaceOnUse" x="440" y="163" width="95" height="174">
<path d="M483.599 164.245C488.483 172.928 491.106 179.259 493.91 190.293C497.165 203.045 532.619 311.306 534.157 334.64C530.087 335.635 503.316 335.454 500.783 335.364C492.643 312.12 472.203 236.69 468.676 222.038C468.133 219.777 464.696 220.32 464.968 222.581C466.957 239.313 477.539 309.678 482.876 335.364C480.795 336.449 450.045 336.178 447.603 335.906C444.98 307.236 430.871 198.704 452.125 163.522C461.802 162.255 473.65 163.974 483.599 164.245Z" fill="white"/>
</mask>
<g mask="url(#mask2_48_11599)">
<path d="M479.168 288.243C472.203 295.207 468.043 304.703 466.958 314.471C465.963 324.149 468.043 334.55 474.103 342.328C477.359 346.579 481.881 349.744 487.307 350.468C487.76 350.558 487.76 349.744 487.307 349.744C477.449 348.478 471.299 338.8 468.947 330.027C466.415 320.893 467.229 311.034 470.756 302.261C472.837 297.287 475.821 292.674 479.62 288.785C479.982 288.514 479.529 287.971 479.168 288.243Z" fill="white"/>
</g>
<mask id="mask3_48_11599" style="mask-type:luminance" maskUnits="userSpaceOnUse" x="440" y="163" width="95" height="174">
<path d="M483.599 164.245C488.483 172.928 491.106 179.259 493.91 190.293C497.165 203.045 532.619 311.306 534.157 334.64C530.087 335.635 503.316 335.454 500.783 335.364C492.643 312.12 472.203 236.69 468.676 222.038C468.133 219.777 464.696 220.32 464.968 222.581C466.957 239.313 477.539 309.678 482.876 335.364C480.795 336.449 450.045 336.178 447.603 335.906C444.98 307.236 430.871 198.704 452.125 163.522C461.802 162.255 473.65 163.974 483.599 164.245Z" fill="white"/>
</mask>
<g mask="url(#mask3_48_11599)">
<path d="M472.203 250.799C475.097 256.316 479.077 261.11 484.051 264.727C486.493 266.536 489.297 268.164 492.462 268.617C495.447 269.069 498.341 268.164 501.055 266.898C504.13 265.451 507.114 263.642 510.37 262.647C513.807 261.562 517.606 261.291 521.133 262.285C527.102 264.004 531.624 269.069 534.971 274.134C538.86 279.922 542.93 288.062 539.131 294.935C538.86 295.388 539.583 295.749 539.764 295.297C542.93 289.69 540.85 283.087 538.046 277.842C535.242 272.596 531.443 267.35 526.469 264.094C520.862 260.386 514.259 260.296 508.109 262.738C504.944 264.004 502.14 265.903 498.884 267.079C495.357 268.345 491.92 268.255 488.483 266.627C481.7 263.371 476.273 257.04 472.836 250.437C472.655 249.985 471.932 250.347 472.203 250.799Z" fill="white"/>
</g>
<mask id="mask4_48_11599" style="mask-type:luminance" maskUnits="userSpaceOnUse" x="440" y="163" width="95" height="174">
<path d="M483.599 164.245C488.483 172.928 491.106 179.259 493.91 190.293C497.165 203.045 532.619 311.306 534.157 334.64C530.087 335.635 503.316 335.454 500.783 335.364C492.643 312.12 472.203 236.69 468.676 222.038C468.133 219.777 464.696 220.32 464.968 222.581C466.957 239.313 477.539 309.678 482.876 335.364C480.795 336.449 450.045 336.178 447.603 335.906C444.98 307.236 430.871 198.704 452.125 163.522C461.802 162.255 473.65 163.974 483.599 164.245Z" fill="white"/>
</mask>
<g mask="url(#mask4_48_11599)">
<path d="M484.504 288.785C484.865 290.504 486.674 291.318 488.212 291.77C490.654 292.403 493.005 293.036 495.447 293.76C500.422 295.388 505.125 297.468 509.647 300.091C518.329 305.156 525.746 312.301 530.63 321.164C533.253 325.957 535.061 331.294 535.875 336.72C535.966 337.172 536.689 336.992 536.599 336.539C535.242 327.133 530.811 318.36 524.57 311.306C518.058 303.889 509.466 298.463 500.331 294.755C497.708 293.76 495.086 292.855 492.372 292.041C491.106 291.68 489.749 291.408 488.483 291.046C487.127 290.685 485.589 290.142 485.318 288.604C485.046 288.062 484.323 288.333 484.504 288.785Z" fill="white"/>
</g>
<path d="M363.943 148.508L342.87 105.457L387.006 102.472L442.176 130.238L419.023 176.183L363.943 148.508Z" fill="#FAE9CF"/>
<path d="M354.085 121.646C357.25 116.039 359.602 109.979 362.315 104.191L342.87 105.457L352.366 124.812C352.909 123.726 353.452 122.641 354.085 121.646Z" fill="#E37059"/>
<path d="M530.928 232.457L554.04 186.475L387.812 102.924L364.7 148.905L530.928 232.457Z" fill="#FFB264"/>
<path d="M516.249 225.023L539.312 179.078L562.375 190.654C569.43 194.182 572.324 202.864 568.797 209.919L558.577 230.178C555.049 237.233 546.367 240.127 539.312 236.6L516.249 225.023Z" fill="#4475AB"/>
<path d="M386.915 118.571C393.97 122.189 401.024 125.716 407.989 129.334C408.983 129.877 409.978 130.329 411.064 130.872C412.692 131.686 414.953 131.324 415.857 129.605C416.671 127.977 416.309 125.716 414.591 124.812C407.536 121.194 400.482 117.667 393.518 114.049C392.523 113.506 391.528 113.054 390.443 112.512C388.815 111.698 386.553 112.059 385.649 113.778C384.835 115.406 385.106 117.667 386.915 118.571Z" fill="#D4603F"/>
<path d="M536.146 178.173C531.534 187.399 526.921 196.624 522.309 205.849C521.495 207.477 521.856 209.738 523.575 210.642C525.203 211.456 527.464 211.095 528.368 209.376C532.981 200.151 537.594 190.926 542.206 181.701C543.02 180.073 542.658 177.812 540.94 176.907C539.402 176.093 537.051 176.455 536.146 178.173Z" fill="white"/>
<path d="M482.333 172.928C482.333 172.928 516.068 166.416 514.983 159.361L495.176 156.919C495.538 157.19 471.661 165.602 471.661 165.602C471.661 165.602 458.908 171.48 460.174 172.747C461.079 173.561 467.32 169.672 466.867 170.305C466.777 170.395 460.898 173.47 461.079 174.465C461.35 175.912 468.314 171.933 468.767 172.294C468.767 172.294 462.255 175.46 462.888 176.183C463.43 176.817 470.666 173.832 470.756 174.103C470.847 174.375 465.692 176.636 466.415 177.631C467.048 178.535 482.333 172.928 482.333 172.928Z" fill="#D4603F"/>
<path d="M467.862 167.863C467.862 167.863 460.265 168.134 461.622 167.32C463.069 166.506 474.465 164.697 474.465 164.697" fill="#D4603F"/>
<path d="M472.023 122.279C472.023 122.279 478.444 132.952 481.79 137.383C485.137 141.815 494.543 156.467 494.543 156.467L516.159 160.627C516.159 160.627 492.824 110.884 472.023 122.279Z" fill="white"/>
<path d="M405.366 165.602L402.653 168.224C402.653 168.224 403.014 169.672 404.19 169.581C405.366 169.491 406.542 166.506 406.542 165.873C406.542 164.155 405.366 165.602 405.366 165.602Z" fill="#D4603F"/>
<path d="M406.361 166.416L404.462 169.672C404.462 169.672 405.185 171.028 406.27 170.576C407.356 170.214 407.808 166.958 407.537 166.325C407.265 164.697 406.361 166.416 406.361 166.416Z" fill="#D4603F"/>
<path d="M408.079 167.32L406.18 170.576C406.18 170.576 406.903 171.933 407.989 171.48C409.074 171.119 409.436 167.863 409.255 167.23C408.893 165.602 408.079 167.32 408.079 167.32Z" fill="#D4603F"/>
<path d="M409.165 169.038L407.717 171.571C407.717 171.571 408.26 172.656 409.165 172.294C409.979 172.023 410.34 169.491 410.159 168.948C409.888 167.772 409.165 169.038 409.165 169.038Z" fill="#D4603F"/>
<path d="M99.1248 209.286L83.3877 234.429L66.2939 223.756L64.2137 227.103L37.8948 210.733L40.0654 207.296L46.0347 197.709L55.7121 182.243L99.1248 209.286Z" fill="#4475AB"/>
<path d="M155.471 331.836L156.918 349.382L182.151 354.809L169.127 341.785L165.962 330.751L155.471 331.836Z" fill="#FFA47E"/>
<path d="M169.127 340.247L187.035 355.984L153.209 356.346L155.471 340.428L162.163 346.94L169.127 340.247Z" fill="#4475AB"/>
<path d="M172.474 342.237L169.399 344.227" stroke="white" stroke-width="0.481339" stroke-miterlimit="10"/>
<path d="M175.278 343.594L172.112 345.584" stroke="white" stroke-width="0.481339" stroke-miterlimit="10"/>
<path d="M125.172 335.183L127.433 350.106L101.205 355.985L115.223 342.689L114.409 334.64L125.172 335.183Z" fill="#FFA47E"/>
<path d="M114.048 341.875L98.401 356.799L128.79 356.437L126.438 342.509L121.826 348.84L114.048 341.875Z" fill="#4475AB"/>
<path d="M111.063 343.775L114.229 345.584" stroke="white" stroke-width="0.481339" stroke-miterlimit="10"/>
<path d="M108.35 345.131L111.515 347.031" stroke="white" stroke-width="0.481339" stroke-miterlimit="10"/>
<path d="M116.671 166.687L146.698 169.581C146.698 169.581 150.949 172.747 155.2 188.936C160.445 208.743 168.223 260.205 170.756 334.369L135.302 334.911L135.393 221.676C134.94 220.048 132.498 220.41 132.589 222.129L127.343 336.177L91.799 335.454C91.799 335.454 102.381 211.366 107.446 192.011C112.33 173.832 116.671 166.687 116.671 166.687Z" fill="#E37059"/>
<mask id="mask5_48_11599" style="mask-type:luminance" maskUnits="userSpaceOnUse" x="91" y="166" width="80" height="171">
<path d="M116.671 166.687L146.698 169.581C146.698 169.581 150.949 172.747 155.2 188.936C160.445 208.743 168.223 260.205 170.756 334.369L135.302 334.911L135.393 221.676C134.94 220.048 132.498 220.41 132.589 222.129L127.343 336.177L91.799 335.454C91.799 335.454 102.381 211.366 107.446 192.011C112.33 173.832 116.671 166.687 116.671 166.687Z" fill="white"/>
</mask>
<g mask="url(#mask5_48_11599)">
<path d="M103.194 168.405C117.394 174.465 121.826 192.282 121.464 206.392C121.102 221.134 115.585 235.695 106.45 247.181C101.205 253.693 94.8737 259.21 87.5478 263.19C86.8243 263.552 87.4574 264.637 88.1809 264.275C101.476 256.859 111.787 244.739 117.575 230.63C123.273 216.702 124.81 200.241 119.655 185.861C116.851 177.992 111.696 170.666 103.828 167.32C103.014 167.049 102.38 168.044 103.194 168.405Z" fill="#1B314F"/>
<path d="M133.945 157.733C129.152 165.421 133.764 175.189 137.744 182.243C142.266 190.112 148.416 197.347 156.646 201.417C161.259 203.678 166.233 205.035 171.389 204.854C172.203 204.854 172.203 203.588 171.389 203.588C162.525 203.769 154.204 199.699 147.964 193.639C144.889 190.654 142.266 187.218 140.005 183.509C137.744 179.892 135.754 176.003 134.397 172.023C132.95 167.501 132.408 162.527 135.03 158.366C135.392 157.643 134.307 157.1 133.945 157.733Z" fill="#1B314F"/>
<path d="M165.872 221.767C157.913 224.118 152.215 231.263 150.315 239.222C147.964 249.171 151.129 259.572 156.013 268.255C158.907 273.5 162.435 278.294 166.052 283.087C166.505 283.72 167.59 283.087 167.138 282.454C161.349 274.586 155.38 266.446 152.486 256.949C149.863 248.267 150.044 238.499 155.38 230.902C158.003 227.193 161.802 224.299 166.143 222.943C166.957 222.671 166.686 221.496 165.872 221.767Z" fill="#1B314F"/>
<path d="M83.0256 293.941C87.9096 292.313 93.6075 294.483 98.0392 296.563C102.29 298.553 106.179 301.266 109.616 304.432C117.032 311.125 122.278 319.807 126.167 328.942C128.519 334.459 130.327 340.157 131.955 345.855C132.136 346.578 133.402 346.307 133.131 345.493C127.614 325.957 118.479 305.246 99.3054 295.749C94.4215 293.307 88.1809 290.865 82.7543 292.674C81.9403 293.036 82.2117 294.212 83.0256 293.941Z" fill="#1B314F"/>
<path d="M133.945 300.181C146.517 310.039 161.983 315.918 177.901 316.732C178.715 316.732 178.715 315.556 177.901 315.466C162.344 314.652 147.059 308.954 134.85 299.277C134.216 298.824 133.312 299.729 133.945 300.181Z" fill="#1B314F"/>
<path d="M116.67 277.842C119.836 277.842 119.836 272.867 116.67 272.867C113.415 272.867 113.415 277.842 116.67 277.842Z" fill="#1B314F"/>
<path d="M146.969 180.253C150.134 180.253 150.134 175.279 146.969 175.279C143.803 175.279 143.803 180.253 146.969 180.253Z" fill="#1B314F"/>
<path d="M144.979 218.511C148.145 218.511 148.145 213.537 144.979 213.537C141.814 213.537 141.814 218.511 144.979 218.511Z" fill="#1B314F"/>
<path d="M123.273 180.887C126.438 180.887 126.438 175.912 123.273 175.912C120.017 176.003 120.017 180.887 123.273 180.887Z" fill="#1B314F"/>
<path d="M152.848 292.946C156.013 292.946 156.013 287.971 152.848 287.971C149.682 287.971 149.682 292.946 152.848 292.946Z" fill="#1B314F"/>
<path d="M106.722 322.611C109.887 322.611 109.887 317.637 106.722 317.637C103.556 317.637 103.556 322.611 106.722 322.611Z" fill="#1B314F"/>
</g>
<path d="M145.251 116.943C145.432 115.044 149.049 109.708 149.049 109.708C149.049 109.708 152.396 115.767 152.215 117.667C152.034 119.566 150.315 121.013 148.416 120.832C146.517 120.561 145.07 118.842 145.251 116.943Z" stroke="white" stroke-width="0.808562" stroke-miterlimit="10"/>
<path d="M233.885 110.612C230.448 113.144 226.288 117.305 218.781 121.013C218.781 121.013 196.713 139.825 188.211 144.257C179.076 149.05 159.541 153.301 136.206 142.629C136.206 142.629 127.162 137.745 132.589 130.6C137.925 123.455 144.618 126.711 144.618 126.711C160.626 137.202 167.5 137.383 182.875 133.042L212.269 115.496C214.349 114.23 213.897 113.506 215.254 111.607C217.424 108.532 220.59 104.1 221.494 103.829C222.851 103.377 218.691 110.702 218.691 110.702C218.691 110.702 229.091 102.924 230.358 102.653C231.624 102.382 223.846 110.16 223.846 110.16L233.885 104.1C234.066 104.01 234.337 104.281 234.156 104.462L225.836 112.421L234.066 107.808C234.337 107.627 235.332 107.447 235.151 107.718L226.469 115.044L233.795 110.069C233.704 110.069 234.337 110.16 233.885 110.612Z" fill="#FFA47E" stroke="#FFA47E" stroke-width="0.904432" stroke-miterlimit="10"/>
<path d="M162.978 133.404C161.44 133.223 146.155 128.43 143.985 123.907C143.985 123.907 139.734 123.003 134.398 130.058C129.061 137.203 144.075 152.307 144.075 152.307C146.426 153.754 158.275 152.759 158.275 152.759L162.978 133.404Z" fill="white"/>
<path d="M126.981 101.477C130.599 117.486 135.935 109.074 144.527 110.974C148.145 111.788 151.129 110.431 153.571 108.17C154.476 105.819 154.928 105.185 154.295 102.743L154.566 101.387C156.737 98.4926 155.019 94.4227 152.486 92.0712C150.587 90.4432 148.507 89.9005 146.155 89.177C143.442 88.363 138.287 88.0917 135.031 90.2623C132.86 91.7094 133.674 88.363 131.865 90.0814C131.684 90.2623 131.503 90.4432 131.322 90.6241C127.976 92.1616 126.891 101.025 126.981 101.477Z" fill="#000B33"/>
<path d="M137.744 91.619C139.191 89.8101 139.191 87.0968 137.834 85.1975C136.478 83.3886 133.764 82.6651 131.684 83.66C130.78 84.0217 130.056 84.6548 129.423 85.3784C128.7 86.1019 128.066 87.0063 127.524 87.9108C126.438 89.8101 125.805 92.3425 127.162 94.0609C127.614 94.694 128.247 95.1462 128.971 95.508C129.966 96.1411 131.051 96.5933 132.227 96.7742C133.403 96.9551 134.669 96.5029 135.392 95.5984" fill="#000B33"/>
<path d="M134.036 103.286C133.945 103.467 134.307 103.467 134.036 103.286C133.222 102.924 132.227 102.291 130.78 104.643C129.333 106.994 132.95 109.165 134.488 109.436C134.94 109.527 133.041 117.214 131.955 122.822C131.232 126.711 131.051 132.951 131.051 132.951C131.051 132.951 138.92 138.921 143.261 132.771C143.261 132.771 145.16 120.561 145.16 116.31C145.16 116.219 151.129 116.853 152.577 106.18C153.933 96.322 147.06 94.2418 145.432 93.6991C144.075 93.1565 145.522 101.206 134.036 103.286Z" fill="#FFA47E"/>
<path d="M151.31 109.436L147.15 108.894C147.15 108.894 147.964 110.974 149.592 110.974C150.768 110.974 151.31 109.436 151.31 109.436Z" fill="white"/>
<path d="M134.488 104.643C133.764 104.281 132.769 104.1 132.408 104.824C132.046 105.547 132.589 106.904 133.312 107.175" fill="#D17B62"/>
<path d="M134.488 104.643C133.764 104.281 132.769 104.1 132.408 104.824C132.046 105.547 132.589 106.904 133.312 107.175" stroke="#D17B62" stroke-width="0.221948" stroke-miterlimit="10"/>
<path d="M150.225 105.276L149.592 108.351L150.587 108.441C150.768 108.441 150.858 108.26 150.858 108.08L150.225 105.276Z" fill="#D17B62" stroke="#D17B62" stroke-width="0.258487" stroke-miterlimit="10"/>
<path d="M150.858 94.6036C150.858 94.6036 142.176 107.537 134.578 103.919C128.428 101.025 134.85 85.107 142.085 89.0865C149.321 93.066 150.858 94.6036 150.858 94.6036Z" fill="#000B33"/>
<path d="M145.251 116.219C145.251 116.219 141.814 115.948 139.01 113.325C137.382 111.878 140.095 118.209 144.889 118.752C144.889 118.842 144.979 118.3 145.251 116.219Z" fill="#D17B62" stroke="#D17B62" stroke-width="0.258487" stroke-miterlimit="10"/>
<path d="M146.879 103.196C146.517 103.648 146.788 101.929 147.421 101.568C148.054 101.206 148.778 101.387 149.049 101.839C149.049 101.929 147.783 102.11 146.879 103.196Z" fill="#000B33"/>
<path d="M152.757 102.472C152.124 102.201 151.943 102.382 151.672 103.015C151.672 103.015 152.577 103.196 152.848 103.648" fill="#000B33"/>
<path d="M148.326 105.638C148.326 106.09 148.416 106.542 148.688 106.542C148.959 106.542 149.14 106.18 149.23 105.728C149.23 105.276 149.14 104.824 148.869 104.824C148.597 104.733 148.416 105.185 148.326 105.638Z" fill="#000B33"/>
<path d="M150.949 105.728C150.949 106.18 151.039 106.542 151.31 106.633C151.491 106.633 151.763 106.271 151.763 105.819C151.763 105.366 151.672 105.005 151.401 104.914C151.22 104.914 150.949 105.276 150.949 105.728Z" fill="#000B33"/>
<path opacity="0.37" d="M140.095 108.713C140.186 110.16 141.452 111.245 142.899 111.155C144.346 111.064 145.432 109.798 145.341 108.351C145.251 106.904 143.984 105.819 142.537 105.909C141.09 105.999 140.005 107.266 140.095 108.713Z" fill="#FF764F" stroke="#FF764F" stroke-width="0.258487" stroke-miterlimit="10"/>
<path d="M144.346 124.269C146.608 128.339 155.381 141.544 154.295 148.327C153.572 152.939 155.561 169.491 155.561 169.491C155.561 169.491 134.036 173.47 111.425 164.516C111.516 152.759 111.425 140.096 118.389 128.429C118.389 128.429 129.966 121.103 132.408 121.194C132.408 121.284 146.608 135.755 144.346 124.269Z" fill="white"/>
<path d="M130.78 125.355C96.5923 121.104 75.6999 172.204 75.6999 172.204L71.9013 184.143C64.7563 194.544 63.5805 199.88 63.5805 199.88L68.1931 193.006L64.2136 203.678C64.1232 203.95 64.9372 203.317 65.1181 203.045L70.002 194.996L66.6556 206.03C66.5652 206.301 66.9269 206.392 67.0174 206.211L72.8057 195.991C72.8057 195.991 69.8211 206.572 70.816 205.758C71.8109 204.944 76.5139 194.544 76.5139 194.544C76.5139 194.544 81.4883 198.252 81.9405 197.98C82.664 197.528 80.6743 193.73 80.3125 189.931C80.0412 187.489 88.5428 169.943 88.5428 169.943C95.4165 156.557 111.696 139.554 133.674 142.629" fill="#FFA47E"/>
<path d="M131.594 121.556C121.555 124.088 107.536 127.525 107.536 127.525L113.686 147.694C113.686 147.694 128.067 140.911 135.664 143.986" fill="white"/>
<path d="M131.956 122.732L129.785 118.933L146.698 121.827L146.065 127.525C146.065 127.525 153.753 143.986 143.171 134.127C132.679 124.179 131.956 122.732 131.956 122.732Z" fill="white"/>
<path d="M130.78 114.501C130.961 112.602 134.578 107.266 134.578 107.266C134.578 107.266 137.925 113.325 137.744 115.225C137.563 117.124 135.845 118.571 133.945 118.39C131.956 118.119 130.599 116.4 130.78 114.501Z" stroke="white" stroke-width="0.808562" stroke-miterlimit="10"/>
<path d="M59.3305 148.508C59.3305 146.337 57.5217 144.528 55.351 144.528C53.1804 144.528 51.3715 146.337 51.3715 148.508C51.3715 150.679 53.1804 152.487 55.351 152.487C57.5217 152.397 59.3305 150.679 59.3305 148.508Z" fill="white"/>
<path d="M32.6498 53.0904C38.3941 53.0904 43.0508 48.4338 43.0508 42.6895C43.0508 36.9452 38.3941 32.2885 32.6498 32.2885C26.9055 32.2885 22.2488 36.9452 22.2488 42.6895C22.2488 48.4338 26.9055 53.0904 32.6498 53.0904Z" stroke="white" stroke-width="0.990805" stroke-miterlimit="10"/>
<path d="M587.157 292.313C592.901 292.313 597.558 287.656 597.558 281.912C597.558 276.167 592.901 271.511 587.157 271.511C581.413 271.511 576.756 276.167 576.756 281.912C576.756 287.656 581.413 292.313 587.157 292.313Z" stroke="white" stroke-width="0.990805" stroke-miterlimit="10"/>
<path d="M27.6754 339.795C33.4197 339.795 38.0764 335.139 38.0764 329.394C38.0764 323.65 33.4197 318.993 27.6754 318.993C21.9311 318.993 17.2745 323.65 17.2745 329.394C17.2745 335.139 21.9311 339.795 27.6754 339.795Z" stroke="white" stroke-width="0.990805" stroke-miterlimit="10"/>
<path d="M551.07 40.2475C556.814 40.2475 561.471 35.5908 561.471 29.8465C561.471 24.1022 556.814 19.4456 551.07 19.4456C545.326 19.4456 540.669 24.1022 540.669 29.8465C540.669 35.5908 545.326 40.2475 551.07 40.2475Z" stroke="white" stroke-width="0.990805" stroke-miterlimit="10"/>
<path d="M547.633 290.866C549.831 290.866 551.613 289.084 551.613 286.886C551.613 284.688 549.831 282.907 547.633 282.907C545.435 282.907 543.654 284.688 543.654 286.886C543.654 289.084 545.435 290.866 547.633 290.866Z" fill="white"/>
<path d="M493.277 46.669C495.475 46.669 497.256 44.8873 497.256 42.6895C497.256 40.4917 495.475 38.71 493.277 38.71C491.079 38.71 489.297 40.4917 489.297 42.6895C489.297 44.8873 491.079 46.669 493.277 46.669Z" fill="#1B314F"/>
<path d="M65.2093 312.572C65.2093 310.401 63.4005 308.592 61.2298 308.592C59.0592 308.592 57.2503 310.401 57.2503 312.572C57.2503 314.743 59.0592 316.551 61.2298 316.551C63.4909 316.551 65.2093 314.743 65.2093 312.572Z" fill="#1B314F"/>
<path d="M225.384 17.9985C227.582 17.9985 229.364 16.2168 229.364 14.019C229.364 11.8212 227.582 10.0395 225.384 10.0395C223.186 10.0395 221.405 11.8212 221.405 14.019C221.405 16.2168 223.186 17.9985 225.384 17.9985Z" fill="#4475AB"/>
<path d="M600 169.219C600 167.049 598.191 165.24 596.02 165.24C593.85 165.24 592.041 167.049 592.041 169.219C592.041 171.39 593.85 173.199 596.02 173.199C598.281 173.199 600 171.39 600 169.219Z" fill="#4475AB"/>
<path d="M3.9793 116.853C6.17712 116.853 7.9588 115.071 7.9588 112.873C7.9588 110.676 6.17712 108.894 3.9793 108.894C1.78148 108.894 -0.000198364 110.676 -0.000198364 112.873C-0.000198364 115.071 1.78148 116.853 3.9793 116.853Z" fill="#4475AB"/>
</g>
<defs>
<clipPath id="clip0_48_11599">
<rect width="600" height="360.145" fill="white" transform="translate(-0.000244141 3.05176e-05)"/>
</clipPath>
</defs>
</svg>
