<svg width="500" height="500" viewBox="0 0 500 500" fill="none" xmlns="http://www.w3.org/2000/svg">
<path d="M238.4 341.53H45.3101C43.7965 341.527 42.3457 340.925 41.2754 339.855C40.2052 338.784 39.6027 337.334 39.6001 335.82V64.39C39.6159 62.8851 40.2241 61.4471 41.293 60.3876C42.3618 59.3281 43.8051 58.7325 45.3101 58.73H238.4C239.913 58.7326 241.363 59.3354 242.431 60.4059C243.5 61.4765 244.1 62.9273 244.1 64.44V335.82C244.1 337.333 243.5 338.783 242.431 339.854C241.363 340.925 239.913 341.527 238.4 341.53ZM45.3101 58.93C43.8628 58.9326 42.4756 59.5087 41.4522 60.5321C40.4288 61.5555 39.8527 62.9427 39.8501 64.39V335.82C39.8527 337.267 40.4288 338.654 41.4522 339.678C42.4756 340.701 43.8628 341.277 45.3101 341.28H238.4C239.846 341.277 241.233 340.701 242.254 339.677C243.276 338.654 243.85 337.266 243.85 335.82V64.39C243.85 62.9436 243.276 61.5564 242.254 60.5327C241.233 59.509 239.846 58.9326 238.4 58.93H45.3101Z" fill="#E6E6E6"/>
<path d="M454.7 341.53H261.6C260.087 341.527 258.637 340.925 257.569 339.854C256.5 338.783 255.9 337.333 255.9 335.82V64.39C255.913 62.886 256.519 61.448 257.586 60.3882C258.654 59.3284 260.096 58.7326 261.6 58.73H454.7C456.204 58.7326 457.646 59.3284 458.713 60.3882C459.781 61.448 460.387 62.886 460.4 64.39V335.82C460.4 337.333 459.8 338.783 458.731 339.854C457.662 340.925 456.213 341.527 454.7 341.53ZM261.6 58.93C260.154 58.9326 258.767 59.509 257.746 60.5327C256.724 61.5564 256.15 62.9436 256.15 64.39V335.82C256.15 337.266 256.724 338.654 257.746 339.677C258.767 340.701 260.154 341.277 261.6 341.28H454.7C456.148 341.277 457.536 340.702 458.561 339.678C459.586 338.655 460.165 337.268 460.17 335.82V64.39C460.165 62.9418 459.586 61.5546 458.561 60.5315C457.536 59.5084 456.148 58.9326 454.7 58.93H261.6Z" fill="#E6E6E6"/>
<path d="M95 392.21H53.79V392.46H95V392.21Z" fill="#E0E0E0"/>
<path d="M179 390.21H137.67V390.46H179V390.21Z" fill="#E0E0E0"/>
<path d="M232.78 390.21H222.78V390.46H232.78V390.21Z" fill="#E0E0E0"/>
<path d="M132.83 398.75H86.5801V399H132.83V398.75Z" fill="#E0E0E0"/>
<path d="M292.8 392.08H271.2V392.33H292.8V392.08Z" fill="#E0E0E0"/>
<path d="M329.63 392.08H301.7V392.33H329.63V392.08Z" fill="#E0E0E0"/>
<path d="M464.33 396.31H401.89V396.56H464.33V396.31Z" fill="#E0E0E0"/>
<path d="M500 382.4H0V382.65H500V382.4Z" fill="#E0E0E0"/>
<path d="M169.82 289H189.25V277.84C189.25 276.564 188.999 275.3 188.51 274.12C188.022 272.941 187.306 271.87 186.403 270.967C185.501 270.064 184.429 269.348 183.25 268.86C182.07 268.372 180.807 268.12 179.53 268.12C176.954 268.123 174.484 269.148 172.663 270.971C170.843 272.793 169.82 275.264 169.82 277.84V289Z" fill="#F0F0F0"/>
<path d="M179.65 286.56C184.179 286.56 187.85 282.889 187.85 278.36C187.85 273.831 184.179 270.16 179.65 270.16C175.121 270.16 171.45 273.831 171.45 278.36C171.45 282.889 175.121 286.56 179.65 286.56Z" fill="white"/>
<path d="M179.77 284.94C183.404 284.94 186.35 281.994 186.35 278.36C186.35 274.726 183.404 271.78 179.77 271.78C176.136 271.78 173.19 274.726 173.19 278.36C173.19 281.994 176.136 284.94 179.77 284.94Z" fill="#EBEBEB"/>
<path d="M179 278.5C178.988 278.6 178.998 278.701 179.028 278.797C179.058 278.892 179.108 278.981 179.174 279.056C179.241 279.131 179.323 279.191 179.414 279.232C179.506 279.273 179.605 279.294 179.705 279.294C179.805 279.294 179.905 279.273 179.996 279.232C180.088 279.191 180.169 279.131 180.236 279.056C180.303 278.981 180.353 278.892 180.383 278.797C180.413 278.701 180.422 278.6 180.41 278.5C180.422 278.401 180.413 278.3 180.383 278.204C180.353 278.108 180.303 278.02 180.236 277.945C180.169 277.87 180.088 277.81 179.996 277.768C179.905 277.727 179.805 277.706 179.705 277.706C179.605 277.706 179.506 277.727 179.414 277.768C179.323 277.81 179.241 277.87 179.174 277.945C179.108 278.02 179.058 278.108 179.028 278.204C178.998 278.3 178.988 278.401 179 278.5Z" fill="#FAFAFA"/>
<path d="M179.79 278.76L182.8 275.93L182.5 275.62L179.78 278.19L174.89 273.87L174.61 274.19L179.79 278.76Z" fill="#FAFAFA"/>
<path d="M98.7298 204.695C107.677 195.748 107.677 181.242 98.7298 172.295C89.7829 163.348 75.2771 163.348 66.3302 172.295C57.3833 181.242 57.3833 195.748 66.3302 204.695C75.2771 213.642 89.7829 213.642 98.7298 204.695Z" fill="#F0F0F0"/>
<path d="M82.6001 211.91C79.4831 211.975 76.3847 211.416 73.4862 210.268C70.5878 209.12 67.9477 207.405 65.7205 205.223C63.4934 203.041 61.7241 200.437 60.5161 197.563C59.3082 194.689 58.686 191.603 58.686 188.485C58.686 185.368 59.3082 182.281 60.5161 179.407C61.7241 176.533 63.4934 173.929 65.7205 171.747C67.9477 169.566 70.5878 167.851 73.4862 166.702C76.3847 165.554 79.4831 164.996 82.6001 165.06V166.06C76.7425 166.184 71.1665 168.598 67.0677 172.784C62.9688 176.971 60.6733 182.596 60.6733 188.455C60.6733 194.314 62.9688 199.94 67.0677 204.126C71.1665 208.313 76.7425 210.726 82.6001 210.85V211.91Z" fill="white"/>
<path d="M82.6001 211.91V210.91C88.4577 210.786 94.0336 208.372 98.1325 204.186C102.231 200 104.527 194.374 104.527 188.515C104.527 182.656 102.231 177.031 98.1325 172.844C94.0336 168.658 88.4577 166.244 82.6001 166.12V165.12C88.729 165.247 94.5641 167.77 98.8538 172.15C103.144 176.529 105.546 182.415 105.546 188.545C105.546 194.675 103.144 200.561 98.8538 204.941C94.5641 209.32 88.729 211.843 82.6001 211.97V211.91Z" fill="white"/>
<path d="M94.5701 188.49H93.5701C93.5701 180.9 89.7201 170.74 82.3501 166.01L82.9101 165.14C90.5501 170.07 94.5701 180.62 94.5701 188.49Z" fill="white"/>
<path d="M82.8801 211.13L82.3201 210.26C89.6901 205.54 93.5401 195.38 93.5401 187.79H94.5401C94.5701 195.66 90.5501 206.21 82.8801 211.13Z" fill="white"/>
<path d="M71.6599 188.48H70.6599C70.6599 180.61 74.6599 170.06 82.3499 165.14L82.9099 166.01C75.5099 170.73 71.6599 180.89 71.6599 188.48Z" fill="white"/>
<path d="M82.3199 211.13C74.6499 206.2 70.6299 195.66 70.6299 187.78H71.6299C71.6299 195.38 75.4799 205.53 82.8499 210.26L82.3199 211.13Z" fill="white"/>
<path d="M83.1101 165.57H82.0801V211.39H83.1101V165.57Z" fill="white"/>
<path d="M101.99 175.76H63.21V176.79H101.99V175.76Z" fill="white"/>
<path d="M105.5 188.36H59.7V189.39H105.5V188.36Z" fill="white"/>
<path d="M101.48 200.94H63.72V201.97H101.48V200.94Z" fill="white"/>
<path d="M434.94 115.68V110.11L275.49 110.11V115.68L434.94 115.68Z" fill="#F5F5F5"/>
<path d="M318 115.68H291.32V128.18H304.65C304.653 126.662 305.258 125.207 306.332 124.135C307.406 123.062 308.862 122.46 310.38 122.46H318V115.68Z" fill="#E0E0E0"/>
<path d="M305.94 115.68H286.49V128.18H292.6C292.6 127.429 292.748 126.685 293.035 125.991C293.323 125.297 293.744 124.667 294.275 124.136C294.807 123.604 295.437 123.183 296.131 122.896C296.825 122.608 297.569 122.46 298.32 122.46H305.94V115.68Z" fill="#F5F5F5"/>
<path d="M392.45 115.68H419.13V128.18H405.79C405.79 127.428 405.642 126.684 405.354 125.989C405.065 125.294 404.643 124.663 404.111 124.132C403.579 123.601 402.947 123.18 402.252 122.893C401.557 122.606 400.812 122.459 400.06 122.46H392.45V115.68Z" fill="#EBEBEB"/>
<path d="M404.51 115.68H424V128.18H417.89C417.89 126.663 417.287 125.208 416.215 124.136C415.142 123.063 413.687 122.46 412.17 122.46H404.56L404.51 115.68Z" fill="#F5F5F5"/>
<path d="M375.48 99.1302L384.29 83.9502H382.94L373.53 99.1302H375.48Z" fill="#E0E0E0"/>
<path d="M337.33 99.0701L328.63 83.8901H329.98L339.29 99.0701H337.33Z" fill="#E0E0E0"/>
<path d="M337.68 99.0698L338.13 100.09H339.43L339.02 99.0698H337.68Z" fill="#E0E0E0"/>
<path d="M375.15 99.0698L374.71 100.09H373.4L373.82 99.0698H375.15Z" fill="#E0E0E0"/>
<path d="M340.83 106.04H335.42V109.41H340.83V106.04Z" fill="#E0E0E0"/>
<path d="M377.55 106.04H372.14V109.41H377.55V106.04Z" fill="#E0E0E0"/>
<path d="M379.44 107.53L367.68 108.81C360.221 109.61 352.699 109.61 345.24 108.81L333.48 107.53V100.24L343 98.9999C351.916 97.8399 360.944 97.8399 369.86 98.9999L379.41 100.24L379.44 107.53Z" fill="#EBEBEB"/>
<path d="M340.31 104.09C340.31 104.521 340.182 104.943 339.943 105.301C339.703 105.66 339.363 105.939 338.964 106.104C338.566 106.269 338.128 106.312 337.705 106.228C337.282 106.144 336.893 105.937 336.588 105.632C336.284 105.327 336.076 104.938 335.992 104.515C335.908 104.093 335.951 103.654 336.116 103.256C336.281 102.858 336.56 102.517 336.919 102.278C337.277 102.038 337.699 101.91 338.13 101.91C338.708 101.91 339.263 102.14 339.671 102.549C340.08 102.957 340.31 103.512 340.31 104.09Z" fill="white"/>
<path d="M338.13 105.41C338.848 105.41 339.43 104.828 339.43 104.11C339.43 103.392 338.848 102.81 338.13 102.81C337.412 102.81 336.83 103.392 336.83 104.11C336.83 104.828 337.412 105.41 338.13 105.41Z" fill="#E0E0E0"/>
<path d="M350.46 104.11C350.46 104.293 350.387 104.468 350.258 104.598C350.129 104.727 349.953 104.8 349.77 104.8C349.587 104.8 349.412 104.727 349.282 104.598C349.153 104.468 349.08 104.293 349.08 104.11C349.08 103.927 349.153 103.751 349.282 103.622C349.412 103.493 349.587 103.42 349.77 103.42C349.953 103.42 350.129 103.493 350.258 103.622C350.387 103.751 350.46 103.927 350.46 104.11Z" fill="white"/>
<path d="M352.92 104.11C352.92 104.246 352.88 104.38 352.804 104.493C352.728 104.607 352.62 104.695 352.494 104.747C352.368 104.8 352.229 104.813 352.095 104.787C351.962 104.76 351.839 104.694 351.742 104.598C351.646 104.501 351.58 104.378 351.553 104.245C351.527 104.111 351.54 103.972 351.593 103.846C351.645 103.72 351.733 103.612 351.847 103.536C351.96 103.46 352.094 103.42 352.23 103.42C352.413 103.42 352.589 103.493 352.718 103.622C352.847 103.751 352.92 103.927 352.92 104.11Z" fill="white"/>
<path d="M355.37 104.11C355.37 104.246 355.33 104.38 355.254 104.493C355.178 104.607 355.07 104.695 354.944 104.747C354.818 104.8 354.679 104.813 354.545 104.787C354.412 104.76 354.289 104.694 354.192 104.598C354.096 104.501 354.03 104.378 354.003 104.245C353.977 104.111 353.99 103.972 354.042 103.846C354.095 103.72 354.183 103.612 354.297 103.536C354.41 103.46 354.544 103.42 354.68 103.42C354.863 103.42 355.038 103.493 355.168 103.622C355.297 103.751 355.37 103.927 355.37 104.11Z" fill="white"/>
<path d="M357.83 104.11C357.83 104.246 357.789 104.38 357.714 104.493C357.638 104.607 357.53 104.695 357.404 104.747C357.278 104.8 357.139 104.813 357.005 104.787C356.872 104.76 356.749 104.694 356.652 104.598C356.556 104.501 356.49 104.378 356.463 104.245C356.437 104.111 356.45 103.972 356.502 103.846C356.555 103.72 356.643 103.612 356.757 103.536C356.87 103.46 357.003 103.42 357.14 103.42C357.323 103.42 357.498 103.493 357.628 103.622C357.757 103.751 357.83 103.927 357.83 104.11Z" fill="white"/>
<path d="M360.28 104.11C360.28 104.246 360.239 104.38 360.164 104.493C360.088 104.607 359.98 104.695 359.854 104.747C359.728 104.8 359.589 104.813 359.455 104.787C359.321 104.76 359.198 104.694 359.102 104.598C359.005 104.501 358.94 104.378 358.913 104.245C358.887 104.111 358.9 103.972 358.952 103.846C359.005 103.72 359.093 103.612 359.207 103.536C359.32 103.46 359.453 103.42 359.59 103.42C359.773 103.42 359.948 103.493 360.078 103.622C360.207 103.751 360.28 103.927 360.28 104.11Z" fill="white"/>
<path d="M362.74 104.11C362.74 104.246 362.7 104.38 362.624 104.493C362.548 104.607 362.44 104.695 362.314 104.747C362.188 104.8 362.049 104.813 361.915 104.787C361.782 104.76 361.659 104.694 361.562 104.598C361.466 104.501 361.4 104.378 361.373 104.245C361.347 104.111 361.36 103.972 361.413 103.846C361.465 103.72 361.553 103.612 361.667 103.536C361.78 103.46 361.914 103.42 362.05 103.42C362.233 103.42 362.409 103.493 362.538 103.622C362.667 103.751 362.74 103.927 362.74 104.11Z" fill="white"/>
<path d="M365.19 104.11C365.19 104.247 365.149 104.381 365.073 104.494C364.997 104.608 364.888 104.696 364.762 104.748C364.635 104.8 364.496 104.813 364.362 104.786C364.228 104.758 364.105 104.692 364.009 104.594C363.913 104.497 363.848 104.373 363.822 104.238C363.797 104.104 363.812 103.965 363.866 103.839C363.919 103.713 364.009 103.606 364.124 103.531C364.239 103.457 364.373 103.418 364.51 103.42C364.6 103.42 364.689 103.438 364.773 103.473C364.856 103.507 364.931 103.558 364.994 103.623C365.058 103.687 365.108 103.763 365.141 103.847C365.175 103.93 365.191 104.02 365.19 104.11Z" fill="white"/>
<path d="M133.46 131.76V137.76C137.238 138.059 140.825 139.543 143.71 142L147.98 137.73C143.946 134.168 138.832 132.066 133.46 131.76Z" fill="#F5F5F5"/>
<path d="M130.55 173.82C126.275 173.477 122.262 171.624 119.229 168.591C116.196 165.558 114.343 161.545 114 157.27H108C108.354 163.146 110.847 168.688 115.009 172.851C119.172 177.013 124.714 179.506 130.59 179.86L130.55 173.82Z" fill="#F0F0F0"/>
<path d="M114 154.35C114.351 150.076 116.209 146.066 119.242 143.035C122.275 140.003 126.286 138.148 130.56 137.8V131.8C124.697 132.162 119.168 134.653 115.013 138.806C110.858 142.959 108.364 148.487 108 154.35H114Z" fill="#E0E0E0"/>
<path d="M150 139.84L145.73 144.11C147.886 146.642 149.301 149.721 149.819 153.007C150.336 156.293 149.936 159.658 148.663 162.73C147.39 165.803 145.293 168.465 142.603 170.422C139.913 172.378 136.736 173.554 133.42 173.82V179.82C137.925 179.545 142.262 178.009 145.937 175.389C149.612 172.768 152.477 169.168 154.205 164.999C155.933 160.83 156.455 156.258 155.712 151.807C154.968 147.355 152.989 143.201 150 139.82V139.84Z" fill="#E0E0E0"/>
<path d="M74.5199 382.02H257.23C268.093 382.02 276.9 373.213 276.9 362.35V291.44C276.9 280.577 268.093 271.77 257.23 271.77H74.5199C63.6565 271.77 54.8499 280.577 54.8499 291.44V362.35C54.8499 373.213 63.6565 382.02 74.5199 382.02Z" fill="#E0E0E0"/>
<path d="M86.2201 382.84H268.93C279.794 382.84 288.6 374.033 288.6 363.17V292.26C288.6 281.396 279.794 272.59 268.93 272.59H86.2201C75.3567 272.59 66.5501 281.396 66.5501 292.26V363.17C66.5501 374.033 75.3567 382.84 86.2201 382.84Z" fill="#F5F5F5"/>
<path d="M277.11 324.1H76.7299V296.71C76.7299 294.906 77.0853 293.119 77.7758 291.452C78.4663 289.785 79.4784 288.27 80.7542 286.994C82.0301 285.719 83.5448 284.706 85.2118 284.016C86.8788 283.325 88.6655 282.97 90.4699 282.97H263.37C267.014 282.97 270.509 284.418 273.086 286.994C275.662 289.571 277.11 293.066 277.11 296.71V324.1Z" fill="#E0E0E0"/>
<path d="M263.37 370.81H90.4599C86.8158 370.81 83.321 369.362 80.7442 366.786C78.1675 364.209 76.7199 360.714 76.7199 357.07V329.68H277.11V357.07C277.11 360.714 275.662 364.209 273.086 366.786C270.509 369.362 267.014 370.81 263.37 370.81Z" fill="#E0E0E0"/>
<path d="M158.35 290.95H129.95V324.39H158.35V290.95Z" fill="#E6E6E6"/>
<path d="M165.62 290.95H158.35V324.39H165.62V290.95Z" fill="#F5F5F5"/>
<path d="M143.83 285.79H122.5V324.39H143.83V285.79Z" fill="#E6E6E6"/>
<path d="M150 285.79H143.83V324.39H150V285.79Z" fill="#F5F5F5"/>
<path d="M137.55 290.95H119.56V324.39H137.55V290.95Z" fill="#EBEBEB"/>
<path d="M141.66 290.95H137.55V324.39H141.66V290.95Z" fill="#F5F5F5"/>
<path d="M122.83 296.61H99.24V324.39H122.83V296.61Z" fill="#E6E6E6"/>
<path d="M128.87 296.61H122.83V324.39H128.87V296.61Z" fill="#F5F5F5"/>
<path d="M110.77 292.32H93.05V324.39H110.77V292.32Z" fill="#E6E6E6"/>
<path d="M115.89 292.32H110.77V324.39H115.89V292.32Z" fill="#F5F5F5"/>
<path d="M105.56 296.61H88.3401V324.39H105.56V296.61Z" fill="#E6E6E6"/>
<path d="M108.97 296.61H105.56V324.39H108.97V296.61Z" fill="#F0F0F0"/>
<path d="M246.73 336.11H218.33V369.55H246.73V336.11Z" fill="#E6E6E6"/>
<path d="M254 336.11H246.73V369.55H254V336.11Z" fill="#F5F5F5"/>
<path d="M232.21 330.95H210.88V369.55H232.21V330.95Z" fill="#E6E6E6"/>
<path d="M238.38 330.95H232.21V369.55H238.38V330.95Z" fill="#F5F5F5"/>
<path d="M149.84 336.11H121.44V369.55H149.84V336.11Z" fill="#E6E6E6"/>
<path d="M157.11 336.11H149.84V369.55H157.11V336.11Z" fill="#F5F5F5"/>
<path d="M135.32 330.95H113.99V369.55H135.32V330.95Z" fill="#E6E6E6"/>
<path d="M141.49 330.95H135.32V369.55H141.49V330.95Z" fill="#F5F5F5"/>
<path d="M225.93 336.11H207.94V369.55H225.93V336.11Z" fill="#EBEBEB"/>
<path d="M230.04 336.11H225.93V369.55H230.04V336.11Z" fill="#F5F5F5"/>
<path d="M211.21 341.76H187.62V369.54H211.21V341.76Z" fill="#E6E6E6"/>
<path d="M217.25 341.76H211.21V369.54H217.25V341.76Z" fill="#F5F5F5"/>
<path d="M199.15 337.48H181.43V369.55H199.15V337.48Z" fill="#E6E6E6"/>
<path d="M204.26 337.48H199.14V369.55H204.26V337.48Z" fill="#F5F5F5"/>
<path d="M193.93 341.76H176.71V369.54H193.93V341.76Z" fill="#E6E6E6"/>
<path d="M197.35 341.76H193.94V369.54H197.35V341.76Z" fill="#F0F0F0"/>
<path d="M443.89 256.93H332.38C332.38 262.51 335.6 267.1 339.69 267.35C351.69 268.08 370.11 270.67 375.96 279.71C386.86 296.57 385.8 355.78 372.75 369.49C368.65 373.79 356.75 382.33 356.75 382.33H419.58C419.58 382.33 408.43 373.62 404.58 369.49C391.58 355.67 391.22 296.49 402.17 279.71C407.79 271.1 425.06 268.32 436.66 267.45C440.7 267.14 443.89 262.51 443.89 256.93Z" fill="#F5F5F5"/>
<path d="M346.2 267.9C357.52 269.14 371.09 272.19 375.96 279.71C377.589 282.426 378.828 285.358 379.64 288.42H398.37C399.21 285.357 400.472 282.425 402.12 279.71C407 272.23 420.69 269.15 431.8 267.9H346.2Z" fill="#E6E6E6"/>
<path d="M396.39 257L394.88 233.37H416.86L418.37 257H396.39Z" fill="#EBEBEB"/>
<path d="M396.39 257L394.88 233.37H393.69L395.21 257H396.39Z" fill="#E0E0E0"/>
<path d="M398.48 254.59L397.27 235.78H414.77L415.98 254.59H398.48Z" fill="#F0F0F0"/>
<path d="M399.82 253.04L398.81 237.32H413.43L414.44 253.04H399.82Z" fill="#FAFAFA"/>
<path d="M389.26 256.93H367.18L369.63 218.74H391.71L389.26 256.93Z" fill="#E6E6E6"/>
<path d="M389.26 256.93H390.31L392.76 218.74H391.71L389.26 256.93Z" fill="#E0E0E0"/>
<path d="M387.26 253.03H369.68L371.63 222.63H389.21L387.26 253.03Z" fill="#F0F0F0"/>
<path d="M385.97 250.53H371.29L372.92 225.14H387.6L385.97 250.53Z" fill="#FAFAFA"/>
<path d="M378.56 236.56C378.748 236.87 379.013 237.127 379.329 237.305C379.645 237.483 380.002 237.577 380.365 237.577C380.728 237.577 381.085 237.483 381.401 237.305C381.717 237.127 381.982 236.87 382.17 236.56C382.659 235.833 382.92 234.976 382.92 234.1C382.92 233.224 382.659 232.367 382.17 231.64C381.982 231.329 381.717 231.073 381.401 230.894C381.085 230.716 380.728 230.623 380.365 230.623C380.002 230.623 379.645 230.716 379.329 230.894C379.013 231.073 378.748 231.329 378.56 231.64C378.071 232.367 377.81 233.224 377.81 234.1C377.81 234.976 378.071 235.833 378.56 236.56Z" fill="#EBEBEB"/>
<path d="M379.64 240.83C379.502 240.603 379.307 240.414 379.075 240.284C378.843 240.153 378.581 240.084 378.315 240.084C378.049 240.084 377.787 240.153 377.555 240.284C377.323 240.414 377.128 240.603 376.99 240.83C375.81 242.44 376.65 245.18 378.32 245.18C380 245.18 380.82 242.44 379.64 240.83Z" fill="#F0F0F0"/>
<path d="M104.44 342.55C108 352.23 117 359.78 127 362.34C142 366.21 157 357.34 172 353.27C198.64 346.04 226.73 354.06 253.34 361.38C279.95 368.7 308.81 375.26 334.59 365.38C356.72 356.92 372.95 337.47 384.17 316.61C405.47 276.96 411.76 231.09 414.88 186.19C416.27 166.19 417.04 145.54 410.71 126.48C404.38 107.42 389.54 90 369.83 86.17C350.91 82.48 331.77 91.74 316.48 103.48C301.19 115.22 287.93 129.75 271.24 139.39C246.92 153.39 217.24 155.77 189.49 151.44C172.31 148.76 143.66 116.19 114.49 128.23C83.4601 141 69.9401 249.3 104.44 342.55Z" fill="#FB6514"/>
<path opacity="0.9" d="M104.44 342.55C108 352.23 117 359.78 127 362.34C142 366.21 157 357.34 172 353.27C198.64 346.04 226.73 354.06 253.34 361.38C279.95 368.7 308.81 375.26 334.59 365.38C356.72 356.92 372.95 337.47 384.17 316.61C405.47 276.96 411.76 231.09 414.88 186.19C416.27 166.19 417.04 145.54 410.71 126.48C404.38 107.42 389.54 90 369.83 86.17C350.91 82.48 331.77 91.74 316.48 103.48C301.19 115.22 287.93 129.75 271.24 139.39C246.92 153.39 217.24 155.77 189.49 151.44C172.31 148.76 143.66 116.19 114.49 128.23C83.4601 141 69.9401 249.3 104.44 342.55Z" fill="white"/>
<path d="M250 421.39C357.083 421.39 443.89 416.322 443.89 410.07C443.89 403.818 357.083 398.75 250 398.75C142.918 398.75 56.1101 403.818 56.1101 410.07C56.1101 416.322 142.918 421.39 250 421.39Z" fill="#F5F5F5"/>
<path d="M391.11 335.67C381.11 343.38 378.22 360.27 377.71 372.17C377.71 373.26 375.98 373.26 376.02 372.17C376.55 359.57 379.42 342.56 390.26 334.17C391.12 333.5 391.97 334.97 391.11 335.63V335.67Z" fill="#263238"/>
<path d="M367.89 327C370.44 326.71 372.59 329.32 373.7 331.23C379.45 341.18 377.23 356.23 376.14 366.88C376.03 367.95 374.33 367.96 374.44 366.88C375.5 356.49 377.44 342.95 372.74 333.07C371.93 331.38 370.21 328.43 367.89 328.7C366.81 328.82 366.82 327.13 367.89 327Z" fill="#263238"/>
<path d="M361.69 340.7C372.39 338.06 373.69 361.79 374.04 366.91C374.11 368 372.42 367.99 372.35 366.91C371.92 359.98 371.58 350.06 366.57 344.51C365.57 343.39 363.8 341.92 362.14 342.34C361.08 342.6 360.63 340.96 361.69 340.7Z" fill="#263238"/>
<path d="M393.41 352.22C384.56 345.66 381.68 362.88 381.19 367.85C381.08 368.92 379.39 368.93 379.5 367.85C380.05 362.22 380.91 352.01 387.41 349.65C388.558 349.275 389.778 349.181 390.97 349.374C392.161 349.567 393.289 350.042 394.26 350.76C395.13 351.4 394.26 352.87 393.41 352.22Z" fill="#263238"/>
<path d="M358.21 355.33C358.879 354.623 359.704 354.081 360.618 353.748C361.533 353.415 362.513 353.299 363.48 353.41C368.88 354.31 370.37 362.41 371.19 366.68C371.4 367.75 369.77 368.2 369.56 367.13C368.85 363.49 365.45 350.41 359.41 356.52C359.247 356.652 359.042 356.719 358.832 356.709C358.623 356.698 358.425 356.611 358.276 356.463C358.128 356.316 358.039 356.118 358.026 355.909C358.014 355.7 358.08 355.494 358.21 355.33Z" fill="#263238"/>
<path d="M390.08 410.82H364.49C362.188 408.876 360.338 406.454 359.068 403.722C357.799 400.989 357.141 398.013 357.14 395C357.14 387.74 361.22 366 361.22 366H393.35C393.35 366 397.43 387.77 397.43 395C397.429 398.013 396.771 400.989 395.502 403.722C394.233 406.454 392.382 408.876 390.08 410.82Z" fill="#263238"/>
<path d="M394.16 360.57C386.44 360.57 378.88 357.44 377.29 353.57C375.7 349.7 380.65 346.57 388.37 346.57C390.856 346.576 393.332 346.892 395.74 347.51C397.878 346.857 400.105 346.539 402.34 346.57C410.06 346.57 417.61 349.7 419.21 353.57C420.81 357.44 415.85 360.57 408.13 360.57H394.16Z" fill="#FB6514"/>
<path opacity="0.1" d="M394.16 360.57C386.44 360.57 378.88 357.44 377.29 353.57C375.7 349.7 380.65 346.57 388.37 346.57C390.856 346.576 393.332 346.892 395.74 347.51C397.878 346.857 400.105 346.539 402.34 346.57C410.06 346.57 417.61 349.7 419.21 353.57C420.81 357.44 415.85 360.57 408.13 360.57H394.16Z" fill="black"/>
<path d="M343.79 345.61C337.48 345.61 334.92 343.05 338.08 339.89C341.24 336.73 348.91 334.18 355.23 334.18C356.911 334.124 358.587 334.385 360.17 334.95C362.299 334.457 364.475 334.199 366.66 334.18C372.97 334.18 375.53 336.74 372.37 339.89C369.21 343.04 361.54 345.61 355.23 345.61H343.79Z" fill="#FB6514"/>
<path d="M401.86 339.89C393.91 339.89 384.26 336.67 380.28 332.7C376.3 328.73 379.53 325.51 387.48 325.51C390.228 325.548 392.964 325.883 395.64 326.51C397.633 325.79 399.742 325.451 401.86 325.51C409.8 325.51 419.46 328.73 423.43 332.7C427.4 336.67 424.18 339.89 416.24 339.89H401.86Z" fill="#FB6514"/>
<path opacity="0.2" d="M401.86 339.89C393.91 339.89 384.26 336.67 380.28 332.7C376.3 328.73 379.53 325.51 387.48 325.51C390.228 325.548 392.964 325.883 395.64 326.51C397.633 325.79 399.742 325.451 401.86 325.51C409.8 325.51 419.46 328.73 423.43 332.7C427.4 336.67 424.18 339.89 416.24 339.89H401.86Z" fill="white"/>
<path d="M357.7 330.61C353.7 330.61 351.17 329 352 327.01C352.83 325.02 356.71 323.42 360.68 323.42C361.828 323.399 362.973 323.561 364.07 323.9C365.311 323.58 366.588 323.419 367.87 323.42C371.87 323.42 374.39 325.03 373.57 327.01C372.75 328.99 368.86 330.61 364.89 330.61H357.7Z" fill="#FB6514"/>
<path opacity="0.3" d="M357.7 330.61C353.7 330.61 351.17 329 352 327.01C352.83 325.02 356.71 323.42 360.68 323.42C361.828 323.399 362.973 323.561 364.07 323.9C365.311 323.58 366.588 323.419 367.87 323.42C371.87 323.42 374.39 325.03 373.57 327.01C372.75 328.99 368.86 330.61 364.89 330.61H357.7Z" fill="white"/>
<path d="M353.12 359.37C349.12 359.37 345.26 357.76 344.44 355.78C343.62 353.8 346.17 352.18 350.14 352.18C351.422 352.183 352.699 352.347 353.94 352.67C355.037 352.328 356.181 352.163 357.33 352.18C361.33 352.18 365.19 353.79 366.01 355.78C366.83 357.77 364.28 359.37 360.31 359.37H353.12Z" fill="#FB6514"/>
<path opacity="0.2" d="M353.12 359.37C349.12 359.37 345.26 357.76 344.44 355.78C343.62 353.8 346.17 352.18 350.14 352.18C351.422 352.183 352.699 352.347 353.94 352.67C355.037 352.328 356.181 352.163 357.33 352.18C361.33 352.18 365.19 353.79 366.01 355.78C366.83 357.77 364.28 359.37 360.31 359.37H353.12Z" fill="black"/>
<path d="M360.49 370C360.92 367.56 361.22 366 361.22 366H393.35C393.35 366 393.65 367.59 394.08 370H360.49Z" fill="#FB6514"/>
<path d="M359.09 336.34C359.09 336.34 350.28 339.28 347.49 344.12C347.49 344.12 347.93 337.07 359.09 336.34Z" fill="#FAFAFA"/>
<path d="M363.24 324.81C361.821 325.628 360.569 326.707 359.55 327.99C359.795 327.162 360.273 326.421 360.928 325.858C361.582 325.294 362.385 324.93 363.24 324.81Z" fill="#FAFAFA"/>
<path d="M397.43 328C397.43 328 406.98 331.5 412.86 338.11C411.299 335.301 409.079 332.914 406.392 331.153C403.704 329.392 400.629 328.31 397.43 328Z" fill="#FAFAFA"/>
<path d="M397.43 349.26C401.401 350.913 404.855 353.604 407.43 357.05C407.43 357.05 405.66 350.43 397.43 349.26Z" fill="#E6E6E6"/>
<path d="M354.09 354.11C354.797 354.482 355.398 355.028 355.835 355.696C356.272 356.364 356.532 357.133 356.59 357.93C355.421 356.911 354.556 355.589 354.09 354.11Z" fill="#FAFAFA"/>
<path d="M107.55 221C107.877 220.361 108.4 219.843 109.042 219.523C109.685 219.202 110.413 219.096 111.12 219.22C111.829 219.397 112.465 219.789 112.941 220.342C113.418 220.895 113.711 221.583 113.78 222.31C114.271 221.952 114.859 221.753 115.466 221.736C116.073 221.72 116.671 221.889 117.18 222.22C117.689 222.587 118.085 223.088 118.326 223.667C118.566 224.246 118.64 224.881 118.54 225.5C118.822 225.295 119.143 225.151 119.484 225.077C119.824 225.003 120.177 225 120.518 225.07C120.86 225.14 121.183 225.28 121.467 225.481C121.752 225.682 121.991 225.941 122.17 226.24C122.499 226.884 122.567 227.629 122.361 228.322C122.154 229.015 121.688 229.602 121.06 229.96C121.502 230.017 121.907 230.235 122.197 230.573C122.487 230.911 122.642 231.345 122.631 231.79C122.619 232.236 122.443 232.661 122.137 232.984C121.83 233.308 121.414 233.505 120.97 233.54C121.418 233.574 121.84 233.761 122.164 234.071C122.489 234.381 122.696 234.794 122.75 235.24C122.8 235.691 122.694 236.146 122.45 236.53C122.207 236.913 121.84 237.203 121.41 237.35C121.623 237.471 121.806 237.639 121.944 237.841C122.083 238.043 122.175 238.274 122.212 238.516C122.25 238.758 122.232 239.006 122.161 239.24C122.089 239.474 121.966 239.69 121.8 239.87C121.612 240.019 121.39 240.119 121.154 240.163C120.919 240.206 120.676 240.191 120.447 240.119C120.218 240.047 120.01 239.92 119.842 239.75C119.673 239.579 119.549 239.37 119.48 239.14C119.445 239.206 119.396 239.263 119.335 239.307C119.274 239.35 119.204 239.379 119.13 239.39C119.056 239.402 118.981 239.396 118.91 239.374C118.839 239.351 118.774 239.312 118.72 239.26C118.672 239.199 118.638 239.129 118.62 239.054C118.601 238.979 118.599 238.902 118.613 238.826C118.627 238.75 118.658 238.678 118.702 238.615C118.746 238.552 118.804 238.499 118.87 238.46C118.76 238.581 118.62 238.669 118.464 238.716C118.307 238.763 118.141 238.767 117.983 238.727C117.825 238.687 117.681 238.605 117.566 238.489C117.451 238.373 117.369 238.228 117.33 238.07C117.63 239.67 115.72 241.19 114.33 240.42C114.402 240.597 114.436 240.787 114.429 240.978C114.422 241.169 114.376 241.357 114.292 241.529C114.208 241.7 114.088 241.852 113.942 241.975C113.795 242.098 113.624 242.188 113.44 242.24C112.693 242.378 111.921 242.228 111.28 241.82C110.64 241.419 109.913 241.175 109.16 241.11C108.507 241.187 107.87 241.362 107.27 241.63C106.26 241.935 105.186 241.955 104.165 241.686C103.145 241.418 102.219 240.872 101.49 240.11C101.219 240.425 100.872 240.667 100.482 240.811C100.092 240.956 99.6715 240.998 99.2603 240.935C98.8491 240.872 98.4608 240.706 98.1318 240.451C97.8029 240.196 97.5442 239.862 97.3801 239.48C97.3121 239.871 97.1198 240.231 96.8316 240.505C96.5434 240.778 96.1747 240.952 95.7801 241C95.3795 241.006 94.9879 240.881 94.6661 240.642C94.3442 240.403 94.1101 240.065 94.0001 239.68C94.0001 240.03 94.0001 240.38 93.9501 240.74C92.5201 241.08 91.1001 239.22 91.7101 237.81C91.1827 237.786 90.6804 237.578 90.291 237.222C89.9016 236.865 89.65 236.383 89.5801 235.86C89.5243 235.331 89.6518 234.799 89.9412 234.353C90.2306 233.907 90.6645 233.574 91.1701 233.41C90.3035 233.132 89.5464 232.588 89.0065 231.856C88.4665 231.123 88.1712 230.239 88.1623 229.329C88.1535 228.419 88.4316 227.529 88.9571 226.786C89.4827 226.043 90.229 225.485 91.0901 225.19C91.4186 225.059 91.7752 225.016 92.1254 225.063C92.4757 225.11 92.8079 225.247 93.0901 225.46C93.2223 225.577 93.3281 225.721 93.4006 225.882C93.473 226.043 93.5105 226.218 93.5105 226.395C93.5105 226.572 93.473 226.746 93.4006 226.907C93.3281 227.069 93.2223 227.213 93.0901 227.33C92.8542 226.501 92.8922 225.618 93.1985 224.813C93.5048 224.007 94.0631 223.322 94.7901 222.86C95.5258 222.465 96.3776 222.344 97.1941 222.518C98.0106 222.692 98.7391 223.15 99.2501 223.81C99.008 223.443 98.8789 223.014 98.8789 222.575C98.8789 222.136 99.008 221.706 99.2501 221.34C99.4949 220.995 99.8425 220.737 100.243 220.602C100.644 220.467 101.077 220.463 101.48 220.59C101.578 220.038 101.881 219.543 102.327 219.204C102.774 218.864 103.332 218.706 103.89 218.76C104.445 218.882 104.936 219.202 105.271 219.661C105.606 220.119 105.762 220.684 105.71 221.25C105.764 221.044 105.875 220.857 106.03 220.711C106.185 220.565 106.378 220.466 106.587 220.425C106.796 220.385 107.013 220.404 107.211 220.481C107.41 220.558 107.583 220.689 107.71 220.86C108.34 220.69 107.55 221 107.55 221Z" fill="#FB6514"/>
<g opacity="0.4">
<path d="M107.15 231.71C107.367 231.548 107.614 231.432 107.877 231.368C108.14 231.304 108.413 231.295 108.68 231.34C108.942 231.384 109.186 231.502 109.384 231.678C109.583 231.855 109.727 232.085 109.8 232.34C109.854 232.606 109.807 232.882 109.669 233.115C109.53 233.348 109.31 233.521 109.05 233.6C108.41 233.76 107.77 233.23 107.12 233.32C106.892 233.372 106.667 233.442 106.45 233.53C105.968 233.574 105.482 233.513 105.027 233.351C104.571 233.189 104.156 232.929 103.81 232.59C103.529 232.4 103.282 232.163 103.08 231.89C102.98 231.745 102.92 231.576 102.906 231.401C102.892 231.225 102.924 231.049 103 230.89C103.153 230.708 103.354 230.572 103.581 230.498C103.807 230.424 104.049 230.414 104.28 230.47C105.232 230.584 106.132 230.961 106.88 231.56C106.88 231.41 106.88 231.26 106.8 231.11L107.15 231.71Z" fill="#FAFAFA"/>
<path d="M93.5602 230.9C93.8067 230.71 94.0841 230.565 94.3802 230.47C94.5558 230.414 94.746 230.424 94.9143 230.499C95.0826 230.574 95.2174 230.709 95.2928 230.877C95.3683 231.045 95.3791 231.235 95.3233 231.411C95.2675 231.587 95.1489 231.736 94.9902 231.83C94.6358 232.067 94.2258 232.209 93.8002 232.24C93.3702 232.3 92.8002 232.32 92.6102 231.94C92.5483 231.794 92.5343 231.632 92.5703 231.477C92.6062 231.323 92.6902 231.183 92.8102 231.08C93.0607 230.881 93.3504 230.738 93.6602 230.66L93.5602 230.9Z" fill="#FAFAFA"/>
<path d="M115 223.84C115.432 224.025 115.814 224.308 116.117 224.668C116.419 225.027 116.632 225.453 116.74 225.91C116.8 226.19 116.74 226.54 116.55 226.69C116.361 226.765 116.15 226.765 115.96 226.69L113.47 226.1C113.877 226.225 114.257 226.425 114.59 226.69C114.755 226.826 114.882 227.002 114.958 227.202C115.033 227.402 115.055 227.619 115.02 227.83C114.938 228.067 114.782 228.271 114.575 228.411C114.368 228.552 114.12 228.621 113.87 228.61C113.369 228.569 112.891 228.377 112.5 228.06C112.268 227.928 112.07 227.745 111.919 227.525C111.768 227.305 111.669 227.054 111.63 226.79C111.63 226.25 112.3 225.79 112.71 226.1C111.761 225.842 110.86 225.433 110.04 224.89C109.73 224.706 109.464 224.457 109.26 224.16C109.162 224.014 109.103 223.845 109.091 223.669C109.079 223.494 109.113 223.318 109.19 223.16C110.04 221.61 111.11 223.88 111.63 224.08C112.64 224.46 113.76 223.31 115 223.84Z" fill="#FAFAFA"/>
<path d="M118.89 230.43C118.936 230.58 118.94 230.739 118.901 230.891C118.862 231.043 118.782 231.181 118.67 231.29C118.61 231.339 118.539 231.374 118.463 231.393C118.388 231.411 118.309 231.413 118.233 231.398C118.156 231.383 118.084 231.351 118.021 231.304C117.959 231.258 117.907 231.199 117.87 231.13C118.447 231.244 118.972 231.538 119.37 231.97C119.71 232.44 119.63 233.25 119.08 233.43C118.907 233.46 118.729 233.456 118.557 233.416C118.385 233.377 118.223 233.303 118.08 233.2C117.181 232.709 116.325 232.144 115.52 231.51C115.76 232.08 115.17 232.73 114.52 232.78C113.895 232.765 113.29 232.555 112.79 232.18C112.14 231.78 111.4 231.18 111.57 230.43C111.689 230.121 111.924 229.871 112.225 229.733C112.525 229.595 112.868 229.579 113.18 229.69C113.795 229.939 114.331 230.35 114.73 230.88C114.39 230.38 114.88 229.62 115.49 229.54C115.789 229.524 116.087 229.581 116.359 229.707C116.631 229.832 116.868 230.022 117.05 230.26C116.36 229.88 116.2 228.89 117.13 228.77C117.72 228.7 118.74 229.93 118.89 230.43Z" fill="#FAFAFA"/>
<path d="M99.9102 228.21C100.042 228.157 100.184 228.133 100.325 228.139C100.467 228.145 100.606 228.181 100.733 228.245C100.86 228.309 100.971 228.4 101.06 228.51C101.15 228.621 101.214 228.749 101.25 228.886C101.286 229.024 101.292 229.167 101.268 229.307C101.244 229.447 101.19 229.58 101.111 229.698C101.032 229.815 100.928 229.915 100.807 229.989C100.686 230.064 100.551 230.112 100.41 230.13C100.821 230.17 101.201 230.367 101.47 230.68C101.623 230.849 101.702 231.072 101.69 231.3C101.648 231.465 101.55 231.612 101.414 231.715C101.278 231.819 101.111 231.873 100.94 231.87C100.59 231.861 100.247 231.768 99.9402 231.6C100.293 231.592 100.64 231.686 100.94 231.87C101.008 231.918 101.066 231.979 101.11 232.049C101.154 232.12 101.184 232.198 101.197 232.28C101.21 232.362 101.206 232.446 101.186 232.527C101.166 232.608 101.13 232.683 101.08 232.75C100.965 232.832 100.832 232.883 100.692 232.898C100.552 232.914 100.41 232.894 100.28 232.84C99.674 232.668 99.1182 232.353 98.6602 231.92C98.4954 232.12 98.2848 232.277 98.0463 232.378C97.8078 232.479 97.5484 232.521 97.2902 232.5C97.1639 232.481 97.0429 232.436 96.9344 232.369C96.8259 232.301 96.7323 232.213 96.6594 232.108C96.5864 232.003 96.5355 231.884 96.5099 231.759C96.4842 231.634 96.4843 231.505 96.5102 231.38C96.581 231.211 96.6968 231.065 96.8449 230.957C96.993 230.85 97.1678 230.785 97.3502 230.77C97.7181 230.751 98.0859 230.809 98.4302 230.94C98.0387 230.713 97.7356 230.361 97.5702 229.94C97.4402 229.52 97.7202 228.94 98.1602 229C98.6002 229.06 98.9002 229.7 99.2902 229.94C99.7602 229.54 98.8602 228.6 99.9102 228.21Z" fill="#FAFAFA"/>
<path d="M108.77 226.16C109.031 226.375 109.233 226.654 109.357 226.968C109.481 227.283 109.524 227.624 109.48 227.96C109.486 228.334 109.391 228.702 109.204 229.026C109.017 229.35 108.747 229.618 108.42 229.8C108.189 229.874 107.946 229.897 107.705 229.869C107.465 229.841 107.233 229.761 107.026 229.636C106.819 229.511 106.64 229.344 106.503 229.144C106.366 228.945 106.273 228.718 106.23 228.48C106.181 227.991 106.283 227.498 106.523 227.069C106.762 226.64 107.128 226.295 107.57 226.08C107.762 225.996 107.971 225.96 108.18 225.974C108.389 225.988 108.591 226.052 108.77 226.16Z" fill="#FAFAFA"/>
<path d="M102.49 225.36L102.26 225.56C102.405 225.378 102.603 225.247 102.826 225.183C103.049 225.119 103.286 225.126 103.505 225.203C103.724 225.28 103.914 225.423 104.048 225.612C104.182 225.801 104.254 226.028 104.254 226.26C104.254 226.492 104.182 226.718 104.048 226.907C103.914 227.097 103.724 227.24 103.505 227.316C103.286 227.393 103.049 227.4 102.826 227.336C102.603 227.272 102.405 227.141 102.26 226.96C101.932 227.125 101.559 227.178 101.198 227.112C100.837 227.045 100.507 226.861 100.26 226.59C100.147 226.452 100.065 226.293 100.017 226.122C99.9692 225.95 99.9577 225.771 99.9831 225.595C100.009 225.419 100.07 225.25 100.164 225.1C100.259 224.949 100.383 224.82 100.53 224.72C100.684 224.631 100.859 224.584 101.036 224.585C101.214 224.586 101.388 224.635 101.541 224.725C101.693 224.816 101.819 224.946 101.905 225.101C101.991 225.257 102.034 225.432 102.03 225.61L102.3 225.31L102.49 225.36Z" fill="#FAFAFA"/>
<path d="M95.5702 226.48C96.0483 226.881 96.4165 227.397 96.6402 227.98C96.7366 228.278 96.7171 228.601 96.5854 228.884C96.4537 229.168 96.2197 229.392 95.9302 229.51C95.3302 229.66 94.7602 229.16 94.4102 228.65C94.2355 228.43 94.1125 228.174 94.0501 227.901C93.9878 227.627 93.9878 227.343 94.0502 227.07C94.2202 226.54 94.9902 226.23 95.3702 226.64L95.5702 226.48Z" fill="#FAFAFA"/>
<path d="M105.55 222.84C105.614 222.718 105.701 222.611 105.808 222.524C105.915 222.438 106.038 222.375 106.17 222.338C106.303 222.302 106.441 222.293 106.577 222.312C106.713 222.331 106.843 222.378 106.96 222.45C107.186 222.611 107.353 222.843 107.432 223.109C107.512 223.376 107.501 223.661 107.4 223.92C107.287 224.172 107.109 224.39 106.884 224.552C106.659 224.714 106.396 224.813 106.12 224.84C105.44 224.92 104.63 224.37 104.79 223.7C104.629 223.882 104.425 224.023 104.196 224.108C103.968 224.193 103.722 224.222 103.48 224.19C103 224.115 102.54 223.941 102.13 223.68C101.56 223.35 100.95 222.84 101.01 222.19C101.046 221.925 101.173 221.682 101.367 221.5C101.562 221.317 101.814 221.208 102.08 221.19C102.344 221.18 102.607 221.223 102.854 221.316C103.101 221.408 103.328 221.549 103.52 221.73C103.812 222.022 104.119 222.299 104.44 222.56C104.601 222.69 104.793 222.774 104.997 222.804C105.201 222.834 105.409 222.808 105.6 222.73L105.55 222.84Z" fill="#FAFAFA"/>
</g>
<path d="M97.0201 253.73H114.19L115.87 236.43H95.3401L97.0201 253.73Z" fill="#FB6514"/>
<path opacity="0.3" d="M97.0201 253.73H114.19L115.87 236.43H95.3401L97.0201 253.73Z" fill="black"/>
<path d="M94.0101 237.32H117.37L117.79 235.02H93.5901L94.0101 237.32Z" fill="#FAFAFA"/>
<path d="M123.31 264.58H130.83L131.05 408.64C131.05 409.365 130.763 410.06 130.251 410.574C129.739 411.088 129.045 411.377 128.32 411.38C127.601 411.38 126.911 411.097 126.4 410.591C125.889 410.086 125.598 409.399 125.59 408.68L123.31 264.58Z" fill="#263238"/>
<path opacity="0.2" d="M123.31 264.58H130.83L131.05 408.64C131.05 409.365 130.763 410.06 130.251 410.574C129.739 411.088 129.045 411.377 128.32 411.38C127.601 411.38 126.911 411.097 126.4 410.591C125.889 410.086 125.598 409.399 125.59 408.68L123.31 264.58Z" fill="white"/>
<path d="M82.1799 264.58H89.7099L89.9199 408.64C89.9212 408.999 89.8516 409.356 89.715 409.688C89.5784 410.02 89.3775 410.322 89.1239 410.577C88.8702 410.832 88.5688 411.034 88.237 411.171C87.9051 411.309 87.5493 411.38 87.1899 411.38C86.4711 411.38 85.7812 411.097 85.2701 410.591C84.7589 410.086 84.4678 409.399 84.4599 408.68L82.1799 264.58Z" fill="#263238"/>
<path opacity="0.2" d="M82.1799 264.58H89.7099L89.9199 408.64C89.9212 408.999 89.8516 409.356 89.715 409.688C89.5784 410.02 89.3775 410.322 89.1239 410.577C88.8702 410.832 88.5688 411.034 88.237 411.171C87.9051 411.309 87.5493 411.38 87.1899 411.38C86.4711 411.38 85.7812 411.097 85.2701 410.591C84.7589 410.086 84.4678 409.399 84.4599 408.68L82.1799 264.58Z" fill="white"/>
<path d="M302.19 264.58H309.72L309.93 408.64C309.931 408.999 309.862 409.356 309.725 409.688C309.588 410.02 309.388 410.322 309.134 410.577C308.88 410.832 308.579 411.034 308.247 411.171C307.915 411.309 307.559 411.38 307.2 411.38C306.481 411.38 305.791 411.097 305.28 410.591C304.769 410.086 304.478 409.399 304.47 408.68L302.19 264.58Z" fill="#263238"/>
<path opacity="0.2" d="M302.19 264.58H309.72L309.93 408.64C309.931 408.999 309.862 409.356 309.725 409.688C309.588 410.02 309.388 410.322 309.134 410.577C308.88 410.832 308.579 411.034 308.247 411.171C307.915 411.309 307.559 411.38 307.2 411.38C306.481 411.38 305.791 411.097 305.28 410.591C304.769 410.086 304.478 409.399 304.47 408.68L302.19 264.58Z" fill="white"/>
<path d="M261.07 264.58H268.59L268.81 408.64C268.81 409.365 268.523 410.06 268.011 410.574C267.499 411.088 266.805 411.377 266.08 411.38C265.36 411.38 264.669 411.097 264.156 410.592C263.644 410.087 263.35 409.4 263.34 408.68L261.07 264.58Z" fill="#263238"/>
<path opacity="0.2" d="M261.07 264.58H268.59L268.81 408.64C268.81 409.365 268.523 410.06 268.011 410.574C267.499 411.088 266.805 411.377 266.08 411.38C265.36 411.38 264.669 411.097 264.156 410.592C263.644 410.087 263.35 409.4 263.34 408.68L261.07 264.58Z" fill="white"/>
<path d="M82.4799 291.58L309.01 289.88V264.58H82.4299L82.4799 291.58Z" fill="#FB6514"/>
<path opacity="0.3" d="M123.31 264.77L123.73 291.26L82.4799 291.58L82.4299 264.58L123.31 264.77Z" fill="black"/>
<path d="M317.83 258.51C317.83 255.1 316.56 252.34 315 252.33H78.9999C77.4399 252.33 76.1699 255.1 76.1699 258.51C76.1699 261.91 77.4399 264.67 78.9999 264.69H315C316.56 264.67 317.83 261.91 317.83 258.51Z" fill="#263238"/>
<path opacity="0.1" d="M317.83 258.51C317.83 255.1 316.56 252.34 315 252.33H78.9999C77.4399 252.33 76.1699 255.1 76.1699 258.51C76.1699 261.91 77.4399 264.67 78.9999 264.69H315C316.56 264.67 317.83 261.91 317.83 258.51Z" fill="white"/>
<path opacity="0.3" d="M137.09 258.51C137.09 255.1 135.82 252.34 134.25 252.33H78.9999C77.4399 252.33 76.1699 255.1 76.1699 258.51C76.1699 261.91 77.4399 264.67 78.9999 264.69H134.24C135.82 264.67 137.08 261.91 137.09 258.51Z" fill="black"/>
<path d="M231.08 135.57C230.356 135.57 229.662 135.283 229.15 134.771C228.638 134.259 228.35 133.564 228.35 132.84V126.11H227C226.069 126.11 225.176 125.74 224.518 125.082C223.86 124.424 223.49 123.531 223.49 122.6V90.7302C223.495 89.8045 223.866 88.9184 224.522 88.2647C225.177 87.6111 226.064 87.2429 226.99 87.2402H276.73C277.658 87.2402 278.548 87.609 279.205 88.2654C279.861 88.9217 280.23 89.812 280.23 90.7402V122.6C280.23 123.531 279.86 124.424 279.202 125.082C278.544 125.74 277.651 126.11 276.72 126.11H244.22L232.72 135C232.251 135.366 231.674 135.566 231.08 135.57ZM227 88.2402C226.339 88.2428 225.707 88.5057 225.239 88.9718C224.771 89.4379 224.505 90.0697 224.5 90.7302V122.6C224.503 123.265 224.768 123.902 225.238 124.372C225.708 124.842 226.345 125.108 227.01 125.11H229.33V132.84C229.33 133.299 229.512 133.739 229.837 134.064C230.161 134.388 230.601 134.57 231.06 134.57C231.42 134.561 231.769 134.443 232.06 134.23L243.85 125.11H276.69C277.355 125.108 277.992 124.842 278.462 124.372C278.932 123.902 279.197 123.265 279.2 122.6V90.7402C279.2 90.0772 278.937 89.4413 278.468 88.9725C277.999 88.5036 277.363 88.2402 276.7 88.2402H227Z" fill="#FB6514"/>
<path d="M249.21 83.2598H242.98V84.0198H249.21V83.2598Z" fill="#FB6514"/>
<path d="M220.08 92.24H219.31V88.48C219.313 87.092 219.866 85.7617 220.848 84.7812C221.831 83.8007 223.162 83.25 224.55 83.25H238.44V84H224.55C223.365 84 222.228 84.4709 221.389 85.3092C220.551 86.1475 220.08 87.2845 220.08 88.47V92.24Z" fill="#FB6514"/>
<path d="M240.65 109.41C242.473 109.41 243.95 107.933 243.95 106.11C243.95 104.288 242.473 102.81 240.65 102.81C238.828 102.81 237.35 104.288 237.35 106.11C237.35 107.933 238.828 109.41 240.65 109.41Z" fill="#FB6514"/>
<path d="M255.08 106.11C255.082 106.765 254.889 107.406 254.527 107.952C254.164 108.497 253.648 108.923 253.044 109.175C252.439 109.427 251.773 109.494 251.13 109.368C250.488 109.241 249.897 108.927 249.433 108.464C248.969 108.002 248.653 107.412 248.524 106.769C248.396 106.127 248.461 105.461 248.711 104.856C248.961 104.25 249.385 103.733 249.93 103.369C250.475 103.004 251.115 102.81 251.77 102.81C252.646 102.81 253.486 103.157 254.107 103.776C254.727 104.395 255.077 105.234 255.08 106.11Z" fill="#FB6514"/>
<path d="M262.9 109.41C264.723 109.41 266.2 107.933 266.2 106.11C266.2 104.288 264.723 102.81 262.9 102.81C261.078 102.81 259.6 104.288 259.6 106.11C259.6 107.933 261.078 109.41 262.9 109.41Z" fill="#FB6514"/>
<path d="M142 186.47L146 186.28L151.57 247.85H147.36C145.25 247.65 144.76 245.29 144.17 240.85L140.27 197.85C139.29 187.66 141 186.47 142 186.47Z" fill="#FB6514"/>
<path opacity="0.3" d="M142 186.47L146 186.28L151.57 247.85H147.36C145.25 247.65 144.76 245.29 144.17 240.85L140.27 197.85C139.29 187.66 141 186.47 142 186.47Z" fill="black"/>
<path d="M148.29 247.85H231.73C231.96 247.835 232.184 247.77 232.387 247.662C232.59 247.553 232.768 247.403 232.909 247.22C233.05 247.038 233.15 246.828 233.204 246.604C233.257 246.38 233.263 246.147 233.22 245.92L228 188.21C227.984 187.717 227.786 187.247 227.445 186.891C227.103 186.534 226.642 186.317 226.15 186.28H142.71C142.48 186.296 142.256 186.36 142.053 186.469C141.85 186.578 141.672 186.728 141.531 186.91C141.39 187.093 141.29 187.303 141.236 187.527C141.183 187.751 141.177 187.984 141.22 188.21L146.44 245.92C146.456 246.414 146.654 246.884 146.995 247.24C147.337 247.596 147.798 247.814 148.29 247.85Z" fill="#FB6514"/>
<path d="M151.49 240.56H227.27L223.07 192.52H147.29L151.49 240.56Z" fill="#FB6514"/>
<path d="M152.53 244.32H227.21C227.702 244.329 228.189 244.232 228.641 244.038C229.092 243.843 229.497 243.555 229.828 243.191C230.159 242.828 230.409 242.398 230.561 241.931C230.714 241.463 230.764 240.969 230.71 240.48L226.53 192.74C226.423 191.702 225.939 190.74 225.171 190.034C224.403 189.329 223.403 188.929 222.36 188.91H147.68C147.19 188.903 146.704 189 146.254 189.195C145.804 189.389 145.401 189.677 145.07 190.039C144.739 190.401 144.489 190.829 144.336 191.294C144.182 191.76 144.129 192.252 144.18 192.74L148.36 240.48C148.465 241.519 148.948 242.484 149.716 243.192C150.484 243.899 151.486 244.301 152.53 244.32Z" fill="#263238"/>
<path d="M151.49 240.56H227.27L223.07 192.52H147.29L151.49 240.56Z" fill="#FB6514"/>
<path opacity="0.4" d="M151.49 240.56H227.27L223.07 192.52H147.29L151.49 240.56Z" fill="white"/>
<path opacity="0.1" d="M173.29 188.93L158.49 244.3H163.47L178.11 188.93H173.29Z" fill="white"/>
<path opacity="0.1" d="M180.98 188.93L166.18 244.3H176.05L190.69 188.93H180.98Z" fill="white"/>
<path d="M158.21 206.85C158.285 207.331 158.253 207.823 158.117 208.291C157.981 208.759 157.744 209.191 157.422 209.557C157.101 209.924 156.703 210.215 156.257 210.411C155.811 210.606 155.327 210.702 154.84 210.69C153.784 210.663 152.771 210.262 151.982 209.559C151.193 208.856 150.679 207.896 150.53 206.85C150.454 206.368 150.484 205.875 150.62 205.406C150.755 204.937 150.992 204.503 151.313 204.136C151.635 203.768 152.033 203.476 152.48 203.28C152.927 203.084 153.412 202.988 153.9 203C154.958 203.028 155.972 203.43 156.761 204.135C157.55 204.84 158.064 205.802 158.21 206.85Z" fill="#FB6514"/>
<path opacity="0.3" d="M158.21 206.85C158.285 207.331 158.253 207.823 158.117 208.291C157.981 208.759 157.744 209.191 157.422 209.557C157.101 209.924 156.703 210.215 156.257 210.411C155.811 210.606 155.327 210.702 154.84 210.69C153.784 210.663 152.771 210.262 151.982 209.559C151.193 208.856 150.679 207.896 150.53 206.85C150.454 206.368 150.484 205.875 150.62 205.406C150.755 204.937 150.992 204.503 151.313 204.136C151.635 203.768 152.033 203.476 152.48 203.28C152.927 203.084 153.412 202.988 153.9 203C154.958 203.028 155.972 203.43 156.761 204.135C157.55 204.84 158.064 205.802 158.21 206.85Z" fill="black"/>
<path d="M154.84 210.69C155.617 210.709 156.378 210.466 157 210L156.64 208.8C156.576 208.581 156.445 208.387 156.266 208.246C156.087 208.104 155.868 208.022 155.64 208.01H155.18L155.12 207.51C155.368 207.362 155.565 207.142 155.685 206.88C155.804 206.617 155.841 206.324 155.79 206.04C155.751 205.621 155.565 205.23 155.265 204.935C154.965 204.64 154.57 204.461 154.15 204.43C153.957 204.439 153.768 204.49 153.596 204.579C153.424 204.668 153.274 204.794 153.156 204.947C153.038 205.101 152.955 205.278 152.913 205.467C152.87 205.655 152.869 205.851 152.91 206.04C152.943 206.349 153.051 206.644 153.225 206.901C153.4 207.157 153.635 207.367 153.91 207.51L153.97 208.01H153.51C153.294 208.005 153.085 208.085 152.928 208.233C152.771 208.38 152.678 208.584 152.67 208.8L152.6 210C153.268 210.434 154.044 210.673 154.84 210.69Z" fill="white"/>
<path d="M161 206.12H176.1C176.8 206.12 176.66 205.04 175.97 205.04H160.81C160.12 205.04 160.25 206.12 160.95 206.12H161Z" fill="white"/>
<path d="M161.26 208.66H181.16C181.62 208.66 181.53 207.94 181.07 207.94H161.17C160.71 207.94 160.79 208.66 161.26 208.66Z" fill="white"/>
<path d="M184.9 208.3C184.918 208.406 184.912 208.514 184.883 208.617C184.854 208.721 184.802 208.816 184.731 208.897C184.66 208.977 184.572 209.041 184.473 209.083C184.374 209.125 184.267 209.144 184.16 209.14C183.929 209.131 183.708 209.043 183.535 208.89C183.362 208.737 183.247 208.528 183.21 208.3C183.192 208.194 183.198 208.085 183.228 207.981C183.257 207.878 183.309 207.782 183.38 207.7C183.45 207.619 183.538 207.555 183.637 207.511C183.735 207.468 183.842 207.447 183.95 207.45C184.183 207.459 184.405 207.549 184.578 207.704C184.752 207.859 184.865 208.07 184.9 208.3Z" fill="#263238"/>
<path opacity="0.5" d="M184.9 208.3C184.918 208.406 184.912 208.514 184.883 208.617C184.854 208.721 184.802 208.816 184.731 208.897C184.66 208.977 184.572 209.041 184.473 209.083C184.374 209.125 184.267 209.144 184.16 209.14C183.929 209.131 183.708 209.043 183.535 208.89C183.362 208.737 183.247 208.528 183.21 208.3C183.192 208.194 183.198 208.085 183.228 207.981C183.257 207.878 183.309 207.782 183.38 207.7C183.45 207.619 183.538 207.555 183.637 207.511C183.735 207.468 183.842 207.447 183.95 207.45C184.183 207.459 184.405 207.549 184.578 207.704C184.752 207.859 184.865 208.07 184.9 208.3Z" fill="white"/>
<path d="M147.29 192.52L147.66 196.82H223.44L223.07 192.52H147.29Z" fill="#FB6514"/>
<path d="M150.77 194.43C150.781 194.541 150.769 194.653 150.734 194.759C150.699 194.865 150.641 194.963 150.566 195.045C150.49 195.127 150.398 195.192 150.295 195.236C150.192 195.28 150.082 195.302 149.97 195.3C149.736 195.288 149.514 195.194 149.342 195.035C149.171 194.876 149.06 194.662 149.03 194.43C149.019 194.32 149.031 194.209 149.065 194.104C149.1 194 149.157 193.903 149.231 193.822C149.306 193.741 149.397 193.676 149.499 193.633C149.6 193.589 149.71 193.568 149.82 193.57C150.054 193.579 150.277 193.671 150.451 193.828C150.624 193.985 150.737 194.198 150.77 194.43Z" fill="white"/>
<path d="M153.05 194.43C153.063 194.541 153.052 194.653 153.018 194.759C152.984 194.865 152.928 194.962 152.853 195.044C152.778 195.127 152.686 195.192 152.584 195.236C152.482 195.28 152.371 195.302 152.26 195.3C152.026 195.288 151.804 195.194 151.632 195.035C151.461 194.876 151.35 194.662 151.32 194.43C151.309 194.32 151.321 194.209 151.356 194.104C151.39 194 151.447 193.903 151.521 193.822C151.596 193.741 151.687 193.676 151.789 193.633C151.89 193.589 152 193.568 152.11 193.57C152.342 193.582 152.563 193.674 152.735 193.831C152.906 193.988 153.018 194.2 153.05 194.43Z" fill="white"/>
<path d="M155.34 194.43C155.351 194.54 155.339 194.652 155.304 194.757C155.27 194.862 155.213 194.959 155.139 195.041C155.064 195.123 154.973 195.189 154.872 195.233C154.771 195.278 154.661 195.301 154.55 195.3C154.306 195.302 154.069 195.215 153.885 195.054C153.701 194.894 153.582 194.672 153.55 194.43C153.539 194.32 153.551 194.209 153.586 194.104C153.62 194 153.677 193.903 153.751 193.822C153.826 193.741 153.917 193.676 154.019 193.633C154.12 193.589 154.23 193.568 154.34 193.57C154.583 193.568 154.818 193.653 155.002 193.812C155.186 193.97 155.306 194.19 155.34 194.43Z" fill="white"/>
<path d="M232.59 248.02H147.53C146.53 248.02 145.72 248.83 145.72 249.83V250.91C145.72 251.91 146.53 252.72 147.53 252.72H232.59C233.59 252.72 234.4 251.91 234.4 250.91V249.83C234.4 248.83 233.59 248.02 232.59 248.02Z" fill="#FB6514"/>
<path opacity="0.3" d="M232.59 248.02H147.53C146.53 248.02 145.72 248.83 145.72 249.83V250.91C145.72 251.91 146.53 252.72 147.53 252.72H232.59C233.59 252.72 234.4 251.91 234.4 250.91V249.83C234.4 248.83 233.59 248.02 232.59 248.02Z" fill="black"/>
<path d="M179.47 248H267.42V249.07C267.42 250.03 267.039 250.951 266.36 251.63C265.681 252.309 264.76 252.69 263.8 252.69H183.1C182.14 252.69 181.219 252.309 180.54 251.63C179.861 250.951 179.48 250.03 179.48 249.07V248H179.47Z" fill="#FB6514"/>
<path opacity="0.4" d="M179.47 248H267.42V249.07C267.42 250.03 267.039 250.951 266.36 251.63C265.681 252.309 264.76 252.69 263.8 252.69H183.1C182.14 252.69 181.219 252.309 180.54 251.63C179.861 250.951 179.48 250.03 179.48 249.07V248H179.47Z" fill="white"/>
<path opacity="0.3" d="M219.1 248.15C219.103 248.773 219.351 249.369 219.791 249.809C220.231 250.249 220.828 250.498 221.45 250.5H232.21C232.833 250.5 233.431 250.253 233.872 249.812C234.313 249.371 234.56 248.774 234.56 248.15H219.1Z" fill="black"/>
<path d="M227.27 240.67H151.55L151.14 235.99H226.86L227.27 240.67Z" fill="#FB6514"/>
<path d="M217.12 238.63H164.52L164.49 238.21H217.09L217.12 238.63Z" fill="white"/>
<path d="M218.61 238.65C218.61 238.85 218.5 239.01 218.2 239.01C218.047 239.012 217.897 238.966 217.77 238.88L217.85 238.72C217.944 238.794 218.061 238.832 218.18 238.83C218.33 238.83 218.41 238.77 218.4 238.66C218.39 238.55 218.32 238.49 218.09 238.49H217.82V237.89H218.47V238.06H218V238.32H218.11C218.45 238.32 218.59 238.46 218.61 238.65Z" fill="white"/>
<path d="M218.68 238.27C218.679 238.253 218.681 238.237 218.686 238.221C218.692 238.205 218.7 238.191 218.712 238.179C218.723 238.166 218.737 238.157 218.752 238.15C218.767 238.143 218.783 238.14 218.8 238.14C218.818 238.139 218.836 238.141 218.853 238.147C218.87 238.153 218.885 238.162 218.899 238.174C218.912 238.187 218.922 238.201 218.929 238.218C218.937 238.234 218.94 238.252 218.94 238.27C218.943 238.286 218.942 238.303 218.938 238.318C218.934 238.334 218.926 238.349 218.916 238.361C218.905 238.374 218.892 238.383 218.877 238.39C218.863 238.397 218.846 238.4 218.83 238.4C218.812 238.401 218.793 238.399 218.776 238.393C218.758 238.387 218.742 238.378 218.728 238.366C218.714 238.354 218.703 238.339 218.695 238.323C218.686 238.306 218.681 238.288 218.68 238.27ZM218.74 238.87C218.737 238.853 218.738 238.836 218.742 238.819C218.747 238.803 218.756 238.787 218.767 238.775C218.779 238.762 218.793 238.752 218.81 238.746C218.826 238.74 218.843 238.738 218.86 238.74C218.896 238.74 218.93 238.753 218.956 238.777C218.982 238.802 218.998 238.835 219 238.87C219.001 238.887 218.999 238.903 218.994 238.919C218.989 238.935 218.98 238.949 218.969 238.961C218.957 238.974 218.944 238.983 218.928 238.99C218.913 238.997 218.897 239 218.88 239C218.862 239.001 218.844 238.999 218.827 238.993C218.81 238.987 218.795 238.978 218.782 238.966C218.768 238.953 218.758 238.939 218.751 238.922C218.744 238.906 218.74 238.888 218.74 238.87Z" fill="white"/>
<path d="M219.09 238.44C219.09 238.08 219.24 237.87 219.5 237.87C219.76 237.87 219.98 238.08 220.02 238.44C220.06 238.8 219.87 239.01 219.6 239.01C219.458 239 219.325 238.935 219.23 238.828C219.135 238.722 219.084 238.583 219.09 238.44ZM219.81 238.44C219.81 238.17 219.67 238.05 219.52 238.05C219.37 238.05 219.27 238.17 219.3 238.44C219.33 238.71 219.44 238.83 219.59 238.83C219.74 238.83 219.83 238.71 219.81 238.44Z" fill="white"/>
<path d="M220.15 238.44C220.15 238.08 220.3 237.87 220.57 237.87C220.713 237.88 220.845 237.946 220.94 238.052C221.036 238.158 221.086 238.298 221.08 238.44C221.08 238.8 220.93 239.01 220.67 239.01C220.41 239.01 220.19 238.8 220.15 238.44ZM220.87 238.44C220.87 238.17 220.73 238.05 220.58 238.05C220.43 238.05 220.34 238.17 220.36 238.44C220.38 238.71 220.5 238.83 220.65 238.83C220.8 238.83 220.89 238.71 220.87 238.44Z" fill="white"/>
<path d="M153.9 238.82V238.99H153.08V238.86L153.48 238.44C153.514 238.412 153.542 238.377 153.561 238.337C153.58 238.297 153.59 238.254 153.59 238.21C153.59 238.11 153.51 238.05 153.37 238.05C153.322 238.047 153.273 238.057 153.23 238.078C153.186 238.099 153.148 238.131 153.12 238.17L152.97 238.05C153.016 237.989 153.077 237.941 153.147 237.909C153.217 237.878 153.294 237.864 153.37 237.87C153.61 237.87 153.78 237.99 153.79 238.19C153.795 238.256 153.784 238.322 153.758 238.383C153.732 238.444 153.691 238.498 153.64 238.54L153.37 238.82H153.9Z" fill="white"/>
<path d="M154 238.27C153.997 238.254 153.998 238.238 154.002 238.222C154.006 238.206 154.014 238.191 154.024 238.179C154.035 238.167 154.048 238.157 154.063 238.15C154.078 238.143 154.094 238.14 154.11 238.14C154.129 238.139 154.147 238.141 154.165 238.147C154.182 238.153 154.198 238.162 154.212 238.174C154.226 238.186 154.238 238.201 154.246 238.217C154.254 238.234 154.259 238.252 154.26 238.27C154.262 238.287 154.259 238.303 154.254 238.319C154.249 238.335 154.24 238.349 154.229 238.361C154.217 238.374 154.204 238.383 154.188 238.39C154.173 238.397 154.157 238.4 154.14 238.4C154.122 238.401 154.104 238.399 154.087 238.393C154.07 238.387 154.055 238.378 154.042 238.366C154.029 238.353 154.018 238.339 154.011 238.322C154.004 238.306 154 238.288 154 238.27ZM154.05 238.87C154.047 238.853 154.048 238.836 154.052 238.819C154.057 238.803 154.066 238.787 154.077 238.775C154.089 238.762 154.103 238.752 154.12 238.746C154.136 238.74 154.153 238.738 154.17 238.74C154.206 238.74 154.24 238.753 154.266 238.777C154.292 238.802 154.308 238.835 154.31 238.87C154.312 238.887 154.309 238.903 154.304 238.919C154.299 238.935 154.29 238.949 154.279 238.961C154.267 238.974 154.254 238.983 154.238 238.99C154.223 238.997 154.207 239 154.19 239C154.169 239.008 154.146 239.011 154.124 239.008C154.101 239.006 154.08 238.998 154.061 238.985C154.042 238.972 154.027 238.955 154.016 238.935C154.006 238.915 154 238.893 154 238.87H154.05Z" fill="white"/>
<path d="M155.2 238.65C155.2 238.85 155.09 239.01 154.79 239.01C154.637 239.012 154.487 238.966 154.36 238.88L154.44 238.72C154.534 238.794 154.651 238.832 154.77 238.83C154.92 238.83 155 238.77 154.99 238.66C154.98 238.55 154.91 238.49 154.68 238.49H154.41V237.89H155.06V238.06H154.58V238.32H154.69C155 238.32 155.18 238.46 155.2 238.65Z" fill="white"/>
<path d="M155.3 238.44C155.3 238.08 155.44 237.87 155.71 237.87C155.852 237.88 155.985 237.946 156.08 238.052C156.176 238.158 156.226 238.298 156.22 238.44C156.22 238.8 156.07 239.01 155.81 239.01C155.55 239.01 155.33 238.8 155.3 238.44ZM156.01 238.44C156.01 238.17 155.87 238.05 155.72 238.05C155.57 238.05 155.48 238.17 155.5 238.44C155.52 238.71 155.64 238.83 155.79 238.83C155.94 238.83 156 238.71 156 238.44H156.01Z" fill="white"/>
<path d="M225.78 240.09H222.45L222.15 236.75H225.49L225.78 240.09ZM222.95 239.53H225.18L225 237.3H222.77L222.95 239.53Z" fill="white"/>
<path d="M187.35 237.84H157.28L157.38 238.99H187.45L187.35 237.84Z" fill="#263238"/>
<path d="M188.45 238.38C188.458 238.517 188.439 238.653 188.392 238.781C188.345 238.91 188.273 239.027 188.179 239.127C188.086 239.226 187.973 239.305 187.847 239.359C187.722 239.413 187.587 239.441 187.45 239.44C187.163 239.432 186.888 239.321 186.677 239.126C186.465 238.931 186.331 238.666 186.3 238.38C186.292 238.244 186.312 238.108 186.358 237.979C186.405 237.851 186.477 237.733 186.571 237.634C186.665 237.535 186.778 237.456 186.903 237.402C187.028 237.348 187.164 237.32 187.3 237.32C187.588 237.326 187.864 237.437 188.076 237.632C188.288 237.828 188.421 238.094 188.45 238.38Z" fill="#263238"/>
<path d="M188.45 238.38C188.458 238.517 188.439 238.653 188.392 238.781C188.345 238.91 188.273 239.027 188.179 239.127C188.086 239.226 187.973 239.305 187.847 239.359C187.722 239.413 187.587 239.441 187.45 239.44C187.163 239.432 186.888 239.321 186.677 239.126C186.465 238.931 186.331 238.666 186.3 238.38C186.292 238.244 186.312 238.108 186.358 237.979C186.405 237.851 186.477 237.733 186.571 237.634C186.665 237.535 186.778 237.456 186.903 237.402C187.028 237.348 187.164 237.32 187.3 237.32C187.588 237.326 187.864 237.437 188.076 237.632C188.288 237.828 188.421 238.094 188.45 238.38Z" fill="white"/>
<path d="M217.36 163.85C220.061 164.321 222.605 165.45 224.768 167.136C226.93 168.823 228.645 171.015 229.76 173.52C233.86 182.3 237.13 195.05 240.2 196.39C243.27 197.73 256.71 184.5 256.71 184.5C256.71 184.5 253.97 175.75 258.07 174.38C262.17 173.01 261.35 166.89 265.18 168.18C269.01 169.47 271.18 174.93 270.92 177.94C270.66 180.95 263.54 187.78 263.54 187.78C263.54 187.78 250.69 210.64 237.54 208.55C224.39 206.46 217.33 175.81 217.33 175.81C217.33 175.81 213.67 163.38 217.36 163.85Z" fill="#EEC8C0"/>
<path opacity="0.1" d="M221 187.07C223.88 194.83 226.25 200.44 231.72 205.42C225.8 195.91 226.44 178.88 226.44 178.88L221 187.07Z" fill="black"/>
<path d="M172.41 166.56C177.1 165.216 181.856 164.118 186.66 163.27L186.82 163.4L187.07 163.64L189.18 165.26L194.92 168.71L199.63 169.45L204.19 168.34L207.11 164.28L207.65 161.94V161.87C212.77 162.078 217.81 163.206 222.53 165.2C223.36 165.586 224.07 166.189 224.584 166.947C225.099 167.704 225.398 168.586 225.45 169.5C225.828 174.899 226.496 180.273 227.45 185.6C229.35 196.82 223.53 221.93 221.27 230.98C221.023 231.971 220.484 232.865 219.722 233.546C218.961 234.227 218.013 234.664 217 234.8C204.116 236.564 191.056 236.648 178.15 235.05C176.932 234.891 175.812 234.298 174.996 233.379C174.181 232.461 173.724 231.279 173.71 230.05C173.55 215.68 170.04 183.58 168.71 172.05C168.577 170.845 168.876 169.632 169.553 168.627C170.231 167.621 171.243 166.889 172.41 166.56Z" fill="#FB6514"/>
<path d="M172.41 166.56C177.1 165.216 181.856 164.118 186.66 163.27L186.82 163.4L187.07 163.64L189.18 165.26L194.92 168.71L199.63 169.45L204.19 168.34L207.11 164.28L207.65 161.94V161.87C212.77 162.078 217.81 163.206 222.53 165.2C223.36 165.586 224.07 166.189 224.584 166.947C225.099 167.704 225.398 168.586 225.45 169.5C225.828 174.899 226.496 180.273 227.45 185.6C229.35 196.82 223.53 221.93 221.27 230.98C221.023 231.971 220.484 232.865 219.722 233.546C218.961 234.227 218.013 234.664 217 234.8C204.116 236.564 191.056 236.648 178.15 235.05C176.932 234.891 175.812 234.298 174.996 233.379C174.181 232.461 173.724 231.279 173.71 230.05C173.55 215.68 170.04 183.58 168.71 172.05C168.577 170.845 168.876 169.632 169.553 168.627C170.231 167.621 171.243 166.889 172.41 166.56Z" fill="#263238"/>
<path d="M187.08 126C185.21 131.44 182.08 137.36 183.44 142.95C184.8 148.54 190.83 153.73 196.29 155.54C202.62 157.65 209.99 159.93 214.68 155.17C217 152.82 215.68 148.08 213.52 145.57C212.421 144.332 210.973 143.457 209.365 143.06C207.758 142.664 206.068 142.765 204.52 143.35C204.895 140.489 204.711 137.582 203.98 134.79C203.296 131.133 201.188 127.896 198.12 125.79C195 123.79 188.29 122.51 187.08 126Z" fill="#263238"/>
<path d="M189.08 162.86C192.79 158.96 191.3 141.46 191.3 141.46L202.16 148.83C202.16 148.83 202.8 159.66 205.39 161.75C206 162.24 206.9 161.82 207.62 161.87L206.96 164.63L204.96 168.05L202.18 170.05H198.07L194.36 169L190.15 166L186.71 163.23C187.51 163.12 188.54 163.42 189.08 162.86Z" fill="#EEC8C0"/>
<path opacity="0.1" d="M203.11 156.08C195.97 155.27 192.69 151.56 191.2 148.63L191.51 145.71L202.36 153.08L203.11 156.08Z" fill="black"/>
<path d="M187.05 134.47C189.34 143.47 190.12 147.34 195.61 151.14C203.88 156.87 214.45 152.07 214.9 142.57C215.3 134 211.48 120.65 201.9 118.78C199.783 118.344 197.589 118.456 195.527 119.106C193.465 119.756 191.604 120.923 190.12 122.495C188.636 124.067 187.579 125.993 187.048 128.089C186.518 130.185 186.532 132.381 187.09 134.47H187.05Z" fill="#EEC8C0"/>
<path d="M202 134.1C202.15 134.84 202.65 135.37 203.13 135.28C203.61 135.19 203.9 134.51 203.77 133.77C203.64 133.03 203.11 132.5 202.63 132.58C202.15 132.66 201.94 133.39 202 134.1Z" fill="#263238"/>
<path d="M210.43 132.52C210.57 133.28 211.08 133.79 211.56 133.71C212.04 133.63 212.33 132.93 212.19 132.19C212.05 131.45 211.54 130.92 211.06 131.02C210.58 131.12 210.29 131.78 210.43 132.52Z" fill="#263238"/>
<path d="M210.85 131.1L212.53 130.25C212.53 130.25 211.89 131.82 210.85 131.1Z" fill="#263238"/>
<path d="M208.09 134.36C209.081 135.927 210.279 137.353 211.65 138.6C211.32 138.941 210.92 139.206 210.479 139.379C210.037 139.551 209.564 139.627 209.09 139.6L208.09 134.36Z" fill="#ED893E"/>
<path d="M198.35 133.05C198.444 133.049 198.535 133.017 198.609 132.959C198.683 132.901 198.736 132.821 198.76 132.73C199.048 132.068 199.471 131.472 200.001 130.982C200.531 130.491 201.157 130.116 201.84 129.88C201.953 129.841 202.045 129.76 202.098 129.653C202.15 129.546 202.158 129.423 202.12 129.31C202.103 129.255 202.075 129.204 202.038 129.16C202.001 129.116 201.956 129.08 201.904 129.054C201.853 129.028 201.797 129.012 201.74 129.008C201.682 129.004 201.625 129.011 201.57 129.03C200.748 129.308 199.995 129.762 199.365 130.359C198.735 130.956 198.242 131.683 197.92 132.49C197.889 132.601 197.903 132.72 197.959 132.821C198.016 132.923 198.109 132.997 198.22 133.03C198.262 133.046 198.306 133.052 198.35 133.05Z" fill="#263238"/>
<path d="M212.21 128.18C212.29 128.175 212.367 128.15 212.435 128.108C212.503 128.067 212.559 128.009 212.6 127.94C212.654 127.836 212.665 127.716 212.631 127.604C212.598 127.492 212.522 127.397 212.42 127.34C211.804 126.975 211.108 126.768 210.392 126.736C209.677 126.705 208.965 126.85 208.32 127.16C208.221 127.209 208.145 127.296 208.11 127.401C208.074 127.506 208.081 127.62 208.13 127.72C208.155 127.772 208.191 127.819 208.235 127.856C208.279 127.894 208.33 127.922 208.386 127.939C208.441 127.956 208.499 127.961 208.557 127.954C208.614 127.948 208.67 127.929 208.72 127.9C209.231 127.678 209.787 127.58 210.343 127.613C210.898 127.646 211.439 127.81 211.92 128.09C212.007 128.145 212.107 128.176 212.21 128.18Z" fill="#263238"/>
<path d="M202.46 132.74L204.15 131.89C204.15 131.89 203.5 133.4 202.46 132.74Z" fill="#263238"/>
<path d="M215.76 116.78C216.93 117.606 217.828 118.761 218.341 120.098C218.853 121.435 218.958 122.894 218.64 124.29C218.3 125.53 217.57 126.7 217.51 127.99C217.474 128.682 217.708 129.362 218.163 129.884C218.619 130.407 219.259 130.732 219.95 130.79C217.905 131.141 215.813 131.11 213.78 130.7C211.78 130.17 209.91 128.7 209.84 126.84C209.882 126.17 209.959 125.503 210.07 124.84C210.114 124.493 210.066 124.14 209.931 123.818C209.796 123.495 209.578 123.213 209.3 123C208.19 122.27 206.72 123.06 205.38 123.23C202.93 123.56 200.51 121.29 200.81 119.14C201.11 116.99 207 110.22 215.76 116.78Z" fill="#263238"/>
<path d="M206.68 113.68C209.96 115.49 218.75 124.56 195.03 123.07C195.03 123.07 195.08 137.9 187.63 139.91L168.11 136.69C168.11 136.69 175.87 96.6602 206.68 113.68Z" fill="#263238"/>
<path d="M170.69 127.69C168.82 133.12 165.69 139.05 167.05 144.64C168.41 150.23 174.44 155.41 179.9 157.23C186.23 159.34 193.6 161.62 198.29 156.86C200.6 154.5 199.29 149.77 197.13 147.25C196.03 146.014 194.581 145.14 192.974 144.746C191.367 144.351 189.678 144.454 188.13 145.04C188.505 142.179 188.322 139.272 187.59 136.48C187.257 134.659 186.568 132.921 185.562 131.367C184.557 129.812 183.255 128.471 181.73 127.42C178.58 125.47 171.9 124.2 170.69 127.69Z" fill="#263238"/>
<path d="M185.9 142C186.78 143.514 188.215 144.625 189.9 145.1C192.17 145.68 193.27 143.64 192.6 141.51C191.98 139.6 190.07 136.99 187.81 137.31C187.421 137.378 187.049 137.521 186.716 137.733C186.383 137.945 186.094 138.22 185.868 138.543C185.641 138.867 185.48 139.232 185.395 139.617C185.31 140.003 185.301 140.401 185.37 140.79C185.459 141.226 185.64 141.639 185.9 142Z" fill="#EEC8C0"/>
<path d="M209.87 142.18C208.706 142.695 207.448 142.961 206.175 142.961C204.902 142.961 203.644 142.695 202.48 142.18C202.48 142.18 202.18 146.73 207.58 146.36C208.15 146.36 209.87 146.06 209.87 146.06C209.605 144.78 209.605 143.46 209.87 142.18Z" fill="#263238"/>
<path d="M202.72 143.75C202.552 143.244 202.471 142.713 202.48 142.18C204.421 143.001 206.578 143.162 208.62 142.64V144.13C208.62 144.13 205.05 144.76 202.72 143.75Z" fill="white"/>
<path d="M203.23 144.75C203.625 144.706 204.022 144.683 204.42 144.68C206.141 144.634 207.829 145.15 209.23 146.15C208.68 146.23 207.92 146.33 207.58 146.36C205.17 146.52 203.9 145.71 203.23 144.75Z" fill="#C13B37"/>
<path d="M209.7 161.87C209.7 161.87 207.16 161.01 206.14 161.87C206.14 161.87 206.33 168.46 201.01 169.29C195.69 170.12 187.52 162.91 187.52 162.91C186.305 162.639 185.033 162.839 183.96 163.47L204.87 186.26C213.26 177.44 209.7 161.87 209.7 161.87Z" fill="#FB6514"/>
<path d="M171.41 188.34C169.41 185.61 165.28 174.26 169.78 168.1C174.28 161.94 201.41 199 201.41 199C205.99 196.73 227.26 189.6 227.26 189.6C227.26 189.6 227.97 182.17 231.1 180.36C234.23 178.55 235.67 173.79 238.33 176.61C240.99 179.43 244.11 187.25 240.01 190.21C237.37 192.097 234.629 193.839 231.8 195.43C231.8 195.43 215.43 207 203.54 211C191.65 215 179.81 199.68 171.41 188.34Z" fill="#EEC8C0"/>
<path opacity="0.1" d="M171.41 188.34C169.41 185.61 165.28 174.26 169.78 168.1C174.28 161.94 201.41 199 201.41 199C205.99 196.73 227.26 189.6 227.26 189.6C227.26 189.6 227.97 182.17 231.1 180.36C234.23 178.55 235.67 173.79 238.33 176.61C240.99 179.43 244.11 187.25 240.01 190.21C237.37 192.097 234.629 193.839 231.8 195.43C231.8 195.43 215.43 207 203.54 211C191.65 215 179.81 199.68 171.41 188.34Z" fill="white"/>
<path opacity="0.1" d="M171.41 188.34C169.41 185.61 165.28 174.26 169.78 168.1C174.28 161.94 201.41 199 201.41 199C205.99 196.73 227.26 189.6 227.26 189.6C227.26 189.6 227.97 182.17 231.1 180.36C234.23 178.55 235.67 173.79 238.33 176.61C240.99 179.43 244.11 187.25 240.01 190.21C237.37 192.097 234.629 193.839 231.8 195.43C231.8 195.43 215.43 207 203.54 211C191.65 215 179.81 199.68 171.41 188.34Z" fill="white"/>
<path d="M222.59 237.07L221.31 231C221.31 231 188.06 234.45 173.87 231.29L172.02 237.09L222.59 237.07Z" fill="#263238"/>
<path d="M189.83 146.75C189.842 147.11 189.746 147.465 189.556 147.77C189.365 148.074 189.088 148.316 188.76 148.463C188.431 148.609 188.067 148.655 187.712 148.594C187.358 148.532 187.03 148.367 186.77 148.118C186.51 147.87 186.33 147.549 186.253 147.198C186.176 146.847 186.205 146.481 186.337 146.146C186.469 145.811 186.698 145.524 186.994 145.32C187.29 145.116 187.64 145.004 188 145C188.474 144.992 188.932 145.171 189.275 145.499C189.617 145.827 189.817 146.276 189.83 146.75Z" fill="white"/>
<path d="M302.22 162.28C301.198 164.443 299.894 166.461 298.34 168.28C299.53 169.51 301.74 169.05 301.74 169.05L302.22 162.28Z" fill="#A02724"/>
<path d="M327.34 173.6L320.69 178.6L311.61 185.35C312.089 186.389 312.37 187.508 312.44 188.65C312.73 191.17 313.02 193.04 307.39 194.51C306.793 194.642 306.248 194.943 305.818 195.378C305.389 195.812 305.094 196.362 304.97 196.96C304.73 198.45 305.61 200.26 310.77 201.22C315.77 202.043 320.903 201.248 325.42 198.95C327.63 197.88 327.65 196.56 326.76 194.33C324.09 187.91 325.54 179.86 327.34 173.6Z" fill="#FF8B7B"/>
<path d="M300.46 161.58C300.26 162.36 300.46 163.08 300.84 163.18C301.22 163.28 301.73 162.73 301.93 161.95C302.13 161.17 301.93 160.45 301.55 160.34C301.17 160.23 300.65 160.79 300.46 161.58Z" fill="#263238"/>
<path d="M306.36 160.4C306.273 160.399 306.187 160.376 306.112 160.332C306.036 160.288 305.974 160.226 305.93 160.15C305.518 159.447 304.936 158.858 304.237 158.439C303.538 158.019 302.744 157.782 301.93 157.75C301.797 157.75 301.67 157.697 301.576 157.604C301.483 157.51 301.43 157.383 301.43 157.25C301.43 157.117 301.483 156.99 301.576 156.896C301.67 156.803 301.797 156.75 301.93 156.75C302.921 156.786 303.888 157.07 304.74 157.577C305.593 158.084 306.305 158.796 306.81 159.65C306.873 159.767 306.888 159.905 306.853 160.033C306.817 160.161 306.734 160.271 306.62 160.34C306.54 160.381 306.45 160.402 306.36 160.4Z" fill="#263238"/>
<path d="M300.41 172.64C300.627 174.875 301.356 177.03 302.541 178.937C303.725 180.845 305.333 182.454 307.24 183.64C308.529 184.449 309.946 185.034 311.43 185.37C313.235 185.775 315.108 185.773 316.913 185.363C318.717 184.953 320.407 184.146 321.86 183C327.65 178.62 328.32 172.69 330.33 162.73C330.82 160.408 330.716 158 330.029 155.729C329.342 153.458 328.094 151.396 326.4 149.735C324.706 148.073 322.62 146.866 320.336 146.223C318.051 145.581 315.642 145.525 313.33 146.06C303 148.54 299.51 163.27 300.41 172.64Z" fill="#FF8B7B"/>
<path opacity="0.2" d="M307.24 183.61C308.529 184.42 309.946 185.005 311.43 185.34H311.61L310.98 183.34C310.98 183.34 310.12 184.77 307.24 183.61Z" fill="black"/>
<path d="M333.23 169.9C331.55 173.33 329.47 176.77 326.3 178.9C325.13 179.7 316.25 179.11 316.25 179.11C316.34 176.11 312.52 165.71 310.68 162.22C310.1 163.65 310.92 165.61 310.19 166.93C309.19 166.74 291.4 160.34 299.24 147.55C304.78 138.55 319.64 137.73 325.81 146.63C327.133 146.288 328.525 146.314 329.834 146.705C331.144 147.097 332.321 147.838 333.24 148.85C335.037 150.929 336.093 153.546 336.24 156.29C336.69 161 335.29 165.66 333.23 169.9Z" fill="#263238"/>
<path d="M316.77 164.78C316.587 167.066 315.564 169.203 313.9 170.78C311.76 172.78 309.08 170.66 308.75 167.78C308.45 165.21 309.7 161.45 312.31 160.55C314.92 159.65 317 162 316.77 164.78Z" fill="#FF8B7B"/>
<path d="M230.76 389.53L221.55 385.01L228.36 362.57L239.58 368.83L230.76 389.53Z" fill="#FF8B7B"/>
<path opacity="0.2" d="M242 362.67L230.19 355.86L225.51 372.03L236.17 377.05L242 362.67Z" fill="black"/>
<path d="M221 383.22L231.55 388.09C231.742 388.187 231.892 388.353 231.967 388.555C232.043 388.757 232.041 388.98 231.96 389.18L228.51 399.43C228.434 399.675 228.31 399.902 228.145 400.098C227.979 400.293 227.776 400.454 227.548 400.57C227.319 400.685 227.07 400.754 226.814 400.771C226.558 400.788 226.302 400.754 226.06 400.67C222.42 398.9 220.75 397.84 216.12 395.67C213.26 394.36 206.75 391.25 202.69 389.78C198.63 388.31 200.31 383.54 202.17 383.73C210.54 384.62 215.46 384.42 219.1 383.15C219.718 382.927 220.4 382.952 221 383.22Z" fill="#263238"/>
<path d="M215.57 383.92C216.413 384.25 217.288 384.491 218.18 384.64C218.224 384.651 218.27 384.646 218.312 384.628C218.353 384.61 218.388 384.58 218.41 384.54C218.443 384.509 218.466 384.468 218.476 384.424C218.487 384.38 218.485 384.333 218.47 384.29C218.26 383.95 216.34 380.99 215 380.94C214.848 380.932 214.696 380.964 214.56 381.035C214.425 381.105 214.311 381.211 214.23 381.34C214.073 381.521 213.968 381.741 213.926 381.977C213.883 382.213 213.906 382.456 213.99 382.68C214.345 383.275 214.908 383.717 215.57 383.92ZM217.77 384.08C215.94 383.64 214.7 383.08 214.45 382.48C214.406 382.335 214.402 382.181 214.437 382.033C214.472 381.886 214.546 381.75 214.65 381.64C214.689 381.574 214.745 381.519 214.811 381.481C214.878 381.442 214.953 381.421 215.03 381.42C215.73 381.44 217 382.91 217.77 384.08Z" fill="#FB6514"/>
<path d="M218.19 384.64H218.3C218.341 384.633 218.381 384.616 218.415 384.592C218.45 384.568 218.479 384.537 218.5 384.5C218.5 384.38 219.93 381.75 219.36 380.43C219.291 380.256 219.181 380.101 219.041 379.977C218.9 379.854 218.732 379.766 218.55 379.72C218.359 379.646 218.148 379.638 217.952 379.697C217.756 379.757 217.586 379.882 217.47 380.05C216.81 380.99 217.39 383.57 218.09 384.53C218.096 384.555 218.109 384.578 218.126 384.598C218.144 384.617 218.166 384.631 218.19 384.64ZM218.53 380.25C218.619 380.287 218.699 380.341 218.766 380.41C218.834 380.478 218.886 380.56 218.92 380.65C219.055 381.783 218.824 382.929 218.26 383.92C217.681 382.823 217.538 381.548 217.86 380.35C217.86 380.22 218.07 380.11 218.41 380.21L218.53 380.25Z" fill="#FB6514"/>
<path d="M300.92 273.54C300.92 273.54 246.64 264.2 239.81 293.89C234.54 314.68 231.99 323.14 225.28 369.24L239.61 372.47C239.61 372.47 262.71 325.25 264.06 305.17C280.26 307.91 317.12 315.59 324.97 301.88C328.903 294.908 331.529 287.276 332.72 279.36L300.92 273.54Z" fill="#FB6514"/>
<g opacity="0.3">
<path d="M300.92 273.54C300.92 273.54 246.64 264.2 239.81 293.89C234.54 314.68 231.99 323.14 225.28 369.24L239.61 372.47C239.61 372.47 262.71 325.25 264.06 305.17C280.26 307.91 317.12 315.59 324.97 301.88C328.903 294.908 331.529 287.276 332.72 279.36L300.92 273.54Z" fill="black"/>
</g>
<path d="M241.44 375.66L223.09 369.24L224.81 360.93L243.63 368.58L241.44 375.66Z" fill="#FB6514"/>
<path d="M192.77 386.21L183.09 380.84L192.71 362.25L204.64 367.1L192.77 386.21Z" fill="#FF8B7B"/>
<path opacity="0.2" d="M207.97 361.38L197.34 352.84L190.25 368.11L200.01 374.7L207.97 361.38Z" fill="black"/>
<path d="M184.08 378.49L193.77 384.91C193.933 385.034 194.046 385.212 194.088 385.412C194.131 385.613 194.099 385.821 194 386L189 395.61C188.889 395.841 188.732 396.048 188.539 396.216C188.346 396.385 188.12 396.513 187.876 396.593C187.633 396.672 187.375 396.701 187.12 396.678C186.864 396.656 186.616 396.582 186.39 396.46C183.06 394.16 181.58 392.86 177.32 390.03C174.7 388.3 168.74 384.24 164.95 382.16C161.16 380.08 163.55 375.64 165.36 376.11C173.5 378.26 178.36 378.82 182.18 378.11C182.839 377.981 183.522 378.118 184.08 378.49Z" fill="#263238"/>
<path d="M178.61 378.35C179.393 378.802 180.221 379.17 181.08 379.45C181.121 379.468 181.167 379.472 181.21 379.462C181.254 379.451 181.292 379.426 181.32 379.39C181.357 379.366 181.386 379.331 181.404 379.29C181.422 379.249 181.427 379.204 181.42 379.16C181.27 378.78 179.82 375.57 178.5 375.32C178.35 375.288 178.194 375.296 178.049 375.343C177.903 375.391 177.772 375.476 177.67 375.59C177.492 375.749 177.358 375.951 177.281 376.177C177.204 376.403 177.186 376.645 177.23 376.88C177.497 377.521 177.987 378.043 178.61 378.35ZM180.76 378.84C179.02 378.12 177.88 377.42 177.76 376.76C177.739 376.608 177.758 376.453 177.816 376.311C177.874 376.168 177.968 376.044 178.09 375.95C178.138 375.893 178.201 375.85 178.271 375.823C178.34 375.797 178.416 375.789 178.49 375.8C179.15 375.92 180.14 377.56 180.76 378.84Z" fill="#FB6514"/>
<path d="M181.09 379.46H181.19C181.232 379.462 181.274 379.455 181.312 379.437C181.351 379.42 181.384 379.393 181.41 379.36C181.46 379.25 183.24 376.86 182.88 375.47C182.839 375.287 182.755 375.116 182.635 374.971C182.515 374.827 182.363 374.713 182.19 374.64C182.013 374.536 181.805 374.496 181.602 374.525C181.399 374.554 181.211 374.651 181.07 374.8C180.28 375.63 180.45 378.26 181 379.32C181.003 379.349 181.012 379.377 181.028 379.401C181.043 379.425 181.065 379.446 181.09 379.46ZM182.09 375.17C182.174 375.22 182.246 375.287 182.303 375.366C182.36 375.445 182.399 375.535 182.42 375.63C182.383 376.769 181.976 377.864 181.26 378.75C180.856 377.58 180.914 376.3 181.42 375.17C181.47 375.05 181.67 374.97 181.99 375.11L182.09 375.17Z" fill="#FB6514"/>
<path d="M283.81 270.65C283.43 270.58 224.3 254.59 214.5 288.09C201.06 328.86 191.09 363.47 191.09 363.47L202.69 371.88C202.69 371.88 232.28 330.94 236.69 302.88C255.17 300.8 299.33 316.99 307.18 303.29C313.61 292.09 313.92 275.75 313.92 275.75L283.81 270.65Z" fill="#FB6514"/>
<path opacity="0.3" d="M283.81 270.65C283.43 270.58 224.3 254.59 214.5 288.09C201.06 328.86 191.09 363.47 191.09 363.47L202.69 371.88C202.69 371.88 232.28 330.94 236.69 302.88C255.17 300.8 299.33 316.99 307.18 303.29C313.61 292.09 313.92 275.75 313.92 275.75L283.81 270.65Z" fill="black"/>
<path d="M204.41 374.04L188.72 363.54L191.26 356.82L208.12 366.02L204.41 374.04Z" fill="#FB6514"/>
<path d="M338.8 202.24C337.8 206.24 336.59 210.19 335.28 214.14C333.97 218.09 332.47 222 330.71 226C328.922 230.114 326.707 234.029 324.1 237.68C322.568 239.822 320.732 241.728 318.65 243.34C317.37 244.328 315.956 245.129 314.45 245.72C313.586 246.049 312.692 246.29 311.78 246.44L311.05 246.56C310.67 246.56 310.25 246.62 309.88 246.62C309.251 246.611 308.625 246.54 308.01 246.41C307.099 246.223 306.21 245.938 305.36 245.56C304.67 245.275 304.002 244.941 303.36 244.56C302.297 243.9 301.275 243.175 300.3 242.39C298.6 241 292.26 231 287.75 224L293.12 219.52C298.94 224.79 304.85 230.21 310.77 234.84C312.29 235.92 305.88 231.59 307.31 232.51C307.951 232.912 308.62 233.27 309.31 233.58C309.88 233.84 310.44 233.97 310.31 233.87C310.187 233.83 310.059 233.81 309.93 233.81C309.787 233.8 309.643 233.8 309.5 233.81C309.573 233.783 309.643 233.749 309.71 233.71C310.042 233.516 310.354 233.288 310.64 233.03C311.648 232.091 312.538 231.034 313.29 229.88C315.176 226.904 316.77 223.753 318.05 220.47C319.51 216.99 320.7 213.47 321.85 209.78C323 206.09 324.07 202.41 325.04 198.63C326.01 194.85 339.84 198.22 338.8 202.24Z" fill="#FB6514"/>
<path opacity="0.6" d="M338.8 202.24C337.8 206.24 336.59 210.19 335.28 214.14C333.97 218.09 332.47 222 330.71 226C328.922 230.114 326.707 234.029 324.1 237.68C322.568 239.822 320.732 241.728 318.65 243.34C317.37 244.328 315.956 245.129 314.45 245.72C313.586 246.049 312.692 246.29 311.78 246.44L311.05 246.56C310.67 246.56 310.25 246.62 309.88 246.62C309.251 246.611 308.625 246.54 308.01 246.41C307.099 246.223 306.21 245.938 305.36 245.56C304.67 245.275 304.002 244.941 303.36 244.56C302.297 243.9 301.275 243.175 300.3 242.39C298.6 241 292.26 231 287.75 224L293.12 219.52C298.94 224.79 304.85 230.21 310.77 234.84C312.29 235.92 305.88 231.59 307.31 232.51C307.951 232.912 308.62 233.27 309.31 233.58C309.88 233.84 310.44 233.97 310.31 233.87C310.187 233.83 310.059 233.81 309.93 233.81C309.787 233.8 309.643 233.8 309.5 233.81C309.573 233.783 309.643 233.749 309.71 233.71C310.042 233.516 310.354 233.288 310.64 233.03C311.648 232.091 312.538 231.034 313.29 229.88C315.176 226.904 316.77 223.753 318.05 220.47C319.51 216.99 320.7 213.47 321.85 209.78C323 206.09 324.07 202.41 325.04 198.63C326.01 194.85 339.84 198.22 338.8 202.24Z" fill="white"/>
<path d="M293.52 220.12L288.39 209.23L278.64 214.8C278.64 214.8 284.95 224.91 288.5 223.91L293.52 220.12Z" fill="#FF8B7B"/>
<path d="M280.43 206.65L276 208.5C275.739 208.606 275.508 208.774 275.327 208.99C275.146 209.206 275.021 209.463 274.963 209.738C274.905 210.014 274.915 210.299 274.993 210.57C275.071 210.84 275.214 211.088 275.41 211.29L278.72 214.75L288.47 209.18L281.74 206.64C281.319 206.473 280.849 206.476 280.43 206.65Z" fill="#FF8B7B"/>
<path d="M243.58 240.16L233.08 238.88L229.59 249.88C229.59 249.88 241.59 250.18 243.59 246.94L243.58 240.16Z" fill="#FF8B7B"/>
<path d="M225.25 242.63L223.25 246.82C223.121 247.111 223.064 247.429 223.083 247.747C223.102 248.065 223.197 248.373 223.359 248.647C223.522 248.921 223.747 249.152 224.017 249.322C224.287 249.491 224.593 249.593 224.91 249.62L229.56 249.91L233.05 238.91L226.26 241.67C225.819 241.859 225.461 242.199 225.25 242.63Z" fill="#FF8B7B"/>
<path d="M342.14 201.66C341.67 199.22 338.04 196.25 335.58 195.84L333.95 195.56C330.657 195.045 327.339 194.711 324.01 194.56C317.348 194.187 310.671 194.187 304.01 194.56C300.92 194.85 297.89 195.35 295.48 195.82H295.39C294.021 196.115 292.79 196.861 291.894 197.937C290.999 199.014 290.49 200.36 290.45 201.76C290.22 209.31 289.64 224.65 288.28 239.76C287.23 251.57 284.9 263.08 283.85 271.08L332.77 279.34C336.07 270.06 337.21 261.67 340.26 244.43C342.05 234.06 344.09 211.7 342.14 201.66Z" fill="#FB6514"/>
<path opacity="0.6" d="M342.14 201.66C341.67 199.22 338.04 196.25 335.58 195.84L333.95 195.56C330.657 195.045 327.339 194.711 324.01 194.56C317.348 194.187 310.671 194.187 304.01 194.56C300.92 194.85 297.89 195.35 295.48 195.82H295.39C294.021 196.115 292.79 196.861 291.894 197.937C290.999 199.014 290.49 200.36 290.45 201.76C290.22 209.31 289.64 224.65 288.28 239.76C287.23 251.57 284.9 263.08 283.85 271.08L332.77 279.34C336.07 270.06 337.21 261.67 340.26 244.43C342.05 234.06 344.09 211.7 342.14 201.66Z" fill="white"/>
<path d="M295.23 197C296.174 197.413 297.027 198.007 297.739 198.751C298.452 199.494 299.01 200.372 299.382 201.332C299.754 202.292 299.932 203.317 299.906 204.346C299.88 205.376 299.65 206.39 299.23 207.33C295.23 216.33 288.53 230.52 285.65 235.5C284.56 237.26 283.46 239.02 282.23 240.78C281.62 241.67 280.93 242.54 280.23 243.45C279.83 243.9 279.51 244.32 279.04 244.8L278.37 245.5L277.99 245.89C276.922 246.88 275.648 247.621 274.26 248.06C273.527 248.301 272.779 248.491 272.02 248.63C270.786 248.829 269.539 248.932 268.29 248.94C266.13 248.94 251.29 250.27 243.71 247.62L243.31 239.45C250.87 240.05 264.06 235.96 265.76 235.78C266.436 235.693 267.104 235.556 267.76 235.37C267.976 235.307 268.184 235.22 268.38 235.11C268.45 235.11 268.38 235.03 268.07 235.24C267.958 235.309 267.855 235.39 267.76 235.48L267.87 235.34L268.18 234.97C268.39 234.75 268.63 234.39 268.86 234.1C269.31 233.48 269.77 232.81 270.23 232.1C271.14 230.68 272.02 229.1 272.89 227.51C274.62 224.32 276.22 220.94 277.78 217.51C278.88 215.09 282.14 207.73 284.91 201.14C285.31 200.186 285.896 199.321 286.633 198.596C287.37 197.87 288.244 197.298 289.204 196.913C290.165 196.527 291.192 196.337 292.226 196.352C293.26 196.367 294.282 196.587 295.23 197Z" fill="#FB6514"/>
<path opacity="0.2" d="M288.6 228.79C288.74 233.26 288.68 231.79 288.84 236.5C301.9 218.43 298.54 205.88 298.54 205.88L288.6 228.79Z" fill="black"/>
<path opacity="0.6" d="M295.23 197C296.174 197.413 297.027 198.007 297.739 198.751C298.452 199.494 299.01 200.372 299.382 201.332C299.754 202.292 299.932 203.317 299.906 204.346C299.88 205.376 299.65 206.39 299.23 207.33C295.23 216.33 288.53 230.52 285.65 235.5C284.56 237.26 283.46 239.02 282.23 240.78C281.62 241.67 280.93 242.54 280.23 243.45C279.83 243.9 279.51 244.32 279.04 244.8L278.37 245.5L277.99 245.89C276.922 246.88 275.648 247.621 274.26 248.06C273.527 248.301 272.779 248.491 272.02 248.63C270.786 248.829 269.539 248.932 268.29 248.94C266.13 248.94 251.29 250.27 243.71 247.62L243.31 239.45C250.87 240.05 264.06 235.96 265.76 235.78C266.436 235.693 267.104 235.556 267.76 235.37C267.976 235.307 268.184 235.22 268.38 235.11C268.45 235.11 268.38 235.03 268.07 235.24C267.958 235.309 267.855 235.39 267.76 235.48L267.87 235.34L268.18 234.97C268.39 234.75 268.63 234.39 268.86 234.1C269.31 233.48 269.77 232.81 270.23 232.1C271.14 230.68 272.02 229.1 272.89 227.51C274.62 224.32 276.22 220.94 277.78 217.51C278.88 215.09 282.14 207.73 284.91 201.14C285.31 200.186 285.896 199.321 286.633 198.596C287.37 197.87 288.244 197.298 289.204 196.913C290.165 196.527 291.192 196.337 292.226 196.352C293.26 196.367 294.282 196.587 295.23 197Z" fill="white"/>
<path d="M309.92 162C309.138 162.689 308.502 163.526 308.047 164.464C307.592 165.401 307.328 166.42 307.27 167.46C307.14 170.23 309.83 170.98 312.16 169.68C314.28 168.5 316.87 165.68 315.89 163.12C314.91 160.56 311.88 160.26 309.92 162Z" fill="#FAB27B"/>
<path d="M318.82 166.32C318.62 170.86 315.88 174.43 311.34 174.23C306.8 174.03 304.34 170.23 304.58 165.69C304.82 161.15 307.53 157.58 312.07 157.78C316.61 157.98 319 161.78 318.82 166.32Z" fill="#FB6514"/>
<path opacity="0.7" d="M318.82 166.32C318.62 170.86 315.88 174.43 311.34 174.23C306.8 174.03 304.34 170.23 304.58 165.69C304.82 161.15 307.53 157.58 312.07 157.78C316.61 157.98 319 161.78 318.82 166.32Z" fill="white"/>
<path d="M316.73 166.23C316.58 169.44 314.65 171.95 311.44 171.81C308.23 171.67 306.53 168.99 306.68 165.81C306.83 162.63 308.75 160.09 311.96 160.23C315.17 160.37 316.87 163 316.73 166.23Z" fill="#FB6514"/>
<path opacity="0.3" d="M316.73 166.23C316.58 169.44 314.65 171.95 311.44 171.81C308.23 171.67 306.53 168.99 306.68 165.81C306.83 162.63 308.75 160.09 311.96 160.23C315.17 160.37 316.87 163 316.73 166.23Z" fill="white"/>
<path d="M311.47 157C312.4 153.18 316.08 143 323.71 141.58C324.077 141.517 324.454 141.551 324.805 141.677C325.155 141.803 325.467 142.018 325.71 142.3L326.62 143.3C326.833 143.547 326.989 143.838 327.075 144.153C327.161 144.467 327.176 144.797 327.119 145.118C327.061 145.439 326.933 145.743 326.743 146.008C326.552 146.273 326.306 146.493 326.02 146.65C321.24 149.157 317.463 153.226 315.32 158.18C315.169 158.534 314.896 158.821 314.551 158.99C314.206 159.159 313.812 159.198 313.44 159.1L312.59 158.87C312.2 158.76 311.867 158.505 311.659 158.157C311.451 157.81 311.383 157.396 311.47 157Z" fill="#FB6514"/>
<path opacity="0.2" d="M311.47 157C312.4 153.18 316.08 143 323.71 141.58C324.077 141.517 324.454 141.551 324.805 141.677C325.155 141.803 325.467 142.018 325.71 142.3L326.62 143.3C326.833 143.547 326.989 143.838 327.075 144.153C327.161 144.467 327.176 144.797 327.119 145.118C327.061 145.439 326.933 145.743 326.743 146.008C326.552 146.273 326.306 146.493 326.02 146.65C321.24 149.157 317.463 153.226 315.32 158.18C315.169 158.534 314.896 158.821 314.551 158.99C314.206 159.159 313.812 159.198 313.44 159.1L312.59 158.87C312.2 158.76 311.867 158.505 311.659 158.157C311.451 157.81 311.383 157.396 311.47 157Z" fill="white"/>
<path d="M257.76 268.75H251.26V296.49H257.76V268.75Z" fill="#263238"/>
<path d="M257.76 268.75H251.26V296.49H257.76V268.75Z" fill="#263238"/>
<path d="M276.59 277.22C262.284 272.223 246.706 272.223 232.4 277.22C230.961 277.761 229.373 277.754 227.939 277.201C226.505 276.648 225.323 275.587 224.62 274.22C223.29 271.42 225.07 267.79 228.68 266.53C245.388 260.69 263.582 260.69 280.29 266.53C283.89 267.78 285.67 271.42 284.35 274.22C283.642 275.578 282.464 276.631 281.036 277.183C279.607 277.735 278.027 277.748 276.59 277.22Z" fill="#263238"/>
<path opacity="0.4" d="M276.59 277.22C262.284 272.223 246.706 272.223 232.4 277.22C230.961 277.761 229.373 277.754 227.939 277.201C226.505 276.648 225.323 275.587 224.62 274.22C223.29 271.42 225.07 267.79 228.68 266.53C245.388 260.69 263.582 260.69 280.29 266.53C283.89 267.78 285.67 271.42 284.35 274.22C283.642 275.578 282.464 276.631 281.036 277.183C279.607 277.735 278.027 277.748 276.59 277.22Z" fill="#263238"/>
<path d="M269.81 407.94C269.81 408.941 269.513 409.919 268.957 410.752C268.401 411.584 267.611 412.232 266.686 412.615C265.762 412.998 264.744 413.098 263.763 412.903C262.781 412.708 261.88 412.226 261.172 411.518C260.464 410.811 259.982 409.909 259.787 408.928C259.592 407.946 259.692 406.929 260.075 406.004C260.458 405.079 261.107 404.289 261.939 403.733C262.771 403.177 263.749 402.88 264.75 402.88C266.092 402.88 267.379 403.413 268.328 404.362C269.277 405.311 269.81 406.598 269.81 407.94Z" fill="#263238"/>
<path d="M344.11 407.94C344.11 408.941 344.407 409.92 344.963 410.752C345.52 411.585 346.311 412.233 347.236 412.616C348.161 412.999 349.179 413.098 350.161 412.902C351.143 412.706 352.044 412.223 352.751 411.515C353.459 410.806 353.94 409.903 354.134 408.921C354.328 407.939 354.226 406.921 353.842 405.997C353.457 405.072 352.807 404.283 351.974 403.728C351.14 403.173 350.161 402.878 349.16 402.88C348.494 402.873 347.834 403 347.217 403.252C346.601 403.504 346.041 403.877 345.571 404.348C345.1 404.819 344.729 405.38 344.478 405.997C344.227 406.613 344.102 407.274 344.11 407.94Z" fill="#263238"/>
<path d="M300.29 406.32C300.29 407.323 300.588 408.304 301.147 409.137C301.706 409.971 302.5 410.619 303.428 411C304.356 411.382 305.376 411.478 306.359 411.278C307.343 411.078 308.244 410.59 308.949 409.876C309.654 409.163 310.132 408.255 310.32 407.27C310.508 406.285 310.4 405.265 310.007 404.342C309.615 403.418 308.957 402.632 308.117 402.084C307.277 401.535 306.293 401.248 305.29 401.26C303.958 401.276 302.687 401.816 301.751 402.763C300.815 403.71 300.29 404.988 300.29 406.32Z" fill="#263238"/>
<path d="M360.19 401.14C360.079 401.716 359.766 402.234 359.308 402.6C358.85 402.966 358.276 403.158 357.69 403.14L304.94 402.42L255.53 403.54C254.916 403.552 254.32 403.335 253.858 402.93C253.397 402.525 253.104 401.962 253.036 401.352C252.968 400.742 253.131 400.128 253.493 399.632C253.854 399.136 254.388 398.793 254.99 398.67L281.99 393.43C284.79 392.908 287.632 392.643 290.48 392.64H319.48C322.325 392.642 325.164 392.907 327.96 393.43L358.28 398.29C358.908 398.421 359.46 398.792 359.817 399.325C360.174 399.858 360.308 400.51 360.19 401.14Z" fill="#263238"/>
<path d="M313.9 348.6H295.96V400.25H313.9V348.6Z" fill="#263238"/>
<path d="M311.33 315.88H298.54V348.86H311.33V315.88Z" fill="#263238"/>
<path opacity="0.2" d="M298.54 321.99L311.33 325.21V315.88H298.54V321.99Z" fill="black"/>
<path d="M299.79 292.41V315.73H231.69C230.211 315.733 228.758 315.344 227.478 314.603C226.199 313.861 225.139 312.793 224.407 311.508C223.675 310.223 223.297 308.767 223.312 307.288C223.326 305.809 223.733 304.361 224.49 303.09C226.413 299.839 229.15 297.145 232.431 295.272C235.711 293.4 239.423 292.413 243.2 292.41H299.79Z" fill="#FB6514"/>
<path opacity="0.2" d="M299.79 292.41V315.73H231.69C230.211 315.733 228.758 315.344 227.478 314.603C226.199 313.861 225.139 312.793 224.407 311.508C223.675 310.223 223.297 308.767 223.312 307.288C223.326 305.809 223.733 304.361 224.49 303.09C226.413 299.839 229.15 297.145 232.431 295.272C235.711 293.4 239.423 292.413 243.2 292.41H299.79Z" fill="white"/>
<path d="M313.5 206.05C313.33 206.8 313.22 207.563 313.17 208.33L305.68 315.33H295.35L302.83 208.33C302.825 208.247 302.825 208.164 302.83 208.08L313.5 206.05Z" fill="#FB6514"/>
<path opacity="0.2" d="M313.5 206.05C313.33 206.8 313.22 207.563 313.17 208.33L305.68 315.33H295.35L302.83 208.33C302.825 208.247 302.825 208.164 302.83 208.08L313.5 206.05Z" fill="white"/>
<path d="M361 315.75V315.87H359.26C359.842 315.871 360.424 315.83 361 315.75Z" fill="#263238"/>
<path d="M384 205.37L384.12 192.65C384.185 189.129 382.929 185.712 380.6 183.07L373.09 174.6L370.4 153.41C370.212 151.827 369.443 150.369 368.242 149.32C367.042 148.271 365.494 147.704 363.9 147.73H345.24C343.736 147.749 342.27 148.208 341.026 149.053C339.781 149.898 338.812 151.089 338.24 152.48L328.83 175.27L313.27 184.46C311.305 185.613 309.599 187.156 308.255 188.995C306.912 190.834 305.96 192.929 305.46 195.15L302.62 208.15H302.84L313.48 206.15C313.31 206.9 313.2 207.663 313.15 208.43L305.66 315.43H364.23C364.815 315.431 365.4 315.391 365.98 315.31C368.92 314.86 371.622 313.43 373.648 311.252C375.673 309.074 376.904 306.275 377.14 303.31L383.84 207.42C383.885 206.734 383.885 206.046 383.84 205.36L384 205.37ZM335.05 197.28L316.84 199L316.05 199.08L318.57 190.8L331.08 185L335.25 183.06L335.91 185L336.02 185.33L336.63 187.12L335.05 197.28ZM370.83 197.5L368.6 196.92C368.6 196.22 368.52 195.5 368.48 194.79C368.25 190.79 368.06 187.09 368.06 187.09L368.33 185.78L368.89 183.03L376.97 190.81V199.09L370.83 197.5Z" fill="#FB6514"/>
</svg>
