<svg width="500" height="500" viewBox="0 0 500 500" fill="none" xmlns="http://www.w3.org/2000/svg">
<path d="M477.67 230.84C472.43 205.21 463.23 180.19 452.29 157.19C433.43 117.51 402.53 84.5599 363 64.9999C266 16.9999 196 36.9999 158 75.9999C120 115 131 182 90 211C49 240 20 253 18 306C16 359 42 399 84 412C126 425 189 467 315 443C441 419 472 352 480 304C484 279.85 482.62 255.07 477.67 230.84Z" fill="#FB6514"/>
<path opacity="0.7" d="M477.67 230.84C472.43 205.21 463.23 180.19 452.29 157.19C433.43 117.51 402.53 84.5599 363 64.9999C266 16.9999 196 36.9999 158 75.9999C120 115 131 182 90 211C49 240 20 253 18 306C16 359 42 399 84 412C126 425 189 467 315 443C441 419 472 352 480 304C484 279.85 482.62 255.07 477.67 230.84Z" fill="white"/>
<path d="M182.32 84.52H173.26V124.67H182.32V84.52Z" fill="#C9C9C9" stroke="#263238" stroke-linecap="round" stroke-linejoin="round"/>
<path d="M182.32 90.5601H173.26V94.4801H182.32V90.5601Z" fill="white" stroke="#263238" stroke-linecap="round" stroke-linejoin="round"/>
<path d="M182.32 115.47H173.26V119.39H182.32V115.47Z" fill="white" stroke="#263238" stroke-linecap="round" stroke-linejoin="round"/>
<path d="M192.89 84.52H180.21V124.67H192.89V84.52Z" fill="#878787" stroke="#263238" stroke-linecap="round" stroke-linejoin="round"/>
<path d="M191.99 84.52H182.93V124.67H191.99V84.52Z" fill="#C9C9C9" stroke="#263238" stroke-linecap="round" stroke-linejoin="round"/>
<path d="M191.99 90.5601H182.93V94.4801H191.99V90.5601Z" fill="white" stroke="#263238" stroke-linecap="round" stroke-linejoin="round"/>
<path d="M191.99 115.47H182.93V119.39H191.99V115.47Z" fill="white" stroke="#263238" stroke-linecap="round" stroke-linejoin="round"/>
<path d="M202.55 84.52H189.87V124.67H202.55V84.52Z" fill="#878787" stroke="#263238" stroke-linecap="round" stroke-linejoin="round"/>
<path d="M201.65 84.52H192.59V124.67H201.65V84.52Z" fill="#C9C9C9" stroke="#263238" stroke-linecap="round" stroke-linejoin="round"/>
<path d="M201.65 90.5601H192.59V94.4801H201.65V90.5601Z" fill="white" stroke="#263238" stroke-linecap="round" stroke-linejoin="round"/>
<path d="M201.65 115.47H192.59V119.39H201.65V115.47Z" fill="white" stroke="#263238" stroke-linecap="round" stroke-linejoin="round"/>
<path d="M212.21 84.52H199.53V124.67H212.21V84.52Z" fill="#C9C9C9" stroke="#263238" stroke-linecap="round" stroke-linejoin="round"/>
<path d="M220.47 125.08H241.75L247.41 119.96H220.47V125.08Z" fill="white" stroke="#263238" stroke-linecap="round" stroke-linejoin="round"/>
<path d="M245 125.34L244.32 124.17L220.03 124.12L220.73 125.34H245Z" fill="white" stroke="#263238" stroke-linecap="round" stroke-linejoin="round"/>
<path d="M208.15 85.3561L200.307 89.8916L220.406 124.648L228.249 120.113L208.15 85.3561Z" fill="#C9C9C9" stroke="#263238" stroke-linecap="round" stroke-linejoin="round"/>
<path d="M211.176 90.5705L203.333 95.106L205.295 98.4994L213.138 93.9639L211.176 90.5705Z" fill="white" stroke="#263238" stroke-linecap="round" stroke-linejoin="round"/>
<path d="M223.654 112.132L215.811 116.667L217.773 120.061L225.616 115.525L223.654 112.132Z" fill="white" stroke="#263238" stroke-linecap="round" stroke-linejoin="round"/>
<path d="M247.27 120.31L228.04 120.26L207.94 85.5L227.17 85.55L247.27 120.31Z" fill="#C9C9C9" stroke="#263238" stroke-linecap="round" stroke-linejoin="round"/>
<path d="M257.75 104.75C257.75 104.75 254.25 103.5 253.25 98C252.25 92.5 250.5 84.75 252.5 83C254.5 81.25 258.25 80.25 258.75 83.75C259.25 87.25 258.5 94 259.25 95.5C260 97 262.5 96 262.5 93C262.5 88.06 260.5 83 261.21 78C262.21 71.09 269.21 70.33 269.96 78C270.38 82.24 270.5 86.57 270.5 90.83C270.5 92.58 273.5 93.58 273.25 89.33C273.07 86.33 275.25 82.83 278.25 83.83C281.25 84.83 278.75 98.08 277.75 100.33C276.75 102.58 270.5 103 270.5 103V108.75L263 109L262.75 103.25C261.223 104.133 259.511 104.646 257.75 104.75Z" fill="#FB6514" stroke="#263238" stroke-linecap="round" stroke-linejoin="round"/>
<path d="M264.5 93.79C264.59 95.04 264.65 95.79 264.65 95.79" stroke="#263238" stroke-linecap="round" stroke-linejoin="round"/>
<path d="M265 74.3999C265 74.3999 263.36 75.5399 263.48 78.9599C263.56 81.0399 263.96 86.7999 264.27 91.0099" stroke="#263238" stroke-linecap="round" stroke-linejoin="round"/>
<path d="M267.82 86.1899L268.08 94.5599" stroke="#263238" stroke-linecap="round" stroke-linejoin="round"/>
<path d="M271.48 100C270.901 100.09 270.316 100.14 269.73 100.15" stroke="#263238" stroke-linecap="round" stroke-linejoin="round"/>
<path d="M276.7 85.9399C276.122 87.0345 275.817 88.2523 275.81 89.4899C275.81 91.4899 275.94 97.0999 274.67 98.6199C274.36 98.9612 273.982 99.2337 273.56 99.4199" stroke="#263238" stroke-linecap="round" stroke-linejoin="round"/>
<path d="M255 97.1899C255.3 98.6934 256.022 100.081 257.08 101.19C257.706 101.691 258.478 101.974 259.28 101.995C260.081 102.017 260.868 101.776 261.52 101.31" stroke="#263238" stroke-linecap="round" stroke-linejoin="round"/>
<path d="M254.76 83.6602C254.76 83.6602 252.23 83.6601 253.11 88.0901C253.49 89.9601 253.84 92.2602 254.29 94.4302" stroke="#263238" stroke-linecap="round" stroke-linejoin="round"/>
<path d="M264.27 100.52L264.78 105.97" stroke="#263238" stroke-linecap="round" stroke-linejoin="round"/>
<path d="M277.25 106.5L276.34 113.96L275.72 119.04L275 124.95H257.01L256.29 119.04L255.67 113.96L254.76 106.5H277.25Z" fill="white" stroke="#263238" stroke-linecap="round" stroke-linejoin="round"/>
<path d="M276.34 113.96L275.72 119.04H256.29L255.67 113.96H276.34Z" fill="#FB6514" stroke="#263238" stroke-linecap="round" stroke-linejoin="round"/>
<path d="M287.13 124.95H171.66V132.6H287.13V124.95Z" fill="white" stroke="#263238" stroke-linecap="round" stroke-linejoin="round"/>
<path d="M287.13 124.95H260.51V132.6H287.13V124.95Z" fill="white" stroke="#263238" stroke-linecap="round" stroke-linejoin="round"/>
<path d="M257.92 132.63C270.29 137.19 268.06 145.81 268.06 145.81H279.77V132.63H257.92Z" fill="#919191" stroke="#263238" stroke-linecap="round" stroke-linejoin="round"/>
<path d="M261.87 132.63C274.23 137.19 272 145.81 272 145.81H283.72V132.63H261.87Z" fill="white" stroke="#263238" stroke-linecap="round" stroke-linejoin="round"/>
<path d="M178.67 132.63C191.04 137.19 188.81 145.81 188.81 145.81H200.52V132.63H178.67Z" fill="#919191" stroke="#263238" stroke-linecap="round" stroke-linejoin="round"/>
<path d="M182.62 132.63C194.98 137.19 192.75 145.81 192.75 145.81H204.47V132.63H182.62Z" fill="white" stroke="#263238" stroke-linecap="round" stroke-linejoin="round"/>
<path d="M448.04 85.9502H344.48V229.71H448.04V85.9502Z" fill="#919191" stroke="#263238" stroke-linecap="round" stroke-linejoin="round"/>
<path d="M443.55 92.1904H348.98V223.47H443.55V92.1904Z" fill="#FB6514"/>
<path opacity="0.5" d="M443.55 92.1904H348.98V223.47H443.55V92.1904Z" fill="white"/>
<path d="M369.77 213.5C367.235 217.368 364.031 220.754 360.31 223.5H443.55V92.1904H428.21L426.21 92.8204C411.21 97.5504 395.71 111.24 386.92 136.12" stroke="#263238" stroke-linecap="round" stroke-linejoin="round"/>
<path d="M385.46 140.48C381.968 152.345 380.038 164.615 379.72 176.98C379.17 191.82 376.01 202.49 371.79 210.16" stroke="#263238" stroke-linecap="round" stroke-linejoin="round"/>
<path d="M434.3 125.51C420.55 133.51 404.54 146.95 398.56 167.56C395.35 178.56 398.36 188.48 404.31 196.97" stroke="#263238" stroke-linecap="round" stroke-linejoin="round"/>
<path d="M407.53 201.11C415.78 210.77 427.53 218.37 437.04 223.48H443.55V120.66C441.69 121.53 439.71 122.51 437.65 123.66" stroke="#263238" stroke-linecap="round" stroke-linejoin="round"/>
<path d="M364.7 126.42C371.94 111.66 372.7 99.9504 371.87 92.1904H349V152.25C352.38 147.44 356.52 141.01 361.52 132.39C361.83 131.86 362.12 131.39 362.41 130.83" stroke="#263238" stroke-linecap="round" stroke-linejoin="round"/>
<path d="M373.66 183.27C372.55 190.54 369.21 195.82 365.27 195.82C360.42 195.82 356.48 187.82 356.48 177.92C356.48 168.02 360.42 160.02 365.27 160.02C370.12 160.02 374.06 168.02 374.06 177.92" stroke="#263238" stroke-linecap="round" stroke-linejoin="round"/>
<path d="M377.83 141.18C377.83 144.99 376.15 148.09 374.06 148.09C371.97 148.09 370.3 144.99 370.3 141.18C370.3 137.37 371.98 134.27 374.06 134.27C376.14 134.27 377.83 137.36 377.83 141.18Z" stroke="#263238" stroke-linecap="round" stroke-linejoin="round"/>
<path d="M425.81 170.37C429.44 172.1 431.81 175.12 431.81 178.55C431.81 183.92 425.91 188.28 418.62 188.28C411.33 188.28 405.44 183.92 405.44 178.55C405.44 173.18 411.34 168.81 418.62 168.81C419.782 168.809 420.941 168.923 422.08 169.15" stroke="#263238" stroke-linecap="round" stroke-linejoin="round"/>
<path d="M424.18 178.55C424.18 180.8 421.71 182.63 418.65 182.63C415.59 182.63 413.12 180.8 413.12 178.55C413.12 176.3 415.6 174.46 418.65 174.46C421.7 174.46 424.18 176.29 424.18 178.55Z" stroke="#263238" stroke-linecap="round" stroke-linejoin="round"/>
<path d="M433.1 153.74C433.1 156.86 430.01 159.39 426.19 159.39C422.37 159.39 419.28 156.86 419.28 153.74C419.28 150.62 422.37 148.09 426.19 148.09C430.01 148.09 433.1 150.62 433.1 153.74Z" stroke="#263238" stroke-linecap="round" stroke-linejoin="round"/>
<path d="M383.17 122.34C385.771 122.34 387.88 117.138 387.88 110.72C387.88 104.303 385.771 99.1001 383.17 99.1001C380.569 99.1001 378.46 104.303 378.46 110.72C378.46 117.138 380.569 122.34 383.17 122.34Z" stroke="#263238" stroke-linecap="round" stroke-linejoin="round"/>
<path d="M396.05 210.58C396.05 211.885 395.663 213.161 394.938 214.247C394.212 215.332 393.182 216.178 391.976 216.678C390.77 217.177 389.443 217.308 388.162 217.053C386.882 216.798 385.706 216.17 384.783 215.247C383.86 214.324 383.231 213.148 382.977 211.868C382.722 210.587 382.853 209.26 383.352 208.054C383.852 206.848 384.698 205.818 385.783 205.092C386.868 204.367 388.145 203.98 389.45 203.98C391.2 203.98 392.879 204.675 394.117 205.913C395.355 207.151 396.05 208.83 396.05 210.58Z" stroke="#263238" stroke-linecap="round" stroke-linejoin="round"/>
<path d="M426.82 112.6C426.822 113.41 426.583 114.202 426.135 114.876C425.686 115.55 425.047 116.076 424.3 116.387C423.552 116.698 422.729 116.779 421.934 116.622C421.14 116.464 420.41 116.075 419.838 115.502C419.265 114.929 418.875 114.2 418.718 113.405C418.561 112.611 418.642 111.788 418.953 111.04C419.264 110.292 419.79 109.654 420.464 109.205C421.138 108.757 421.93 108.518 422.74 108.52C423.821 108.523 424.857 108.953 425.622 109.718C426.387 110.483 426.817 111.519 426.82 112.6Z" stroke="#263238" stroke-linecap="round" stroke-linejoin="round"/>
<path d="M401.07 141.49C401.072 141.926 400.945 142.352 400.704 142.715C400.463 143.078 400.121 143.362 399.719 143.53C399.317 143.698 398.874 143.743 398.447 143.659C398.019 143.575 397.627 143.367 397.318 143.059C397.009 142.752 396.799 142.36 396.713 141.933C396.627 141.506 396.67 141.063 396.836 140.661C397.003 140.258 397.285 139.914 397.647 139.672C398.009 139.43 398.434 139.3 398.87 139.3C399.158 139.299 399.444 139.355 399.711 139.464C399.978 139.574 400.22 139.735 400.425 139.938C400.629 140.142 400.792 140.384 400.902 140.65C401.013 140.916 401.07 141.202 401.07 141.49Z" stroke="#263238" stroke-linecap="round" stroke-linejoin="round"/>
<path d="M443.55 92.1904H348.98V223.47H443.55V92.1904Z" stroke="#263238" stroke-linecap="round" stroke-linejoin="round"/>
<path d="M288.99 279.39H263.3V289.06H288.99V279.39Z" fill="#263238" stroke="#263238" stroke-linecap="round" stroke-linejoin="round"/>
<path d="M323.46 280.85H221.21L226.05 201.59H328.31L323.46 280.85Z" fill="#919191" stroke="#263238" stroke-linecap="round" stroke-linejoin="round"/>
<path d="M320.53 280.85H218.28L223.12 201.59H325.37L320.53 280.85Z" fill="#263238" stroke="#263238" stroke-linecap="round" stroke-linejoin="round"/>
<path d="M315.12 276.44H224.23L228.53 205.99H319.42L315.12 276.44Z" fill="white" stroke="#263238" stroke-linecap="round" stroke-linejoin="round"/>
<path d="M288.68 265.94H226.94L230.25 211.65H292L288.68 265.94Z" fill="#919191" stroke="#263238" stroke-linecap="round" stroke-linejoin="round"/>
<path d="M251.3 242.62C251.3 242.62 238.44 247.71 238.36 249.08C238.28 250.45 235.76 265.94 235.76 265.94H274L270.78 248.1L256.63 242.22L251.3 242.62Z" fill="white" stroke="#263238" stroke-linecap="round" stroke-linejoin="round"/>
<path d="M251.68 239.48C250.712 239.735 249.814 240.203 249.05 240.85C248.05 241.85 246.83 245.16 246.83 245.16L246.78 249.08L251.85 246.34L257 246L261.82 250.51L262.44 243.65C262.44 243.65 261.7 239.73 260.14 239.53C258.58 239.33 251.68 239.48 251.68 239.48Z" fill="white" stroke="#263238" stroke-linecap="round" stroke-linejoin="round"/>
<path d="M251.52 235.76L251.3 242.62L254.33 247.52L259.34 242.42L260.12 236.15L251.52 235.76Z" fill="white" stroke="#263238" stroke-linecap="round" stroke-linejoin="round"/>
<path d="M263.88 227.74C263.52 233.49 259.7 240.46 255.51 240.46C251.32 240.46 248.35 233.46 248.7 227.74C249.05 222.02 252.7 217.33 256.92 217.33C261.14 217.33 264.23 222 263.88 227.74Z" fill="white" stroke="#263238" stroke-linecap="round" stroke-linejoin="round"/>
<path d="M248.63 228.5C248.63 228.5 247.28 224.98 246.72 227.72C246.16 230.46 248.92 233.4 248.92 233.4L248.63 228.5Z" fill="white" stroke="#263238" stroke-linecap="round" stroke-linejoin="round"/>
<path d="M263.88 227.74C263.88 227.74 267.19 226.35 266.22 229.29C265.974 230.122 265.544 230.888 264.963 231.532C264.381 232.175 263.663 232.681 262.86 233.01L263.88 227.74Z" fill="white" stroke="#263238" stroke-linecap="round" stroke-linejoin="round"/>
<path d="M255.1 228.5C255.127 228.147 255.079 227.792 254.961 227.459C254.843 227.125 254.656 226.819 254.414 226.562C254.171 226.304 253.877 226.1 253.551 225.962C253.225 225.823 252.874 225.755 252.52 225.76C251.783 225.779 251.079 226.069 250.542 226.575C250.006 227.08 249.674 227.766 249.61 228.5C249.584 228.854 249.631 229.209 249.749 229.543C249.867 229.877 250.054 230.183 250.296 230.442C250.539 230.7 250.832 230.906 251.158 231.045C251.484 231.184 251.836 231.254 252.19 231.25C252.929 231.23 253.634 230.939 254.171 230.432C254.708 229.924 255.039 229.236 255.1 228.5Z" fill="white" stroke="#263238" stroke-linecap="round" stroke-linejoin="round"/>
<path d="M261.76 228.5L264.75 227.72" stroke="#263238" stroke-linecap="round" stroke-linejoin="round"/>
<path d="M261.76 228.5C261.786 228.148 261.739 227.794 261.622 227.461C261.504 227.128 261.319 226.823 261.077 226.565C260.835 226.308 260.543 226.103 260.218 225.964C259.893 225.826 259.543 225.756 259.19 225.76C258.451 225.777 257.745 226.066 257.206 226.571C256.667 227.077 256.334 227.764 256.27 228.5C256.244 228.853 256.291 229.209 256.409 229.543C256.527 229.877 256.713 230.183 256.956 230.442C257.199 230.7 257.492 230.905 257.818 231.045C258.144 231.184 258.496 231.254 258.85 231.25C259.589 231.23 260.294 230.939 260.831 230.431C261.368 229.924 261.699 229.236 261.76 228.5Z" fill="white" stroke="#263238" stroke-linecap="round" stroke-linejoin="round"/>
<path d="M256.24 216.15C256.24 216.15 253.24 214.59 250.99 215.57C248.74 216.55 247.08 221.84 247.19 223.21C247.543 225.006 248.024 226.773 248.63 228.5L251.01 221.64L257.25 218.9L256.24 216.15Z" fill="#263238" stroke="#263238" stroke-linecap="round" stroke-linejoin="round"/>
<path d="M253.22 217.53C253.22 217.53 258.16 213.61 262.16 215.53C263.384 216.062 264.396 216.987 265.036 218.159C265.675 219.331 265.905 220.682 265.69 222C265.63 223 265.55 227.48 265.55 227.48L263.17 227.88L262 224.19C260.648 223.655 259.332 223.034 258.06 222.33C258.06 222.33 252.77 221.64 253.22 217.53Z" fill="#263238" stroke="#263238" stroke-linecap="round" stroke-linejoin="round"/>
<path d="M255.1 228.5L254.75 234.19H256.12" fill="white"/>
<path d="M255.1 228.5L254.75 234.19H256.12" stroke="#263238" stroke-linecap="round" stroke-linejoin="round"/>
<path d="M254.03 236.34H256.97" stroke="#263238" stroke-linecap="round" stroke-linejoin="round"/>
<path d="M254.33 247.52L253.24 265.35" stroke="#263238" stroke-linecap="round" stroke-linejoin="round"/>
<path d="M270.76 248.1C270.76 248.1 266.67 257.32 266.55 259.28C266.43 261.24 265.97 265.55 265.97 265.55" stroke="#263238" stroke-linecap="round" stroke-linejoin="round"/>
<path d="M238.36 249.08C238.36 249.08 242.43 256.14 242.96 257.08C243.49 258.02 242.84 265.51 242.84 265.51" stroke="#263238" stroke-linecap="round" stroke-linejoin="round"/>
<path d="M273.49 254.77L274.84 248.69L277.14 246.34L279.31 242.81H280.29L279.09 246.54L282.13 244.77L284.09 241.64L285.23 242.22L282.43 249.48L277.99 251.63L277.22 254.57L273.49 254.77Z" fill="white" stroke="#263238" stroke-linecap="round" stroke-linejoin="round"/>
<path d="M277.29 265.94L277.66 253.79L273.2 253L269.68 265.94H277.29Z" fill="white" stroke="#263238" stroke-linecap="round" stroke-linejoin="round"/>
<path d="M288.41 270.45H226.66L226.94 265.94H288.68L288.41 270.45Z" fill="white" stroke="#263238" stroke-linecap="round" stroke-linejoin="round"/>
<path d="M229.18 267.71H285.83" stroke="#263238" stroke-linecap="round" stroke-linejoin="round"/>
<path d="M315.22 226.14H294.44L295.32 211.83H316.1L315.22 226.14Z" fill="#FB6514" stroke="#263238" stroke-linecap="round" stroke-linejoin="round"/>
<path d="M315.22 226.14H294.44L294.59 223.79H315.37L315.22 226.14Z" fill="white" stroke="#263238" stroke-linecap="round" stroke-linejoin="round"/>
<path d="M308.51 218.15L303.11 214.92L302.72 221.38L308.51 218.15Z" fill="white" stroke="#263238" stroke-linecap="round" stroke-linejoin="round"/>
<path d="M313.87 248.29H293.09L293.96 233.99H314.74L313.87 248.29Z" fill="#FB6514" stroke="#263238" stroke-linecap="round" stroke-linejoin="round"/>
<path d="M313.87 248.29H293.09L293.24 245.94H314.01L313.87 248.29Z" fill="white" stroke="#263238" stroke-linecap="round" stroke-linejoin="round"/>
<path d="M307.16 240.31L301.76 237.08L301.37 243.54L307.16 240.31Z" fill="white" stroke="#263238" stroke-linecap="round" stroke-linejoin="round"/>
<path d="M312.51 270.45H291.74L292.61 256.14H313.39L312.51 270.45Z" fill="#FB6514" stroke="#263238" stroke-linecap="round" stroke-linejoin="round"/>
<path d="M312.51 270.45H291.74L291.88 268.1H312.66L312.51 270.45Z" fill="white" stroke="#263238" stroke-linecap="round" stroke-linejoin="round"/>
<path d="M305.8 262.46L300.41 259.23L300.01 265.69L305.8 262.46Z" fill="white" stroke="#263238" stroke-linecap="round" stroke-linejoin="round"/>
<path d="M294.5 228.5H314.68" stroke="#263238" stroke-linecap="round" stroke-linejoin="round"/>
<path d="M294.35 230.86H314.54" stroke="#263238" stroke-linecap="round" stroke-linejoin="round"/>
<path d="M293.13 250.85H313.32" stroke="#263238" stroke-linecap="round" stroke-linejoin="round"/>
<path d="M292.99 253.2H313.18" stroke="#263238" stroke-linecap="round" stroke-linejoin="round"/>
<path d="M284.18 289.06H269C269 287.545 269.602 286.093 270.672 285.022C271.743 283.951 273.196 283.35 274.71 283.35H278.45C279.964 283.35 281.417 283.951 282.488 285.022C283.558 286.093 284.16 287.545 284.16 289.06H284.18Z" fill="white" stroke="#263238" stroke-linecap="round" stroke-linejoin="round"/>
<path d="M261.77 285.95H187.55V289.06H261.77V285.95Z" fill="#919191" stroke="#263238" stroke-linecap="round" stroke-linejoin="round"/>
<path d="M261.75 285.95H243.1V289.06H261.75V285.95Z" fill="white" stroke="#263238" stroke-linecap="round" stroke-linejoin="round"/>
<path d="M157.13 136.63V77.54" stroke="#263238" stroke-linecap="round" stroke-linejoin="round"/>
<path d="M157.13 432.36V142.51" stroke="#263238" stroke-linecap="round" stroke-linejoin="round"/>
<path d="M292.07 309.8L301.07 431.13C301.117 431.573 301.331 431.981 301.668 432.272C302.005 432.562 302.441 432.714 302.886 432.694C303.33 432.675 303.751 432.487 304.062 432.169C304.373 431.85 304.551 431.425 304.56 430.98L303.21 309.8H292.07Z" fill="#919191" stroke="#263238" stroke-linecap="round" stroke-linejoin="round"/>
<path d="M298.86 309.8L303.61 432.53C303.89 432.38 304.124 432.156 304.286 431.883C304.449 431.61 304.533 431.298 304.53 430.98L303.21 309.8H298.86Z" fill="white" stroke="#263238" stroke-linecap="round" stroke-linejoin="round"/>
<path d="M348.64 309.8L357.64 431.13C357.687 431.573 357.901 431.981 358.238 432.272C358.575 432.562 359.011 432.714 359.456 432.694C359.9 432.675 360.321 432.487 360.632 432.169C360.944 431.85 361.122 431.425 361.13 430.98L359.78 309.8H348.64Z" fill="#919191" stroke="#263238" stroke-linecap="round" stroke-linejoin="round"/>
<path d="M354.9 309.8L360.44 432.35C360.648 432.187 360.815 431.979 360.93 431.742C361.044 431.504 361.103 431.243 361.1 430.98L359.78 309.8H354.9Z" fill="white" stroke="#263238" stroke-linecap="round" stroke-linejoin="round"/>
<path d="M199.52 311.12L190.52 431.12C190.49 431.56 190.293 431.973 189.97 432.273C189.647 432.574 189.221 432.741 188.78 432.74C188.549 432.744 188.319 432.702 188.103 432.616C187.888 432.531 187.692 432.403 187.527 432.241C187.361 432.08 187.229 431.887 187.139 431.673C187.049 431.46 187.001 431.231 187 431L188.33 310.8L199.52 311.12Z" fill="#263238" stroke="#263238" stroke-linecap="round" stroke-linejoin="round"/>
<path d="M143 311.12L134 431.12C133.97 431.56 133.773 431.973 133.45 432.274C133.127 432.574 132.702 432.741 132.26 432.74C132.029 432.739 131.801 432.692 131.589 432.602C131.376 432.512 131.184 432.381 131.022 432.217C130.86 432.052 130.733 431.858 130.647 431.644C130.56 431.43 130.517 431.201 130.52 430.97L131.85 310.77L143 311.12Z" fill="#263238" stroke="#263238" stroke-linecap="round" stroke-linejoin="round"/>
<path d="M363.09 291.88H128.46V310.78H363.09V291.88Z" fill="#919191" stroke="#263238" stroke-linecap="round" stroke-linejoin="round"/>
<path d="M363.09 291.88H295.85V310.78H363.09V291.88Z" fill="white" stroke="#263238" stroke-linecap="round" stroke-linejoin="round"/>
<path d="M363.09 294.88H128.46V300.09H363.09V294.88Z" fill="#263238" stroke="#263238" stroke-linecap="round" stroke-linejoin="round"/>
<path d="M366.47 289.17H125.08V295.49H366.47V289.17Z" fill="#919191" stroke="#263238" stroke-linecap="round" stroke-linejoin="round"/>
<path d="M366.46 289.17H300.17V295.49H366.46V289.17Z" fill="white" stroke="#263238" stroke-linecap="round" stroke-linejoin="round"/>
<path d="M295.29 172H262.71C261.013 172 259.385 172.674 258.185 173.875C256.984 175.075 256.31 176.703 256.31 178.4V190.4C256.309 191.241 256.473 192.074 256.795 192.851C257.116 193.628 257.587 194.334 258.182 194.928C258.776 195.523 259.482 195.994 260.259 196.316C261.036 196.637 261.869 196.801 262.71 196.8H279.77L273.38 214.65L285.62 196.8H295.29C296.131 196.801 296.964 196.637 297.741 196.316C298.518 195.994 299.224 195.523 299.818 194.928C300.413 194.334 300.884 193.628 301.206 192.851C301.527 192.074 301.691 191.241 301.69 190.4V178.4C301.69 176.703 301.016 175.075 299.816 173.875C298.615 172.674 296.987 172 295.29 172Z" fill="white" stroke="#263238" stroke-linecap="round" stroke-linejoin="round"/>
<path d="M270.27 187.13C271.557 187.13 272.6 186.087 272.6 184.8C272.6 183.513 271.557 182.47 270.27 182.47C268.983 182.47 267.94 183.513 267.94 184.8C267.94 186.087 268.983 187.13 270.27 187.13Z" fill="#263238"/>
<path d="M279 187.13C280.287 187.13 281.33 186.087 281.33 184.8C281.33 183.513 280.287 182.47 279 182.47C277.713 182.47 276.67 183.513 276.67 184.8C276.67 186.087 277.713 187.13 279 187.13Z" fill="#263238"/>
<path d="M290.05 184.8C290.05 184.339 289.913 183.888 289.657 183.505C289.4 183.121 289.036 182.823 288.609 182.647C288.183 182.471 287.714 182.425 287.262 182.516C286.81 182.606 286.394 182.829 286.069 183.156C285.744 183.483 285.522 183.899 285.434 184.352C285.345 184.804 285.392 185.273 285.57 185.699C285.748 186.124 286.048 186.488 286.433 186.742C286.817 186.997 287.269 187.132 287.73 187.13C288.036 187.13 288.338 187.07 288.62 186.953C288.902 186.835 289.159 186.664 289.374 186.447C289.59 186.231 289.76 185.974 289.876 185.691C289.992 185.408 290.051 185.106 290.05 184.8Z" fill="#263238"/>
<path d="M450 433H477" stroke="#263238" stroke-linecap="round" stroke-linejoin="round"/>
<path d="M24 433H436" stroke="#263238" stroke-linecap="round" stroke-linejoin="round"/>
<path d="M182.64 256.28C179.71 251.28 171.09 232.03 171.09 232.03C171.35 229.973 171.771 227.94 172.35 225.95C173.06 223.95 174.85 217.89 174.49 216.63C174.13 215.37 168.94 213.05 168.41 212.87C167.88 212.69 169.12 209.65 167.15 208.93C165.18 208.21 164.47 209.29 164.47 209.29L163.72 214.29L161.42 217.89C160.462 217.162 159.46 216.494 158.42 215.89C156.81 214.99 153.05 214.63 152.87 216.07C152.69 217.51 155.87 218.75 156.98 219.65C158.09 220.55 159.49 224.84 160.75 226.1C161.895 227.349 162.97 228.661 163.97 230.03L164.69 232.36C164.69 232.36 167.14 255.95 167.43 261.82C167.72 267.69 168.6 283.22 170.36 285.56C172.12 287.9 172.42 289.38 177.36 287.62C182.3 285.86 183.22 283.51 184.36 278.23C185.5 272.95 185.57 261.26 182.64 256.28Z" fill="white" stroke="#263238" stroke-linecap="round" stroke-linejoin="round"/>
<path d="M184.4 278.26C185.57 272.99 185.57 261.26 182.64 256.26C182.32 255.71 181.93 255 181.49 254.16C174.86 252.23 168.56 255.38 168.56 255.38L166.96 256.08C167.17 258.53 167.33 260.58 167.39 261.83C167.69 267.69 168.56 283.23 170.32 285.57C172.08 287.91 172.38 289.39 177.32 287.63C182.26 285.87 183.22 283.54 184.4 278.26Z" fill="#FB6514" stroke="#263238" stroke-linecap="round" stroke-linejoin="round"/>
<path d="M161.26 177C161.982 179.653 162.385 182.382 162.46 185.13C162.46 189.04 161.26 191.45 163.07 192.65C164.88 193.85 166.38 193.86 166.07 196.27C165.951 197.6 165.424 198.861 164.56 199.88C164.56 199.88 163.96 212.22 163.36 213.43C162.76 214.64 154.93 213.13 153.12 212.82C151.31 212.51 146.2 214.93 142.88 208.31C139.56 201.69 142.28 191.75 148.3 186.63C152.441 183.186 156.767 179.971 161.26 177Z" fill="white" stroke="#263238" stroke-linecap="round" stroke-linejoin="round"/>
<path d="M162.46 185.08C162.46 185.08 160.83 183.86 159.97 186" stroke="#263238" stroke-linecap="round" stroke-linejoin="round"/>
<path d="M161 190.06C160.766 191.272 160.842 192.524 161.22 193.7" stroke="#263238" stroke-linecap="round" stroke-linejoin="round"/>
<path d="M164 204.2C163.733 204.285 163.451 204.314 163.172 204.284C162.893 204.253 162.623 204.164 162.381 204.023C162.138 203.881 161.928 203.69 161.765 203.462C161.601 203.234 161.487 202.975 161.43 202.7" stroke="#263238" stroke-linecap="round" stroke-linejoin="round"/>
<path d="M167.41 260.8C167.41 260.8 166.41 265.38 165.52 267.8C164.63 270.22 148.67 274.66 141.72 275.58C137.142 276.152 132.534 276.455 127.92 276.49L128.36 289.15C128.36 289.15 141.82 289.42 142.77 289.15C143.72 288.88 166.38 278.75 166.38 278.75L176.16 277.47C176.16 277.47 180.27 276.47 180.43 273.28C180.59 270.09 176.96 261.02 175.31 259.61C173.66 258.2 170.18 254.46 168.09 256.76C166 259.06 167.41 260.8 167.41 260.8Z" fill="white" stroke="#263238" stroke-linecap="round" stroke-linejoin="round"/>
<path d="M137.4 283.53C137.4 278.06 138.8 277.92 140.4 275.75C136.266 276.212 132.11 276.459 127.95 276.49L127.62 288.11C127.62 288.11 134.99 288.79 139.48 289.11C139.11 289.68 137.4 287.05 137.4 283.53Z" fill="#FB6514" stroke="#263238" stroke-linecap="round" stroke-linejoin="round"/>
<path d="M180.86 308.13C175.535 302.146 168.767 297.626 161.2 295L143.64 302.49C142.276 299.142 140.467 295.993 138.26 293.13L134.98 289.13L137.09 277.66C137.09 277.66 149.73 269 151.36 265.25L151.42 265.13C153.96 269.06 164.98 286.07 167.05 287.72C169.39 289.6 176.41 289.83 179.45 287.02C182.49 284.21 183.9 282.34 183.2 278.13C183.2 278.13 178.52 268.06 175.94 263.61C173.36 259.16 167.75 243.25 164.94 238.33C162.94 234.81 162.11 232.33 160.69 230.67C159.704 228.971 158.541 227.383 157.22 225.93C154.41 222.93 146.68 222.18 145.04 221.48C143.4 220.78 143.17 220.54 133.81 217.74C124.45 214.94 113.91 213.29 106.42 219.14C106.42 219.14 96.3601 231.08 92.4201 250.74C88.4801 270.4 88.2001 290.3 87.7401 293.81C87.2801 297.32 83.2901 314.41 82.1201 324.24C80.9501 334.07 91.2101 343.94 97.5301 347C103.85 350.06 131 350.51 146.92 347C162.84 343.49 188.12 327.57 188.12 327.57C188.12 327.57 189.05 317.73 180.86 308.13Z" fill="#FB6514" stroke="#263238" stroke-linecap="round" stroke-linejoin="round"/>
<path d="M139.47 264.88L136.26 264.77" stroke="#263238" stroke-linecap="round" stroke-linejoin="round"/>
<path d="M138.26 259.77C142.757 261.285 147.135 263.13 151.36 265.29L143.12 265.01" stroke="#263238" stroke-linecap="round" stroke-linejoin="round"/>
<path d="M181.75 265.68C182.674 267.13 183.242 268.778 183.41 270.49C183.41 272.7 183.78 275.66 182.86 274.74C181.94 273.82 181.56 270.67 181.56 270.67L181.75 265.68Z" fill="white" stroke="#263238" stroke-linecap="round" stroke-linejoin="round"/>
<path d="M176.21 263.1C176.21 263.1 179.67 261.22 181.21 263.48C182.75 265.74 182.34 270.25 181.21 272.48C180.08 274.71 178.79 272.58 178.95 270.6C179.11 268.62 176.21 263.1 176.21 263.1Z" fill="white" stroke="#263238" stroke-linecap="round" stroke-linejoin="round"/>
<path d="M174.91 260.7C174.91 260.7 178.38 258.82 179.91 261.08C181.44 263.34 181.03 267.84 179.91 270.08C178.79 272.32 177.49 270.18 177.65 268.2C177.81 266.22 174.91 260.7 174.91 260.7Z" fill="white" stroke="#263238" stroke-linecap="round" stroke-linejoin="round"/>
<path d="M173.32 258.11C173.32 258.11 176.79 256.23 178.32 258.49C179.85 260.75 179.45 265.26 178.32 267.49C177.19 269.72 175.9 267.59 176.06 265.61C176.22 263.63 173.32 258.11 173.32 258.11Z" fill="white" stroke="#263238" stroke-linecap="round" stroke-linejoin="round"/>
<path d="M164.54 167.61C164.598 171.204 163.671 174.745 161.86 177.85C156.74 185.68 151.93 184.77 149.86 191.1C147.79 197.43 144.7 204 148 207.66C151.3 211.32 154 209.16 154 209.16C154 209.16 156.11 214.58 150.69 220C145.27 225.42 135.94 223.31 133.53 222.41C132.012 221.825 130.593 221.012 129.32 220C129.32 220 127.81 224.22 120.32 224.22C112.83 224.22 104.32 219.1 104.32 209.76C104.32 200.42 109.43 194.11 110.64 190.49C111.85 186.87 108.53 175.74 113.64 168.82C118.75 161.9 126.64 156.82 132.64 156.82C138.64 156.82 150.35 160.11 150.4 160.13C151.19 160.56 156.25 158.5 157.62 158.59C162.65 158.87 164.48 163 164.54 167.61Z" fill="#263238" stroke="#263238" stroke-linecap="round" stroke-linejoin="round"/>
<path d="M145 210.44C146.092 210.585 147.198 210.585 148.29 210.44" stroke="#919191" stroke-linecap="round" stroke-linejoin="round"/>
<path d="M160.2 172.86C159.725 175.54 158.737 178.104 157.29 180.41C152.61 187.76 147.29 190.41 140.92 197.41C136.83 201.94 137.6 206.46 140.92 208.83" stroke="#919191" stroke-linecap="round" stroke-linejoin="round"/>
<path d="M160.29 165.05C160.485 166.152 160.582 167.27 160.58 168.39" stroke="#919191" stroke-linecap="round" stroke-linejoin="round"/>
<path d="M154 172.06C154 172.06 153 182.41 148.66 188.42C144.32 194.43 135.66 197.42 135.97 203.78" stroke="#919191" stroke-linecap="round" stroke-linejoin="round"/>
<path d="M194.3 345.31C194.3 345.31 200.54 377.37 205.88 392.95C211.22 408.53 216.56 422.78 217.88 424.12C219.2 425.46 222.78 430.35 222.78 430.35C221.126 431.671 219.104 432.45 216.99 432.58C213.87 432.58 209.87 428.58 206.3 426.34C202.73 424.1 202.3 422.78 195.17 420.11C188.04 417.44 193.84 410.32 195.62 406.75C196.649 404.823 197.256 402.7 197.4 400.52C194.57 390.493 189.553 381.217 182.71 373.36C171.6 360.9 169.37 332 169.37 332L190.74 324L194.3 345.31Z" fill="white" stroke="#263238" stroke-linecap="round" stroke-linejoin="round"/>
<path d="M217 422.52L215.71 422.78C215.71 422.78 208.14 412.54 202.36 408.98C200.39 407.62 198.072 406.85 195.68 406.76C193.89 410.32 188.11 417.44 195.23 420.11C202.35 422.78 202.8 424.11 206.36 426.34C209.92 428.57 213.93 432.58 217.05 432.58C219.163 432.45 221.185 431.671 222.84 430.35C222.84 430.35 219.27 425.45 217.94 424.12C217.561 423.628 217.245 423.09 217 422.52Z" fill="#FB6514" stroke="#263238" stroke-linecap="round" stroke-linejoin="round"/>
<path d="M213.41 431.31C209.89 428.88 206.71 423.48 200.98 420.11C195.77 417.05 193.09 416.93 191.98 417.16C192.252 417.874 192.689 418.514 193.256 419.026C193.822 419.539 194.502 419.91 195.24 420.11C202.37 422.78 202.81 424.11 206.37 426.34C208.62 427.78 211.1 430 213.41 431.31Z" fill="#FB6514" stroke="#263238" stroke-linecap="round" stroke-linejoin="round"/>
<path d="M217 432.58C216.772 432.571 216.545 432.548 216.32 432.51C216.544 432.552 216.772 432.576 217 432.58Z" fill="#92E3A9" stroke="#263238" stroke-linecap="round" stroke-linejoin="round"/>
<path d="M154.62 297C154.62 297 176.02 289.42 178.02 294.42C180.02 299.42 189.18 318.07 185.84 325.73C182.5 333.39 159.02 303.73 155.68 303.09C152.34 302.45 154.23 299.24 154.62 297Z" fill="white" stroke="#263238" stroke-linecap="round" stroke-linejoin="round"/>
<path d="M175.59 306.77C175.59 306.77 199.92 304.77 204.59 309.11C209.26 313.45 193.26 365.44 184.59 381.77C171 407.31 175.11 414 175.11 414C175.11 414 176.11 418 182.78 424.34C189.45 430.68 191.45 431.67 189.11 432.67C186.77 433.67 176.78 432.67 175.78 432C174.78 431.33 167.45 425.34 160.78 423.34C154.11 421.34 155.11 420 158.11 414C161.11 408 160.78 413 164.11 402.67C168.102 389.94 171.255 376.962 173.55 363.82C175.32 353.11 178.02 341.35 177.26 330.46L175.59 306.77Z" fill="white" stroke="#263238" stroke-linecap="round" stroke-linejoin="round"/>
<path d="M193.41 323.05C190.862 316.903 186.48 311.693 180.86 308.13C170.22 301.34 161.2 295 161.2 295L143.64 302.49C143.64 302.49 147.92 309.75 125.92 313.42C108.98 316.24 93.4302 312.15 85.0402 307.22C83.8702 313.03 82.6502 319.49 82.0402 324.22C80.8702 334.05 91.1702 343.88 97.4902 346.93C103.81 349.98 154.73 356.29 168.44 347.48C193.41 331.51 193.41 323.05 193.41 323.05Z" fill="#263238" stroke="#263238" stroke-linecap="round" stroke-linejoin="round"/>
<path d="M141.65 308C139.3 309.93 134.72 312 125.92 313.43C108.98 316.25 93.4301 312.16 85.0401 307.23C84.7401 308.72 84.4401 310.23 84.1401 311.78C89.8901 315.24 101.97 321.1 115.59 319.43C131.84 317.44 139.06 313 141.65 308Z" fill="#FB6514" stroke="#263238" stroke-linecap="round" stroke-linejoin="round"/>
<path d="M128.67 329.42C127.89 330.42 127.08 331.42 126.26 332.42" stroke="white" stroke-linecap="round" stroke-linejoin="round"/>
<path d="M140.92 310.44C137.843 316.099 134.409 321.556 130.64 326.78" stroke="white" stroke-linecap="round" stroke-linejoin="round"/>
<path d="M133.59 316.77C133.59 316.77 127.59 324.77 121.26 329.44" stroke="white" stroke-linecap="round" stroke-linejoin="round"/>
<path d="M182.78 424.32C176.11 418 175.11 414 175.11 414C174.887 413.792 174.709 413.54 174.59 413.26C174.14 413.73 172.78 414.62 169.45 413.34C166.56 412.23 163.82 410.34 160.93 409.07C160.24 410.3 159.57 411.07 158.11 414C155.11 420 154.11 421.34 160.78 423.34C167.45 425.34 174.78 431.34 175.78 432C176.78 432.66 186.78 433.67 189.11 432.67C191.44 431.67 189.45 430.65 182.78 424.32Z" fill="#FB6514" stroke="#263238" stroke-linecap="round" stroke-linejoin="round"/>
<path d="M188.92 326.44L200.26 319.44" stroke="#263238" stroke-linecap="round" stroke-linejoin="round"/>
<path d="M53.45 263.06C53.45 263.06 89.57 258.54 112.65 265.06L116.16 352.87H62C62 352.87 65.49 305.7 53.45 263.06Z" fill="#919191" stroke="#263238" stroke-linecap="round" stroke-linejoin="round"/>
<path d="M112.65 265.06C89.57 258.54 53.45 263.06 53.45 263.06C57.3153 277.271 59.8825 291.804 61.1199 306.48C81.2888 316.551 99.7613 329.709 115.87 345.48L112.65 265.06Z" fill="#757575" stroke="#263238" stroke-linecap="round" stroke-linejoin="round"/>
<path d="M180.76 435C180.351 435.001 179.952 434.877 179.616 434.645C179.28 434.412 179.023 434.083 178.88 433.7C170.88 412.14 168.88 356.17 168.76 353.8C168.741 353.269 168.934 352.753 169.296 352.365C169.658 351.977 170.16 351.748 170.69 351.73C171.22 351.711 171.737 351.904 172.125 352.266C172.513 352.628 172.741 353.129 172.76 353.66C172.76 354.24 174.84 411.35 182.63 432.3C182.814 432.797 182.793 433.347 182.572 433.829C182.351 434.311 181.947 434.685 181.45 434.87C181.23 434.957 180.996 435.001 180.76 435Z" fill="white" stroke="#263238" stroke-linecap="round" stroke-linejoin="round"/>
<path d="M137.21 435C136.803 434.999 136.406 434.874 136.072 434.642C135.738 434.41 135.482 434.081 135.34 433.7C127.34 412.14 125.34 356.17 125.21 353.8C125.191 353.269 125.384 352.753 125.746 352.365C126.108 351.977 126.61 351.748 127.14 351.73C127.67 351.711 128.186 351.904 128.575 352.266C128.963 352.628 129.191 353.129 129.21 353.66C129.21 354.24 131.29 411.35 139.09 432.3C139.274 432.797 139.253 433.347 139.032 433.829C138.811 434.311 138.407 434.685 137.91 434.87C137.687 434.957 137.449 435.001 137.21 435Z" fill="white" stroke="#263238" stroke-linecap="round" stroke-linejoin="round"/>
<path d="M180.22 352.83H61.05V348.83H176.24C177.301 348.83 178.318 349.251 179.068 350.001C179.819 350.751 180.24 351.769 180.24 352.83H180.22Z" fill="#919191" stroke="#263238" stroke-linecap="round" stroke-linejoin="round"/>
<path d="M180.21 351.86H61.05V355.83H180.21V351.86Z" fill="white" stroke="#263238" stroke-linecap="round" stroke-linejoin="round"/>
<path d="M111.76 435C111.459 435.006 111.161 434.944 110.887 434.819C110.613 434.694 110.371 434.509 110.178 434.277C109.986 434.046 109.849 433.774 109.776 433.481C109.704 433.189 109.698 432.884 109.76 432.59C121.07 379.01 110.76 266.34 110.62 265.21C110.596 264.947 110.623 264.682 110.702 264.43C110.78 264.178 110.907 263.944 111.075 263.741C111.244 263.538 111.45 263.371 111.684 263.248C111.917 263.125 112.172 263.049 112.435 263.025C112.966 262.976 113.494 263.139 113.903 263.48C114.313 263.82 114.571 264.309 114.62 264.84C114.73 265.98 125.12 379.24 113.69 433.41C113.597 433.855 113.355 434.254 113.004 434.543C112.653 434.833 112.215 434.993 111.76 435Z" fill="white" stroke="#263238" stroke-linecap="round" stroke-linejoin="round"/>
<path d="M49.7601 433.54C49.5737 433.542 49.3881 433.515 49.2101 433.46C48.7017 433.315 48.2711 432.976 48.0126 432.515C47.754 432.054 47.6884 431.509 47.8301 431C73.8301 338.7 51.7601 264.38 51.5401 263.64C51.414 263.142 51.4842 262.615 51.7361 262.168C51.988 261.72 52.4023 261.387 52.8932 261.237C53.384 261.086 53.914 261.13 54.3732 261.36C54.8324 261.59 55.1857 261.987 55.3601 262.47C55.5901 263.22 78.0401 338.6 51.6801 432.08C51.5625 432.499 51.3114 432.868 50.9649 433.132C50.6184 433.395 50.1954 433.539 49.7601 433.54Z" fill="white" stroke="#263238" stroke-linecap="round" stroke-linejoin="round"/>
<path d="M415.38 268.65C415.38 268.65 403.09 261.82 402.18 277.3C401.27 292.78 399 393.39 399 393.39" stroke="#263238" stroke-width="2" stroke-linecap="round" stroke-linejoin="round"/>
<path d="M395.8 278.66C395.8 278.66 405.8 300.97 401.27 392.03" stroke="#263238" stroke-width="2" stroke-linecap="round" stroke-linejoin="round"/>
<path d="M405.65 271.77C405.65 271.77 400.94 274.77 398.27 271.33C395.6 267.89 400.08 261.57 396.13 258.87C392.18 256.17 385.35 260.29 385.35 260.29C385.35 260.29 390.6 261.83 390.43 264.7C390.26 267.57 387.73 268.65 387.43 267.4C387.13 266.15 384.58 259.83 380.32 262.46C379.089 263.185 378.018 264.153 377.172 265.305C376.327 266.457 375.724 267.768 375.4 269.16C375.4 269.16 385.33 268.1 385.93 271.83C386.53 275.56 381.86 271.18 377.76 270.94C373.66 270.7 369.92 271.3 370.19 273.78C370.281 275.974 370.151 278.172 369.8 280.34C372.045 278.476 374.882 277.475 377.8 277.52C382.31 277.79 382.14 280.66 378.04 280.42C373.94 280.18 370.42 284.08 370.42 284.08C370.42 284.08 374.16 290.47 378.91 293.63C383.66 296.79 385.37 295.63 385.91 293.22C386.45 290.81 385.19 284.54 388.06 284.71C390.93 284.88 383.31 295.53 386.97 296.16C390.63 296.79 393.58 295.73 394.54 293.32L395.54 290.91C395.54 290.91 394.26 284.66 394.82 282.23C395.38 279.8 396.05 282.3 396.7 285.23C397.35 288.16 397.76 295.16 399.01 294.82C400.26 294.48 404.27 289.38 405.21 287.37C406.15 285.36 399.93 279.25 400 278.02C400.07 276.79 404.87 279.13 405.62 280.41C406.165 281.382 406.656 282.384 407.09 283.41C407.09 283.41 410.09 281.53 410.01 275.77C409.93 270.01 405.65 271.77 405.65 271.77Z" fill="#FB6514"/>
<path opacity="0.3" d="M405.65 271.77C405.65 271.77 400.94 274.77 398.27 271.33C395.6 267.89 400.08 261.57 396.13 258.87C392.18 256.17 385.35 260.29 385.35 260.29C385.35 260.29 390.6 261.83 390.43 264.7C390.26 267.57 387.73 268.65 387.43 267.4C387.13 266.15 384.58 259.83 380.32 262.46C379.089 263.185 378.018 264.153 377.172 265.305C376.327 266.457 375.724 267.768 375.4 269.16C375.4 269.16 385.33 268.1 385.93 271.83C386.53 275.56 381.86 271.18 377.76 270.94C373.66 270.7 369.92 271.3 370.19 273.78C370.281 275.974 370.151 278.172 369.8 280.34C372.045 278.476 374.882 277.475 377.8 277.52C382.31 277.79 382.14 280.66 378.04 280.42C373.94 280.18 370.42 284.08 370.42 284.08C370.42 284.08 374.16 290.47 378.91 293.63C383.66 296.79 385.37 295.63 385.91 293.22C386.45 290.81 385.19 284.54 388.06 284.71C390.93 284.88 383.31 295.53 386.97 296.16C390.63 296.79 393.58 295.73 394.54 293.32L395.54 290.91C395.54 290.91 394.26 284.66 394.82 282.23C395.38 279.8 396.05 282.3 396.7 285.23C397.35 288.16 397.76 295.16 399.01 294.82C400.26 294.48 404.27 289.38 405.21 287.37C406.15 285.36 399.93 279.25 400 278.02C400.07 276.79 404.87 279.13 405.62 280.41C406.165 281.382 406.656 282.384 407.09 283.41C407.09 283.41 410.09 281.53 410.01 275.77C409.93 270.01 405.65 271.77 405.65 271.77Z" fill="#263238"/>
<path d="M381.81 285.28C384.88 281.49 389.39 276.36 393.18 273.91" stroke="#263238" stroke-linecap="round" stroke-linejoin="round"/>
<path d="M378.26 289.89C378.26 289.89 379.04 288.8 380.32 287.16" stroke="#263238" stroke-linecap="round" stroke-linejoin="round"/>
<path d="M395.18 274.85C395.18 274.85 399.74 281.29 400.58 287.92" stroke="#263238" stroke-linecap="round" stroke-linejoin="round"/>
<path d="M390 278.66C390 278.66 391.28 277.91 390.8 286.11" stroke="#263238" stroke-linecap="round" stroke-linejoin="round"/>
<path d="M393.35 271C393.35 271 395.96 268.69 394.58 264.08" stroke="#263238" stroke-linecap="round" stroke-linejoin="round"/>
<path d="M389.83 274.95L387.97 271.55" stroke="#263238" stroke-linecap="round" stroke-linejoin="round"/>
<path d="M385.92 278.42C385.92 278.42 380.02 273.96 376.33 273.74" stroke="#263238" stroke-linecap="round" stroke-linejoin="round"/>
<path d="M422.41 259.62C422.41 259.62 422.22 266.38 416.94 266.71C411.66 267.04 408.4 258.24 403 260.36C397.6 262.48 397.08 272.12 397.08 272.12C397.08 272.12 402.2 267.91 404.96 270.03C407.72 272.15 407.08 275.43 405.59 274.91C404.1 274.39 396.08 272.6 395.8 278.66C395.688 280.388 395.927 282.12 396.503 283.753C397.079 285.385 397.979 286.885 399.15 288.16C399.15 288.16 404.86 277.49 409.02 279.43C413.18 281.37 405.59 283.07 402.55 287.01C399.51 290.95 397.55 295.1 400.24 296.53C402.499 297.928 404.61 299.554 406.54 301.38C406.54 301.38 405.82 295.8 409.16 291.47C412.5 287.14 415.25 289.26 412.22 293.2C409.19 297.14 410.69 303.33 410.69 303.33C410.69 303.33 419.63 303.94 426.03 301.33C432.43 298.72 432.47 296.24 430.41 294.03C428.35 291.82 421.23 288.84 423.35 286.03C425.47 283.22 430.95 298.16 434.08 294.92C437.21 291.68 438.15 288.01 436.39 285.4L434.63 282.8C434.63 282.8 427.51 279.8 425.45 277.6C423.39 275.4 426.36 276.42 429.73 277.76C433.1 279.1 440.39 283.47 440.91 281.98C441.43 280.49 439.04 272.98 437.68 270.7C436.32 268.42 425.94 270.45 424.76 269.54C423.58 268.63 429.19 265.42 430.98 265.54C432.322 265.651 433.658 265.835 434.98 266.09C434.98 266.09 435.14 261.81 429.32 257.96C423.5 254.11 422.41 259.62 422.41 259.62Z" fill="#FB6514"/>
<path opacity="0.2" d="M422.41 259.62C422.41 259.62 422.22 266.38 416.94 266.71C411.66 267.04 408.4 258.24 403 260.36C397.6 262.48 397.08 272.12 397.08 272.12C397.08 272.12 402.2 267.91 404.96 270.03C407.72 272.15 407.08 275.43 405.59 274.91C404.1 274.39 396.08 272.6 395.8 278.66C395.688 280.388 395.927 282.12 396.503 283.753C397.079 285.385 397.979 286.885 399.15 288.16C399.15 288.16 404.86 277.49 409.02 279.43C413.18 281.37 405.59 283.07 402.55 287.01C399.51 290.95 397.55 295.1 400.24 296.53C402.499 297.928 404.61 299.554 406.54 301.38C406.54 301.38 405.82 295.8 409.16 291.47C412.5 287.14 415.25 289.26 412.22 293.2C409.19 297.14 410.69 303.33 410.69 303.33C410.69 303.33 419.63 303.94 426.03 301.33C432.43 298.72 432.47 296.24 430.41 294.03C428.35 291.82 421.23 288.84 423.35 286.03C425.47 283.22 430.95 298.16 434.08 294.92C437.21 291.68 438.15 288.01 436.39 285.4L434.63 282.8C434.63 282.8 427.51 279.8 425.45 277.6C423.39 275.4 426.36 276.42 429.73 277.76C433.1 279.1 440.39 283.47 440.91 281.98C441.43 280.49 439.04 272.98 437.68 270.7C436.32 268.42 425.94 270.45 424.76 269.54C423.58 268.63 429.19 265.42 430.98 265.54C432.322 265.651 433.658 265.835 434.98 266.09C434.98 266.09 435.14 261.81 429.32 257.96C423.5 254.11 422.41 259.62 422.41 259.62Z" fill="#263238"/>
<path d="M419.69 292.69C418 287 415.92 279 416.06 273.56" stroke="#263238" stroke-linecap="round" stroke-linejoin="round"/>
<path d="M421.88 299.4C421.88 299.4 421.32 297.86 420.55 295.47" stroke="#263238" stroke-linecap="round" stroke-linejoin="round"/>
<path d="M418.36 272.2C418.36 272.2 427.91 272.02 435.12 275.7" stroke="#263238" stroke-linecap="round" stroke-linejoin="round"/>
<path d="M418.66 280C418.66 280 418.78 278.21 426.66 284.28" stroke="#263238" stroke-linecap="round" stroke-linejoin="round"/>
<path d="M413.3 271.43C413.3 271.43 412.76 267.25 407.21 265.49" stroke="#263238" stroke-linecap="round" stroke-linejoin="round"/>
<path d="M414.81 277.62L410.14 277.16" stroke="#263238" stroke-linecap="round" stroke-linejoin="round"/>
<path d="M415.62 283.9C415.62 283.9 407.13 286.77 404.4 290.32" stroke="#263238" stroke-linecap="round" stroke-linejoin="round"/>
<path d="M365.76 304.62C365.76 304.62 392.62 322.37 392.17 391.12" stroke="#263238" stroke-width="2" stroke-linecap="round" stroke-linejoin="round"/>
<path d="M398.88 299.93C398.88 299.93 398.02 307.71 391.88 307.59C385.74 307.47 382.88 297.01 376.4 298.95C369.92 300.89 368.45 311.95 368.45 311.95C368.45 311.95 374.77 307.57 377.75 310.29C380.73 313.01 379.68 316.72 378.01 315.98C376.34 315.24 367.25 312.41 366.36 319.38C366.071 321.364 366.187 323.385 366.703 325.323C367.219 327.26 368.123 329.072 369.36 330.65C369.36 330.65 376.96 318.88 381.57 321.52C386.18 324.16 377.27 325.39 373.39 329.65C369.51 333.91 366.88 338.51 369.82 340.41C372.299 342.239 374.584 344.316 376.64 346.61C376.64 346.61 376.33 340.11 380.59 335.42C384.85 330.73 387.84 333.42 383.96 337.71C380.08 342 381.24 349.25 381.24 349.25C381.24 349.25 391.51 350.8 399.14 348.4C406.77 346 407.04 343.14 404.87 340.4C402.7 337.66 394.77 333.54 397.48 330.56C400.19 327.58 405.1 345.28 409.02 341.83C412.94 338.38 414.36 334.25 412.58 331.07L410.8 327.89C410.8 327.89 402.87 323.78 400.7 321.03C398.53 318.28 401.86 319.76 405.62 321.62C409.38 323.48 417.39 329.21 418.12 327.55C418.85 325.89 416.81 317.01 415.46 314.22C414.11 311.43 401.94 312.82 400.66 311.66C399.38 310.5 406.17 307.33 408.22 307.66C409.746 307.914 411.258 308.248 412.75 308.66C412.75 308.66 413.33 303.74 406.98 298.74C400.63 293.74 398.88 299.93 398.88 299.93Z" fill="#FB6514"/>
<path opacity="0.3" d="M398.88 299.93C398.88 299.93 398.02 307.71 391.88 307.59C385.74 307.47 382.88 297.01 376.4 298.95C369.92 300.89 368.45 311.95 368.45 311.95C368.45 311.95 374.77 307.57 377.75 310.29C380.73 313.01 379.68 316.72 378.01 315.98C376.34 315.24 367.25 312.41 366.36 319.38C366.071 321.364 366.187 323.385 366.703 325.323C367.219 327.26 368.123 329.072 369.36 330.65C369.36 330.65 376.96 318.88 381.57 321.52C386.18 324.16 377.27 325.39 373.39 329.65C369.51 333.91 366.88 338.51 369.82 340.41C372.299 342.239 374.584 344.316 376.64 346.61C376.64 346.61 376.33 340.11 380.59 335.42C384.85 330.73 387.84 333.42 383.96 337.71C380.08 342 381.24 349.25 381.24 349.25C381.24 349.25 391.51 350.8 399.14 348.4C406.77 346 407.04 343.14 404.87 340.4C402.7 337.66 394.77 333.54 397.48 330.56C400.19 327.58 405.1 345.28 409.02 341.83C412.94 338.38 414.36 334.25 412.58 331.07L410.8 327.89C410.8 327.89 402.87 323.78 400.7 321.03C398.53 318.28 401.86 319.76 405.62 321.62C409.38 323.48 417.39 329.21 418.12 327.55C418.85 325.89 416.81 317.01 415.46 314.22C414.11 311.43 401.94 312.82 400.66 311.66C399.38 310.5 406.17 307.33 408.22 307.66C409.746 307.914 411.258 308.248 412.75 308.66C412.75 308.66 413.33 303.74 406.98 298.74C400.63 293.74 398.88 299.93 398.88 299.93Z" fill="#263238"/>
<path d="M392.62 337.83C391.18 331.15 389.57 321.7 390.23 315.41" stroke="#263238" stroke-linecap="round" stroke-linejoin="round"/>
<path d="M394.52 345.78C394.52 345.78 394.02 343.95 393.35 341.12" stroke="#263238" stroke-linecap="round" stroke-linejoin="round"/>
<path d="M393 314.06C393 314.06 404 314.76 412 319.68" stroke="#263238" stroke-linecap="round" stroke-linejoin="round"/>
<path d="M392.63 323C392.63 323 392.94 320.95 401.46 328.7" stroke="#263238" stroke-linecap="round" stroke-linejoin="round"/>
<path d="M387.25 312.7C387.25 312.7 387.02 307.82 380.79 305.26" stroke="#263238" stroke-linecap="round" stroke-linejoin="round"/>
<path d="M388.41 319.98L383.07 319.01" stroke="#263238" stroke-linecap="round" stroke-linejoin="round"/>
<path d="M388.76 327.3C388.76 327.3 378.69 329.82 375.2 333.65" stroke="#263238" stroke-linecap="round" stroke-linejoin="round"/>
<path d="M376.23 358.79C376.23 358.79 393.53 371.99 395.35 391.57L391.71 326" stroke="#263238" stroke-width="2" stroke-linecap="round" stroke-linejoin="round"/>
<path d="M418.11 349.23C395.35 345.13 395.35 391.57 395.35 391.57" stroke="#263238" stroke-width="2" stroke-linecap="round" stroke-linejoin="round"/>
<path d="M398.08 391.12C398.08 391.12 384.88 295.06 423.08 295.06" stroke="#263238" stroke-width="2" stroke-linecap="round" stroke-linejoin="round"/>
<path d="M409.44 346.47C406.33 342.97 399.72 342.97 395.84 351.91C391.96 360.85 395.45 359.3 395.45 359.3C395.45 359.3 402.83 356.96 407.5 355.41C412.17 353.86 418.38 349.97 418.77 352.3C419.16 354.63 415.66 356.96 411.38 357.74C407.1 358.52 395.84 361.63 397 364C398.16 366.37 400.89 373.33 400.89 373.33C404.21 370.509 407.714 367.913 411.38 365.56C416.44 362.45 419.55 363.61 416.83 367.11C414.11 370.61 406.33 374.49 407.89 379.16C409.45 383.83 418.77 389.65 418.77 389.65C418.77 389.65 419.94 379.94 422.66 376.83C425.38 373.72 425.38 377.22 424.6 382.66C424.21 384.977 423.949 387.314 423.82 389.66L434.7 393.55C436.479 390.841 438.426 388.246 440.53 385.78L442.53 383.78C442.53 383.78 433.98 376.4 433.59 371.78C433.2 367.16 439.42 371.78 441.36 372.56C443.3 373.34 446.41 378.78 446.41 378.78C446.41 378.78 448.36 369.84 448.75 366.73L449.14 363.62C449.14 363.62 440.97 360.51 437.86 360.51C434.75 360.51 433.2 362.84 433.2 359.74C433.2 356.64 436.31 354.68 439.81 355.07C442.977 355.6 446.096 356.379 449.14 357.4C449.14 357.4 451.47 355.46 450.69 349.63C449.91 343.8 447.97 343.8 443.31 345.35C438.65 346.9 435.53 350.41 432.03 350.41C428.53 350.41 430.48 346.13 432.81 344.97C435.14 343.81 440.97 341.47 442.14 341.08C443.31 340.69 435.92 335.25 432.03 334.47C428.14 333.69 423.11 336.47 423.48 340.3C424.21 348.41 412.55 350 409.44 346.47Z" fill="#FB6514"/>
<path d="M434.46 386.49C434.58 387.656 434.66 388.826 434.7 390" stroke="#263238" stroke-linecap="round" stroke-linejoin="round"/>
<path d="M426.65 358.59C430.076 366.286 432.545 374.373 434 382.67" stroke="#263238" stroke-linecap="round" stroke-linejoin="round"/>
<path d="M425.25 355.47C423.33 351.33 421.88 348.8 421.88 348.8C424.001 347.801 425.764 346.174 426.93 344.14C427.84 342.298 429.173 340.697 430.82 339.47" stroke="#263238" stroke-linecap="round" stroke-linejoin="round"/>
<path d="M408.28 362C408.28 362 422.28 356.17 422.28 357.33" stroke="#263238" stroke-linecap="round" stroke-linejoin="round"/>
<path d="M430 354.63C430 354.63 436.22 351.52 441.66 351.52" stroke="#263238" stroke-linecap="round" stroke-linejoin="round"/>
<path d="M427.71 364C425.012 366.217 422.537 368.692 420.32 371.39C418.052 374.065 416.217 377.078 414.88 380.32" stroke="#263238" stroke-linecap="round" stroke-linejoin="round"/>
<path d="M432 365.52C432 365.52 440.17 363.18 444.44 367.07" stroke="#263238" stroke-linecap="round" stroke-linejoin="round"/>
<path d="M446.77 313C442.54 310.5 437.86 310.44 435.56 307.8C433.26 305.16 437.77 303.8 440.18 304.8C442.59 305.8 448.18 308.67 449.23 309.29C450.28 309.91 449.56 300.78 447.6 297.29C445.64 293.8 440.27 291.84 437.6 294.66C431.95 300.59 423.13 292.81 423.73 288.17C424.33 283.53 420 278.54 410.73 281.46C401.46 284.38 404.9 286.01 404.9 286.01C404.9 286.01 411.5 290.06 415.74 292.56C419.98 295.06 426.98 297.21 425.47 299.03C423.96 300.85 419.91 299.74 416.52 297.03C413.13 294.32 403.4 287.84 402.4 290.25C401.4 292.66 397.9 299.3 397.9 299.3C402.208 299.96 406.467 300.906 410.65 302.13C416.31 303.91 417.47 307.02 413.05 307.26C408.63 307.5 400.59 304.18 398.05 308.41C395.51 312.64 397.26 323.5 397.26 323.5C397.26 323.5 405.36 318.02 409.49 318.03C413.62 318.04 410.98 320.34 406.36 323.32C404.356 324.543 402.423 325.879 400.57 327.32L404.77 338.09C407.982 337.655 411.219 337.421 414.46 337.39L417.2 337.59C417.2 337.59 417.2 326.29 420.44 322.94C423.68 319.59 424.26 327.34 424.95 329.32C425.64 331.3 423.57 337.21 423.57 337.21C423.57 337.21 431.57 332.82 434.19 331.07L436.8 329.33C436.8 329.33 433.8 321.12 431.75 318.78C429.7 316.44 426.94 316.78 429.28 314.78C431.62 312.78 435.14 313.78 437.14 316.72C438.816 319.456 440.271 322.322 441.49 325.29C441.49 325.29 444.49 325.78 448.38 321.37C452.27 316.96 451 315.5 446.77 313ZM410 325.44C406.89 323.88 414.27 320.77 414.27 320.77C417 320.39 413.1 327 410 325.44ZM415.23 310.93C413.91 310.27 417.88 308.93 417.88 308.93C423.62 310 416.55 311.59 415.22 310.93H415.23Z" fill="#FB6514"/>
<path d="M409.9 333.36C409.1 334.21 408.26 335.04 407.41 335.84" stroke="#263238" stroke-linecap="round" stroke-linejoin="round"/>
<path d="M425.85 309.17C422.278 316.796 417.781 323.953 412.46 330.48" stroke="#263238" stroke-linecap="round" stroke-linejoin="round"/>
<path d="M427.29 306.07C429.16 301.9 430.11 299.15 430.11 299.15C432.26 300.093 434.646 300.358 436.95 299.91C438.934 299.385 441.015 299.341 443.02 299.78" stroke="#263238" stroke-linecap="round" stroke-linejoin="round"/>
<path d="M423.91 305.05C424.79 304.28 411.22 297.54 411.22 297.54" stroke="#263238" stroke-linecap="round" stroke-linejoin="round"/>
<path d="M431.06 309.13C431.06 309.13 437.49 311.79 441.06 315.9" stroke="#263238" stroke-linecap="round" stroke-linejoin="round"/>
<path d="M422.49 313.49C419.049 312.906 415.559 312.658 412.07 312.75C408.56 312.794 405.078 313.384 401.75 314.5" stroke="#263238" stroke-linecap="round" stroke-linejoin="round"/>
<path d="M424.12 317.74C424.12 317.74 431.23 322.37 431.12 328.15" stroke="#263238" stroke-linecap="round" stroke-linejoin="round"/>
<path d="M386.37 366.85C382.97 364.85 379.2 364.8 377.37 362.67C375.54 360.54 379.14 359.47 381.08 360.27C383.02 361.07 387.52 363.39 388.37 363.89C389.22 364.39 388.63 357.03 387.05 354.26C385.47 351.49 381.15 349.88 379 352.14C374.45 356.92 367.35 350.65 367.84 346.92C368.33 343.19 364.84 339.17 357.35 341.52C349.86 343.87 352.66 345.18 352.66 345.18C352.66 345.18 357.97 348.44 361.38 350.45C364.79 352.46 370.43 354.2 369.21 355.66C367.99 357.12 364.74 356.24 362.01 354.05C359.28 351.86 351.45 346.65 350.65 348.59C349.85 350.53 347.03 355.87 347.03 355.87C350.496 356.405 353.924 357.166 357.29 358.15C361.84 359.58 362.77 362.08 359.21 362.27C355.65 362.46 349.21 359.79 347.21 363.2C345.21 366.61 346.57 375.35 346.57 375.35C346.57 375.35 353.09 370.93 356.41 370.94C359.73 370.95 357.61 372.8 353.9 375.2C352.287 376.185 350.731 377.26 349.24 378.42L352.61 387.08C355.196 386.733 357.801 386.549 360.41 386.53L362.62 386.68C362.62 386.68 362.62 377.59 365.23 374.89C367.84 372.19 368.3 378.43 368.85 380.03C369.4 381.63 367.74 386.38 367.74 386.38C367.74 386.38 374.2 382.84 376.29 381.44L378.39 380.03C378.39 380.03 375.97 373.43 374.33 371.54C372.69 369.65 370.45 369.94 372.33 368.3C374.21 366.66 377.04 367.52 378.65 369.85C380 372.054 381.174 374.361 382.16 376.75C382.16 376.75 384.57 377.14 387.7 373.6C390.83 370.06 389.78 368.87 386.37 366.85ZM356.77 376.85C354.27 375.6 360.21 373.1 360.21 373.1C362.4 372.8 359.27 378.12 356.77 376.86V376.85ZM361 365.19C359.93 364.65 363.13 363.59 363.13 363.59C367.74 364.48 362.05 365.72 361 365.19Z" fill="#FB6514"/>
<path d="M356.71 383.24C356.06 383.92 355.39 384.59 354.71 385.24" stroke="#263238" stroke-linecap="round" stroke-linejoin="round"/>
<path d="M369.54 363.77C366.668 369.907 363.051 375.667 358.77 380.92" stroke="#263238" stroke-linecap="round" stroke-linejoin="round"/>
<path d="M370.7 361.27C372.2 357.92 372.97 355.71 372.97 355.71C374.699 356.467 376.617 356.679 378.47 356.32C380.066 355.898 381.739 355.863 383.35 356.22" stroke="#263238" stroke-linecap="round" stroke-linejoin="round"/>
<path d="M357.76 354.41C357.76 354.41 368.69 359.84 367.98 360.41" stroke="#263238" stroke-linecap="round" stroke-linejoin="round"/>
<path d="M373.73 363.74C373.73 363.74 378.9 365.88 381.73 369.19" stroke="#263238" stroke-linecap="round" stroke-linejoin="round"/>
<path d="M366.83 367.25C364.063 366.781 361.256 366.584 358.45 366.66C355.626 366.687 352.825 367.163 350.15 368.07" stroke="#263238" stroke-linecap="round" stroke-linejoin="round"/>
<path d="M368.15 370.67C368.15 370.67 373.87 374.4 373.76 379.04" stroke="#263238" stroke-linecap="round" stroke-linejoin="round"/>
<path d="M372.49 302.67C372.49 302.67 368.21 305.78 365.49 302.67C362.77 299.56 366.66 293.34 362.77 291.01C358.88 288.68 352.67 292.95 352.67 292.95C352.67 292.95 357.72 294.12 357.72 296.84C357.72 299.56 355.39 300.73 355 299.56C354.61 298.39 351.89 292.56 348 295.29C346.879 296.045 345.923 297.019 345.189 298.153C344.455 299.287 343.959 300.559 343.73 301.89C343.73 301.89 353.05 300.34 353.83 303.84C354.61 307.34 349.95 303.45 346.06 303.45C342.17 303.45 338.67 304.23 339.06 306.56C339.272 308.628 339.272 310.712 339.06 312.78C341.073 310.895 343.695 309.792 346.45 309.67C350.72 309.67 350.72 312.39 346.84 312.39C342.96 312.39 339.84 316.28 339.84 316.28C339.84 316.28 343.73 322.11 348.39 324.83C353.05 327.55 354.61 326.38 355 324.05C355.39 321.72 353.83 315.89 356.55 315.89C359.27 315.89 352.67 326.38 356.16 326.77C359.65 327.16 362.38 325.99 363.16 323.66L363.94 321.33C363.94 321.33 362.38 315.5 362.77 313.17C363.16 310.84 363.94 313.17 364.71 315.89C365.48 318.61 366.27 325.21 367.44 324.83C368.61 324.45 372.1 319.38 372.88 317.44C373.66 315.5 367.44 310.06 367.44 308.89C367.44 307.72 372.1 309.67 372.88 310.83C373.66 311.99 374.43 313.55 374.43 313.55C374.43 313.55 377.15 311.61 376.76 306.17C376.37 300.73 372.49 302.67 372.49 302.67Z" fill="#FB6514"/>
<path d="M350.71 316.77C353.4 313.02 357.39 307.92 360.83 305.39" stroke="#263238" stroke-linecap="round" stroke-linejoin="round"/>
<path d="M347.61 321.33C347.61 321.33 348.3 320.25 349.41 318.63" stroke="#263238" stroke-linecap="round" stroke-linejoin="round"/>
<path d="M362.77 306.17C362.77 306.17 367.44 312 368.6 318.22" stroke="#263238" stroke-linecap="round" stroke-linejoin="round"/>
<path d="M358.11 310.06C358.11 310.06 359.27 309.28 359.27 317.06" stroke="#263238" stroke-linecap="round" stroke-linejoin="round"/>
<path d="M360.83 302.67C360.83 302.67 363.16 300.34 361.61 296.06" stroke="#263238" stroke-linecap="round" stroke-linejoin="round"/>
<path d="M357.72 306.56L355.78 303.45" stroke="#263238" stroke-linecap="round" stroke-linejoin="round"/>
<path d="M354.22 310.06C354.22 310.06 348.39 306.17 344.89 306.17" stroke="#263238" stroke-linecap="round" stroke-linejoin="round"/>
<path d="M411.74 389.75H381.69V433H411.74V389.75Z" fill="#263238" stroke="#263238" stroke-width="2" stroke-linecap="round" stroke-linejoin="round"/>
</svg>
