<svg width="24" height="25" viewBox="0 0 24 25" fill="none" xmlns="http://www.w3.org/2000/svg">
<path d="M8.92572 13.9601C8.79661 13.5898 9.00583 13.1893 9.39394 13.0656C9.78283 12.942 10.202 13.1418 10.3312 13.5128C10.3778 13.6482 10.5062 13.8916 10.7162 14.132C11.0475 14.5115 11.4589 14.7262 11.9987 14.7262C12.5377 14.7262 12.9499 14.5115 13.282 14.132C13.492 13.8908 13.6188 13.6482 13.6663 13.5128C13.7954 13.1426 14.2154 12.942 14.6027 13.0656C14.9916 13.1893 15.2016 13.5891 15.0717 13.9601C14.9706 14.2486 14.7645 14.6414 14.4192 15.0373C13.8249 15.7186 13.0145 16.1402 11.9987 16.1402C10.9829 16.1402 10.1725 15.7186 9.57827 15.0373C9.29572 14.7219 9.07442 14.3566 8.92572 13.9601ZM10.0543 11.4735C9.74485 11.4735 9.44811 11.3506 9.22931 11.1318C9.01052 10.913 8.88761 10.6163 8.88761 10.3068C8.88761 9.99743 9.01052 9.70068 9.22931 9.48189C9.44811 9.2631 9.74485 9.14018 10.0543 9.14018C10.3637 9.14018 10.6604 9.2631 10.8792 9.48189C11.098 9.70068 11.2209 9.99743 11.2209 10.3068C11.2209 10.6163 11.098 10.913 10.8792 11.1318C10.6604 11.3506 10.3637 11.4735 10.0543 11.4735ZM13.9432 11.4735C13.6337 11.4735 13.337 11.3506 13.1182 11.1318C12.8994 10.913 12.7765 10.6163 12.7765 10.3068C12.7765 9.99743 12.8994 9.70068 13.1182 9.48189C13.337 9.2631 13.6337 9.14018 13.9432 9.14018C14.2526 9.14018 14.5493 9.2631 14.7681 9.48189C14.9869 9.70068 15.1098 9.99743 15.1098 10.3068C15.1098 10.6163 14.9869 10.913 14.7681 11.1318C14.5493 11.3506 14.2526 11.4735 13.9432 11.4735ZM17.4432 6.80685H18.2209C18.4272 6.80685 18.625 6.88879 18.7709 7.03465C18.9168 7.18052 18.9987 7.37835 18.9987 7.58463C18.9987 7.7909 18.9168 7.98873 18.7709 8.1346C18.625 8.28046 18.4272 8.3624 18.2209 8.3624H17.4432V9.14018C17.4432 9.34646 17.3612 9.54429 17.2153 9.69015C17.0695 9.83601 16.8717 9.91796 16.6654 9.91796C16.4591 9.91796 16.2613 9.83601 16.1154 9.69015C15.9695 9.54429 15.8876 9.34646 15.8876 9.14018V8.3624H15.1098C14.9035 8.3624 14.7057 8.28046 14.5599 8.1346C14.414 7.98873 14.332 7.7909 14.332 7.58463C14.332 7.37835 14.414 7.18052 14.5599 7.03465C14.7057 6.88879 14.9035 6.80685 15.1098 6.80685H15.8876V6.02907C15.8876 5.82279 15.9695 5.62496 16.1154 5.4791C16.2613 5.33324 16.4591 5.25129 16.6654 5.25129C16.8717 5.25129 17.0695 5.33324 17.2153 5.4791C17.3612 5.62496 17.4432 5.82279 17.4432 6.02907V6.80685ZM13.5543 5.42474V7.0324C12.3933 6.68652 11.15 6.73773 10.0214 7.17794C8.89278 7.61815 7.9432 8.42221 7.32298 9.46284C6.70277 10.5035 6.44734 11.7212 6.59713 12.9234C6.74692 14.1255 7.29337 15.2434 8.14999 16.1C9.00661 16.9566 10.1245 17.5031 11.3266 17.6529C12.5288 17.8027 13.7465 17.5472 14.7872 16.927C15.8278 16.3068 16.6319 15.3572 17.0721 14.2286C17.5123 13.1 17.5635 11.8567 17.2176 10.6957H18.8253C19.1624 12.1761 19.009 13.7259 18.3884 15.1115C17.7678 16.4971 16.7135 17.6433 15.3845 18.3774C14.0555 19.1115 12.5239 19.3936 11.0206 19.1811C9.51731 18.9687 8.12382 18.2733 7.05026 17.1997C5.9767 16.1262 5.28128 14.7327 5.06886 13.2294C4.85644 11.7261 5.13853 10.1945 5.87261 8.86549C6.60668 7.53651 7.75293 6.48221 9.13852 5.86158C10.5241 5.24095 12.0739 5.08763 13.5543 5.42474Z" fill="#172B4D"/>
</svg>
