<svg width="25" height="24" viewBox="0 0 25 24" fill="none" xmlns="http://www.w3.org/2000/svg">
<path d="M12.9805 14.2305C12.9805 12.8497 11.8612 11.7305 10.4805 11.7305C11.8612 11.7305 12.9805 10.6112 12.9805 9.23047C12.9805 10.6112 14.0997 11.7305 15.4805 11.7305C14.0997 11.7305 12.9805 12.8497 12.9805 14.2305Z" fill="#001141"/>
<path d="M8.36521 17.8559L9.07628 18.567C9.24359 18.7343 9.32377 18.9295 9.31679 19.1526C9.30982 19.3757 9.22965 19.5708 9.07628 19.7382C8.90897 19.9055 8.71029 19.9926 8.48024 19.9996C8.25018 20.0066 8.0515 19.9264 7.88419 19.7591L5.73005 17.6049C5.6464 17.5213 5.58714 17.4307 5.55228 17.3331C5.51743 17.2355 5.5 17.1309 5.5 17.0193C5.5 16.9078 5.51743 16.8032 5.55228 16.7056C5.58714 16.608 5.6464 16.5174 5.73005 16.4338L7.88419 14.2796C8.0515 14.1123 8.25018 14.0321 8.48024 14.0391C8.71029 14.0461 8.90897 14.1332 9.07628 14.3005C9.22965 14.4678 9.30982 14.663 9.31679 14.8861C9.32377 15.1092 9.24359 15.3044 9.07628 15.4717L8.36521 16.1828H16.8563V13.6731C16.8563 13.4361 16.9364 13.2374 17.0968 13.0771C17.2571 12.9167 17.4558 12.8366 17.6928 12.8366C17.9299 12.8366 18.1285 12.9167 18.2889 13.0771C18.4492 13.2374 18.5294 13.4361 18.5294 13.6731V16.1828C18.5294 16.6429 18.3656 17.0368 18.0379 17.3644C17.7103 17.6921 17.3164 17.8559 16.8563 17.8559H8.36521ZM16.9818 7.81721H8.49069V10.3269C8.49069 10.5639 8.41052 10.7626 8.25018 10.9229C8.08984 11.0833 7.89116 11.1634 7.65414 11.1634C7.41711 11.1634 7.21843 11.0833 7.05809 10.9229C6.89775 10.7626 6.81758 10.5639 6.81758 10.3269V7.81721C6.81758 7.35711 6.9814 6.96323 7.30906 6.63557C7.63671 6.30792 8.03059 6.1441 8.49069 6.1441H16.9818L16.2707 5.43302C16.1034 5.26571 16.0232 5.07051 16.0302 4.84743C16.0371 4.62435 16.1173 4.42915 16.2707 4.26184C16.438 4.09453 16.6367 4.00739 16.8667 4.00042C17.0968 3.99345 17.2955 4.07362 17.4628 4.24093L19.6169 6.39506C19.7006 6.47872 19.7598 6.56935 19.7947 6.66695C19.8295 6.76454 19.847 6.86911 19.847 6.98065C19.847 7.0922 19.8295 7.19677 19.7947 7.29436C19.7598 7.39196 19.7006 7.48259 19.6169 7.56625L17.4628 9.72038C17.2955 9.88769 17.0968 9.96786 16.8667 9.96089C16.6367 9.95392 16.438 9.86678 16.2707 9.69947C16.1173 9.53216 16.0371 9.33696 16.0302 9.11388C16.0232 8.89079 16.1034 8.6956 16.2707 8.52829L16.9818 7.81721Z" fill="#001141"/>
</svg>
