<svg width="16" height="17" viewBox="0 0 16 17" fill="none" xmlns="http://www.w3.org/2000/svg">
<g clip-path="url(#clip0_644_1074)">
<path d="M7.33301 3.16104H4.53301C3.4129 3.16104 2.85285 3.16104 2.42503 3.37903C2.0487 3.57077 1.74274 3.87674 1.55099 4.25306C1.33301 4.68088 1.33301 5.24094 1.33301 6.36104V11.961C1.33301 13.0811 1.33301 13.6412 1.55099 14.069C1.74274 14.4453 2.0487 14.7513 2.42503 14.9431C2.85285 15.161 3.4129 15.161 4.53301 15.161H10.133C11.2531 15.161 11.8132 15.161 12.241 14.9431C12.6173 14.7513 12.9233 14.4453 13.115 14.069C13.333 13.6412 13.333 13.0811 13.333 11.961V9.16104M5.33299 11.161H6.44935C6.77547 11.161 6.93853 11.161 7.09198 11.1242C7.22803 11.0915 7.35809 11.0377 7.47739 10.9646C7.61194 10.8821 7.72724 10.7668 7.95785 10.5362L14.333 4.16104C14.8853 3.60876 14.8853 2.71332 14.333 2.16104C13.7807 1.60876 12.8853 1.60875 12.333 2.16104L5.95783 8.5362C5.72723 8.7668 5.61193 8.88211 5.52947 9.01666C5.45637 9.13596 5.40249 9.26602 5.36983 9.40207C5.33299 9.55552 5.33299 9.71858 5.33299 10.0447V11.161Z" stroke="#98A2B3" stroke-width="1.6" stroke-linecap="round" stroke-linejoin="round"/>
</g>
<defs>
<clipPath id="clip0_644_1074">
<rect width="16" height="16" fill="white" transform="translate(0 0.494385)"/>
</clipPath>
</defs>
</svg>
