<svg width="15" height="16" viewBox="0 0 15 16" fill="none" xmlns="http://www.w3.org/2000/svg">
<path d="M5.72667 6.00004C5.8834 5.55449 6.19277 5.17878 6.59997 4.93946C7.00717 4.70015 7.48593 4.61267 7.95145 4.69252C8.41697 4.77236 8.83921 5.01439 9.14339 5.37573C9.44756 5.73706 9.61404 6.19439 9.61333 6.66671C9.61333 8.00004 7.61333 8.66671 7.61333 8.66671M7.66667 11.3334H7.67333M14.3333 8.00004C14.3333 11.6819 11.3486 14.6667 7.66667 14.6667C3.98477 14.6667 1 11.6819 1 8.00004C1 4.31814 3.98477 1.33337 7.66667 1.33337C11.3486 1.33337 14.3333 4.31814 14.3333 8.00004Z" stroke="#98A2B3" stroke-width="1.33333" stroke-linecap="round" stroke-linejoin="round"/>
</svg>
