<svg width="56" height="56" viewBox="0 0 56 56" fill="none" xmlns="http://www.w3.org/2000/svg">
<rect x="4" y="4" width="48" height="48" rx="24" fill="#D1E9FF"/>
<path d="M30 27H24M26 31H24M32 23H24M36 22.8V33.2C36 34.8802 36 35.7202 35.673 36.362C35.3854 36.9265 34.9265 37.3854 34.362 37.673C33.7202 38 32.8802 38 31.2 38H24.8C23.1198 38 22.2798 38 21.638 37.673C21.0735 37.3854 20.6146 36.9265 20.327 36.362C20 35.7202 20 34.8802 20 33.2V22.8C20 21.1198 20 20.2798 20.327 19.638C20.6146 19.0735 21.0735 18.6146 21.638 18.327C22.2798 18 23.1198 18 24.8 18H31.2C32.8802 18 33.7202 18 34.362 18.327C34.9265 18.6146 35.3854 19.0735 35.673 19.638C36 20.2798 36 21.1198 36 22.8Z" stroke="#1570EF" stroke-width="2" stroke-linecap="round" stroke-linejoin="round"/>
<rect x="4" y="4" width="48" height="48" rx="24" stroke="#EFF8FF" stroke-width="8"/>
</svg>
