<svg width="56" height="56" viewBox="0 0 56 56" fill="none" xmlns="http://www.w3.org/2000/svg">
<rect x="4" y="4" width="48" height="48" rx="24" fill="#F4EBFF"/>
<path d="M19 23.8C19 22.1198 19 21.2798 19.327 20.638C19.6146 20.0735 20.0735 19.6146 20.638 19.327C21.2798 19 22.1198 19 23.8 19H32.2C33.8802 19 34.7202 19 35.362 19.327C35.9265 19.6146 36.3854 20.0735 36.673 20.638C37 21.2798 37 22.1198 37 23.8V29.2C37 30.8802 37 31.7202 36.673 32.362C36.3854 32.9265 35.9265 33.3854 35.362 33.673C34.7202 34 33.8802 34 32.2 34H25.6837C25.0597 34 24.7477 34 24.4492 34.0613C24.1844 34.1156 23.9282 34.2055 23.6875 34.3285C23.4162 34.4671 23.1725 34.662 22.6852 35.0518L20.2998 36.9602C19.8837 37.2931 19.6756 37.4595 19.5005 37.4597C19.3483 37.4599 19.2042 37.3906 19.1092 37.2716C19 37.1348 19 36.8684 19 36.3355V23.8Z" stroke="#7F56D9" stroke-width="2" stroke-linecap="round" stroke-linejoin="round"/>
<rect x="4" y="4" width="48" height="48" rx="24" stroke="#F9F5FF" stroke-width="8"/>
</svg>
