<svg width="32" height="32" viewBox="0 0 32 32" fill="none" xmlns="http://www.w3.org/2000/svg">
<rect width="32" height="32" rx="4" fill="#FEF9F4"/>
<path d="M15.2466 16.222C15.5476 15.401 15.9573 14.7272 16.4684 14.2038C16.9796 13.677 17.5678 13.2871 18.233 13.034C18.8982 12.7809 19.5914 12.6509 20.3126 12.6509C21.1703 12.6509 21.9686 12.8219 22.7073 13.1674C23.446 13.5129 24.0447 14.0944 24.4963 14.9153H24.976L24.8499 13.2392V8.89499L28.0009 8.07068V25.3105H25.0775L24.9515 23.3642H24.4963C24.0412 24.168 23.46 24.753 22.7458 25.1121C22.0316 25.4747 21.2544 25.6526 20.4141 25.6526C19.6754 25.6526 18.9682 25.5329 18.296 25.2968C17.6238 25.0574 17.0286 24.6811 16.5069 24.1646C15.9853 23.6481 15.5687 22.9743 15.2606 22.1465C14.949 21.3187 14.7949 20.3199 14.7949 19.1534C14.7949 17.987 14.9455 17.0429 15.2501 16.222H15.2466ZM24.5734 17.3918C24.3878 16.9061 24.1322 16.5093 23.8031 16.198C23.474 15.8868 23.0959 15.661 22.6688 15.5208C22.2417 15.3805 21.79 15.3121 21.3209 15.3121C20.8517 15.3121 20.3826 15.3839 19.973 15.5208C19.5599 15.661 19.2027 15.8902 18.9017 16.2117C18.6006 16.5333 18.3625 16.9369 18.1944 17.4295C18.0264 17.922 17.9424 18.5035 17.9424 19.1774C17.9424 19.8512 18.0264 20.4293 18.1944 20.915C18.3625 21.4008 18.5971 21.7976 18.9017 22.1088C19.2027 22.4201 19.5599 22.6459 19.973 22.7861C20.3861 22.9264 20.8342 22.9948 21.3209 22.9948C21.8075 22.9948 22.2417 22.9264 22.6688 22.7861C23.0959 22.6459 23.474 22.4235 23.8031 22.1225C24.1322 21.8181 24.3878 21.4247 24.5734 20.939C24.7589 20.4533 24.8499 19.8683 24.8499 19.1774C24.8499 18.4864 24.7589 17.8776 24.5734 17.3918Z" fill="#1E1E1E"/>
<path d="M7.89501 22.3432V14.6696H6.19914V12.9488H10.9928V22.3398H13.5093V25.3166H4.00098V22.3398H7.89501V22.3432Z" fill="#1E1E1E"/>
<path fill-rule="evenodd" clip-rule="evenodd" d="M6.25391 9.36486C6.25391 7.69775 7.60419 6.34747 9.27129 6.34747C10.9384 6.34747 12.2887 7.69775 12.2887 9.36486C12.2887 10.3918 11.7763 11.2986 10.993 11.8435H7.54957C6.76633 11.2986 6.25391 10.3918 6.25391 9.36486ZM7.442 9.36486C8.45282 9.36486 9.27129 10.1833 9.27129 11.1941C9.27129 10.1833 10.0898 9.36486 11.1006 9.36486C10.0898 9.36486 9.27129 8.54639 9.27129 7.53557C9.27129 8.54639 8.45282 9.36486 7.442 9.36486Z" fill="url(#paint0_radial_141_86)"/>
<path d="M10.9944 12.012H7.63574V12.3174H10.9944V12.012Z" fill="url(#paint1_linear_141_86)"/>
<path d="M10.9944 12.3937H7.63574V12.5464H10.9944V12.3937Z" fill="url(#paint2_linear_141_86)"/>
<path d="M10.9944 12.6227H7.63574V12.6991H10.9944V12.6227Z" fill="url(#paint3_linear_141_86)"/>
<defs>
<radialGradient id="paint0_radial_141_86" cx="0" cy="0" r="1" gradientUnits="userSpaceOnUse" gradientTransform="translate(9.27129 9.09549) rotate(90) scale(2.74801 3.01738)">
<stop stop-color="#FFA58F"/>
<stop offset="1" stop-color="#FF4A1F"/>
</radialGradient>
<linearGradient id="paint1_linear_141_86" x1="9.31506" y1="12.012" x2="9.31506" y2="12.3174" gradientUnits="userSpaceOnUse">
<stop offset="0.24" stop-color="#35ABFF"/>
<stop offset="1" stop-color="#9168C0"/>
</linearGradient>
<linearGradient id="paint2_linear_141_86" x1="9.31506" y1="12.3937" x2="9.31506" y2="12.5464" gradientUnits="userSpaceOnUse">
<stop offset="0.24" stop-color="#35ABFF"/>
<stop offset="1" stop-color="#9168C0"/>
</linearGradient>
<linearGradient id="paint3_linear_141_86" x1="9.31506" y1="12.6991" x2="9.31506" y2="12.6227" gradientUnits="userSpaceOnUse">
<stop stop-color="#9168C0"/>
<stop offset="0.76" stop-color="#35ABFF"/>
</linearGradient>
</defs>
</svg>
