<svg width="141" height="32" viewBox="0 0 141 32" fill="none" xmlns="http://www.w3.org/2000/svg">
<g clip-path="url(#clip0_48_11196)">
<rect width="32" height="32" rx="5.33333" fill="#F05A28"/>
<rect width="18.6667" height="16" fill="#F09828"/>
<rect width="10.6667" height="5.33333" fill="#F0C228"/>
<rect y="21.3333" width="10.6667" height="10.6667" fill="#F07828"/>
<path d="M8.62726 23.9247H4.11526V7.84465H8.62726V23.9247ZM18.4444 24.1647C14.7484 24.1647 12.7084 21.7887 12.7084 17.8767C12.7084 13.9407 14.7004 11.5887 18.2524 11.5887C21.1084 11.5887 22.4524 12.9327 22.8124 14.9487H23.0524V7.84465H27.5644V23.9247H23.3404V20.6607H23.1004C22.7164 23.0607 21.2764 24.1647 18.4444 24.1647ZM17.2684 17.8767C17.2684 19.4847 17.9884 20.0367 20.0764 20.0367C22.0924 20.0367 23.0524 19.6527 23.0524 17.9007V17.7327C23.0524 16.0287 22.0924 15.6927 20.0764 15.6927C17.9884 15.6927 17.2684 16.2687 17.2684 17.8767Z" fill="#000053"/>
<rect x="14.6667" y="23" width="5.33333" height="9" fill="#F05A28"/>
</g>
<rect x="7.19482" y="2.3909" width="4" height="4" fill="white"/>
<rect x="19" y="26.6816" width="2.66667" height="2.66667" fill="white"/>
<path d="M42.1307 24.24C38.0267 24.24 35.1467 22.488 35.1467 17.952C35.1467 14.016 38.0027 11.664 42.0347 11.664C46.2107 11.664 48.8747 13.752 48.8747 17.64C48.8747 18.048 48.8507 18.36 48.8027 18.792H39.3227C39.3947 20.256 40.0427 20.664 41.9627 20.664C43.7867 20.664 44.2667 20.352 44.2667 19.632V19.368H48.7787V19.656C48.7787 22.344 46.2107 24.24 42.1307 24.24ZM41.9387 15.12C40.2827 15.12 39.5867 15.48 39.3947 16.512H44.5067C44.3387 15.48 43.6187 15.12 41.9387 15.12ZM56.9941 24H52.4821V11.904H56.7061V15.576H56.9461C57.2101 13.56 58.5301 11.664 61.7701 11.664C65.0341 11.664 66.5701 13.632 66.5701 16.248V24H62.0581V17.904C62.0581 16.224 61.4341 15.696 59.4661 15.696C57.4741 15.696 56.9941 16.2 56.9941 17.76V24ZM79.3519 24H76.1839C73.1599 24 71.3599 22.536 71.3599 19.392V15.6H69.5839V11.904H71.3599V9.816H75.8719V11.904H79.3519V15.6H75.8719V18.744C75.8719 19.704 76.1599 19.944 77.1919 19.944H79.3519V24ZM86.7409 24.24C84.0049 24.24 82.4689 22.992 82.4689 20.928C82.4689 19.224 83.6449 18 86.3809 17.736L91.3009 17.256V17.016C91.3009 15.792 90.7729 15.6 89.1649 15.6C87.6769 15.6 87.2209 15.888 87.2209 16.896V16.992H82.7089V16.944C82.7089 13.728 85.3969 11.664 89.5009 11.664C93.7249 11.664 95.7649 13.728 95.7649 17.112V24H91.5409V21.456H91.3009C90.8449 23.16 89.3569 24.24 86.7409 24.24ZM87.0049 20.64C87.0049 21.024 87.3889 21.096 88.0849 21.096C90.2689 21.096 91.1569 20.832 91.2769 19.752L87.5809 20.184C87.1729 20.232 87.0049 20.376 87.0049 20.64ZM103.726 24H99.5024V7.92H104.014V15.024H104.254C104.614 13.008 105.958 11.664 108.814 11.664C112.366 11.664 114.358 14.016 114.358 17.952C114.358 21.864 112.318 24.24 108.622 24.24C105.79 24.24 104.35 23.136 103.966 20.736H103.726V24ZM104.014 17.976C104.014 19.728 104.974 20.112 106.99 20.112C109.078 20.112 109.798 19.56 109.798 17.952C109.798 16.344 109.078 15.768 106.99 15.768C104.974 15.768 104.014 16.104 104.014 17.808V17.976ZM122.469 24H117.957V7.92H122.469V24ZM133.054 24.24C128.95 24.24 126.07 22.488 126.07 17.952C126.07 14.016 128.926 11.664 132.958 11.664C137.134 11.664 139.798 13.752 139.798 17.64C139.798 18.048 139.774 18.36 139.726 18.792H130.246C130.318 20.256 130.966 20.664 132.886 20.664C134.71 20.664 135.19 20.352 135.19 19.632V19.368H139.702V19.656C139.702 22.344 137.134 24.24 133.054 24.24ZM132.862 15.12C131.206 15.12 130.51 15.48 130.318 16.512H135.43C135.262 15.48 134.542 15.12 132.862 15.12Z" fill="#000053"/>
<defs>
<clipPath id="clip0_48_11196">
<rect width="32" height="32" rx="5.33333" fill="white"/>
</clipPath>
</defs>
</svg>
