<svg width="141" height="32" viewBox="0 0 141 32" fill="none" xmlns="http://www.w3.org/2000/svg">
<g clip-path="url(#clip0_1975_37707)">
<path d="M12.8368 14.1903C13.1499 13.3367 13.5758 12.636 14.1073 12.0918C14.6389 11.544 15.2505 11.1385 15.9421 10.8753C16.6338 10.6121 17.3547 10.477 18.1046 10.477C18.9965 10.477 19.8266 10.6548 20.5947 11.014C21.3628 11.3733 21.9854 11.978 22.455 12.8316H22.9537L22.8227 11.0887V6.5715L26.0991 5.71436V23.6408H23.0593L22.9282 21.617H22.455C21.9817 22.4528 21.3774 23.0611 20.6347 23.4345C19.8921 23.8116 19.0839 23.9965 18.2102 23.9965C17.442 23.9965 16.7067 23.872 16.0077 23.6266C15.3087 23.3776 14.6898 22.9864 14.1474 22.4493C13.605 21.9122 13.1717 21.2115 12.8514 20.3508C12.5274 19.49 12.3672 18.4514 12.3672 17.2385C12.3672 16.0256 12.5237 15.0439 12.8405 14.1903H12.8368ZM22.5351 15.4067C22.3421 14.9017 22.0764 14.4891 21.7342 14.1654C21.392 13.8417 20.9988 13.607 20.5546 13.4612C20.1105 13.3153 19.6409 13.2442 19.1531 13.2442C18.6652 13.2442 18.1774 13.3189 17.7515 13.4612C17.3219 13.607 16.9506 13.8453 16.6375 14.1796C16.3244 14.514 16.0768 14.9337 15.9021 15.4459C15.7274 15.9581 15.64 16.5627 15.64 17.2634C15.64 17.9641 15.7274 18.5652 15.9021 19.0703C16.0768 19.5754 16.3208 19.988 16.6375 20.3116C16.9506 20.6353 17.3219 20.8701 17.7515 21.0159C18.181 21.1617 18.647 21.2329 19.1531 21.2329C19.6591 21.2329 20.1105 21.1617 20.5546 21.0159C20.9988 20.8701 21.392 20.6389 21.7342 20.3259C22.0764 20.0093 22.3421 19.6003 22.5351 19.0952C22.728 18.5901 22.8227 17.9819 22.8227 17.2634C22.8227 16.5449 22.728 15.9118 22.5351 15.4067Z" fill="#1E1E1E"/>
<path d="M5.1922 20.5552V12.576H3.42878V10.7866H8.41333V20.5517H11.0301V23.6471H1.14307V20.5517H5.1922V20.5552Z" fill="#1E1E1E"/>
<path d="M32.4864 23.7499C31.6392 23.5346 30.8948 23.1695 30.2561 22.6473C29.6174 22.125 29.0996 21.4517 28.7096 20.6232C28.3195 19.7948 28.0828 18.8094 28.0031 17.6704C27.9235 16.5315 28.0268 15.6079 28.2987 14.7474C28.5709 13.8905 28.983 13.1557 29.5386 12.5428C30.0906 11.9302 30.7687 11.4513 31.5655 11.1032C32.3659 10.7549 33.2603 10.5497 34.2553 10.4801C35.1959 10.4144 36.0697 10.4888 36.8732 10.7071C37.6767 10.9255 38.3761 11.2723 38.9683 11.7551C39.5637 12.234 40.0362 12.8321 40.3924 13.5416C40.7485 14.2512 40.9589 15.0673 41.0231 15.9863C41.0445 16.2914 41.0547 16.5938 41.0602 16.8822C41.0624 17.1744 41.0559 17.4459 41.0374 17.7039L31.2829 18.386C31.338 18.9134 31.4681 19.3642 31.6808 19.7451C31.8936 20.126 32.1667 20.4314 32.5078 20.6643C32.8489 20.8971 33.2327 21.0628 33.6593 21.1613C34.0858 21.2599 34.537 21.2925 35.0055 21.2598C35.4739 21.227 35.9101 21.1501 36.2521 21.03C36.5943 20.9133 36.8826 20.7577 37.114 20.5703C37.3455 20.383 37.5245 20.178 37.6476 19.9554C37.7708 19.7329 37.8718 19.5083 37.9434 19.2787L41.0557 19.061C40.9833 19.8006 40.8033 20.4621 40.5115 21.0387C40.2198 21.6154 39.8201 22.1104 39.3159 22.52C38.812 22.9332 38.2217 23.2597 37.5454 23.5031C36.869 23.7465 36.1061 23.8997 35.2526 23.9594C34.2576 24.029 33.3402 23.9576 32.4931 23.7423L32.4864 23.7499ZM37.906 15.7693C37.858 15.3447 37.7436 14.9605 37.5624 14.6131C37.3812 14.2656 37.1422 13.9793 36.8452 13.7505C36.5482 13.5216 36.1968 13.3501 35.7835 13.2328C35.3738 13.1153 34.904 13.0768 34.3811 13.1134C33.9453 13.1439 33.5311 13.2228 33.1352 13.3538C32.7429 13.4847 32.3953 13.6801 32.0996 13.9397C31.8039 14.1993 31.5669 14.5153 31.3922 14.8877C31.2175 15.26 31.1287 15.7119 31.1328 16.2393L37.9057 15.7657L37.906 15.7693Z" fill="#1E1E1E"/>
<path d="M46.0744 10.8363L46.2564 12.8068H46.7006C47.0865 11.9887 47.6325 11.3947 48.3388 11.0284C49.045 10.662 49.8641 10.4771 50.7888 10.4771C51.4878 10.4771 52.114 10.5838 52.6637 10.7972C53.2134 11.0106 53.683 11.3129 54.0653 11.7077C54.4475 12.099 54.7388 12.5756 54.9317 13.1305C55.1247 13.6853 55.2193 14.2971 55.2193 14.9622V23.6445H51.9429V16.0648C51.9429 15.5704 51.8919 15.1472 51.7863 14.7986C51.6808 14.45 51.5206 14.1619 51.3021 13.9414C51.0837 13.7209 50.807 13.5537 50.4757 13.4435C50.1445 13.3332 49.7586 13.2763 49.3217 13.2763C48.8849 13.2763 48.4516 13.351 48.0767 13.4933C47.7017 13.6391 47.3777 13.856 47.1083 14.1477C46.8353 14.4394 46.6278 14.8093 46.4785 15.261C46.3292 15.7127 46.2564 16.2285 46.2564 16.8118V23.648H42.98V11.4287L46.0744 10.8363Z" fill="#1E1E1E"/>
<path d="M59.4133 13.8062H56.6865V10.8362H59.4133V7.14293L62.6642 6.22656V10.8362H67.5643V13.8062H62.6642V19.0312C62.6642 19.6287 62.7953 20.052 63.0574 20.2974C63.3195 20.5464 63.8 20.6673 64.499 20.6673H67.5643V23.6373H63.6581C62.8717 23.6373 62.2091 23.5341 61.6667 23.3314C61.1243 23.1251 60.6874 22.8441 60.3561 22.4849C60.0249 22.1256 59.7846 21.7024 59.6353 21.2186C59.4861 20.7314 59.4133 20.2085 59.4133 19.643V13.8026V13.8062Z" fill="#1E1E1E"/>
<path d="M71.5108 23.7831C71.012 23.6372 70.5752 23.4167 70.2002 23.1179C69.8252 22.8191 69.5304 22.4421 69.3228 21.9904C69.1117 21.5387 69.0098 21.0052 69.0098 20.3898C69.0098 19.9132 69.1044 19.4046 69.2974 18.8675C69.4903 18.3304 69.9017 17.8289 70.5278 17.3701C71.1577 16.9077 72.0641 16.5235 73.2546 16.2177C74.4414 15.9118 76.025 15.7553 77.9981 15.7553V15.3711C77.9981 15.0795 77.9399 14.802 77.827 14.5388C77.7142 14.2756 77.5467 14.0338 77.3283 13.8203C77.1099 13.6069 76.8186 13.4362 76.4509 13.3082C76.0832 13.1801 75.6391 13.1161 75.1149 13.1161C74.6416 13.1161 74.2266 13.1766 73.8698 13.2939C73.513 13.4149 73.2145 13.5714 72.9779 13.767C72.7413 13.9626 72.5629 14.1974 72.4391 14.4712C72.3153 14.7451 72.2571 15.0439 72.2571 15.3676H69.0862C69.0862 14.5139 69.2537 13.7812 69.585 13.1659C69.9162 12.5505 70.3604 12.0419 70.921 11.6436C71.4817 11.2416 72.1187 10.9464 72.8359 10.7615C73.5531 10.5729 74.2848 10.4805 75.0384 10.4805C76.1742 10.4805 77.1317 10.6121 77.9071 10.8788C78.6825 11.1456 79.3196 11.512 79.8075 11.9815C80.2953 12.451 80.6521 13.0023 80.8705 13.6318C81.0889 14.2649 81.1981 14.9479 81.1981 15.6806V19.0347C81.1981 19.6678 81.2127 20.2155 81.2382 20.685C81.2637 21.1545 81.3037 21.5636 81.3547 21.9157C81.4056 22.2643 81.4675 22.5773 81.5367 22.8512C81.6059 23.125 81.675 23.3882 81.7478 23.6443H78.5224C78.384 23.3384 78.2785 22.9792 78.2093 22.5702C78.1401 22.1611 78.1037 21.7841 78.1037 21.4426H77.605C77.2191 22.1611 76.6439 22.7658 75.8757 23.2602C75.1076 23.7546 74.172 24.0036 73.0726 24.0036C72.5301 24.0036 72.0095 23.9324 71.5144 23.7866L71.5108 23.7831ZM75.417 21.1688C75.9158 20.9731 76.349 20.7171 76.713 20.4005C77.0807 20.0839 77.3756 19.7318 77.605 19.337C77.8307 18.9457 77.9617 18.5509 77.9981 18.1597V17.7506C76.8441 17.7506 75.8903 17.8182 75.1403 17.9569C74.3904 18.0921 73.7897 18.2699 73.3456 18.4834C72.9015 18.6968 72.5884 18.9457 72.4136 19.2267C72.2389 19.5077 72.1515 19.7958 72.1515 20.0839C72.1515 20.5463 72.308 20.8913 72.6248 21.1225C72.9379 21.3537 73.3419 21.4675 73.8298 21.4675C74.3904 21.4675 74.9183 21.368 75.417 21.1723V21.1688Z" fill="#1E1E1E"/>
<path d="M86.7788 21.6419L86.6477 23.6408H83.6079V6.5715L86.8844 5.71436V11.0923L86.7533 12.8849H87.252C87.7399 12.0135 88.3733 11.3946 89.1524 11.0283C89.9314 10.6619 90.7651 10.477 91.657 10.477C92.407 10.477 93.1242 10.605 93.8049 10.8611C94.4857 11.1172 95.0937 11.5227 95.6252 12.0775C96.1567 12.6324 96.579 13.3331 96.8848 14.1761C97.1906 15.0226 97.3435 16.0327 97.3435 17.2101C97.3435 18.3874 97.1833 19.4615 96.8593 20.3223C96.5353 21.1831 96.0984 21.8873 95.5487 22.4351C94.999 22.9828 94.3728 23.3776 93.6739 23.6266C92.9749 23.8756 92.2322 23.9965 91.4459 23.9965C90.6086 23.9965 89.8149 23.8116 89.0723 23.4452C88.3296 23.0788 87.7217 22.4777 87.252 21.6383H86.7788V21.6419ZM93.8049 15.4459C93.6302 14.9337 93.3863 14.5104 93.0696 14.1796C92.7565 13.8453 92.3851 13.607 91.9556 13.4612C91.526 13.3153 91.06 13.2442 90.554 13.2442C90.0479 13.2442 89.5965 13.3189 89.1524 13.4612C88.7082 13.607 88.3151 13.8417 87.9729 14.1654C87.6307 14.4891 87.3649 14.9052 87.172 15.4067C86.979 15.9118 86.8844 16.5307 86.8844 17.2634C86.8844 17.9961 86.979 18.5901 87.172 19.0952C87.3649 19.6003 87.6307 20.0093 87.9729 20.3259C88.3151 20.6424 88.7082 20.8736 89.1524 21.0159C89.5965 21.1617 90.0661 21.2329 90.554 21.2329C91.0418 21.2329 91.526 21.1617 91.9556 21.0159C92.3851 20.8701 92.7565 20.6353 93.0696 20.3116C93.3826 19.988 93.6302 19.5718 93.8049 19.0703C93.9797 18.5652 94.067 17.9641 94.067 17.2634C94.067 16.5627 93.9797 15.9581 93.8049 15.4459Z" fill="#1E1E1E"/>
<path d="M99.2042 23.7503L99.2041 6.85721L102.506 5.71436L102.506 23.7503H99.2042Z" fill="#1E1E1E"/>
<path d="M108.905 23.7499C108.058 23.5346 107.313 23.1695 106.675 22.6473C106.036 22.125 105.518 21.4517 105.128 20.6232C104.738 19.7948 104.501 18.8094 104.422 17.6704C104.342 16.5315 104.445 15.6079 104.717 14.7474C104.989 13.8905 105.401 13.1557 105.957 12.5428C106.509 11.9302 107.187 11.4513 107.984 11.1032C108.784 10.7549 109.679 10.5497 110.674 10.4801C111.614 10.4144 112.488 10.4888 113.292 10.7071C114.095 10.9255 114.795 11.2723 115.387 11.7551C115.982 12.234 116.455 12.8321 116.811 13.5416C117.167 14.2512 117.377 15.0673 117.442 15.9863C117.463 16.2914 117.473 16.5938 117.479 16.8822C117.481 17.1744 117.474 17.4459 117.456 17.7039L107.701 18.386C107.756 18.9134 107.887 19.3642 108.099 19.7451C108.312 20.126 108.585 20.4314 108.926 20.6643C109.267 20.8971 109.651 21.0628 110.078 21.1613C110.504 21.2599 110.955 21.2925 111.424 21.2598C111.892 21.227 112.329 21.1501 112.671 21.03C113.013 20.9133 113.301 20.7577 113.533 20.5703C113.764 20.383 113.943 20.178 114.066 19.9554C114.189 19.7329 114.29 19.5083 114.362 19.2787L117.474 19.061C117.402 19.8006 117.222 20.4621 116.93 21.0387C116.638 21.6154 116.239 22.1104 115.734 22.52C115.23 22.9332 114.64 23.2597 113.964 23.5031C113.287 23.7465 112.525 23.8997 111.671 23.9594C110.676 24.029 109.759 23.9576 108.912 23.7423L108.905 23.7499ZM114.324 15.7693C114.277 15.3447 114.162 14.9605 113.981 14.6131C113.8 14.2656 113.561 13.9793 113.264 13.7505C112.967 13.5216 112.615 13.3501 112.202 13.2328C111.792 13.1153 111.322 13.0768 110.8 13.1134C110.364 13.1439 109.95 13.2228 109.554 13.3538C109.161 13.4847 108.814 13.6801 108.518 13.9397C108.222 14.1993 107.985 14.5153 107.811 14.8877C107.636 15.26 107.547 15.7119 107.551 16.2393L114.324 15.7657L114.324 15.7693Z" fill="#1E1E1E"/>
</g>
<path fill-rule="evenodd" clip-rule="evenodd" d="M3.48486 7.05992C3.48486 5.32642 4.88892 3.92236 6.62242 3.92236C8.35592 3.92236 9.75998 5.32642 9.75998 7.05992C9.75998 8.12771 9.22725 9.0705 8.41295 9.63714H4.8319C4.01759 9.0705 3.48486 8.12771 3.48486 7.05992ZM4.72028 7.05992C5.77136 7.05992 6.62242 7.91098 6.62242 8.96207C6.62242 7.91098 7.47348 7.05992 8.52457 7.05992C7.47348 7.05992 6.62242 6.20886 6.62242 5.15778C6.62242 6.20886 5.77136 7.05992 4.72028 7.05992Z" fill="url(#paint0_radial_1975_37707)"/>
<path d="M8.41428 9.8125H4.92188V10.13H8.41428V9.8125Z" fill="url(#paint1_linear_1975_37707)"/>
<path d="M8.41428 10.209H4.92188V10.3677H8.41428V10.209Z" fill="url(#paint2_linear_1975_37707)"/>
<path d="M8.41428 10.4473H4.92188V10.5266H8.41428V10.4473Z" fill="url(#paint3_linear_1975_37707)"/>
<defs>
<radialGradient id="paint0_radial_1975_37707" cx="0" cy="0" r="1" gradientUnits="userSpaceOnUse" gradientTransform="translate(6.62242 6.77978) rotate(90) scale(2.85742 3.13756)">
<stop stop-color="#FFA58F"/>
<stop offset="1" stop-color="#FF4A1F"/>
</radialGradient>
<linearGradient id="paint1_linear_1975_37707" x1="6.66808" y1="9.8125" x2="6.66808" y2="10.13" gradientUnits="userSpaceOnUse">
<stop offset="0.24" stop-color="#35ABFF"/>
<stop offset="1" stop-color="#9168C0"/>
</linearGradient>
<linearGradient id="paint2_linear_1975_37707" x1="6.66808" y1="10.209" x2="6.66808" y2="10.3677" gradientUnits="userSpaceOnUse">
<stop offset="0.24" stop-color="#35ABFF"/>
<stop offset="1" stop-color="#9168C0"/>
</linearGradient>
<linearGradient id="paint3_linear_1975_37707" x1="6.66808" y1="10.5266" x2="6.66808" y2="10.4473" gradientUnits="userSpaceOnUse">
<stop stop-color="#9168C0"/>
<stop offset="0.76" stop-color="#35ABFF"/>
</linearGradient>
<clipPath id="clip0_1975_37707">
<rect width="122.286" height="24" fill="white"/>
</clipPath>
</defs>
</svg>
