<svg width="146" height="32" viewBox="0 0 146 32" fill="none" xmlns="http://www.w3.org/2000/svg">
<g clip-path="url(#clip0_141_20)">
<path d="M15.6783 16.7789C16.0485 15.7695 16.5522 14.941 17.1807 14.2975C17.8091 13.6499 18.5323 13.1704 19.3502 12.8592C20.1681 12.548 21.0204 12.3881 21.9071 12.3881C22.9617 12.3881 23.9432 12.5984 24.8515 13.0232C25.7597 13.448 26.4958 14.163 27.0511 15.1723H27.6409L27.4859 13.1115V7.77022L31.36 6.75671V27.9535H27.7657L27.6107 25.5604H27.0511C26.4915 26.5487 25.777 27.2679 24.8988 27.7095C24.0207 28.1553 23.0651 28.374 22.0319 28.374C21.1237 28.374 20.2541 28.2268 19.4277 27.9366C18.6012 27.6422 17.8694 27.1796 17.228 26.5445C16.5866 25.9095 16.0744 25.081 15.6956 24.0632C15.3125 23.0454 15.123 21.8173 15.123 20.3832C15.123 18.949 15.3081 17.7883 15.6826 16.7789H15.6783ZM27.1458 18.2173C26.9177 17.62 26.6034 17.1322 26.1988 16.7495C25.7942 16.3667 25.3293 16.0892 24.8041 15.9167C24.279 15.7443 23.7237 15.6602 23.1468 15.6602C22.57 15.6602 21.9932 15.7485 21.4896 15.9167C20.9816 16.0892 20.5426 16.3709 20.1724 16.7663C19.8022 17.1616 19.5094 17.6579 19.3028 18.2635C19.0962 18.8691 18.9929 19.5841 18.9929 20.4126C18.9929 21.2412 19.0962 21.9519 19.3028 22.5491C19.5094 23.1463 19.7979 23.6342 20.1724 24.0169C20.5426 24.3996 20.9816 24.6772 21.4896 24.8496C21.9975 25.0221 22.5485 25.1062 23.1468 25.1062C23.7452 25.1062 24.279 25.0221 24.8041 24.8496C25.3293 24.6772 25.7942 24.4038 26.1988 24.0337C26.6034 23.6594 26.9177 23.1758 27.1458 22.5786C27.374 21.9814 27.4859 21.2622 27.4859 20.4126C27.4859 19.5631 27.374 18.8145 27.1458 18.2173Z" fill="#1E1E1E"/>
<path d="M6.63936 24.3051V14.8702H4.55425V12.7545H10.4481V24.3009H13.5422V27.961H1.85156V24.3009H6.63936V24.3051Z" fill="#1E1E1E"/>
<path d="M38.9124 28.0829C37.9108 27.8283 37.0305 27.3966 36.2753 26.779C35.5201 26.1615 34.9078 25.3653 34.4466 24.3858C33.9855 23.4062 33.7055 22.2411 33.6113 20.8943C33.5171 19.5476 33.6393 18.4555 33.9608 17.4381C34.2826 16.4248 34.7699 15.556 35.4269 14.8313C36.0796 14.1069 36.8815 13.5407 37.8236 13.1291C38.77 12.7172 39.8275 12.4746 41.0041 12.3923C42.1163 12.3145 43.1494 12.4025 44.0995 12.6607C45.0497 12.9189 45.8766 13.329 46.5768 13.8998C47.2809 14.4661 47.8395 15.1733 48.2607 16.0123C48.6818 16.8514 48.9305 17.8163 49.0065 18.9029C49.0317 19.2637 49.0438 19.6212 49.0504 19.9623C49.053 20.3078 49.0452 20.6288 49.0234 20.9338L37.4894 21.7404C37.5545 22.364 37.7083 22.8971 37.9599 23.3475C38.2115 23.7979 38.5345 24.1589 38.9378 24.4343C39.3411 24.7096 39.7949 24.9056 40.2993 25.0221C40.8037 25.1386 41.3371 25.1771 41.8911 25.1384C42.445 25.0997 42.9608 25.0088 43.3651 24.8667C43.7697 24.7288 44.1107 24.5447 44.3843 24.3232C44.6579 24.1017 44.8697 23.8593 45.0153 23.5961C45.1608 23.333 45.2803 23.0675 45.3649 22.7959L49.045 22.5386C48.9594 23.4131 48.7466 24.1953 48.4016 24.8771C48.0566 25.5589 47.584 26.1442 46.9879 26.6286C46.392 27.1172 45.6941 27.5032 44.8943 27.791C44.0946 28.0789 43.1924 28.26 42.1833 28.3305C41.0067 28.4128 39.9221 28.3285 38.9204 28.0739L38.9124 28.0829ZM45.3207 18.6463C45.264 18.1443 45.1287 17.6901 44.9144 17.2792C44.7001 16.8684 44.4176 16.5298 44.0664 16.2592C43.7152 15.9887 43.2997 15.7859 42.811 15.6472C42.3266 15.5082 41.7711 15.4627 41.1528 15.5059C40.6375 15.542 40.1478 15.6353 39.6796 15.7902C39.2158 15.9449 38.8047 16.1761 38.4551 16.483C38.1055 16.7899 37.8252 17.1636 37.6187 17.6039C37.4121 18.0441 37.3071 18.5785 37.3119 19.2021L45.3204 18.6421L45.3207 18.6463Z" fill="#1E1E1E"/>
<path d="M54.9802 12.813L55.1954 15.1429H55.7206C56.1769 14.1756 56.8226 13.4733 57.6577 13.0401C58.4928 12.6069 59.4613 12.3882 60.5547 12.3882C61.3812 12.3882 62.1216 12.5144 62.7716 12.7667C63.4215 13.019 63.9768 13.3765 64.4288 13.8434C64.8808 14.306 65.2252 14.8695 65.4533 15.5256C65.6815 16.1817 65.7934 16.9051 65.7934 17.6916V27.9577H61.9192V18.9953C61.9192 18.4107 61.859 17.9103 61.7341 17.4981C61.6093 17.086 61.4199 16.7453 61.1616 16.4845C60.9034 16.2238 60.5762 16.0261 60.1845 15.8957C59.7928 15.7654 59.3365 15.6981 58.8199 15.6981C58.3034 15.6981 57.7911 15.7864 57.3477 15.9546C56.9044 16.1271 56.5213 16.3836 56.2027 16.7285C55.8799 17.0733 55.6345 17.5107 55.458 18.0449C55.2815 18.579 55.1954 19.1888 55.1954 19.8785V27.9619H51.3213V13.5135L54.9802 12.813Z" fill="#1E1E1E"/>
<path d="M70.7515 16.3247H67.5273V12.813H70.7515V8.4459L74.5955 7.36237V12.813H80.3895V16.3247H74.5955V22.5029C74.5955 23.2095 74.7505 23.7099 75.0604 24.0001C75.3703 24.2945 75.9386 24.4375 76.765 24.4375H80.3895V27.9493H75.7707C74.8409 27.9493 74.0574 27.8273 73.4161 27.5876C72.7747 27.3437 72.2581 27.0114 71.8664 26.5866C71.4747 26.1619 71.1906 25.6614 71.0141 25.0894C70.8376 24.5132 70.7515 23.895 70.7515 23.2263V16.3205V16.3247Z" fill="#1E1E1E"/>
<path d="M85.0559 28.1217C84.4662 27.9493 83.9496 27.6885 83.5062 27.3353C83.0629 26.982 82.7142 26.5362 82.4688 26.002C82.2192 25.4679 82.0986 24.8371 82.0986 24.1095C82.0986 23.5459 82.2105 22.9445 82.4387 22.3094C82.6668 21.6744 83.1533 21.0814 83.8937 20.5388C84.6384 19.9921 85.7102 19.5379 87.1178 19.1762C88.5211 18.8145 90.3936 18.6295 92.7267 18.6295V18.1752C92.7267 17.8304 92.6578 17.5023 92.5244 17.1911C92.391 16.8799 92.1929 16.5939 91.9347 16.3415C91.6764 16.0892 91.332 15.8873 90.8973 15.7359C90.4625 15.5845 89.9373 15.5088 89.3175 15.5088C88.7579 15.5088 88.2671 15.5803 87.8453 15.7191C87.4234 15.8621 87.0705 16.0471 86.7907 16.2785C86.5109 16.5098 86.2999 16.7874 86.1536 17.1112C86.0072 17.435 85.9383 17.7883 85.9383 18.171H82.189C82.189 17.1617 82.387 16.2953 82.7788 15.5677C83.1705 14.8401 83.6956 14.2387 84.3586 13.7677C85.0215 13.2924 85.7748 12.9433 86.6228 12.7246C87.4708 12.5017 88.336 12.3924 89.2271 12.3924C90.5701 12.3924 91.7022 12.548 92.6191 12.8634C93.536 13.1789 94.2893 13.612 94.8661 14.1672C95.4429 14.7224 95.8648 15.3742 96.1231 16.1186C96.3813 16.8673 96.5105 17.6748 96.5105 18.5411V22.5071C96.5105 23.2557 96.5277 23.9034 96.5578 24.4586C96.588 25.0137 96.6353 25.4974 96.6956 25.9137C96.7558 26.3259 96.829 26.696 96.9108 27.0198C96.9926 27.3437 97.0744 27.6549 97.1605 27.9577H93.3466C93.183 27.596 93.0582 27.1712 92.9764 26.6876C92.8946 26.2039 92.8516 25.7581 92.8516 25.3544H92.2618C91.8055 26.2039 91.1254 26.9189 90.2171 27.5035C89.3089 28.0881 88.2026 28.3825 86.9026 28.3825C86.2612 28.3825 85.6456 28.2984 85.0602 28.1259L85.0559 28.1217ZM89.6747 25.0305C90.2645 24.7992 90.7767 24.4964 91.2072 24.1221C91.642 23.7478 91.9906 23.3314 92.2618 22.8646C92.5287 22.402 92.6837 21.9351 92.7267 21.4725V20.9889C91.3622 20.9889 90.2343 21.0688 89.3476 21.2328C88.4608 21.3926 87.7506 21.6029 87.2254 21.8552C86.7003 22.1076 86.3301 22.402 86.1234 22.7342C85.9168 23.0665 85.8135 23.4071 85.8135 23.7478C85.8135 24.2945 85.9986 24.7025 86.3731 24.9759C86.7433 25.2492 87.2211 25.3838 87.7979 25.3838C88.4608 25.3838 89.085 25.266 89.6747 25.0347V25.0305Z" fill="#1E1E1E"/>
<path d="M103.11 25.5898L102.955 27.9535H99.3604V7.77022L103.235 6.75671V13.1157L103.08 15.2354H103.669C104.246 14.205 104.995 13.4732 105.916 13.04C106.837 12.6068 107.823 12.3881 108.878 12.3881C109.765 12.3881 110.613 12.5396 111.418 12.8424C112.223 13.1452 112.941 13.6246 113.57 14.2807C114.198 14.9368 114.698 15.7653 115.059 16.7621C115.421 17.763 115.602 18.9575 115.602 20.3495C115.602 21.7416 115.412 23.0118 115.029 24.0295C114.646 25.0473 114.129 25.88 113.479 26.5277C112.829 27.1754 112.089 27.6422 111.263 27.9366C110.436 28.231 109.558 28.374 108.628 28.374C107.638 28.374 106.7 28.1553 105.822 27.7221C104.943 27.2889 104.225 26.5782 103.669 25.5856H103.11V25.5898ZM111.418 18.2635C111.211 17.6579 110.923 17.1574 110.548 16.7663C110.178 16.3709 109.739 16.0892 109.231 15.9167C108.723 15.7443 108.172 15.6602 107.574 15.6602C106.975 15.6602 106.441 15.7485 105.916 15.9167C105.391 16.0892 104.926 16.3667 104.522 16.7495C104.117 17.1322 103.803 17.6242 103.575 18.2173C103.346 18.8145 103.235 19.5463 103.235 20.4126C103.235 21.279 103.346 21.9814 103.575 22.5786C103.803 23.1758 104.117 23.6594 104.522 24.0337C104.926 24.408 105.391 24.6814 105.916 24.8496C106.441 25.0221 106.997 25.1062 107.574 25.1062C108.15 25.1062 108.723 25.0221 109.231 24.8496C109.739 24.6772 110.178 24.3996 110.548 24.0169C110.918 23.6342 111.211 23.1421 111.418 22.5491C111.624 21.9519 111.728 21.2412 111.728 20.4126C111.728 19.5841 111.624 18.8691 111.418 18.2635Z" fill="#1E1E1E"/>
<path d="M117.802 28.0829L117.802 8.10806L121.706 6.75671L121.706 28.0829H117.802Z" fill="#1E1E1E"/>
<path d="M129.272 28.0829C128.27 27.8283 127.39 27.3966 126.635 26.779C125.88 26.1615 125.267 25.3653 124.806 24.3858C124.345 23.4062 124.065 22.2411 123.971 20.8943C123.877 19.5476 123.999 18.4555 124.32 17.4381C124.642 16.4248 125.129 15.556 125.786 14.8313C126.439 14.1069 127.241 13.5407 128.183 13.1291C129.129 12.7172 130.187 12.4746 131.363 12.3923C132.476 12.3145 133.509 12.4025 134.459 12.6607C135.409 12.9189 136.236 13.329 136.936 13.8998C137.64 14.4661 138.199 15.1733 138.62 16.0123C139.041 16.8514 139.29 17.8163 139.366 18.9029C139.391 19.2637 139.403 19.6212 139.41 19.9623C139.412 20.3078 139.405 20.6288 139.383 20.9338L127.849 21.7404C127.914 22.364 128.068 22.8971 128.319 23.3475C128.571 23.7979 128.894 24.1589 129.297 24.4343C129.7 24.7096 130.154 24.9056 130.659 25.0221C131.163 25.1386 131.697 25.1771 132.25 25.1384C132.804 25.0997 133.32 25.0088 133.724 24.8667C134.129 24.7288 134.47 24.5447 134.744 24.3232C135.017 24.1017 135.229 23.8593 135.375 23.5961C135.52 23.333 135.64 23.0675 135.724 22.7959L139.404 22.5386C139.319 23.4131 139.106 24.1953 138.761 24.8771C138.416 25.5589 137.943 26.1442 137.347 26.6286C136.751 27.1172 136.053 27.5032 135.254 27.791C134.454 28.0789 133.552 28.26 132.543 28.3305C131.366 28.4128 130.281 28.3285 129.28 28.0739L129.272 28.0829ZM135.68 18.6463C135.623 18.1443 135.488 17.6901 135.274 17.2792C135.06 16.8684 134.777 16.5298 134.426 16.2592C134.075 15.9887 133.659 15.7859 133.17 15.6472C132.686 15.5082 132.131 15.4627 131.512 15.5059C130.997 15.542 130.507 15.6353 130.039 15.7902C129.575 15.9449 129.164 16.1761 128.814 16.483C128.465 16.7899 128.185 17.1636 127.978 17.6039C127.772 18.0441 127.666 18.5785 127.671 19.2021L135.68 18.6421L135.68 18.6463Z" fill="#1E1E1E"/>
</g>
<path fill-rule="evenodd" clip-rule="evenodd" d="M4.62109 8.34787C4.62109 6.29813 6.28129 4.63794 8.33103 4.63794C10.3808 4.63794 12.041 6.29813 12.041 8.34787C12.041 9.61056 11.4109 10.7254 10.4479 11.3954H6.21411C5.25111 10.7254 4.62109 9.61056 4.62109 8.34787ZM6.08188 8.34787C7.32471 8.34787 8.33103 9.35419 8.33103 10.597C8.33103 9.35419 9.33735 8.34787 10.5802 8.34787C9.33735 8.34787 8.33103 7.34155 8.33103 6.09873C8.33103 7.34155 7.32471 8.34787 6.08188 8.34787Z" fill="url(#paint0_radial_141_20)"/>
<path d="M10.4498 11.6027H6.32031V11.9781H10.4498V11.6027Z" fill="url(#paint1_linear_141_20)"/>
<path d="M10.4498 12.072H6.32031V12.2597H10.4498V12.072Z" fill="url(#paint2_linear_141_20)"/>
<path d="M10.4498 12.3536H6.32031V12.4474H10.4498V12.3536Z" fill="url(#paint3_linear_141_20)"/>
<defs>
<radialGradient id="paint0_radial_141_20" cx="0" cy="0" r="1" gradientUnits="userSpaceOnUse" gradientTransform="translate(8.33103 8.01668) rotate(90) scale(3.37874 3.70993)">
<stop stop-color="#FFA58F"/>
<stop offset="1" stop-color="#FF4A1F"/>
</radialGradient>
<linearGradient id="paint1_linear_141_20" x1="8.38507" y1="11.6027" x2="8.38507" y2="11.9781" gradientUnits="userSpaceOnUse">
<stop offset="0.24" stop-color="#35ABFF"/>
<stop offset="1" stop-color="#9168C0"/>
</linearGradient>
<linearGradient id="paint2_linear_141_20" x1="8.38507" y1="12.072" x2="8.38507" y2="12.2597" gradientUnits="userSpaceOnUse">
<stop offset="0.24" stop-color="#35ABFF"/>
<stop offset="1" stop-color="#9168C0"/>
</linearGradient>
<linearGradient id="paint3_linear_141_20" x1="8.38507" y1="12.4474" x2="8.38507" y2="12.3536" gradientUnits="userSpaceOnUse">
<stop stop-color="#9168C0"/>
<stop offset="0.76" stop-color="#35ABFF"/>
</linearGradient>
<clipPath id="clip0_141_20">
<rect width="144.594" height="28.3782" fill="white" transform="translate(0.5)"/>
</clipPath>
</defs>
</svg>
