<svg width="24" height="24" viewBox="0 0 24 24" fill="none" xmlns="http://www.w3.org/2000/svg">
<path d="M15.125 11.025C14.325 11.025 13.6875 10.7458 13.2125 10.1875C12.7375 9.62917 12.5 8.875 12.5 7.925C12.5 6.19167 13.05 4.77083 14.15 3.6625C15.25 2.55417 16.6583 2 18.375 2C19.075 2 19.6417 2.07917 20.075 2.2375C20.5083 2.39583 20.725 2.6 20.725 2.85C20.725 2.95 20.7083 3.05 20.675 3.15C20.6417 3.25 20.5833 3.34167 20.5 3.425C20.4167 3.54167 20.3125 3.625 20.1875 3.675C20.0625 3.725 19.9333 3.73333 19.8 3.7C19.5667 3.63333 19.3 3.575 19 3.525C18.7 3.475 18.425 3.45 18.175 3.45C16.9917 3.45 16.0417 3.85 15.325 4.65C14.6083 5.45 14.25 6.50833 14.25 7.825C14.25 8.19167 14.3167 8.575 14.45 8.975C14.5833 9.375 14.8833 9.575 15.35 9.575C15.5333 9.575 15.7125 9.53333 15.8875 9.45C16.0625 9.36667 16.2167 9.25 16.35 9.1C16.6333 8.8 16.8958 8.3 17.1375 7.6C17.3792 6.9 17.6 6.05 17.8 5.05C17.8333 4.83333 17.9208 4.67917 18.0625 4.5875C18.2042 4.49583 18.4 4.45 18.65 4.45C18.95 4.45 19.1792 4.52917 19.3375 4.6875C19.4958 4.84583 19.5417 5.04167 19.475 5.275C19.275 5.99167 19.1292 6.61667 19.0375 7.15C18.9458 7.68333 18.9 8.16667 18.9 8.6C18.9 8.93333 18.9458 9.175 19.0375 9.325C19.1292 9.475 19.2667 9.55 19.45 9.55C19.6333 9.55 19.8125 9.48333 19.9875 9.35C20.1625 9.21667 20.4083 8.96667 20.725 8.6C20.7583 8.55 20.8833 8.49167 21.1 8.425C21.2333 8.425 21.3333 8.475 21.4 8.575C21.4667 8.675 21.5 8.81667 21.5 9C21.5 9.46667 21.2333 9.91667 20.7 10.35C20.1667 10.7833 19.6083 11 19.025 11C18.5917 11 18.2208 10.8833 17.9125 10.65C17.6042 10.4167 17.3917 10.0833 17.275 9.65C17.025 10.0833 16.7167 10.4208 16.35 10.6625C15.9833 10.9042 15.575 11.025 15.125 11.025ZM3 11V5.5C3 4.53333 3.34167 3.70833 4.025 3.025C4.70833 2.34167 5.53333 2 6.5 2C7.46667 2 8.29167 2.34167 8.975 3.025C9.65833 3.70833 10 4.53333 10 5.5V11H8V9H5V11H3ZM5 7H8V5.5C8 5.08333 7.85417 4.72917 7.5625 4.4375C7.27083 4.14583 6.91667 4 6.5 4C6.08333 4 5.72917 4.14583 5.4375 4.4375C5.14583 4.72917 5 5.08333 5 5.5V7Z" fill="#172B4D"/>
<circle cx="6.44873" cy="17.2607" r="3.5" fill="#172B4D" stroke="#172B4D"/>
<path d="M19.9 16.0607C19.5667 16.0607 19.2833 15.9441 19.05 15.7107C18.8167 15.4774 18.7 15.1941 18.7 14.8607C18.7 14.5274 18.8167 14.2441 19.05 14.0107C19.2833 13.7774 19.5667 13.6607 19.9 13.6607C20.2333 13.6607 20.5167 13.7774 20.75 14.0107C20.9833 14.2441 21.1 14.5274 21.1 14.8607C21.1 15.1941 20.9833 15.4774 20.75 15.7107C20.5167 15.9441 20.2333 16.0607 19.9 16.0607ZM17.5 21.2607C16.9467 21.2607 16.4267 21.1557 15.94 20.9457C15.4533 20.7357 15.03 20.4507 14.67 20.0907C14.31 19.7307 14.025 19.3074 13.815 18.8207C13.605 18.3341 13.5 17.8141 13.5 17.2607C13.5 16.7074 13.605 16.1874 13.815 15.7007C14.025 15.2141 14.31 14.7907 14.67 14.4307C15.03 14.0707 15.4517 13.7857 15.935 13.5757C16.4183 13.3657 16.9367 13.2607 17.49 13.2607C17.73 13.2607 17.9 13.2774 18 13.3107C18.1 13.3441 18.1667 13.4074 18.2 13.5007C18.2267 13.5607 18.235 13.6241 18.225 13.6907C18.215 13.7574 18.19 13.8241 18.15 13.8907C18.0633 14.0307 18 14.1807 17.96 14.3407C17.92 14.5007 17.9 14.6741 17.9 14.8607C17.9 15.4141 18.095 15.8857 18.485 16.2757C18.875 16.6657 19.3467 16.8607 19.9 16.8607C20.0733 16.8607 20.2417 16.8407 20.405 16.8007C20.5683 16.7607 20.7233 16.6974 20.87 16.6107C20.9367 16.5774 21.0033 16.5557 21.07 16.5457C21.1367 16.5357 21.1967 16.5441 21.25 16.5707C21.3433 16.6041 21.4083 16.6707 21.445 16.7707C21.4817 16.8707 21.5 17.0374 21.5 17.2707C21.5 17.8241 21.395 18.3424 21.185 18.8257C20.975 19.3091 20.69 19.7307 20.33 20.0907C19.97 20.4507 19.5467 20.7357 19.06 20.9457C18.5733 21.1557 18.0533 21.2607 17.5 21.2607Z" fill="#172B4D"/>
</svg>
