<svg width="24" height="24" viewBox="0 0 24 24" fill="none" xmlns="http://www.w3.org/2000/svg">
<g clip-path="url(#clip0_1971_4915)">
<mask id="path-1-inside-1_1971_4915" fill="white">
<rect x="9" y="3" width="9.96875" height="9.96875" rx="0.553819"/>
</mask>
<mask id="path-2-outside-2_1971_4915" maskUnits="userSpaceOnUse" x="9" y="8.19971" width="10" height="4" fill="black">
<rect fill="white" x="9" y="8.19971" width="10" height="4"/>
<path d="M9 10.1997H18.9688V11.8612H9V10.1997Z"/>
</mask>
<path d="M9 10.1997H18.9688V11.8612H9V10.1997Z" fill="white"/>
<path d="M9 11.3073H18.9688V9.09207H9V11.3073Z" fill="#001141" mask="url(#path-2-outside-2_1971_4915)"/>
<path fill-rule="evenodd" clip-rule="evenodd" d="M10.6614 11.0303V11.2726C10.6612 11.2771 10.662 11.2816 10.6637 11.2858C10.6653 11.29 10.6678 11.2938 10.671 11.297C10.6741 11.3002 10.6779 11.3028 10.6821 11.3045C10.6863 11.3063 10.6907 11.3072 10.6952 11.3072H10.7306V10.9957H10.6953C10.6908 10.9957 10.6863 10.9967 10.6821 10.9984C10.678 11.0002 10.6742 11.0027 10.671 11.006C10.6679 11.0092 10.6654 11.013 10.6637 11.0172C10.6621 11.0213 10.6613 11.0258 10.6614 11.0303ZM11.1903 10.9971C11.1803 10.9855 11.168 10.9763 11.1542 10.9699C11.1403 10.9636 11.1252 10.9603 11.1099 10.9604H11.0188C11.0202 10.9541 11.0215 10.9479 11.0226 10.942C11.0404 10.8404 11.0226 10.8035 11.0051 10.7829C10.9972 10.7737 10.9874 10.7662 10.9763 10.7611C10.9652 10.756 10.9531 10.7534 10.9409 10.7534C10.9151 10.7542 10.8905 10.7643 10.8716 10.7818C10.8528 10.7993 10.8409 10.823 10.8381 10.8486C10.8245 10.9123 10.8224 10.9179 10.8046 10.943L10.778 10.9807C10.7699 10.9922 10.7656 11.006 10.7655 11.0202V11.2373C10.7655 11.2557 10.773 11.2733 10.7861 11.2863C10.7993 11.2993 10.8171 11.3065 10.8357 11.3065H11.0866C11.1113 11.3067 11.1354 11.2981 11.1544 11.2822C11.1734 11.2663 11.1861 11.2442 11.1903 11.2197L11.2137 11.0813C11.2163 11.0664 11.2155 11.0511 11.2114 11.0366C11.2074 11.022 11.2002 11.0085 11.1903 10.9971Z" fill="#001141"/>
<path d="M12.0715 11.3014L11.8213 11.0534C11.8049 11.0371 11.7917 11.0177 11.7828 10.9964C11.7738 10.9751 11.7693 10.9522 11.7693 10.9291C11.7693 10.906 11.7738 10.8831 11.7828 10.8618C11.7917 10.8405 11.8047 10.8212 11.8212 10.8049C11.8545 10.772 11.8996 10.7535 11.9465 10.7535C11.9934 10.7535 12.0387 10.7722 12.072 10.8052L12.0857 10.8187L12.0996 10.8049C12.133 10.7719 12.178 10.7534 12.2249 10.7534C12.2718 10.7534 12.3168 10.7719 12.3502 10.8049C12.3667 10.8211 12.3797 10.8404 12.3886 10.8617C12.3975 10.8831 12.4021 10.9059 12.4021 10.929C12.4021 10.9522 12.3975 10.975 12.3886 10.9964C12.3797 11.0177 12.3664 11.0373 12.3499 11.0535L12.0999 11.3014C12.0961 11.3051 12.091 11.3072 12.0857 11.3072C12.0804 11.3072 12.0753 11.3051 12.0715 11.3014Z" fill="#001141"/>
<path fill-rule="evenodd" clip-rule="evenodd" d="M16.9749 8.53798C17.1543 8.53798 17.3072 8.43696 17.3072 8.31246V7.58851C17.3037 7.51711 17.2647 7.44851 17.1962 7.39356L15.6457 6.25624C15.6312 6.24577 15.6137 6.23737 15.5942 6.23155C15.5747 6.22572 15.5536 6.22259 15.5323 6.22234C15.5109 6.22209 15.4897 6.22473 15.4699 6.2301C15.4501 6.23547 15.4321 6.24346 15.4171 6.25358L13.3197 7.65187L12.7741 7.28812C12.7587 7.27742 12.7402 7.26891 12.7198 7.2631C12.6993 7.25729 12.6773 7.25429 12.6551 7.25429C12.6329 7.25429 12.6109 7.25729 12.5904 7.2631C12.57 7.26891 12.5515 7.27742 12.5361 7.28812L10.8979 8.38025C10.7683 8.46664 10.8076 8.53798 10.9877 8.53798H16.9749Z" fill="#001141"/>
<path d="M12.1012 6.43384C12.5906 6.43384 12.9873 6.03712 12.9873 5.54773C12.9873 5.05835 12.5906 4.66162 12.1012 4.66162C11.6118 4.66162 11.2151 5.05835 11.2151 5.54773C11.2151 6.03712 11.6118 6.43384 12.1012 6.43384Z" fill="#001141"/>
</g>
<rect x="9" y="3" width="9.96875" height="9.96875" rx="0.553819" stroke="#001141" stroke-width="2.21528" mask="url(#path-1-inside-1_1971_4915)"/>
<path d="M5 20.9999C4.16667 20.9999 3.45833 20.7082 2.875 20.1249C2.29167 19.5416 2 18.8332 2 17.9999C2 17.1666 2.29167 16.4582 2.875 15.8749C3.45833 15.2916 4.16667 14.9999 5 14.9999H19C19.8333 14.9999 20.5417 15.2916 21.125 15.8749C21.7083 16.4582 22 17.1666 22 17.9999C22 18.8332 21.7083 19.5416 21.125 20.1249C20.5417 20.7082 19.8333 20.9999 19 20.9999H5ZM5 18.9999H19C19.2833 18.9999 19.5208 18.9041 19.7125 18.7124C19.9042 18.5207 20 18.2832 20 17.9999C20 17.7166 19.9042 17.4791 19.7125 17.2874C19.5208 17.0957 19.2833 16.9999 19 16.9999H5C4.71667 16.9999 4.47917 17.0957 4.2875 17.2874C4.09583 17.4791 4 17.7166 4 17.9999C4 18.2832 4.09583 18.5207 4.2875 18.7124C4.47917 18.9041 4.71667 18.9999 5 18.9999ZM2 10.9499V9.0249H6.925V10.9499H2ZM4 7.9999H6.925V6.0249H4V7.9999Z" fill="#001141"/>
<defs>
<clipPath id="clip0_1971_4915">
<rect x="9" y="3" width="9.96875" height="9.96875" rx="0.553819" fill="white"/>
</clipPath>
</defs>
</svg>
