<svg width="24" height="24" viewBox="0 0 24 24" fill="none" xmlns="http://www.w3.org/2000/svg">
<g clip-path="url(#clip0_313_20576)">
<path d="M4.84495 4.78944L4.85706 4.78339L4.86712 4.77433C6.84727 2.9922 9.42284 2.1 12.0002 2.1C14.6747 2.1 17.2501 3.09023 19.2315 4.87267C19.3602 5.00006 19.4956 5.00002 19.5962 5L19.6002 5C19.8417 5 19.9673 4.87436 20.0678 4.77381L20.0709 4.77071C20.31 4.53166 20.31 4.16834 20.0709 3.92929L20.0711 3.9291L20.0656 3.92432C17.8478 2.00897 14.9247 0.9 12.0002 0.9C9.07764 0.9 6.2531 1.90779 4.13314 3.82585L4.13305 3.82575L4.12952 3.82929C4.01903 3.93978 3.9319 4.08172 3.90217 4.23039C3.87174 4.38255 3.90209 4.54328 4.02952 4.67071C4.26676 4.90795 4.61582 4.904 4.84495 4.78944Z" fill="#667085" stroke="#667085" stroke-width="0.2"/>
<path d="M4.5 5.1H7.5C7.67272 5.1 7.82443 5.04199 7.93321 4.93321C8.04199 4.82443 8.1 4.67272 8.1 4.5C8.1 4.32728 8.04199 4.17557 7.93321 4.06679C7.82443 3.95801 7.67272 3.9 7.5 3.9H5.1V1.5C5.1 1.32728 5.04199 1.17557 4.93321 1.06679C4.82443 0.958011 4.67272 0.9 4.5 0.9C4.32728 0.9 4.17557 0.958011 4.06679 1.06679C3.95801 1.17557 3.9 1.32728 3.9 1.5V4.5C3.9 4.67272 3.95801 4.82443 4.06679 4.93321C4.17557 5.04199 4.32728 5.1 4.5 5.1Z" fill="#667085" stroke="#667085" stroke-width="0.2"/>
<path d="M4.02948 20.0707L4.0293 20.0709L4.03483 20.0757C6.25261 21.991 9.17569 23.1 12.1002 23.1C15.0206 23.1 17.8421 22.0938 19.9608 20.2797C20.1273 20.167 20.2213 20.0188 20.2372 19.86C20.2528 19.7036 20.1911 19.5531 20.0779 19.4364C19.9655 19.2718 19.8181 19.1788 19.6601 19.163C19.5015 19.1471 19.3488 19.2109 19.2314 19.3274C17.2515 21.1084 14.6768 22 12.1002 22C9.42575 22 6.85036 21.0098 4.86896 19.2274C4.62989 18.9902 4.26789 18.9909 4.02948 19.2293C3.79043 19.4683 3.79043 19.8317 4.02948 20.0707Z" fill="#667085" stroke="#667085" stroke-width="0.2"/>
<path d="M19.0001 22.5C19.0001 22.6727 19.0581 22.8244 19.1669 22.9332C19.2757 23.042 19.4274 23.1 19.6001 23.1C19.7728 23.1 19.9245 23.042 20.0333 22.9332C20.1421 22.8244 20.2001 22.6727 20.2001 22.5V19.5C20.2001 19.3273 20.1421 19.1756 20.0333 19.0668C19.9245 18.958 19.7728 18.9 19.6001 18.9H16.6001C16.4274 18.9 16.2757 18.958 16.1669 19.0668C16.0581 19.1756 16.0001 19.3273 16.0001 19.5C16.0001 19.6727 16.0581 19.8244 16.1669 19.9332C16.2757 20.042 16.4274 20.1 16.6001 20.1H19.0001V22.5Z" fill="#667085" stroke="#667085" stroke-width="0.2"/>
<path d="M2.4 9.5C2.4 10.9552 3.54477 12.1 5 12.1C6.45523 12.1 7.6 10.9552 7.6 9.5C7.6 8.04477 6.45523 6.9 5 6.9C3.54477 6.9 2.4 8.04477 2.4 9.5ZM3.6 9.5C3.6 8.75523 4.25523 8.1 5 8.1C5.74477 8.1 6.4 8.75523 6.4 9.5C6.4 10.2448 5.74477 10.9 5 10.9C4.25523 10.9 3.6 10.2448 3.6 9.5Z" fill="#667085" stroke="#667085" stroke-width="0.2"/>
<path d="M8.9 16.5C8.9 16.6727 8.95801 16.8244 9.06679 16.9332C9.17557 17.042 9.32728 17.1 9.5 17.1C9.67272 17.1 9.82443 17.042 9.93321 16.9332C10.042 16.8244 10.1 16.6727 10.1 16.5V15.5C10.1 14.0448 8.95523 12.9 7.5 12.9H2.5C1.04477 12.9 -0.1 14.0448 -0.1 15.5V16.5C-0.1 16.6727 -0.0419886 16.8244 0.0667893 16.9332C0.175567 17.042 0.327275 17.1 0.5 17.1C0.672725 17.1 0.824433 17.042 0.933211 16.9332C1.04199 16.8244 1.1 16.6727 1.1 16.5V15.5C1.1 14.7552 1.75523 14.1 2.5 14.1H7.5C8.24477 14.1 8.9 14.7552 8.9 15.5V16.5Z" fill="#667085" stroke="#667085" stroke-width="0.2"/>
<path d="M16.4 9.5C16.4 10.9552 17.5448 12.1 19 12.1C20.4552 12.1 21.6 10.9552 21.6 9.5C21.6 8.04477 20.4552 6.9 19 6.9C17.5448 6.9 16.4 8.04477 16.4 9.5ZM17.6 9.5C17.6 8.75523 18.2552 8.1 19 8.1C19.7448 8.1 20.4 8.75523 20.4 9.5C20.4 10.2448 19.7448 10.9 19 10.9C18.2552 10.9 17.6 10.2448 17.6 9.5Z" fill="#667085" stroke="#667085" stroke-width="0.2"/>
<path d="M22.9 16.5C22.9 16.6727 22.958 16.8244 23.0668 16.9332C23.1756 17.042 23.3273 17.1 23.5 17.1C23.6727 17.1 23.8244 17.042 23.9332 16.9332C24.042 16.8244 24.1 16.6727 24.1 16.5V15.5C24.1 14.0448 22.9552 12.9 21.5 12.9H16.5C15.0448 12.9 13.9 14.0448 13.9 15.5V16.5C13.9 16.6727 13.958 16.8244 14.0668 16.9332C14.1756 17.042 14.3273 17.1 14.5 17.1C14.6727 17.1 14.8244 17.042 14.9332 16.9332C15.042 16.8244 15.1 16.6727 15.1 16.5V15.5C15.1 14.7552 15.7552 14.1 16.5 14.1H21.5C22.2448 14.1 22.9 14.7552 22.9 15.5V16.5Z" fill="#667085" stroke="#667085" stroke-width="0.2"/>
</g>
<defs>
<clipPath id="clip0_313_20576">
<rect width="24" height="24" fill="white"/>
</clipPath>
</defs>
</svg>
