<svg width="24" height="24" viewBox="0 0 24 24" fill="none" xmlns="http://www.w3.org/2000/svg">
<path d="M6 5.63113V16.1189C6 16.6062 6.39375 17 6.88113 17H17.3689C17.8562 17 18.25 16.6062 18.25 16.1189V5.63113C18.25 5.14375 17.8562 4.75 17.3689 4.75H6.88113C6.39375 4.75 6 5.14375 6 5.63113ZM4.25 5.63113C4.24989 5.28557 4.31786 4.94338 4.45005 4.6241C4.58223 4.30483 4.77604 4.01473 5.02038 3.77038C5.26473 3.52604 5.55483 3.33223 5.8741 3.20005C6.19338 3.06786 6.53557 2.99989 6.88113 3H17.3689C17.7144 2.99989 18.0566 3.06786 18.3759 3.20005C18.6952 3.33223 18.9853 3.52604 19.2296 3.77038C19.474 4.01473 19.6678 4.30483 19.8 4.6241C19.9321 4.94338 20.0001 5.28557 20 5.63113V16.1189C20.0001 16.4644 19.9321 16.8066 19.8 17.1259C19.6678 17.4452 19.474 17.7353 19.2296 17.9796C18.9853 18.224 18.6952 18.4178 18.3759 18.55C18.0566 18.6821 17.7144 18.7501 17.3689 18.75H6.88113C6.53557 18.7501 6.19338 18.6821 5.8741 18.55C5.55483 18.4178 5.26473 18.224 5.02038 17.9796C4.77604 17.7353 4.58223 17.4452 4.45005 17.1259C4.31786 16.8066 4.24989 16.4644 4.25 16.1189V5.63113Z" fill="#001141"/>
<path fill-rule="evenodd" clip-rule="evenodd" d="M16.0625 15.25C16.2987 15.25 16.5 15.0505 16.5 14.8046V13.3749C16.4955 13.2339 16.444 13.0984 16.3539 12.9899L14.3125 10.7438C14.2934 10.7231 14.2703 10.7065 14.2447 10.695C14.219 10.6835 14.1913 10.6773 14.1631 10.6768C14.135 10.6763 14.1071 10.6815 14.081 10.6921C14.0549 10.7027 14.0313 10.7185 14.0115 10.7385L11.25 13.5L10.5316 12.7816C10.5114 12.7605 10.4871 12.7437 10.4601 12.7322C10.4332 12.7207 10.4043 12.7148 10.375 12.7148C10.3457 12.7148 10.3168 12.7207 10.2899 12.7322C10.2629 12.7437 10.2386 12.7605 10.2184 12.7816L8.0615 14.9385C7.89087 15.1091 7.9425 15.25 8.17963 15.25H16.0625Z" fill="#001141"/>
<path d="M9.5 10C10.4665 10 11.25 9.2165 11.25 8.25C11.25 7.2835 10.4665 6.5 9.5 6.5C8.5335 6.5 7.75 7.2835 7.75 8.25C7.75 9.2165 8.5335 10 9.5 10Z" fill="#001141"/>
<path fill-rule="evenodd" clip-rule="evenodd" d="M3.86656 12.8782C3.76454 12.9791 3.62684 13.0356 3.48335 13.0356C3.33986 13.0356 3.20216 12.9791 3.10014 12.8782L1.4987 11.2908C1.38257 11.173 1.32478 11.0207 1.32478 10.87C1.32478 10.7193 1.38257 10.5697 1.4987 10.4547L3.09474 8.87213C3.19683 8.77136 3.3345 8.71486 3.47795 8.71486C3.62139 8.71486 3.75907 8.77136 3.86116 8.87213C3.91149 8.92173 3.95146 8.98084 3.97874 9.04602C4.00602 9.11121 4.02006 9.18117 4.02006 9.25183C4.02006 9.32249 4.00602 9.39245 3.97874 9.45763C3.95146 9.52282 3.91149 9.58193 3.86116 9.63153L2.60971 10.8727L3.86656 12.1188C3.91669 12.1685 3.95649 12.2276 3.98364 12.2928C4.0108 12.358 4.02478 12.4279 4.02478 12.4985C4.02478 12.5691 4.0108 12.639 3.98364 12.7041C3.95649 12.7693 3.91669 12.8284 3.86656 12.8782Z" fill="#001141"/>
<path fill-rule="evenodd" clip-rule="evenodd" d="M20.3834 12.8782C20.4855 12.9791 20.6232 13.0356 20.7667 13.0356C20.9101 13.0356 21.0478 12.9791 21.1499 12.8782L22.7513 11.2908C22.8674 11.173 22.9252 11.0207 22.9252 10.87C22.9252 10.7193 22.8674 10.5697 22.7513 10.4547L21.1553 8.87213C21.0532 8.77136 20.9155 8.71486 20.7721 8.71486C20.6286 8.71486 20.4909 8.77136 20.3888 8.87213C20.3385 8.92173 20.2985 8.98084 20.2713 9.04602C20.244 9.11121 20.2299 9.18117 20.2299 9.25183C20.2299 9.32249 20.244 9.39245 20.2713 9.45763C20.2985 9.52282 20.3385 9.58193 20.3888 9.63153L21.6403 10.8727L20.3834 12.1188C20.3333 12.1685 20.2935 12.2276 20.2664 12.2928C20.2392 12.358 20.2252 12.4279 20.2252 12.4985C20.2252 12.5691 20.2392 12.639 20.2664 12.7041C20.2935 12.7693 20.3333 12.8284 20.3834 12.8782Z" fill="#001141"/>
<circle cx="9.875" cy="20.4375" r="0.5625" fill="#001141" fill-opacity="0.24"/>
<circle cx="12.125" cy="20.4375" r="0.5625" fill="#001141"/>
<circle cx="14.375" cy="20.4375" r="0.5625" fill="#001141" fill-opacity="0.24"/>
</svg>
