<svg width="24" height="24" viewBox="0 0 24 24" fill="none" xmlns="http://www.w3.org/2000/svg">
<path d="M3.06467 6.97407C3.06467 6.38162 3.30002 5.81343 3.71894 5.39451C4.13787 4.97558 4.70605 4.74023 5.2985 4.74023H16.4677C17.0601 4.74023 17.6283 4.97558 18.0472 5.39451C18.4661 5.81343 18.7015 6.38162 18.7015 6.97407V8.09098C19.2939 8.09098 19.8621 8.32633 20.281 8.74525C20.7 9.16418 20.9353 9.73236 20.9353 10.3248V16.4678C20.9353 17.2084 20.6411 17.9186 20.1175 18.4423C19.5938 18.9659 18.8836 19.2601 18.143 19.2601H5.85696C5.11639 19.2601 4.40617 18.9659 3.88251 18.4423C3.35885 17.9186 3.06467 17.2084 3.06467 16.4678V6.97407ZM17.5846 6.97407C17.5846 6.67784 17.4669 6.39375 17.2574 6.18429C17.048 5.97482 16.7639 5.85715 16.4677 5.85715H5.2985C5.00227 5.85715 4.71818 5.97482 4.50872 6.18429C4.29926 6.39375 4.18158 6.67784 4.18158 6.97407V16.4678C4.18158 16.9122 4.35809 17.3383 4.67229 17.6525C4.98648 17.9667 5.41262 18.1432 5.85696 18.1432H18.143C18.5874 18.1432 19.0135 17.9667 19.3277 17.6525C19.6419 17.3383 19.8184 16.9122 19.8184 16.4678V10.3248C19.8184 10.0286 19.7007 9.7445 19.4913 9.53503C19.2818 9.32557 18.9977 9.2079 18.7015 9.2079V16.4678C18.7015 16.616 18.6426 16.758 18.5379 16.8627C18.4332 16.9675 18.2911 17.0263 18.143 17.0263C17.9949 17.0263 17.8529 16.9675 17.7481 16.8627C17.6434 16.758 17.5846 16.616 17.5846 16.4678V6.97407Z" fill="#001141"/>
<path d="M3.06467 6.97407C3.06467 6.38162 3.30002 5.81343 3.71894 5.39451C4.13787 4.97558 4.70605 4.74023 5.2985 4.74023H16.4677C17.0601 4.74023 17.6283 4.97558 18.0472 5.39451C18.4661 5.81343 18.7015 6.38162 18.7015 6.97407V8.09098C19.2939 8.09098 19.8621 8.32633 20.281 8.74525C20.7 9.16418 20.9353 9.73236 20.9353 10.3248V16.4678C20.9353 17.2084 20.6411 17.9186 20.1175 18.4423C19.5938 18.9659 18.8836 19.2601 18.143 19.2601H5.85696C5.11639 19.2601 4.40617 18.9659 3.88251 18.4423C3.35885 17.9186 3.06467 17.2084 3.06467 16.4678V6.97407ZM17.5846 6.97407C17.5846 6.67784 17.4669 6.39375 17.2574 6.18429C17.048 5.97482 16.7639 5.85715 16.4677 5.85715H5.2985C5.00227 5.85715 4.71818 5.97482 4.50872 6.18429C4.29926 6.39375 4.18158 6.67784 4.18158 6.97407V16.4678C4.18158 16.9122 4.35809 17.3383 4.67229 17.6525C4.98648 17.9667 5.41262 18.1432 5.85696 18.1432H18.143C18.5874 18.1432 19.0135 17.9667 19.3277 17.6525C19.6419 17.3383 19.8184 16.9122 19.8184 16.4678V10.3248C19.8184 10.0286 19.7007 9.7445 19.4913 9.53503C19.2818 9.32557 18.9977 9.2079 18.7015 9.2079V16.4678C18.7015 16.616 18.6426 16.758 18.5379 16.8627C18.4332 16.9675 18.2911 17.0263 18.143 17.0263C17.9949 17.0263 17.8529 16.9675 17.7481 16.8627C17.6434 16.758 17.5846 16.616 17.5846 16.4678V6.97407Z" stroke="#001141"/>
<path d="M6.7406 10.8352L6.12476 10.238L9.20443 7.25151L11.9762 9.93937L13.8242 8.14732L13.065 7.41158L15.9796 6.6543L15.1987 9.48069L14.44 8.74495L11.9762 11.1338L9.20443 8.44592L6.7406 10.8352Z" fill="#001141"/>
<path d="M6.46349 13.9567C6.53797 13.8822 6.63899 13.8403 6.74432 13.8403H9.12726C9.23259 13.8403 9.33361 13.8822 9.40809 13.9567C9.48257 14.0311 9.52441 14.1322 9.52441 14.2375V16.6204C9.52441 16.7258 9.48257 16.8268 9.40809 16.9013C9.33361 16.9757 9.23259 17.0176 9.12726 17.0176H6.74432C6.63899 17.0176 6.53797 16.9757 6.46349 16.9013C6.38901 16.8268 6.34717 16.7258 6.34717 16.6204V14.2375C6.34717 14.1322 6.38901 14.0311 6.46349 13.9567Z" fill="#001141"/>
<path d="M6.30629 12.3599C6.19383 12.4646 6.13065 12.6066 6.13065 12.7547C6.13065 12.9029 6.19383 13.0449 6.30629 13.1496C6.41875 13.2544 6.57127 13.3132 6.73032 13.3132H15.1257C15.2847 13.3132 15.4373 13.2544 15.5497 13.1496C15.6622 13.0449 15.7254 12.9029 15.7254 12.7547C15.7254 12.6066 15.6622 12.4646 15.5497 12.3599C15.4373 12.2551 15.2847 12.1963 15.1257 12.1963H6.73032C6.57127 12.1963 6.41875 12.2551 6.30629 12.3599Z" fill="#001141"/>
<path d="M9.92431 14.094C10.029 13.9892 10.1711 13.9304 10.3192 13.9304L15.1374 13.9302C15.2855 13.9302 15.4275 13.989 15.5323 14.0937C15.637 14.1985 15.6958 14.3405 15.6958 14.4886C15.6958 14.6367 15.637 14.7788 15.5323 14.8835C15.4275 14.9883 15.2855 15.0471 15.1374 15.0471L10.3192 15.0473C10.1711 15.0473 10.029 14.9885 9.92431 14.8837C9.81958 14.779 9.76074 14.637 9.76074 14.4889C9.76074 14.3407 9.81958 14.1987 9.92431 14.094Z" fill="#001141"/>
<path d="M10.0093 15.8973C9.90454 16.002 9.8457 16.1441 9.8457 16.2922C9.8457 16.4403 9.90454 16.5824 10.0093 16.6871C10.114 16.7918 10.256 16.8507 10.4042 16.8507L15.1279 16.8503C15.276 16.8503 15.418 16.7915 15.5228 16.6867C15.6275 16.582 15.6863 16.44 15.6863 16.2919C15.6863 16.1437 15.6275 16.0017 15.5228 15.897C15.418 15.7922 15.276 15.7334 15.1279 15.7334L10.4042 15.7337C10.256 15.7337 10.114 15.7926 10.0093 15.8973Z" fill="#001141"/>
</svg>
