<svg width="24" height="24" viewBox="0 0 24 24" fill="none" xmlns="http://www.w3.org/2000/svg">
<path d="M7.72502 21C7.12089 21 6.60733 20.7886 6.18433 20.3657C5.76146 19.9427 5.55002 19.4291 5.55002 18.825C5.55002 18.2209 5.76146 17.7073 6.18433 17.2843C6.60733 16.8614 7.12089 16.65 7.72502 16.65C7.90002 16.65 8.05627 16.6667 8.19377 16.7001C8.33127 16.7333 8.46877 16.7812 8.60627 16.8437L10.0251 15.075C9.75008 14.7541 9.54796 14.3896 9.41871 13.9813C9.28958 13.5729 9.25833 13.1542 9.32496 12.7251L7.30633 12.0437C7.11046 12.3562 6.85627 12.6021 6.54377 12.7813C6.23127 12.9604 5.87502 13.05 5.47502 13.05C4.87089 13.05 4.35733 12.8386 3.93433 12.4157C3.51146 11.9927 3.30002 11.4791 3.30002 10.875C3.30002 10.2709 3.51146 9.75731 3.93433 9.33431C4.35733 8.91144 4.87089 8.7 5.47502 8.7C6.07914 8.7 6.59271 8.91144 7.01571 9.33431C7.43858 9.75731 7.65002 10.2709 7.65002 10.875V10.9749L9.68121 11.6751C9.91458 11.2583 10.2073 10.9271 10.5595 10.6813C10.9115 10.4354 11.3041 10.2688 11.7375 10.1813V8.025C11.25 7.8875 10.8594 7.61981 10.5656 7.22194C10.2719 6.82394 10.125 6.39163 10.125 5.925C10.125 5.32088 10.3365 4.80731 10.7593 4.38431C11.1823 3.96144 11.6959 3.75 12.3 3.75C12.9041 3.75 13.4177 3.96144 13.8407 4.38431C14.2636 4.80731 14.475 5.32088 14.475 5.925C14.475 6.39163 14.325 6.82394 14.025 7.22194C13.725 7.61981 13.3375 7.8875 12.8625 8.025V10.1813C13.2959 10.2688 13.6907 10.4354 14.047 10.6813C14.4032 10.9271 14.698 11.2583 14.9312 11.6751L16.95 10.9749V10.875C16.95 10.2709 17.1615 9.75731 17.5843 9.33431C18.0073 8.91144 18.5209 8.7 19.125 8.7C19.7291 8.7 20.2427 8.91144 20.6657 9.33431C21.0886 9.75731 21.3 10.2709 21.3 10.875C21.3 11.4791 21.0886 11.9927 20.6657 12.4157C20.2427 12.8386 19.7291 13.05 19.125 13.05C18.725 13.05 18.3656 12.9604 18.0469 12.7813C17.7281 12.6021 17.4771 12.3562 17.2937 12.0437L15.2751 12.7251C15.3417 13.1542 15.3125 13.5719 15.1875 13.9781C15.0625 14.3844 14.8583 14.75 14.575 15.075L15.9938 16.8375C16.1313 16.775 16.2688 16.7281 16.4063 16.6969C16.5438 16.6656 16.6982 16.65 16.8696 16.65C17.4816 16.65 17.998 16.8614 18.4187 17.2843C18.8396 17.7073 19.05 18.2209 19.05 18.825C19.05 19.4291 18.8386 19.9427 18.4157 20.3657C17.9927 20.7886 17.4791 21 16.875 21C16.2709 21 15.7573 20.7886 15.3343 20.3657C14.9115 19.9427 14.7 19.4291 14.7 18.825C14.7 18.575 14.7365 18.3448 14.8093 18.1344C14.8823 17.9239 14.9834 17.7249 15.1125 17.5374L13.6937 15.7688C13.2552 16.0063 12.7873 16.125 12.2899 16.125C11.7925 16.125 11.3251 16.0063 10.8876 15.7688L9.48752 17.55C9.61664 17.7375 9.71771 17.9344 9.79071 18.1406C9.86358 18.3469 9.90002 18.575 9.90002 18.825C9.90002 19.4291 9.68858 19.9427 9.26571 20.3657C8.84271 20.7886 8.32914 21 7.72502 21ZM5.47539 11.7999C5.73764 11.7999 5.95733 11.7113 6.13446 11.5339C6.31146 11.3565 6.39996 11.1367 6.39996 10.8746C6.39996 10.6124 6.31127 10.3927 6.13389 10.2156C5.95652 10.0386 5.73677 9.95006 5.47464 9.95006C5.21239 9.95006 4.99271 10.0388 4.81558 10.2161C4.63858 10.3935 4.55008 10.6133 4.55008 10.8754C4.55008 11.1376 4.63877 11.3573 4.81614 11.5344C4.99352 11.7114 5.21327 11.7999 5.47539 11.7999ZM7.72539 19.7499C7.98764 19.7499 8.20733 19.6613 8.38446 19.4839C8.56146 19.3065 8.64996 19.0868 8.64996 18.8246C8.64996 18.5624 8.56127 18.3427 8.38389 18.1656C8.20652 17.9886 7.98677 17.9001 7.72464 17.9001C7.46239 17.9001 7.24271 17.9888 7.06558 18.1661C6.88858 18.3435 6.80008 18.5633 6.80008 18.8254C6.80008 19.0876 6.88877 19.3073 7.06614 19.4844C7.24352 19.6614 7.46327 19.7499 7.72539 19.7499ZM12.3004 6.84994C12.5626 6.84994 12.7823 6.76125 12.9595 6.58388C13.1365 6.4065 13.225 6.18675 13.225 5.92462C13.225 5.66237 13.1363 5.44269 12.9589 5.26556C12.7815 5.08856 12.5618 5.00006 12.2996 5.00006C12.0374 5.00006 11.8177 5.08875 11.6406 5.26612C11.4636 5.4435 11.3751 5.66325 11.3751 5.92538C11.3751 6.18763 11.4638 6.40731 11.6411 6.58444C11.8185 6.76144 12.0383 6.84994 12.3004 6.84994ZM12.3062 14.8749C12.7937 14.8749 13.2062 14.7041 13.5437 14.3625C13.8812 14.0209 14.05 13.6063 14.05 13.1188C14.05 12.6313 13.8808 12.2188 13.5426 11.8813C13.2042 11.5438 12.79 11.3751 12.3 11.3751C11.8166 11.3751 11.4041 11.5442 11.0625 11.8824C10.7209 12.2208 10.5501 12.635 10.5501 13.125C10.5501 13.6084 10.7209 14.0209 11.0625 14.3625C11.4041 14.7041 11.8187 14.8749 12.3062 14.8749ZM16.8754 19.7499C17.1376 19.7499 17.3573 19.6613 17.5345 19.4839C17.7115 19.3065 17.8 19.0868 17.8 18.8246C17.8 18.5624 17.7113 18.3427 17.5339 18.1656C17.3565 17.9886 17.1368 17.9001 16.8746 17.9001C16.6124 17.9001 16.3927 17.9888 16.2156 18.1661C16.0386 18.3435 15.9501 18.5633 15.9501 18.8254C15.9501 19.0876 16.0388 19.3073 16.2161 19.4844C16.3935 19.6614 16.6133 19.7499 16.8754 19.7499ZM19.1254 11.7999C19.3876 11.7999 19.6073 11.7113 19.7845 11.5339C19.9615 11.3565 20.05 11.1367 20.05 10.8746C20.05 10.6124 19.9613 10.3927 19.7839 10.2156C19.6065 10.0386 19.3868 9.95006 19.1246 9.95006C18.8624 9.95006 18.6427 10.0388 18.4656 10.2161C18.2886 10.3935 18.2001 10.6133 18.2001 10.8754C18.2001 11.1376 18.2888 11.3573 18.4661 11.5344C18.6435 11.7114 18.8633 11.7999 19.1254 11.7999Z" fill="#001141"/>
</svg>
