<svg width="24" height="24" viewBox="0 0 24 24" fill="none" xmlns="http://www.w3.org/2000/svg">
<path d="M6.21429 14.6784C6.21429 14.8489 6.14656 15.0124 6.026 15.1329C5.90544 15.2535 5.74192 15.3212 5.57143 15.3212H3.64286C3.47236 15.3212 3.30885 15.2535 3.18829 15.1329C3.06773 15.0124 3 14.8489 3 14.6784C3 14.5079 3.06773 14.3444 3.18829 14.2238C3.30885 14.1032 3.47236 14.0355 3.64286 14.0355H4.28571V8.89265H3.64286C3.47236 8.89265 3.30885 8.82492 3.18829 8.70436C3.06773 8.5838 3 8.42029 3 8.24979C3 8.07929 3.06773 7.91578 3.18829 7.79522C3.30885 7.67466 3.47236 7.60693 3.64286 7.60693H4.92857C5.0374 7.60682 5.14447 7.63433 5.23976 7.6869C5.33506 7.73946 5.41544 7.81536 5.47339 7.90747L8.14286 12.1801L10.8123 7.90908C10.8701 7.81666 10.9504 7.74045 11.0457 7.6876C11.141 7.63475 11.2482 7.60699 11.3571 7.60693H12.6429C12.8134 7.60693 12.9769 7.67466 13.0974 7.79522C13.218 7.91578 13.2857 8.07929 13.2857 8.24979C13.2857 8.42029 13.218 8.5838 13.0974 8.70436C12.9769 8.82492 12.8134 8.89265 12.6429 8.89265H12V14.0355H12.6429C12.8134 14.0355 12.9769 14.1032 13.0974 14.2238C13.218 14.3444 13.2857 14.5079 13.2857 14.6784C13.2857 14.8489 13.218 15.0124 13.0974 15.1329C12.9769 15.2535 12.8134 15.3212 12.6429 15.3212H10.7143C10.5438 15.3212 10.3803 15.2535 10.2597 15.1329C10.1392 15.0124 10.0714 14.8489 10.0714 14.6784C10.0714 14.5079 10.1392 14.3444 10.2597 14.2238C10.3803 14.1032 10.5438 14.0355 10.7143 14.0355V10.491L8.68768 13.7334C8.62986 13.8257 8.54953 13.9018 8.45423 13.9546C8.35893 14.0073 8.25179 14.035 8.14286 14.035C8.03393 14.035 7.92678 14.0073 7.83148 13.9546C7.73618 13.9018 7.65586 13.8257 7.59804 13.7334L5.57143 10.491V14.0355C5.74192 14.0355 5.90544 14.1032 6.026 14.2238C6.14656 14.3444 6.21429 14.5079 6.21429 14.6784ZM15.2143 12.7498H20.3571C20.5276 12.7498 20.6912 12.6821 20.8117 12.5615C20.9323 12.4409 21 12.2774 21 12.1069C21 11.9364 20.9323 11.7729 20.8117 11.6524C20.6912 11.5318 20.5276 11.4641 20.3571 11.4641H15.2143C15.0438 11.4641 14.8803 11.5318 14.7597 11.6524C14.6392 11.7729 14.5714 11.9364 14.5714 12.1069C14.5714 12.2774 14.6392 12.4409 14.7597 12.5615C14.8803 12.6821 15.0438 12.7498 15.2143 12.7498ZM20.3571 14.0355H15.2143C15.0438 14.0355 14.8803 14.1032 14.7597 14.2238C14.6392 14.3444 14.5714 14.5079 14.5714 14.6784C14.5714 14.8489 14.6392 15.0124 14.7597 15.1329C14.8803 15.2535 15.0438 15.3212 15.2143 15.3212H20.3571C20.5276 15.3212 20.6912 15.2535 20.8117 15.1329C20.9323 15.0124 21 14.8489 21 14.6784C21 14.5079 20.9323 14.3444 20.8117 14.2238C20.6912 14.1032 20.5276 14.0355 20.3571 14.0355ZM20.3571 16.6069H8.14286C7.97236 16.6069 7.80885 16.6747 7.68829 16.7952C7.56773 16.9158 7.5 17.0793 7.5 17.2498C7.5 17.4203 7.56773 17.5838 7.68829 17.7044C7.80885 17.8249 7.97236 17.8926 8.14286 17.8926H20.3571C20.5276 17.8926 20.6912 17.8249 20.8117 17.7044C20.9323 17.5838 21 17.4203 21 17.2498C21 17.0793 20.9323 16.9158 20.8117 16.7952C20.6912 16.6747 20.5276 16.6069 20.3571 16.6069ZM20.3571 19.1784H8.14286C7.97236 19.1784 7.80885 19.2461 7.68829 19.3666C7.56773 19.4872 7.5 19.6507 7.5 19.8212C7.5 19.9917 7.56773 20.1552 7.68829 20.2758C7.80885 20.3963 7.97236 20.4641 8.14286 20.4641H20.3571C20.5276 20.4641 20.6912 20.3963 20.8117 20.2758C20.9323 20.1552 21 19.9917 21 19.8212C21 19.6507 20.9323 19.4872 20.8117 19.3666C20.6912 19.2461 20.5276 19.1784 20.3571 19.1784Z" fill="#001141"/>
<path d="M15.0153 6.18461L13.7651 7.21787M11.7378 6.46226L11.4687 4.86228M15.6443 9.91746L14.1237 9.35069M10.0705 7.83952L8.55032 7.27373" stroke="#001141" stroke-width="1.08152" stroke-linecap="round" stroke-linejoin="round"/>
</svg>
