<svg width="24" height="25" viewBox="0 0 24 25" fill="none" xmlns="http://www.w3.org/2000/svg">
<path d="M5 21.6105C4.45 21.6105 3.97917 21.4146 3.5875 21.023C3.19583 20.6313 3 20.1605 3 19.6105V5.61047C3 5.06047 3.19583 4.58964 3.5875 4.19797C3.97917 3.80631 4.45 3.61047 5 3.61047H19C19.55 3.61047 20.0208 3.80631 20.4125 4.19797C20.8042 4.58964 21 5.06047 21 5.61047V19.6105C21 20.1605 20.8042 20.6313 20.4125 21.023C20.0208 21.4146 19.55 21.6105 19 21.6105H5ZM5 19.6105H19V5.61047H5V19.6105Z" fill="#172B4D"/>
<path d="M16.6106 17.8577H7.3894L9.6947 14.784L11.4237 17.0893L13.729 14.0156L16.6106 17.8577Z" fill="#172B4D"/>
<path fill-rule="evenodd" clip-rule="evenodd" d="M10.8139 8.86608L10.3057 10.1282L9.01788 10.6256C8.97942 10.6405 8.94643 10.6664 8.92319 10.7C8.89994 10.7335 8.88751 10.7731 8.88751 10.8137C8.88751 10.8542 8.89994 10.8938 8.92319 10.9273C8.94643 10.9609 8.97942 10.9868 9.01788 11.0017L10.3057 11.4993L10.8139 12.761C10.8292 12.7987 10.8557 12.831 10.8899 12.8537C10.9241 12.8765 10.9645 12.8887 11.0059 12.8887C11.0473 12.8887 11.0877 12.8765 11.122 12.8537C11.1562 12.831 11.1827 12.7987 11.1979 12.761H11.1977L11.7056 11.4993L12.9937 11.0015C13.0321 10.9864 13.0649 10.9605 13.0881 10.927C13.1112 10.8934 13.1236 10.8539 13.1236 10.8134C13.1236 10.7729 13.1112 10.7334 13.0881 10.6998C13.0649 10.6663 13.0321 10.6404 12.9937 10.6253L11.7056 10.1282L11.1977 8.86608C11.1873 8.8403 11.1716 8.81691 11.1515 8.79735C11.1315 8.7778 11.1075 8.76251 11.0811 8.75245C11.056 8.74269 11.0291 8.73789 11.002 8.73832C10.9749 8.73875 10.9482 8.7444 10.9234 8.75495C10.8985 8.76551 10.876 8.78075 10.8572 8.79982C10.8384 8.81889 10.8236 8.84141 10.8137 8.86608H10.8139ZM13.0112 8.33943L12.8144 8.82872L12.3155 9.02148C12.2881 9.03235 12.2647 9.05096 12.2482 9.07495C12.2317 9.09894 12.2229 9.12721 12.2229 9.15613C12.2229 9.18505 12.2317 9.21332 12.2482 9.23731C12.2647 9.2613 12.2881 9.27991 12.3155 9.29078L12.8144 9.48354L13.0112 9.97283C13.0221 9.99984 13.041 10.023 13.0655 10.0394C13.09 10.0557 13.119 10.0644 13.1486 10.0644C13.1783 10.0644 13.2072 10.0557 13.2317 10.0394C13.2563 10.023 13.2752 9.99984 13.2861 9.97283L13.4834 9.48354L13.982 9.29078C14.0097 9.28021 14.0335 9.26171 14.0503 9.23768C14.067 9.21366 14.076 9.18523 14.076 9.15613C14.076 9.12703 14.067 9.0986 14.0503 9.07458C14.0335 9.05055 14.0097 9.03205 13.982 9.02148L13.4834 8.82872L13.2861 8.33969C13.2787 8.32121 13.2675 8.30443 13.2532 8.2904C13.2389 8.27638 13.2218 8.26542 13.2029 8.25823C13.1664 8.2444 13.1259 8.2452 13.09 8.26044C13.0541 8.27569 13.0258 8.30416 13.0112 8.33969V8.33943ZM12.8247 11.7129L12.6277 12.2014L12.129 12.3944C12.1101 12.4015 12.0929 12.4125 12.0785 12.4265C12.0641 12.4405 12.0528 12.4573 12.0454 12.4759C12.0311 12.5116 12.032 12.5515 12.0476 12.5867C12.0633 12.6219 12.0926 12.6496 12.129 12.6637L12.6277 12.8564L12.8247 13.3452C12.8398 13.3826 12.8698 13.4122 12.9079 13.4269C12.9444 13.4409 12.985 13.4401 13.021 13.4248C13.0569 13.4095 13.0852 13.3809 13.0996 13.3452L13.2967 12.8564L13.7953 12.6637C13.823 12.6531 13.8468 12.6346 13.8636 12.6106C13.8803 12.5866 13.8893 12.5581 13.8893 12.529C13.8893 12.4999 13.8803 12.4715 13.8636 12.4475C13.8468 12.4235 13.823 12.405 13.7953 12.3944L13.2967 12.2014L13.0996 11.7129C13.0923 11.6943 13.0811 11.6773 13.0668 11.6632C13.0524 11.6491 13.0352 11.6381 13.0162 11.6309C12.9797 11.617 12.9391 11.6179 12.9032 11.6332C12.8674 11.6486 12.8392 11.6772 12.8247 11.7129Z" fill="#172B4D"/>
</svg>
