<svg width="24" height="24" viewBox="0 0 24 24" fill="none" xmlns="http://www.w3.org/2000/svg">
<path fill-rule="evenodd" clip-rule="evenodd" d="M11 8.002V12.004C11 12.284 11.116 12.534 11.301 12.716L13.771 15.186C13.9589 15.3727 14.2131 15.4776 14.478 15.4776C14.7429 15.4776 14.9971 15.3727 15.185 15.186C15.372 14.998 15.477 14.7437 15.477 14.4785C15.477 14.2133 15.372 13.959 15.185 13.771L13 11.586V8.004C13 8.00267 13 8.00133 13 8V6C13 5.73478 12.8946 5.48043 12.7071 5.29289C12.5196 5.10536 12.2652 5 12 5C11.7348 5 11.4804 5.10536 11.2929 5.29289C11.1054 5.48043 11 5.73478 11 6V8.002ZM12 22C6.477 22 2 17.523 2 12C2 6.477 6.477 2 12 2C17.523 2 22 6.477 22 12C22 17.523 17.523 22 12 22Z" fill="#001141"/>
</svg>
