<svg width="24" height="24" viewBox="0 0 24 24" fill="none" xmlns="http://www.w3.org/2000/svg">
<path d="M7 9.998V9.99783C6.99989 9.34148 7.12909 8.69153 7.38021 8.08512C7.63134 7.4787 7.99947 6.9277 8.46359 6.46359C8.9277 5.99947 9.4787 5.63134 10.0851 5.38021C10.6915 5.12909 11.3415 4.99989 11.9978 5H11.9982C12.6545 4.99989 13.3045 5.12909 13.9109 5.38021C14.5173 5.63134 15.0683 5.99947 15.5324 6.46359C15.9965 6.9277 16.3647 7.4787 16.6158 8.08512C16.8669 8.69153 16.9961 9.34148 16.996 9.99783V9.998C16.996 10.7995 16.5651 11.7128 16.0243 12.5106C15.7658 12.8919 15.5057 13.2127 15.3103 13.4377C15.2131 13.5497 15.1332 13.6366 15.079 13.694C15.052 13.7226 15.0315 13.7438 15.0187 13.7569L15.0053 13.7705L15.0043 13.7715L15.004 13.7718L15.0037 13.7721L15.0036 13.7722L15.0034 13.7724C15.0034 13.7724 15.0033 13.7725 15.0033 13.7725C14.6975 14.076 14.4565 14.4684 14.2917 14.8421C14.141 15.1839 14.0169 15.5946 14 16C13.9993 16 13.9987 16 13.998 16H9.998C9.99734 16 9.99668 16 9.99604 16C9.97914 15.5946 9.85497 15.1839 9.70425 14.8421C9.53946 14.4683 9.29835 14.0758 8.99237 13.7722L8.99226 13.7721L8.992 13.7718L8.99168 13.7715L8.99066 13.7705L8.9773 13.7569C8.96446 13.7438 8.94399 13.7226 8.91696 13.694C8.86285 13.6366 8.78287 13.5497 8.68566 13.4377C8.4903 13.2127 8.23022 12.8919 7.97172 12.5106C7.43089 11.7128 7 10.7995 7 9.998ZM9.963 19H13.963V19.003H9.963V19Z" stroke="#001141" stroke-width="2"/>
</svg>
