<svg width="24" height="25" viewBox="0 0 24 25" fill="none" xmlns="http://www.w3.org/2000/svg">
<path fill-rule="evenodd" clip-rule="evenodd" d="M9.68317 5.75037L7.92011 10.22L3.45229 11.9813C3.31886 12.0342 3.2044 12.126 3.12376 12.2448C3.04312 12.3635 3 12.5038 3 12.6473C3 12.7909 3.04312 12.9311 3.12376 13.0499C3.2044 13.1687 3.31886 13.2605 3.45229 13.3134L7.92011 15.0756L9.68317 19.5434C9.73612 19.6768 9.82793 19.7913 9.94669 19.8719C10.0655 19.9526 10.2057 19.9957 10.3493 19.9957C10.4928 19.9957 10.6331 19.9526 10.7518 19.8719C10.8706 19.7913 10.9624 19.6768 11.0153 19.5434H11.0144L12.7766 15.0756L17.2453 13.3125C17.3784 13.2592 17.4924 13.1673 17.5728 13.0485C17.6531 12.9298 17.696 12.7898 17.696 12.6464C17.696 12.5031 17.6531 12.363 17.5728 12.2443C17.4924 12.1256 17.3784 12.0336 17.2453 11.9803L12.7766 10.22L11.0144 5.75037C10.9784 5.65908 10.9239 5.57622 10.8543 5.50698C10.7847 5.43773 10.7016 5.3836 10.6102 5.34796C10.5228 5.3134 10.4295 5.2964 10.3356 5.29792C10.2417 5.29944 10.149 5.31946 10.0628 5.35683C9.97663 5.39421 9.89866 5.4482 9.83336 5.51572C9.76806 5.58325 9.71672 5.66299 9.68225 5.75037H9.68317ZM17.3059 3.88533L16.6233 5.61807L14.8924 6.30069C14.7975 6.33917 14.7162 6.4051 14.659 6.49005C14.6017 6.57499 14.5712 6.67509 14.5712 6.77752C14.5712 6.87995 14.6017 6.98005 14.659 7.06499C14.7162 7.14994 14.7975 7.21587 14.8924 7.25435L16.6233 7.93697L17.3059 9.66971C17.3437 9.76536 17.4094 9.84745 17.4944 9.90529C17.5795 9.96314 17.6799 9.99407 17.7828 9.99407C17.8856 9.99407 17.9861 9.96314 18.0711 9.90529C18.1561 9.84745 18.2218 9.76536 18.2596 9.66971L18.9441 7.93697L20.674 7.25435C20.7701 7.21693 20.8526 7.1514 20.9107 7.06632C20.9689 6.98124 21 6.88058 21 6.77752C21 6.67446 20.9689 6.5738 20.9107 6.48872C20.8526 6.40364 20.7701 6.33811 20.674 6.30069L18.9441 5.61807L18.2596 3.88625C18.2341 3.82081 18.1953 3.76138 18.1456 3.71172C18.096 3.66206 18.0366 3.62326 17.9711 3.59777C17.8446 3.54881 17.7039 3.55164 17.5794 3.60562C17.4549 3.65961 17.3567 3.76041 17.3059 3.88625V3.88533ZM16.6592 15.8317L15.9756 17.5617L14.2456 18.2452C14.1799 18.2705 14.1201 18.3093 14.0701 18.3589C14.0202 18.4086 13.981 18.4681 13.9553 18.5337C13.906 18.6604 13.9088 18.8015 13.9632 18.9262C14.0176 19.0508 14.1191 19.1489 14.2456 19.1989L15.9756 19.8815L16.6592 21.6124C16.7115 21.7447 16.8153 21.8494 16.9476 21.9018C17.0743 21.9512 17.2153 21.9485 17.3399 21.8943C17.4645 21.84 17.5626 21.7387 17.6128 21.6124L18.2963 19.8815L20.0263 19.1989C20.1224 19.1614 20.2049 19.0959 20.263 19.0108C20.3212 18.9258 20.3523 18.8251 20.3523 18.722C20.3523 18.619 20.3212 18.5183 20.263 18.4332C20.2049 18.3482 20.1224 18.2826 20.0263 18.2452L18.2963 17.5617L17.6128 15.8317C17.5875 15.7658 17.5486 15.7059 17.4988 15.6559C17.449 15.6059 17.3892 15.5669 17.3234 15.5414C17.1968 15.4923 17.0559 15.4953 16.9315 15.5497C16.807 15.6041 16.7091 15.7054 16.6592 15.8317Z" fill="url(#paint0_linear_1666_4663)"/>
<defs>
<linearGradient id="paint0_linear_1666_4663" x1="3" y1="12.75" x2="21" y2="12.75" gradientUnits="userSpaceOnUse">
<stop stop-color="#FEB967"/>
<stop offset="0.295" stop-color="#FF5F0B"/>
<stop offset="0.655" stop-color="#FF5780"/>
<stop offset="0.955" stop-color="#C4B5FD"/>
</linearGradient>
</defs>
</svg>
