<svg width="19" height="18" viewBox="0 0 19 18" fill="none" xmlns="http://www.w3.org/2000/svg">
<path fill-rule="evenodd" clip-rule="evenodd" d="M2.42395 2H16.434C17.536 2 18.429 2.895 18.429 3.994V16.006C18.429 16.2679 18.3773 16.5273 18.2771 16.7693C18.1768 17.0113 18.0298 17.2312 17.8446 17.4163C17.6593 17.6015 17.4394 17.7484 17.1973 17.8485C16.9553 17.9487 16.6959 18.0001 16.434 18H2.42395C1.89502 18 1.38774 17.7899 1.01363 17.416C0.639524 17.0421 0.42922 16.5349 0.428955 16.006V3.994C0.428955 2.893 1.32095 2 2.42395 2ZM2.42896 6V15C2.42896 15.2652 2.53431 15.5196 2.72185 15.7071C2.90938 15.8946 3.16374 16 3.42896 16H15.429C15.6942 16 15.9485 15.8946 16.1361 15.7071C16.3236 15.5196 16.429 15.2652 16.429 15V6H2.42896ZM3.42896 1C3.42896 0.734784 3.53431 0.48043 3.72185 0.292893C3.90938 0.105357 4.16374 0 4.42896 0C4.69417 0 4.94853 0.105357 5.13606 0.292893C5.3236 0.48043 5.42896 0.734784 5.42896 1V2H3.42896V1ZM13.429 1C13.429 0.734784 13.5343 0.48043 13.7218 0.292893C13.9094 0.105357 14.1637 0 14.429 0C14.6942 0 14.9485 0.105357 15.1361 0.292893C15.3236 0.48043 15.429 0.734784 15.429 1V2H13.429V1ZM4.42896 10V7.999H6.42896V10H4.42896ZM12.429 10V7.999H14.429V10H12.429ZM8.42896 10V7.999H10.43V10H8.42896ZM4.42896 14V12H6.42896V14H4.42896ZM8.42896 14V12H10.43V14H8.42896ZM12.429 14V12H14.429V14H12.429Z" fill="#172B4D"/>
</svg>
