<svg width="16" height="17" viewBox="0 0 16 17" fill="none" xmlns="http://www.w3.org/2000/svg">
<path fill-rule="evenodd" clip-rule="evenodd" d="M3.33 4.18416H12.67C13.4047 4.18416 14 4.78083 14 5.5135V13.5215C14 13.6961 13.9656 13.869 13.8987 14.0304C13.8319 14.1917 13.7339 14.3383 13.6104 14.4617C13.4869 14.5852 13.3403 14.6831 13.1789 14.7498C13.0176 14.8166 12.8446 14.8509 12.67 14.8508H3.33C2.97738 14.8508 2.63919 14.7108 2.38978 14.4615C2.14038 14.2122 2.00018 13.8741 2 13.5215V5.5135C2 4.7795 2.59467 4.18416 3.33 4.18416ZM3.33333 6.85083V12.8508C3.33333 13.0276 3.40357 13.1972 3.5286 13.3222C3.65362 13.4473 3.82319 13.5175 4 13.5175H12C12.1768 13.5175 12.3464 13.4473 12.4714 13.3222C12.5964 13.1972 12.6667 13.0276 12.6667 12.8508V6.85083H3.33333ZM4 3.5175C4 3.34069 4.07024 3.17112 4.19526 3.04609C4.32029 2.92107 4.48986 2.85083 4.66667 2.85083C4.84348 2.85083 5.01305 2.92107 5.13807 3.04609C5.2631 3.17112 5.33333 3.34069 5.33333 3.5175V4.18416H4V3.5175ZM10.6667 3.5175C10.6667 3.34069 10.7369 3.17112 10.8619 3.04609C10.987 2.92107 11.1565 2.85083 11.3333 2.85083C11.5101 2.85083 11.6797 2.92107 11.8047 3.04609C11.9298 3.17112 12 3.34069 12 3.5175V4.18416H10.6667V3.5175ZM4.66667 9.5175V8.1835H6V9.5175H4.66667ZM10 9.5175V8.1835H11.3333V9.5175H10ZM7.33333 9.5175V8.1835H8.66733V9.5175H7.33333ZM4.66667 12.1842V10.8508H6V12.1842H4.66667ZM7.33333 12.1842V10.8508H8.66733V12.1842H7.33333ZM10 12.1842V10.8508H11.3333V12.1842H10Z" fill="white"/>
</svg>
