<svg width="24" height="24" viewBox="0 0 24 24" fill="none" xmlns="http://www.w3.org/2000/svg">
<g clip-path="url(#clip0_2612_51365)">
<path d="M16.2188 5.62317H20.7286L15.5156 0.410156V4.92005C15.5156 5.30798 15.8315 5.62317 16.2188 5.62317Z" fill="#EC4A0A"/>
<path d="M16.2188 7.03125C15.0556 7.03125 14.1094 6.08503 14.1094 4.92188V0H4.96875C3.80559 0 2.85938 0.946219 2.85938 2.10938V9.9375H21.1406V7.03125H16.2188Z" fill="#EC4A0A"/>
<path d="M21.8906 11.3438H2.10938C0.946219 11.3438 0 12.29 0 13.4531V21.8906C0 23.0538 0.946219 24 2.10938 24H21.8906C23.0538 24 24 23.0538 24 21.8906V13.4531C24 12.29 23.0538 11.3438 21.8906 11.3438ZM6.375 19.7812C6.76228 19.7812 7.07812 19.4661 7.07812 19.0781C7.07812 18.6895 7.39261 18.375 7.78125 18.375C8.16989 18.375 8.48438 18.6895 8.48438 19.0781C8.48438 20.2413 7.53816 21.1875 6.375 21.1875C5.21184 21.1875 4.26562 20.2413 4.26562 19.0781V16.2656C4.26562 15.1025 5.21184 14.1562 6.375 14.1562C7.53816 14.1562 8.48438 15.1025 8.48438 16.2656C8.48438 16.6543 8.16989 16.9688 7.78125 16.9688C7.39261 16.9688 7.07812 16.6543 7.07812 16.2656C7.07812 15.8777 6.76228 15.5625 6.375 15.5625C5.98772 15.5625 5.67188 15.8777 5.67188 16.2656V19.0781C5.67188 19.4661 5.98772 19.7812 6.375 19.7812ZM12 21.1875C11.4356 21.1875 10.9055 20.9678 10.5072 20.5688C10.2339 20.2942 10.2339 19.8486 10.5086 19.5746C10.7832 19.3013 11.2296 19.2999 11.5042 19.5759C11.908 19.9811 12.7031 19.6549 12.7031 19.0781C12.7031 18.6902 12.3873 18.375 12 18.375C10.8368 18.375 9.89062 17.4288 9.89062 16.2656C9.89062 15.1025 10.8368 14.1562 12 14.1562C12.5644 14.1562 13.0945 14.376 13.4928 14.7749C13.7661 15.0495 13.7661 15.4952 13.4914 15.7692C13.2168 16.0425 12.7704 16.0438 12.4958 15.7678C12.0934 15.3627 11.2969 15.6888 11.2969 16.2656C11.2969 16.6536 11.6127 16.9688 12 16.9688C13.1632 16.9688 14.1094 17.915 14.1094 19.0781C14.1094 20.2413 13.1632 21.1875 12 21.1875ZM19.7138 15.0297L18.3075 20.6547C18.2293 20.9677 17.9477 21.1875 17.625 21.1875C17.3023 21.1875 17.0207 20.9677 16.9425 20.6547L15.5362 15.0297C15.4428 14.6534 15.6708 14.2716 16.0485 14.1775C16.4179 14.078 16.8065 14.3114 16.9012 14.6891L17.625 17.5853L18.3487 14.6891C18.4421 14.3121 18.8197 14.0793 19.2015 14.1775C19.5792 14.2716 19.8072 14.6534 19.7138 15.0297Z" fill="#EC4A0A"/>
</g>
<defs>
<clipPath id="clip0_2612_51365">
<rect width="24" height="24" fill="white"/>
</clipPath>
</defs>
</svg>
