<svg width="24" height="24" viewBox="0 0 24 24" fill="none" xmlns="http://www.w3.org/2000/svg">
<g clip-path="url(#clip0_2612_51352)">
<rect width="24" height="24" rx="8" fill="#EC4A0A"/>
<path d="M12 24C18.6274 24 24 18.6274 24 12C24 5.37258 18.6274 0 12 0C5.37258 0 0 5.37258 0 12C0 18.6274 5.37258 24 12 24Z" fill="#EC4A0A"/>
<path d="M19.1699 12.967V17.9144H16.3016V13.2986C16.3016 12.1396 15.8874 11.3482 14.8489 11.3482C14.0563 11.3482 13.5855 11.881 13.3776 12.397C13.3021 12.5814 13.2826 12.8374 13.2826 13.096V17.9142H10.4141C10.4141 17.9142 10.4526 10.0966 10.4141 9.28734H13.2828V10.5098C13.2771 10.5195 13.2689 10.5289 13.2638 10.5381H13.2828V10.5098C13.664 9.9233 14.3438 9.08477 15.868 9.08477C17.7551 9.08477 19.1699 10.3178 19.1699 12.967ZM7.41332 5.12891C6.43211 5.12891 5.79016 5.77299 5.79016 6.61923C5.79016 7.44749 6.4135 8.11019 7.37567 8.11019H7.39428C8.39475 8.11019 9.0168 7.44749 9.0168 6.61923C8.99776 5.77299 8.39475 5.12891 7.41332 5.12891ZM5.96065 17.9144H8.82813V9.28734H5.96065V17.9144Z" fill="#ffffff"/>
</g>
<defs>
<clipPath id="clip0_2612_51352">
<rect width="24" height="24" rx="8" fill="white"/>
</clipPath>
</defs>
</svg>
