<svg width="16" height="17" viewBox="0 0 16 17" fill="none" xmlns="http://www.w3.org/2000/svg">
<g clip-path="url(#clip0_520_45501)">
<path d="M8 0.5C3.58862 0.5 0 4.08862 0 8.5C0 12.9114 3.58862 16.5 8 16.5C12.4114 16.5 16 12.9114 16 8.5C16 4.08862 12.4114 0.5 8 0.5Z" fill="#32D583"/>
<path d="M12.0542 6.80469L7.72083 11.1379C7.59082 11.2679 7.42017 11.3334 7.24951 11.3334C7.07886 11.3334 6.9082 11.2679 6.7782 11.1379L4.61157 8.97131C4.35083 8.71069 4.35083 8.28931 4.61157 8.02869C4.87219 7.76794 5.29346 7.76794 5.5542 8.02869L7.24951 9.724L11.1116 5.86206C11.3722 5.60132 11.7935 5.60132 12.0542 5.86206C12.3148 6.12268 12.3148 6.54395 12.0542 6.80469Z" fill="#FAFAFA"/>
</g>
<defs>
<clipPath id="clip0_520_45501">
<rect width="16" height="16" fill="white" transform="translate(0 0.5)"/>
</clipPath>
</defs>
</svg>
