<svg width="24" height="24" viewBox="0 0 24 24" fill="none" xmlns="http://www.w3.org/2000/svg">
<path d="M12.0004 10.5861L6.70741 5.29308C6.5188 5.11092 6.2662 5.01013 6.00401 5.01241C5.74181 5.01469 5.491 5.11985 5.30559 5.30526C5.12018 5.49067 5.01501 5.74148 5.01273 6.00368C5.01045 6.26588 5.11125 6.51848 5.29341 6.70708L10.5864 12.0001L5.29341 17.2931C5.11125 17.4817 5.01045 17.7343 5.01273 17.9965C5.01501 18.2587 5.12018 18.5095 5.30559 18.6949C5.491 18.8803 5.74181 18.9855 6.00401 18.9878C6.2662 18.99 6.5188 18.8892 6.70741 18.7071L12.0004 13.4141L17.2934 18.7071C17.482 18.8892 17.7346 18.99 17.9968 18.9878C18.259 18.9855 18.5098 18.8803 18.6952 18.6949C18.8806 18.5095 18.9858 18.2587 18.9881 17.9965C18.9904 17.7343 18.8896 17.4817 18.7074 17.2931L13.4144 12.0001L18.7074 6.70708C18.8029 6.61483 18.8791 6.50449 18.9315 6.38249C18.9839 6.26048 19.0115 6.12926 19.0127 5.99648C19.0138 5.8637 18.9885 5.73202 18.9382 5.60913C18.8879 5.48623 18.8137 5.37458 18.7198 5.28069C18.6259 5.18679 18.5143 5.11254 18.3914 5.06226C18.2685 5.01198 18.1368 4.98668 18.004 4.98783C17.8712 4.98898 17.74 5.01657 17.618 5.06898C17.496 5.12139 17.3857 5.19757 17.2934 5.29308L12.0004 10.5861Z" fill="#001141"/>
</svg>
