<svg width="44" height="185" viewBox="0 0 44 185" fill="none" xmlns="http://www.w3.org/2000/svg">
<g filter="url(#filter0_d_2612_51085)">
<g clip-path="url(#clip0_2612_51085)">
<mask id="path-1-inside-1_2612_51085" fill="white">
<path d="M10 182C5.58172 182 2 178.418 2 174L1.99999 9C1.99999 4.58171 5.58171 1 9.99999 1L42 0.999998L42 182L10 182Z"/>
</mask>
<path d="M10 182C5.58172 182 2 178.418 2 174L1.99999 9C1.99999 4.58171 5.58171 1 9.99999 1L42 0.999998L42 182L10 182Z" fill="#FFF6ED"/>
<path d="M20.1293 156.425L20.1293 157.976C19.7978 158.036 19.5062 158.147 19.2543 158.309C19.0024 158.471 18.7886 158.67 18.6129 158.906C18.4373 159.141 18.3047 159.404 18.2152 159.696C18.1257 159.984 18.081 160.291 18.081 160.616C18.081 161.202 18.2285 161.728 18.5234 162.192C18.8184 162.652 19.2509 163.017 19.821 163.286C20.3911 163.551 21.0871 163.683 21.9091 163.683C22.7377 163.683 23.437 163.551 24.0071 163.286C24.5772 163.017 25.008 162.651 25.2997 162.187C25.5914 161.723 25.7372 161.201 25.7372 160.621C25.7372 160.299 25.6941 159.994 25.608 159.706C25.5185 159.414 25.3875 159.151 25.2152 158.915C25.0429 158.68 24.8324 158.481 24.5838 158.319C24.3319 158.153 24.0436 158.039 23.7187 157.976L23.7237 156.425C24.2242 156.508 24.6849 156.668 25.1058 156.907C25.5234 157.142 25.8847 157.446 26.1896 157.817C26.4912 158.185 26.7249 158.606 26.8906 159.08C27.0563 159.554 27.1392 160.071 27.1392 160.631C27.1392 161.512 26.9304 162.298 26.5128 162.987C26.0919 163.677 25.4903 164.22 24.7081 164.618C23.9259 165.012 22.9929 165.21 21.9091 165.21C20.822 165.21 19.889 165.011 19.1101 164.613C18.3279 164.215 17.728 163.672 17.3104 162.982C16.8894 162.293 16.679 161.509 16.679 160.631C16.679 160.09 16.7569 159.587 16.9126 159.119C17.0651 158.649 17.2905 158.226 17.5888 157.852C17.8838 157.477 18.245 157.167 18.6726 156.922C19.0968 156.677 19.5824 156.511 20.1293 156.425ZM16.8182 153.219L27 153.219L27 154.706L16.8182 154.706L16.8182 153.219ZM27.1541 148.003C27.1541 148.719 26.9901 149.344 26.6619 149.877C26.3338 150.411 25.8748 150.825 25.2848 151.12C24.6948 151.415 24.0054 151.562 23.2166 151.562C22.4245 151.562 21.7318 151.415 21.1385 151.12C20.5452 150.825 20.0845 150.411 19.7564 149.877C19.4283 149.344 19.2642 148.719 19.2642 148.003C19.2642 147.287 19.4283 146.662 19.7564 146.129C20.0845 145.595 20.5452 145.181 21.1385 144.886C21.7318 144.591 22.4245 144.443 23.2166 144.443C24.0054 144.443 24.6948 144.591 25.2848 144.886C25.8748 145.181 26.3338 145.595 26.6619 146.129C26.9901 146.662 27.1541 147.287 27.1541 148.003ZM25.9062 147.998C25.9062 147.534 25.7836 147.149 25.5384 146.844C25.2931 146.54 24.9666 146.314 24.5589 146.168C24.1513 146.019 23.7022 145.945 23.2116 145.945C22.7244 145.945 22.277 146.019 21.8693 146.168C21.4583 146.314 21.1286 146.54 20.88 146.844C20.6314 147.149 20.5071 147.534 20.5071 147.998C20.5071 148.465 20.6314 148.853 20.88 149.161C21.1286 149.466 21.4583 149.693 21.8693 149.842C22.277 149.988 22.7244 150.061 23.2116 150.061C23.7022 150.061 24.1513 149.988 24.5589 149.842C24.9666 149.693 25.2931 149.466 25.5384 149.161C25.7836 148.853 25.9062 148.465 25.9062 147.998ZM21.228 137.062L21.4666 138.409C21.2943 138.465 21.1302 138.555 20.9744 138.677C20.8187 138.797 20.691 138.959 20.5916 139.165C20.4922 139.37 20.4425 139.627 20.4425 139.935C20.4425 140.356 20.5369 140.707 20.7259 140.989C20.9115 141.271 21.1518 141.412 21.4467 141.412C21.7019 141.412 21.9074 141.317 22.0632 141.128C22.219 140.939 22.3466 140.635 22.446 140.214L22.7244 139.001C22.8868 138.298 23.1371 137.774 23.4751 137.43C23.8132 137.085 24.2524 136.912 24.7926 136.912C25.25 136.912 25.6577 137.045 26.0156 137.31C26.3703 137.572 26.6487 137.938 26.8509 138.409C27.053 138.876 27.1541 139.418 27.1541 140.035C27.1541 140.89 26.9718 141.587 26.6072 142.128C26.2393 142.668 25.7173 142.999 25.0412 143.122L24.8224 141.685C25.197 141.596 25.4803 141.412 25.6726 141.133C25.8615 140.855 25.956 140.492 25.956 140.045C25.956 139.557 25.8549 139.168 25.6527 138.876C25.4472 138.585 25.197 138.439 24.902 138.439C24.6634 138.439 24.4628 138.528 24.3004 138.707C24.138 138.883 24.0154 139.153 23.9325 139.518L23.6491 140.81C23.4867 141.523 23.2282 142.05 22.8736 142.391C22.5189 142.729 22.0698 142.898 21.5263 142.898C21.0755 142.898 20.6811 142.772 20.343 142.52C20.005 142.269 19.7415 141.921 19.5526 141.476C19.3603 141.032 19.2642 140.523 19.2642 139.95C19.2642 139.125 19.4432 138.475 19.8011 138.001C20.1558 137.527 20.6314 137.214 21.228 137.062ZM27.1541 131.987C27.1541 132.739 26.9934 133.387 26.6719 133.931C26.3471 134.471 25.8913 134.889 25.3047 135.184C24.7147 135.475 24.0237 135.621 23.2315 135.621C22.4493 135.621 21.7599 135.475 21.1634 135.184C20.5668 134.889 20.1011 134.478 19.7663 133.951C19.4316 133.42 19.2642 132.801 19.2642 132.091C19.2642 131.66 19.3355 131.243 19.478 130.838C19.6205 130.434 19.8442 130.071 20.1491 129.75C20.4541 129.428 20.8501 129.175 21.3374 128.989C21.8213 128.803 22.4096 128.711 23.1023 128.711L23.6293 128.711L23.6293 134.781L22.5156 134.781L22.5156 130.167C22.1245 130.167 21.7782 130.247 21.4766 130.406C21.1716 130.565 20.9313 130.789 20.7557 131.077C20.58 131.362 20.4922 131.697 20.4922 132.081C20.4922 132.499 20.5949 132.864 20.8004 133.175C21.0026 133.483 21.2678 133.722 21.5959 133.891C21.9207 134.057 22.2737 134.14 22.6548 134.14L23.5249 134.14C24.0353 134.14 24.4695 134.05 24.8274 133.871C25.1854 133.689 25.4588 133.435 25.6477 133.11C25.8333 132.786 25.9261 132.406 25.9261 131.972C25.9261 131.69 25.8864 131.433 25.8068 131.201C25.724 130.969 25.6013 130.769 25.4389 130.6C25.2765 130.431 25.076 130.301 24.8374 130.212L25.0909 128.805C25.5052 128.918 25.8681 129.12 26.1797 129.412C26.4879 129.7 26.7282 130.063 26.9006 130.5C27.0696 130.935 27.1541 131.43 27.1541 131.987ZM20.1293 111.075L20.1293 112.626C19.7978 112.686 19.5062 112.797 19.2543 112.959C19.0024 113.122 18.7886 113.321 18.6129 113.556C18.4373 113.791 18.3047 114.055 18.2152 114.346C18.1257 114.635 18.081 114.941 18.081 115.266C18.081 115.853 18.2285 116.378 18.5234 116.842C18.8184 117.303 19.2509 117.667 19.821 117.936C20.3911 118.201 21.0871 118.334 21.9091 118.334C22.7377 118.334 23.437 118.201 24.0071 117.936C24.5772 117.667 25.008 117.301 25.2997 116.837C25.5914 116.373 25.7372 115.851 25.7372 115.271C25.7372 114.95 25.6941 114.645 25.608 114.356C25.5185 114.065 25.3875 113.801 25.2152 113.566C25.0428 113.331 24.8324 113.132 24.5838 112.969C24.3319 112.804 24.0436 112.689 23.7187 112.626L23.7237 111.075C24.2242 111.158 24.6849 111.319 25.1058 111.557C25.5234 111.793 25.8847 112.096 26.1896 112.467C26.4912 112.835 26.7249 113.256 26.8906 113.73C27.0563 114.204 27.1392 114.721 27.1392 115.281C27.1392 116.163 26.9304 116.948 26.5128 117.638C26.0919 118.327 25.4903 118.871 24.7081 119.268C23.9259 119.663 22.9929 119.86 21.9091 119.86C20.822 119.86 19.889 119.661 19.1101 119.263C18.3279 118.866 17.728 118.322 17.3104 117.633C16.8894 116.943 16.679 116.159 16.679 115.281C16.679 114.741 16.7569 114.237 16.9126 113.77C17.0651 113.299 17.2905 112.876 17.5888 112.502C17.8838 112.127 18.245 111.818 18.6726 111.572C19.0968 111.327 19.5824 111.161 20.1293 111.075ZM27.169 107.134C27.169 107.618 27.0795 108.055 26.9006 108.446C26.7183 108.837 26.4548 109.147 26.1101 109.376C25.7654 109.601 25.3428 109.714 24.8423 109.714C24.4115 109.714 24.0568 109.631 23.7784 109.466C23.5 109.3 23.2796 109.076 23.1172 108.794C22.9548 108.513 22.8321 108.198 22.7493 107.85C22.6664 107.502 22.6035 107.147 22.5604 106.786C22.5073 106.328 22.4642 105.957 22.4311 105.672C22.3946 105.387 22.3366 105.18 22.2571 105.051C22.1776 104.922 22.0483 104.857 21.8693 104.857L21.8345 104.857C21.4003 104.857 21.0639 104.98 20.8253 105.225C20.5866 105.467 20.4673 105.828 20.4673 106.309C20.4673 106.809 20.5784 107.203 20.8004 107.492C21.0192 107.777 21.2628 107.974 21.5312 108.083L21.2131 109.48C20.7491 109.315 20.3745 109.073 20.0895 108.755C19.8011 108.433 19.5923 108.064 19.4631 107.646C19.3305 107.228 19.2642 106.789 19.2642 106.328C19.2642 106.024 19.3007 105.7 19.3736 105.359C19.4432 105.014 19.5724 104.693 19.7614 104.395C19.9503 104.093 20.2204 103.846 20.5717 103.654C20.9197 103.462 21.3722 103.365 21.929 103.365L27 103.365L27 104.817L25.956 104.817L25.956 104.877C26.1482 104.973 26.3371 105.117 26.5227 105.309C26.7083 105.502 26.8625 105.748 26.9851 106.05C27.1077 106.352 27.169 106.713 27.169 107.134ZM25.9758 106.811C25.9758 106.4 25.8946 106.048 25.7322 105.757C25.5698 105.462 25.3577 105.238 25.0959 105.086C24.8307 104.93 24.5473 104.852 24.2457 104.852L23.2614 104.852C23.3144 104.905 23.3641 105.008 23.4105 105.16C23.4536 105.309 23.4917 105.48 23.5249 105.672C23.5547 105.864 23.5829 106.052 23.6094 106.234C23.6326 106.416 23.6525 106.569 23.669 106.691C23.7055 106.98 23.7668 107.243 23.853 107.482C23.9392 107.717 24.0634 107.906 24.2258 108.049C24.3849 108.188 24.5971 108.257 24.8622 108.257C25.2301 108.257 25.5085 108.122 25.6974 107.85C25.883 107.578 25.9758 107.232 25.9758 106.811ZM27 101.385L19.3636 101.385L19.3636 99.9586L20.6065 99.9586L20.6065 99.8642C20.1856 99.7051 19.8575 99.4449 19.6222 99.0836C19.3835 98.7224 19.2642 98.2898 19.2642 97.786C19.2642 97.2756 19.3835 96.8481 19.6222 96.5034C19.8608 96.1554 20.1889 95.8985 20.6065 95.7328L20.6065 95.6532C20.1989 95.4709 19.874 95.1809 19.6321 94.7832C19.3868 94.3855 19.2642 93.9115 19.2642 93.3613C19.2642 92.6686 19.4813 92.1035 19.9155 91.666C20.3497 91.2252 21.0043 91.0048 21.8793 91.0048L27 91.0048L27 92.4913L22.0185 92.4913C21.5014 92.4913 21.1269 92.6322 20.8949 92.9139C20.6629 93.1956 20.5469 93.532 20.5469 93.9231C20.5469 94.407 20.696 94.7832 20.9943 95.0517C21.2893 95.3201 21.6688 95.4544 22.1328 95.4544L27 95.4544L27 96.9359L21.924 96.9359C21.5097 96.9359 21.1766 97.0652 20.9247 97.3237C20.6728 97.5822 20.5469 97.9186 20.5469 98.3329C20.5469 98.6146 20.6214 98.8748 20.7706 99.1135C20.9164 99.3488 21.1203 99.5394 21.3821 99.6852C21.6439 99.8277 21.9472 99.899 22.2919 99.899L27 99.899L27 101.385ZM29.8636 89.0124L19.3636 89.0124L19.3636 87.5607L20.6016 87.5607L20.6016 87.4364C20.4425 87.3503 20.2585 87.226 20.0497 87.0636C19.8409 86.9012 19.6586 86.6758 19.5028 86.3874C19.3437 86.0991 19.2642 85.7179 19.2642 85.244C19.2642 84.6275 19.42 84.0773 19.7315 83.5934C20.0431 83.1095 20.4922 82.73 21.0788 82.4549C21.6655 82.1765 22.3714 82.0373 23.1967 82.0373C24.022 82.0373 24.7296 82.1748 25.3196 82.4499C25.9062 82.725 26.3587 83.1029 26.6768 83.5835C26.9917 84.064 27.1491 84.6126 27.1491 85.229C27.1491 85.6931 27.0713 86.0726 26.9155 86.3675C26.7597 86.6592 26.5774 86.8879 26.3686 87.0536C26.1598 87.2193 25.9742 87.3469 25.8118 87.4364L25.8118 87.5259L29.8636 87.5259L29.8636 89.0124ZM23.1818 87.5558C23.7187 87.5558 24.1894 87.4779 24.5937 87.3221C24.9981 87.1663 25.3146 86.9409 25.5433 86.646C25.7687 86.351 25.8814 85.9897 25.8814 85.5621C25.8814 85.118 25.7637 84.7468 25.5284 84.4485C25.2898 84.1502 24.9666 83.9248 24.5589 83.7724C24.1513 83.6166 23.6922 83.5387 23.1818 83.5387C22.678 83.5387 22.2256 83.6149 21.8246 83.7674C21.4235 83.9165 21.107 84.1419 20.875 84.4435C20.643 84.7418 20.527 85.1147 20.527 85.5621C20.527 85.993 20.638 86.3576 20.8601 86.6559C21.0821 86.9509 21.392 87.1746 21.7898 87.3271C22.1875 87.4795 22.6515 87.5558 23.1818 87.5558ZM27.169 78.1495C27.169 78.6334 27.0795 79.0709 26.9006 79.462C26.7183 79.8531 26.4548 80.163 26.1101 80.3917C25.7654 80.6171 25.3428 80.7298 24.8423 80.7298C24.4115 80.7298 24.0568 80.6469 23.7784 80.4812C23.5 80.3155 23.2796 80.0917 23.1172 79.81C22.9548 79.5283 22.8321 79.2134 22.7493 78.8654C22.6664 78.5174 22.6035 78.1628 22.5604 77.8015C22.5073 77.3441 22.4642 76.9729 22.4311 76.6879C22.3946 76.4028 22.3366 76.1957 22.2571 76.0664C22.1776 75.9371 22.0483 75.8725 21.8693 75.8725L21.8345 75.8725C21.4003 75.8725 21.0639 75.9951 20.8253 76.2404C20.5866 76.4824 20.4673 76.8436 20.4673 77.3242C20.4673 77.8247 20.5784 78.2191 20.8004 78.5075C21.0192 78.7925 21.2628 78.9897 21.5312 79.0991L21.2131 80.4961C20.749 80.3304 20.3745 80.0884 20.0895 79.7702C19.8011 79.4487 19.5923 79.0792 19.4631 78.6616C19.3305 78.244 19.2642 77.8048 19.2642 77.3441C19.2642 77.0392 19.3007 76.716 19.3736 76.3746C19.4432 76.0299 19.5724 75.7085 19.7614 75.4102C19.9503 75.1085 20.2204 74.8616 20.5717 74.6694C20.9197 74.4772 21.3722 74.381 21.929 74.381L27 74.381L27 75.8327L25.956 75.8327L25.956 75.8924C26.1482 75.9885 26.3371 76.1327 26.5227 76.3249C26.7083 76.5172 26.8624 76.7641 26.9851 77.0657C27.1077 77.3673 27.169 77.7286 27.169 78.1495ZM25.9758 77.8263C25.9758 77.4154 25.8946 77.064 25.7322 76.7724C25.5698 76.4774 25.3577 76.2537 25.0959 76.1012C24.8307 75.9454 24.5473 75.8675 24.2457 75.8675L23.2614 75.8675C23.3144 75.9206 23.3641 76.0233 23.4105 76.1758C23.4536 76.3249 23.4917 76.4956 23.5249 76.6879C23.5547 76.8801 23.5829 77.0674 23.6094 77.2496C23.6326 77.4319 23.6525 77.5844 23.669 77.707C23.7055 77.9954 23.7668 78.2589 23.853 78.4975C23.9392 78.7328 24.0634 78.9218 24.2258 79.0643C24.3849 79.2035 24.5971 79.2731 24.8622 79.2731C25.2301 79.2731 25.5085 79.1372 25.6974 78.8654C25.883 78.5936 25.9758 78.2473 25.9758 77.8263ZM27 72.4011L19.3636 72.4011L19.3636 70.9146L27 70.9146L27 72.4011ZM18.1854 71.6504C18.1854 71.9089 18.0992 72.131 17.9268 72.3166C17.7512 72.4989 17.5424 72.59 17.3004 72.59C17.0552 72.59 16.8463 72.4989 16.674 72.3166C16.4983 72.131 16.4105 71.9089 16.4105 71.6504C16.4105 71.3919 16.4983 71.1715 16.674 70.9892C16.8463 70.8036 17.0552 70.7108 17.3004 70.7108C17.5424 70.7108 17.7512 70.8036 17.9268 70.9892C18.0992 71.1715 18.1854 71.3919 18.1854 71.6504ZM30.0227 65.7131C30.0227 66.3196 29.9432 66.8416 29.7841 67.2791C29.625 67.7133 29.4145 68.0679 29.1527 68.343C28.8909 68.6181 28.6042 68.8236 28.2926 68.9595L27.7656 67.6818C27.9115 67.5923 28.0656 67.473 28.228 67.3239C28.3937 67.1714 28.5346 66.9659 28.6506 66.7074C28.7666 66.4455 28.8246 66.1091 28.8246 65.6982C28.8246 65.1347 28.687 64.669 28.4119 64.3011C28.1401 63.9332 27.706 63.7493 27.1094 63.7493L25.608 63.7493L25.608 63.8437C25.7704 63.9332 25.951 64.0625 26.1499 64.2315C26.3487 64.3973 26.5211 64.6259 26.6669 64.9176C26.8127 65.2093 26.8856 65.5888 26.8856 66.0561C26.8856 66.6593 26.7448 67.2029 26.4631 67.6868C26.178 68.1674 25.7588 68.5485 25.2053 68.8303C24.6484 69.1087 23.964 69.2479 23.152 69.2479C22.34 69.2479 21.6439 69.1103 21.0639 68.8352C20.4839 68.5568 20.0398 68.1757 19.7315 67.6918C19.42 67.2079 19.2642 66.6593 19.2642 66.0462C19.2642 65.5722 19.3437 65.1894 19.5028 64.8977C19.6586 64.6061 19.8409 64.379 20.0497 64.2166C20.2585 64.0509 20.4425 63.9233 20.6016 63.8338L20.6016 63.7244L19.3636 63.7244L19.3636 62.2678L27.169 62.2678C27.8253 62.2678 28.3639 62.4202 28.7848 62.7251C29.2057 63.0301 29.5173 63.4427 29.7195 63.9631C29.9216 64.4801 30.0227 65.0634 30.0227 65.7131ZM25.6527 65.728C25.6527 65.3004 25.5533 64.9392 25.3544 64.6442C25.1522 64.3459 24.8639 64.1205 24.4893 63.968C24.1115 63.8123 23.6591 63.7344 23.1321 63.7344C22.6184 63.7344 22.166 63.8106 21.7749 63.9631C21.3838 64.1155 21.0788 64.3393 20.8601 64.6342C20.638 64.9292 20.527 65.2938 20.527 65.728C20.527 66.1754 20.643 66.5483 20.875 66.8466C21.1037 67.1449 21.4152 67.3703 21.8097 67.5227C22.2041 67.6719 22.6449 67.7464 23.1321 67.7464C23.6326 67.7464 24.0717 67.6702 24.4496 67.5178C24.8274 67.3653 25.1224 67.1399 25.3345 66.8416C25.5466 66.54 25.6527 66.1688 25.6527 65.728ZM22.4659 58.7876L27 58.7876L27 60.2741L19.3636 60.2741L19.3636 58.8473L20.6065 58.8473L20.6065 58.7528C20.2022 58.5772 19.8774 58.3021 19.6321 57.9276C19.3868 57.5497 19.2642 57.0741 19.2642 56.5007C19.2642 55.9803 19.3736 55.5246 19.5923 55.1335C19.8078 54.7424 20.1293 54.4392 20.5568 54.2237C20.9844 54.0083 21.513 53.9006 22.1428 53.9006L27 53.9006L27 55.3871L22.3217 55.3871C21.7682 55.3871 21.3357 55.5312 21.0241 55.8196C20.7093 56.108 20.5518 56.504 20.5518 57.0078C20.5518 57.3525 20.6264 57.6591 20.7756 57.9276C20.9247 58.1927 21.1435 58.4032 21.4318 58.5589C21.7169 58.7114 22.0615 58.7876 22.4659 58.7876ZM21.228 46.1847L21.4666 47.532C21.2943 47.5883 21.1302 47.6778 20.9744 47.8004C20.8186 47.9197 20.691 48.0821 20.5916 48.2876C20.4922 48.4931 20.4425 48.75 20.4425 49.0582C20.4425 49.4792 20.5369 49.8305 20.7258 50.1122C20.9115 50.3939 21.1517 50.5348 21.4467 50.5348C21.7019 50.5348 21.9074 50.4403 22.0632 50.2514C22.219 50.0625 22.3466 49.7576 22.446 49.3366L22.7244 48.1236C22.8868 47.4209 23.1371 46.8973 23.4751 46.5526C23.8132 46.2079 24.2524 46.0355 24.7926 46.0355C25.25 46.0355 25.6577 46.1681 26.0156 46.4332C26.3703 46.6951 26.6487 47.0613 26.8508 47.532C27.053 47.9993 27.1541 48.5412 27.1541 49.1577C27.1541 50.0128 26.9718 50.7105 26.6072 51.2507C26.2393 51.791 25.7173 52.1224 25.0412 52.245L24.8224 50.8082C25.197 50.7187 25.4803 50.5348 25.6726 50.2564C25.8615 49.978 25.956 49.6151 25.956 49.1676C25.956 48.6804 25.8549 48.291 25.6527 47.9993C25.4472 47.7076 25.197 47.5618 24.902 47.5618C24.6633 47.5618 24.4628 47.6513 24.3004 47.8303C24.138 48.0059 24.0154 48.276 23.9325 48.6406L23.6491 49.9332C23.4867 50.6458 23.2282 51.1728 22.8736 51.5142C22.5189 51.8523 22.0698 52.0213 21.5263 52.0213C21.0755 52.0213 20.6811 51.8954 20.343 51.6435C20.005 51.3916 19.7415 51.0436 19.5526 50.5994C19.3603 50.1553 19.2642 49.6465 19.2642 49.0732C19.2642 48.2479 19.4432 47.5982 19.8011 47.1243C20.1558 46.6503 20.6314 46.3371 21.228 46.1847Z" fill="#C4320A"/>
<path d="M22.8333 31.168L27 27.0013L22.8333 22.8346M17 31.168L21.1667 27.0013L17 22.8346" stroke="#C4320A" stroke-width="1.66667" stroke-linecap="round" stroke-linejoin="round"/>
</g>
<path d="M10 183C5.02944 183 1 178.971 1 174L0.999992 9C0.999992 4.02943 5.02943 -1.32421e-07 9.99999 -3.49691e-07L9.99999 2C6.134 2 2.99999 5.134 2.99999 9L3 174C3 177.866 6.13401 181 10 181L10 183ZM42 0.999998L42 182L42 0.999998ZM42 183L10 183C5.02944 183 1 178.971 1 174L3 174C3 177.866 6.13401 181 10 181L42 181L42 183ZM0.999992 9C0.999992 4.02943 5.02943 -1.32421e-07 9.99999 -3.49691e-07L42 -1.74846e-06L42 2L9.99999 2C6.134 2 2.99999 5.134 2.99999 9L0.999992 9Z" fill="#C4320A" mask="url(#path-1-inside-1_2612_51085)"/>
</g>
<defs>
<filter id="filter0_d_2612_51085" x="0" y="0" width="44" height="185" filterUnits="userSpaceOnUse" color-interpolation-filters="sRGB">
<feFlood flood-opacity="0" result="BackgroundImageFix"/>
<feColorMatrix in="SourceAlpha" type="matrix" values="0 0 0 0 0 0 0 0 0 0 0 0 0 0 0 0 0 0 127 0" result="hardAlpha"/>
<feOffset dy="1"/>
<feGaussianBlur stdDeviation="1"/>
<feColorMatrix type="matrix" values="0 0 0 0 0.0627451 0 0 0 0 0.0941176 0 0 0 0 0.156863 0 0 0 0.05 0"/>
<feBlend mode="normal" in2="BackgroundImageFix" result="effect1_dropShadow_2612_51085"/>
<feBlend mode="normal" in="SourceGraphic" in2="effect1_dropShadow_2612_51085" result="shape"/>
</filter>
<clipPath id="clip0_2612_51085">
<path d="M10 182C5.58172 182 2 178.418 2 174L1.99999 9C1.99999 4.58171 5.58171 1 9.99999 1L42 0.999998L42 182L10 182Z" fill="white"/>
</clipPath>
</defs>
</svg>
