<svg width="80" height="80" viewBox="0 0 80 80" fill="none" xmlns="http://www.w3.org/2000/svg">
<path d="M0 10C0 4.47715 4.47715 0 10 0H70C75.5228 0 80 4.47715 80 10V70C80 75.5228 75.5228 80 70 80H10C4.47715 80 0 75.5228 0 70V10Z" fill="#091E42" fill-opacity="0.4902"/>
<g clip-path="url(#clip0_270_1355)">
<path d="M40 36.465L26.7675 23.2325C26.296 22.7771 25.6645 22.5251 25.009 22.5308C24.3535 22.5365 23.7265 22.7994 23.263 23.2629C22.7995 23.7264 22.5366 24.3535 22.5309 25.009C22.5252 25.6644 22.7771 26.296 23.2325 26.7675L36.465 40L23.2325 53.2325C22.7771 53.704 22.5252 54.3355 22.5309 54.991C22.5366 55.6465 22.7995 56.2735 23.263 56.737C23.7265 57.2005 24.3535 57.4634 25.009 57.4691C25.6645 57.4748 26.296 57.2229 26.7675 56.7675L40 43.535L53.2325 56.7675C53.704 57.2229 54.3356 57.4748 54.991 57.4691C55.6465 57.4634 56.2736 57.2005 56.7371 56.737C57.2006 56.2735 57.4635 55.6465 57.4692 54.991C57.4749 54.3355 57.2229 53.704 56.7675 53.2325L43.535 40L56.7675 26.7675C57.0063 26.5368 57.1968 26.261 57.3278 25.956C57.4588 25.651 57.5278 25.3229 57.5307 24.991C57.5336 24.659 57.4703 24.3298 57.3446 24.0226C57.2189 23.7153 57.0333 23.4362 56.7985 23.2015C56.5638 22.9667 56.2847 22.7811 55.9774 22.6554C55.6702 22.5297 55.341 22.4664 55.009 22.4693C54.6771 22.4722 54.349 22.5412 54.044 22.6722C53.739 22.8032 53.4632 22.9937 53.2325 23.2325L40 36.465Z" fill="white"/>
</g>
<defs>
<clipPath id="clip0_270_1355">
<rect width="60" height="60" fill="white" transform="translate(10 10)"/>
</clipPath>
</defs>
</svg>
