<svg width="32" height="32" viewBox="0 0 32 32" fill="none" xmlns="http://www.w3.org/2000/svg">
<g clip-path="url(#clip0_193_23084)">
<rect width="32" height="32" rx="5.33333" fill="#F05A28"/>
<rect width="18.6667" height="16" fill="#F09828"/>
<rect width="10.6667" height="5.33333" fill="#F0C228"/>
<rect y="21.3333" width="10.6667" height="10.6667" fill="#F07828"/>
<path d="M8.62726 23.9247H4.11526V7.84465H8.62726V23.9247ZM18.4444 24.1647C14.7484 24.1647 12.7084 21.7887 12.7084 17.8767C12.7084 13.9407 14.7004 11.5887 18.2524 11.5887C21.1084 11.5887 22.4524 12.9327 22.8124 14.9487H23.0524V7.84465H27.5644V23.9247H23.3404V20.6607H23.1004C22.7164 23.0607 21.2764 24.1647 18.4444 24.1647ZM17.2684 17.8767C17.2684 19.4847 17.9884 20.0367 20.0764 20.0367C22.0924 20.0367 23.0524 19.6527 23.0524 17.9007V17.7327C23.0524 16.0287 22.0924 15.6927 20.0764 15.6927C17.9884 15.6927 17.2684 16.2687 17.2684 17.8767Z" fill="#000053"/>
<rect x="14.6667" y="23" width="5.33333" height="9" fill="#F05A28"/>
</g>
<defs>
<clipPath id="clip0_193_23084">
<rect width="32" height="32" rx="5.33333" fill="white"/>
</clipPath>
</defs>
</svg>
