<svg width="15" height="15" viewBox="0 0 15 15" fill="none" xmlns="http://www.w3.org/2000/svg">
<path d="M5.09538 3.99984C5.73971 3.99984 6.26204 3.4775 6.26204 2.83317C6.26204 2.18884 5.73971 1.6665 5.09538 1.6665C4.45105 1.6665 3.92871 2.18884 3.92871 2.83317C3.92871 3.4775 4.45105 3.99984 5.09538 3.99984Z" fill="#475467"/>
<path d="M5.09538 8.66683C5.73971 8.66683 6.26204 8.14449 6.26204 7.50016C6.26204 6.85583 5.73971 6.3335 5.09538 6.3335C4.45105 6.3335 3.92871 6.85583 3.92871 7.50016C3.92871 8.14449 4.45105 8.66683 5.09538 8.66683Z" fill="#475467"/>
<path d="M5.09538 13.3333C5.73971 13.3333 6.26204 12.811 6.26204 12.1667C6.26204 11.5223 5.73971 11 5.09538 11C4.45105 11 3.92871 11.5223 3.92871 12.1667C3.92871 12.811 4.45105 13.3333 5.09538 13.3333Z" fill="#475467"/>
<path d="M9.76237 3.99984C10.4067 3.99984 10.929 3.4775 10.929 2.83317C10.929 2.18884 10.4067 1.6665 9.76237 1.6665C9.11804 1.6665 8.5957 2.18884 8.5957 2.83317C8.5957 3.4775 9.11804 3.99984 9.76237 3.99984Z" fill="#475467"/>
<path d="M9.76237 8.66683C10.4067 8.66683 10.929 8.14449 10.929 7.50016C10.929 6.85583 10.4067 6.3335 9.76237 6.3335C9.11804 6.3335 8.5957 6.85583 8.5957 7.50016C8.5957 8.14449 9.11804 8.66683 9.76237 8.66683Z" fill="#475467"/>
<path d="M9.76237 13.3333C10.4067 13.3333 10.929 12.811 10.929 12.1667C10.929 11.5223 10.4067 11 9.76237 11C9.11804 11 8.5957 11.5223 8.5957 12.1667C8.5957 12.811 9.11804 13.3333 9.76237 13.3333Z" fill="#475467"/>
</svg>
