<svg width="20" height="20" viewBox="0 0 20 20" fill="none" xmlns="http://www.w3.org/2000/svg">
<path d="M6.66667 5.00033C7.58714 5.00033 8.33333 4.25413 8.33333 3.33366C8.33333 2.41318 7.58714 1.66699 6.66667 1.66699C5.74619 1.66699 5 2.41318 5 3.33366C5 4.25413 5.74619 5.00033 6.66667 5.00033Z" fill="#98A2B3"/>
<path d="M6.66667 11.6663C7.58714 11.6663 8.33333 10.9201 8.33333 9.99967C8.33333 9.0792 7.58714 8.33301 6.66667 8.33301C5.74619 8.33301 5 9.0792 5 9.99967C5 10.9201 5.74619 11.6663 6.66667 11.6663Z" fill="#98A2B3"/>
<path d="M6.66667 18.3333C7.58714 18.3333 8.33333 17.5871 8.33333 16.6667C8.33333 15.7462 7.58714 15 6.66667 15C5.74619 15 5 15.7462 5 16.6667C5 17.5871 5.74619 18.3333 6.66667 18.3333Z" fill="#98A2B3"/>
<path d="M13.3337 5.00033C14.2541 5.00033 15.0003 4.25413 15.0003 3.33366C15.0003 2.41318 14.2541 1.66699 13.3337 1.66699C12.4132 1.66699 11.667 2.41318 11.667 3.33366C11.667 4.25413 12.4132 5.00033 13.3337 5.00033Z" fill="#98A2B3"/>
<path d="M13.3337 11.6663C14.2541 11.6663 15.0003 10.9201 15.0003 9.99967C15.0003 9.0792 14.2541 8.33301 13.3337 8.33301C12.4132 8.33301 11.667 9.0792 11.667 9.99967C11.667 10.9201 12.4132 11.6663 13.3337 11.6663Z" fill="#98A2B3"/>
<path d="M13.3337 18.3333C14.2541 18.3333 15.0003 17.5871 15.0003 16.6667C15.0003 15.7462 14.2541 15 13.3337 15C12.4132 15 11.667 15.7462 11.667 16.6667C11.667 17.5871 12.4132 18.3333 13.3337 18.3333Z" fill="#98A2B3"/>
</svg>
