<svg width="16" height="17" viewBox="0 0 16 17" fill="none" xmlns="http://www.w3.org/2000/svg">
<g clip-path="url(#clip0_193_2675)">
<path fill-rule="evenodd" clip-rule="evenodd" d="M2.68001 13.6709C2.65793 13.7788 2.66298 13.8906 2.6947 13.9962C2.72642 14.1018 2.78382 14.1978 2.86177 14.2758C2.93971 14.3537 3.03576 14.4111 3.14133 14.4428C3.2469 14.4745 3.35868 14.4796 3.46667 14.4575L6.00668 13.9375L3.20001 11.1309L2.68001 13.6709ZM13.2293 5.32219L11.816 3.90752C11.6921 3.78357 11.5449 3.68532 11.3829 3.61839C11.2209 3.55146 11.0473 3.51718 10.872 3.51752C10.5307 3.51752 10.1893 3.64752 9.92867 3.90752L3.42401 10.4129L6.72401 13.7129L13.2287 7.20752C13.4786 6.95748 13.6191 6.61841 13.6191 6.26485C13.6191 5.9113 13.4786 5.57222 13.2287 5.32219H13.2293Z" fill="#172B4D"/>
</g>
<defs>
<clipPath id="clip0_193_2675">
<rect width="16" height="16" fill="white" transform="translate(0 0.85083)"/>
</clipPath>
</defs>
</svg>
