<svg width="16" height="16" viewBox="0 0 16 16" fill="none" xmlns="http://www.w3.org/2000/svg">
<path fill-rule="evenodd" clip-rule="evenodd" d="M0.0211603 14.8312C-0.0110835 14.9889 -0.00370849 15.1522 0.0426249 15.3064C0.0889583 15.4606 0.172804 15.6009 0.286658 15.7148C0.400511 15.8286 0.540818 15.9125 0.695021 15.9588C0.849223 16.0051 1.01251 16.0125 1.17026 15.9803L4.88049 15.2207L0.780735 11.1209L0.0211603 14.8312ZM15.4308 2.63612L13.3663 0.569684C13.1853 0.388632 12.9703 0.245108 12.7336 0.147347C12.497 0.0495871 12.2434 -0.000485167 11.9874 3.54314e-06C11.4888 3.54314e-06 10.9902 0.189897 10.6094 0.569684L1.10794 10.0722L5.92831 14.8925L15.4298 5.39006C15.7949 5.02482 16 4.52953 16 4.01309C16 3.49665 15.7949 3.00135 15.4298 2.63612H15.4308Z" fill="#172B4D"/>
</svg>
