<svg width="18" height="17" viewBox="0 0 18 17" fill="none" xmlns="http://www.w3.org/2000/svg">
<path fill-rule="evenodd" clip-rule="evenodd" d="M9.76623 0.315824C10.0092 0.4165 10.2299 0.56406 10.4159 0.750074L16.5839 6.91707C16.77 7.10301 16.9177 7.32382 17.0185 7.56687C17.1192 7.80993 17.1711 8.07046 17.1711 8.33357C17.1711 8.59669 17.1192 8.85722 17.0185 9.10028C16.9177 9.34333 16.77 9.56414 16.5839 9.75007L10.4159 15.9171C10.2299 16.1031 10.0092 16.2507 9.76623 16.3513C9.52327 16.452 9.26285 16.5038 8.99986 16.5038C8.73686 16.5038 8.47645 16.452 8.23348 16.3513C7.99052 16.2507 7.76977 16.1031 7.58386 15.9171L1.41586 9.75007C1.22969 9.56414 1.08201 9.34333 0.981243 9.10028C0.880478 8.85722 0.828613 8.59669 0.828613 8.33357C0.828613 8.07046 0.880478 7.80993 0.981243 7.56687C1.08201 7.32382 1.22969 7.10301 1.41586 6.91707L7.58386 0.750074C7.76977 0.56406 7.99052 0.4165 8.23348 0.315824C8.47645 0.215148 8.73686 0.16333 8.99986 0.16333C9.26285 0.16333 9.52327 0.215148 9.76623 0.315824ZM8.29275 10.0402C8.48028 10.2277 8.73464 10.3331 8.99986 10.3331C9.26507 10.3331 9.51943 10.2277 9.70696 10.0402C9.8945 9.85264 9.99986 9.59829 9.99986 9.33307V4.33307C9.99986 4.06785 9.8945 3.8135 9.70696 3.62596C9.51943 3.43843 9.26507 3.33307 8.99986 3.33307C8.73464 3.33307 8.48028 3.43843 8.29275 3.62596C8.10521 3.8135 7.99986 4.06785 7.99986 4.33307V9.33307C7.99986 9.59829 8.10521 9.85264 8.29275 10.0402ZM8.29275 13.0402C8.48028 13.2277 8.73464 13.3331 8.99986 13.3331C9.26507 13.3331 9.51943 13.2277 9.70696 13.0402C9.8945 12.8526 9.99986 12.5983 9.99986 12.3331C9.99986 12.0679 9.8945 11.8135 9.70696 11.626C9.51943 11.4384 9.26507 11.3331 8.99986 11.3331C8.73464 11.3331 8.48028 11.4384 8.29275 11.626C8.10521 11.8135 7.99986 12.0679 7.99986 12.3331C7.99986 12.5983 8.10521 12.8526 8.29275 13.0402Z" fill="#C9372C"/>
</svg>
