<svg width="15" height="19" viewBox="0 0 15 19" fill="none" xmlns="http://www.w3.org/2000/svg">
<path d="M8.5176 3.79637V13.3054C8.5176 13.5706 8.41225 13.8249 8.22471 14.0125C8.03717 14.2 7.78282 14.3054 7.5176 14.3054C7.25239 14.3054 6.99803 14.2 6.8105 14.0125C6.62296 13.8249 6.5176 13.5706 6.5176 13.3054V3.79637L5.3016 5.00237C5.10485 5.19694 4.83931 5.30606 4.5626 5.30606C4.2859 5.30606 4.02035 5.19694 3.8236 5.00237C3.72658 4.90665 3.64954 4.7926 3.59696 4.66685C3.54437 4.54111 3.5173 4.40617 3.5173 4.26987C3.5173 4.13357 3.54437 3.99864 3.59696 3.87289C3.64954 3.74714 3.72658 3.6331 3.8236 3.53737L6.7786 0.608372C6.97535 0.413809 7.2409 0.304688 7.5176 0.304688C7.79431 0.304688 8.05985 0.413809 8.2566 0.608372L11.2116 3.53837C11.6196 3.94237 11.6196 4.59837 11.2116 5.00237C11.0149 5.19694 10.7493 5.30606 10.4726 5.30606C10.1959 5.30606 9.93035 5.19694 9.7336 5.00237L8.5176 3.79537V3.79637ZM4.5176 6.30537V8.30537H2.5176C2.5156 8.30537 2.5176 16.2964 2.5176 16.2964C2.5176 16.3004 12.5116 16.3054 12.5116 16.3054C12.5146 16.3054 12.5176 8.31437 12.5176 8.31437C12.5176 8.30837 10.5176 8.30537 10.5176 8.30537V6.30537H12.5176C13.6226 6.30537 14.5176 7.20737 14.5176 8.31437V16.2964C14.5176 17.4064 13.6206 18.3054 12.5116 18.3054H2.5236C1.9913 18.3046 1.48108 18.0926 1.10496 17.7159C0.728852 17.3392 0.517603 16.8287 0.517603 16.2964V8.31537C0.516286 8.05189 0.567045 7.79074 0.666964 7.54693C0.766884 7.30313 0.913994 7.08147 1.09984 6.89469C1.28569 6.70791 1.50661 6.5597 1.74992 6.45856C1.99322 6.35743 2.25412 6.30537 2.5176 6.30537H4.5176Z" fill="#172B4D"/>
</svg>
