<svg width="13" height="13" viewBox="0 0 13 13" fill="none" xmlns="http://www.w3.org/2000/svg">
<path d="M1.44678 4.12368C1.44678 3.1942 1.44678 2.72945 1.62767 2.37444C1.78678 2.06216 2.04067 1.80827 2.35295 1.64915C2.70797 1.46826 3.17271 1.46826 4.1022 1.46826H8.74918C9.67866 1.46826 10.1434 1.46826 10.4984 1.64915C10.8107 1.80827 11.0646 2.06216 11.2237 2.37444C11.4046 2.72945 11.4046 3.1942 11.4046 4.12368V7.11102C11.4046 8.04051 11.4046 8.50525 11.2237 8.86027C11.0646 9.17255 10.8107 9.42644 10.4984 9.58555C10.1434 9.76644 9.67866 9.76644 8.74918 9.76644H7.35716C7.01192 9.76644 6.83931 9.76644 6.6742 9.80033C6.52771 9.83039 6.38596 9.88011 6.2528 9.94815C6.1027 10.0248 5.96791 10.1327 5.69833 10.3483L4.37867 11.4041C4.14848 11.5882 4.03339 11.6803 3.93653 11.6804C3.85229 11.6805 3.7726 11.6422 3.72005 11.5763C3.65963 11.5006 3.65963 11.3532 3.65963 11.0585V9.76644C3.14515 9.76644 2.88792 9.76644 2.67687 9.70989C2.10414 9.55643 1.65679 9.10908 1.50333 8.53635C1.44678 8.3253 1.44678 8.06807 1.44678 7.55359V4.12368Z" stroke="#98A2B3" stroke-width="1.5" stroke-linecap="round" stroke-linejoin="round"/>
</svg>
