<svg width="13" height="13" viewBox="0 0 13 13" fill="none" xmlns="http://www.w3.org/2000/svg">
<path d="M4.14936 11.9793V5.89395M1.3833 7.00037V10.8729C1.3833 11.4839 1.87866 11.9793 2.48972 11.9793H9.91729C10.7364 11.9793 11.4331 11.3816 11.5576 10.572L12.1534 6.69952C12.3081 5.69418 11.5302 4.78752 10.5131 4.78752H8.57506C8.26953 4.78752 8.02185 4.53984 8.02185 4.23431V2.27917C8.02185 1.52578 7.4111 0.915039 6.65771 0.915039C6.47802 0.915039 6.31518 1.02087 6.24219 1.18507L4.29538 5.56542C4.20658 5.7652 4.00847 5.89395 3.78984 5.89395H2.48972C1.87866 5.89395 1.3833 6.38931 1.3833 7.00037Z" stroke="#98A2B3" stroke-width="1.5" stroke-linecap="round" stroke-linejoin="round"/>
</svg>
