<svg width="14" height="13" viewBox="0 0 14 13" fill="none" xmlns="http://www.w3.org/2000/svg">
<path d="M6.38272 0.915039L8.04235 2.57468M8.04235 2.57468L6.38272 4.23431M8.04235 2.57468H4.05923C3.12974 2.57468 2.665 2.57468 2.30999 2.75556C1.99771 2.91468 1.74381 3.16857 1.5847 3.48085C1.40381 3.83587 1.40381 4.30061 1.40381 5.23009V8.3834C1.40381 8.64033 1.40381 8.76879 1.41801 8.87663C1.51605 9.62137 2.10208 10.2074 2.84682 10.3054C2.95467 10.3196 3.08313 10.3196 3.34005 10.3196M5.82951 10.3196H9.81263C10.7421 10.3196 11.2069 10.3196 11.5619 10.1388C11.8742 9.97964 12.128 9.72575 12.2872 9.41347C12.4681 9.05845 12.4681 8.59371 12.4681 7.66423V4.51092C12.4681 4.25399 12.4681 4.12553 12.4539 4.01769C12.3558 3.27295 11.7698 2.68692 11.025 2.58887C10.9172 2.57468 10.7887 2.57468 10.5318 2.57468M5.82951 10.3196L7.48914 11.9793M5.82951 10.3196L7.48914 8.66001" stroke="#98A2B3" stroke-width="1.5" stroke-linecap="round" stroke-linejoin="round"/>
</svg>
