<svg width="13" height="13" viewBox="0 0 13 13" fill="none" xmlns="http://www.w3.org/2000/svg">
<path d="M4.55925 7.28251L8.33769 9.48429M8.33216 3.41003L4.55925 5.61181M11.4246 2.57468C11.4246 3.49127 10.6816 4.23431 9.76498 4.23431C8.84839 4.23431 8.10534 3.49127 8.10534 2.57468C8.10534 1.65808 8.84839 0.915039 9.76498 0.915039C10.6816 0.915039 11.4246 1.65808 11.4246 2.57468ZM4.78607 6.44716C4.78607 7.36375 4.04302 8.1068 3.12643 8.1068C2.20984 8.1068 1.4668 7.36375 1.4668 6.44716C1.4668 5.53057 2.20984 4.78752 3.12643 4.78752C4.04302 4.78752 4.78607 5.53057 4.78607 6.44716ZM11.4246 10.3196C11.4246 11.2362 10.6816 11.9793 9.76498 11.9793C8.84839 11.9793 8.10534 11.2362 8.10534 10.3196C8.10534 9.40305 8.84839 8.66001 9.76498 8.66001C10.6816 8.66001 11.4246 9.40305 11.4246 10.3196Z" stroke="#98A2B3" stroke-width="1.5" stroke-linecap="round" stroke-linejoin="round"/>
</svg>
