<svg width="10" height="12" viewBox="0 0 10 12" fill="none" xmlns="http://www.w3.org/2000/svg">
<path d="M5.85742 1.13473V3.2C5.85742 3.48003 5.85742 3.62004 5.91192 3.727C5.95986 3.82108 6.03635 3.89757 6.13043 3.9455C6.23738 4 6.3774 4 6.65742 4H8.72269M8.85742 4.99411V8.6C8.85742 9.44008 8.85742 9.86012 8.69393 10.181C8.55012 10.4632 8.32065 10.6927 8.03841 10.8365C7.71754 11 7.2975 11 6.45742 11H3.25742C2.41734 11 1.9973 11 1.67644 10.8365C1.39419 10.6927 1.16472 10.4632 1.02091 10.181C0.857422 9.86012 0.857422 9.44008 0.857422 8.6V3.4C0.857422 2.55992 0.857422 2.13988 1.02091 1.81901C1.16472 1.53677 1.39419 1.3073 1.67644 1.16349C1.9973 1 2.41734 1 3.25742 1H4.86331C5.2302 1 5.41364 1 5.58627 1.04145C5.73932 1.07819 5.88564 1.1388 6.01985 1.22104C6.17122 1.3138 6.30094 1.44352 6.56037 1.70294L8.15448 3.29706C8.41391 3.55648 8.54362 3.6862 8.63638 3.83757C8.71863 3.97178 8.77923 4.1181 8.81598 4.27115C8.85742 4.44378 8.85742 4.62723 8.85742 4.99411Z" stroke="#344054" stroke-width="1.2" stroke-linecap="round" stroke-linejoin="round"/>
</svg>
