<svg width="502" height="409" viewBox="0 0 502 409" fill="none" xmlns="http://www.w3.org/2000/svg">
<g clip-path="url(#clip0_217_14327)">
<path d="M462.375 0.666504H12.9562C10.1706 0.666504 7.91248 2.92465 7.91248 5.7102V346.257C7.91248 349.042 10.1706 351.3 12.9562 351.3H462.375C465.161 351.3 467.419 349.042 467.419 346.257V5.7102C467.419 2.92465 465.161 0.666504 462.375 0.666504Z" fill="white"/>
<rect x="192.362" y="118.848" width="88" height="88" rx="44" fill="#D1FADF"/>
<rect x="192.362" y="118.848" width="88" height="88" rx="44" stroke="#ECFDF3" stroke-width="15.7143"/>
<path d="M228.112 162.848L233.612 168.348L244.612 157.348M254.695 162.848C254.695 172.973 246.487 181.181 236.362 181.181C226.236 181.181 218.028 172.973 218.028 162.848C218.028 152.723 226.236 144.515 236.362 144.515C246.487 144.515 254.695 152.723 254.695 162.848Z" stroke="#039855" stroke-width="3.14286" stroke-linecap="round" stroke-linejoin="round"/>
<path d="M12.9562 0.666504H462.375C465.158 0.666504 467.419 2.92776 467.419 5.7102V31.7105H7.91248V5.7102C7.91248 2.92776 10.1737 0.666504 12.9562 0.666504Z" fill="#33BA79"/>
<path d="M449.975 21.9634C453.164 21.9634 455.75 19.3778 455.75 16.1884C455.75 12.9989 453.164 10.4133 449.975 10.4133C446.786 10.4133 444.2 12.9989 444.2 16.1884C444.2 19.3778 446.786 21.9634 449.975 21.9634Z" fill="#FF5329"/>
<path d="M428.329 21.9634C431.519 21.9634 434.104 19.3778 434.104 16.1884C434.104 12.9989 431.519 10.4133 428.329 10.4133C425.14 10.4133 422.554 12.9989 422.554 16.1884C422.554 19.3778 425.14 21.9634 428.329 21.9634Z" fill="#E2F0FB"/>
<path d="M406.681 21.9634C409.87 21.9634 412.456 19.3778 412.456 16.1884C412.456 12.9989 409.87 10.4133 406.681 10.4133C403.491 10.4133 400.906 12.9989 400.906 16.1884C400.906 19.3778 403.491 21.9634 406.681 21.9634Z" fill="white"/>
<path d="M237.664 118.848C226.707 118.848 217.826 127.729 217.826 138.686V148.412H224.946V138.619C224.946 131.592 230.641 125.896 237.669 125.896C244.696 125.896 250.391 131.592 250.391 138.619V148.412H257.511V138.686C257.511 127.729 248.63 118.848 237.673 118.848H237.664Z" fill="#039855"/>
<path d="M261.648 148.412H213.683C212.188 148.412 210.976 149.624 210.976 151.119V188.48C210.976 189.975 212.188 191.187 213.683 191.187H261.648C263.143 191.187 264.355 189.975 264.355 188.48V151.119C264.355 149.624 263.143 148.412 261.648 148.412Z" fill="#039855"/>
<path d="M244.095 165.737C244.095 162.03 240.96 159.055 237.194 159.319C233.995 159.546 231.423 162.156 231.238 165.355C231.091 167.902 232.431 170.151 234.466 171.319V177.094C234.466 178.86 235.895 180.289 237.66 180.289C239.425 180.289 240.854 178.86 240.854 177.094V171.319C242.788 170.21 244.095 168.125 244.095 165.737Z" fill="white"/>
<path d="M163.191 281.819H170.071C171.66 281.819 172.849 282.164 173.644 282.849C174.438 283.534 174.833 284.488 174.833 285.715C174.833 286.4 174.732 286.968 174.53 287.422C174.329 287.872 174.093 288.237 173.824 288.51C173.555 288.788 173.291 288.985 173.026 289.107C172.761 289.229 172.572 289.309 172.45 289.351V289.393C172.664 289.418 172.895 289.486 173.148 289.595C173.396 289.704 173.627 289.872 173.845 290.108C174.06 290.343 174.24 290.65 174.379 291.024C174.522 291.402 174.589 291.873 174.589 292.436C174.589 293.285 174.652 294.054 174.783 294.748C174.909 295.441 175.11 295.933 175.379 296.231H172.677C172.488 295.92 172.378 295.58 172.345 295.202C172.311 294.823 172.294 294.462 172.294 294.113C172.294 293.453 172.252 292.886 172.173 292.407C172.093 291.928 171.946 291.532 171.727 291.217C171.513 290.902 171.218 290.671 170.849 290.519C170.479 290.372 170.004 290.297 169.428 290.297H165.717V296.227H163.195V281.823L163.191 281.819ZM165.712 288.376H169.848C170.655 288.376 171.269 288.183 171.685 287.8C172.101 287.418 172.311 286.842 172.311 286.077C172.311 285.619 172.244 285.245 172.109 284.959C171.975 284.669 171.79 284.446 171.555 284.282C171.319 284.122 171.05 284.013 170.748 283.958C170.445 283.904 170.134 283.879 169.81 283.879H165.717V288.376H165.712Z" fill="white"/>
<path d="M178.863 291.604C178.863 292.007 178.922 292.398 179.036 292.772C179.149 293.151 179.322 293.478 179.549 293.76C179.776 294.042 180.066 294.269 180.414 294.437C180.763 294.605 181.179 294.689 181.667 294.689C182.339 294.689 182.882 294.546 183.289 294.256C183.701 293.966 184.004 293.533 184.206 292.953H186.383C186.261 293.516 186.055 294.021 185.757 294.466C185.462 294.912 185.105 295.282 184.689 295.584C184.273 295.887 183.806 296.114 183.285 296.269C182.768 296.425 182.226 296.5 181.663 296.5C180.843 296.5 180.116 296.366 179.486 296.097C178.855 295.828 178.317 295.45 177.88 294.966C177.443 294.483 177.115 293.903 176.892 293.231C176.669 292.558 176.56 291.818 176.56 291.011C176.56 290.272 176.678 289.57 176.913 288.901C177.149 288.237 177.485 287.649 177.922 287.144C178.359 286.64 178.889 286.241 179.507 285.942C180.124 285.648 180.826 285.497 181.604 285.497C182.423 285.497 183.159 285.669 183.815 286.01C184.466 286.354 185.008 286.808 185.437 287.371C185.866 287.935 186.181 288.586 186.374 289.317C186.568 290.049 186.618 290.805 186.526 291.587H178.859L178.863 291.604ZM184.231 290.091C184.206 289.729 184.126 289.376 184 289.04C183.874 288.704 183.697 288.41 183.474 288.162C183.251 287.914 182.982 287.712 182.667 287.556C182.352 287.401 181.999 287.325 181.608 287.325C181.217 287.325 180.839 287.397 180.507 287.535C180.179 287.678 179.893 287.872 179.658 288.12C179.422 288.368 179.233 288.662 179.095 288.998C178.952 289.334 178.876 289.696 178.863 290.087H184.231V290.091Z" fill="white"/>
<path d="M190.023 292.878C190.09 293.55 190.346 294.021 190.787 294.29C191.233 294.559 191.763 294.693 192.38 294.693C192.595 294.693 192.843 294.676 193.116 294.643C193.393 294.609 193.65 294.546 193.894 294.449C194.137 294.357 194.335 294.218 194.49 294.038C194.646 293.857 194.717 293.617 194.701 293.323C194.688 293.029 194.579 292.785 194.377 292.596C194.175 292.407 193.915 292.255 193.599 292.142C193.284 292.028 192.923 291.932 192.519 291.848C192.116 291.764 191.704 291.68 191.288 291.587C190.859 291.495 190.443 291.377 190.048 291.243C189.653 291.108 189.295 290.927 188.98 290.696C188.665 290.469 188.413 290.175 188.224 289.818C188.034 289.46 187.942 289.019 187.942 288.498C187.942 287.935 188.081 287.46 188.354 287.077C188.631 286.695 188.98 286.384 189.405 286.148C189.829 285.913 190.3 285.749 190.817 285.652C191.334 285.56 191.83 285.51 192.301 285.51C192.839 285.51 193.351 285.568 193.843 285.682C194.335 285.795 194.776 285.98 195.176 286.237C195.571 286.493 195.903 286.825 196.163 287.237C196.424 287.649 196.592 288.141 196.659 288.721H194.259C194.15 288.17 193.898 287.8 193.503 287.611C193.108 287.422 192.654 287.329 192.141 287.329C191.981 287.329 191.788 287.342 191.565 287.371C191.342 287.397 191.136 287.447 190.939 287.523C190.745 287.598 190.577 287.704 190.443 287.846C190.308 287.989 190.241 288.174 190.241 288.401C190.241 288.683 190.338 288.914 190.535 289.086C190.729 289.263 190.985 289.406 191.3 289.519C191.616 289.633 191.977 289.729 192.38 289.813C192.784 289.893 193.2 289.982 193.633 290.074C194.049 290.167 194.461 290.284 194.864 290.419C195.268 290.553 195.629 290.734 195.945 290.965C196.26 291.192 196.516 291.482 196.71 291.831C196.903 292.18 197.004 292.613 197.004 293.121C197.004 293.739 196.861 294.265 196.579 294.693C196.298 295.122 195.932 295.475 195.478 295.744C195.028 296.013 194.528 296.206 193.973 296.328C193.423 296.45 192.876 296.509 192.338 296.509C191.679 296.509 191.069 296.433 190.514 296.286C189.955 296.139 189.472 295.912 189.06 295.61C188.648 295.307 188.329 294.929 188.093 294.479C187.858 294.029 187.732 293.495 187.719 292.873H190.018L190.023 292.878Z" fill="white"/>
<path d="M200.551 291.604C200.551 292.007 200.61 292.398 200.724 292.772C200.837 293.151 201.009 293.478 201.236 293.76C201.463 294.042 201.753 294.269 202.102 294.437C202.451 294.605 202.867 294.689 203.355 294.689C204.027 294.689 204.569 294.546 204.977 294.256C205.389 293.966 205.692 293.533 205.893 292.953H208.071C207.949 293.516 207.743 294.021 207.444 294.466C207.15 294.912 206.793 295.282 206.377 295.584C205.961 295.887 205.494 296.114 204.973 296.269C204.456 296.425 203.914 296.5 203.351 296.5C202.531 296.5 201.804 296.366 201.173 296.097C200.543 295.828 200.005 295.45 199.568 294.966C199.131 294.483 198.803 293.903 198.58 293.231C198.357 292.558 198.248 291.818 198.248 291.011C198.248 290.272 198.366 289.57 198.601 288.901C198.836 288.237 199.173 287.649 199.61 287.144C200.047 286.64 200.577 286.241 201.194 285.942C201.812 285.648 202.514 285.497 203.292 285.497C204.111 285.497 204.847 285.669 205.503 286.01C206.154 286.354 206.696 286.808 207.125 287.371C207.554 287.935 207.869 288.586 208.062 289.317C208.256 290.049 208.306 290.805 208.214 291.587H200.547L200.551 291.604ZM205.919 290.091C205.893 289.729 205.814 289.376 205.687 289.04C205.561 288.704 205.385 288.41 205.162 288.162C204.939 287.914 204.67 287.712 204.355 287.556C204.04 287.401 203.687 287.325 203.296 287.325C202.905 287.325 202.527 287.397 202.195 287.535C201.867 287.678 201.581 287.872 201.346 288.12C201.11 288.368 200.921 288.662 200.783 288.998C200.64 289.334 200.564 289.696 200.551 290.087H205.919V290.091Z" fill="white"/>
<path d="M208.924 285.795H210.66V282.668H212.959V285.795H215.035V287.51H212.959V293.079C212.959 293.323 212.967 293.529 212.988 293.706C213.009 293.882 213.055 294.029 213.131 294.151C213.207 294.273 213.316 294.361 213.463 294.424C213.61 294.483 213.812 294.517 214.068 294.517C214.228 294.517 214.392 294.517 214.552 294.508C214.711 294.5 214.875 294.479 215.035 294.437V296.211C214.779 296.236 214.531 296.265 214.287 296.29C214.043 296.316 213.795 296.332 213.539 296.332C212.934 296.332 212.446 296.274 212.076 296.16C211.706 296.047 211.416 295.879 211.21 295.656C211 295.433 210.861 295.156 210.786 294.819C210.71 294.483 210.668 294.101 210.655 293.668V287.514H208.92V285.8L208.924 285.795Z" fill="white"/>
<path d="M222.628 281.819H228.983C230.004 281.819 230.84 281.966 231.483 282.265C232.131 282.559 232.627 282.929 232.976 283.374C233.324 283.82 233.564 284.303 233.69 284.829C233.816 285.354 233.883 285.837 233.883 286.283C233.883 286.728 233.82 287.207 233.69 287.724C233.564 288.241 233.324 288.725 232.976 289.166C232.627 289.612 232.127 289.977 231.483 290.267C230.836 290.557 230.004 290.7 228.983 290.7H225.149V296.227H222.628V281.823V281.819ZM225.149 288.637H228.84C229.121 288.637 229.411 288.594 229.706 288.515C230 288.435 230.273 288.304 230.521 288.12C230.769 287.939 230.971 287.695 231.126 287.392C231.282 287.09 231.357 286.711 231.357 286.253C231.357 285.795 231.29 285.392 231.156 285.085C231.021 284.774 230.84 284.53 230.609 284.349C230.382 284.169 230.117 284.043 229.823 283.975C229.529 283.908 229.21 283.874 228.873 283.874H225.141V288.637H225.149Z" fill="white"/>
<path d="M244.494 293.903C244.494 294.185 244.531 294.386 244.603 294.508C244.679 294.63 244.821 294.689 245.036 294.689H245.28C245.372 294.689 245.481 294.676 245.603 294.647V296.24C245.523 296.265 245.418 296.299 245.292 296.332C245.166 296.366 245.032 296.395 244.897 296.425C244.763 296.45 244.628 296.471 244.494 296.484C244.359 296.496 244.246 296.505 244.149 296.505C243.678 296.505 243.287 296.412 242.98 296.223C242.669 296.034 242.468 295.706 242.375 295.235C241.917 295.681 241.358 296 240.69 296.202C240.021 296.404 239.383 296.505 238.765 296.505C238.294 296.505 237.844 296.442 237.411 296.311C236.983 296.185 236.6 295.996 236.272 295.748C235.944 295.5 235.68 295.185 235.486 294.798C235.293 294.416 235.192 293.966 235.192 293.457C235.192 292.81 235.31 292.289 235.545 291.886C235.781 291.482 236.092 291.167 236.474 290.936C236.857 290.709 237.29 290.541 237.764 290.44C238.244 290.339 238.723 290.263 239.206 290.209C239.622 290.129 240.021 290.07 240.396 290.036C240.774 290.003 241.106 289.944 241.396 289.864C241.686 289.784 241.913 289.658 242.081 289.49C242.249 289.322 242.333 289.069 242.333 288.733C242.333 288.439 242.262 288.195 242.123 288.006C241.98 287.817 241.808 287.674 241.598 287.573C241.388 287.472 241.156 287.405 240.9 287.371C240.644 287.338 240.404 287.321 240.173 287.321C239.526 287.321 238.996 287.455 238.58 287.724C238.164 287.993 237.928 288.41 237.874 288.977H235.575C235.617 288.305 235.776 287.745 236.058 287.304C236.34 286.859 236.701 286.506 237.138 286.237C237.575 285.968 238.071 285.778 238.622 285.673C239.172 285.564 239.74 285.514 240.316 285.514C240.828 285.514 241.333 285.568 241.829 285.673C242.325 285.783 242.775 285.955 243.17 286.199C243.565 286.443 243.884 286.754 244.128 287.136C244.372 287.519 244.489 287.985 244.489 288.54V293.907L244.494 293.903ZM242.194 290.999C241.846 291.226 241.413 291.364 240.904 291.411C240.391 291.457 239.883 291.528 239.37 291.621C239.126 291.663 238.891 291.717 238.664 291.793C238.437 291.869 238.235 291.97 238.059 292.096C237.882 292.222 237.748 292.39 237.647 292.6C237.546 292.81 237.495 293.062 237.495 293.357C237.495 293.613 237.571 293.827 237.718 294.004C237.865 294.18 238.046 294.315 238.252 294.416C238.462 294.517 238.689 294.588 238.937 294.626C239.185 294.668 239.412 294.685 239.614 294.685C239.87 294.685 240.143 294.651 240.442 294.584C240.736 294.517 241.018 294.403 241.278 294.239C241.539 294.08 241.757 293.874 241.934 293.626C242.11 293.378 242.194 293.071 242.194 292.709V290.994V290.999Z" fill="white"/>
<path d="M248.711 292.878C248.779 293.55 249.035 294.021 249.476 294.29C249.922 294.559 250.452 294.693 251.069 294.693C251.284 294.693 251.532 294.676 251.805 294.643C252.082 294.609 252.339 294.546 252.583 294.449C252.826 294.357 253.024 294.218 253.179 294.038C253.335 293.857 253.406 293.617 253.39 293.323C253.377 293.029 253.268 292.785 253.066 292.596C252.864 292.407 252.604 292.255 252.288 292.142C251.973 292.028 251.612 291.932 251.208 291.848C250.805 291.764 250.393 291.68 249.977 291.587C249.548 291.495 249.132 291.377 248.737 291.243C248.342 291.108 247.984 290.927 247.669 290.696C247.354 290.469 247.102 290.175 246.913 289.818C246.723 289.46 246.631 289.019 246.631 288.498C246.631 287.935 246.77 287.46 247.043 287.077C247.32 286.695 247.669 286.384 248.094 286.148C248.518 285.913 248.989 285.749 249.506 285.652C250.023 285.56 250.519 285.51 250.99 285.51C251.528 285.51 252.04 285.568 252.532 285.682C253.024 285.795 253.465 285.98 253.864 286.237C254.26 286.493 254.592 286.825 254.852 287.237C255.113 287.649 255.281 288.141 255.348 288.721H252.948C252.839 288.17 252.587 287.8 252.192 287.611C251.797 287.422 251.343 287.329 250.83 287.329C250.67 287.329 250.477 287.342 250.254 287.371C250.031 287.397 249.825 287.447 249.628 287.523C249.434 287.598 249.266 287.704 249.132 287.846C248.997 287.989 248.93 288.174 248.93 288.401C248.93 288.683 249.027 288.914 249.224 289.086C249.418 289.263 249.674 289.406 249.989 289.519C250.304 289.633 250.666 289.729 251.069 289.813C251.473 289.893 251.889 289.982 252.322 290.074C252.738 290.167 253.15 290.284 253.553 290.419C253.957 290.553 254.318 290.734 254.634 290.965C254.949 291.192 255.205 291.482 255.399 291.831C255.592 292.18 255.693 292.613 255.693 293.121C255.693 293.739 255.55 294.265 255.268 294.693C254.987 295.122 254.621 295.475 254.167 295.744C253.717 296.013 253.217 296.206 252.662 296.328C252.112 296.45 251.565 296.509 251.027 296.509C250.368 296.509 249.758 296.433 249.203 296.286C248.644 296.139 248.161 295.912 247.749 295.61C247.337 295.307 247.018 294.929 246.782 294.479C246.547 294.029 246.421 293.495 246.408 292.873H248.707L248.711 292.878Z" fill="white"/>
<path d="M259.181 292.878C259.248 293.55 259.504 294.021 259.946 294.29C260.391 294.559 260.921 294.693 261.539 294.693C261.753 294.693 262.001 294.676 262.274 294.643C262.551 294.609 262.808 294.546 263.052 294.449C263.295 294.357 263.493 294.218 263.648 294.038C263.804 293.857 263.875 293.617 263.859 293.323C263.846 293.029 263.737 292.785 263.535 292.596C263.333 292.407 263.073 292.255 262.757 292.142C262.442 292.028 262.081 291.932 261.677 291.848C261.274 291.764 260.862 291.68 260.446 291.587C260.017 291.495 259.601 291.377 259.206 291.243C258.811 291.108 258.453 290.927 258.138 290.696C257.823 290.469 257.571 290.175 257.382 289.818C257.193 289.46 257.1 289.019 257.1 288.498C257.1 287.935 257.239 287.46 257.512 287.077C257.789 286.695 258.138 286.384 258.563 286.148C258.987 285.913 259.458 285.749 259.975 285.652C260.492 285.56 260.988 285.51 261.459 285.51C261.997 285.51 262.509 285.568 263.001 285.682C263.493 285.795 263.934 285.98 264.334 286.237C264.729 286.493 265.061 286.825 265.321 287.237C265.582 287.649 265.75 288.141 265.817 288.721H263.417C263.308 288.17 263.056 287.8 262.661 287.611C262.266 287.422 261.812 287.329 261.299 287.329C261.139 287.329 260.946 287.342 260.723 287.371C260.5 287.397 260.294 287.447 260.097 287.523C259.904 287.598 259.735 287.704 259.601 287.846C259.466 287.989 259.399 288.174 259.399 288.401C259.399 288.683 259.496 288.914 259.693 289.086C259.887 289.263 260.143 289.406 260.458 289.519C260.774 289.633 261.135 289.729 261.539 289.813C261.942 289.893 262.358 289.982 262.791 290.074C263.207 290.167 263.619 290.284 264.023 290.419C264.426 290.553 264.788 290.734 265.103 290.965C265.418 291.192 265.674 291.482 265.868 291.831C266.061 292.18 266.162 292.613 266.162 293.121C266.162 293.739 266.019 294.265 265.737 294.693C265.456 295.122 265.09 295.475 264.636 295.744C264.186 296.013 263.686 296.206 263.132 296.328C262.581 296.45 262.034 296.509 261.497 296.509C260.837 296.509 260.227 296.433 259.672 296.286C259.113 296.139 258.63 295.912 258.218 295.61C257.806 295.307 257.487 294.929 257.251 294.479C257.016 294.029 256.89 293.495 256.877 292.873H259.176L259.181 292.878Z" fill="white"/>
<path d="M266.969 285.795H269.411L271.449 293.584H271.491L273.45 285.795H275.77L277.645 293.584H277.687L279.805 285.795H282.146L278.876 296.227H276.514L274.576 288.481H274.534L272.618 296.227H270.197L266.969 285.795Z" fill="white"/>
<path d="M288.392 296.509C287.56 296.509 286.816 296.37 286.164 296.097C285.513 295.82 284.962 295.441 284.508 294.958C284.059 294.475 283.714 293.895 283.479 293.222C283.243 292.55 283.125 291.81 283.125 291.003C283.125 290.196 283.243 289.477 283.479 288.805C283.714 288.132 284.059 287.552 284.508 287.069C284.958 286.585 285.509 286.203 286.164 285.93C286.816 285.652 287.56 285.518 288.392 285.518C289.224 285.518 289.968 285.657 290.62 285.93C291.271 286.207 291.822 286.585 292.276 287.069C292.725 287.552 293.07 288.132 293.305 288.805C293.541 289.477 293.658 290.208 293.658 291.003C293.658 291.797 293.541 292.55 293.305 293.222C293.07 293.895 292.725 294.475 292.276 294.958C291.826 295.441 291.275 295.824 290.62 296.097C289.968 296.374 289.224 296.509 288.392 296.509ZM288.392 294.693C288.905 294.693 289.346 294.584 289.724 294.37C290.103 294.155 290.409 293.874 290.653 293.521C290.897 293.172 291.074 292.777 291.187 292.339C291.3 291.902 291.359 291.457 291.359 290.999C291.359 290.541 291.3 290.112 291.187 289.666C291.074 289.221 290.893 288.83 290.653 288.485C290.409 288.141 290.103 287.863 289.724 287.649C289.346 287.434 288.905 287.325 288.392 287.325C287.879 287.325 287.438 287.434 287.06 287.649C286.681 287.863 286.374 288.145 286.131 288.485C285.887 288.83 285.71 289.221 285.597 289.666C285.483 290.112 285.425 290.553 285.425 290.999C285.425 291.444 285.483 291.902 285.597 292.339C285.71 292.777 285.891 293.172 286.131 293.521C286.374 293.869 286.681 294.151 287.06 294.37C287.438 294.584 287.879 294.693 288.392 294.693Z" fill="white"/>
<path d="M295.575 285.795H297.735V287.813H297.777C297.844 287.531 297.975 287.254 298.172 286.985C298.366 286.716 298.601 286.472 298.878 286.249C299.156 286.026 299.458 285.85 299.795 285.715C300.131 285.581 300.476 285.514 300.824 285.514C301.093 285.514 301.278 285.522 301.379 285.535C301.48 285.547 301.585 285.56 301.69 285.577V287.796C301.531 287.771 301.362 287.745 301.194 287.724C301.026 287.703 300.862 287.695 300.698 287.695C300.307 287.695 299.942 287.771 299.597 287.926C299.252 288.082 298.954 288.309 298.698 288.611C298.441 288.914 298.24 289.288 298.092 289.729C297.945 290.175 297.87 290.683 297.87 291.263V296.227H295.571V285.795H295.575Z" fill="white"/>
<path d="M312.139 296.223H309.962V294.811H309.92C309.609 295.416 309.159 295.849 308.566 296.114C307.974 296.379 307.347 296.509 306.692 296.509C305.872 296.509 305.153 296.366 304.544 296.076C303.93 295.786 303.426 295.395 303.023 294.895C302.619 294.399 302.316 293.81 302.115 293.13C301.913 292.449 301.812 291.722 301.812 290.94C301.812 289.998 301.938 289.183 302.195 288.498C302.451 287.813 302.791 287.245 303.212 286.804C303.636 286.358 304.12 286.035 304.666 285.825C305.212 285.614 305.767 285.514 306.33 285.514C306.654 285.514 306.982 285.543 307.318 285.606C307.654 285.665 307.978 285.766 308.285 285.9C308.596 286.035 308.882 286.207 309.142 286.413C309.403 286.623 309.621 286.867 309.798 287.149H309.84V281.823H312.139V296.227V296.223ZM304.111 291.12C304.111 291.566 304.17 292.003 304.283 292.432C304.397 292.861 304.573 293.247 304.809 293.583C305.044 293.92 305.343 294.189 305.708 294.39C306.07 294.592 306.503 294.693 306.999 294.693C307.495 294.693 307.949 294.584 308.318 294.369C308.688 294.155 308.991 293.873 309.226 293.52C309.462 293.172 309.638 292.776 309.752 292.339C309.865 291.902 309.924 291.457 309.924 290.999C309.924 289.843 309.663 288.939 309.146 288.296C308.629 287.649 307.928 287.329 307.036 287.329C306.498 287.329 306.045 287.439 305.675 287.661C305.305 287.884 305.002 288.174 304.767 288.527C304.531 288.884 304.363 289.288 304.262 289.738C304.162 290.187 304.111 290.65 304.111 291.12Z" fill="white"/>
<path d="M43.55 252.723V234.493H50.0481C51.4664 234.493 52.6414 234.751 53.5731 235.267C54.5048 235.783 55.2021 236.489 55.665 237.386C56.1279 238.276 56.3593 239.279 56.3593 240.394C56.3593 241.516 56.1249 242.525 55.6561 243.421C55.1932 244.311 54.493 245.017 53.5553 245.539C52.6236 246.056 51.4516 246.314 50.0392 246.314H45.5706V243.982H49.79C50.6861 243.982 51.413 243.827 51.9709 243.519C52.5287 243.204 52.9382 242.777 53.1993 242.237C53.4604 241.697 53.5909 241.083 53.5909 240.394C53.5909 239.706 53.4604 239.095 53.1993 238.561C52.9382 238.026 52.5257 237.608 51.962 237.305C51.4041 237.003 50.6683 236.851 49.7544 236.851H46.3006V252.723H43.55ZM63.2269 253.026C62.3604 253.026 61.5771 252.865 60.8769 252.545C60.1766 252.218 59.6217 251.747 59.2123 251.13C58.8087 250.512 58.607 249.756 58.607 248.86C58.607 248.088 58.7553 247.453 59.052 246.955C59.3488 246.456 59.7493 246.062 60.2537 245.771C60.7582 245.48 61.3219 245.26 61.945 245.112C62.5682 244.964 63.2031 244.851 63.85 244.774C64.6689 244.679 65.3336 244.602 65.8439 244.542C66.3543 244.477 66.7252 244.373 66.9566 244.231C67.1881 244.088 67.3038 243.857 67.3038 243.537V243.474C67.3038 242.697 67.0842 242.094 66.6451 241.667C66.2119 241.24 65.565 241.026 64.7045 241.026C63.8084 241.026 63.1022 241.225 62.586 241.623C62.0756 242.014 61.7225 242.451 61.5267 242.931L59.0253 242.362C59.3221 241.531 59.7553 240.86 60.325 240.35C60.9006 239.833 61.5623 239.46 62.31 239.228C63.0577 238.991 63.844 238.872 64.6689 238.872C65.2149 238.872 65.7935 238.937 66.4047 239.068C67.0219 239.193 67.5975 239.424 68.1316 239.762C68.6716 240.101 69.1138 240.584 69.4579 241.213C69.8021 241.836 69.9742 242.646 69.9742 243.643V252.723H67.375V250.854H67.2682C67.0961 251.198 66.8379 251.536 66.4937 251.868C66.1495 252.201 65.7074 252.477 65.1674 252.696C64.6274 252.916 63.9805 253.026 63.2269 253.026ZM63.8055 250.889C64.5413 250.889 65.1704 250.744 65.6926 250.453C66.2208 250.162 66.6213 249.782 66.8943 249.314C67.1732 248.839 67.3127 248.331 67.3127 247.791V246.029C67.2177 246.124 67.0338 246.213 66.7608 246.296C66.4937 246.373 66.1881 246.441 65.8439 246.501C65.4997 246.554 65.1644 246.605 64.838 246.652C64.5117 246.694 64.2387 246.729 64.0191 246.759C63.5028 246.824 63.031 246.934 62.6038 247.088C62.1824 247.243 61.8442 247.465 61.589 247.756C61.3397 248.041 61.2151 248.42 61.2151 248.895C61.2151 249.554 61.4584 250.052 61.945 250.391C62.4317 250.723 63.0518 250.889 63.8055 250.889ZM83.765 242.388L81.3526 242.815C81.2518 242.507 81.0915 242.213 80.872 241.934C80.6583 241.655 80.3675 241.427 79.9996 241.249C79.6317 241.071 79.1718 240.982 78.6199 240.982C77.8662 240.982 77.2372 241.151 76.7327 241.489C76.2283 241.821 75.9761 242.252 75.9761 242.78C75.9761 243.237 76.1452 243.605 76.4835 243.884C76.8218 244.163 77.3677 244.391 78.1214 244.569L80.2934 245.068C81.5514 245.358 82.4891 245.806 83.1062 246.412C83.7234 247.017 84.032 247.803 84.032 248.771C84.032 249.59 83.7946 250.319 83.3199 250.96C82.8511 251.595 82.1953 252.094 81.3526 252.456C80.5159 252.818 79.5456 252.999 78.4418 252.999C76.9108 252.999 75.6616 252.672 74.6943 252.02C73.727 251.361 73.1335 250.426 72.914 249.216L75.4865 248.824C75.6467 249.495 75.9761 250.002 76.4746 250.346C76.9731 250.684 77.6229 250.854 78.424 250.854C79.2964 250.854 79.9937 250.673 80.5159 250.311C81.0381 249.943 81.2992 249.495 81.2992 248.966C81.2992 248.539 81.139 248.18 80.8185 247.889C80.504 247.599 80.0204 247.379 79.3676 247.231L77.0532 246.723C75.7773 246.432 74.8337 245.97 74.2225 245.335C73.6172 244.7 73.3145 243.896 73.3145 242.922C73.3145 242.115 73.54 241.409 73.9911 240.804C74.4421 240.198 75.0652 239.727 75.8604 239.388C76.6556 239.044 77.5665 238.872 78.5932 238.872C80.0708 238.872 81.234 239.193 82.0826 239.833C82.9312 240.468 83.492 241.32 83.765 242.388ZM97.2041 242.388L94.7917 242.815C94.6909 242.507 94.5306 242.213 94.3111 241.934C94.0974 241.655 93.8066 241.427 93.4387 241.249C93.0708 241.071 92.6109 240.982 92.059 240.982C91.3053 240.982 90.6763 241.151 90.1718 241.489C89.6674 241.821 89.4152 242.252 89.4152 242.78C89.4152 243.237 89.5843 243.605 89.9226 243.884C90.2609 244.163 90.8068 244.391 91.5605 244.569L93.7325 245.068C94.9905 245.358 95.9282 245.806 96.5454 246.412C97.1625 247.017 97.4711 247.803 97.4711 248.771C97.4711 249.59 97.2337 250.319 96.759 250.96C96.2902 251.595 95.6344 252.094 94.7917 252.456C93.955 252.818 92.9847 252.999 91.8809 252.999C90.3499 252.999 89.1007 252.672 88.1334 252.02C87.1661 251.361 86.5727 250.426 86.3531 249.216L88.9256 248.824C89.0859 249.495 89.4152 250.002 89.9137 250.346C90.4122 250.684 91.062 250.854 91.8631 250.854C92.7355 250.854 93.4328 250.673 93.955 250.311C94.4772 249.943 94.7383 249.495 94.7383 248.966C94.7383 248.539 94.5781 248.18 94.2577 247.889C93.9431 247.599 93.4595 247.379 92.8067 247.231L90.4923 246.723C89.2164 246.432 88.2728 245.97 87.6616 245.335C87.0563 244.7 86.7536 243.896 86.7536 242.922C86.7536 242.115 86.9792 241.409 87.4302 240.804C87.8812 240.198 88.5043 239.727 89.2995 239.388C90.0947 239.044 91.0056 238.872 92.0323 238.872C93.5099 238.872 94.6731 239.193 95.5217 239.833C96.3703 240.468 96.9311 241.32 97.2041 242.388ZM103.362 252.723L99.3382 239.05H102.089L104.768 249.091H104.902L107.59 239.05H110.341L113.011 249.047H113.145L115.806 239.05H118.557L114.542 252.723H111.827L109.05 242.851H108.845L106.068 252.723H103.362ZM126.426 252.999C125.144 252.999 124.025 252.705 123.07 252.118C122.114 251.53 121.373 250.708 120.844 249.652C120.316 248.596 120.052 247.361 120.052 245.949C120.052 244.531 120.316 243.29 120.844 242.228C121.373 241.166 122.114 240.341 123.07 239.753C124.025 239.166 125.144 238.872 126.426 238.872C127.707 238.872 128.826 239.166 129.781 239.753C130.737 240.341 131.479 241.166 132.007 242.228C132.535 243.29 132.799 244.531 132.799 245.949C132.799 247.361 132.535 248.596 132.007 249.652C131.479 250.708 130.737 251.53 129.781 252.118C128.826 252.705 127.707 252.999 126.426 252.999ZM126.435 250.765C127.265 250.765 127.954 250.545 128.5 250.106C129.046 249.667 129.449 249.082 129.71 248.352C129.977 247.622 130.111 246.818 130.111 245.94C130.111 245.068 129.977 244.266 129.71 243.537C129.449 242.801 129.046 242.21 128.5 241.765C127.954 241.32 127.265 241.097 126.435 241.097C125.598 241.097 124.903 241.32 124.352 241.765C123.806 242.21 123.399 242.801 123.132 243.537C122.871 244.266 122.74 245.068 122.74 245.94C122.74 246.818 122.871 247.622 123.132 248.352C123.399 249.082 123.806 249.667 124.352 250.106C124.903 250.545 125.598 250.765 126.435 250.765ZM135.77 252.723V239.05H138.343V241.222H138.485C138.734 240.486 139.173 239.908 139.802 239.486C140.437 239.059 141.155 238.845 141.957 238.845C142.123 238.845 142.319 238.851 142.544 238.863C142.776 238.875 142.957 238.89 143.087 238.908V241.454C142.98 241.424 142.79 241.391 142.517 241.356C142.244 241.314 141.971 241.293 141.698 241.293C141.069 241.293 140.509 241.427 140.016 241.694C139.529 241.955 139.144 242.32 138.859 242.789C138.574 243.252 138.432 243.78 138.432 244.373V252.723H135.77ZM150.019 252.99C148.915 252.99 147.93 252.708 147.064 252.144C146.203 251.575 145.527 250.765 145.034 249.714C144.548 248.658 144.304 247.391 144.304 245.913C144.304 244.436 144.551 243.172 145.043 242.121C145.542 241.071 146.224 240.267 147.091 239.709C147.957 239.151 148.939 238.872 150.037 238.872C150.886 238.872 151.568 239.015 152.084 239.299C152.607 239.578 153.01 239.905 153.295 240.279C153.586 240.652 153.811 240.982 153.971 241.267H154.132V234.493H156.793V252.723H154.194V250.595H153.971C153.811 250.886 153.58 251.219 153.277 251.592C152.98 251.966 152.571 252.293 152.049 252.572C151.526 252.85 150.85 252.99 150.019 252.99ZM150.607 250.72C151.372 250.72 152.019 250.518 152.547 250.115C153.081 249.705 153.485 249.139 153.758 248.415C154.037 247.691 154.176 246.848 154.176 245.887C154.176 244.937 154.04 244.106 153.767 243.394C153.494 242.682 153.093 242.127 152.565 241.729C152.037 241.332 151.384 241.133 150.607 241.133C149.806 241.133 149.138 241.341 148.604 241.756C148.07 242.172 147.666 242.738 147.393 243.456C147.126 244.174 146.993 244.984 146.993 245.887C146.993 246.8 147.129 247.622 147.402 248.352C147.675 249.082 148.079 249.661 148.613 250.088C149.153 250.509 149.817 250.72 150.607 250.72ZM182.581 240.421H179.804C179.697 239.828 179.498 239.305 179.207 238.854C178.917 238.403 178.56 238.021 178.139 237.706C177.718 237.391 177.246 237.154 176.724 236.994C176.208 236.834 175.659 236.754 175.077 236.754C174.027 236.754 173.086 237.018 172.255 237.546C171.43 238.074 170.778 238.848 170.297 239.869C169.822 240.89 169.585 242.136 169.585 243.608C169.585 245.091 169.822 246.343 170.297 247.364C170.778 248.385 171.433 249.156 172.264 249.679C173.095 250.201 174.03 250.462 175.068 250.462C175.644 250.462 176.19 250.385 176.706 250.23C177.228 250.07 177.7 249.836 178.121 249.527C178.543 249.219 178.899 248.842 179.19 248.397C179.486 247.946 179.691 247.429 179.804 246.848L182.581 246.857C182.433 247.753 182.145 248.578 181.718 249.331C181.296 250.079 180.753 250.726 180.089 251.272C179.43 251.812 178.676 252.23 177.828 252.527C176.979 252.824 176.053 252.972 175.05 252.972C173.472 252.972 172.065 252.598 170.831 251.851C169.597 251.097 168.623 250.02 167.911 248.619C167.205 247.219 166.852 245.548 166.852 243.608C166.852 241.661 167.208 239.991 167.92 238.596C168.632 237.196 169.606 236.122 170.84 235.374C172.074 234.62 173.478 234.243 175.05 234.243C176.018 234.243 176.92 234.383 177.756 234.662C178.599 234.935 179.356 235.338 180.026 235.872C180.697 236.4 181.252 237.047 181.691 237.813C182.13 238.572 182.427 239.442 182.581 240.421ZM188.32 244.605V252.723H185.659V234.493H188.285V241.276H188.454C188.774 240.54 189.264 239.955 189.923 239.522C190.581 239.089 191.442 238.872 192.504 238.872C193.442 238.872 194.261 239.065 194.961 239.451C195.667 239.836 196.213 240.412 196.599 241.178C196.99 241.937 197.186 242.887 197.186 244.026V252.723H194.525V244.347C194.525 243.344 194.267 242.566 193.75 242.014C193.234 241.457 192.516 241.178 191.596 241.178C190.967 241.178 190.403 241.311 189.905 241.578C189.412 241.845 189.024 242.237 188.739 242.753C188.46 243.264 188.32 243.881 188.32 244.605ZM204.717 253.026C203.851 253.026 203.067 252.865 202.367 252.545C201.667 252.218 201.112 251.747 200.702 251.13C200.299 250.512 200.097 249.756 200.097 248.86C200.097 248.088 200.245 247.453 200.542 246.955C200.839 246.456 201.239 246.062 201.744 245.771C202.248 245.48 202.812 245.26 203.435 245.112C204.058 244.964 204.693 244.851 205.34 244.774C206.159 244.679 206.824 244.602 207.334 244.542C207.844 244.477 208.215 244.373 208.447 244.231C208.678 244.088 208.794 243.857 208.794 243.537V243.474C208.794 242.697 208.574 242.094 208.135 241.667C207.702 241.24 207.055 241.026 206.195 241.026C205.298 241.026 204.592 241.225 204.076 241.623C203.566 242.014 203.213 242.451 203.017 242.931L200.515 242.362C200.812 241.531 201.245 240.86 201.815 240.35C202.391 239.833 203.052 239.46 203.8 239.228C204.548 238.991 205.334 238.872 206.159 238.872C206.705 238.872 207.284 238.937 207.895 239.068C208.512 239.193 209.088 239.424 209.622 239.762C210.162 240.101 210.604 240.584 210.948 241.213C211.292 241.836 211.464 242.646 211.464 243.643V252.723H208.865V250.854H208.758C208.586 251.198 208.328 251.536 207.984 251.868C207.64 252.201 207.197 252.477 206.657 252.696C206.117 252.916 205.471 253.026 204.717 253.026ZM205.296 250.889C206.031 250.889 206.66 250.744 207.183 250.453C207.711 250.162 208.111 249.782 208.384 249.314C208.663 248.839 208.803 248.331 208.803 247.791V246.029C208.708 246.124 208.524 246.213 208.251 246.296C207.984 246.373 207.678 246.441 207.334 246.501C206.99 246.554 206.655 246.605 206.328 246.652C206.002 246.694 205.729 246.729 205.509 246.759C204.993 246.824 204.521 246.934 204.094 247.088C203.672 247.243 203.334 247.465 203.079 247.756C202.83 248.041 202.705 248.42 202.705 248.895C202.705 249.554 202.948 250.052 203.435 250.391C203.922 250.723 204.542 250.889 205.296 250.889ZM217.671 244.605V252.723H215.009V239.05H217.564V241.276H217.733C218.048 240.552 218.54 239.97 219.211 239.531C219.887 239.092 220.739 238.872 221.766 238.872C222.697 238.872 223.513 239.068 224.214 239.46C224.914 239.845 225.457 240.421 225.843 241.186C226.228 241.952 226.421 242.899 226.421 244.026V252.723H223.76V244.347C223.76 243.356 223.501 242.581 222.985 242.023C222.469 241.459 221.76 241.178 220.858 241.178C220.24 241.178 219.692 241.311 219.211 241.578C218.736 241.845 218.359 242.237 218.08 242.753C217.807 243.264 217.671 243.881 217.671 244.605ZM235.723 258.135C234.637 258.135 233.703 257.993 232.919 257.708C232.142 257.423 231.507 257.046 231.014 256.577C230.522 256.108 230.154 255.595 229.911 255.037L232.198 254.094C232.358 254.355 232.572 254.631 232.839 254.922C233.112 255.218 233.48 255.471 233.943 255.678C234.412 255.886 235.014 255.99 235.75 255.99C236.759 255.99 237.593 255.743 238.251 255.251C238.91 254.764 239.239 253.987 239.239 252.919V250.23H239.07C238.91 250.521 238.679 250.845 238.376 251.201C238.079 251.557 237.67 251.865 237.148 252.126C236.625 252.388 235.946 252.518 235.109 252.518C234.029 252.518 233.056 252.266 232.189 251.762C231.329 251.251 230.646 250.5 230.142 249.509C229.643 248.512 229.394 247.287 229.394 245.833C229.394 244.379 229.641 243.133 230.133 242.094C230.632 241.056 231.314 240.261 232.18 239.709C233.047 239.151 234.029 238.872 235.127 238.872C235.975 238.872 236.661 239.015 237.183 239.299C237.705 239.578 238.112 239.905 238.403 240.279C238.699 240.652 238.928 240.982 239.088 241.267H239.284V239.05H241.892V253.026C241.892 254.201 241.619 255.165 241.073 255.919C240.527 256.672 239.788 257.23 238.857 257.592C237.931 257.954 236.886 258.135 235.723 258.135ZM235.697 250.311C236.462 250.311 237.109 250.133 237.637 249.776C238.171 249.414 238.575 248.898 238.848 248.228C239.127 247.551 239.266 246.741 239.266 245.797C239.266 244.878 239.13 244.068 238.857 243.367C238.584 242.667 238.183 242.121 237.655 241.729C237.127 241.332 236.474 241.133 235.697 241.133C234.895 241.133 234.228 241.341 233.694 241.756C233.16 242.166 232.756 242.723 232.483 243.43C232.216 244.136 232.083 244.925 232.083 245.797C232.083 246.694 232.219 247.48 232.492 248.156C232.765 248.833 233.169 249.361 233.703 249.741C234.243 250.121 234.907 250.311 235.697 250.311ZM251.354 252.999C250.007 252.999 248.847 252.711 247.874 252.135C246.907 251.554 246.159 250.738 245.631 249.687C245.108 248.631 244.847 247.394 244.847 245.976C244.847 244.575 245.108 243.341 245.631 242.272C246.159 241.204 246.895 240.371 247.838 239.771C248.788 239.172 249.897 238.872 251.167 238.872C251.939 238.872 252.687 239 253.411 239.255C254.135 239.51 254.784 239.911 255.36 240.457C255.936 241.003 256.39 241.712 256.722 242.584C257.054 243.45 257.22 244.504 257.22 245.744V246.688H246.352V244.694H254.612C254.612 243.993 254.47 243.373 254.185 242.833C253.9 242.287 253.5 241.857 252.983 241.543C252.473 241.228 251.874 241.071 251.185 241.071C250.438 241.071 249.785 241.255 249.227 241.623C248.675 241.985 248.248 242.459 247.945 243.047C247.648 243.628 247.5 244.26 247.5 244.943V246.501C247.5 247.415 247.66 248.192 247.981 248.833C248.307 249.474 248.761 249.963 249.343 250.302C249.924 250.634 250.604 250.8 251.381 250.8C251.885 250.8 252.345 250.729 252.761 250.587C253.176 250.438 253.535 250.219 253.838 249.928C254.141 249.637 254.372 249.278 254.532 248.851L257.051 249.305C256.85 250.047 256.488 250.696 255.965 251.254C255.449 251.806 254.799 252.236 254.016 252.545C253.239 252.848 252.351 252.999 251.354 252.999ZM265.292 252.99C264.188 252.99 263.203 252.708 262.337 252.144C261.476 251.575 260.8 250.765 260.307 249.714C259.82 248.658 259.577 247.391 259.577 245.913C259.577 244.436 259.823 243.172 260.316 242.121C260.814 241.071 261.497 240.267 262.363 239.709C263.23 239.151 264.212 238.872 265.31 238.872C266.158 238.872 266.841 239.015 267.357 239.299C267.879 239.578 268.283 239.905 268.568 240.279C268.859 240.652 269.084 240.982 269.244 241.267H269.404V234.493H272.066V252.723H269.467V250.595H269.244C269.084 250.886 268.853 251.219 268.55 251.592C268.253 251.966 267.844 252.293 267.322 252.572C266.799 252.85 266.123 252.99 265.292 252.99ZM265.879 250.72C266.645 250.72 267.292 250.518 267.82 250.115C268.354 249.705 268.758 249.139 269.031 248.415C269.31 247.691 269.449 246.848 269.449 245.887C269.449 244.937 269.312 244.106 269.04 243.394C268.767 242.682 268.366 242.127 267.838 241.729C267.31 241.332 266.657 241.133 265.879 241.133C265.078 241.133 264.411 241.341 263.877 241.756C263.343 242.172 262.939 242.738 262.666 243.456C262.399 244.174 262.265 244.984 262.265 245.887C262.265 246.8 262.402 247.622 262.675 248.352C262.948 249.082 263.351 249.661 263.886 250.088C264.426 250.509 265.09 250.72 265.879 250.72ZM292.655 239.282C292.56 238.439 292.169 237.786 291.48 237.323C290.792 236.854 289.926 236.62 288.881 236.62C288.133 236.62 287.486 236.739 286.941 236.976C286.395 237.208 285.97 237.528 285.668 237.937C285.371 238.341 285.223 238.801 285.223 239.317C285.223 239.75 285.323 240.124 285.525 240.439C285.733 240.753 286.003 241.017 286.335 241.231C286.673 241.439 287.035 241.614 287.421 241.756C287.807 241.893 288.178 242.005 288.534 242.094L290.314 242.557C290.896 242.7 291.492 242.893 292.103 243.136C292.715 243.379 293.281 243.7 293.804 244.097C294.326 244.495 294.747 244.987 295.068 245.575C295.394 246.162 295.557 246.866 295.557 247.685C295.557 248.717 295.29 249.634 294.756 250.435C294.228 251.236 293.459 251.868 292.451 252.331C291.448 252.794 290.234 253.026 288.81 253.026C287.445 253.026 286.264 252.809 285.267 252.376C284.27 251.943 283.49 251.328 282.926 250.533C282.362 249.732 282.051 248.782 281.991 247.685H284.751C284.804 248.343 285.018 248.892 285.392 249.331C285.771 249.765 286.255 250.088 286.843 250.302C287.436 250.509 288.086 250.613 288.792 250.613C289.569 250.613 290.261 250.492 290.866 250.248C291.477 249.999 291.958 249.655 292.308 249.216C292.658 248.771 292.833 248.251 292.833 247.658C292.833 247.118 292.679 246.676 292.37 246.332C292.068 245.987 291.655 245.703 291.133 245.477C290.617 245.252 290.032 245.053 289.38 244.881L287.225 244.293C285.766 243.896 284.608 243.311 283.754 242.54C282.905 241.768 282.481 240.747 282.481 239.477C282.481 238.427 282.766 237.51 283.335 236.727C283.905 235.943 284.677 235.335 285.65 234.902C286.623 234.463 287.721 234.243 288.943 234.243C290.178 234.243 291.267 234.46 292.21 234.893C293.16 235.326 293.907 235.923 294.453 236.682C294.999 237.436 295.284 238.302 295.308 239.282H292.655ZM307.292 247.053V239.05H309.962V252.723H307.345V250.355H307.203C306.888 251.085 306.384 251.693 305.689 252.18C305.001 252.661 304.143 252.901 303.117 252.901C302.239 252.901 301.461 252.708 300.785 252.322C300.114 251.931 299.586 251.352 299.2 250.587C298.82 249.821 298.63 248.874 298.63 247.747V239.05H301.292V247.426C301.292 248.358 301.55 249.1 302.066 249.652C302.583 250.204 303.253 250.48 304.078 250.48C304.577 250.48 305.072 250.355 305.565 250.106C306.063 249.857 306.476 249.48 306.802 248.975C307.134 248.471 307.298 247.83 307.292 247.053ZM319.298 252.999C317.974 252.999 316.835 252.699 315.879 252.1C314.93 251.494 314.2 250.661 313.69 249.598C313.179 248.536 312.924 247.32 312.924 245.949C312.924 244.56 313.185 243.335 313.707 242.272C314.23 241.204 314.966 240.371 315.915 239.771C316.865 239.172 317.983 238.872 319.271 238.872C320.309 238.872 321.235 239.065 322.048 239.451C322.861 239.83 323.517 240.365 324.015 241.053C324.52 241.741 324.82 242.545 324.915 243.465H322.324C322.182 242.824 321.855 242.272 321.345 241.81C320.841 241.347 320.164 241.115 319.315 241.115C318.574 241.115 317.924 241.311 317.366 241.703C316.814 242.089 316.384 242.64 316.075 243.358C315.767 244.071 315.612 244.913 315.612 245.887C315.612 246.883 315.764 247.744 316.066 248.468C316.369 249.192 316.796 249.753 317.348 250.15C317.906 250.548 318.562 250.747 319.315 250.747C319.82 250.747 320.277 250.655 320.686 250.471C321.102 250.281 321.449 250.011 321.728 249.661C322.013 249.311 322.211 248.889 322.324 248.397H324.915C324.82 249.281 324.532 250.07 324.051 250.765C323.57 251.459 322.926 252.005 322.119 252.402C321.318 252.8 320.378 252.999 319.298 252.999ZM333.52 252.999C332.197 252.999 331.057 252.699 330.102 252.1C329.152 251.494 328.422 250.661 327.912 249.598C327.402 248.536 327.147 247.32 327.147 245.949C327.147 244.56 327.408 243.335 327.93 242.272C328.452 241.204 329.188 240.371 330.137 239.771C331.087 239.172 332.206 238.872 333.493 238.872C334.532 238.872 335.458 239.065 336.271 239.451C337.084 239.83 337.739 240.365 338.238 241.053C338.742 241.741 339.042 242.545 339.137 243.465H336.547C336.404 242.824 336.078 242.272 335.567 241.81C335.063 241.347 334.386 241.115 333.538 241.115C332.796 241.115 332.146 241.311 331.588 241.703C331.037 242.089 330.606 242.64 330.298 243.358C329.989 244.071 329.835 244.913 329.835 245.887C329.835 246.883 329.986 247.744 330.289 248.468C330.591 249.192 331.019 249.753 331.571 250.15C332.128 250.548 332.784 250.747 333.538 250.747C334.042 250.747 334.499 250.655 334.909 250.471C335.324 250.281 335.671 250.011 335.95 249.661C336.235 249.311 336.434 248.889 336.547 248.397H339.137C339.042 249.281 338.754 250.07 338.273 250.765C337.793 251.459 337.149 252.005 336.342 252.402C335.541 252.8 334.6 252.999 333.52 252.999ZM347.876 252.999C346.529 252.999 345.369 252.711 344.396 252.135C343.428 251.554 342.681 250.738 342.152 249.687C341.63 248.631 341.369 247.394 341.369 245.976C341.369 244.575 341.63 243.341 342.152 242.272C342.681 241.204 343.416 240.371 344.36 239.771C345.309 239.172 346.419 238.872 347.689 238.872C348.461 238.872 349.208 239 349.932 239.255C350.656 239.51 351.306 239.911 351.882 240.457C352.457 241.003 352.911 241.712 353.244 242.584C353.576 243.45 353.742 244.504 353.742 245.744V246.688H342.873V244.694H351.134C351.134 243.993 350.992 243.373 350.707 242.833C350.422 242.287 350.021 241.857 349.505 241.543C348.995 241.228 348.395 241.071 347.707 241.071C346.959 241.071 346.306 241.255 345.749 241.623C345.197 241.985 344.769 242.459 344.467 243.047C344.17 243.628 344.022 244.26 344.022 244.943V246.501C344.022 247.415 344.182 248.192 344.502 248.833C344.829 249.474 345.283 249.963 345.864 250.302C346.446 250.634 347.125 250.8 347.903 250.8C348.407 250.8 348.867 250.729 349.283 250.587C349.698 250.438 350.057 250.219 350.36 249.928C350.662 249.637 350.894 249.278 351.054 248.851L353.573 249.305C353.371 250.047 353.009 250.696 352.487 251.254C351.971 251.806 351.321 252.236 350.538 252.545C349.76 252.848 348.873 252.999 347.876 252.999ZM366.941 242.388L364.529 242.815C364.428 242.507 364.267 242.213 364.048 241.934C363.834 241.655 363.544 241.427 363.176 241.249C362.808 241.071 362.348 240.982 361.796 240.982C361.042 240.982 360.413 241.151 359.909 241.489C359.404 241.821 359.152 242.252 359.152 242.78C359.152 243.237 359.321 243.605 359.659 243.884C359.998 244.163 360.544 244.391 361.297 244.569L363.469 245.068C364.727 245.358 365.665 245.806 366.282 246.412C366.899 247.017 367.208 247.803 367.208 248.771C367.208 249.59 366.971 250.319 366.496 250.96C366.027 251.595 365.371 252.094 364.529 252.456C363.692 252.818 362.722 252.999 361.618 252.999C360.087 252.999 358.838 252.672 357.87 252.02C356.903 251.361 356.31 250.426 356.09 249.216L358.662 248.824C358.823 249.495 359.152 250.002 359.651 250.346C360.149 250.684 360.799 250.854 361.6 250.854C362.472 250.854 363.17 250.673 363.692 250.311C364.214 249.943 364.475 249.495 364.475 248.966C364.475 248.539 364.315 248.18 363.995 247.889C363.68 247.599 363.196 247.379 362.544 247.231L360.229 246.723C358.953 246.432 358.01 245.97 357.398 245.335C356.793 244.7 356.491 243.896 356.491 242.922C356.491 242.115 356.716 241.409 357.167 240.804C357.618 240.198 358.241 239.727 359.036 239.388C359.832 239.044 360.742 238.872 361.769 238.872C363.247 238.872 364.41 239.193 365.259 239.833C366.107 240.468 366.668 241.32 366.941 242.388ZM380.38 242.388L377.968 242.815C377.867 242.507 377.707 242.213 377.487 241.934C377.273 241.655 376.983 241.427 376.615 241.249C376.247 241.071 375.787 240.982 375.235 240.982C374.481 240.982 373.852 241.151 373.348 241.489C372.843 241.821 372.591 242.252 372.591 242.78C372.591 243.237 372.76 243.605 373.099 243.884C373.437 244.163 373.983 244.391 374.736 244.569L376.908 245.068C378.167 245.358 379.104 245.806 379.721 246.412C380.339 247.017 380.647 247.803 380.647 248.771C380.647 249.59 380.41 250.319 379.935 250.96C379.466 251.595 378.81 252.094 377.968 252.456C377.131 252.818 376.161 252.999 375.057 252.999C373.526 252.999 372.277 252.672 371.309 252.02C370.342 251.361 369.749 250.426 369.529 249.216L372.102 248.824C372.262 249.495 372.591 250.002 373.09 250.346C373.588 250.684 374.238 250.854 375.039 250.854C375.911 250.854 376.609 250.673 377.131 250.311C377.653 249.943 377.914 249.495 377.914 248.966C377.914 248.539 377.754 248.18 377.434 247.889C377.119 247.599 376.635 247.379 375.983 247.231L373.668 246.723C372.392 246.432 371.449 245.97 370.838 245.335C370.232 244.7 369.93 243.896 369.93 242.922C369.93 242.115 370.155 241.409 370.606 240.804C371.057 240.198 371.68 239.727 372.475 239.388C373.271 239.044 374.182 238.872 375.208 238.872C376.686 238.872 377.849 239.193 378.698 239.833C379.546 240.468 380.107 241.32 380.38 242.388ZM390.081 239.05V241.186H382.354V239.05H390.081ZM384.473 252.723V237.466C384.473 236.611 384.659 235.902 385.033 235.338C385.407 234.768 385.903 234.344 386.52 234.065C387.137 233.78 387.808 233.638 388.532 233.638C389.066 233.638 389.523 233.682 389.902 233.772C390.282 233.855 390.564 233.932 390.748 234.003L390.125 236.157C390 236.122 389.84 236.08 389.644 236.033C389.449 235.979 389.211 235.952 388.932 235.952C388.285 235.952 387.822 236.113 387.544 236.433C387.271 236.754 387.134 237.216 387.134 237.822V252.723H384.473ZM401.488 247.053V239.05H404.158V252.723H401.541V250.355H401.399C401.084 251.085 400.58 251.693 399.886 252.18C399.197 252.661 398.34 252.901 397.313 252.901C396.435 252.901 395.657 252.708 394.981 252.322C394.31 251.931 393.782 251.352 393.396 250.587C393.017 249.821 392.827 248.874 392.827 247.747V239.05H395.488V247.426C395.488 248.358 395.746 249.1 396.263 249.652C396.779 250.204 397.449 250.48 398.274 250.48C398.773 250.48 399.268 250.355 399.761 250.106C400.259 249.857 400.672 249.48 400.998 248.975C401.331 248.471 401.494 247.83 401.488 247.053ZM410.396 234.493V252.723H407.734V234.493H410.396ZM416.638 234.493V252.723H413.977V234.493H416.638ZM421.901 257.85C421.504 257.85 421.142 257.818 420.815 257.752C420.489 257.693 420.246 257.628 420.085 257.556L420.726 255.376C421.213 255.506 421.646 255.562 422.026 255.545C422.406 255.527 422.741 255.384 423.032 255.117C423.329 254.85 423.59 254.414 423.815 253.809L424.145 252.901L419.142 239.05H421.99L425.453 249.661H425.595L429.058 239.05H431.916L426.281 254.548C426.02 255.26 425.687 255.862 425.284 256.355C424.88 256.853 424.4 257.227 423.842 257.476C423.284 257.726 422.637 257.85 421.901 257.85Z" fill="#250550"/>
</g>
<defs>
<clipPath id="clip0_217_14327">
<rect width="501.575" height="408.04" fill="white" transform="translate(0.212402 0.666504)"/>
</clipPath>
</defs>
</svg>
