<svg width="502" height="409" viewBox="0 0 502 409" fill="none" xmlns="http://www.w3.org/2000/svg">
<g clip-path="url(#clip0_169_1030)">
<path d="M334.716 0.666504H11.5395C9.53642 0.666504 7.9126 2.29033 7.9126 4.29342V249.18C7.9126 251.183 9.53642 252.807 11.5395 252.807H334.716C336.719 252.807 338.343 251.183 338.343 249.18V4.29342C338.343 2.29033 336.719 0.666504 334.716 0.666504Z" fill="white"/>
<path d="M11.54 0.666504H334.716C336.717 0.666504 338.343 2.29257 338.343 4.29342V22.9902H7.91309V4.29342C7.91309 2.29257 9.53915 0.666504 11.54 0.666504Z" fill="#35ABFF"/>
<path d="M325.799 15.9812C328.093 15.9812 329.952 14.1219 329.952 11.8284C329.952 9.53482 328.093 7.67554 325.799 7.67554C323.506 7.67554 321.646 9.53482 321.646 11.8284C321.646 14.1219 323.506 15.9812 325.799 15.9812Z" fill="#FF5329"/>
<path d="M310.234 15.9812C312.527 15.9812 314.387 14.1219 314.387 11.8284C314.387 9.53482 312.527 7.67554 310.234 7.67554C307.94 7.67554 306.081 9.53482 306.081 11.8284C306.081 14.1219 307.94 15.9812 310.234 15.9812Z" fill="#E2F0FB"/>
<path d="M294.666 15.9812C296.96 15.9812 298.819 14.1219 298.819 11.8284C298.819 9.53482 296.96 7.67554 294.666 7.67554C292.372 7.67554 290.513 9.53482 290.513 11.8284C290.513 14.1219 292.372 15.9812 294.666 15.9812Z" fill="white"/>
<path d="M72.1716 109.888H81.4777V111.928H74.5321V115.459H80.6284V117.384H74.5321V123.368H72.1716V109.888Z" fill="#250550"/>
<path d="M87.5379 123.631C86.7581 123.631 86.0629 123.501 85.4524 123.244C84.8419 122.987 84.325 122.631 83.9049 122.177C83.4818 121.724 83.1614 121.183 82.9408 120.554C82.7201 119.926 82.6113 119.233 82.6113 118.478C82.6113 117.722 82.7201 117.048 82.9408 116.42C83.1614 115.791 83.4818 115.25 83.9049 114.797C84.325 114.343 84.8419 113.987 85.4524 113.73C86.0629 113.473 86.7581 113.343 87.5379 113.343C88.3177 113.343 89.0128 113.473 89.6234 113.73C90.2339 113.987 90.7507 114.343 91.1708 114.797C91.591 115.25 91.9144 115.791 92.135 116.42C92.3556 117.048 92.4644 117.734 92.4644 118.478C92.4644 119.221 92.3526 119.926 92.135 120.554C91.9144 121.183 91.594 121.724 91.1708 122.177C90.7477 122.631 90.2339 122.987 89.6234 123.244C89.0128 123.501 88.3177 123.631 87.5379 123.631ZM87.5379 121.933C88.0154 121.933 88.4325 121.833 88.7831 121.63C89.1368 121.428 89.4239 121.165 89.6506 120.838C89.8773 120.512 90.0435 120.143 90.1523 119.735C90.2581 119.327 90.3125 118.907 90.3125 118.481C90.3125 118.055 90.2581 117.65 90.1523 117.236C90.0465 116.822 89.8773 116.453 89.6506 116.132C89.4239 115.812 89.1337 115.549 88.7831 115.35C88.4295 115.147 88.0154 115.047 87.5379 115.047C87.0603 115.047 86.6432 115.147 86.2926 115.35C85.939 115.552 85.6519 115.812 85.4252 116.132C85.1985 116.453 85.0323 116.822 84.9265 117.236C84.8207 117.65 84.7663 118.067 84.7663 118.481C84.7663 118.895 84.8207 119.327 84.9265 119.735C85.0323 120.143 85.2015 120.512 85.4252 120.838C85.6519 121.165 85.942 121.431 86.2926 121.63C86.6463 121.833 87.0603 121.933 87.5379 121.933Z" fill="#250550"/>
<path d="M94.2568 113.606H96.2758V115.495H96.3121C96.3756 115.232 96.4965 114.972 96.6808 114.721C96.8622 114.47 97.0828 114.24 97.3427 114.032C97.5996 113.823 97.8868 113.657 98.2011 113.53C98.5154 113.403 98.8358 113.343 99.1653 113.343C99.4161 113.343 99.5914 113.349 99.6851 113.361C99.7788 113.373 99.8755 113.385 99.9783 113.397V115.474C99.8272 115.449 99.673 115.425 99.5159 115.407C99.3587 115.389 99.2046 115.38 99.0534 115.38C98.6877 115.38 98.3462 115.452 98.0258 115.598C97.7054 115.743 97.4243 115.957 97.1856 116.238C96.9468 116.522 96.7564 116.87 96.6204 117.287C96.4813 117.701 96.4118 118.182 96.4118 118.723V123.365H94.2599V113.606H94.2568Z" fill="#250550"/>
<path d="M109.925 122.857C109.925 124.329 109.514 125.426 108.689 126.152C107.864 126.874 106.679 127.237 105.132 127.237C104.642 127.237 104.146 127.185 103.651 127.086C103.152 126.986 102.702 126.814 102.291 126.575C101.883 126.336 101.538 126.022 101.263 125.632C100.985 125.242 100.822 124.764 100.773 124.196H102.925C102.989 124.498 103.095 124.743 103.246 124.934C103.397 125.121 103.575 125.269 103.784 125.378C103.992 125.484 104.222 125.553 104.473 125.586C104.724 125.617 104.99 125.635 105.265 125.635C106.132 125.635 106.77 125.42 107.172 124.994C107.574 124.565 107.776 123.948 107.776 123.144V121.654H107.74C107.438 122.195 107.027 122.618 106.504 122.918C105.981 123.22 105.419 123.371 104.814 123.371C104.035 123.371 103.37 123.235 102.823 122.966C102.275 122.694 101.822 122.325 101.462 121.851C101.103 121.379 100.843 120.835 100.68 120.219C100.516 119.602 100.435 118.94 100.435 118.236C100.435 117.583 100.535 116.957 100.737 116.368C100.94 115.776 101.227 115.259 101.604 114.811C101.982 114.364 102.445 114.011 102.992 113.745C103.539 113.482 104.158 113.349 104.851 113.349C105.467 113.349 106.032 113.479 106.549 113.736C107.066 113.992 107.462 114.4 107.74 114.954H107.776V113.615H109.928V122.863L109.925 122.857ZM105.15 121.669C105.627 121.669 106.032 121.573 106.368 121.376C106.7 121.18 106.972 120.923 107.181 120.602C107.389 120.282 107.541 119.916 107.634 119.508C107.728 119.1 107.776 118.686 107.776 118.272C107.776 117.858 107.725 117.453 107.625 117.063C107.525 116.673 107.371 116.326 107.163 116.023C106.954 115.721 106.685 115.482 106.35 115.307C106.017 115.132 105.615 115.044 105.15 115.044C104.684 115.044 104.267 115.144 103.941 115.346C103.614 115.549 103.348 115.809 103.149 116.129C102.946 116.45 102.801 116.815 102.714 117.223C102.626 117.631 102.581 118.039 102.581 118.441C102.581 118.843 102.632 119.236 102.732 119.62C102.832 120.004 102.986 120.346 103.194 120.648C103.403 120.95 103.666 121.195 103.986 121.385C104.307 121.576 104.693 121.669 105.147 121.669H105.15Z" fill="#250550"/>
<path d="M116.571 123.631C115.791 123.631 115.096 123.501 114.486 123.244C113.875 122.987 113.358 122.631 112.938 122.177C112.515 121.724 112.195 121.183 111.974 120.554C111.753 119.926 111.645 119.233 111.645 118.478C111.645 117.722 111.753 117.048 111.974 116.42C112.195 115.791 112.515 115.25 112.938 114.797C113.358 114.343 113.875 113.987 114.486 113.73C115.096 113.473 115.791 113.343 116.571 113.343C117.351 113.343 118.046 113.473 118.657 113.73C119.267 113.987 119.784 114.343 120.204 114.797C120.624 115.25 120.948 115.791 121.168 116.42C121.389 117.048 121.498 117.734 121.498 118.478C121.498 119.221 121.386 119.926 121.168 120.554C120.948 121.183 120.627 121.724 120.204 122.177C119.781 122.631 119.267 122.987 118.657 123.244C118.046 123.501 117.351 123.631 116.571 123.631ZM116.571 121.933C117.049 121.933 117.466 121.833 117.816 121.63C118.17 121.428 118.457 121.165 118.684 120.838C118.91 120.512 119.077 120.143 119.185 119.735C119.291 119.327 119.346 118.907 119.346 118.481C119.346 118.055 119.291 117.65 119.185 117.236C119.08 116.822 118.91 116.453 118.684 116.132C118.457 115.812 118.167 115.549 117.816 115.35C117.463 115.147 117.049 115.047 116.571 115.047C116.094 115.047 115.676 115.147 115.326 115.35C114.972 115.552 114.685 115.812 114.458 116.132C114.232 116.453 114.065 116.822 113.96 117.236C113.854 117.65 113.8 118.067 113.8 118.481C113.8 118.895 113.854 119.327 113.96 119.735C114.065 120.143 114.235 120.512 114.458 120.838C114.685 121.165 114.975 121.431 115.326 121.63C115.679 121.833 116.094 121.933 116.571 121.933Z" fill="#250550"/>
<path d="M122.308 113.606H123.931V110.68H126.083V113.606H128.026V115.211H126.083V120.421C126.083 120.648 126.092 120.844 126.11 121.008C126.128 121.171 126.173 121.31 126.243 121.422C126.312 121.533 126.415 121.621 126.554 121.676C126.693 121.733 126.881 121.76 127.119 121.76C127.271 121.76 127.422 121.76 127.573 121.751C127.724 121.745 127.875 121.724 128.026 121.685V123.347C127.787 123.371 127.555 123.398 127.328 123.422C127.101 123.447 126.869 123.459 126.63 123.459C126.065 123.459 125.608 123.404 125.261 123.299C124.913 123.193 124.644 123.036 124.448 122.827C124.251 122.619 124.121 122.359 124.052 122.044C123.982 121.73 123.943 121.37 123.928 120.968V115.211H122.305V113.606H122.308Z" fill="#250550"/>
<path d="M138.638 118.079L133.578 109.885H136.316L139.883 115.927L143.395 109.885H146.037L140.995 118.079V123.365H138.635V118.079H138.638Z" fill="#250550"/>
<path d="M149.793 123.631C149.013 123.631 148.318 123.501 147.708 123.244C147.097 122.987 146.58 122.631 146.16 122.177C145.737 121.724 145.417 121.183 145.196 120.554C144.975 119.926 144.866 119.233 144.866 118.478C144.866 117.722 144.975 117.048 145.196 116.42C145.417 115.791 145.737 115.25 146.16 114.797C146.58 114.343 147.097 113.987 147.708 113.73C148.318 113.473 149.013 113.343 149.793 113.343C150.573 113.343 151.268 113.473 151.878 113.73C152.489 113.987 153.006 114.343 153.426 114.797C153.846 115.25 154.169 115.791 154.39 116.42C154.611 117.048 154.72 117.734 154.72 118.478C154.72 119.221 154.608 119.926 154.39 120.554C154.169 121.183 153.849 121.724 153.426 122.177C153.003 122.631 152.489 122.987 151.878 123.244C151.268 123.501 150.573 123.631 149.793 123.631ZM149.793 121.933C150.271 121.933 150.688 121.833 151.038 121.63C151.392 121.428 151.679 121.165 151.906 120.838C152.132 120.512 152.299 120.143 152.407 119.735C152.513 119.327 152.568 118.907 152.568 118.481C152.568 118.055 152.513 117.65 152.407 117.236C152.302 116.822 152.132 116.453 151.906 116.132C151.679 115.812 151.389 115.549 151.038 115.35C150.685 115.147 150.271 115.047 149.793 115.047C149.315 115.047 148.898 115.147 148.548 115.35C148.194 115.552 147.907 115.812 147.68 116.132C147.454 116.453 147.287 116.822 147.182 117.236C147.076 117.65 147.021 118.067 147.021 118.481C147.021 118.895 147.076 119.327 147.182 119.735C147.287 120.143 147.457 120.512 147.68 120.838C147.907 121.165 148.197 121.431 148.548 121.63C148.901 121.833 149.315 121.933 149.793 121.933Z" fill="#250550"/>
<path d="M165.083 123.365H162.968V122.005H162.932C162.669 122.495 162.273 122.891 161.753 123.184C161.23 123.48 160.698 123.628 160.157 123.628C158.872 123.628 157.944 123.311 157.373 122.676C156.799 122.041 156.515 121.08 156.515 119.799V113.606H158.667V119.59C158.667 120.445 158.83 121.05 159.156 121.404C159.483 121.757 159.942 121.933 160.535 121.933C160.988 121.933 161.366 121.863 161.668 121.724C161.97 121.585 162.215 121.401 162.406 121.168C162.593 120.935 162.729 120.654 162.811 120.328C162.892 120.001 162.935 119.648 162.935 119.27V113.606H165.086V123.365H165.083Z" fill="#250550"/>
<path d="M167.351 113.606H169.37V115.495H169.406C169.469 115.232 169.59 114.972 169.775 114.721C169.956 114.47 170.177 114.24 170.436 114.032C170.693 113.823 170.981 113.657 171.295 113.53C171.609 113.403 171.93 113.343 172.259 113.343C172.51 113.343 172.685 113.349 172.779 113.361C172.873 113.373 172.969 113.385 173.072 113.397V115.474C172.921 115.449 172.767 115.425 172.61 115.407C172.452 115.389 172.298 115.38 172.147 115.38C171.781 115.38 171.44 115.452 171.12 115.598C170.799 115.743 170.518 115.957 170.279 116.238C170.041 116.522 169.85 116.87 169.714 117.287C169.575 117.701 169.506 118.182 169.506 118.723V123.365H167.354V113.606H167.351Z" fill="#250550"/>
<path d="M179.544 109.888H185.489C186.444 109.888 187.227 110.027 187.828 110.302C188.433 110.58 188.898 110.925 189.224 111.342C189.551 111.756 189.774 112.209 189.895 112.702C190.016 113.192 190.074 113.645 190.074 114.062C190.074 114.479 190.013 114.927 189.895 115.413C189.774 115.897 189.551 116.347 189.224 116.764C188.898 117.178 188.433 117.523 187.828 117.792C187.224 118.064 186.444 118.197 185.489 118.197H181.901V123.368H179.541V109.888H179.544ZM181.904 116.269H185.359C185.622 116.269 185.894 116.232 186.172 116.154C186.45 116.078 186.704 115.954 186.936 115.785C187.169 115.616 187.357 115.389 187.502 115.105C187.647 114.821 187.719 114.467 187.719 114.038C187.719 113.609 187.656 113.234 187.532 112.944C187.405 112.654 187.236 112.424 187.021 112.255C186.806 112.085 186.562 111.968 186.284 111.904C186.006 111.841 185.709 111.81 185.395 111.81H181.904V116.266V116.269Z" fill="#250550"/>
<path d="M200.008 121.195C200.008 121.458 200.041 121.648 200.11 121.76C200.18 121.875 200.316 121.929 200.515 121.929H200.742C200.83 121.929 200.929 121.917 201.044 121.893V123.383C200.969 123.407 200.872 123.438 200.751 123.468C200.63 123.498 200.509 123.528 200.382 123.553C200.255 123.577 200.132 123.598 200.005 123.61C199.878 123.622 199.772 123.628 199.684 123.628C199.243 123.628 198.877 123.54 198.59 123.365C198.3 123.19 198.113 122.882 198.025 122.44C197.596 122.854 197.073 123.157 196.447 123.347C195.822 123.537 195.223 123.631 194.646 123.631C194.205 123.631 193.784 123.571 193.382 123.453C192.98 123.332 192.624 123.157 192.316 122.924C192.007 122.691 191.762 122.395 191.578 122.035C191.397 121.676 191.303 121.259 191.303 120.781C191.303 120.176 191.412 119.687 191.632 119.309C191.853 118.931 192.143 118.635 192.5 118.42C192.86 118.206 193.262 118.052 193.709 117.958C194.156 117.864 194.606 117.792 195.06 117.74C195.45 117.665 195.822 117.61 196.175 117.58C196.529 117.55 196.84 117.496 197.109 117.42C197.381 117.344 197.593 117.23 197.75 117.069C197.907 116.912 197.986 116.677 197.986 116.362C197.986 116.084 197.919 115.857 197.786 115.682C197.653 115.507 197.49 115.371 197.296 115.277C197.1 115.183 196.885 115.12 196.647 115.09C196.408 115.06 196.181 115.041 195.967 115.041C195.362 115.041 194.866 115.168 194.477 115.419C194.087 115.67 193.866 116.06 193.815 116.589H191.663C191.699 115.96 191.85 115.437 192.116 115.023C192.379 114.609 192.717 114.274 193.126 114.023C193.534 113.772 193.996 113.594 194.513 113.494C195.03 113.394 195.559 113.343 196.1 113.343C196.577 113.343 197.049 113.394 197.514 113.494C197.98 113.594 198.397 113.757 198.768 113.984C199.14 114.21 199.439 114.503 199.666 114.86C199.893 115.22 200.005 115.655 200.005 116.172V121.192L200.008 121.195ZM197.856 118.478C197.529 118.692 197.124 118.819 196.647 118.865C196.169 118.91 195.692 118.977 195.211 119.064C194.984 119.101 194.764 119.155 194.549 119.224C194.334 119.294 194.147 119.388 193.984 119.509C193.821 119.629 193.691 119.787 193.597 119.98C193.503 120.176 193.455 120.412 193.455 120.687C193.455 120.926 193.524 121.129 193.663 121.292C193.803 121.455 193.969 121.585 194.162 121.679C194.359 121.772 194.57 121.839 194.803 121.878C195.036 121.914 195.247 121.936 195.435 121.936C195.673 121.936 195.93 121.905 196.208 121.842C196.486 121.778 196.746 121.673 196.991 121.521C197.236 121.37 197.442 121.18 197.605 120.947C197.768 120.714 197.85 120.427 197.85 120.089V118.484L197.856 118.478Z" fill="#250550"/>
<path d="M203.952 120.231C204.016 120.859 204.254 121.301 204.668 121.552C205.082 121.802 205.581 121.929 206.158 121.929C206.361 121.929 206.591 121.914 206.848 121.881C207.104 121.851 207.346 121.79 207.573 121.703C207.8 121.615 207.984 121.485 208.129 121.316C208.274 121.147 208.341 120.923 208.329 120.645C208.316 120.367 208.214 120.143 208.026 119.965C207.839 119.79 207.594 119.647 207.301 119.539C207.005 119.433 206.669 119.339 206.291 119.264C205.914 119.188 205.53 119.106 205.14 119.019C204.738 118.931 204.351 118.822 203.979 118.698C203.607 118.572 203.275 118.402 202.979 118.188C202.683 117.973 202.447 117.701 202.272 117.366C202.096 117.033 202.009 116.619 202.009 116.129C202.009 115.6 202.139 115.156 202.395 114.8C202.652 114.44 202.982 114.153 203.378 113.932C203.774 113.711 204.215 113.557 204.699 113.47C205.182 113.382 205.645 113.337 206.086 113.337C206.591 113.337 207.071 113.391 207.531 113.497C207.99 113.603 208.404 113.778 208.776 114.017C209.148 114.255 209.456 114.567 209.701 114.951C209.946 115.334 210.1 115.797 210.163 116.338H207.917C207.818 115.821 207.582 115.477 207.21 115.298C206.838 115.123 206.415 115.035 205.935 115.035C205.784 115.035 205.605 115.047 205.397 115.072C205.188 115.096 204.995 115.144 204.81 115.214C204.629 115.283 204.475 115.383 204.348 115.516C204.221 115.649 204.161 115.821 204.161 116.036C204.161 116.299 204.251 116.513 204.436 116.676C204.617 116.84 204.859 116.976 205.152 117.081C205.448 117.187 205.784 117.281 206.161 117.356C206.539 117.432 206.929 117.514 207.331 117.601C207.721 117.689 208.105 117.798 208.483 117.922C208.86 118.049 209.196 118.218 209.492 118.432C209.788 118.647 210.027 118.916 210.208 119.246C210.39 119.572 210.484 119.977 210.484 120.454C210.484 121.035 210.351 121.524 210.088 121.926C209.825 122.328 209.48 122.658 209.06 122.909C208.637 123.16 208.168 123.344 207.655 123.456C207.138 123.568 206.63 123.625 206.125 123.625C205.509 123.625 204.937 123.556 204.417 123.416C203.895 123.277 203.441 123.066 203.057 122.785C202.674 122.501 202.371 122.15 202.151 121.727C201.93 121.307 201.815 120.805 201.8 120.225H203.952V120.231Z" fill="#250550"/>
<path d="M213.751 120.231C213.815 120.859 214.054 121.301 214.468 121.552C214.882 121.802 215.38 121.929 215.958 121.929C216.16 121.929 216.39 121.914 216.647 121.881C216.904 121.851 217.146 121.79 217.372 121.703C217.599 121.615 217.783 121.485 217.928 121.316C218.073 121.147 218.14 120.923 218.128 120.645C218.116 120.367 218.013 120.143 217.826 119.965C217.638 119.79 217.393 119.647 217.1 119.539C216.804 119.433 216.468 119.339 216.091 119.264C215.713 119.188 215.329 119.106 214.939 119.019C214.537 118.931 214.15 118.822 213.779 118.698C213.407 118.572 213.074 118.402 212.778 118.188C212.482 117.973 212.246 117.701 212.071 117.366C211.896 117.033 211.808 116.619 211.808 116.129C211.808 115.6 211.938 115.156 212.195 114.8C212.452 114.44 212.781 114.153 213.177 113.932C213.573 113.711 214.014 113.557 214.498 113.47C214.981 113.382 215.444 113.337 215.885 113.337C216.39 113.337 216.87 113.391 217.33 113.497C217.789 113.603 218.203 113.778 218.575 114.017C218.947 114.255 219.255 114.567 219.5 114.951C219.745 115.334 219.899 115.797 219.962 116.338H217.717C217.617 115.821 217.381 115.477 217.01 115.298C216.638 115.123 216.215 115.035 215.734 115.035C215.583 115.035 215.405 115.047 215.196 115.072C214.987 115.096 214.794 115.144 214.61 115.214C214.428 115.283 214.274 115.383 214.147 115.516C214.02 115.649 213.96 115.821 213.96 116.036C213.96 116.299 214.051 116.513 214.235 116.676C214.416 116.84 214.658 116.976 214.951 117.081C215.247 117.187 215.583 117.281 215.961 117.356C216.339 117.432 216.728 117.514 217.13 117.601C217.52 117.689 217.904 117.798 218.282 117.922C218.66 118.049 218.995 118.218 219.291 118.432C219.588 118.647 219.826 118.916 220.008 119.246C220.189 119.572 220.283 119.977 220.283 120.454C220.283 121.035 220.15 121.524 219.887 121.926C219.624 122.328 219.279 122.658 218.859 122.909C218.436 123.16 217.968 123.344 217.454 123.456C216.937 123.568 216.429 123.625 215.924 123.625C215.308 123.625 214.737 123.556 214.217 123.416C213.694 123.277 213.241 123.066 212.857 122.785C212.473 122.501 212.171 122.15 211.95 121.727C211.729 121.307 211.614 120.805 211.599 120.225H213.751V120.231Z" fill="#250550"/>
<path d="M221.038 113.606H223.323L225.23 120.893H225.267L227.098 113.606H229.268L231.024 120.893H231.061L233.043 113.606H235.235L232.176 123.365H229.967L228.153 116.117H228.117L226.325 123.365H224.058L221.038 113.606Z" fill="#250550"/>
<path d="M241.086 123.631C240.306 123.631 239.611 123.501 239.001 123.244C238.39 122.987 237.873 122.631 237.453 122.177C237.03 121.724 236.71 121.183 236.489 120.554C236.268 119.926 236.16 119.233 236.16 118.478C236.16 117.722 236.268 117.048 236.489 116.42C236.71 115.791 237.03 115.25 237.453 114.797C237.873 114.343 238.39 113.987 239.001 113.73C239.611 113.473 240.306 113.343 241.086 113.343C241.866 113.343 242.561 113.473 243.172 113.73C243.782 113.987 244.299 114.343 244.719 114.797C245.139 115.25 245.463 115.791 245.683 116.42C245.904 117.048 246.013 117.734 246.013 118.478C246.013 119.221 245.901 119.926 245.683 120.554C245.463 121.183 245.142 121.724 244.719 122.177C244.296 122.631 243.782 122.987 243.172 123.244C242.561 123.501 241.866 123.631 241.086 123.631ZM241.086 121.933C241.564 121.933 241.981 121.833 242.331 121.63C242.685 121.428 242.972 121.165 243.199 120.838C243.426 120.512 243.592 120.143 243.701 119.735C243.806 119.327 243.861 118.907 243.861 118.481C243.861 118.055 243.806 117.65 243.701 117.236C243.595 116.822 243.426 116.453 243.199 116.132C242.972 115.812 242.682 115.549 242.331 115.35C241.978 115.147 241.564 115.047 241.086 115.047C240.609 115.047 240.192 115.147 239.841 115.35C239.487 115.552 239.2 115.812 238.974 116.132C238.747 116.453 238.581 116.822 238.475 117.236C238.369 117.65 238.315 118.067 238.315 118.481C238.315 118.895 238.369 119.327 238.475 119.735C238.581 120.143 238.75 120.512 238.974 120.838C239.2 121.165 239.49 121.431 239.841 121.63C240.195 121.833 240.609 121.933 241.086 121.933Z" fill="#250550"/>
<path d="M247.805 113.606H249.824V115.495H249.86C249.924 115.232 250.045 114.972 250.229 114.721C250.411 114.47 250.631 114.24 250.891 114.032C251.148 113.823 251.435 113.657 251.749 113.53C252.064 113.403 252.384 113.343 252.714 113.343C252.964 113.343 253.14 113.349 253.233 113.361C253.327 113.373 253.424 113.385 253.527 113.397V115.474C253.376 115.449 253.221 115.425 253.064 115.407C252.907 115.389 252.753 115.38 252.602 115.38C252.236 115.38 251.895 115.452 251.574 115.598C251.254 115.743 250.973 115.957 250.734 116.238C250.495 116.522 250.305 116.87 250.169 117.287C250.03 117.701 249.96 118.182 249.96 118.723V123.365H247.808V113.606H247.805Z" fill="#250550"/>
<path d="M263.304 123.365H261.264V122.044H261.228C260.938 122.609 260.517 123.017 259.964 123.262C259.411 123.507 258.825 123.631 258.208 123.631C257.441 123.631 256.77 123.495 256.198 123.226C255.624 122.954 255.15 122.588 254.772 122.123C254.394 121.657 254.11 121.107 253.923 120.47C253.735 119.835 253.638 119.152 253.638 118.42C253.638 117.541 253.759 116.779 253.998 116.135C254.237 115.495 254.554 114.966 254.95 114.549C255.346 114.132 255.799 113.829 256.31 113.633C256.821 113.436 257.338 113.34 257.867 113.34C258.169 113.34 258.477 113.367 258.792 113.424C259.106 113.482 259.408 113.572 259.698 113.699C259.989 113.826 260.255 113.986 260.499 114.18C260.744 114.376 260.95 114.606 261.113 114.869H261.149V109.885H263.301V123.365H263.304ZM255.79 118.59C255.79 119.004 255.845 119.415 255.951 119.817C256.056 120.219 256.22 120.578 256.44 120.893C256.661 121.207 256.942 121.458 257.28 121.648C257.619 121.836 258.024 121.932 258.489 121.932C258.955 121.932 259.381 121.833 259.726 121.63C260.07 121.428 260.354 121.165 260.575 120.838C260.796 120.512 260.959 120.143 261.065 119.735C261.17 119.327 261.225 118.907 261.225 118.481C261.225 117.399 260.983 116.556 260.499 115.951C260.016 115.347 259.357 115.044 258.526 115.044C258.021 115.044 257.598 115.147 257.25 115.356C256.903 115.564 256.622 115.833 256.401 116.169C256.18 116.501 256.023 116.879 255.929 117.302C255.836 117.725 255.787 118.154 255.787 118.596L255.79 118.59Z" fill="#250550"/>
<path d="M265.437 114.171C265.437 113.479 265.54 112.85 265.749 112.282C265.957 111.717 266.259 111.23 266.655 110.828C267.051 110.426 267.529 110.115 268.091 109.894C268.65 109.674 269.276 109.565 269.968 109.565C270.548 109.565 271.083 109.649 271.582 109.819C272.077 109.988 272.513 110.233 272.884 110.556C273.256 110.876 273.549 111.275 273.761 111.756C273.976 112.234 274.081 112.775 274.081 113.379C274.081 113.82 274.033 114.201 273.939 114.521C273.846 114.842 273.719 115.12 273.561 115.353C273.404 115.585 273.226 115.794 273.023 115.975C272.821 116.157 272.622 116.338 272.419 116.513C272.18 116.716 271.96 116.909 271.757 117.1C271.555 117.287 271.379 117.499 271.228 117.731C271.077 117.964 270.959 118.239 270.878 118.553C270.796 118.868 270.754 119.252 270.754 119.705H268.714C268.714 119.152 268.741 118.683 268.798 118.3C268.856 117.916 268.946 117.58 269.073 117.29C269.2 117 269.354 116.746 269.536 116.525C269.717 116.305 269.935 116.087 270.185 115.876C270.388 115.7 270.578 115.537 270.763 115.386C270.944 115.235 271.107 115.069 271.252 114.884C271.397 114.703 271.509 114.497 271.591 114.271C271.672 114.044 271.715 113.775 271.715 113.458C271.715 113.08 271.648 112.756 271.515 112.484C271.382 112.212 271.222 111.998 271.035 111.835C270.847 111.671 270.645 111.55 270.43 111.475C270.216 111.399 270.028 111.36 269.865 111.36C269.085 111.36 268.508 111.614 268.139 112.125C267.767 112.635 267.583 113.319 267.583 114.174H265.431L265.437 114.171ZM268.438 121.005H270.968V123.365H268.438V121.005Z" fill="#250550"/>
<path d="M173.126 39.8191C165.247 39.8191 158.86 46.2055 158.86 54.085V61.0789H163.98V54.0366C163.98 48.9831 168.076 44.8877 173.129 44.8877C178.183 44.8877 182.278 48.9831 182.278 54.0366V61.0789H187.398V54.085C187.398 46.2055 181.012 39.8191 173.132 39.8191H173.126Z" fill="#9747FF"/>
<path d="M190.373 61.0789H155.881C154.806 61.0789 153.935 61.9503 153.935 63.0253V89.8917C153.935 90.9667 154.806 91.8381 155.881 91.8381H190.373C191.448 91.8381 192.319 90.9667 192.319 89.8917V63.0253C192.319 61.9503 191.448 61.0789 190.373 61.0789Z" fill="#9747FF"/>
<path d="M177.751 73.5372C177.751 70.8714 175.496 68.7315 172.788 68.922C170.488 69.0852 168.638 70.9621 168.505 73.2622C168.399 75.0938 169.363 76.7108 170.826 77.551V81.7038C170.826 82.9732 171.854 84.0008 173.123 84.0008C174.393 84.0008 175.42 82.9732 175.42 81.7038V77.551C176.811 76.7531 177.751 75.2539 177.751 73.5372Z" fill="#FFF2E1"/>
<path d="M266.561 144.716H79.6481C70.8395 144.716 63.6987 151.856 63.6987 160.665C63.6987 169.474 70.8395 176.614 79.6481 176.614H266.561C275.37 176.614 282.511 169.474 282.511 160.665C282.511 151.856 275.37 144.716 266.561 144.716Z" fill="white"/>
<path d="M140.199 155.844V156.908H134.907V159.927H139.84V160.991H134.907V164.277H140.238V165.34H133.644V155.844H140.199Z" fill="#CECECE"/>
<path d="M142.647 158.464V159.474H142.674C143.188 158.694 143.929 158.304 144.896 158.304C145.322 158.304 145.706 158.392 146.053 158.57C146.398 158.748 146.643 159.048 146.785 159.474C147.015 159.102 147.32 158.812 147.695 158.609C148.072 158.407 148.486 158.304 148.937 158.304C149.281 158.304 149.596 158.34 149.874 158.416C150.152 158.492 150.394 158.609 150.593 158.77C150.793 158.93 150.947 159.135 151.059 159.389C151.17 159.643 151.225 159.945 151.225 160.299V165.34H150.094V160.831C150.094 160.619 150.076 160.42 150.04 160.233C150.004 160.045 149.937 159.885 149.841 159.746C149.744 159.61 149.608 159.501 149.436 159.419C149.263 159.341 149.04 159.299 148.765 159.299C148.205 159.299 147.767 159.459 147.447 159.776C147.126 160.096 146.969 160.52 146.969 161.052V165.334H145.839V160.825C145.839 160.604 145.818 160.399 145.778 160.214C145.739 160.027 145.67 159.867 145.573 159.728C145.476 159.592 145.343 159.483 145.18 159.407C145.017 159.332 144.805 159.296 144.548 159.296C144.219 159.296 143.938 159.362 143.705 159.495C143.469 159.628 143.279 159.788 143.134 159.973C142.989 160.16 142.88 160.35 142.813 160.55C142.747 160.749 142.714 160.916 142.714 161.049V165.331H141.583V158.455H142.647V158.464Z" fill="#CECECE"/>
<path d="M159.018 165.313C158.821 165.428 158.552 165.486 158.208 165.486C157.915 165.486 157.682 165.404 157.51 165.241C157.337 165.078 157.25 164.809 157.25 164.437C156.938 164.809 156.579 165.078 156.165 165.241C155.753 165.404 155.306 165.486 154.829 165.486C154.517 165.486 154.224 165.449 153.943 165.38C153.665 165.31 153.423 165.198 153.218 165.047C153.012 164.896 152.852 164.7 152.731 164.455C152.61 164.21 152.553 163.917 152.553 163.569C152.553 163.179 152.619 162.859 152.752 162.611C152.885 162.363 153.061 162.161 153.278 162.007C153.496 161.853 153.744 161.735 154.022 161.653C154.3 161.575 154.587 161.508 154.88 161.454C155.191 161.393 155.484 161.345 155.766 161.315C156.044 161.284 156.291 161.239 156.503 161.182C156.715 161.124 156.884 161.04 157.008 160.928C157.132 160.816 157.195 160.656 157.195 160.441C157.195 160.193 157.15 159.994 157.056 159.843C156.962 159.692 156.845 159.577 156.696 159.498C156.548 159.42 156.385 159.365 156.204 159.338C156.022 159.311 155.841 159.299 155.666 159.299C155.188 159.299 154.789 159.389 154.469 159.571C154.149 159.752 153.976 160.097 153.949 160.601H152.819C152.837 160.175 152.924 159.816 153.085 159.525C153.245 159.232 153.456 158.996 153.722 158.815C153.988 158.634 154.291 158.504 154.632 158.422C154.974 158.344 155.339 158.301 155.729 158.301C156.041 158.301 156.349 158.322 156.654 158.368C156.959 158.413 157.237 158.504 157.485 158.64C157.733 158.776 157.933 158.969 158.084 159.217C158.235 159.465 158.31 159.788 158.31 160.184V163.714C158.31 163.98 158.326 164.174 158.356 164.298C158.386 164.422 158.492 164.482 158.667 164.482C158.764 164.482 158.879 164.464 159.012 164.428V165.304L159.018 165.313ZM157.183 161.789C157.041 161.895 156.854 161.974 156.624 162.022C156.394 162.07 156.152 162.11 155.899 162.14C155.645 162.17 155.391 162.206 155.134 162.246C154.877 162.285 154.647 162.348 154.442 162.436C154.236 162.524 154.07 162.651 153.943 162.814C153.813 162.977 153.75 163.201 153.75 163.482C153.75 163.666 153.786 163.823 153.861 163.95C153.937 164.077 154.034 164.183 154.155 164.262C154.276 164.34 154.415 164.398 154.575 164.434C154.735 164.47 154.901 164.485 155.079 164.485C155.451 164.485 155.772 164.434 156.038 164.334C156.304 164.231 156.521 164.104 156.69 163.95C156.86 163.796 156.984 163.627 157.062 163.448C157.141 163.27 157.183 163.098 157.183 162.938V161.786V161.789Z" fill="#CECECE"/>
<path d="M160.136 157.228V155.844H161.266V157.228H160.136ZM161.266 158.464V165.34H160.136V158.464H161.266Z" fill="#CECECE"/>
<path d="M164.216 155.844V165.34H163.085V155.844H164.216Z" fill="#CECECE"/>
<path d="M173.833 155.844L177.544 165.34H176.148L175.111 162.481H171.094L170.031 165.34H168.74L172.436 155.844H173.833ZM174.709 161.417L173.126 156.99H173.098L171.49 161.417H174.709Z" fill="#CECECE"/>
<path d="M183.299 165.34V164.41H183.272C183.085 164.79 182.794 165.065 182.395 165.235C181.996 165.404 181.558 165.489 181.078 165.489C180.546 165.489 180.083 165.392 179.687 165.195C179.291 164.999 178.965 164.739 178.702 164.41C178.439 164.083 178.243 163.699 178.11 163.267C177.977 162.832 177.91 162.372 177.91 161.883C177.91 161.393 177.974 160.934 178.104 160.499C178.231 160.063 178.427 159.686 178.69 159.362C178.95 159.039 179.279 158.782 179.675 158.591C180.068 158.401 180.528 158.304 181.05 158.304C181.229 158.304 181.419 158.322 181.622 158.359C181.824 158.395 182.03 158.455 182.232 158.537C182.435 158.619 182.628 158.733 182.81 158.869C182.991 159.008 183.145 159.178 183.269 159.38H183.296V155.844H184.427V165.34H183.296H183.299ZM179.237 162.901C179.322 163.207 179.449 163.479 179.624 163.72C179.796 163.959 180.02 164.15 180.289 164.292C180.558 164.434 180.875 164.503 181.241 164.503C181.607 164.503 181.945 164.428 182.211 164.277C182.477 164.125 182.695 163.929 182.864 163.684C183.033 163.439 183.154 163.164 183.23 162.853C183.305 162.542 183.341 162.227 183.341 161.91C183.341 161.575 183.302 161.248 183.221 160.934C183.142 160.619 183.015 160.341 182.843 160.103C182.67 159.864 182.447 159.67 182.172 159.525C181.897 159.38 181.564 159.305 181.174 159.305C180.784 159.305 180.47 159.38 180.204 159.531C179.938 159.682 179.727 159.882 179.566 160.13C179.406 160.378 179.291 160.662 179.222 160.982C179.149 161.303 179.116 161.629 179.116 161.967C179.116 162.288 179.158 162.599 179.243 162.904L179.237 162.901Z" fill="#CECECE"/>
<path d="M191.184 165.34V164.41H191.157C190.97 164.79 190.68 165.065 190.281 165.235C189.882 165.404 189.443 165.489 188.963 165.489C188.431 165.489 187.969 165.392 187.573 165.195C187.177 164.999 186.85 164.739 186.587 164.41C186.324 164.083 186.128 163.699 185.995 163.267C185.862 162.832 185.795 162.372 185.795 161.883C185.795 161.393 185.859 160.934 185.989 160.499C186.116 160.063 186.312 159.686 186.575 159.362C186.835 159.039 187.165 158.782 187.56 158.591C187.953 158.401 188.413 158.304 188.936 158.304C189.114 158.304 189.304 158.322 189.507 158.359C189.709 158.395 189.915 158.455 190.117 158.537C190.32 158.619 190.513 158.733 190.695 158.869C190.876 159.008 191.03 159.178 191.154 159.38H191.181V155.844H192.312V165.34H191.181H191.184ZM187.122 162.901C187.207 163.207 187.334 163.479 187.509 163.72C187.681 163.959 187.905 164.15 188.174 164.292C188.443 164.434 188.76 164.503 189.126 164.503C189.492 164.503 189.83 164.428 190.096 164.277C190.362 164.125 190.58 163.929 190.749 163.684C190.918 163.439 191.039 163.164 191.115 162.853C191.19 162.542 191.227 162.227 191.227 161.91C191.227 161.575 191.187 161.248 191.106 160.934C191.027 160.619 190.9 160.341 190.728 160.103C190.556 159.864 190.332 159.67 190.057 159.525C189.782 159.38 189.45 159.305 189.06 159.305C188.67 159.305 188.355 159.38 188.089 159.531C187.823 159.682 187.612 159.882 187.452 160.13C187.292 160.378 187.177 160.662 187.107 160.982C187.035 161.303 187.001 161.629 187.001 161.967C187.001 162.288 187.044 162.599 187.128 162.904L187.122 162.901Z" fill="#CECECE"/>
<path d="M195.083 158.465V159.915H195.11C195.385 159.356 195.721 158.945 196.12 158.679C196.519 158.413 197.023 158.289 197.637 158.307V159.504C197.184 159.504 196.8 159.568 196.479 159.692C196.159 159.816 195.902 159.997 195.709 160.236C195.512 160.474 195.37 160.765 195.282 161.106C195.195 161.448 195.149 161.841 195.149 162.282V165.341H194.019V158.465H195.083Z" fill="#CECECE"/>
<path d="M203.114 164.902C202.601 165.292 201.954 165.489 201.174 165.489C200.624 165.489 200.146 165.401 199.744 165.223C199.339 165.044 199.001 164.796 198.726 164.479C198.451 164.159 198.245 163.778 198.106 163.337C197.967 162.892 197.892 162.412 197.874 161.886C197.874 161.363 197.952 160.885 198.112 160.45C198.273 160.015 198.496 159.64 198.783 159.32C199.07 158.999 199.412 158.752 199.808 158.576C200.204 158.398 200.633 158.31 201.105 158.31C201.715 158.31 202.223 158.437 202.628 158.688C203.03 158.942 203.353 159.262 203.598 159.652C203.843 160.042 204.009 160.468 204.103 160.928C204.196 161.39 204.233 161.828 204.215 162.245H199.067C199.058 162.548 199.095 162.832 199.173 163.104C199.252 163.376 199.382 163.615 199.56 163.823C199.738 164.032 199.962 164.198 200.237 164.322C200.512 164.446 200.836 164.509 201.207 164.509C201.685 164.509 202.078 164.397 202.383 164.177C202.688 163.956 202.891 163.618 202.987 163.167H204.106C203.955 163.938 203.622 164.518 203.108 164.908L203.114 164.902ZM202.842 160.486C202.74 160.248 202.604 160.042 202.431 159.867C202.259 159.695 202.054 159.556 201.821 159.456C201.585 159.353 201.325 159.302 201.044 159.302C200.763 159.302 200.488 159.353 200.252 159.456C200.016 159.559 199.814 159.698 199.648 159.876C199.478 160.054 199.345 160.26 199.249 160.496C199.152 160.731 199.095 160.982 199.076 161.248H203.027C203.009 160.982 202.948 160.728 202.848 160.489L202.842 160.486Z" fill="#CECECE"/>
<path d="M206.255 163.805C206.361 163.977 206.5 164.116 206.675 164.216C206.847 164.319 207.044 164.391 207.261 164.437C207.479 164.482 207.702 164.503 207.932 164.503C208.111 164.503 208.295 164.491 208.491 164.464C208.688 164.437 208.866 164.388 209.029 164.319C209.193 164.249 209.329 164.144 209.434 164.008C209.54 163.872 209.595 163.696 209.595 163.482C209.595 163.188 209.483 162.968 209.262 162.817C209.041 162.666 208.763 162.545 208.431 162.451C208.098 162.357 207.736 162.273 207.346 162.197C206.956 162.122 206.593 162.016 206.261 161.877C205.928 161.741 205.65 161.547 205.43 161.299C205.209 161.052 205.097 160.707 205.097 160.263C205.097 159.918 205.176 159.619 205.33 159.371C205.484 159.123 205.683 158.921 205.928 158.767C206.173 158.613 206.448 158.498 206.753 158.422C207.059 158.347 207.364 158.31 207.663 158.31C208.053 158.31 208.413 158.344 208.739 158.41C209.066 158.477 209.359 158.591 209.61 158.755C209.864 158.918 210.063 159.141 210.214 159.42C210.365 159.698 210.453 160.048 210.48 160.462H209.35C209.332 160.242 209.274 160.057 209.177 159.909C209.081 159.764 208.957 159.646 208.806 159.556C208.655 159.468 208.488 159.401 208.307 159.362C208.126 159.323 207.941 159.302 207.754 159.302C207.585 159.302 207.415 159.314 207.243 159.341C207.071 159.368 206.914 159.413 206.772 159.48C206.63 159.546 206.515 159.634 206.427 159.746C206.339 159.858 206.294 160 206.294 160.178C206.294 160.375 206.364 160.535 206.5 160.665C206.636 160.795 206.811 160.901 207.025 160.985C207.237 161.07 207.479 161.139 207.745 161.197C208.011 161.254 208.277 161.315 208.543 161.375C208.827 161.439 209.102 161.514 209.374 161.602C209.643 161.689 209.885 161.807 210.093 161.955C210.302 162.1 210.471 162.285 210.598 162.508C210.725 162.729 210.791 163.004 210.791 163.334C210.791 163.751 210.704 164.095 210.531 164.37C210.359 164.645 210.133 164.866 209.854 165.035C209.576 165.204 209.259 165.322 208.911 165.389C208.561 165.455 208.213 165.489 207.869 165.489C207.488 165.489 207.125 165.449 206.778 165.368C206.433 165.289 206.125 165.156 205.859 164.975C205.593 164.793 205.381 164.555 205.221 164.255C205.061 163.959 204.973 163.597 204.955 163.17H206.085C206.095 163.418 206.152 163.63 206.258 163.802L206.255 163.805Z" fill="#CECECE"/>
<path d="M212.904 163.805C213.01 163.977 213.149 164.116 213.324 164.216C213.496 164.319 213.693 164.391 213.91 164.437C214.128 164.482 214.352 164.503 214.581 164.503C214.76 164.503 214.944 164.491 215.14 164.464C215.337 164.437 215.515 164.388 215.678 164.319C215.842 164.249 215.978 164.144 216.083 164.008C216.189 163.872 216.244 163.696 216.244 163.482C216.244 163.188 216.132 162.968 215.911 162.817C215.691 162.666 215.413 162.545 215.08 162.451C214.748 162.357 214.385 162.273 213.995 162.197C213.605 162.122 213.242 162.016 212.91 161.877C212.577 161.741 212.299 161.547 212.079 161.299C211.858 161.052 211.746 160.707 211.746 160.263C211.746 159.918 211.825 159.619 211.979 159.371C212.133 159.123 212.333 158.921 212.577 158.767C212.822 158.613 213.097 158.498 213.403 158.422C213.708 158.347 214.013 158.31 214.312 158.31C214.702 158.31 215.062 158.344 215.388 158.41C215.715 158.477 216.008 158.591 216.259 158.755C216.513 158.918 216.712 159.141 216.863 159.42C217.014 159.698 217.102 160.048 217.129 160.462H215.999C215.981 160.242 215.923 160.057 215.827 159.909C215.73 159.764 215.606 159.646 215.455 159.556C215.304 159.468 215.137 159.401 214.956 159.362C214.775 159.323 214.59 159.302 214.403 159.302C214.234 159.302 214.065 159.314 213.892 159.341C213.72 159.368 213.563 159.413 213.421 159.48C213.279 159.546 213.164 159.634 213.076 159.746C212.989 159.858 212.943 160 212.943 160.178C212.943 160.375 213.013 160.535 213.149 160.665C213.285 160.795 213.46 160.901 213.675 160.985C213.886 161.07 214.128 161.139 214.394 161.197C214.66 161.254 214.926 161.315 215.192 161.375C215.476 161.439 215.751 161.514 216.023 161.602C216.292 161.689 216.534 161.807 216.742 161.955C216.951 162.1 217.12 162.285 217.247 162.508C217.374 162.729 217.441 163.004 217.441 163.334C217.441 163.751 217.353 164.095 217.181 164.37C217.008 164.645 216.782 164.866 216.504 165.035C216.226 165.204 215.908 165.322 215.561 165.389C215.21 165.455 214.862 165.489 214.518 165.489C214.137 165.489 213.774 165.449 213.427 165.368C213.082 165.289 212.774 165.156 212.508 164.975C212.242 164.793 212.03 164.555 211.87 164.255C211.71 163.959 211.622 163.597 211.604 163.17H212.735C212.744 163.418 212.801 163.63 212.907 163.802L212.904 163.805Z" fill="#CECECE"/>
<path d="M266.583 192.177H79.6703C70.8617 192.177 63.7209 199.317 63.7209 208.126C63.7209 216.934 70.8617 224.075 79.6703 224.075H266.583C275.392 224.075 282.533 216.934 282.533 208.126C282.533 199.317 275.392 192.177 266.583 192.177Z" fill="#35ABFF"/>
<path d="M119.573 202.843H124.52C125.663 202.843 126.518 203.091 127.089 203.583C127.661 204.076 127.945 204.762 127.945 205.645C127.945 206.137 127.872 206.545 127.727 206.872C127.582 207.195 127.413 207.458 127.219 207.654C127.026 207.854 126.835 207.996 126.645 208.084C126.455 208.171 126.319 208.229 126.231 208.259V208.289C126.385 208.307 126.551 208.356 126.733 208.434C126.911 208.513 127.077 208.634 127.234 208.803C127.389 208.972 127.518 209.193 127.618 209.462C127.721 209.734 127.769 210.072 127.769 210.477C127.769 211.088 127.815 211.641 127.908 212.14C127.999 212.638 128.144 212.992 128.338 213.207H126.394C126.258 212.983 126.18 212.738 126.155 212.466C126.131 212.194 126.119 211.934 126.119 211.683C126.119 211.209 126.089 210.801 126.031 210.456C125.974 210.112 125.868 209.828 125.711 209.601C125.557 209.374 125.345 209.208 125.079 209.099C124.813 208.993 124.472 208.939 124.058 208.939H121.389V213.204H119.576V202.846L119.573 202.843ZM121.386 207.558H124.36C124.94 207.558 125.382 207.419 125.681 207.144C125.98 206.869 126.131 206.455 126.131 205.904C126.131 205.575 126.083 205.306 125.986 205.101C125.889 204.892 125.756 204.732 125.587 204.614C125.418 204.499 125.224 204.42 125.007 204.381C124.789 204.342 124.566 204.324 124.333 204.324H121.389V207.558H121.386Z" fill="white"/>
<path d="M130.843 209.879C130.843 210.169 130.885 210.45 130.967 210.719C131.049 210.991 131.172 211.227 131.336 211.43C131.499 211.632 131.707 211.795 131.958 211.916C132.209 212.037 132.508 212.098 132.859 212.098C133.343 212.098 133.733 211.995 134.026 211.786C134.322 211.578 134.539 211.266 134.685 210.849H136.25C136.163 211.254 136.014 211.617 135.8 211.937C135.588 212.258 135.331 212.524 135.032 212.741C134.733 212.959 134.397 213.122 134.023 213.234C133.651 213.346 133.261 213.4 132.856 213.4C132.267 213.4 131.744 213.304 131.29 213.11C130.837 212.917 130.45 212.645 130.136 212.297C129.821 211.95 129.586 211.532 129.426 211.049C129.265 210.565 129.187 210.033 129.187 209.453C129.187 208.921 129.271 208.416 129.441 207.936C129.61 207.458 129.852 207.035 130.166 206.672C130.48 206.31 130.861 206.023 131.305 205.808C131.75 205.596 132.255 205.488 132.814 205.488C133.403 205.488 133.932 205.611 134.403 205.856C134.872 206.104 135.262 206.431 135.57 206.836C135.878 207.241 136.105 207.709 136.244 208.235C136.383 208.761 136.419 209.305 136.353 209.867H130.84L130.843 209.879ZM134.703 208.791C134.685 208.531 134.627 208.277 134.536 208.035C134.446 207.794 134.319 207.582 134.159 207.404C133.998 207.225 133.805 207.08 133.578 206.969C133.352 206.857 133.098 206.802 132.817 206.802C132.536 206.802 132.264 206.854 132.025 206.953C131.789 207.056 131.584 207.195 131.414 207.374C131.245 207.552 131.109 207.763 131.009 208.005C130.907 208.247 130.852 208.507 130.843 208.788H134.703V208.791Z" fill="white"/>
<path d="M138.867 210.795C138.916 211.278 139.1 211.617 139.417 211.81C139.738 212.004 140.119 212.101 140.563 212.101C140.717 212.101 140.895 212.088 141.092 212.064C141.291 212.04 141.476 211.995 141.651 211.925C141.826 211.859 141.968 211.759 142.08 211.629C142.192 211.499 142.243 211.327 142.231 211.115C142.222 210.904 142.144 210.728 141.998 210.592C141.853 210.456 141.666 210.348 141.439 210.266C141.213 210.184 140.953 210.115 140.663 210.054C140.372 209.994 140.076 209.933 139.777 209.867C139.469 209.801 139.169 209.716 138.885 209.619C138.601 209.522 138.344 209.392 138.118 209.226C137.891 209.063 137.71 208.851 137.574 208.595C137.438 208.338 137.371 208.02 137.371 207.646C137.371 207.241 137.471 206.899 137.667 206.624C137.867 206.349 138.118 206.125 138.423 205.956C138.728 205.787 139.067 205.669 139.438 205.599C139.81 205.533 140.167 205.497 140.505 205.497C140.892 205.497 141.261 205.539 141.615 205.62C141.968 205.702 142.286 205.835 142.573 206.019C142.857 206.204 143.096 206.443 143.283 206.739C143.47 207.035 143.591 207.389 143.64 207.806H141.914C141.835 207.41 141.654 207.144 141.37 207.008C141.086 206.872 140.759 206.805 140.391 206.805C140.276 206.805 140.137 206.814 139.976 206.836C139.816 206.854 139.668 206.89 139.526 206.944C139.387 206.999 139.266 207.074 139.169 207.177C139.073 207.28 139.024 207.413 139.024 207.576C139.024 207.779 139.094 207.945 139.236 208.069C139.375 208.196 139.559 208.298 139.786 208.38C140.013 208.462 140.273 208.531 140.563 208.592C140.853 208.649 141.152 208.712 141.463 208.779C141.763 208.845 142.059 208.93 142.349 209.027C142.639 209.123 142.899 209.253 143.126 209.42C143.353 209.583 143.537 209.791 143.676 210.042C143.815 210.293 143.887 210.604 143.887 210.97C143.887 211.414 143.785 211.792 143.582 212.101C143.38 212.409 143.117 212.663 142.79 212.856C142.467 213.05 142.107 213.189 141.708 213.276C141.312 213.364 140.919 213.406 140.533 213.406C140.058 213.406 139.62 213.352 139.221 213.246C138.819 213.14 138.471 212.977 138.175 212.759C137.879 212.542 137.649 212.27 137.48 211.946C137.311 211.623 137.22 211.239 137.211 210.792H138.864L138.867 210.795Z" fill="white"/>
<path d="M146.439 209.879C146.439 210.169 146.481 210.45 146.563 210.719C146.645 210.991 146.768 211.227 146.932 211.43C147.095 211.632 147.303 211.795 147.554 211.916C147.805 212.037 148.104 212.098 148.455 212.098C148.939 212.098 149.328 211.995 149.622 211.786C149.918 211.578 150.135 211.266 150.281 210.849H151.846C151.758 211.254 151.61 211.617 151.396 211.937C151.184 212.258 150.927 212.524 150.628 212.741C150.329 212.959 149.993 213.122 149.619 213.234C149.247 213.346 148.857 213.4 148.452 213.4C147.863 213.4 147.34 213.304 146.886 213.11C146.433 212.917 146.046 212.645 145.732 212.297C145.417 211.95 145.182 211.532 145.021 211.049C144.861 210.565 144.783 210.033 144.783 209.453C144.783 208.921 144.867 208.416 145.037 207.936C145.206 207.458 145.448 207.035 145.762 206.672C146.076 206.31 146.457 206.023 146.901 205.808C147.346 205.596 147.85 205.488 148.41 205.488C148.999 205.488 149.528 205.611 149.999 205.856C150.468 206.104 150.858 206.431 151.166 206.836C151.474 207.241 151.701 207.709 151.84 208.235C151.979 208.761 152.015 209.305 151.949 209.867H146.436L146.439 209.879ZM150.299 208.791C150.281 208.531 150.223 208.277 150.132 208.035C150.042 207.794 149.915 207.582 149.755 207.404C149.594 207.225 149.401 207.08 149.174 206.969C148.948 206.857 148.694 206.802 148.413 206.802C148.132 206.802 147.86 206.854 147.621 206.953C147.385 207.056 147.179 207.195 147.01 207.374C146.841 207.552 146.705 207.763 146.605 208.005C146.502 208.247 146.448 208.507 146.439 208.788H150.299V208.791Z" fill="white"/>
<path d="M152.459 205.702H153.707V203.453H155.36V205.702H156.853V206.935H155.36V210.94C155.36 211.115 155.366 211.263 155.382 211.39C155.397 211.517 155.43 211.623 155.484 211.711C155.539 211.798 155.617 211.862 155.723 211.907C155.829 211.949 155.974 211.974 156.158 211.974C156.273 211.974 156.391 211.974 156.506 211.968C156.621 211.962 156.739 211.946 156.853 211.916V213.192C156.669 213.21 156.491 213.231 156.315 213.249C156.14 213.267 155.962 213.279 155.777 213.279C155.342 213.279 154.992 213.237 154.726 213.155C154.46 213.074 154.251 212.953 154.103 212.793C153.952 212.632 153.852 212.433 153.798 212.191C153.743 211.949 153.713 211.674 153.704 211.363V206.938H152.456V205.705L152.459 205.702Z" fill="white"/>
<path d="M162.313 202.843H166.883C167.618 202.843 168.219 202.949 168.682 203.163C169.147 203.375 169.504 203.641 169.755 203.961C170.006 204.281 170.178 204.629 170.269 205.007C170.359 205.385 170.408 205.732 170.408 206.053C170.408 206.373 170.362 206.718 170.269 207.089C170.178 207.461 170.006 207.809 169.755 208.126C169.504 208.446 169.144 208.709 168.682 208.918C168.216 209.126 167.618 209.229 166.883 209.229H164.127V213.204H162.313V202.846V202.843ZM164.127 207.745H166.781C166.983 207.745 167.192 207.715 167.403 207.658C167.615 207.6 167.811 207.506 167.99 207.373C168.168 207.243 168.313 207.068 168.425 206.851C168.537 206.633 168.591 206.361 168.591 206.031C168.591 205.702 168.543 205.412 168.446 205.191C168.349 204.968 168.219 204.792 168.053 204.662C167.89 204.532 167.699 204.442 167.488 204.393C167.276 204.345 167.047 204.321 166.805 204.321H164.121V207.745H164.127Z" fill="white"/>
<path d="M178.038 211.532C178.038 211.735 178.065 211.88 178.116 211.967C178.171 212.055 178.274 212.097 178.428 212.097H178.603C178.669 212.097 178.748 212.088 178.836 212.067V213.213C178.778 213.231 178.703 213.255 178.612 213.279C178.521 213.303 178.425 213.325 178.328 213.346C178.231 213.364 178.134 213.379 178.038 213.388C177.941 213.397 177.859 213.403 177.79 213.403C177.451 213.403 177.17 213.337 176.95 213.201C176.726 213.065 176.581 212.829 176.514 212.49C176.185 212.811 175.783 213.04 175.302 213.186C174.822 213.331 174.362 213.403 173.918 213.403C173.58 213.403 173.256 213.358 172.945 213.264C172.637 213.173 172.362 213.037 172.126 212.859C171.89 212.681 171.7 212.454 171.561 212.176C171.422 211.901 171.349 211.578 171.349 211.212C171.349 210.746 171.434 210.372 171.603 210.082C171.772 209.791 171.996 209.565 172.271 209.398C172.546 209.235 172.857 209.114 173.199 209.042C173.543 208.969 173.888 208.915 174.236 208.876C174.535 208.818 174.822 208.776 175.091 208.752C175.363 208.727 175.602 208.685 175.81 208.628C176.019 208.57 176.182 208.48 176.303 208.359C176.424 208.238 176.484 208.056 176.484 207.815C176.484 207.603 176.433 207.428 176.333 207.292C176.23 207.156 176.106 207.053 175.955 206.98C175.804 206.908 175.638 206.86 175.454 206.835C175.269 206.811 175.097 206.799 174.931 206.799C174.465 206.799 174.084 206.896 173.785 207.089C173.486 207.283 173.317 207.582 173.277 207.99H171.624C171.654 207.506 171.769 207.104 171.972 206.787C172.174 206.467 172.434 206.213 172.749 206.019C173.063 205.826 173.419 205.69 173.815 205.614C174.211 205.536 174.619 205.5 175.033 205.5C175.402 205.5 175.765 205.539 176.122 205.614C176.478 205.693 176.802 205.817 177.086 205.992C177.37 206.167 177.6 206.391 177.775 206.666C177.95 206.941 178.035 207.277 178.035 207.676V211.535L178.038 211.532ZM176.384 209.444C176.134 209.607 175.822 209.707 175.457 209.74C175.088 209.773 174.722 209.825 174.353 209.891C174.178 209.921 174.009 209.961 173.846 210.015C173.682 210.069 173.537 210.142 173.41 210.233C173.283 210.323 173.187 210.444 173.114 210.595C173.042 210.746 173.005 210.928 173.005 211.139C173.005 211.324 173.06 211.478 173.166 211.605C173.271 211.732 173.401 211.828 173.549 211.901C173.701 211.974 173.864 212.025 174.042 212.052C174.22 212.082 174.384 212.094 174.529 212.094C174.713 212.094 174.91 212.07 175.124 212.022C175.336 211.974 175.538 211.892 175.726 211.774C175.913 211.659 176.07 211.511 176.197 211.333C176.324 211.154 176.384 210.934 176.384 210.674V209.441V209.444Z" fill="white"/>
<path d="M181.07 210.795C181.119 211.278 181.303 211.617 181.62 211.81C181.941 212.004 182.322 212.101 182.766 212.101C182.92 212.101 183.098 212.088 183.295 212.064C183.494 212.04 183.679 211.995 183.854 211.925C184.029 211.859 184.171 211.759 184.283 211.629C184.395 211.499 184.446 211.327 184.434 211.115C184.425 210.904 184.347 210.728 184.202 210.592C184.057 210.456 183.869 210.348 183.642 210.266C183.416 210.184 183.156 210.115 182.866 210.054C182.576 209.994 182.279 209.933 181.98 209.867C181.672 209.801 181.373 209.716 181.088 209.619C180.804 209.522 180.547 209.392 180.321 209.226C180.094 209.063 179.913 208.851 179.777 208.595C179.641 208.338 179.574 208.02 179.574 207.646C179.574 207.241 179.674 206.899 179.87 206.624C180.07 206.349 180.321 206.125 180.626 205.956C180.931 205.787 181.27 205.669 181.642 205.599C182.013 205.533 182.37 205.497 182.708 205.497C183.095 205.497 183.464 205.539 183.818 205.62C184.171 205.702 184.489 205.835 184.776 206.019C185.06 206.204 185.299 206.443 185.486 206.739C185.674 207.035 185.794 207.389 185.843 207.806H184.117C184.038 207.41 183.857 207.144 183.573 207.008C183.289 206.872 182.962 206.805 182.594 206.805C182.479 206.805 182.34 206.814 182.18 206.836C182.019 206.854 181.871 206.89 181.729 206.944C181.59 206.999 181.469 207.074 181.373 207.177C181.276 207.28 181.228 207.413 181.228 207.576C181.228 207.779 181.297 207.945 181.439 208.069C181.578 208.196 181.762 208.298 181.989 208.38C182.216 208.462 182.476 208.531 182.766 208.592C183.056 208.649 183.355 208.712 183.667 208.779C183.966 208.845 184.262 208.93 184.552 209.027C184.842 209.123 185.102 209.253 185.329 209.42C185.556 209.583 185.74 209.791 185.879 210.042C186.018 210.293 186.091 210.604 186.091 210.97C186.091 211.414 185.988 211.792 185.785 212.101C185.583 212.409 185.32 212.663 184.993 212.856C184.67 213.05 184.31 213.189 183.911 213.276C183.516 213.364 183.123 213.406 182.736 213.406C182.261 213.406 181.823 213.352 181.424 213.246C181.022 213.14 180.674 212.977 180.378 212.759C180.082 212.542 179.852 212.27 179.683 211.946C179.514 211.623 179.423 211.239 179.414 210.792H181.067L181.07 210.795Z" fill="white"/>
<path d="M188.599 210.795C188.648 211.278 188.832 211.617 189.149 211.81C189.47 212.004 189.85 212.101 190.295 212.101C190.449 212.101 190.627 212.088 190.824 212.064C191.023 212.04 191.208 211.995 191.383 211.925C191.558 211.859 191.7 211.759 191.812 211.629C191.924 211.499 191.975 211.327 191.963 211.115C191.954 210.904 191.875 210.728 191.73 210.592C191.585 210.456 191.398 210.348 191.171 210.266C190.945 210.184 190.685 210.115 190.394 210.054C190.104 209.994 189.808 209.933 189.509 209.867C189.201 209.801 188.901 209.716 188.617 209.619C188.333 209.522 188.076 209.392 187.85 209.226C187.623 209.063 187.442 208.851 187.306 208.595C187.17 208.338 187.103 208.02 187.103 207.646C187.103 207.241 187.203 206.899 187.399 206.624C187.599 206.349 187.85 206.125 188.155 205.956C188.46 205.787 188.799 205.669 189.17 205.599C189.542 205.533 189.899 205.497 190.237 205.497C190.624 205.497 190.993 205.539 191.347 205.62C191.7 205.702 192.018 205.835 192.305 206.019C192.589 206.204 192.828 206.443 193.015 206.739C193.202 207.035 193.323 207.389 193.372 207.806H191.646C191.567 207.41 191.386 207.144 191.102 207.008C190.818 206.872 190.491 206.805 190.122 206.805C190.008 206.805 189.869 206.814 189.708 206.836C189.548 206.854 189.4 206.89 189.258 206.944C189.119 206.999 188.998 207.074 188.901 207.177C188.805 207.28 188.756 207.413 188.756 207.576C188.756 207.779 188.826 207.945 188.968 208.069C189.107 208.196 189.291 208.298 189.518 208.38C189.745 208.462 190.005 208.531 190.295 208.592C190.585 208.649 190.884 208.712 191.195 208.779C191.495 208.845 191.791 208.93 192.081 209.027C192.371 209.123 192.631 209.253 192.858 209.42C193.084 209.583 193.269 209.791 193.408 210.042C193.547 210.293 193.619 210.604 193.619 210.97C193.619 211.414 193.517 211.792 193.314 212.101C193.112 212.409 192.849 212.663 192.522 212.856C192.199 213.05 191.839 213.189 191.44 213.276C191.044 213.364 190.651 213.406 190.265 213.406C189.79 213.406 189.352 213.352 188.953 213.246C188.551 213.14 188.203 212.977 187.907 212.759C187.611 212.542 187.381 212.27 187.212 211.946C187.043 211.623 186.952 211.239 186.943 210.792H188.596L188.599 210.795Z" fill="white"/>
<path d="M194.199 205.702H195.955L197.421 211.303H197.451L198.86 205.702H200.528L201.876 211.303H201.906L203.43 205.702H205.113L202.762 213.204H201.063L199.67 207.633H199.64L198.261 213.204H196.52L194.199 205.702Z" fill="white"/>
<path d="M209.604 213.406C209.006 213.406 208.471 213.306 208.003 213.11C207.534 212.91 207.138 212.638 206.812 212.291C206.488 211.943 206.241 211.526 206.071 211.043C205.902 210.559 205.817 210.027 205.817 209.447C205.817 208.866 205.902 208.35 206.071 207.866C206.241 207.382 206.488 206.965 206.812 206.618C207.135 206.27 207.531 205.995 208.003 205.799C208.471 205.599 209.006 205.502 209.604 205.502C210.203 205.502 210.738 205.602 211.206 205.799C211.675 205.998 212.071 206.27 212.397 206.618C212.721 206.965 212.968 207.382 213.138 207.866C213.307 208.35 213.392 208.875 213.392 209.447C213.392 210.018 213.307 210.559 213.138 211.043C212.968 211.526 212.721 211.943 212.397 212.291C212.074 212.638 211.678 212.913 211.206 213.11C210.738 213.309 210.203 213.406 209.604 213.406ZM209.604 212.1C209.973 212.1 210.291 212.022 210.563 211.868C210.835 211.714 211.055 211.511 211.231 211.257C211.406 211.006 211.533 210.722 211.614 210.408C211.696 210.094 211.738 209.773 211.738 209.444C211.738 209.114 211.696 208.806 211.614 208.486C211.533 208.165 211.403 207.884 211.231 207.636C211.055 207.388 210.835 207.189 210.563 207.035C210.291 206.881 209.973 206.802 209.604 206.802C209.236 206.802 208.918 206.881 208.646 207.035C208.374 207.189 208.154 207.391 207.978 207.636C207.803 207.884 207.676 208.165 207.595 208.486C207.513 208.806 207.471 209.123 207.471 209.444C207.471 209.764 207.513 210.094 207.595 210.408C207.676 210.722 207.806 211.006 207.978 211.257C208.154 211.508 208.374 211.711 208.646 211.868C208.918 212.022 209.236 212.1 209.604 212.1Z" fill="white"/>
<path d="M214.77 205.702H216.324V207.153H216.354C216.402 206.95 216.496 206.751 216.638 206.557C216.777 206.364 216.947 206.189 217.146 206.028C217.345 205.868 217.563 205.741 217.805 205.645C218.047 205.548 218.295 205.5 218.545 205.5C218.739 205.5 218.872 205.506 218.944 205.515C219.017 205.524 219.092 205.533 219.168 205.545V207.141C219.053 207.123 218.932 207.104 218.811 207.089C218.69 207.074 218.573 207.068 218.455 207.068C218.174 207.068 217.911 207.123 217.663 207.234C217.415 207.346 217.2 207.509 217.016 207.727C216.832 207.945 216.687 208.214 216.581 208.531C216.475 208.851 216.421 209.217 216.421 209.634V213.204H214.767V205.702H214.77Z" fill="white"/>
<path d="M226.681 213.201H225.115V212.185H225.085C224.861 212.62 224.538 212.932 224.112 213.122C223.686 213.313 223.235 213.406 222.764 213.406C222.174 213.406 221.657 213.304 221.219 213.095C220.778 212.886 220.415 212.605 220.125 212.246C219.835 211.889 219.617 211.466 219.472 210.976C219.327 210.487 219.255 209.964 219.255 209.402C219.255 208.725 219.345 208.138 219.53 207.646C219.714 207.153 219.959 206.745 220.261 206.428C220.566 206.107 220.914 205.874 221.307 205.723C221.7 205.572 222.099 205.5 222.504 205.5C222.736 205.5 222.972 205.521 223.214 205.566C223.456 205.608 223.689 205.681 223.909 205.778C224.133 205.874 224.338 205.998 224.526 206.146C224.713 206.298 224.87 206.473 224.997 206.675H225.027V202.846H226.681V213.204V213.201ZM220.908 209.532C220.908 209.852 220.95 210.166 221.032 210.475C221.113 210.783 221.24 211.061 221.41 211.303C221.579 211.544 221.793 211.738 222.056 211.883C222.316 212.028 222.628 212.101 222.984 212.101C223.341 212.101 223.667 212.022 223.933 211.868C224.199 211.714 224.417 211.511 224.586 211.257C224.755 211.007 224.882 210.722 224.964 210.408C225.046 210.094 225.088 209.773 225.088 209.444C225.088 208.613 224.901 207.963 224.529 207.5C224.157 207.035 223.652 206.805 223.012 206.805C222.625 206.805 222.298 206.884 222.032 207.044C221.766 207.204 221.549 207.413 221.379 207.667C221.21 207.924 221.089 208.214 221.017 208.537C220.944 208.861 220.908 209.193 220.908 209.532Z" fill="white"/>
<path d="M458.353 408.253C464.724 378.367 459.873 345.595 454.856 315.165C450.316 287.631 428.397 266.229 400.772 262.285C357.032 256.037 315.537 261.399 295.205 273.129V408.253H458.353Z" fill="#EBEBEB"/>
<path d="M307.131 279.289V408.323H418.84C434.291 372.746 433.723 327.439 417.789 289.593C415.086 283.173 409.743 278.234 403.136 276.025C372.51 265.785 325.387 268.768 307.131 279.289Z" fill="#CECECE"/>
<path d="M367.462 308.933C366.452 275.52 363.101 244.386 358.416 214.549C352.38 173.794 329.002 163.856 302.093 163.856C258.781 171.28 253.507 204.136 254.87 224.846C253.924 262.122 258.733 308.655 242.838 321.866C242.838 321.866 255.327 334.337 287.754 323.84L367.462 308.933Z" fill="#282626"/>
<path d="M298.192 273.29L298.264 277.893C298.566 293.785 330.256 300.655 336.978 274.393L374.716 408.253H270.403L279.818 286.22L298.189 273.29H298.192Z" fill="#FF5329"/>
<path d="M336.978 274.396C331.662 273.492 331.027 255.448 331.051 243.304C337.422 248.599 346.109 243.274 346.846 235.869C348.013 225.097 338.644 219.968 330.423 225.173L329.005 205.666C328.422 197.659 322.289 191.17 314.328 190.14H287.253C274.955 190.14 264.839 199.824 264.301 212.11L264.023 218.493C261.245 242.954 271.334 268.408 298.191 267.39V275.829C298.191 284.449 301.64 293.017 319.14 291.835C330.601 290.793 334.962 283.778 336.981 274.396H336.978Z" fill="#FFBA9F"/>
<mask id="mask0_169_1030" style="mask-type:luminance" maskUnits="userSpaceOnUse" x="263" y="190" width="84" height="102">
<path d="M336.979 274.396C331.662 273.492 331.028 255.448 331.052 243.304C337.423 248.599 346.109 243.274 346.847 235.869C348.014 225.097 338.644 219.968 330.423 225.173L329.006 205.666C328.422 197.659 322.29 191.17 314.329 190.14H287.254C274.955 190.14 264.839 199.824 264.301 212.11L264.023 218.493C261.246 242.954 271.335 268.408 298.192 267.39V275.829C298.192 284.449 301.64 293.017 319.14 291.835C330.601 290.793 334.963 283.778 336.982 274.396H336.979Z" fill="white"/>
</mask>
<g mask="url(#mask0_169_1030)">
<path d="M298.191 267.39C308.912 266.613 319.082 260.683 322.543 256.092C312.418 276.224 293.198 290.442 298.191 267.39Z" fill="#191818"/>
</g>
<path d="M293.899 232.647C295.563 232.647 296.912 231.208 296.912 229.434C296.912 227.66 295.563 226.221 293.899 226.221C292.235 226.221 290.886 227.66 290.886 229.434C290.886 231.208 292.235 232.647 293.899 232.647Z" fill="#282626"/>
<path d="M274.041 233.614C275.706 233.614 277.055 232.176 277.055 230.401C277.055 228.627 275.706 227.188 274.041 227.188C272.377 227.188 271.028 228.627 271.028 230.401C271.028 232.176 272.377 233.614 274.041 233.614Z" fill="#282626"/>
<path d="M283.935 235.706L285.244 241.234C285.259 241.3 285.183 241.345 285.129 241.306C282.787 239.586 280.381 239.846 279.347 241.708C278.836 242.627 278.969 244.029 279.586 244.885C280.946 246.774 283.361 246.665 285.785 245.704" stroke="#282626" stroke-width="0.906729" stroke-miterlimit="10" stroke-linecap="round"/>
<path d="M297.016 255.049C295.779 252.275 287.628 253.245 286.132 257.352" stroke="#282626" stroke-width="0.906729" stroke-miterlimit="10" stroke-linecap="round"/>
<path d="M298.19 273.29C292.834 273.235 284.199 275.702 276.519 284.4C274.6 286.573 272.941 288.97 271.505 291.491C255.71 319.188 245.963 339.599 233.652 370.576H196.274V401.211H257.798C263.29 401.211 268.368 398.291 271.118 393.54C279.693 378.733 291.52 350.21 302.521 325.173C298.217 305.315 294.258 285.766 298.193 273.287L298.19 273.29Z" fill="#FF5329"/>
<path d="M388.014 389.629C398.626 368.457 385.022 334.294 372.382 300.473C368.181 286.522 358.455 276.862 344.126 274.217L339.365 273.338C337.987 273.084 336.572 273.069 335.188 273.293C335.711 273.852 336.294 274.254 336.977 274.399C336.279 278.376 334.641 281.855 332.55 285.098L343.739 307.987L314.503 324.692C327.602 350.972 338.927 390.46 362.659 399.609C372.367 403.351 383.351 398.935 388.014 389.635V389.629Z" fill="#FF5329"/>
<path d="M309.495 303.384C311.293 307.878 313.642 311.813 318.656 313.056L322.392 320.183L345.537 306.926L334.826 281.795L309.495 303.387V303.384Z" fill="#FFBA9F"/>
<path d="M312.693 248.113L334.823 281.795L327.134 288.347C315.655 270.506 300.594 250.289 312.69 248.113H312.693Z" fill="#FFBA9F"/>
<path d="M309.495 303.384C304.856 303.402 303.314 300.987 303.907 296.898L311.871 289.901L325.009 285.068L327.137 288.347L309.495 303.384Z" fill="#FFBA9F"/>
<path d="M320.578 278.31L308.226 282.587L301.525 287.897C299.805 289.26 299.258 291.651 300.253 293.606C300.978 295.036 302.169 296.151 303.907 296.901L311.871 289.904L325.009 285.071L320.581 278.313L320.578 278.31Z" fill="#FFBA9F"/>
<path d="M316.211 271.482C311.145 273.015 305.959 276.022 301.398 279.159C300.721 279.625 300.201 280.293 299.932 281.069C298.992 283.771 300.446 286.428 301.525 287.894L308.226 282.584L320.578 278.307L316.208 271.479L316.211 271.482Z" fill="#FFBA9F"/>
<path d="M316.32 271.636C308.921 259.68 304.357 249.612 312.696 248.113L334.826 281.795" stroke="#282626" stroke-width="0.906729" stroke-miterlimit="10" stroke-linecap="round"/>
<path d="M317.301 296.728L309.491 303.384C304.852 303.402 303.31 300.987 303.903 296.898L311.867 289.901L325.005 285.068" stroke="#282626" stroke-width="0.906729" stroke-miterlimit="10" stroke-linecap="round"/>
<path d="M320.578 278.31L308.226 282.587L301.525 287.897C299.805 289.26 299.258 291.651 300.253 293.606C300.978 295.036 302.169 296.151 303.907 296.901L311.871 289.904" stroke="#282626" stroke-width="0.906729" stroke-miterlimit="10" stroke-linecap="round"/>
<path d="M316.211 271.482C311.145 273.015 305.959 276.022 301.398 279.159C300.721 279.625 300.201 280.293 299.932 281.069C298.992 283.771 300.446 286.428 301.525 287.894L308.226 282.584" stroke="#282626" stroke-width="0.906729" stroke-miterlimit="10" stroke-linecap="round"/>
<path d="M287.758 206.249C286.274 200.872 281.919 201.637 279.694 205.814C279.298 206.557 279.036 207.367 278.854 208.192C276.33 219.641 271.676 226.321 263.588 225.309L264.15 193.307L288.813 187.247L287.761 206.249H287.758Z" fill="#282626"/>
<path d="M287.758 206.249C287.758 206.249 287.77 206.231 287.776 206.222C288.791 204.88 290.865 205.061 291.69 206.527C298.817 219.191 314.494 228.34 330.425 225.173V187.247H288.809L287.758 206.249Z" fill="#282626"/>
<path d="M234.89 408.256H303.985V401.559H234.89V408.256Z" fill="#9747FF"/>
<path d="M234.892 401.555H131.582V408.253H234.892V401.555Z" fill="#9747FF"/>
<path d="M234.892 401.556L223.905 313.536H121.66L131.582 401.556H234.892Z" fill="#9747FF"/>
<path d="M121.66 313.536L131.582 401.556H234.892" fill="#9747FF"/>
<path d="M121.66 313.536L131.582 401.556H234.892" stroke="#282626" stroke-width="0.906729" stroke-miterlimit="10" stroke-linecap="round"/>
<path d="M362.556 244.32C365.046 265.026 366.784 286.464 367.464 308.933C367.494 325.916 332.815 322.588 323.258 318.832C323.258 318.832 334.695 323.782 332.473 296.813C330.255 269.847 331.053 243.301 331.053 243.301C337.285 248.859 348.441 248.397 362.556 244.317V244.32Z" fill="#282626"/>
<path d="M388.014 389.629C383.354 398.929 372.367 403.345 362.659 399.603C338.924 390.457 327.602 350.966 314.503 324.686L346.407 306.455L374.716 362.509" stroke="#282626" stroke-width="0.906729" stroke-miterlimit="10" stroke-linecap="round"/>
<path d="M271.039 400.044L277.201 320.183" stroke="#282626" stroke-width="0.906729" stroke-miterlimit="10" stroke-linecap="round"/>
</g>
<defs>
<clipPath id="clip0_169_1030">
<rect width="501.575" height="408.04" fill="white" transform="translate(0.212402 0.666504)"/>
</clipPath>
</defs>
</svg>
