<svg width="12" height="12" viewBox="0 0 12 12" fill="none" xmlns="http://www.w3.org/2000/svg">
<path fill-rule="evenodd" clip-rule="evenodd" d="M6 11C3.2385 11 1 8.7615 1 6C1 3.2385 3.2385 1 6 1C8.7615 1 11 3.2385 11 6C11 8.7615 8.7615 11 6 11ZM6.5 4C6.5 4.27614 6.27614 4.5 6 4.5C5.72386 4.5 5.5 4.27614 5.5 4C5.5 3.72386 5.72386 3.5 6 3.5C6.27614 3.5 6.5 3.72386 6.5 4ZM6 5C6.27614 5 6.5 5.22386 6.5 5.5V8C6.5 8.27614 6.27614 8.5 6 8.5C5.72386 8.5 5.5 8.27614 5.5 8V5.5C5.5 5.22386 5.72386 5 6 5Z" fill="#001141"/>
</svg>
