<svg width="159" height="33" viewBox="0 0 159 33" fill="none" xmlns="http://www.w3.org/2000/svg">
<path d="M29.1965 24.5H15.8468C13.5893 24.5 10.8023 22.995 10.8023 19.9014V15.1635C10.8023 12.07 13.5893 10.565 15.8468 10.565H25.5734V6.10577H29.1965V24.5ZM16.5714 21.5179H25.5734V13.5471H16.5714C15.0385 13.5471 14.4254 14.6061 14.4254 15.4422V19.6227C14.4254 20.4588 15.0385 21.5179 16.5714 21.5179ZM36.7493 10.565H45.6677C47.9252 10.565 50.6565 12.0421 50.6565 15.1635V19.0653H35.3279V19.6227C35.3279 20.4588 35.9411 21.5179 37.4739 21.5179H50.3778V24.5H36.7493C34.4918 24.5 31.7048 23.0229 31.7048 19.9014V15.1635C31.7048 12.0421 34.4918 10.565 36.7493 10.565ZM44.9152 13.5471H37.5018C35.969 13.5471 35.3279 14.6061 35.3279 15.4422V16.2783H47.0334V15.4422C47.0334 14.6061 46.4481 13.5471 44.9152 13.5471ZM71.2738 24.5H57.924C55.6665 24.5 52.8795 22.995 52.8795 19.9014V15.1635C52.8795 12.07 55.6665 10.565 57.924 10.565H71.2738V24.5ZM58.6486 21.5179H67.6507V13.5471H58.6486C57.1158 13.5471 56.5026 14.6061 56.5026 15.4422V19.6227C56.5026 20.4588 57.1158 21.5179 58.6486 21.5179ZM75.733 6.10577H79.3561V10.565H85.7662V13.5471H79.3561V19.567C79.3561 20.849 80.1364 21.5179 81.4742 21.5179H86.0449V24.5H80.7217C78.3249 24.5 76.4297 23.1344 75.8723 20.7933C75.7887 20.4031 75.733 19.5391 75.733 19.5391V13.5471H73.2247V10.565H75.733V6.10577ZM87.7236 6.10577H91.3467V8.89278H87.7236V6.10577ZM87.7236 10.565H91.3467V24.5H87.7236V10.565ZM98.9126 10.565H107.831C110.088 10.565 112.82 12.07 112.82 15.1635V19.9014C112.82 23.0229 110.088 24.5279 107.831 24.5279H98.9126C96.6551 24.5279 93.8681 23.0229 93.8681 19.9014V15.1635C93.8681 12.07 96.6551 10.565 98.9126 10.565ZM107.078 13.5471H99.6372C98.1043 13.5471 97.4912 14.4668 97.4912 15.4422V19.6227C97.4912 20.5982 98.1043 21.5458 99.6372 21.5458H107.078C108.611 21.5458 109.197 20.5982 109.197 19.6227V15.4422C109.197 14.4668 108.611 13.5471 107.078 13.5471ZM115.321 10.565H128.281C130.65 10.565 132.629 11.9306 133.13 14.2717C133.242 14.6619 133.27 15.1078 133.298 15.5258V24.5H129.675V15.7767C129.675 14.5225 128.866 13.5471 127.556 13.5471H118.945V24.5H115.321V10.565Z" fill="#151515"/>
<path d="M158.055 3.33395C157.959 3.33316 157.869 3.37083 157.802 3.43869C157.729 3.51346 157.698 3.61324 157.706 3.71196L148.777 12.8938L149.117 13.2268L158.046 4.0456C158.146 4.05194 158.245 4.01914 158.319 3.94374C158.455 3.80488 158.45 3.5781 158.307 3.43926C158.239 3.37105 158.149 3.33414 158.055 3.33395Z" fill="#1364DC"/>
<path d="M156.602 3.96355C156.738 3.8247 156.733 3.59855 156.59 3.45908C156.447 3.3196 156.221 3.31965 156.085 3.45914C156.018 3.52699 155.983 3.6175 155.986 3.71379C155.986 3.72001 155.988 3.72558 155.988 3.73241L147.935 12.0383L148.276 12.3714L156.328 4.06605C156.428 4.07239 156.528 4.03895 156.602 3.96355Z" fill="#1364DC"/>
<path d="M154.83 4.00413C154.896 3.93627 154.932 3.84576 154.929 3.74947C154.926 3.65567 154.887 3.56599 154.819 3.49963C154.676 3.36016 154.45 3.36021 154.314 3.49969C154.24 3.57509 154.21 3.67549 154.218 3.77358L147.062 11.18L147.402 11.513L154.559 4.10659C154.656 4.11233 154.757 4.0789 154.83 4.00413Z" fill="#1364DC"/>
<path d="M157.844 24.3382C157.748 24.3389 157.658 24.3013 157.592 24.2334C157.519 24.1586 157.488 24.0589 157.495 23.9601L148.774 14.8405L149.114 14.5074L157.835 23.6265C157.935 23.6202 158.035 23.653 158.108 23.7284C158.244 23.8672 158.24 24.094 158.096 24.2328C158.028 24.3011 157.939 24.338 157.844 24.3382Z" fill="#1364DC"/>
<path d="M156.471 23.7326C156.607 23.8715 156.602 24.0976 156.46 24.2371C156.317 24.3766 156.091 24.3765 155.954 24.237C155.888 24.1692 155.852 24.0787 155.855 23.9824C155.855 23.9762 155.857 23.9706 155.858 23.9638L147.958 15.7693L148.298 15.4363L156.198 23.6301C156.297 23.6238 156.398 23.6572 156.471 23.7326Z" fill="#1364DC"/>
<path d="M154.819 23.7351C154.885 23.803 154.921 23.8935 154.918 23.9898C154.915 24.0836 154.876 24.1733 154.808 24.2396C154.666 24.3791 154.439 24.379 154.303 24.2396C154.229 24.1642 154.199 24.0638 154.207 23.9657L147.18 16.6888L147.521 16.3558L154.548 23.6327C154.645 23.6269 154.746 23.6603 154.819 23.7351Z" fill="#1364DC"/>
<path d="M146.612 14.1249L146.923 13.8331L146.905 13.8138L146.916 13.8014L146.72 13.616L137.36 3.64856C137.367 3.54926 137.336 3.44907 137.261 3.37437C137.123 3.2364 136.897 3.23992 136.757 3.38053C136.616 3.52113 136.613 3.74787 136.75 3.88496C136.816 3.95087 136.903 3.9869 136.997 3.9869C137 3.9869 137.002 3.9869 137.004 3.9869C137.006 3.9869 137.007 3.98691 137.008 3.98603L146.235 13.8129L137.008 23.6406C137.006 23.6406 137.005 23.6406 137.004 23.6397C136.907 23.6397 136.817 23.674 136.75 23.7417C136.612 23.8796 136.615 24.1055 136.756 24.2461C136.827 24.3173 136.921 24.3533 137.013 24.3533C137.103 24.3533 137.192 24.3199 137.26 24.2522C137.335 24.1775 137.366 24.0774 137.359 23.9781L146.612 14.1249Z" fill="#1364DC"/>
<path d="M148.339 14.1244L148.65 13.8326L148.632 13.8133L148.643 13.801L148.446 13.6155L139.087 3.64808C139.094 3.54877 139.062 3.44858 138.988 3.37388C138.85 3.23591 138.624 3.23943 138.483 3.38004C138.343 3.52065 138.34 3.74738 138.477 3.88448C138.543 3.95039 138.63 3.98642 138.724 3.98642C138.727 3.98642 138.728 3.98642 138.731 3.98642C138.733 3.98642 138.734 3.98642 138.734 3.98554L147.962 13.8124L138.734 23.6401C138.733 23.6401 138.732 23.6401 138.73 23.6392C138.633 23.6392 138.544 23.6735 138.476 23.7412C138.339 23.8791 138.342 24.105 138.482 24.2456C138.553 24.3168 138.647 24.3528 138.74 24.3528C138.829 24.3528 138.919 24.3194 138.987 24.2518C139.061 24.1771 139.093 24.0769 139.086 23.9776L148.339 14.1244Z" fill="#1364DC"/>
<path d="M144.862 14.1249L145.173 13.8331L145.155 13.8138L145.166 13.8014L144.97 13.616L135.61 3.64856C135.617 3.54926 135.586 3.44907 135.511 3.37437C135.373 3.2364 135.147 3.23992 135.007 3.38053C134.866 3.52113 134.863 3.74787 135 3.88496C135.066 3.95087 135.153 3.9869 135.247 3.9869C135.25 3.9869 135.252 3.9869 135.254 3.9869C135.256 3.9869 135.257 3.98691 135.258 3.98603L144.485 13.8129L135.258 23.6406C135.256 23.6406 135.255 23.6406 135.254 23.6397C135.157 23.6397 135.067 23.674 135 23.7417C134.862 23.8796 134.865 24.1055 135.006 24.2461C135.077 24.3173 135.171 24.3533 135.263 24.3533C135.353 24.3533 135.442 24.3199 135.51 24.2522C135.585 24.1775 135.616 24.0774 135.609 23.9781L144.862 14.1249Z" fill="#1364DC"/>
<path d="M5.25 10.0015H8.87305V23.9364H5.25V10.0015Z" fill="#151515"/>
<path d="M13.2273 4.43638C13.1494 3.77277 12.8873 3.14421 12.4707 2.62185C12.0541 2.09948 11.4995 1.70416 10.8699 1.48063C10.2402 1.25711 9.56056 1.2143 8.90783 1.35705C8.2551 1.4998 7.65536 1.82242 7.17649 2.28838L8.803 4.17978L8.83197 4.14667C8.9361 4.02345 9.06612 3.92471 9.21277 3.85747C9.35941 3.79023 9.51908 3.75614 9.6804 3.75763C9.9407 3.74462 10.1962 3.83099 10.3952 3.99927C10.5942 4.16755 10.7219 4.40517 10.7523 4.66401C10.7565 4.71367 10.7606 4.76748 10.7606 4.80886C10.7596 4.9514 10.73 5.09228 10.6734 5.22313C10.6169 5.35399 10.5347 5.47215 10.4316 5.57059C10.3285 5.66904 10.2067 5.74577 10.0734 5.79621C9.94009 5.84665 9.798 5.86979 9.65557 5.86424C9.49643 5.86705 9.33876 5.83346 9.19458 5.76604C9.05041 5.69861 8.92355 5.59913 8.82369 5.4752C8.46859 5.06133 6.63888 2.92864 6.16665 2.38357C5.83185 2.03023 5.42802 1.74945 4.98021 1.55865C4.5324 1.36785 4.05017 1.2711 3.56341 1.2744C2.68322 1.25997 1.82981 1.57716 1.1727 2.16296C0.5156 2.74876 0.102888 3.56031 0.0165548 4.43638C0.00413869 4.56054 0 4.68884 0 4.81714C0 4.94544 0.00413869 5.07374 0.0165548 5.1979C0.103627 6.07368 0.516556 6.88478 1.1735 7.47043C1.83044 8.05609 2.68343 8.37354 3.56341 8.35989C4.49853 8.36647 5.39842 8.00354 6.06732 7.35004L4.44082 5.4545L4.41185 5.48761C4.30771 5.61083 4.17769 5.70957 4.03104 5.77681C3.8844 5.84406 3.72473 5.87815 3.56341 5.87665C3.30311 5.88967 3.04759 5.80329 2.84858 5.63501C2.64956 5.46673 2.52192 5.22912 2.49149 4.97027C2.48735 4.92061 2.48321 4.86681 2.48321 4.81714C2.48321 4.76748 2.48735 4.71367 2.49149 4.66401C2.52192 4.40517 2.64956 4.16755 2.84858 3.99927C3.04759 3.83099 3.30311 3.74462 3.56341 3.75763C3.72473 3.75614 3.8844 3.79023 4.03104 3.85747C4.17769 3.92471 4.30771 4.02345 4.41185 4.14667C4.7686 4.56385 6.46174 6.53968 7.06888 7.24243C7.55725 7.75208 8.18512 8.10631 8.87387 8.26076C9.56262 8.41522 10.2816 8.36303 10.9409 8.11073C11.6001 7.85844 12.1702 7.41726 12.5799 6.84243C12.9895 6.26761 13.2205 5.5847 13.2438 4.87922V4.81714C13.2438 4.68884 13.2397 4.56054 13.2273 4.43638Z" fill="#1364DC"/>
</svg>
