<svg width="270" height="195" viewBox="0 0 270 195" fill="none" xmlns="http://www.w3.org/2000/svg">
<g clip-path="url(#clip0_203_30902)">
<path d="M107.84 146.285H43.4138V151.085H107.84V146.285Z" fill="white"/>
<path d="M43.9192 151.085L33.3079 187.13" stroke="white" stroke-width="0.481974" stroke-miterlimit="10"/>
<path d="M45.3508 151.085L55.9201 187.13" stroke="white" stroke-width="0.481974" stroke-miterlimit="10"/>
<path d="M105.945 151.085L116.514 187.13" stroke="white" stroke-width="0.481974" stroke-miterlimit="10"/>
<path d="M105.945 151.085L95.3337 187.13" stroke="white" stroke-width="0.481974" stroke-miterlimit="10"/>
<path d="M40.3401 163.086H102.408" stroke="white" stroke-width="1.43695" stroke-miterlimit="10"/>
<path d="M36.2134 177.024H98.2814" stroke="white" stroke-width="1.43695" stroke-miterlimit="10"/>
<path d="M83.5854 140.685L82.7432 139L77.6059 139.169L77.5217 140.685L79.9219 144.853L84.217 141.527L83.5854 140.685Z" fill="#C77566"/>
<path d="M83.8801 140.643L80.2167 144.474C80.2167 144.474 78.027 141.106 77.5639 140.685C77.4796 140.6 77.3533 140.685 77.3112 140.811L76.7217 146.327H91.9229C92.0913 146.327 92.2597 146.159 92.2597 145.906V144.727C92.2597 144.559 92.1755 144.39 92.0492 144.348L83.8801 140.643Z" fill="#4475AB"/>
<path d="M58.7836 140.685L57.9414 139L53.2253 138.284L52.72 140.685L55.1202 144.853L59.4152 141.527L58.7836 140.685Z" fill="#C77566"/>
<path d="M59.0784 140.643C59.0784 140.643 57.2677 142.874 55.5413 144.222C54.4885 145.022 53.2253 141.106 52.7621 140.685C52.6779 140.6 52.5515 140.685 52.5094 140.811L51.9199 146.327H67.1211C67.2895 146.327 67.458 146.159 67.458 145.906V144.727C67.458 144.559 67.3738 144.39 67.2474 144.348L59.0784 140.643Z" fill="#4475AB"/>
<path d="M82.6592 74.0268C82.6592 74.0268 84.5962 97.4392 84.8067 103.924C84.9752 110.409 83.7119 139.253 83.7119 139.253L77.4377 139.295C77.4377 139.295 69.9003 91.0387 61.9839 75.4164L82.6592 74.0268Z" fill="#172A3F"/>
<path d="M79.1221 132.852L79.1642 139.169" stroke="white" stroke-width="0.216059" stroke-miterlimit="10"/>
<path d="M72.7637 75.2901C72.7637 75.2901 78.322 102.324 78.322 106.493C78.322 107.166 79.0799 128.936 79.1221 130.621" stroke="#4475AB" stroke-width="0.216059" stroke-miterlimit="10"/>
<path d="M77.1431 136.432L83.7541 136.221" stroke="#4475AB" stroke-width="0.216059" stroke-miterlimit="10"/>
<path d="M79.7114 73.9005C79.7114 73.9005 78.1113 93.5652 73.5214 107.377C69.8159 118.536 58.7413 139.379 58.7413 139.379L52.425 139.674L60.3415 107.714C60.7625 106.029 61.0152 104.345 61.1415 102.619C61.5626 96.1338 60.2151 83.038 59.6677 74.6163L79.7114 73.9005Z" fill="#1B314F"/>
<path d="M66.0261 106.577C62.6574 117.272 55.7095 139.632 55.7095 139.632" stroke="#4475AB" stroke-width="0.216059" stroke-miterlimit="10"/>
<path d="M66.7842 74.4058C66.7842 74.4058 68.9317 99.713 66.9947 103.629" stroke="#4475AB" stroke-width="0.216059" stroke-miterlimit="10"/>
<path d="M53.3936 136.769L60.1309 137.148" stroke="#4475AB" stroke-width="0.216059" stroke-miterlimit="10"/>
<path d="M107.04 49.3933C108.977 46.1931 113.23 40.2979 113.23 40.2979L116.851 34.4027C117.188 33.8553 117.104 33.1394 116.683 32.6762C115.125 30.9077 112.472 30.3603 111.84 30.8656C111.672 30.9919 110.704 32.8026 110.198 32.971C109.693 33.0973 107.545 29.8129 106.956 30.6129C106.619 31.0761 108.893 35.6238 108.893 35.6238C107.966 36.8029 106.408 38.4872 106.408 38.4872L107.04 49.3933Z" fill="#C77566"/>
<path d="M111.503 31.7499L115.167 34.9501C115.293 35.0764 115.083 35.0343 114.998 35.2028C114.156 37.224 110.914 36.4239 110.788 32.7183L111.503 31.7499Z" fill="#A85446"/>
<path d="M100.008 45.8141C100.008 45.8141 81.1011 27.2021 76.8061 36.8029C74.6164 41.7296 94.8706 55.457 101.313 58.1519C102.071 58.4467 102.913 58.194 103.334 57.4782L113.356 40.0873L108.514 36.2134L100.008 45.8141Z" fill="#C77566"/>
<path d="M100.008 45.8141C100.008 45.8141 82.4065 24.7177 78.1114 34.2764C75.9218 39.2031 87.0805 56.8465 101.482 58.4046C102.282 58.4888 103.082 58.4467 103.503 57.7308L113.356 40.0873L108.514 36.2134L100.008 45.8141Z" fill="#6FABCB"/>
<path d="M100.008 45.8141C100.008 45.8141 82.4065 24.7177 78.1114 34.2764C75.9218 39.2031 87.0805 56.8465 101.482 58.4046C102.282 58.4888 103.082 58.4467 103.503 57.7308L113.356 40.0873L108.514 36.2134L100.008 45.8141Z" fill="#8BC0BD"/>
<mask id="mask0_203_30902" style="mask-type:luminance" maskUnits="userSpaceOnUse" x="77" y="31" width="37" height="28">
<path d="M100.008 45.8141C100.008 45.8141 82.4065 24.7177 78.1114 34.2764C75.9218 39.2031 87.0805 56.8465 101.482 58.4046C102.282 58.4888 103.082 58.4467 103.503 57.7308L113.356 40.0873L108.514 36.2134L100.008 45.8141Z" fill="white"/>
</mask>
<g mask="url(#mask0_203_30902)">
<path d="M101.229 60.2995C100.05 57.4361 98.8709 53.52 101.608 51.1619C102.998 49.9829 104.85 49.1828 106.493 48.5512C108.177 47.8774 109.903 47.3721 111.63 46.9932C113.693 46.53 115.841 46.3194 117.946 46.3194C118.157 46.3194 118.157 45.9825 117.946 45.9825C114.03 46.0247 110.114 46.7405 106.45 48.2143C104.766 48.888 102.998 49.646 101.566 50.7408C100.26 51.7514 99.5867 53.1831 99.5025 54.8253C99.4183 56.7623 100.092 58.6993 100.808 60.4258C100.976 60.5942 101.313 60.4679 101.229 60.2995Z" fill="white"/>
</g>
<path d="M61.5628 38.5714C62.8261 33.1815 72.3847 29.9813 72.3847 29.9813L75.8376 28.4233L75.7955 28.5917L80.3432 34.0658L82.2802 32.971L82.3644 32.0446L83.8803 32.9289C84.5541 33.1394 87.1227 37.3082 87.8385 39.161C88.6386 41.1401 88.8913 43.3297 88.5965 45.4772L84.9752 82.5749L56.6782 78.1535C56.6782 78.1114 59.6258 46.8247 61.5628 38.5714Z" fill="#8BC0BD"/>
<path d="M64.2156 34.5711C62.9524 35.7081 61.9418 37.0555 61.5628 38.5714C59.6258 46.8247 56.6782 78.1114 56.6782 78.1114L84.9752 82.5328L86.4911 67.121C80.0485 55.5833 72.8479 44.593 64.2156 34.5711Z" fill="#80ADAA"/>
<path d="M89.6067 16.2118C89.6067 16.2118 89.1856 24.1703 86.7012 27.539C86.3643 27.96 85.8169 28.2127 85.2695 28.1285C84.3431 28.0443 83.4588 27.7495 83.0377 27.6232C83.0377 27.2442 82.1114 30.1918 82.364 32.971V33.0131C81.985 34.6553 79.7533 35.0343 78.869 33.6026L76.0056 29.0128C76.0056 29.0128 77.4794 24.5914 77.9005 23.0755C78.111 22.2754 78.2795 21.4753 78.3216 21.0121C77.3531 20.7595 77.4373 18.9067 77.9847 17.9803C78.49 17.1381 80.2586 17.5171 80.427 18.4014C80.4691 18.6962 80.7218 19.033 81.1429 18.6962C81.4797 18.4014 82.1114 15.4959 82.9114 15.2433C85.3958 16.1275 87.796 16.4223 88.6803 16.3381C89.4382 16.2539 89.6067 16.2118 89.6067 16.2118Z" fill="#BC6A55"/>
<path d="M78.1111 19.4541C78.9111 17.7698 79.8375 19.412 79.8375 19.412L78.1111 19.4541Z" fill="#854A3C"/>
<path d="M83.543 27.8337L81.3113 27.0337L82.1535 33.3078L83.543 27.8337Z" fill="#854A3C"/>
<path d="M86.4905 20.8437C86.4905 20.8437 86.8695 23.5387 86.7432 23.5387C86.4905 23.4965 85.8589 23.3281 85.8589 23.3281L86.4905 20.8437Z" fill="#854A3C"/>
<path d="M86.996 21.5595C86.9539 21.8122 86.996 22.0648 87.1223 22.0648C87.2487 22.107 87.375 21.8964 87.4171 21.6438C87.4592 21.3911 87.4171 21.1385 87.2908 21.1385C87.1644 21.1385 87.0381 21.3069 86.996 21.5595Z" fill="#191836"/>
<path d="M84.8905 21.2227C84.8484 21.4753 84.8905 21.728 85.0169 21.728C85.1432 21.7701 85.2695 21.5596 85.3116 21.3069C85.3537 21.0542 85.3116 20.8016 85.1853 20.8016C85.1011 20.8016 84.9748 20.97 84.8905 21.2227Z" fill="#191836"/>
<path d="M84.0483 19.2857C83.7536 19.2857 84.2167 18.6541 85.48 18.6541C85.9011 18.6541 86.1537 19.1594 85.9011 19.4541C85.6905 19.6226 85.1431 19.3278 84.0483 19.2857Z" fill="#191836"/>
<path d="M88.7645 20.17C89.0171 20.2963 88.975 19.412 88.175 18.9488C87.6275 18.6541 87.3749 19.1594 87.5012 19.5804C87.5854 19.791 88.3013 19.9594 88.7645 20.17Z" fill="#191836"/>
<path d="M87.3748 24.1282L84.2588 23.4123C84.2588 23.4123 84.6799 24.844 85.6063 25.0546C86.3221 25.223 87.3748 24.1282 87.3748 24.1282Z" fill="white"/>
<path d="M77.9005 22.7386C77.6478 22.7386 77.4794 22.528 77.3952 22.3175C77.353 22.107 77.3952 21.8543 77.4373 21.6017C77.0162 21.6017 76.7214 21.1806 76.5951 20.8016C76.2161 19.791 76.2582 18.6541 76.5951 17.6013C76.932 16.5907 77.5636 15.6644 78.3637 14.9064C78.3637 14.9064 78.3637 14.9064 78.3637 14.8643C78.9532 12.1272 80.9744 10.4429 83.7535 10.7798C88.2592 11.3272 91.1225 10.5271 91.8384 12.8431C92.2174 14.0221 90.3225 15.2854 89.9014 16.3802C89.733 16.7592 89.5224 17.0118 89.1434 17.1382C88.596 17.3487 88.2171 16.8434 88.2171 16.3381C88.0065 16.675 87.6696 17.1803 87.2907 17.2645C86.3222 17.4329 85.9853 17.1382 85.6484 16.8434C85.2273 16.4644 84.6799 16.2539 84.1325 16.1697C84.0904 16.1697 84.0062 16.1275 83.922 16.1275C83.3746 16.0012 82.8272 16.4223 82.7429 16.9697C82.6587 17.6013 82.3219 18.233 81.8166 18.6541C81.5218 18.9067 81.0586 19.0751 80.7217 18.9067C80.3849 18.7383 80.3006 18.3172 80.0901 18.0224C79.8374 17.6435 79.4585 17.5171 78.9532 17.5592C78.4479 17.5592 78.0268 17.854 77.7741 18.2751C77.5215 18.7383 77.4794 19.1594 77.5215 19.6647C77.5636 20.1279 77.6478 20.5489 78.0689 20.8016C78.1531 20.8437 78.2373 20.8858 78.2794 20.97C78.3215 21.0542 78.3215 21.1385 78.2794 21.2227C78.1952 21.6438 78.0268 22.1491 77.9426 22.528" fill="#F5C679"/>
<mask id="mask1_203_30902" style="mask-type:luminance" maskUnits="userSpaceOnUse" x="56" y="28" width="33" height="55">
<path d="M61.5628 38.5714C62.8261 33.1815 72.3847 29.9813 72.3847 29.9813L75.8376 28.4233L75.7955 28.5917L80.3432 34.0658L82.2802 32.971L82.3644 32.0446L83.8803 32.9289C84.5541 33.1394 87.1227 37.3082 87.8385 39.161C88.6386 41.1401 88.8913 43.3297 88.5965 45.4772L84.9752 82.5749L56.6782 78.1535C56.6782 78.1114 59.6258 46.8247 61.5628 38.5714Z" fill="white"/>
</mask>
<g mask="url(#mask1_203_30902)">
<path d="M56.2569 41.7296C58.4466 43.5823 60.1309 45.8562 61.5205 48.3406C62.9943 50.9092 64.2154 53.6042 65.3103 56.3412C66.4051 59.2046 67.2051 62.3206 66.4893 65.3524C65.8998 67.7947 64.426 69.9002 62.6153 71.6687C60.552 73.6899 58.1097 75.2901 55.6674 76.806C55.4569 76.9323 55.6674 77.2271 55.8358 77.1007C60.0467 74.49 64.805 71.374 66.5314 66.4894C67.542 63.5839 67.1209 60.51 66.1524 57.6466C65.1839 54.7411 63.8786 51.9198 62.4469 49.267C60.931 46.3615 59.0361 43.6244 56.5096 41.519C56.3411 41.3506 56.0885 41.6032 56.2569 41.7296Z" fill="white"/>
</g>
<mask id="mask2_203_30902" style="mask-type:luminance" maskUnits="userSpaceOnUse" x="56" y="28" width="33" height="55">
<path d="M61.5628 38.5714C62.8261 33.1815 72.3847 29.9813 72.3847 29.9813L75.8376 28.4233L75.7955 28.5917L80.3432 34.0658L82.2802 32.971L82.3644 32.0446L83.8803 32.9289C84.5541 33.1394 87.1227 37.3082 87.8385 39.161C88.6386 41.1401 88.8913 43.3297 88.5965 45.4772L84.9752 82.5749L56.6782 78.1535C56.6782 78.1114 59.6258 46.8247 61.5628 38.5714Z" fill="white"/>
</mask>
<g mask="url(#mask2_203_30902)">
<path d="M96.3445 62.6575C93.2705 60.7626 89.4387 60.889 86.2384 62.3628C84.6383 63.1207 83.1645 64.1734 81.9012 65.3946C80.7643 66.4894 79.4168 67.879 79.4589 69.5633C79.4589 70.7845 80.5959 72.0898 81.8591 71.9635C83.1645 71.8372 83.6277 70.2792 83.1645 69.1844C82.4907 67.7106 80.5959 67.2052 79.1221 67.3316C77.3956 67.4579 75.9218 68.4264 74.827 69.7318C72.1741 72.8899 70.9109 77.185 71.0793 81.2695C71.0793 81.48 71.4583 81.48 71.4162 81.2695C71.2899 78.1114 72.0057 74.9111 73.5637 72.1741C74.2796 70.8687 75.206 69.5633 76.4271 68.6369C77.7325 67.7105 79.4589 67.3737 80.9748 67.879C81.7328 68.1316 82.5328 68.6369 82.8276 69.437C83.0803 70.0686 82.9539 70.9108 82.4065 71.3319C81.817 71.8372 80.9748 71.5845 80.4695 71.0792C79.9221 70.5739 79.7116 69.9423 79.7537 69.2265C79.9221 67.6263 81.3117 66.321 82.4065 65.3104C83.5435 64.2998 84.7646 63.4155 86.1121 62.7417C89.2281 61.2258 93.06 61.0574 96.0918 62.9102C96.3866 63.0786 96.555 62.7838 96.3445 62.6575Z" fill="white"/>
</g>
<mask id="mask3_203_30902" style="mask-type:luminance" maskUnits="userSpaceOnUse" x="56" y="28" width="33" height="55">
<path d="M61.5628 38.5714C62.8261 33.1815 72.3847 29.9813 72.3847 29.9813L75.8376 28.4233L75.7955 28.5917L80.3432 34.0658L82.2802 32.971L82.3644 32.0446L83.8803 32.9289C84.5541 33.1394 87.1227 37.3082 87.8385 39.161C88.6386 41.1401 88.8913 43.3297 88.5965 45.4772L84.9752 82.5749L56.6782 78.1535C56.6782 78.1114 59.6258 46.8247 61.5628 38.5714Z" fill="white"/>
</mask>
<g mask="url(#mask3_203_30902)">
<path d="M72.0056 24.3387C72.3004 26.1494 73.0162 27.918 73.9005 29.5602C74.8269 31.3288 75.9638 33.0131 77.4376 34.3606C78.9114 35.6659 80.6379 36.2976 82.617 36.0028C84.1329 35.7923 84.6382 34.3606 84.975 33.0552C85.2277 32.1288 85.3961 31.1603 85.6488 30.2339C85.8593 29.3918 86.0278 28.5075 86.5331 27.8338C86.6594 27.6653 86.3646 27.539 86.2804 27.6653C85.4803 28.8023 85.3119 30.3603 85.0172 31.7077C84.8487 32.4657 84.6803 33.2658 84.3855 34.0237C84.175 34.6132 83.8381 35.287 83.2486 35.5817C82.3643 36.0449 80.8905 35.8765 79.922 35.5817C79.122 35.3291 78.4482 34.8659 77.8166 34.3606C76.3428 33.1394 75.248 31.4972 74.3216 29.855C73.3952 28.1285 72.5951 26.2757 72.2583 24.3387C72.2583 24.0861 72.0056 24.1282 72.0056 24.3387Z" fill="white"/>
</g>
<path d="M194.709 64.384L200.436 55.1201C200.31 54.1516 200.857 52.383 202.626 50.9092C205.91 48.1722 207.974 49.0565 209.911 49.8986C214.037 51.6672 216.437 58.8677 216.522 64.805" fill="#D4603F"/>
<path d="M209.868 51.8356C209.405 50.6566 209.616 49.2249 210.374 48.2143C210.669 47.8353 211.048 47.4984 211.511 47.4142C212.142 47.2879 212.816 47.5827 213.321 48.0458C213.869 48.509 214.29 49.1828 214.416 49.8565C214.543 50.5724 214.374 51.3303 213.911 51.8777C213.658 52.1725 213.364 52.3409 213.027 52.5094C212.521 52.762 211.974 52.9304 211.427 52.8462C210.879 52.762 210.332 52.4251 210.163 51.8777" fill="#D4603F"/>
<path d="M202.752 61.2679C202.752 60.2573 201.952 59.4573 200.942 59.4573C199.931 59.4573 199.131 60.2573 199.131 61.2679C199.131 62.2785 199.931 63.0786 200.942 63.0786C201.91 63.0786 202.752 62.2364 202.752 61.2679Z" stroke="white" stroke-width="0.544632" stroke-miterlimit="10"/>
<path d="M208.479 57.815C208.563 59.8362 209.7 57.8992 209.869 57.8992C210.416 57.8992 211.637 57.7729 211.848 59.2046C212.016 60.6363 210.669 61.4364 209.826 61.4785C209.574 61.4785 207.932 61.5627 207.763 61.7732C207.258 62.3206 207.932 67.0789 208.142 68.9738C208.521 72.3004 209.49 69.6054 209.49 69.6054C209.49 69.6054 197.91 81.9432 201.11 69.6054C201.11 69.6054 201.784 61.9417 201.742 61.8996C201.405 61.8575 199.51 61.0995 199.594 58.3203C199.678 56.2149 200.563 54.1937 202.163 52.762C203.131 51.8777 204.142 51.3724 204.647 51.1198C204.647 51.1619 204.731 56.9308 208.479 57.815Z" fill="#FFA47E"/>
<path d="M211.216 59.5836C211.216 59.5836 210.374 57.7729 209.279 60.1731L211.216 59.5836Z" fill="#FA7235"/>
<path d="M204.058 57.7308C203.594 57.7308 203.173 58.1098 203.173 58.573C203.173 59.0362 203.552 59.4573 204.016 59.4573C204.479 59.4573 204.9 59.0783 204.9 58.6151C204.9 58.1519 204.521 57.7729 204.058 57.7308Z" fill="#FF795A"/>
<path d="M199.636 58.1519C200.226 58.0677 200.647 57.5624 200.689 56.9308C200.689 56.4676 200.436 56.0465 200.057 55.7938C200.057 55.7938 199.51 57.1834 199.636 58.1519Z" fill="#FF795A"/>
<path d="M200.689 57.4782L202.626 58.4467C202.626 58.4467 201.699 59.1204 201.152 58.7414C200.689 58.3624 200.689 57.4782 200.689 57.4782Z" fill="white"/>
<path d="M202.457 55.7517L201.868 57.4361L201.194 57.1413C201.068 57.0992 201.068 56.9308 201.152 56.8465L202.457 55.7517Z" fill="#FA7235"/>
<path d="M204.479 55.7517C204.647 56.0044 204.563 55.1622 204.268 54.9938C203.973 54.8253 203.636 54.8253 203.468 55.078C203.468 55.078 204.058 55.1622 204.479 55.7517Z" fill="black"/>
<path d="M201.194 53.941C200.899 54.0253 201.489 53.4357 201.826 53.4779C202.163 53.52 202.415 53.7726 202.373 54.0253C202.415 54.0253 201.868 53.7305 201.194 53.941Z" fill="black"/>
<path d="M203.552 56.5939C203.468 56.8044 203.3 56.9729 203.173 56.9308C203.047 56.8886 203.047 56.6781 203.131 56.4255C203.215 56.2149 203.384 56.0465 203.51 56.0886C203.637 56.1307 203.637 56.3412 203.552 56.5939Z" fill="black"/>
<path d="M201.784 55.7096C201.699 55.9201 201.531 56.0886 201.447 56.0465C201.32 56.0044 201.32 55.7938 201.405 55.5833C201.489 55.3727 201.657 55.2043 201.742 55.2464C201.826 55.2885 201.868 55.4991 201.784 55.7096Z" fill="black"/>
<path d="M201.741 61.8575C201.741 61.8575 204.226 62.6154 205.363 62.2364C205.784 62.1101 201.531 65.3525 201.741 61.8575Z" fill="#FA7235"/>
<path d="M210.711 61.9838C210.711 60.9732 209.911 60.1731 208.9 60.1731C207.889 60.1731 207.089 60.9732 207.089 61.9838C207.089 62.9944 207.889 63.7944 208.9 63.7944C209.911 63.7944 210.711 62.9523 210.711 61.9838Z" stroke="white" stroke-width="0.544632" stroke-miterlimit="10"/>
<path d="M203.047 173.319L202.163 179.551C202.163 179.551 202.121 185.109 200.815 183.509C199.51 181.909 196.857 179.635 196.857 179.635L196.436 173.15L203.047 173.319Z" fill="#FF9C78"/>
<path d="M196.436 179.593L189.151 183.804C188.898 184.014 189.067 184.351 189.446 184.351C189.446 184.351 202.794 184.267 202.836 184.141C202.921 183.13 202.457 179.551 202.289 178.624C202.247 178.498 201.068 183.046 200.857 182.625C200.563 182.077 197.32 179.888 197.11 179.677C196.899 179.467 196.604 179.467 196.436 179.593Z" fill="#8BC0BD"/>
<path d="M224.48 173.319L226.67 179.425C226.67 179.425 227.175 184.857 228.481 183.256C229.786 181.656 232.144 179.593 232.144 179.593L231.091 173.108L224.48 173.319Z" fill="#FF9C78"/>
<path d="M232.607 179.593L239.934 183.804C240.187 184.014 240.018 184.351 239.64 184.351C239.64 184.351 226.249 184.267 226.249 184.141C226.165 183.13 226.249 178.709 226.375 178.709C226.796 178.709 227.344 182.877 228.228 182.583C228.818 182.372 231.765 179.846 231.976 179.635C232.102 179.467 232.439 179.467 232.607 179.593Z" fill="#8BC0BD"/>
<path d="M213.658 90.9966C216.059 95.2074 217.322 98.3235 218.669 103.713C220.269 109.945 233.66 165.655 234.418 177.024C232.439 177.488 226.333 177.698 225.07 177.656C221.112 166.329 208.058 126.326 206.374 119.167C206.121 118.072 205.237 118.03 205.363 119.125C206.332 127.252 204.984 162.707 205.363 176.645C204.352 177.151 195.215 177.319 194.036 177.193C192.73 163.213 188.73 107.924 199.089 90.786C203.847 90.1123 208.858 90.8281 213.658 90.9966Z" fill="#1B314F"/>
<path d="M196.394 139.632C197.278 139.632 197.278 138.242 196.394 138.242C195.51 138.2 195.51 139.632 196.394 139.632Z" fill="white"/>
<path d="M215.89 110.198C216.775 110.198 216.775 108.808 215.89 108.808C215.006 108.808 215.006 110.198 215.89 110.198Z" fill="white"/>
<path d="M213.111 126.915C213.995 126.915 213.995 125.526 213.111 125.526C212.227 125.526 212.227 126.915 213.111 126.915Z" fill="white"/>
<path d="M223.049 139.927C223.933 139.927 223.933 138.537 223.049 138.537C222.122 138.537 222.122 139.927 223.049 139.927Z" fill="white"/>
<path d="M222.122 156.349C223.007 156.349 223.007 154.959 222.122 154.959C221.196 154.959 221.196 156.349 222.122 156.349Z" fill="white"/>
<path d="M229.533 170.287C230.418 170.287 230.418 168.897 229.533 168.897C228.649 168.897 228.649 170.287 229.533 170.287Z" fill="white"/>
<path d="M204.437 106.45C205.321 106.45 205.321 105.061 204.437 105.061C203.553 105.061 203.553 106.45 204.437 106.45Z" fill="white"/>
<path d="M196.394 117.02C197.278 117.02 197.278 115.63 196.394 115.63C195.51 115.588 195.51 117.02 196.394 117.02Z" fill="white"/>
<path d="M202.289 126.62C203.174 126.62 203.174 125.231 202.289 125.231C201.363 125.189 201.363 126.62 202.289 126.62Z" fill="white"/>
<path d="M200.436 146.748C201.321 146.748 201.321 145.359 200.436 145.359C199.51 145.359 199.51 146.748 200.436 146.748Z" fill="white"/>
<path d="M196.394 160.686C197.278 160.686 197.278 159.297 196.394 159.297C195.51 159.297 195.51 160.686 196.394 160.686Z" fill="white"/>
<path d="M201.026 171.213C201.91 171.213 201.91 169.824 201.026 169.824C200.141 169.824 200.141 171.213 201.026 171.213Z" fill="white"/>
<path d="M180.73 76.427C180.73 76.427 191.888 85.3961 191.93 85.1435C193.278 79.4588 195.173 67.121 200.057 68.3422C200.142 68.3422 199.594 68.7633 199.426 68.9738C197.826 70.995 197.068 80.7642 197.068 80.7642C197.026 80.9326 197.026 81.5643 197.026 82.5328C198.752 92.4283 195.341 94.8284 195.341 94.8284C192.351 96.9339 177.529 80.5537 177.529 80.5537" fill="#FFA47E"/>
<path d="M201.237 68.1737C201.237 68.1737 197.11 66.7841 195.636 70.4897C194.541 73.1425 192.688 77.8166 192.688 77.8166L199.931 82.0696C199.931 82.1117 201.279 71.7108 201.237 68.1737Z" fill="white"/>
<path d="M201.194 68.3001C201.321 68.6369 195.636 78.9535 195.762 82.238C195.931 85.5646 196.015 90.6597 195.847 91.165C195.847 91.165 208.648 91.165 214.753 91.2492C215.216 84.5119 215.132 73.4373 213.658 69.3528C213.658 69.3528 209.153 67.3737 207.974 67.2895C207.974 67.2895 201.573 74.49 201.194 68.3001Z" fill="white"/>
<path d="M204.858 91.2071C208.395 91.2071 212.185 91.2492 214.795 91.2913C215.132 86.0699 215.174 78.2377 214.501 73.1004C211.595 79.2483 208.353 85.3119 204.858 91.2071Z" fill="#F5C679"/>
<path d="M101.692 147.338C101.313 147.212 100.765 139.042 100.723 138.958C100.092 136.179 110.492 138.663 116.303 139.421L126.157 124.431L129.947 128.389L122.493 144.685C122.493 144.685 119.967 147.969 118.704 148.18C113.693 148.98 104.05 148.012 101.692 147.338Z" fill="#E37059"/>
<path d="M126.704 124.852C126.704 124.852 131.336 121.567 131.631 122.283C131.884 122.999 129.989 124.768 129.989 124.768L130.326 126.578L129.862 127.884L126.704 124.852Z" fill="#FFB7A3"/>
<path d="M111.714 108.008C114.03 110.324 117.061 111.419 120.093 111.335L107.503 123.925L143.8 160.223L180.098 123.925L168.223 112.051C167.971 114.535 166.876 116.978 164.939 118.872C160.475 123.336 153.275 123.336 148.811 118.872C144.348 114.409 144.348 107.208 148.811 102.745C150.706 100.85 153.148 99.7552 155.633 99.4604L143.758 87.5858L131.21 100.218C131.294 97.1866 130.199 94.1547 127.883 91.8388C123.42 87.3753 116.219 87.3753 111.756 91.8388C107.292 96.3023 107.292 103.545 111.714 108.008Z" fill="#F5C679"/>
<path d="M156.18 11.9588C155.675 11.4535 154.833 11.4535 154.328 11.9588C153.822 12.4641 153.822 13.3063 154.328 13.8116C154.833 14.3169 155.675 14.3169 156.18 13.8116C156.686 13.3063 156.686 12.4641 156.18 11.9588Z" stroke="white" stroke-width="0.574992" stroke-miterlimit="10"/>
<path d="M235.218 113.988C235.939 113.988 236.524 113.403 236.524 112.682C236.524 111.962 235.939 111.377 235.218 111.377C234.497 111.377 233.913 111.962 233.913 112.682C233.913 113.403 234.497 113.988 235.218 113.988Z" stroke="white" stroke-width="0.574992" stroke-miterlimit="10"/>
<path d="M100.934 112.935C101.655 112.935 102.239 112.351 102.239 111.63C102.239 110.909 101.655 110.324 100.934 110.324C100.213 110.324 99.6287 110.909 99.6287 111.63C99.6287 112.351 100.213 112.935 100.934 112.935Z" stroke="white" stroke-width="0.574992" stroke-miterlimit="10"/>
<path d="M157.023 10.6114C156.517 10.1061 155.675 10.1061 155.17 10.6114C154.665 11.1167 154.665 11.9588 155.17 12.4641C155.675 12.9694 156.517 12.9694 157.023 12.4641C157.57 11.9167 157.57 11.1167 157.023 10.6114Z" fill="#8BC0BD"/>
<path d="M178.961 165.866C179.677 165.992 180.351 165.529 180.477 164.813C180.603 164.097 180.14 163.423 179.424 163.297C178.708 163.171 178.035 163.634 177.908 164.35C177.782 165.066 178.245 165.739 178.961 165.866Z" stroke="white" stroke-width="0.574992" stroke-miterlimit="10"/>
<path d="M171.718 167.929C172.434 168.055 173.108 167.592 173.234 166.876C173.361 166.16 172.898 165.487 172.182 165.36C171.466 165.234 170.792 165.697 170.666 166.413C170.539 167.129 171.003 167.803 171.718 167.929Z" fill="#8BC0BD"/>
<path d="M240.903 103.755C241.624 103.755 242.208 103.171 242.208 102.45C242.208 101.729 241.624 101.145 240.903 101.145C240.182 101.145 239.598 101.729 239.598 102.45C239.598 103.171 240.182 103.755 240.903 103.755Z" fill="#4475AB"/>
<path d="M98.9971 81.059C99.6708 80.8484 100.05 80.0905 99.8392 79.4167C99.6287 78.743 98.8707 78.364 98.197 78.5746C97.5233 78.7851 97.1443 79.543 97.3548 80.2168C97.5654 80.8905 98.2812 81.2695 98.9971 81.059Z" stroke="white" stroke-width="0.574992" stroke-miterlimit="10"/>
<path d="M102.029 114.367C102.75 114.367 103.334 113.782 103.334 113.061C103.334 112.341 102.75 111.756 102.029 111.756C101.308 111.756 100.724 112.341 100.724 113.061C100.724 113.782 101.308 114.367 102.029 114.367Z" fill="#E37F63"/>
<path d="M27.0336 67.0789C27.7546 67.0789 28.339 66.4945 28.339 65.7736C28.339 65.0526 27.7546 64.4682 27.0336 64.4682C26.3127 64.4682 25.7283 65.0526 25.7283 65.7736C25.7283 66.4945 26.3127 67.0789 27.0336 67.0789Z" stroke="white" stroke-width="0.574992" stroke-miterlimit="10"/>
<path d="M25.8967 65.6472C26.6176 65.6472 27.202 65.0628 27.202 64.3419C27.202 63.6209 26.6176 63.0365 25.8967 63.0365C25.1757 63.0365 24.5913 63.6209 24.5913 64.3419C24.5913 65.0628 25.1757 65.6472 25.8967 65.6472Z" fill="#E37F63"/>
<path d="M155.254 52.2567C152.938 49.9408 149.906 48.8459 146.875 48.9301L159.465 36.3397L123.167 1.14441e-05L86.8699 36.2976L98.7445 48.1722C98.9971 45.6878 100.092 43.2455 102.029 41.3506C106.492 36.8871 113.693 36.8871 118.157 41.3506C122.62 45.8141 122.62 53.0147 118.157 57.4782C116.262 59.3731 113.819 60.4679 111.335 60.7626L123.21 72.6373L135.8 60.0468C135.716 63.0786 136.811 66.1104 139.127 68.4264C143.59 72.8899 150.791 72.8899 155.254 68.4264C159.718 63.9208 159.718 56.7202 155.254 52.2567Z" fill="#4475AB"/>
<path d="M95.5443 45.6457C96.597 41.9401 98.6182 36.5081 98.6182 36.5081C98.6182 36.5081 102.745 24.4651 102.24 24.1282C101.734 23.7913 100.387 26.8653 100.387 26.8653C100.26 26.2757 101.397 22.865 101.061 22.6544C100.724 22.4439 99.1656 26.6126 98.913 26.6126C98.6603 26.5705 100.892 22.6123 100.429 22.4018C99.9657 22.1912 98.8288 24.2966 98.5761 24.3809C98.3235 24.423 99.292 22.107 98.6603 22.1491C98.0287 22.1491 95.9654 28.7602 95.5022 29.0128C95.039 29.2655 95.9654 27.539 95.1653 26.6968C94.3653 25.8126 93.7757 31.4972 93.7757 31.4972C93.5652 32.9289 88.1753 42.4454 88.1753 42.4454L95.5443 45.6457Z" fill="#BC6A55"/>
<path d="M98.6181 24.3387C98.576 24.5914 97.8601 26.4021 97.8601 26.4021" stroke="#853333" stroke-width="0.120473" stroke-miterlimit="10"/>
<path d="M86.0277 43.6245C86.0277 43.6245 68.7211 25.3915 62.9522 36.9292C56.6359 49.5197 85.9014 59.9626 90.1543 59.7942L100.134 36.5502L91.965 31.5814L86.0277 43.6245Z" fill="#8BC0BD"/>
<mask id="mask4_203_30902" style="mask-type:luminance" maskUnits="userSpaceOnUse" x="62" y="31" width="39" height="29">
<path d="M86.0277 43.6245C86.0277 43.6245 68.7211 25.3915 62.9522 36.9292C56.6359 49.5197 85.9014 59.9626 90.1543 59.7942L100.134 36.5502L91.965 31.5814L86.0277 43.6245Z" fill="white"/>
</mask>
<g mask="url(#mask4_203_30902)">
<path d="M60.4677 38.4872C63.9206 37.8977 67.9631 38.5293 70.4053 41.2664C72.3845 43.456 72.7634 47.2879 70.8264 49.6039C70.3632 50.1513 69.6895 50.7408 68.9316 50.825C68.5105 50.8671 67.9631 50.7408 68.0894 50.1934C68.1736 49.7302 68.6368 49.1828 68.9316 48.8459C70.0685 47.5406 71.7107 46.7405 73.3951 46.4879C77.3533 45.8562 81.143 48.1722 83.9222 50.7829C87.0803 53.6884 89.3542 57.4361 90.5753 61.5206C90.6596 61.7312 90.9964 61.6469 90.9122 61.4364C89.6911 57.2676 87.333 53.4779 84.1748 50.5303C81.143 47.7511 77.0164 45.3088 72.7634 46.2773C70.9949 46.6563 69.3105 47.6248 68.2578 49.1407C67.8788 49.646 67.2893 50.5303 68.0052 51.0356C68.5105 51.3724 69.3105 51.2461 69.8158 50.9514C72.6792 49.267 72.9319 45.1404 71.5423 42.4875C69.479 38.5293 64.3417 37.5608 60.2993 38.2346C60.1309 38.1925 60.2151 38.5293 60.4677 38.4872Z" fill="white"/>
<path d="M78.4901 36.3818C78.3217 39.9189 80.2165 43.1613 83.501 44.5509C84.8064 45.0983 86.1117 45.2667 87.4592 44.8877C89.6489 44.2982 91.5016 42.8665 92.8491 41.098C94.6177 38.7399 95.5019 35.8344 96.0915 32.971C96.1336 32.7605 95.7967 32.6763 95.7546 32.8868C94.8282 37.3924 92.8912 42.4033 88.2593 44.2561C86.8697 44.8035 85.5643 44.9298 84.1747 44.4245C82.8273 43.9613 81.564 43.1192 80.6376 42.0244C79.2902 40.4242 78.7427 38.403 78.827 36.3818C78.8691 36.1292 78.4901 36.1292 78.4901 36.3818Z" fill="white"/>
</g>
<path d="M127.252 179.635L128.01 183.635C128.01 183.635 129.063 188.773 130.031 186.794C131 184.814 131.968 183.762 131.968 183.762L130.452 179.298L127.252 179.635Z" fill="#FFB264"/>
<path d="M132.389 183.046L139.422 184.857C140.811 185.193 141.864 186.372 141.99 187.762C142.032 188.015 141.99 188.183 141.906 188.183C139.169 188.183 128.01 188.057 126.073 188.015C125.82 188.015 125.694 187.762 125.736 187.551C126.157 186.33 127.252 182.92 127.378 181.951C127.421 181.783 127.505 181.656 127.673 181.614C127.8 181.572 129.063 184.604 129.863 184.309C130.537 184.056 131.589 183.256 131.8 183.004C132.01 182.877 132.263 182.877 132.389 183.046Z" fill="white"/>
<path d="M133.232 183.551L132.179 184.772" stroke="white" stroke-width="0.346932" stroke-miterlimit="10" stroke-linecap="round"/>
<path d="M133.947 184.267L132.895 185.488" stroke="white" stroke-width="0.346932" stroke-miterlimit="10" stroke-linecap="round"/>
<path d="M85.4804 184.309L80.8064 184.014L80.8485 188.183L84.3435 188.057L85.4804 184.309Z" fill="#FFB264"/>
<path d="M84.1329 183.635L82.3223 180.561C82.1538 180.267 81.7749 180.225 81.5222 180.393C79.7958 181.783 70.953 185.151 69.1002 186.625C69.0581 186.667 69.0581 186.794 69.1002 186.92C69.3107 187.888 70.2371 188.52 71.2056 188.52L81.3959 188.478C81.3959 188.478 81.8591 188.352 81.7749 187.636C81.6485 186.836 80.9327 185.446 81.9012 185.109C82.7855 184.772 83.4171 184.562 83.8382 184.435C84.1329 184.309 84.3014 183.93 84.1329 183.635Z" fill="white"/>
<path d="M97.2707 162.455C104.64 160.012 110.367 153.78 117.946 151.633C120.852 150.791 123.673 151.886 125.231 155.423C129.863 165.781 130.873 181.404 130.873 181.404C130.873 181.404 126.494 183.004 124.473 182.667C121.567 176.098 119.925 171.971 117.314 165.697C117.02 165.234 103.84 174.245 103.84 174.245C103.84 174.245 96.2601 168.35 97.2707 162.455Z" fill="#1B324F"/>
<mask id="mask5_203_30902" style="mask-type:luminance" maskUnits="userSpaceOnUse" x="97" y="151" width="34" height="32">
<path d="M97.2707 162.455C104.64 160.012 110.367 153.78 117.946 151.633C120.852 150.791 123.673 151.886 125.231 155.423C129.863 165.781 130.873 181.404 130.873 181.404C130.873 181.404 126.494 183.004 124.473 182.667C121.567 176.098 119.925 171.971 117.314 165.697C117.02 165.234 103.84 174.245 103.84 174.245C103.84 174.245 96.2601 168.35 97.2707 162.455Z" fill="white"/>
</mask>
<g mask="url(#mask5_203_30902)">
<path d="M118.662 151.085C117.399 154.286 119.378 157.697 121.736 159.802C124.262 162.076 127.673 163.592 131.084 163.592C132.895 163.592 134.663 163.129 136.011 161.907C136.179 161.739 135.926 161.486 135.758 161.655C133.316 163.802 129.61 163.423 126.747 162.413C123.757 161.318 120.852 159.212 119.42 156.307C118.62 154.707 118.325 152.896 118.999 151.17C119.125 150.959 118.788 150.875 118.662 151.085Z" fill="white"/>
</g>
<mask id="mask6_203_30902" style="mask-type:luminance" maskUnits="userSpaceOnUse" x="97" y="151" width="34" height="32">
<path d="M97.2707 162.455C104.64 160.012 110.367 153.78 117.946 151.633C120.852 150.791 123.673 151.886 125.231 155.423C129.863 165.781 130.873 181.404 130.873 181.404C130.873 181.404 126.494 183.004 124.473 182.667C121.567 176.098 119.925 171.971 117.314 165.697C117.02 165.234 103.84 174.245 103.84 174.245C103.84 174.245 96.2601 168.35 97.2707 162.455Z" fill="white"/>
</mask>
<g mask="url(#mask6_203_30902)">
<path d="M117.188 170.245C118.493 169.361 120.093 169.445 121.567 169.74C122.915 170.034 124.22 170.413 125.483 170.961C128.094 172.056 130.536 173.614 132.642 175.551C133.821 176.645 134.916 177.867 135.842 179.214C135.968 179.382 136.305 179.214 136.137 179.046C132.726 174.203 127.462 170.624 121.652 169.445C120.093 169.108 118.367 169.024 116.977 169.992C116.809 170.076 117.02 170.371 117.188 170.245Z" fill="white"/>
</g>
<mask id="mask7_203_30902" style="mask-type:luminance" maskUnits="userSpaceOnUse" x="97" y="151" width="34" height="32">
<path d="M97.2707 162.455C104.64 160.012 110.367 153.78 117.946 151.633C120.852 150.791 123.673 151.886 125.231 155.423C129.863 165.781 130.873 181.404 130.873 181.404C130.873 181.404 126.494 183.004 124.473 182.667C121.567 176.098 119.925 171.971 117.314 165.697C117.02 165.234 103.84 174.245 103.84 174.245C103.84 174.245 96.2601 168.35 97.2707 162.455Z" fill="white"/>
</mask>
<g mask="url(#mask7_203_30902)">
<path d="M114.493 151.338C114.662 154.159 114.409 157.654 111.672 159.297C110.282 160.097 108.556 159.97 106.998 159.844C105.314 159.676 103.629 159.339 102.029 158.876C101.819 158.791 101.692 159.17 101.945 159.212C103.713 159.76 105.482 160.097 107.335 160.223C108.935 160.349 110.619 160.434 112.009 159.507C114.746 157.781 115.041 154.286 114.872 151.338C114.872 151.128 114.493 151.085 114.493 151.338Z" fill="white"/>
</g>
<path d="M109.314 168.392L118.578 175.129C122.873 177.319 124.178 183.046 121.02 186.667C120.136 187.72 118.999 188.394 117.82 188.394L83.3328 188.225L86.4067 181.698C86.4067 181.698 104.05 180.646 107.756 180.814C107.756 180.814 83.7538 181.235 83.5433 165.36L102.45 159.718C103.629 164.813 104.598 165.95 109.314 168.392Z" fill="#1B324F"/>
<mask id="mask8_203_30902" style="mask-type:luminance" maskUnits="userSpaceOnUse" x="83" y="159" width="40" height="30">
<path d="M109.314 168.392L118.578 175.129C122.873 177.319 124.178 183.046 121.02 186.667C120.136 187.72 118.999 188.394 117.82 188.394L83.3328 188.225L86.4067 181.698C86.4067 181.698 104.05 180.646 107.756 180.814C107.756 180.814 83.7538 181.235 83.5433 165.36L102.45 159.718C103.629 164.813 104.598 165.95 109.314 168.392Z" fill="white"/>
</mask>
<g mask="url(#mask8_203_30902)">
<path d="M103.208 161.149C102.029 164.055 103.208 167.381 105.398 169.445C106.577 170.582 108.008 171.382 109.482 171.971C110.914 172.561 112.472 172.982 114.03 173.108C115.546 173.235 117.23 172.94 118.241 171.719C118.409 171.55 118.114 171.298 117.988 171.466C116.135 173.698 112.472 172.687 110.114 171.887C107.293 170.877 104.598 168.982 103.545 166.076C102.955 164.518 102.913 162.834 103.545 161.276C103.671 161.023 103.292 160.939 103.208 161.149Z" fill="white"/>
<path d="M83.6276 170.75C85.4383 170.034 87.3753 169.655 89.3544 169.655C91.2071 169.655 93.2284 169.95 94.8285 170.919C96.3865 171.845 97.4392 173.403 98.2814 174.961C99.2078 176.687 99.8815 178.54 100.345 180.435C100.387 180.646 100.766 180.561 100.682 180.351C100.008 177.445 98.8288 174.414 96.8497 172.14C94.8285 169.866 91.7124 169.192 88.807 169.318C86.9963 169.361 85.2277 169.74 83.5855 170.413C83.3328 170.498 83.4171 170.834 83.6276 170.75Z" fill="white"/>
<path d="M121.104 175.298C119.672 175.929 118.283 176.772 117.061 177.782C115.924 178.709 114.83 179.761 114.24 181.109C113.609 182.583 113.903 184.267 114.24 185.783C114.577 187.257 115.124 188.688 115.798 190.036C116.598 191.594 117.609 193.026 118.83 194.289C118.998 194.457 119.251 194.205 119.083 194.036C116.514 191.341 114.788 187.846 114.282 184.141C114.156 183.046 114.156 181.951 114.661 180.94C115.082 180.098 115.714 179.424 116.388 178.793C117.819 177.445 119.462 176.393 121.23 175.593C121.483 175.508 121.314 175.214 121.104 175.298Z" fill="white"/>
<path d="M89.6071 191.762C90.6598 188.52 94.0285 186.794 97.1445 185.993C100.682 185.067 104.556 185.278 107.672 187.341C109.188 188.352 110.409 189.783 111.125 191.425C111.209 191.636 111.546 191.468 111.419 191.257C108.345 184.056 98.492 183.678 92.6389 187.509C91.123 188.52 89.8176 189.91 89.2702 191.678C89.186 191.889 89.565 191.973 89.6071 191.762Z" fill="white"/>
</g>
<path d="M78.9956 188.394L80.1746 186.878" stroke="white" stroke-width="0.346932" stroke-miterlimit="10" stroke-linecap="round"/>
<path d="M77.522 188.394L78.701 186.878" stroke="white" stroke-width="0.346932" stroke-miterlimit="10" stroke-linecap="round"/>
<path d="M104.977 124.641C104.934 124.852 118.241 140.685 118.241 140.685L108.177 148.18L101.355 130.537L104.977 124.641Z" fill="#151F36"/>
<path d="M100.934 150.075C100.766 149.78 87.8806 150.917 87.8806 150.917C87.4174 147.001 89.0175 118.199 98.7867 118.451C100.639 118.493 102.408 118.072 104.513 119.715C105.271 120.304 106.829 123.462 106.577 124.389L100.934 135.969V150.075Z" fill="#151F36"/>
<path d="M97.3549 120.936L103.713 120.094C103.334 119.504 103.082 119.125 103.082 119.125C106.366 119.083 107.461 124.683 107.461 124.683C106.745 124.347 105.145 122.157 104.092 120.641C103.376 122.115 100.681 127.294 96.9338 127.547L97.3549 120.936Z" fill="#192A40"/>
<path d="M97.4391 126.536C97.397 126.663 96.6812 127.842 96.1338 126.915C95.8811 126.452 94.5758 126.536 94.1968 127.884C93.8599 129.273 95.5021 130.073 96.3022 130.2C96.5127 130.242 96.7233 130.368 96.8917 130.579C97.3128 131.168 98.155 132.516 98.4918 133.989C98.9129 135.969 97.9444 139.632 97.9444 139.632C97.9444 139.632 101.734 141.653 104.387 140.264C104.387 140.264 102.787 132.726 103.713 132.6C106.114 132.263 107.798 131.252 107.335 125.736C106.871 120.515 102.703 120.388 101.734 120.43C100.976 120.515 99.7551 121.188 97.4391 126.536Z" fill="#FFB264"/>
<path d="M103.671 132.684C103.671 132.684 103.334 132.895 101.903 132.558C101.06 132.347 99.6709 131.8 99.6709 131.8L104.134 138.284C104.134 138.284 103.292 133.316 103.671 132.684Z" fill="#ED842D"/>
<path d="M94.7021 128.178C94.7021 128.178 95.7128 126.578 96.4286 128.978L94.7021 128.178Z" fill="#ED842D"/>
<path d="M104.472 138.79C104.219 139.042 109.103 145.653 108.851 148.138C108.514 151.254 102.45 159.381 102.45 159.886L82.533 165.655C82.533 165.655 85.9859 144.685 91.3758 140.306C93.6917 138.411 98.0289 136.179 98.9974 136.432C98.9974 136.432 105.272 143.127 104.472 138.79Z" fill="#E37F63"/>
<path d="M90.0283 141.78C85.4385 148.096 82.533 165.655 82.533 165.655L102.408 159.886C102.408 159.76 102.745 159.17 103.208 158.412C98.4921 153.107 94.0286 147.59 90.0283 141.78Z" fill="#CC6250"/>
<path d="M103.25 160.518C105.777 162.034 120.978 144.811 120.978 144.811L115.209 139.59L105.608 148.685C105.608 148.685 96.3024 133.316 91.3335 140.39C85.8594 148.18 103.25 160.518 103.25 160.518Z" fill="#E37F63"/>
<path d="M116.304 140.643C116.304 140.643 121.273 135.042 121.778 135.674C122.283 136.305 121.104 136.474 121.104 137.232C121.104 137.99 124.641 134.621 125.568 134.326C126.452 134.032 124.473 136.053 123.883 136.895C123.294 137.737 126.957 135.084 127 135.547C127.042 136.011 125.063 137.527 125.063 137.527C125.063 137.527 127.547 136.095 127.463 136.684C127.379 137.274 125.736 138.537 125.736 138.537C125.736 138.537 128.01 137.063 127.884 137.737C127.757 138.411 120.262 143.843 120.262 143.843L116.304 140.643Z" fill="#FFB264"/>
<path d="M105.735 128.6C105.735 128.6 106.324 128.557 106.366 128.515L105.777 127.42L105.735 128.6Z" fill="#ED7E68"/>
<path d="M104.387 127.42C104.429 127.673 104.514 127.884 104.64 127.884C104.766 127.884 104.808 127.673 104.808 127.42C104.808 127.168 104.682 126.957 104.556 126.957C104.429 126.957 104.345 127.168 104.387 127.42Z" fill="#192A40"/>
<path d="M106.366 127.126C106.408 127.378 106.493 127.589 106.619 127.589C106.745 127.589 106.787 127.378 106.787 127.126C106.745 126.873 106.661 126.663 106.535 126.663C106.408 126.663 106.366 126.873 106.366 127.126Z" fill="#192A40"/>
<path d="M104.766 125.947C104.766 125.947 103.924 124.726 103.461 126.536C103.503 126.536 104.008 125.905 104.766 125.947Z" fill="#192A40"/>
<path d="M107.545 125.947C107.335 125.526 106.872 124.641 106.24 125.736C106.282 125.736 106.998 125.526 107.545 125.947Z" fill="#192A40"/>
<path d="M101.776 129.315C101.945 129.947 102.619 130.368 103.292 130.2C103.924 130.031 104.345 129.357 104.177 128.684C104.008 128.052 103.334 127.631 102.661 127.799C101.987 128.01 101.566 128.642 101.776 129.315Z" fill="#FA8B50"/>
<path d="M107.082 128.81L104.303 129.105C104.303 129.105 104.892 130.579 105.65 130.284C106.492 130.031 107.082 128.81 107.082 128.81Z" fill="white"/>
<path d="M107.461 127.715C107.082 128.01 106.871 128.515 106.998 129.021C107.04 129.231 107.166 129.4 107.292 129.526C107.292 129.526 107.419 128.684 107.461 128.178V127.715Z" fill="#FA8B50"/>
<path d="M97.3549 120.936L103.713 120.094C103.334 119.504 103.082 119.125 103.082 119.125C106.366 119.083 107.461 124.683 107.461 124.683C106.745 124.347 105.145 122.157 104.092 120.641C103.376 122.115 100.681 127.294 96.9338 127.547L97.3549 120.936Z" fill="#151F36"/>
<path d="M216.185 87.8384L179.888 51.5409L168.013 63.3734C170.498 63.626 172.94 64.7208 174.835 66.6578C179.298 71.1213 179.298 78.3219 174.835 82.7854C170.371 87.2489 163.171 87.2489 158.707 82.7854C156.812 80.8905 155.717 78.4482 155.423 75.9638L143.548 87.8384L154.875 99.1656C151.128 99.7973 148.012 102.24 146.369 105.524C143.422 109.945 143.885 116.009 147.801 119.925C151.886 124.01 158.328 124.347 162.792 120.894C165.739 119.167 167.887 116.22 168.476 112.725L179.888 124.136L216.185 87.8384Z" fill="#E37059"/>
<path d="M212.943 94.6179C217.07 93.9442 228.355 87.9648 228.86 85.5225C229.449 82.5749 223.638 78.7009 218.67 73.4794C213.238 67.7948 209.616 70.1528 209.49 72.3846C209.322 76.3428 217.954 82.9539 218.754 84.4277C215.848 86.9963 211.553 90.7018 208.774 91.4598C208.774 91.4598 204.437 91.6703 205.574 92.8072C205.827 93.0599 207.974 92.9336 207.974 92.9336C207.974 92.9336 203.384 97.7761 203.805 98.0708C204.226 98.3235 206.163 96.6812 206.163 96.6812C206.163 96.6812 204.395 98.1971 204.774 98.3235C205.153 98.4919 206.711 97.355 206.711 97.355C206.711 97.355 205.363 98.4919 205.953 98.4919C206.542 98.4919 207.595 97.5234 207.595 97.5234C207.595 97.5234 205.869 98.6603 206.627 98.7446C207.385 98.8288 212.943 94.6179 212.943 94.6179Z" fill="#FFA47E"/>
<path d="M205.406 97.2708L207.679 95.3338" stroke="#FF795A" stroke-width="0.120473" stroke-miterlimit="10"/>
<path d="M206.584 97.4813L208.1 96.2602" stroke="#FF795A" stroke-width="0.120473" stroke-miterlimit="10"/>
<path d="M206.627 98.2814L208.522 96.8918" stroke="#FF795A" stroke-width="0.120473" stroke-miterlimit="10"/>
<path d="M214.712 81.6485C214.375 82.1117 219.68 73.5215 219.68 73.5215C219.68 73.5215 212.732 65.6893 209.701 69.6475C207.764 72.1319 207.932 77.3534 214.712 81.6485Z" fill="white"/>
<path d="M192.983 32.971C191.762 33.8974 187.72 38.2346 187.72 38.2346H173.487" stroke="white" stroke-width="0.465805" stroke-miterlimit="10"/>
<path d="M174.708 37.9398C174.708 36.7608 173.74 35.7502 172.519 35.7502C171.297 35.7502 170.371 36.7187 170.371 37.9398C170.371 39.1189 171.34 40.1295 172.519 40.1295C173.698 40.1295 174.708 39.1189 174.708 37.9398Z" fill="white"/>
<path d="M206.626 15.917C207.848 14.9907 211.89 10.6535 211.89 10.6535H224.27" stroke="white" stroke-width="0.465805" stroke-miterlimit="10"/>
<path d="M226.754 11.2851C226.754 10.1061 225.786 9.09546 224.565 9.09546C223.386 9.09546 222.375 10.064 222.375 11.2851C222.375 12.5063 223.344 13.4748 224.565 13.4748C225.786 13.4326 226.754 12.4641 226.754 11.2851Z" fill="white"/>
<path d="M197.026 34.1921C203.863 34.1921 209.406 28.6495 209.406 21.8122C209.406 14.975 203.863 9.43231 197.026 9.43231C190.189 9.43231 184.646 14.975 184.646 21.8122C184.646 28.6495 190.189 34.1921 197.026 34.1921Z" fill="#E37F63"/>
<path d="M197.026 34.1922C203.889 34.1922 209.406 28.6338 209.406 21.8122C209.406 17.6856 207.384 13.9801 204.226 11.7483L196.984 21.8122" fill="#F5C679"/>
<path d="M184.604 21.8122C184.604 28.6759 190.162 34.1922 196.984 34.1922C203.805 34.1922 209.364 28.6338 209.364 21.8122" fill="white"/>
<path d="M13.3063 98.155H9.17969V112.261H13.3063V98.155Z" fill="white"/>
<path d="M20.8859 94.7021H16.7593V112.304H20.8859V94.7021Z" fill="#E37059"/>
<path d="M28.3813 90.5755H24.2546V112.261H28.3813V90.5755Z" fill="#4475AB"/>
<path d="M266.085 150.714C266.625 145.602 262.92 141.021 257.809 140.48C252.698 139.939 248.116 143.644 247.575 148.756C247.035 153.867 250.74 158.449 255.851 158.989C260.962 159.53 265.544 155.825 266.085 150.714Z" fill="white"/>
<path d="M257.893 162.705C265.032 162.114 270.34 155.849 269.749 148.71C269.158 141.572 262.892 136.264 255.754 136.854C248.615 137.445 243.307 143.711 243.898 150.85C244.489 157.988 250.755 163.296 257.893 162.705Z" stroke="white" stroke-width="0.465805" stroke-miterlimit="10"/>
<path d="M251.851 149.78L255.557 153.486L262.378 146.664" stroke="#4475AB" stroke-width="0.465805" stroke-miterlimit="10"/>
<path d="M236.313 60.2995C233.071 60.2995 230.418 57.6466 230.418 54.4043C230.418 51.1619 233.071 48.5091 236.313 48.5091H261.62C264.863 48.5091 267.516 51.1619 267.516 54.4043C267.516 57.6466 264.863 60.2995 261.62 60.2995H236.313Z" stroke="#8BC0BD" stroke-width="0.465805" stroke-miterlimit="10"/>
<path d="M261.62 57.9835H236.313C234.334 57.9835 232.734 56.3834 232.734 54.4043C232.734 52.4252 234.334 50.825 236.313 50.825H261.62C263.599 50.825 265.2 52.4252 265.2 54.4043C265.2 56.3834 263.599 57.9835 261.62 57.9835Z" fill="#8BC0BD"/>
<path d="M6.14788 128.263C2.90552 128.263 0.252686 125.61 0.252686 122.367C0.252686 119.125 2.90552 116.472 6.14788 116.472H31.4551C34.6975 116.472 37.3503 119.125 37.3503 122.367C37.3503 125.61 34.6975 128.263 31.4551 128.263H6.14788Z" stroke="#F5C679" stroke-width="0.465805" stroke-miterlimit="10"/>
<path d="M31.4551 125.947H6.14783C4.16873 125.947 2.5686 124.347 2.5686 122.367C2.5686 120.388 4.16873 118.788 6.14783 118.788H31.4551C33.4342 118.788 35.0343 120.388 35.0343 122.367C35.0343 124.347 33.4342 125.947 31.4551 125.947Z" fill="#F5C679"/>
</g>
<defs>
<clipPath id="clip0_203_30902">
<rect width="270" height="194.331" fill="white"/>
</clipPath>
</defs>
</svg>
