<svg width="16" height="18" viewBox="0 0 16 18" fill="none" xmlns="http://www.w3.org/2000/svg">
<path d="M5.50016 7.75L7.16683 9.41667L10.9168 5.66667M14.6668 16.5V5.5C14.6668 4.09987 14.6668 3.3998 14.3943 2.86502C14.1547 2.39462 13.7722 2.01217 13.3018 1.77248C12.767 1.5 12.067 1.5 10.6668 1.5H5.3335C3.93336 1.5 3.2333 1.5 2.69852 1.77248C2.22811 2.01217 1.84566 2.39462 1.60598 2.86502C1.3335 3.3998 1.3335 4.09987 1.3335 5.5V16.5L3.62516 14.8333L5.7085 16.5L8.00016 14.8333L10.2918 16.5L12.3752 14.8333L14.6668 16.5Z" stroke="#344054" stroke-width="1.66667" stroke-linecap="round" stroke-linejoin="round"/>
</svg>
