<svg width="42" height="42" viewBox="0 0 42 42" fill="none" xmlns="http://www.w3.org/2000/svg">
<g clip-path="url(#clip0_203_31571)">
<path d="M21 41.9998C32.598 41.9998 42 32.5977 42 20.9998C42 9.40178 32.598 -0.000244141 21 -0.000244141C9.40202 -0.000244141 0 9.40178 0 20.9998C0 32.5977 9.40202 41.9998 21 41.9998Z" fill="#007AB9"/>
<path d="M33.5473 22.6894V31.3472H28.5277V23.2696C28.5277 21.2414 27.803 19.8564 25.9856 19.8564C24.5986 19.8564 23.7747 20.7889 23.4108 21.6918C23.2787 22.0145 23.2446 22.4625 23.2446 22.9151V31.3469H18.2247C18.2247 31.3469 18.292 17.6661 18.2247 16.2499H23.245V18.3893C23.2349 18.4061 23.2207 18.4226 23.2117 18.4387H23.245V18.3893C23.9121 17.3628 25.1017 15.8954 27.7689 15.8954C31.0714 15.8954 33.5473 18.0531 33.5473 22.6894ZM12.9733 8.97266C11.2562 8.97266 10.1328 10.0998 10.1328 11.5807C10.1328 13.0302 11.2237 14.1899 12.9075 14.1899H12.94C14.6908 14.1899 15.7794 13.0302 15.7794 11.5807C15.7461 10.0998 14.6908 8.97266 12.9733 8.97266ZM10.4312 31.3472H15.4493V16.2499H10.4312V31.3472Z" fill="#F1F2F2"/>
</g>
<defs>
<clipPath id="clip0_203_31571">
<rect width="42" height="42" fill="white"/>
</clipPath>
</defs>
</svg>
