<svg width="66" height="66" viewBox="0 0 66 66" fill="none" xmlns="http://www.w3.org/2000/svg">
<rect x="5" y="5" width="56" height="56" rx="28" fill="#FFEAD5"/>
<path d="M21.3333 27.1667L27.3928 31.2064C27.7424 31.4395 27.9172 31.556 28.1063 31.6385C28.2741 31.7118 28.45 31.7651 28.6303 31.7972C28.8335 31.8334 29.0435 31.8334 29.4637 31.8334H36.5363C36.9565 31.8334 37.1665 31.8334 37.3697 31.7972C37.55 31.7651 37.7259 31.7118 37.8937 31.6385C38.0828 31.556 38.2576 31.4395 38.6072 31.2064L44.6667 27.1667M26.9333 42.3334H39.0667C41.0268 42.3334 42.0069 42.3334 42.7556 41.9519C43.4142 41.6164 43.9496 41.081 44.2852 40.4224C44.6667 39.6737 44.6667 38.6936 44.6667 36.7334V29.2667C44.6667 27.3066 44.6667 26.3265 44.2852 25.5778C43.9496 24.9192 43.4142 24.3838 42.7556 24.0482C42.0069 23.6667 41.0268 23.6667 39.0667 23.6667H26.9333C24.9731 23.6667 23.9931 23.6667 23.2444 24.0482C22.5858 24.3838 22.0504 24.9192 21.7148 25.5778C21.3333 26.3265 21.3333 27.3066 21.3333 29.2667V36.7334C21.3333 38.6936 21.3333 39.6737 21.7148 40.4224C22.0504 41.081 22.5858 41.6164 23.2444 41.9519C23.9931 42.3334 24.9731 42.3334 26.9333 42.3334Z" stroke="#EC4A0A" stroke-width="2" stroke-linecap="round" stroke-linejoin="round"/>
<rect x="5" y="5" width="56" height="56" rx="28" stroke="#FFF6ED" stroke-width="10"/>
</svg>
