<svg width="132" height="129" viewBox="0 0 132 129" fill="none" xmlns="http://www.w3.org/2000/svg">
<g clip-path="url(#clip0_180_31828)">
<rect x="10" y="8.24731" width="112" height="112" rx="56" fill="#FFF6ED"/>
<path d="M72.5053 46.4284H44.2206C43.6013 46.4303 42.9899 46.2909 42.4326 46.0208C41.8754 45.7508 41.3871 45.3572 41.0049 44.87C40.6158 44.3782 40.3439 43.8041 40.2102 43.1914C40.0764 42.5788 40.0842 41.9436 40.2329 41.3344C42.8397 30.4155 42.8397 19.0362 40.2327 8.11732C40.0841 7.5081 40.0764 6.87301 40.2102 6.26036C40.344 5.64772 40.6157 5.07366 41.0048 4.58187C41.387 4.09465 41.8753 3.70104 42.4326 3.43099C42.9898 3.16093 43.6013 3.02155 44.2206 3.02346H72.5053C73.4819 3.02626 74.4258 3.37562 75.1688 4.00931C75.9119 4.643 76.4059 5.51986 76.5628 6.48374C78.4243 18.574 78.4243 30.8779 76.5628 42.9681C76.4059 43.932 75.9119 44.8089 75.1688 45.4426C74.4258 46.0763 73.4819 46.4256 72.5053 46.4284Z" fill="#E6E6E6"/>
<path d="M44.2202 5.15211C43.9228 5.15111 43.6292 5.21795 43.3615 5.34755C43.0939 5.47714 42.8593 5.66607 42.6757 5.89997C42.4866 6.13962 42.3546 6.41924 42.2898 6.71756C42.2251 7.01588 42.2292 7.32505 42.3019 7.62154C44.9868 18.8667 44.9868 30.586 42.3021 41.8312C42.2293 42.1276 42.2251 42.4367 42.2899 42.735C42.3546 43.0332 42.4865 43.3128 42.6756 43.5524C42.8592 43.7863 43.0939 43.9755 43.3615 44.1051C43.6292 44.2348 43.9228 44.3016 44.2202 44.3006H72.505C72.974 44.3008 73.4278 44.1345 73.7856 43.8313C74.1435 43.5282 74.3821 43.1078 74.459 42.6452C76.2874 30.7693 76.2874 18.6834 74.459 6.80751C74.3821 6.34488 74.1435 5.92456 73.7856 5.62141C73.4278 5.31825 72.974 5.15195 72.505 5.15211L44.2202 5.15211Z" fill="white"/>
<path d="M66.3322 15.3851H51.4895C50.9252 15.3845 50.3843 15.16 49.9853 14.7611C49.5864 14.3621 49.3619 13.8212 49.3613 13.2569V12.4253C49.3619 11.861 49.5864 11.3201 49.9853 10.9211C50.3843 10.5222 50.9252 10.2977 51.4895 10.2971H66.3322C66.8964 10.2977 67.4373 10.5222 67.8363 10.9211C68.2353 11.3201 68.4597 11.861 68.4603 12.4253V13.2569C68.4597 13.8212 68.2353 14.3621 67.8363 14.7611C67.4373 15.1601 66.8964 15.3845 66.3322 15.3851Z" fill="#E6E6E6"/>
<path d="M66.3322 25.8936H51.4895C50.9252 25.893 50.3843 25.6686 49.9853 25.2696C49.5864 24.8706 49.3619 24.3297 49.3613 23.7655V22.9338C49.3619 22.3696 49.5864 21.8286 49.9853 21.4297C50.3843 21.0307 50.9252 20.8063 51.4895 20.8057H66.3322C66.8964 20.8063 67.4373 21.0307 67.8363 21.4297C68.2353 21.8286 68.4597 22.3696 68.4603 22.9338V23.7655C68.4597 24.3297 68.2353 24.8706 67.8363 25.2696C67.4373 25.6686 66.8964 25.893 66.3322 25.8936Z" fill="#E6E6E6"/>
<path d="M66.3322 36.4017H51.4895C50.9252 36.4011 50.3843 36.1766 49.9853 35.7777C49.5864 35.3787 49.3619 34.8377 49.3613 34.2735V33.4419C49.3619 32.8776 49.5864 32.3367 49.9853 31.9377C50.3843 31.5387 50.9252 31.3143 51.4895 31.3137H66.3322C66.8964 31.3143 67.4373 31.5387 67.8363 31.9377C68.2353 32.3367 68.4597 32.8776 68.4603 33.4419V34.2735C68.4597 34.8377 68.2353 35.3787 67.8363 35.7777C67.4373 36.1766 66.8964 36.4011 66.3322 36.4017Z" fill="#E6E6E6"/>
<path d="M125.709 73.3862H97.4247C96.8054 73.3881 96.194 73.2487 95.6367 72.9786C95.0795 72.7086 94.5912 72.315 94.209 71.8278C93.8199 71.336 93.548 70.7619 93.4143 70.1492C93.2805 69.5365 93.2883 68.9014 93.437 68.2921C96.0438 57.3732 96.0438 45.994 93.4368 35.0751C93.2882 34.4659 93.2805 33.8308 93.4143 33.2181C93.5481 32.6055 93.8199 32.0314 94.2089 31.5396C94.5911 31.0524 95.0794 30.6588 95.6367 30.3888C96.1939 30.1187 96.8054 29.9793 97.4247 29.9812H125.709C126.686 29.984 127.63 30.3334 128.373 30.9671C129.116 31.6008 129.61 32.4776 129.767 33.4415C131.628 45.5317 131.628 57.8357 129.767 69.9259C129.61 70.8898 129.116 71.7666 128.373 72.4003C127.63 73.034 126.686 73.3834 125.709 73.3862Z" fill="#E6E6E6"/>
<path d="M97.4263 32.1089C97.1289 32.1079 96.8352 32.1747 96.5676 32.3043C96.2999 32.4339 96.0653 32.6229 95.8817 32.8568C95.6926 33.0964 95.5607 33.376 95.4959 33.6743C95.4311 33.9727 95.4353 34.2818 95.508 34.5783C98.1928 45.8235 98.1929 57.5428 95.5081 68.788C95.4354 69.0844 95.4312 69.3935 95.4959 69.6918C95.5606 69.99 95.6925 70.2696 95.8816 70.5092C96.0652 70.7431 96.2999 70.9323 96.5676 71.0619C96.8352 71.1915 97.1289 71.2584 97.4263 71.2574H125.711C126.18 71.2575 126.634 71.0912 126.992 70.7881C127.35 70.4849 127.588 70.0646 127.665 69.602C129.493 57.7261 129.493 45.6402 127.665 33.7643C127.588 33.3017 127.35 32.8813 126.992 32.5782C126.634 32.275 126.18 32.1087 125.711 32.1089L97.4263 32.1089Z" fill="white"/>
<path d="M69.3126 104.068H41.0279C40.3818 104.07 39.7439 103.924 39.1625 103.643C38.5811 103.361 38.0717 102.95 37.673 102.442C37.2672 101.929 36.9837 101.33 36.8442 100.692C36.7046 100.053 36.7127 99.3904 36.8678 98.7551C39.4681 87.8633 39.468 76.5124 36.8676 65.6208C36.7126 64.9855 36.7046 64.3232 36.8442 63.6844C36.9837 63.0455 37.2671 62.4469 37.6729 61.9341C38.0716 61.4258 38.5811 61.0151 39.1625 60.7334C39.7438 60.4516 40.3818 60.3062 41.0279 60.3081H69.3126C70.3315 60.3112 71.3162 60.6758 72.0913 61.337C72.8665 61.9982 73.3818 62.9131 73.5454 63.9187C75.4097 76.0269 75.4097 88.3491 73.5454 100.457C73.3818 101.463 72.8665 102.378 72.0913 103.039C71.3162 103.7 70.3315 104.065 69.3126 104.068Z" fill="#E4E7EC"/>
<path d="M119.539 47.6631H104.697C104.132 47.6625 103.591 47.4381 103.192 47.0391C102.793 46.6402 102.569 46.0992 102.568 45.535V44.7033C102.569 44.1391 102.793 43.5982 103.192 43.1992C103.591 42.8002 104.132 42.5758 104.697 42.5752H119.539C120.103 42.5758 120.644 42.8002 121.043 43.1992C121.442 43.5982 121.667 44.1391 121.667 44.7033V45.535C121.667 46.0992 121.442 46.6402 121.043 47.0391C120.644 47.4381 120.103 47.6625 119.539 47.6631Z" fill="#E6E6E6"/>
<path d="M119.539 58.1714H104.697C104.132 58.1708 103.591 57.9464 103.192 57.5474C102.793 57.1485 102.569 56.6075 102.568 56.0433V55.2116C102.569 54.6474 102.793 54.1065 103.192 53.7075C103.591 53.3085 104.132 53.0841 104.697 53.0835H119.539C120.103 53.0841 120.644 53.3085 121.043 53.7075C121.442 54.1065 121.667 54.6474 121.667 55.2116V56.0433C121.667 56.6075 121.442 57.1485 121.043 57.5474C120.644 57.9464 120.103 58.1708 119.539 58.1714Z" fill="#E6E6E6"/>
<path d="M55.2491 90.1997C59.7547 90.1997 63.4073 86.5472 63.4073 82.0415C63.4073 77.5359 59.7547 73.8833 55.2491 73.8833C50.7434 73.8833 47.0908 77.5359 47.0908 82.0415C47.0908 86.5472 50.7434 90.1997 55.2491 90.1997Z" fill="white"/>
<path d="M59.1509 80.9777H56.3132V78.14C56.3132 77.8578 56.2011 77.5872 56.0015 77.3876C55.802 77.188 55.5313 77.0759 55.2491 77.0759C54.9669 77.0759 54.6962 77.188 54.4966 77.3876C54.2971 77.5872 54.185 77.8578 54.185 78.14V80.9777H51.3473C51.0651 80.9777 50.7944 81.0898 50.5949 81.2894C50.3953 81.4889 50.2832 81.7596 50.2832 82.0418C50.2832 82.324 50.3953 82.5947 50.5949 82.7942C50.7944 82.9938 51.0651 83.1059 51.3473 83.1059H54.185V85.9436C54.185 86.2258 54.2971 86.4964 54.4966 86.696C54.6962 86.8956 54.9669 87.0077 55.2491 87.0077C55.5313 87.0077 55.802 86.8956 56.0015 86.696C56.2011 86.4964 56.3132 86.2258 56.3132 85.9436V83.1059H59.1509C59.4331 83.1059 59.7037 82.9938 59.9033 82.7942C60.1029 82.5947 60.215 82.324 60.215 82.0418C60.215 81.7596 60.1029 81.4889 59.9033 81.2894C59.7037 81.0898 59.4331 80.9777 59.1509 80.9777Z" fill="#E6E6E6"/>
<path d="M65.5348 7.02144H50.6372C50.214 7.02096 49.8083 6.85264 49.5091 6.55341C49.2098 6.25417 49.0415 5.84845 49.041 5.42527V2.58763C49.0415 2.16444 49.2098 1.75873 49.5091 1.45949C49.8083 1.16025 50.214 0.991932 50.6372 0.991455H65.5348C65.958 0.991932 66.3637 1.16025 66.663 1.45949C66.9622 1.75873 67.1306 2.16444 67.131 2.58763V5.42527C67.1306 5.84845 66.9622 6.25417 66.663 6.55341C66.3637 6.85264 65.958 7.02096 65.5348 7.02144Z" fill="#CCCCCC"/>
<path d="M119.452 34.3339H104.554C104.131 34.3335 103.725 34.1651 103.426 33.8659C103.127 33.5667 102.958 33.161 102.958 32.7378V29.9001C102.958 29.4769 103.127 29.0712 103.426 28.772C103.725 28.4728 104.131 28.3044 104.554 28.304H119.452C119.875 28.3044 120.281 28.4728 120.58 28.772C120.879 29.0712 121.048 29.4769 121.048 29.9001V32.7378C121.048 33.161 120.879 33.5667 120.58 33.8659C120.281 34.1651 119.875 34.3335 119.452 34.3339Z" fill="#CCCCCC"/>
<path d="M28.739 127.26L2.61899 116.408C2.04645 116.172 1.53524 115.809 1.12428 115.346C0.713311 114.882 0.413409 114.332 0.247395 113.735C0.0767181 113.132 0.0459824 112.497 0.157517 111.88C0.269052 111.263 0.519918 110.679 0.891025 110.174C7.48779 101.091 11.8538 90.5824 13.6357 79.4989C13.7322 78.8793 13.9688 78.2898 14.3274 77.7754C14.686 77.261 15.1573 76.8351 15.7053 76.5303C16.2451 76.227 16.8471 76.0508 17.4653 76.0153C18.0835 75.9797 18.7017 76.0856 19.2728 76.325L45.3928 87.1774C46.2935 87.5546 47.0311 88.2394 47.4742 89.1097C47.9172 89.98 48.037 90.9793 47.8121 91.9296C44.8923 103.809 40.1714 115.171 33.8136 125.622C33.2988 126.452 32.5062 127.072 31.5769 127.372C30.6475 127.672 29.6419 127.632 28.739 127.26Z" fill="#E6E6E6"/>
<path d="M18.4597 78.2904C18.1854 78.1754 17.8886 78.1244 17.5917 78.1414C17.2948 78.1584 17.0057 78.2428 16.7464 78.3884C16.4798 78.5371 16.2507 78.7447 16.0764 78.9954C15.9021 79.246 15.7873 79.5331 15.7407 79.8348C13.9055 91.2494 9.40899 102.072 2.61511 111.426C2.43419 111.672 2.31174 111.956 2.25706 112.256C2.20239 112.556 2.21694 112.865 2.29961 113.159C2.37939 113.446 2.52357 113.71 2.72099 113.933C2.91841 114.155 3.16397 114.329 3.43898 114.443L29.559 125.295C29.992 125.475 30.4749 125.496 30.9216 125.353C31.3684 125.21 31.75 124.914 31.9986 124.516C38.2437 114.251 42.8808 103.09 45.7489 91.4212C45.8554 90.9645 45.7963 90.4848 45.5822 90.0675C45.3681 89.6503 45.0128 89.3226 44.5796 89.1428L18.4597 78.2904Z" fill="white"/>
<path d="M32.3662 102.449L18.6595 96.7538C18.1387 96.5367 17.7253 96.1219 17.5099 95.6004C17.2946 95.0789 17.2949 94.4932 17.5108 93.972L17.8299 93.204C18.0469 92.6832 18.4617 92.2697 18.9832 92.0544C19.5048 91.839 20.0904 91.8393 20.6117 92.0552L34.3184 97.7501C34.8392 97.9672 35.2526 98.382 35.468 98.9035C35.6834 99.425 35.683 100.011 35.4671 100.532L35.148 101.3C34.931 101.821 34.5162 102.234 33.9947 102.45C33.4731 102.665 32.8875 102.665 32.3662 102.449Z" fill="#EC4A0A"/>
<path d="M28.3321 112.153L14.6253 106.458C14.1045 106.241 13.6911 105.826 13.4757 105.305C13.2604 104.783 13.2607 104.197 13.4766 103.676L13.7957 102.908C14.0128 102.387 14.4276 101.974 14.9491 101.758C15.4706 101.543 16.0562 101.543 16.5775 101.759L30.2842 107.454C30.8051 107.671 31.2185 108.086 31.4338 108.608C31.6492 109.129 31.6489 109.715 31.433 110.236L31.1139 111.004C30.8968 111.525 30.482 111.938 29.9605 112.154C29.439 112.369 28.8533 112.369 28.3321 112.153Z" fill="#EC4A0A"/>
<path d="M37.8556 88.81C37.6504 88.8098 37.4472 88.77 37.2571 88.6927L23.4456 83.1087C23.0535 82.9496 22.7404 82.6415 22.5751 82.252C22.4099 81.8624 22.4059 81.4232 22.564 81.0307L23.6277 78.3999C23.7864 78.0074 24.0945 77.6941 24.4842 77.5288C24.8739 77.3635 25.3133 77.3598 25.7058 77.5185L39.5173 83.1025C39.9095 83.2615 40.2225 83.5696 40.3878 83.9592C40.553 84.3488 40.557 84.788 40.3989 85.1805L39.3352 87.8113C39.2157 88.106 39.0112 88.3583 38.7476 88.5362C38.4841 88.714 38.1735 88.8094 37.8556 88.81Z" fill="#CCCCCC"/>
</g>
<defs>
<clipPath id="clip0_180_31828">
<rect width="132" height="128" fill="white" transform="translate(0 0.494385)"/>
</clipPath>
</defs>
</svg>
