<svg width="19" height="18" viewBox="0 0 19 18" fill="none" xmlns="http://www.w3.org/2000/svg">
<path d="M3.66837 7.17083L5.4172 7.91072C5.62646 7.4922 5.84319 7.08862 6.0674 6.69999C6.29161 6.31136 6.53824 5.92273 6.80729 5.53411L5.55172 5.28748L3.66837 7.17083ZM6.85213 9.03176L9.40812 11.5653C10.0359 11.3262 10.7085 10.96 11.426 10.4667C12.1435 9.97344 12.8161 9.41292 13.4439 8.78513C14.4902 7.73883 15.3085 6.57668 15.899 5.29869C16.4894 4.02069 16.7472 2.8436 16.6725 1.76739C15.5963 1.69266 14.4154 1.9505 13.13 2.54092C11.8445 3.13133 10.6786 3.9497 9.63233 4.996C9.00454 5.62379 8.44402 6.29642 7.95076 7.01388C7.4575 7.73135 7.09129 8.40398 6.85213 9.03176ZM10.8431 7.57441C10.4993 7.23062 10.3274 6.80836 10.3274 6.30763C10.3274 5.80689 10.4993 5.38463 10.8431 5.04085C11.1868 4.69706 11.6128 4.52517 12.121 4.52517C12.6293 4.52517 13.0552 4.69706 13.399 5.04085C13.7428 5.38463 13.9147 5.80689 13.9147 6.30763C13.9147 6.80836 13.7428 7.23062 13.399 7.57441C13.0552 7.91819 12.6293 8.09009 12.121 8.09009C11.6128 8.09009 11.1868 7.91819 10.8431 7.57441ZM11.2691 14.7715L13.1524 12.8882L12.9058 11.6326C12.5171 11.9016 12.1285 12.1445 11.7399 12.3613C11.3513 12.578 10.9477 12.791 10.5292 13.0003L11.2691 14.7715ZM18.2868 0.13067C18.5708 1.93929 18.3952 3.69933 17.7599 5.41079C17.1246 7.12225 16.0298 8.75524 14.4752 10.3098L14.9237 12.5294C14.9834 12.8284 14.9685 13.1198 14.8788 13.4038C14.7891 13.6878 14.6397 13.9345 14.4304 14.1437L10.6637 17.9104L8.78033 13.4935L4.94636 9.65955L0.529442 7.77619L4.27373 4.00948C4.48299 3.80022 4.73336 3.65075 5.02483 3.56107C5.3163 3.47138 5.61151 3.45644 5.91046 3.51622L8.13013 3.96464C9.68464 2.41013 11.3139 1.3115 13.0179 0.668771C14.7219 0.0260387 16.4782 -0.153328 18.2868 0.13067ZM2.12133 12.507C2.64448 11.9838 3.28347 11.7185 4.03831 11.7111C4.79315 11.7036 5.43214 11.9614 5.9553 12.4846C6.47845 13.0077 6.73629 13.6467 6.72882 14.4016C6.72135 15.1564 6.45603 15.7954 5.93288 16.3186C5.5592 16.6922 4.93515 17.0136 4.06073 17.2827C3.18632 17.5517 1.97933 17.7909 0.439758 18.0001C0.64902 16.4606 0.888176 15.2536 1.15723 14.3791C1.42628 13.5047 1.74764 12.8807 2.12133 12.507ZM3.39932 13.7626C3.24984 13.912 3.10037 14.1848 2.9509 14.5809C2.80143 14.977 2.69679 15.3769 2.63701 15.7805C3.04058 15.7207 3.44042 15.6198 3.83652 15.4778C4.23263 15.3358 4.50541 15.19 4.65489 15.0406C4.83425 14.8612 4.93141 14.6445 4.94636 14.3904C4.96131 14.1363 4.8791 13.9195 4.69973 13.7402C4.52036 13.5608 4.30363 13.4748 4.04952 13.4823C3.79542 13.4898 3.57868 13.5832 3.39932 13.7626Z" fill="#172B4D"/>
</svg>
