<svg xmlns="http://www.w3.org/2000/svg" width="865.76" height="682.89" viewBox="0 0 865.76 682.89"><path d="M775.13,453.41s96-90.62,43.27-211C803.74,209,780,180.34,750.55,158.81c-66-48.21-233.14-143.61-484.5-106.76a187.41,187.41,0,0,0-75.7,28.42c-36.9,24.2-76,68.67-59.37,144.84,5.88,26.93,4.55,55-5.14,80.81-9.6,25.56-27.79,56.88-61.65,90.74,0,0-72.16,69.7-2,130a128.13,128.13,0,0,0,51.84,26.67C201.59,576,555.49,650.36,775.13,453.41Z" fill="#2b6a7a"/><g opacity="0.7"><path d="M775.13,453.41s96-90.62,43.27-211C803.74,209,780,180.34,750.55,158.81c-66-48.21-233.14-143.61-484.5-106.76a187.41,187.41,0,0,0-75.7,28.42c-36.9,24.2-76,68.67-59.37,144.84,5.88,26.93,4.55,55-5.14,80.81-9.6,25.56-27.79,56.88-61.65,90.74,0,0-72.16,69.7-2,130a128.13,128.13,0,0,0,51.84,26.67C201.59,576,555.49,650.36,775.13,453.41Z" fill="#fff"/></g><rect x="85.57" y="73.72" width="446" height="334.12" rx="6.55" fill="#fff"/><path d="M525,408.33H92.12a7.05,7.05,0,0,1-7.05-7v-321a7.05,7.05,0,0,1,7.05-7H525a7.05,7.05,0,0,1,7.05,7v321A7.05,7.05,0,0,1,525,408.33ZM92.12,74.22a6.05,6.05,0,0,0-6.05,6v321a6,6,0,0,0,6.05,6H525a6,6,0,0,0,6.05-6v-321a6.05,6.05,0,0,0-6.05-6Z" fill="#2b6a7a"/><path d="M531.57,80.27V99.33H168.41A3.31,3.31,0,0,1,165.1,96V82.41a3.3,3.3,0,0,0-3.3-3.3H108.32a3.3,3.3,0,0,0-3.3,3.3V96a3.3,3.3,0,0,1-3.3,3.3H85.57V80.27a6.55,6.55,0,0,1,6.55-6.55H525A6.55,6.55,0,0,1,531.57,80.27Z" fill="#2b6a7a"/><rect x="171.65" y="78.53" width="14.44" height="14.44" rx="2.04" fill="#fff"/><rect x="174.73" y="85.35" width="7.7" height="1" fill="#2b6a7a"/><rect x="178.08" y="82.29" width="1" height="7.13" fill="#2b6a7a"/><path d="M531.57,80.27V84.7H502.16a8.33,8.33,0,0,1-8.33-8.33V73.72H525A6.55,6.55,0,0,1,531.57,80.27Z" fill="#fff"/><path d="M532.07,85.2H502.16a8.84,8.84,0,0,1-8.83-8.83V73.22H525a7.05,7.05,0,0,1,7.05,7Zm-37.74-11v2.15a7.84,7.84,0,0,0,7.83,7.83h28.91V80.27a6.05,6.05,0,0,0-6.05-6Z" fill="#2b6a7a"/><rect x="512.53" y="73.89" width="1" height="10.61" fill="#2b6a7a"/><rect x="290.86" y="154.6" width="34.86" height="35.82" rx="5.2" fill="#f53d00"/><polygon points="291.6 186.34 290.88 185.64 305.1 171.23 312.61 178.55 325.36 165.99 326.06 166.7 312.62 179.95 305.11 172.64 291.6 186.34" fill="#2b6a7a"/><circle cx="312.23" cy="164.23" r="3.08" fill="#f6c959"/><rect x="313.66" y="178.64" width="1" height="4.5" transform="translate(-38.58 264.49) rotate(-43.27)" fill="#2b6a7a"/><rect x="487.47" y="117.13" width="14.83" height="1" fill="#2b6a7a"/><circle cx="513.09" cy="117.43" r="4.24" fill="#fff"/><path d="M513.09,122.17a4.74,4.74,0,1,1,4.73-4.74A4.74,4.74,0,0,1,513.09,122.17Zm0-8.47a3.74,3.74,0,1,0,3.73,3.73A3.73,3.73,0,0,0,513.09,113.7Z" fill="#2b6a7a"/><rect x="188.41" y="210.83" width="240.33" height="42.75" rx="8.82" fill="#fff"/><path d="M419.92,254.08H197.23a9.33,9.33,0,0,1-9.32-9.32V219.65a9.33,9.33,0,0,1,9.32-9.32H419.92a9.33,9.33,0,0,1,9.32,9.32v25.11A9.33,9.33,0,0,1,419.92,254.08ZM197.23,211.33a8.33,8.33,0,0,0-8.32,8.32v25.11a8.33,8.33,0,0,0,8.32,8.32H419.92a8.33,8.33,0,0,0,8.32-8.32V219.65a8.33,8.33,0,0,0-8.32-8.32Z" fill="#2b6a7a"/><path d="M401.87,236.75a7.15,7.15,0,1,1,7.15-7.14A7.14,7.14,0,0,1,401.87,236.75Zm0-13.29a6.15,6.15,0,1,0,6.15,6.15A6.16,6.16,0,0,0,401.87,223.46Z" fill="#2b6a7a"/><rect x="409.47" y="233.45" width="1" height="9.42" transform="translate(-53.47 338.28) rotate(-42.34)" fill="#2b6a7a"/><rect x="247.33" y="272.46" width="56.42" height="20.8" rx="9.75" fill="#f53d00"/><rect x="312.42" y="272.46" width="56.42" height="20.8" rx="9.75" fill="#f53d00"/><rect x="260.81" y="282.35" width="29.46" height="1" fill="#2b6a7a"/><rect x="326.58" y="282.35" width="29.46" height="1" fill="#2b6a7a"/><rect x="389.84" y="382.88" width="21.57" height="1" fill="#2b6a7a"/><rect x="420.17" y="382.88" width="21.57" height="1" fill="#2b6a7a"/><path d="M634,264.94l-37.55,26.58s-4,.58,1.54,12.71c0,0,3.08,2.7-1.93,17.72l-5.2,25.8,21.19,47.57,71.25,11.94Z" fill="#f53d00"/><g opacity="0.3"><path d="M634,264.94l-37.55,26.58s-4,.58,1.54,12.71c0,0,3.08,2.7-1.93,17.72l-5.2,25.8,21.19,47.57,71.25,11.94Z" fill="#fff"/></g><polygon points="580.1 263.4 599.36 289.4 634.02 264.94 626.9 220.07 599.74 221.81 580.1 263.4" fill="#fff"/><path d="M599.25,290.09l-19.73-26.63,19.9-42.13,27.9-1.78,7.24,45.62-.25.18Zm-18.57-26.74,18.79,25.36,34-24-7-44.12-26.4,1.69Z" fill="#2b6a7a"/><polygon points="597.43 241.07 605.37 284.99 599.36 289.4 580.1 263.4 597.43 241.07" fill="#2b6a7a"/><ellipse cx="550.3" cy="213.91" rx="46.14" ry="62.14" transform="translate(-39.75 234.57) rotate(-23.25)" fill="#fff"/><path d="M560.82,274.34c-20.47,0-42.36-16.38-53.38-42-13.63-31.74-5.5-65.82,18.13-76,11.48-4.93,24.83-3.55,37.61,3.87s23.38,19.93,30,35.28h0c6.6,15.35,8.36,31.69,5,46s-11.61,25-23.09,29.94A35.77,35.77,0,0,1,560.82,274.34Zm-21-119.89A34.92,34.92,0,0,0,526,157.27c-23.13,9.94-31,43.42-17.61,74.65,10.85,25.26,32.38,41.42,52.44,41.42a34.79,34.79,0,0,0,13.83-2.8c11.17-4.8,19.17-15.19,22.5-29.25s1.61-30.25-4.9-45.4h0c-6.5-15.15-17-27.51-29.55-34.8A45.56,45.56,0,0,0,539.86,154.45Z" fill="#2b6a7a"/><path d="M486.9,401.29s-4.63,17.52,41.59,51.22c0,0,35.36,27.53,47,30,0,0-28.56-63.4-33.95-103.92,0,0-20.61-18.36-29.08-14.7,0,0-7.8-8.43-14.84-6a7,7,0,0,0-3.12,2.2c-3.09,3.77-14.07,17.6-16.71,27.33C477.84,387.42,475.15,391.85,486.9,401.29Z" fill="#f53d00"/><g opacity="0.3"><path d="M486.9,401.29s-4.63,17.52,41.59,51.22c0,0,35.36,27.53,47,30,0,0-28.56-63.4-33.95-103.92,0,0-20.61-18.36-29.08-14.7,0,0-7.8-8.43-14.84-6a7,7,0,0,0-3.12,2.2c-3.09,3.77-14.07,17.6-16.71,27.33C477.84,387.42,475.15,391.85,486.9,401.29Z" fill="#fff"/></g><path d="M497.29,273.32c0-23.34-18.62-42.27-41.59-42.27S414.1,250,414.1,273.32c0,22.36,17.08,40.66,38.71,42.17l6.53,74a5.34,5.34,0,0,0,5.79,4.85l4.94-.44a5.33,5.33,0,0,0,4.85-5.78l-6.58-74.48A42.22,42.22,0,0,0,497.29,273.32Zm-41.78,30.91A30.24,30.24,0,1,1,485.74,274,30.24,30.24,0,0,1,455.51,304.23Z" fill="#f6c959"/><g opacity="0.47"><circle cx="455.51" cy="274" r="30.23" fill="#fff"/></g><path d="M577.4,321l-.06.7a4.53,4.53,0,0,0-3.4,1.23L546,331.77a5.62,5.62,0,0,0-1,.56l-.2,0L542.36,321a18.53,18.53,0,0,1-14.64-10.78s-12.08-8.45-10.1-19.36a11.89,11.89,0,0,1,7.63-9c10.36-3.81,37.15-12.57,41.18-2.66C566.43,279.2,576.06,300.57,577.4,321Z" fill="#fff"/><path d="M544.47,332.88l-2.53-11.44a19.18,19.18,0,0,1-14.62-10.91c-1.32-.95-12.13-9.13-10.19-19.78a12.42,12.42,0,0,1,8-9.36c11.19-4.12,37.66-12.6,41.81-2.38.09.19,9.68,21.67,11,41.94v0l-.11,1.21-.48,0a4.13,4.13,0,0,0-3,1.07l-.09.09-.12.05-27.92,8.85a6.77,6.77,0,0,0-.83.5l-.11.07Zm11.67-57.73c-10.15,0-24.94,5.05-30.72,7.18a11.43,11.43,0,0,0-7.31,8.6c-1.9,10.47,9.78,18.78,9.9,18.86l.11.08.06.13c4.25,9.61,14.12,10.48,14.21,10.49l.37,0,2.45,11.12a6.63,6.63,0,0,1,.59-.31l27.87-8.85a5.15,5.15,0,0,1,3.22-1.3V321c-1.33-20.08-10.83-41.37-10.93-41.58C564.71,276.29,560.94,275.15,556.14,275.15Z" fill="#2b6a7a"/><rect x="527.89" y="297.68" width="1" height="11.16" transform="translate(-60.47 147.04) rotate(-15)" fill="#2b6a7a"/><rect x="92.94" y="333.36" width="176.25" height="218.67" rx="4.38" fill="#fff"/><path d="M264.81,552.53H97.32a4.9,4.9,0,0,1-4.88-4.89V337.74a4.89,4.89,0,0,1,4.88-4.88H264.81a4.89,4.89,0,0,1,4.88,4.88v209.9A4.9,4.9,0,0,1,264.81,552.53ZM97.32,333.86a3.88,3.88,0,0,0-3.88,3.88v209.9a3.89,3.89,0,0,0,3.88,3.89H264.81a3.89,3.89,0,0,0,3.88-3.89V337.74a3.88,3.88,0,0,0-3.88-3.88Z" fill="#2b6a7a"/><path d="M307.13,349.59V536.05a4.39,4.39,0,0,1-4.39,4.38H269.19V345.21h33.55A4.39,4.39,0,0,1,307.13,349.59Z" fill="#fff"/><path d="M302.74,540.93H268.69V344.71h34.05a4.89,4.89,0,0,1,4.89,4.88V536.05A4.89,4.89,0,0,1,302.74,540.93Zm-33.05-1h33.05a3.89,3.89,0,0,0,3.89-3.88V349.59a3.89,3.89,0,0,0-3.89-3.88H269.69Z" fill="#2b6a7a"/><path d="M116.24,345.21H246a11.11,11.11,0,0,1,11.11,11.11V485.59A11.11,11.11,0,0,1,246,496.7H117.21a11.11,11.11,0,0,1-11.11-11.11V355.35A10.13,10.13,0,0,1,116.24,345.21Z" fill="#f53d00"/><polygon points="106.56 474.11 105.85 473.41 153.8 424.85 170.66 442.24 220.98 391.66 257.5 428.9 256.79 429.6 220.97 393.08 170.65 443.67 153.79 426.28 106.56 474.11" fill="#2b6a7a"/><rect x="173.45" y="441.7" width="1" height="9.89" transform="translate(-253.28 229.32) rotate(-41.76)" fill="#2b6a7a"/><rect x="92.91" y="508.52" width="176.45" height="1" fill="#2b6a7a"/><path d="M54.47,348.8V535.26a4.38,4.38,0,0,0,4.38,4.38H92.41V344.42H58.85A4.38,4.38,0,0,0,54.47,348.8Z" fill="#fff"/><path d="M92.91,540.14H58.85A4.89,4.89,0,0,1,54,535.26V348.8a4.89,4.89,0,0,1,4.88-4.88H92.91ZM58.85,344.92A3.88,3.88,0,0,0,55,348.8V535.26a3.88,3.88,0,0,0,3.88,3.88H91.91V344.92Z" fill="#2b6a7a"/><polygon points="75.22 448.44 69.63 442.28 76.56 435.62 77.25 436.35 71.02 442.33 75.96 447.77 75.22 448.44" fill="#2b6a7a"/><polygon points="286.38 436.41 291.97 442.57 285.04 449.23 284.34 448.51 290.58 442.52 285.64 437.09 286.38 436.41" fill="#2b6a7a"/><circle cx="169.87" cy="400.8" r="11.07" fill="#f6c959"/><rect x="130.08" y="521.23" width="40.84" height="1" fill="#2b6a7a"/><rect x="130.22" y="529.13" width="40.84" height="1" fill="#2b6a7a"/><rect x="130.22" y="536.51" width="24.77" height="1" fill="#2b6a7a"/><path d="M110.85,522.25s-3.16-2.89-5.8.27c0,0-2.89,3.42,5.8,9.22,0,0,5.5-3.41,5.88-7.51a3.11,3.11,0,0,0-2.76-3.44A3.78,3.78,0,0,0,110.85,522.25Z" fill="#f53d00"/><rect x="338.42" y="367.01" width="92.24" height="92.63" rx="10.82" fill="#fff"/><path d="M419.85,460.14H349.24a11.34,11.34,0,0,1-11.32-11.32v-71a11.34,11.34,0,0,1,11.32-11.32h70.61a11.33,11.33,0,0,1,11.31,11.32v71A11.33,11.33,0,0,1,419.85,460.14Zm-70.61-92.63a10.33,10.33,0,0,0-10.32,10.32v71a10.33,10.33,0,0,0,10.32,10.32h70.61a10.33,10.33,0,0,0,10.31-10.32v-71a10.33,10.33,0,0,0-10.31-10.32Z" fill="#2b6a7a"/><rect x="338.42" y="439.31" width="91.85" height="1" fill="#2b6a7a"/><rect x="349.78" y="448.93" width="58.16" height="1" fill="#2b6a7a"/><circle cx="367.31" cy="449.24" r="3.27" fill="#f53d00"/><rect x="415.07" y="448.74" width="5.58" height="1" fill="#2b6a7a"/><rect x="363.65" y="388.77" width="42.37" height="30.04" rx="10.83" fill="#f53d00"/><polygon points="380.59 397.44 380.59 409.95 392.15 403.6 380.59 397.44" fill="#f6c959"/><path d="M533.88,202.55A257.29,257.29,0,0,1,496.33,221S453.58,144.78,537.73,114c0,0,56.43-23.3,87.63,23.3,0,0,16.56,17.52,17.52,70.1l-24.46,20.79s-20.8,2-34-12.08l-17-28.22-10.21,5.25L576.25,259l-25.81-63.36-9.82,4.43-11.17-22Z" fill="#2b6a7a"/><rect x="615.3" y="216.93" width="36.67" height="9.24" rx="4.33" transform="translate(4.79 456.35) rotate(-39.75)" fill="#f53d00"/><ellipse cx="577.12" cy="201.11" rx="15.5" ry="17.24" fill="#fff"/><path d="M577.12,218.84c-8.83,0-16-8-16-17.73s7.18-17.74,16-17.74,16,8,16,17.74S585.94,218.84,577.12,218.84Zm0-34.47c-8.28,0-15,7.51-15,16.74s6.73,16.73,15,16.73,15-7.51,15-16.73S585.39,184.37,577.12,184.37Z" fill="#2b6a7a"/><path d="M812.54,639.12s-208.95-2.16-208.95-.77l-1.54-125s-21.76-7.52-39.09-62c0,0-34.08-85.31-18.29-96.1,0,0-6.94-17.79.39-22.93a5.62,5.62,0,0,1,1-.56l27.92-8.86a4.53,4.53,0,0,1,3.4-1.23c3.24.17,8.49,3.67,14.51,20.1,0,0,9,2.12,13.29,15.6,0,0,4-62.39,35-77.8,0,0,40.64-46.6,74.34,8.86,0,0,42.56,55.46,68.36,179.29C782.88,467.73,807.53,578.26,812.54,639.12Z" fill="#f53d00"/><g opacity="0.1"><path d="M605.14,357.38l14.44,39.09s8.47-43.71,32.16-69.9c0,0-17.91,6.55-32.74,50.07Z"/></g><g opacity="0.1"><path d="M602.05,513.37s29.47,13.48,64.52-38.13c0,0,21.37-30.82,47.56-100.14,0,0-21.57,93.78-56.42,128.83,0,0-20.41,24.07-55.56,19.74Z"/></g><path d="M652.89,308.27s-34-35.95-26.85-74.4l21.09-17.54s47.55-7,71.62,39l-16.56,12.9-10.4-5.78,6.36,11.17Z" fill="#2b6a7a"/><path d="M497.67,357.89l-15.2-22.27s-3.09-7.7-17-12.13l-11.75-5.39s-7.32,8.85,11.17,14.82c0,0,5.78,4.63,6.74,21.38l3.08,30.23,4.07.13a98.49,98.49,0,0,1,15.72-24.57A8.47,8.47,0,0,1,497.67,357.89Z" fill="#fff"/><path d="M479.16,385.17l-4.85-.15-3.13-30.67c-.88-15.36-5.88-20.42-6.49-21-7.25-2.36-11.48-5.45-12.57-9.2a7.3,7.3,0,0,1,1.27-6.39l.24-.3,12.1,5.55c13.42,4.29,16.85,11.59,17.18,12.35l15.51,22.71-.53.25a8,8,0,0,0-2.93,2.05,99,99,0,0,0-15.67,24.46Zm-3.94-1.12,3.28.1a101,101,0,0,1,15.68-24.38,7.92,7.92,0,0,1,2.76-2.07L482,335.81c0-.08-3.19-7.55-16.63-11.85l-11.43-5.24a6.35,6.35,0,0,0-.86,5.18c1,3.38,5.15,6.33,12,8.55l.15.08c.25.2,6,5,6.93,21.74Z" fill="#2b6a7a"/><path d="M463.59,346.6s2.31-6.94-1.73-11c0,0-4.06-5-7.95-7.34a5.27,5.27,0,0,0-5.66.16c-2.42,1.64-5.11,5-1.41,11,0,0-5.78,6.74,0,13.48,0,0-2.7,7.7,1,13.29,0,0-2.69,6.16,4.24,10,0,0,19.64,5.39,13.67-7.51,0,0,2.12-3.66.39-9.63C466.1,359.11,469.76,350.26,463.59,346.6Z" fill="#fff"/><path d="M459.94,377.87a34.8,34.8,0,0,1-8-1.13l-.11-.05c-6.43-3.57-5-9.13-4.55-10.39-3.22-5.17-1.42-11.8-1-13.24-5-6.11-1.07-12.24,0-13.63-3.74-6.36-.54-9.87,1.73-11.4a5.81,5.81,0,0,1,6.2-.18c3.92,2.34,7.91,7.25,8.08,7.45,3.68,3.68,2.37,9.52,1.93,11.07,5.54,3.65,2.91,11.52,2.44,12.77,1.47,5.23.09,8.7-.35,9.62,1.39,3.11,1.43,5.49.1,7.06S462.51,377.87,459.94,377.87Zm-7.71-2.08c.84.22,10.58,2.69,13.38-.62,1.08-1.28,1-3.37-.35-6.22l-.11-.23.13-.23s2-3.57.34-9.24l-.05-.17.06-.16c0-.08,3.42-8.5-2.29-11.89l-.35-.21.13-.38c0-.07,2.16-6.69-1.61-10.47-.08-.09-4.09-5-7.85-7.26a4.82,4.82,0,0,0-5.13.14c-2.45,1.66-4.66,4.81-1.26,10.36l.19.31-.24.28c-.22.26-5.42,6.5,0,12.83l.19.21-.1.28c0,.07-2.57,7.54.91,12.84l.15.23-.11.25C448.16,366.67,445.86,372.21,452.23,375.79Z" fill="#2b6a7a"/><rect x="452.89" y="335.32" width="1" height="14.47" transform="translate(-49.62 606.91) rotate(-64.8)" fill="#2b6a7a"/><rect x="452.98" y="348.1" width="1" height="13.95" transform="translate(-22.56 679.27) rotate(-72.32)" fill="#2b6a7a"/><rect x="456.26" y="360.56" width="1" height="12.13" transform="translate(-46.34 666.52) rotate(-69.55)" fill="#2b6a7a"/><path d="M829.77,639.62H80a.5.5,0,0,1-.5-.5.5.5,0,0,1,.5-.5H829.77a.5.5,0,0,1,.5.5A.5.5,0,0,1,829.77,639.62Z" fill="#2b6a7a"/></svg>