<svg width="16" height="16" viewBox="0 0 16 16" fill="none" xmlns="http://www.w3.org/2000/svg">
<path fill-rule="evenodd" clip-rule="evenodd" d="M7.48104 9.11834L5.52837 7.14834C5.40383 7.02241 5.33398 6.85245 5.33398 6.67534C5.33398 6.49823 5.40383 6.32827 5.52837 6.20234C5.58953 6.14024 5.66244 6.09092 5.74284 6.05726C5.82324 6.02359 5.90954 6.00626 5.9967 6.00626C6.08387 6.00626 6.17016 6.02359 6.25057 6.05726C6.33097 6.09092 6.40387 6.14024 6.46504 6.20234L7.99704 7.74701L9.53504 6.19567C9.59636 6.13361 9.66939 6.08434 9.7499 6.05071C9.83041 6.01708 9.91679 5.99976 10.004 5.99976C10.0913 5.99976 10.1777 6.01708 10.2582 6.05071C10.3387 6.08434 10.4117 6.13361 10.473 6.19567C10.5974 6.32169 10.6672 6.49162 10.6672 6.66867C10.6672 6.84573 10.5974 7.01566 10.473 7.14167L8.51304 9.11834C8.37521 9.25548 8.1888 9.33264 7.99437 9.33301C7.80837 9.33301 7.62304 9.26167 7.48104 9.11834Z" fill="#626F86"/>
</svg>
