<svg width="16" height="16" viewBox="0 0 16 16" fill="none" xmlns="http://www.w3.org/2000/svg">
<path fill-rule="evenodd" clip-rule="evenodd" d="M14.6663 8.00016C14.6663 11.6821 11.6816 14.6668 7.99967 14.6668C4.31778 14.6668 1.33301 11.6821 1.33301 8.00016C1.33301 4.31826 4.31778 1.3335 7.99967 1.3335C11.6816 1.3335 14.6663 4.31826 14.6663 8.00016ZM5.52767 8.18483L7.48034 6.21483C7.62234 6.0715 7.80767 6.00016 7.99367 6.00016C8.1881 6.00054 8.37452 6.07769 8.51234 6.21483L10.4723 8.1915C10.5967 8.31751 10.6665 8.48744 10.6665 8.6645C10.6665 8.84155 10.5967 9.01148 10.4723 9.1375C10.411 9.19956 10.338 9.24883 10.2575 9.28246C10.177 9.31609 10.0906 9.33341 10.0033 9.33341C9.91609 9.33341 9.82971 9.31609 9.7492 9.28246C9.6687 9.24883 9.59566 9.19956 9.53434 9.1375L7.99634 7.58616L6.46434 9.13083C6.40318 9.19293 6.33027 9.24225 6.24987 9.27591C6.16947 9.30958 6.08317 9.32691 5.99601 9.32691C5.90884 9.32691 5.82255 9.30958 5.74215 9.27591C5.66174 9.24225 5.58884 9.19293 5.52767 9.13083C5.40314 9.0049 5.33329 8.83494 5.33329 8.65783C5.33329 8.48072 5.40314 8.31076 5.52767 8.18483Z" fill="#FFDAD1"/>
<path fill-rule="evenodd" clip-rule="evenodd" d="M7.48104 6.21467L5.52837 8.18467C5.40383 8.3106 5.33398 8.48056 5.33398 8.65767C5.33398 8.83478 5.40383 9.00474 5.52837 9.13067C5.58953 9.19277 5.66244 9.24209 5.74284 9.27575C5.82324 9.30941 5.90954 9.32675 5.9967 9.32675C6.08387 9.32675 6.17016 9.30941 6.25057 9.27575C6.33097 9.24209 6.40387 9.19277 6.46504 9.13067L7.99704 7.586L9.53504 9.13733C9.59636 9.1994 9.66939 9.24867 9.7499 9.2823C9.83041 9.31593 9.91679 9.33325 10.004 9.33325C10.0913 9.33325 10.1777 9.31593 10.2582 9.2823C10.3387 9.24867 10.4117 9.1994 10.473 9.13733C10.5974 9.01132 10.6672 8.84139 10.6672 8.66433C10.6672 8.48728 10.5974 8.31735 10.473 8.19133L8.51304 6.21467C8.37521 6.07753 8.1888 6.00037 7.99437 6C7.80837 6 7.62304 6.07133 7.48104 6.21467Z" fill="#CC3300"/>
</svg>
