<svg width="17" height="16" viewBox="0 0 17 16" fill="none" xmlns="http://www.w3.org/2000/svg">
<path fill-rule="evenodd" clip-rule="evenodd" d="M6.68351 2.92122L5.40418 6.16455L2.16218 7.44255C2.06536 7.48098 1.98231 7.54759 1.92379 7.63377C1.86527 7.71995 1.83398 7.82172 1.83398 7.92589C1.83398 8.03006 1.86527 8.13182 1.92379 8.218C1.98231 8.30418 2.06536 8.3708 2.16218 8.40922L5.40418 9.68789L6.68351 12.9299C6.72194 13.0267 6.78855 13.1098 6.87473 13.1683C6.96091 13.2268 7.06268 13.2581 7.16685 13.2581C7.27102 13.2581 7.37278 13.2268 7.45896 13.1683C7.54514 13.1098 7.61176 13.0267 7.65018 12.9299H7.64951L8.92818 9.68789L12.1708 8.40855C12.2674 8.36988 12.3502 8.30316 12.4085 8.21702C12.4668 8.13087 12.4979 8.02924 12.4979 7.92522C12.4979 7.8212 12.4668 7.71957 12.4085 7.63342C12.3502 7.54728 12.2674 7.48056 12.1708 7.44189L8.92818 6.16455L7.64951 2.92122C7.62335 2.85498 7.5838 2.79485 7.53332 2.74461C7.48285 2.69436 7.42254 2.65508 7.35618 2.62922C7.2928 2.60414 7.2251 2.5918 7.15694 2.59291C7.08879 2.59401 7.02152 2.60854 6.95899 2.63566C6.89646 2.66278 6.83988 2.70195 6.7925 2.75095C6.74511 2.79995 6.70785 2.85781 6.68285 2.92122H6.68351ZM12.2148 1.56789L11.7195 2.82522L10.4635 3.32055C10.3946 3.34847 10.3356 3.39631 10.2941 3.45795C10.2526 3.51959 10.2304 3.59223 10.2304 3.66655C10.2304 3.74088 10.2526 3.81351 10.2941 3.87515C10.3356 3.9368 10.3946 3.98464 10.4635 4.01255L11.7195 4.50789L12.2148 5.76522C12.2423 5.83463 12.2899 5.89419 12.3516 5.93617C12.4133 5.97814 12.4862 6.00059 12.5608 6.00059C12.6355 6.00059 12.7084 5.97814 12.7701 5.93617C12.8318 5.89419 12.8794 5.83463 12.9068 5.76522L13.4035 4.50789L14.6588 4.01255C14.7285 3.98541 14.7884 3.93785 14.8306 3.87611C14.8728 3.81438 14.8954 3.74134 14.8954 3.66655C14.8954 3.59177 14.8728 3.51873 14.8306 3.45699C14.7884 3.39526 14.7285 3.3477 14.6588 3.32055L13.4035 2.82522L12.9068 1.56855C12.8884 1.52107 12.8602 1.47794 12.8242 1.44191C12.7881 1.40587 12.745 1.37772 12.6975 1.35922C12.6057 1.3237 12.5036 1.32575 12.4133 1.36492C12.3229 1.40409 12.2517 1.47724 12.2148 1.56855V1.56789ZM11.7455 10.2366L11.2495 11.4919L9.99418 11.9879C9.94647 12.0063 9.9031 12.0344 9.86684 12.0704C9.83057 12.1064 9.80219 12.1496 9.78351 12.1972C9.7477 12.2892 9.74976 12.3916 9.78924 12.482C9.82872 12.5725 9.9024 12.6436 9.99418 12.6799L11.2495 13.1752L11.7455 14.4312C11.7835 14.5272 11.8588 14.6032 11.9548 14.6412C12.0467 14.6771 12.1491 14.6751 12.2395 14.6358C12.3299 14.5964 12.4011 14.5229 12.4375 14.4312L12.9335 13.1752L14.1888 12.6799C14.2585 12.6527 14.3184 12.6052 14.3606 12.5434C14.4028 12.4817 14.4254 12.4087 14.4254 12.3339C14.4254 12.2591 14.4028 12.1861 14.3606 12.1243C14.3184 12.0626 14.2585 12.015 14.1888 11.9879L12.9335 11.4919L12.4375 10.2366C12.4191 10.1887 12.391 10.1453 12.3548 10.109C12.3186 10.0727 12.2753 10.0444 12.2275 10.0259C12.1356 9.99028 12.0334 9.99245 11.9431 10.0319C11.8528 10.0714 11.7818 10.1449 11.7455 10.2366Z" fill="white"/>
</svg>
