<svg width="24" height="25" viewBox="0 0 24 25" fill="none" xmlns="http://www.w3.org/2000/svg">
<path d="M10.5 7.5H6.5C6.08333 7.5 5.72917 7.35417 5.4375 7.0625C5.14583 6.77083 5 6.41667 5 6C5 5.58333 5.14583 5.22917 5.4375 4.9375C5.72917 4.64583 6.08333 4.5 6.5 4.5H17.5C17.9167 4.5 18.2708 4.64583 18.5625 4.9375C18.8542 5.22917 19 5.58333 19 6C19 6.41667 18.8542 6.77083 18.5625 7.0625C18.2708 7.35417 17.9167 7.5 17.5 7.5H13.5V19C13.5 19.4167 13.3542 19.7708 13.0625 20.0625C12.7708 20.3542 12.4167 20.5 12 20.5C11.5833 20.5 11.2292 20.3542 10.9375 20.0625C10.6458 19.7708 10.5 19.4167 10.5 19V7.5Z" fill="#172B4D"/>
</svg>
