<svg width="24" height="25" viewBox="0 0 24 25" fill="none" xmlns="http://www.w3.org/2000/svg">
<path d="M10.2531 10.2568H9.26056C8.94294 10.2568 8.67164 10.1443 8.44666 9.91935C8.22168 9.69438 8.10919 9.42308 8.10919 9.10546C8.10919 8.78784 8.22168 8.51654 8.44666 8.29156C8.67164 8.06658 8.94294 7.95409 9.26056 7.95409H10.2531V5.81017C10.2531 5.43962 10.3788 5.12862 10.6303 4.87717C10.8817 4.62572 11.1927 4.5 11.5633 4.5C11.9338 4.5 12.2448 4.62572 12.4963 4.87717C12.7477 5.12862 12.8735 5.43962 12.8735 5.81017V7.95409H14.6601C14.9777 7.95409 15.249 8.06658 15.474 8.29156C15.6989 8.51654 15.8114 8.78784 15.8114 9.10546C15.8114 9.42308 15.6989 9.69438 15.474 9.91935C15.249 10.1443 14.9777 10.2568 14.6601 10.2568H12.8735V16.1328C12.8735 16.7415 13.0124 17.2179 13.2903 17.562C13.5682 17.9061 13.9454 18.0782 14.4218 18.0782H14.7792C15.0703 18.0517 15.3284 18.151 15.5534 18.3759C15.7783 18.6009 15.8908 18.8722 15.8908 19.1898C15.8908 19.5604 15.7916 19.8515 15.5931 20.0633C15.3946 20.275 15.1233 20.4074 14.7792 20.4603C14.6468 20.4868 14.5145 20.5 14.3821 20.5H13.9851C12.8205 20.5 11.9074 20.1625 11.2457 19.4876C10.584 18.8127 10.2531 17.8797 10.2531 16.6886V10.2568Z" fill="#172B4D"/>
</svg>
