<svg width="36" height="36" viewBox="0 0 36 36" fill="none" xmlns="http://www.w3.org/2000/svg">
<g filter="url(#filter0_d_997_47523)">
<rect x="2" y="1" width="32" height="32" rx="8" fill="#FEE4E2"/>
<path d="M24 12.9867C21.78 12.7667 19.5467 12.6533 17.32 12.6533C16 12.6533 14.68 12.72 13.36 12.8533L12 12.9867" stroke="#B42318" stroke-width="1.5" stroke-linecap="round" stroke-linejoin="round"/>
<path d="M15.667 12.3133L15.8137 11.4399C15.9203 10.8066 16.0003 10.3333 17.127 10.3333H18.8737C20.0003 10.3333 20.087 10.8333 20.187 11.4466L20.3337 12.3133" stroke="#B42318" stroke-width="1.5" stroke-linecap="round" stroke-linejoin="round"/>
<path d="M22.5669 15.0933L22.1336 21.8066C22.0603 22.8533 22.0003 23.6666 20.1403 23.6666H15.8603C14.0003 23.6666 13.9403 22.8533 13.8669 21.8066L13.4336 15.0933" stroke="#B42318" stroke-width="1.5" stroke-linecap="round" stroke-linejoin="round"/>
<path d="M16.8867 20H19.1067" stroke="#B42318" stroke-width="1.5" stroke-linecap="round" stroke-linejoin="round"/>
<path d="M16.333 17.3333H19.6663" stroke="#B42318" stroke-width="1.5" stroke-linecap="round" stroke-linejoin="round"/>
<rect x="2.5" y="1.5" width="31" height="31" rx="7.5" stroke="#B42318"/>
</g>
<defs>
<filter id="filter0_d_997_47523" x="0" y="0" width="36" height="36" filterUnits="userSpaceOnUse" color-interpolation-filters="sRGB">
<feFlood flood-opacity="0" result="BackgroundImageFix"/>
<feColorMatrix in="SourceAlpha" type="matrix" values="0 0 0 0 0 0 0 0 0 0 0 0 0 0 0 0 0 0 127 0" result="hardAlpha"/>
<feOffset dy="1"/>
<feGaussianBlur stdDeviation="1"/>
<feColorMatrix type="matrix" values="0 0 0 0 0.0627451 0 0 0 0 0.0941176 0 0 0 0 0.156863 0 0 0 0.05 0"/>
<feBlend mode="normal" in2="BackgroundImageFix" result="effect1_dropShadow_997_47523"/>
<feBlend mode="normal" in="SourceGraphic" in2="effect1_dropShadow_997_47523" result="shape"/>
</filter>
</defs>
</svg>
