<svg width="47" height="47" viewBox="0 0 47 47" fill="none" xmlns="http://www.w3.org/2000/svg">
<rect x="3.5" y="3.13232" width="40" height="40" rx="20" fill="#F2F4F7"/>
<path d="M20.166 26.4657L23.4993 23.1323M23.4993 23.1323L26.8327 26.4657M23.4993 23.1323V30.6323M30.166 27.0847C31.1839 26.244 31.8327 24.9723 31.8327 23.549C31.8327 21.0177 29.7807 18.9657 27.2493 18.9657C27.0673 18.9657 26.8969 18.8707 26.8044 18.7138C25.7177 16.8697 23.7114 15.6323 21.416 15.6323C17.9642 15.6323 15.166 18.4305 15.166 21.8823C15.166 23.6041 15.8622 25.1632 16.9885 26.2936" stroke="#475467" stroke-width="1.66667" stroke-linecap="round" stroke-linejoin="round"/>
<rect x="3.5" y="3.13232" width="40" height="40" rx="20" stroke="#F9FAFB" stroke-width="6"/>
</svg>
