<svg width="120" height="120" viewBox="0 0 120 120" fill="none" xmlns="http://www.w3.org/2000/svg">
<rect x="0.288462" y="0.288462" width="119.423" height="119.423" rx="3.71154" fill="#FFF6F5"/>
<rect x="0.288462" y="0.288462" width="119.423" height="119.423" rx="3.71154" stroke="#CC3300" stroke-width="0.576923" stroke-dasharray="1.15 1.15"/>
<rect x="44" y="32" width="32" height="32" rx="3.07692" fill="#FFEDEB"/>
<path d="M54.3846 54.9231C53.9615 54.9231 53.5993 54.7724 53.2981 54.4712C52.9968 54.1699 52.8461 53.8077 52.8461 53.3846V42.6154C52.8461 42.1923 52.9968 41.8301 53.2981 41.5289C53.5993 41.2276 53.9615 41.0769 54.3846 41.0769H59.7692C59.9872 41.0769 60.1698 41.1506 60.3173 41.2981C60.4647 41.4455 60.5384 41.6282 60.5384 41.8462C60.5384 42.0641 60.4647 42.2468 60.3173 42.3942C60.1698 42.5417 59.9872 42.6154 59.7692 42.6154H54.3846V53.3846H65.1538V48C65.1538 47.7821 65.2275 47.5994 65.375 47.4519C65.5224 47.3045 65.7051 47.2308 65.9231 47.2308C66.141 47.2308 66.3237 47.3045 66.4711 47.4519C66.6186 47.5994 66.6923 47.7821 66.6923 48V53.3846C66.6923 53.8077 66.5416 54.1699 66.2404 54.4712C65.9391 54.7724 65.5769 54.9231 65.1538 54.9231H54.3846ZM55.1538 51.8462H64.3846L61.5 48L59.1923 51.0769L57.4615 48.7692L55.1538 51.8462ZM63.6154 44.1539H62.8461C62.6282 44.1539 62.4455 44.0801 62.2981 43.9327C62.1506 43.7853 62.0769 43.6026 62.0769 43.3846C62.0769 43.1667 62.1506 42.984 62.2981 42.8365C62.4455 42.6891 62.6282 42.6154 62.8461 42.6154H63.6154V41.8462C63.6154 41.6282 63.6891 41.4455 63.8365 41.2981C63.984 41.1506 64.1666 41.0769 64.3846 41.0769C64.6025 41.0769 64.7852 41.1506 64.9327 41.2981C65.0801 41.4455 65.1538 41.6282 65.1538 41.8462V42.6154H65.9231C66.141 42.6154 66.3237 42.6891 66.4711 42.8365C66.6186 42.984 66.6923 43.1667 66.6923 43.3846C66.6923 43.6026 66.6186 43.7853 66.4711 43.9327C66.3237 44.0801 66.141 44.1539 65.9231 44.1539H65.1538V44.9231C65.1538 45.141 65.0801 45.3237 64.9327 45.4712C64.7852 45.6186 64.6025 45.6923 64.3846 45.6923C64.1666 45.6923 63.984 45.6186 63.8365 45.4712C63.6891 45.3237 63.6154 45.141 63.6154 44.9231V44.1539Z" fill="#F53D00"/>
<path d="M28.5193 85.179C28.0354 85.179 27.5962 85.0878 27.2018 84.9055C26.8074 84.7199 26.4942 84.4531 26.2622 84.1051C26.0302 83.7538 25.9142 83.3295 25.9142 82.8324C25.9142 82.3949 26.0003 82.0402 26.1727 81.7685C26.345 81.4934 26.5754 81.2779 26.8637 81.1222C27.1521 80.9664 27.4703 80.8504 27.8183 80.7741C28.1696 80.6946 28.5226 80.6316 28.8772 80.5852C29.3412 80.5256 29.7174 80.4808 30.0058 80.451C30.2974 80.4179 30.5096 80.3632 30.6421 80.2869C30.778 80.2107 30.846 80.0781 30.846 79.8892V79.8494C30.846 79.3589 30.7117 78.9777 30.4433 78.706C30.1781 78.4342 29.7754 78.2983 29.2352 78.2983C28.675 78.2983 28.2359 78.4209 27.9177 78.6662C27.5995 78.9115 27.3758 79.1733 27.2465 79.4517L26.1329 79.054C26.3318 78.59 26.5969 78.2287 26.9284 77.9702C27.2631 77.7083 27.6277 77.526 28.0221 77.4233C28.4198 77.3172 28.8109 77.2642 29.1954 77.2642C29.4407 77.2642 29.7224 77.294 30.0406 77.3537C30.3621 77.41 30.672 77.5277 30.9703 77.7067C31.2719 77.8857 31.5221 78.1558 31.721 78.517C31.9198 78.8783 32.0193 79.3622 32.0193 79.9688V85H30.846V83.9659H30.7863C30.7068 84.1316 30.5742 84.3089 30.3886 84.4979C30.203 84.6868 29.9561 84.8475 29.6478 84.9801C29.3396 85.1127 28.9634 85.179 28.5193 85.179ZM28.6982 84.125C29.1623 84.125 29.5534 84.0339 29.8715 83.8516C30.193 83.6693 30.435 83.4339 30.5974 83.1456C30.7631 82.8572 30.846 82.554 30.846 82.2358V81.1619C30.7963 81.2216 30.6869 81.2763 30.5178 81.326C30.3521 81.3724 30.1599 81.4138 29.9411 81.4503C29.7257 81.4834 29.5152 81.5133 29.3097 81.5398C29.1076 81.563 28.9435 81.5829 28.8176 81.5994C28.5126 81.6392 28.2276 81.7038 27.9624 81.7933C27.7006 81.8795 27.4885 82.0104 27.3261 82.1861C27.167 82.3584 27.0874 82.5937 27.0874 82.892C27.0874 83.2997 27.2383 83.608 27.5399 83.8168C27.8448 84.0223 28.2309 84.125 28.6982 84.125ZM37.0443 85.1591C36.4079 85.1591 35.8461 84.9983 35.3589 84.6768C34.8717 84.352 34.4906 83.8946 34.2155 83.3047C33.9404 82.7114 33.8028 82.0104 33.8028 81.2017C33.8028 80.3996 33.9404 79.7036 34.2155 79.1136C34.4906 78.5237 34.8734 78.0679 35.3639 77.7464C35.8544 77.425 36.4212 77.2642 37.0642 77.2642C37.5613 77.2642 37.9541 77.3471 38.2425 77.5128C38.5341 77.6752 38.7562 77.8608 38.9086 78.0696C39.0644 78.2751 39.1854 78.4441 39.2716 78.5767H39.371V74.8182H40.5443V85H39.4108V83.8267H39.2716C39.1854 83.9659 39.0628 84.1416 38.9037 84.3537C38.7446 84.5625 38.5175 84.7498 38.2226 84.9155C37.9276 85.0779 37.5348 85.1591 37.0443 85.1591ZM37.2034 84.1051C37.674 84.1051 38.0718 83.9825 38.3966 83.7372C38.7214 83.4886 38.9683 83.1456 39.1373 82.7081C39.3064 82.2673 39.3909 81.7585 39.3909 81.1818C39.3909 80.6117 39.308 80.1129 39.1423 79.6854C38.9766 79.2545 38.7313 78.9197 38.4065 78.6811C38.0817 78.4392 37.6807 78.3182 37.2034 78.3182C36.7062 78.3182 36.2919 78.4458 35.9605 78.701C35.6324 78.9529 35.3854 79.2959 35.2197 79.7301C35.0573 80.161 34.9761 80.6449 34.9761 81.1818C34.9761 81.7254 35.059 82.2192 35.2247 82.6634C35.3937 83.1042 35.6423 83.4555 35.9704 83.7173C36.3019 83.9759 36.7129 84.1051 37.2034 84.1051ZM45.7396 85.1591C45.1032 85.1591 44.5415 84.9983 44.0542 84.6768C43.567 84.352 43.1859 83.8946 42.9108 83.3047C42.6357 82.7114 42.4981 82.0104 42.4981 81.2017C42.4981 80.3996 42.6357 79.7036 42.9108 79.1136C43.1859 78.5237 43.5687 78.0679 44.0592 77.7464C44.5497 77.425 45.1165 77.2642 45.7595 77.2642C46.2567 77.2642 46.6494 77.3471 46.9378 77.5128C47.2294 77.6752 47.4515 77.8608 47.604 78.0696C47.7597 78.2751 47.8807 78.4441 47.9669 78.5767H48.0663V74.8182H49.2396V85H48.1061V83.8267H47.9669C47.8807 83.9659 47.7581 84.1416 47.599 84.3537C47.4399 84.5625 47.2129 84.7498 46.9179 84.9155C46.6229 85.0779 46.2301 85.1591 45.7396 85.1591ZM45.8987 84.1051C46.3693 84.1051 46.7671 83.9825 47.0919 83.7372C47.4167 83.4886 47.6636 83.1456 47.8327 82.7081C48.0017 82.2673 48.0862 81.7585 48.0862 81.1818C48.0862 80.6117 48.0033 80.1129 47.8376 79.6854C47.6719 79.2545 47.4266 78.9197 47.1018 78.6811C46.777 78.4392 46.376 78.3182 45.8987 78.3182C45.4015 78.3182 44.9872 78.4458 44.6558 78.701C44.3277 78.9529 44.0808 79.2959 43.915 79.7301C43.7526 80.161 43.6714 80.6449 43.6714 81.1818C43.6714 81.7254 43.7543 82.2192 43.92 82.6634C44.089 83.1042 44.3376 83.4555 44.6657 83.7173C44.9972 83.9759 45.4082 84.1051 45.8987 84.1051ZM57.7361 85.179C57.2522 85.179 56.813 85.0878 56.4186 84.9055C56.0242 84.7199 55.711 84.4531 55.479 84.1051C55.247 83.7538 55.1309 83.3295 55.1309 82.8324C55.1309 82.3949 55.2171 82.0402 55.3895 81.7685C55.5618 81.4934 55.7922 81.2779 56.0805 81.1222C56.3689 80.9664 56.6871 80.8504 57.0351 80.7741C57.3864 80.6946 57.7394 80.6316 58.094 80.5852C58.558 80.5256 58.9342 80.4808 59.2226 80.451C59.5142 80.4179 59.7264 80.3632 59.8589 80.2869C59.9948 80.2107 60.0628 80.0781 60.0628 79.8892V79.8494C60.0628 79.3589 59.9285 78.9777 59.6601 78.706C59.3949 78.4342 58.9922 78.2983 58.452 78.2983C57.8918 78.2983 57.4527 78.4209 57.1345 78.6662C56.8163 78.9115 56.5926 79.1733 56.4633 79.4517L55.3497 79.054C55.5486 78.59 55.8137 78.2287 56.1452 77.9702C56.4799 77.7083 56.8445 77.526 57.2389 77.4233C57.6366 77.3172 58.0277 77.2642 58.4122 77.2642C58.6575 77.2642 58.9392 77.294 59.2574 77.3537C59.5789 77.41 59.8888 77.5277 60.1871 77.7067C60.4887 77.8857 60.7389 78.1558 60.9378 78.517C61.1366 78.8783 61.2361 79.3622 61.2361 79.9688V85H60.0628V83.9659H60.0031C59.9236 84.1316 59.791 84.3089 59.6054 84.4979C59.4198 84.6868 59.1729 84.8475 58.8646 84.9801C58.5564 85.1127 58.1802 85.179 57.7361 85.179ZM57.915 84.125C58.3791 84.125 58.7702 84.0339 59.0883 83.8516C59.4098 83.6693 59.6518 83.4339 59.8142 83.1456C59.9799 82.8572 60.0628 82.554 60.0628 82.2358V81.1619C60.0131 81.2216 59.9037 81.2763 59.7346 81.326C59.5689 81.3724 59.3767 81.4138 59.1579 81.4503C58.9425 81.4834 58.732 81.5133 58.5265 81.5398C58.3244 81.563 58.1603 81.5829 58.0344 81.5994C57.7294 81.6392 57.4444 81.7038 57.1792 81.7933C56.9174 81.8795 56.7053 82.0104 56.5429 82.1861C56.3838 82.3584 56.3042 82.5937 56.3042 82.892C56.3042 83.2997 56.455 83.608 56.7567 83.8168C57.0616 84.0223 57.4477 84.125 57.915 84.125ZM68.4884 74.8182V85H67.3151V74.8182H68.4884ZM73.7396 85.1591C73.0502 85.1591 72.4453 84.995 71.925 84.6669C71.4079 84.3388 71.0036 83.8797 70.7119 83.2898C70.4236 82.6998 70.2794 82.0104 70.2794 81.2216C70.2794 80.4261 70.4236 79.7318 70.7119 79.1385C71.0036 78.5452 71.4079 78.0845 71.925 77.7564C72.4453 77.4283 73.0502 77.2642 73.7396 77.2642C74.429 77.2642 75.0322 77.4283 75.5493 77.7564C76.0696 78.0845 76.474 78.5452 76.7623 79.1385C77.054 79.7318 77.1998 80.4261 77.1998 81.2216C77.1998 82.0104 77.054 82.6998 76.7623 83.2898C76.474 83.8797 76.0696 84.3388 75.5493 84.6669C75.0322 84.995 74.429 85.1591 73.7396 85.1591ZM73.7396 84.1051C74.2633 84.1051 74.6942 83.9709 75.0322 83.7024C75.3703 83.4339 75.6205 83.081 75.7829 82.6435C75.9453 82.206 76.0265 81.732 76.0265 81.2216C76.0265 80.7112 75.9453 80.2356 75.7829 79.7947C75.6205 79.3539 75.3703 78.9976 75.0322 78.7259C74.6942 78.4541 74.2633 78.3182 73.7396 78.3182C73.2159 78.3182 72.7851 78.4541 72.447 78.7259C72.1089 78.9976 71.8587 79.3539 71.6963 79.7947C71.5339 80.2356 71.4527 80.7112 71.4527 81.2216C71.4527 81.732 71.5339 82.206 71.6963 82.6435C71.8587 83.081 72.1089 83.4339 72.447 83.7024C72.7851 83.9709 73.2159 84.1051 73.7396 84.1051ZM82.0732 88.0227C81.5065 88.0227 81.0193 87.9498 80.6116 87.804C80.2039 87.6615 79.8642 87.4725 79.5924 87.2372C79.324 87.0052 79.1102 86.7566 78.9511 86.4915L79.8857 85.8352C79.9918 85.9744 80.126 86.1335 80.2884 86.3125C80.4508 86.4948 80.6729 86.6522 80.9546 86.7848C81.2397 86.9207 81.6125 86.9886 82.0732 86.9886C82.6897 86.9886 83.1985 86.8395 83.5995 86.5412C84.0006 86.2429 84.2011 85.7756 84.2011 85.1392V83.5881H84.1017C84.0155 83.7273 83.8928 83.8996 83.7338 84.1051C83.578 84.3073 83.3526 84.4879 83.0576 84.647C82.766 84.8028 82.3715 84.8807 81.8744 84.8807C81.2579 84.8807 80.7044 84.7348 80.2139 84.4432C79.7267 84.1515 79.3405 83.7273 79.0555 83.1705C78.7738 82.6136 78.6329 81.9375 78.6329 81.142C78.6329 80.3598 78.7704 79.6787 79.0455 79.0987C79.3206 78.5154 79.7035 78.0646 80.194 77.7464C80.6845 77.425 81.2513 77.2642 81.8943 77.2642C82.3914 77.2642 82.7858 77.3471 83.0775 77.5128C83.3725 77.6752 83.5979 77.8608 83.7536 78.0696C83.9127 78.2751 84.0354 78.4441 84.1215 78.5767H84.2409V77.3636H85.3744V85.2188C85.3744 85.875 85.2252 86.4086 84.9269 86.8196C84.632 87.2339 84.2342 87.5372 83.7338 87.7294C83.2366 87.925 82.6831 88.0227 82.0732 88.0227ZM82.0335 83.8267C82.5041 83.8267 82.9018 83.719 83.2267 83.5036C83.5515 83.2881 83.7984 82.9782 83.9674 82.5739C84.1365 82.1695 84.221 81.6856 84.221 81.1222C84.221 80.572 84.1381 80.0864 83.9724 79.6655C83.8067 79.2446 83.5614 78.9148 83.2366 78.6761C82.9118 78.4375 82.5107 78.3182 82.0335 78.3182C81.5363 78.3182 81.122 78.4441 80.7906 78.696C80.4624 78.9479 80.2155 79.286 80.0498 79.7102C79.8874 80.1345 79.8062 80.6051 79.8062 81.1222C79.8062 81.6525 79.8891 82.1214 80.0548 82.5291C80.2238 82.9335 80.4724 83.2517 80.8005 83.4837C81.132 83.7124 81.5429 83.8267 82.0335 83.8267ZM90.6244 85.1591C89.935 85.1591 89.3301 84.995 88.8097 84.6669C88.2927 84.3388 87.8883 83.8797 87.5967 83.2898C87.3083 82.6998 87.1642 82.0104 87.1642 81.2216C87.1642 80.4261 87.3083 79.7318 87.5967 79.1385C87.8883 78.5452 88.2927 78.0845 88.8097 77.7564C89.3301 77.4283 89.935 77.2642 90.6244 77.2642C91.3138 77.2642 91.917 77.4283 92.434 77.7564C92.9544 78.0845 93.3588 78.5452 93.6471 79.1385C93.9388 79.7318 94.0846 80.4261 94.0846 81.2216C94.0846 82.0104 93.9388 82.6998 93.6471 83.2898C93.3588 83.8797 92.9544 84.3388 92.434 84.6669C91.917 84.995 91.3138 85.1591 90.6244 85.1591ZM90.6244 84.1051C91.1481 84.1051 91.5789 83.9709 91.917 83.7024C92.2551 83.4339 92.5053 83.081 92.6677 82.6435C92.8301 82.206 92.9113 81.732 92.9113 81.2216C92.9113 80.7112 92.8301 80.2356 92.6677 79.7947C92.5053 79.3539 92.2551 78.9976 91.917 78.7259C91.5789 78.4541 91.1481 78.3182 90.6244 78.3182C90.1007 78.3182 89.6698 78.4541 89.3318 78.7259C88.9937 78.9976 88.7435 79.3539 88.5811 79.7947C88.4186 80.2356 88.3374 80.7112 88.3374 81.2216C88.3374 81.732 88.4186 82.206 88.5811 82.6435C88.7435 83.081 88.9937 83.4339 89.3318 83.7024C89.6698 83.9709 90.1007 84.1051 90.6244 84.1051Z" fill="#172B4D"/>
</svg>
