<svg width="32" height="33" viewBox="0 0 32 33" fill="none" xmlns="http://www.w3.org/2000/svg">
<g clip-path="url(#clip0_412_18248)">
<g clip-path="url(#clip1_412_18248)">
<path d="M21.2758 30.0249L31.2484 17.0416C31.2899 16.582 31.3124 16.1169 31.3124 15.6465C31.3124 15.1573 31.2884 14.6737 31.2436 14.1962L21.1209 1.21311L21.1212 1.21255C19.5198 0.644297 17.7962 0.333984 15.9999 0.333984C7.54312 0.333984 0.6875 7.18961 0.6875 15.6464C0.6875 24.1032 7.54312 30.9589 15.9999 30.9589C17.8543 30.9589 19.6316 30.6291 21.2766 30.0252C21.2764 30.0252 21.2758 30.0249 21.2758 30.0249Z" fill="#3B3868"/>
<path d="M3.62744 3.58009V11.8303C3.62744 12.8562 4.46682 13.6955 5.49269 13.6955H7.15294C7.33807 13.6955 7.51069 13.7888 7.61219 13.9436L8.7555 15.6869C9.03338 16.1106 9.65444 16.1106 9.93232 15.6869L11.0756 13.9436C11.1771 13.7888 11.3498 13.6955 11.5349 13.6955H31.1884C30.5089 8.35353 27.0774 3.87166 22.3594 1.71484H5.49269C4.46675 1.71484 3.62744 2.55422 3.62744 3.58009Z" fill="#42C3FC"/>
<path d="M12.1404 11.8303V3.58009C12.1404 2.55422 12.9798 1.71484 14.0056 1.71484H5.49269C4.46682 1.71484 3.62744 2.55422 3.62744 3.58009V11.8303C3.62744 12.8562 4.46682 13.6955 5.49269 13.6955H7.15294C7.33807 13.6955 7.51069 13.7888 7.61219 13.9436L8.7555 15.6869C9.03338 16.1106 9.65444 16.1106 9.93232 15.6869L11.0756 13.9436C11.1771 13.7888 11.3498 13.6955 11.5349 13.6955H14.0056C12.9798 13.6955 12.1404 12.8562 12.1404 11.8303Z" fill="#1AA9E8"/>
<path d="M5.49269 17.5425C4.46682 17.5425 3.62744 18.3819 3.62744 19.4077V27.6579C3.62744 28.6838 4.46682 29.5232 5.49269 29.5232H7.15294C7.33807 29.5232 7.51069 29.6164 7.61219 29.7712L8.7555 31.5145C9.03338 31.9382 9.65444 31.9382 9.93232 31.5145L11.0756 29.7712C11.1771 29.6164 11.3498 29.5232 11.5349 29.5232H22.4805C27.1523 27.3378 30.5384 22.863 31.1956 17.5425H5.49269Z" fill="#FF4155"/>
<path d="M12.1404 27.6579V19.4077C12.1404 18.3819 12.9798 17.5425 14.0056 17.5425H5.49269C4.46682 17.5425 3.62744 18.3819 3.62744 19.4077V27.6579C3.62744 28.6838 4.46682 29.5231 5.49269 29.5231H7.15294C7.33807 29.5231 7.51069 29.6164 7.61219 29.7711L8.7555 31.5145C9.03338 31.9382 9.65444 31.9382 9.93232 31.5145L11.0756 29.7711C11.1771 29.6163 11.3498 29.5231 11.5349 29.5231H14.0056C12.9798 29.5232 12.1404 28.6838 12.1404 27.6579Z" fill="#E80054"/>
<path d="M31.1166 13.1937H11.5347C11.1794 13.1937 10.8508 13.3711 10.6559 13.6683L9.51255 15.4117C9.46055 15.491 9.38443 15.5029 9.34374 15.5029C9.30305 15.5029 9.22699 15.4911 9.17499 15.4117L8.03167 13.6683C7.83674 13.3711 7.50811 13.1938 7.1528 13.1938H5.49249C4.74068 13.1938 4.12905 12.5821 4.12905 11.8303V3.58008C4.12905 2.82826 4.74068 2.21658 5.49249 2.21658H23.3597C22.6462 1.82483 21.8979 1.48864 21.1209 1.21301H5.49249C4.1873 1.21301 3.12549 2.27489 3.12549 3.58008V11.8303C3.12549 13.1354 4.1873 14.1973 5.49249 14.1973H7.15274C7.1688 14.1973 7.18361 14.2053 7.19249 14.2187L8.33574 15.962C8.55924 16.3029 8.93605 16.5065 9.34368 16.5065H9.34374C9.75136 16.5065 10.1282 16.3029 10.3517 15.9621L11.495 14.2188C11.5039 14.2054 11.5187 14.1973 11.5347 14.1973H31.2445C31.2127 13.8594 31.1699 13.5248 31.1166 13.1937Z" fill="#8AE1FF"/>
<path d="M23.4583 29.0213H11.5347C11.1793 29.0213 10.8508 29.1987 10.6559 29.4959L9.51255 31.2392C9.46055 31.3186 9.38443 31.3304 9.34374 31.3304C9.30305 31.3304 9.22699 31.3185 9.17499 31.2392L8.03168 29.4959C7.83674 29.1987 7.50818 29.0213 7.1528 29.0213H5.49249C4.74068 29.0213 4.12905 28.4096 4.12905 27.6578V19.4076C4.12905 18.6558 4.74068 18.0442 5.49249 18.0442H31.125C31.1771 17.7131 31.2187 17.3785 31.2492 17.0406H5.49249C4.1873 17.0406 3.12549 18.1025 3.12549 19.4076V27.6578C3.12549 28.963 4.1873 30.0248 5.49249 30.0248H7.15274C7.1688 30.0248 7.18361 30.0328 7.19249 30.0463L8.33574 31.7895C8.55924 32.1304 8.93605 32.3339 9.34368 32.334H9.34374C9.75136 32.334 10.1282 32.1305 10.3517 31.7896L11.4951 30.0463C11.5039 30.0328 11.5187 30.0248 11.5347 30.0248H21.2758C22.0333 29.7468 22.7624 29.4101 23.4583 29.0213Z" fill="#FF7186"/>
<path d="M11.8757 6.00707C11.523 5.65438 10.9511 5.65438 10.5984 6.00707L9.02303 7.58244L8.14784 6.70719C7.79515 6.35444 7.22328 6.35451 6.87053 6.70719C6.51778 7.05988 6.51778 7.63176 6.87046 7.98451L8.38434 9.49838C8.73684 9.85082 9.30896 9.85113 9.66165 9.49838L11.8757 7.28438C12.2285 6.93163 12.2285 6.35976 11.8757 6.00707Z" fill="#E9EFFF"/>
<path d="M11.3775 21.7988C11.0179 21.4715 10.4577 21.5031 10.1139 21.847L9.4681 22.4927C9.41567 22.5452 9.33073 22.5451 9.27835 22.4927L8.6146 21.829C8.2516 21.466 7.6566 21.4766 7.3071 21.8606C6.97979 22.2203 7.01142 22.7804 7.35529 23.1243L8.00104 23.77C8.05348 23.8224 8.05348 23.9073 8.00104 23.9597L7.35548 24.6053C7.01167 24.9491 6.97985 25.5092 7.30698 25.8689C7.65629 26.2531 8.25154 26.2638 8.61467 25.9008L9.27842 25.237C9.33085 25.1846 9.41579 25.1846 9.46817 25.237L10.1139 25.8828C10.4578 26.2267 11.018 26.2583 11.3776 25.9309C11.7616 25.5814 11.7722 24.9863 11.4092 24.6235L10.7455 23.9597C10.6931 23.9073 10.6931 23.8223 10.7455 23.77L11.4092 23.1063C11.7721 22.7434 11.7615 22.1484 11.3775 21.7988Z" fill="#E9EFFF"/>
<path d="M18.9238 5.19478H14.949C14.6719 5.19478 14.4473 4.97016 14.4473 4.69303C14.4473 4.41591 14.6719 4.19128 14.949 4.19128H18.9238C19.201 4.19128 19.4256 4.41597 19.4256 4.69303C19.4256 4.9701 19.201 5.19478 18.9238 5.19478Z" fill="#B8F0FF"/>
<path d="M18.9238 21.1591H14.949C14.6719 21.1591 14.4473 20.9344 14.4473 20.6573C14.4473 20.3802 14.6719 20.1555 14.949 20.1555H18.9238C19.201 20.1555 19.4256 20.3802 19.4256 20.6573C19.4256 20.9345 19.201 21.1591 18.9238 21.1591Z" fill="#FC95A9"/>
<path d="M14.4473 22.6049C14.4473 22.882 14.6719 23.1067 14.949 23.1067H29.3744C29.5573 22.7795 29.7283 22.4446 29.8873 22.1031H14.949C14.6719 22.1031 14.4473 22.3278 14.4473 22.6049Z" fill="#FF7186"/>
<path d="M27.2825 25.998H14.949C14.6719 25.998 14.4473 26.2227 14.4473 26.4998C14.4473 26.7769 14.6719 27.0016 14.949 27.0016H26.2717C26.6239 26.6829 26.9613 26.348 27.2825 25.998Z" fill="#FF7186"/>
<path d="M14.4473 24.5524C14.4473 24.8295 14.6719 25.0542 14.949 25.0542H28.0812C28.3341 24.7299 28.5741 24.3951 28.8007 24.0507H14.949C14.6719 24.0507 14.4473 24.2753 14.4473 24.5524Z" fill="#FF7186"/>
<path d="M14.4473 8.58787C14.4473 8.865 14.6719 9.08962 14.949 9.08962H29.8398C29.6776 8.748 29.5033 8.41325 29.3172 8.08606H14.949C14.6719 8.08612 14.4473 8.31075 14.4473 8.58787Z" fill="#8AE1FF"/>
<path d="M30.2494 10.0337H14.949C14.6719 10.0337 14.4473 10.2584 14.4473 10.5355C14.4473 10.8126 14.6719 11.0373 14.949 11.0373H30.6052C30.4981 10.6974 30.3791 10.3628 30.2494 10.0337Z" fill="#8AE1FF"/>
<path d="M14.4473 6.64042C14.4473 6.91755 14.6719 7.14223 14.949 7.14223H28.7338C28.5031 6.79761 28.2591 6.46273 28.002 6.13867H14.949C14.6719 6.13861 14.4473 6.3633 14.4473 6.64042Z" fill="#8AE1FF"/>
<path d="M8.14784 6.70729C7.79515 6.35454 7.22328 6.3546 6.87053 6.70729C6.51778 7.05998 6.51778 7.63185 6.87046 7.9846L8.38434 9.49848C8.73684 9.85091 9.30896 9.85123 9.66165 9.49848L10.3003 8.85979C8.7529 8.95323 9.02303 7.58248 9.02303 7.58248L8.14784 6.70729Z" fill="#D3DCFB"/>
<path d="M9.27829 22.4927L8.61454 21.829C8.25154 21.466 7.65654 21.4766 7.3071 21.8606C6.97979 22.2203 7.01142 22.7804 7.35529 23.1243L8.00104 23.77C8.05348 23.8224 8.05348 23.9074 8.00104 23.9598L7.35548 24.6053C7.01167 24.9492 6.97985 25.5092 7.30698 25.869C7.65629 26.2532 8.25154 26.2639 8.61467 25.9008L9.27842 25.2371C9.33085 25.1847 9.41579 25.1847 9.46817 25.2371L10.114 25.8828C10.4579 26.2267 11.018 26.2583 11.3777 25.931C11.7617 25.5815 11.7722 24.9865 11.4092 24.6235L10.7455 23.9598C10.6931 23.9074 10.6931 23.8224 10.7455 23.77C9.20554 23.909 9.4681 22.4927 9.4681 22.4927C9.41567 22.5452 9.33073 22.5452 9.27829 22.4927Z" fill="#D3DCFB"/>
<path d="M12.3139 13.6955C12.3139 13.4184 12.5385 13.1938 12.8156 13.1938H11.5347C11.1793 13.1938 10.8507 13.3711 10.6558 13.6684L9.51249 15.4117C9.46049 15.4911 9.38436 15.5029 9.34368 15.5029C9.30299 15.5029 9.22693 15.4911 9.17493 15.4117L8.03161 13.6683C7.83661 13.3711 7.50805 13.1938 7.15274 13.1938H5.49249C4.74068 13.1938 4.12905 12.5821 4.12905 11.8303V3.58007C4.12905 2.82826 4.74068 2.21663 5.49249 2.21663H12.8157C12.5386 2.21663 12.3139 1.99201 12.3139 1.71488C12.3139 1.43776 12.5386 1.21313 12.8157 1.21313H5.49249C4.1873 1.21313 3.12549 2.27495 3.12549 3.58013V11.8303C3.12549 13.1354 4.1873 14.1973 5.49249 14.1973H7.15274C7.1688 14.1973 7.18368 14.2053 7.19249 14.2188L8.33574 15.9621C8.55924 16.3029 8.93605 16.5064 9.34368 16.5064H9.34374C9.75136 16.5064 10.1282 16.3029 10.3517 15.9621L11.4951 14.2188C11.5039 14.2053 11.5187 14.1973 11.5347 14.1973H12.8156C12.5385 14.1973 12.3139 13.9726 12.3139 13.6955Z" fill="#42C3FC"/>
<path d="M12.3139 29.5231C12.3139 29.246 12.5385 29.0214 12.8156 29.0214H11.5347C11.1793 29.0214 10.8507 29.1988 10.6558 29.496L9.51249 31.2393C9.46049 31.3187 9.38436 31.3305 9.34368 31.3305C9.30299 31.3305 9.22693 31.3187 9.17493 31.2393L8.03161 29.496C7.83661 29.1988 7.50805 29.0214 7.15274 29.0214H5.49249C4.74068 29.0214 4.12905 28.4097 4.12905 27.658V19.4077C4.12905 18.6559 4.74068 18.0443 5.49249 18.0443H12.8157C12.5386 18.0443 12.3139 17.8196 12.3139 17.5425C12.3139 17.2654 12.5386 17.0408 12.8157 17.0408H5.49249C4.1873 17.0408 3.12549 18.1026 3.12549 19.4078V27.658C3.12549 28.9631 4.1873 30.025 5.49249 30.025H7.15274C7.1688 30.025 7.18368 30.033 7.19249 30.0464L8.33574 31.7897C8.55924 32.1306 8.93605 32.3341 9.34368 32.3341H9.34374C9.75136 32.3341 10.1282 32.1306 10.3517 31.7897L11.4951 30.0464C11.5039 30.033 11.5187 30.0249 11.5347 30.0249H12.8156C12.5385 30.0248 12.3139 29.8002 12.3139 29.5231Z" fill="#FF4155"/>
</g>
</g>
<defs>
<clipPath id="clip0_412_18248">
<rect y="0.333984" width="32" height="32" rx="3.2" fill="white"/>
</clipPath>
<clipPath id="clip1_412_18248">
<rect width="32" height="32" fill="white" transform="translate(0 0.333984)"/>
</clipPath>
</defs>
</svg>
