<svg width="32" height="33" viewBox="0 0 32 33" fill="none" xmlns="http://www.w3.org/2000/svg">
<g clip-path="url(#clip0_412_15957)">
<g clip-path="url(#clip1_412_15957)">
<path d="M15.3559 1.74744C6.92121 1.74744 0.0834961 8.58515 0.0834961 17.0199C0.0834961 17.9208 0.162165 18.8033 0.311773 19.6614L12.9011 32.095C13.7004 32.2241 14.5201 32.2923 15.3559 32.2923C23.7906 32.2923 30.6283 25.4547 30.6283 17.0199C30.6283 8.58521 23.7907 1.74744 15.3559 1.74744Z" fill="#746BF9"/>
<path d="M19.7138 7.75852C21.7525 7.75852 23.4051 6.10585 23.4051 4.06719C23.4051 2.02852 21.7525 0.375854 19.7138 0.375854C17.6751 0.375854 16.0225 2.02852 16.0225 4.06719C16.0225 6.10585 17.6751 7.75852 19.7138 7.75852Z" fill="#42C3FC"/>
<path d="M21.3293 7.38678C21.3028 7.36477 21.2728 7.34601 21.2383 7.33398C20.2667 6.99568 20.3467 6.23099 20.458 5.84812C20.4947 5.72183 20.4469 5.58805 20.34 5.51157C19.9592 5.23953 20.0793 4.81464 20.1619 4.62146C20.1918 4.55152 20.1952 4.47316 20.1694 4.40166L19.4932 2.53193C19.4653 2.45482 19.4065 2.39367 19.3322 2.35882C18.495 1.96604 18.6233 1.03566 18.7146 0.660896C18.7266 0.611837 18.7252 0.561593 18.7127 0.514404C17.1607 0.950886 16.0225 2.37565 16.0225 4.06722C16.0225 6.10588 17.6751 7.75856 19.7138 7.75856C20.2932 7.75856 20.8413 7.62472 21.3293 7.38678Z" fill="#1AA9E8"/>
<path d="M19.7135 2.39514C18.6176 2.39514 17.6614 2.99332 17.1536 3.88094C17.0875 3.99645 17.0875 4.13808 17.1536 4.25359C17.6614 5.1412 18.6177 5.73938 19.7135 5.73938C20.8095 5.73938 21.7657 5.1412 22.2736 4.25359C22.3397 4.13808 22.3397 3.99645 22.2736 3.88094C21.7657 2.99332 20.8095 2.39514 19.7135 2.39514Z" fill="#E9EFFF"/>
<path d="M20.3397 5.51155C19.9589 5.23951 20.0791 4.81463 20.1617 4.62145C20.1915 4.5515 20.195 4.47315 20.1691 4.40165L19.4929 2.53192C19.476 2.48498 19.4466 2.44496 19.4102 2.41223C18.4431 2.51128 17.6139 3.07637 17.1536 3.88088C17.0875 3.99639 17.0875 4.13802 17.1536 4.25353C17.6614 5.14115 18.6176 5.73933 19.7135 5.73933C19.9666 5.73933 20.2117 5.7061 20.446 5.64614C20.4242 5.59352 20.3885 5.5464 20.3397 5.51155Z" fill="#BEC8F7"/>
<path d="M31.4322 10.1283C31.9011 8.1447 30.6732 6.15654 28.6896 5.68765C26.706 5.21875 24.7178 6.44668 24.2489 8.43031C23.78 10.4139 25.0079 12.4021 26.9916 12.871C28.9752 13.3399 30.9633 12.1119 31.4322 10.1283Z" fill="#FF4155"/>
<path d="M29.0592 10.5279C29.0493 10.4053 28.9589 10.3059 28.8398 10.2746C28.7395 10.2482 28.6738 10.1861 28.6405 10.1467C28.6264 10.13 28.6148 10.1117 28.6053 10.0921C28.5473 9.97301 28.213 9.3431 27.4536 8.93523C26.8672 8.62037 26.9189 8.17977 27.0042 7.94152C27.0423 7.83505 27.0137 7.71692 26.9328 7.638C26.2115 6.93385 26.5552 6.17827 26.7576 5.86085C26.7841 5.81939 26.7986 5.77301 26.8024 5.72607C25.2664 6.17284 24.1436 7.58988 24.1436 9.26998C24.1436 11.3086 25.7962 12.9613 27.8349 12.9613C28.9349 12.9613 29.9219 12.4796 30.5981 11.7163C29.3269 11.7707 29.094 10.958 29.0592 10.5279Z" fill="#E80054"/>
<path d="M29.8166 8.41969C29.4828 7.80829 28.6992 7.60595 28.0914 7.94649L27.943 8.02971C27.8759 8.0673 27.7942 8.0673 27.7272 8.02971L27.5518 7.93147C26.94 7.58862 26.1659 7.81964 25.8419 8.44163H25.8418C25.5362 9.02853 25.7419 9.75475 26.3142 10.087C26.7968 10.3673 27.2543 10.7184 27.6387 11.1379C27.7438 11.2525 27.9263 11.2525 28.0314 11.1378C28.4159 10.7184 28.8733 10.3673 29.356 10.087C29.9353 9.75052 30.139 9.01027 29.8166 8.41969Z" fill="#E9EFFF"/>
<path d="M26.3142 10.0869C26.7968 10.3672 27.2543 10.7183 27.6387 11.1378C27.7438 11.2524 27.9263 11.2524 28.0314 11.1377C28.309 10.8349 28.6249 10.5683 28.9607 10.3376C28.9265 10.3084 28.8854 10.2865 28.84 10.2746C28.7397 10.2482 28.6739 10.1861 28.6406 10.1467C28.6265 10.13 28.615 10.1117 28.6055 10.092C28.5474 9.97297 28.2132 9.34306 27.4537 8.93519C26.8674 8.62033 26.9191 8.17973 27.0043 7.94148C27.0239 7.887 27.0257 7.82952 27.0121 7.77573C26.5411 7.75036 26.075 7.99391 25.8419 8.44148H25.8418C25.5362 9.02845 25.7419 9.75467 26.3142 10.0869Z" fill="#BEC8F7"/>
<path d="M30.9138 21.3623C32.3551 19.921 32.3551 17.5841 30.9138 16.1428C29.4725 14.7015 27.1356 14.7015 25.6942 16.1428C24.2529 17.5841 24.2529 19.921 25.6942 21.3623C27.1356 22.8037 29.4725 22.8037 30.9138 21.3623Z" fill="#FFB332"/>
<path d="M29.0346 20.9299L28.1506 16.9384C26.8496 16.4537 27.3737 15.1835 27.3753 15.1793C25.7886 15.5927 24.6172 17.0352 24.6172 18.7515C24.6172 20.7901 26.2699 22.4428 28.3085 22.4428C28.7899 22.4428 29.2492 22.3497 29.6709 22.1821C28.7545 21.8759 29.0346 20.9299 29.0346 20.9299Z" fill="#FF9100"/>
<path d="M26.6502 16.9381H29.9665C30.2596 16.9381 30.4994 17.1779 30.4994 17.471V19.8279C30.4994 20.121 30.2596 20.3607 29.9665 20.3607H29.4922C29.4394 20.3607 29.39 20.3873 29.361 20.4316L29.0344 20.9296C28.955 21.0507 28.7775 21.0507 28.6982 20.9296L28.3715 20.4316C28.3425 20.3874 28.2932 20.3607 28.2403 20.3607H26.65C26.357 20.3607 26.1172 20.1209 26.1172 19.8279V17.471C26.1173 17.1779 26.3571 16.9381 26.6502 16.9381Z" fill="#E9EFFF"/>
<path d="M27.6175 19.8278V17.471C27.6175 17.1779 27.8573 16.9381 28.1504 16.9381H26.65C26.357 16.9381 26.1172 17.1779 26.1172 17.471V19.8279C26.1172 20.1209 26.357 20.3607 26.65 20.3607H28.1504C27.8573 20.3607 27.6175 20.1209 27.6175 19.8278Z" fill="#BEC8F7"/>
<path d="M18.7793 2.54637C18.5838 2.76679 18.4648 3.05672 18.4648 3.37458C18.4648 4.06427 19.0239 4.62337 19.7136 4.62337C20.4033 4.62337 20.9624 4.06427 20.9624 3.37458C20.9624 3.05672 20.8435 2.76686 20.6479 2.54643C20.3543 2.44838 20.0402 2.39514 19.7136 2.39514C19.3871 2.39508 19.0729 2.44832 18.7793 2.54637Z" fill="#47477F"/>
<path d="M9.22939 25.4078C8.91353 25.5902 8.51059 25.5394 8.24946 25.2844L8.19298 25.2292L6.95117 25.9462L9.41709 28.5293C9.47138 28.5031 9.52537 28.4754 9.57848 28.4448C10.7419 27.7731 11.1404 26.2855 10.4688 25.1222C10.4055 25.0126 10.3349 24.9098 10.2581 24.814L9.22939 25.4078Z" fill="#D3DCFB"/>
<path d="M8.24946 25.2845L8.19298 25.2292L6.95117 25.9462L9.41709 28.5294C9.47145 28.5031 9.52537 28.4755 9.57848 28.4448C9.97338 28.2168 10.2799 27.8946 10.4866 27.5232C8.76156 27.0961 9.22945 25.4079 9.22945 25.4079C8.91353 25.5903 8.51059 25.5395 8.24946 25.2845Z" fill="#BEC8F7"/>
<path d="M7.01984 25.8667L4.22803 27.4785C6.49989 29.8949 9.5494 31.5713 12.9773 32.1075L7.01984 25.8667Z" fill="#E9EFFF"/>
<path d="M9.51474 28.4802L7.01984 25.8666L4.22803 27.4784C5.20135 28.5136 6.31774 29.4125 7.54509 30.1446C7.4782 28.2397 9.51474 28.4802 9.51474 28.4802Z" fill="#D3DCFB"/>
<path d="M2.60424 18.4171L1.75085 16.939C1.49178 16.4902 0.918029 16.3365 0.469266 16.5956C0.0205043 16.8547 -0.133218 17.4284 0.125853 17.8772L0.979243 19.3553L2.60424 18.4171Z" fill="#E9EFFF"/>
<path d="M1.83745 17.0886C1.84075 17.1225 1.84262 17.1569 1.84262 17.1916C1.84262 17.7665 1.37659 18.2325 0.801722 18.2325C0.591897 18.2325 0.396908 18.1699 0.233398 18.0631L0.979195 19.3549L2.60419 18.4167L1.83745 17.0886Z" fill="#D3DCFB"/>
<path d="M4.32552 27.5823L8.3526 25.2573C8.29363 25.1997 8.24083 25.1338 8.19757 25.0589L3.97812 17.7507C3.93486 17.6758 3.90419 17.5971 3.8838 17.5172L0.299316 19.5867C0.819828 22.6621 2.25893 25.4249 4.32552 27.5823Z" fill="#FF7186"/>
<path d="M5.88506 21.4596L5.88812 21.0588L3.97818 17.7507C3.93492 17.6758 3.90425 17.5971 3.88387 17.5172L0.299316 19.5867C0.55072 21.072 1.017 22.4841 1.66412 23.7906C1.74877 22.9884 2.28524 22.7273 2.28524 22.7273C2.28524 22.7273 3.37613 22.0884 4.32596 21.5657C5.27572 21.0432 5.88506 21.4596 5.88506 21.4596Z" fill="#FF4155"/>
<path d="M12.9795 22.9349C15.8207 21.802 18.8678 21.6386 21.7027 22.3308L13.0932 7.41882C12.2752 10.2199 10.6102 12.7772 8.2085 14.6713C8.38535 14.7469 8.5405 14.8774 8.64411 15.0568L12.8634 22.3649C12.967 22.5443 13.0024 22.7439 12.9795 22.9349Z" fill="#D3DCFB"/>
<path d="M16.1044 12.6344L13.0932 7.41882C12.2752 10.2199 10.6102 12.7772 8.2085 14.6713C8.38535 14.7469 8.5405 14.8774 8.64411 15.0568L10.6989 18.6158C13.104 16.8757 14.9576 14.7799 16.1044 12.6344Z" fill="#BEC8F7"/>
<path d="M12.6463 23.5553L9.28171 25.4979C8.84055 25.7526 8.27653 25.6014 8.02182 25.1603L3.80244 17.8522C3.54773 17.411 3.6989 16.8469 4.14005 16.5923L7.50462 14.6497C7.94577 14.395 8.50986 14.5462 8.7645 14.9873L12.9838 22.2954C13.2385 22.7366 13.0874 23.3006 12.6463 23.5553Z" fill="#FF4155"/>
<path d="M8.76448 14.9873C8.50977 14.5461 7.94574 14.395 7.50459 14.6497L4.14003 16.5923C3.69887 16.847 3.54776 17.4111 3.80241 17.8522L5.8852 21.4597C6.12302 20.4085 6.99517 20.8809 6.99517 20.8809L9.79097 19.2668C9.92014 18.2562 10.8118 18.5336 10.8118 18.5336L8.76448 14.9873Z" fill="#E80054"/>
<path d="M5.6775 18.1307C5.51592 18.1307 5.35877 18.0468 5.27219 17.8968C5.14309 17.6732 5.2197 17.3873 5.4433 17.2582L7.42935 16.1116C7.65295 15.9824 7.93889 16.0591 8.06799 16.2827C8.19709 16.5063 8.12048 16.7922 7.89687 16.9213L5.91083 18.0679C5.83721 18.1105 5.75679 18.1307 5.6775 18.1307Z" fill="#FF7186"/>
<path d="M6.53932 19.6232C6.37774 19.6232 6.22059 19.5394 6.134 19.3894C6.0049 19.1658 6.08151 18.8798 6.30512 18.7507L8.29117 17.6041C8.51477 17.475 8.80071 17.5516 8.9298 17.7752C9.0589 17.9988 8.98229 18.2848 8.75869 18.4139L6.77264 19.5605C6.69902 19.603 6.61861 19.6232 6.53932 19.6232Z" fill="#FF7186"/>
<path d="M7.40064 21.1147C7.23907 21.1147 7.08192 21.0308 6.99533 20.8808C6.86623 20.6572 6.94284 20.3713 7.16644 20.2422L9.15249 19.0956C9.3761 18.9664 9.66203 19.0431 9.79113 19.2667C9.92023 19.4903 9.84362 19.7762 9.62002 19.9053L7.63397 21.052C7.56035 21.0945 7.47994 21.1147 7.40064 21.1147Z" fill="#FF7186"/>
<path d="M8.26197 22.6067C8.10039 22.6067 7.94324 22.5229 7.85666 22.3729C7.72756 22.1493 7.80417 21.8634 8.02777 21.7343L10.0138 20.5876C10.2374 20.4585 10.5234 20.5352 10.6525 20.7588C10.7816 20.9824 10.7049 21.2683 10.4813 21.3974L8.4953 22.544C8.42168 22.5865 8.34126 22.6067 8.26197 22.6067Z" fill="#FF7186"/>
<path d="M9.1233 24.0988C8.96172 24.0988 8.80457 24.015 8.71799 23.865C8.58889 23.6414 8.6655 23.3554 8.8891 23.2263L10.8751 22.0797C11.0988 21.9505 11.3847 22.0272 11.5138 22.2508C11.6429 22.4744 11.5663 22.7604 11.3427 22.8895L9.35663 24.0361C9.28301 24.0786 9.20259 24.0988 9.1233 24.0988Z" fill="#FF7186"/>
<path d="M22.9078 22.7914C22.4591 23.0505 21.8853 22.8968 21.6263 22.448L12.954 7.42721C12.6949 6.97845 12.8487 6.4047 13.2974 6.14563C13.7461 5.88656 14.3199 6.04028 14.579 6.48904L23.2512 21.5098C23.5103 21.9586 23.3566 22.5323 22.9078 22.7914Z" fill="#E9EFFF"/>
<path d="M16.5718 11.7422C16.8948 11.5557 17.2727 11.5523 17.587 11.6986L14.579 6.48855C14.3199 6.03979 13.7461 5.88607 13.2974 6.14514C12.8487 6.40421 12.6949 6.97796 12.954 7.42672L16.0233 12.7429C16.0063 12.3465 16.2043 11.9544 16.5718 11.7422Z" fill="#D3DCFB"/>
<path d="M26.3759 27.5931C25.4063 26.1055 23.7094 24.3931 21.6648 24.6366C18.1678 25.0528 9.50258 25.515 16.0731 32.275C20.1174 32.088 23.7508 30.3283 26.3759 27.5931Z" fill="#827DF9"/>
<path d="M1.26367 11.1242C2.42401 17.7423 10.7793 7.18094 11.2223 4.8392C11.4209 3.78895 10.9089 3.08305 10.2606 2.61926C6.19544 4.05768 2.92083 7.16785 1.26367 11.1242Z" fill="#827DF9"/>
<path d="M20.0784 3.64465C20.3302 3.64465 20.5343 3.44055 20.5343 3.18878C20.5343 2.93701 20.3302 2.73291 20.0784 2.73291C19.8267 2.73291 19.6226 2.93701 19.6226 3.18878C19.6226 3.44055 19.8267 3.64465 20.0784 3.64465Z" fill="#5F5F9B"/>
</g>
</g>
<defs>
<clipPath id="clip0_412_15957">
<rect y="0.333984" width="32" height="32" rx="3.2" fill="white"/>
</clipPath>
<clipPath id="clip1_412_15957">
<rect width="32" height="32" fill="white" transform="translate(0 0.333984)"/>
</clipPath>
</defs>
</svg>
