<svg width="32" height="33" viewBox="0 0 32 33" fill="none" xmlns="http://www.w3.org/2000/svg">
<g clip-path="url(#clip0_412_3459)">
<path d="M15.3124 1.02148C6.85562 1.02148 0 7.87711 0 16.3339C0 18.1103 0.3035 19.8155 0.859812 21.4019L22.5161 29.8484C27.3411 27.2711 30.6248 22.1864 30.6248 16.3339C30.6249 7.87711 23.7692 1.02148 15.3124 1.02148Z" fill="#FF5329"/>
<path d="M8.60083 1.56692C5.35964 2.00855 5.05158 3.84617 5.05014 4.52042C5.04983 4.6618 4.97152 4.79286 4.84439 4.85474C3.15846 5.67492 4.06746 9.62774 4.06746 9.62774C4.23677 9.63905 4.41396 9.70761 4.54614 9.77161C4.57852 9.57017 4.63133 9.37186 4.70596 9.18024C4.76283 9.03418 4.83389 8.88661 4.92277 8.74718C5.07696 8.5053 5.14721 8.21992 5.12621 7.93467C5.06558 7.11005 5.09477 5.48511 6.18333 4.99536C7.10546 4.58042 8.23671 4.82067 8.95802 5.06061C9.42652 5.21642 9.93396 5.21642 10.4025 5.06061C11.1238 4.82074 12.255 4.58042 13.1771 4.99536C14.2625 5.48374 14.2947 7.1008 14.2348 7.92761C14.214 8.21505 14.2823 8.50336 14.4376 8.74711C14.5293 8.89099 14.6021 9.04361 14.66 9.19424C14.7317 9.38155 14.7828 9.57505 14.8144 9.77161C14.981 9.69092 15.2191 9.60299 15.4228 9.6318C15.4478 8.76749 15.5276 7.83567 15.5276 7.83567C16.488 3.1313 12.0907 1.09142 8.60083 1.56692Z" fill="#3B3868"/>
<path d="M8.90977 5.04502C8.90014 5.02789 8.89114 5.01064 8.88102 4.99352C7.52702 2.71052 9.43902 1.51745 9.43902 1.51745L9.41864 1.50195C9.14258 1.5087 8.86902 1.53027 8.60083 1.56683C5.35964 2.00845 5.05158 3.84608 5.05014 4.52033C5.04983 4.6617 4.97152 4.79277 4.84439 4.85464C3.15846 5.67483 4.06746 9.62764 4.06746 9.62764C4.23677 9.63895 4.41396 9.70752 4.54614 9.77152C4.57852 9.57008 4.63133 9.37177 4.70596 9.18014C4.76283 9.03408 4.83389 8.88652 4.92277 8.74708C5.07696 8.5052 5.14714 8.21983 5.12621 7.93458C5.06558 7.10995 5.09477 5.48502 6.18333 4.9952C7.08552 4.5892 8.18696 4.81058 8.90977 5.04502Z" fill="#2D2D59"/>
<path d="M6.45171 19.3094V19.3095C6.84621 20.3896 7.64884 21.3884 8.43872 22.2233C8.43872 22.2233 9.15228 22.7466 9.70097 23.5784C10.2462 22.7519 10.959 22.2277 10.9657 22.2207C11.7518 21.3988 12.5623 20.3712 12.9502 19.3095L12.9502 19.3094C13.0762 18.9649 13.1347 18.6894 13.1586 18.4769C12.9975 18.0794 12.9261 17.3564 12.909 16.9252C11.7872 18.2134 10.7642 18.5931 9.67972 18.5931C8.34578 18.5931 7.35871 17.9195 6.49284 16.9252C6.47559 17.3598 6.40403 18.0764 6.24365 18.4791C6.26765 18.6914 6.32615 18.966 6.45171 19.3094Z" fill="#FCAD6D"/>
<path d="M8.41834 22.2014C9.37771 21.4416 9.64915 19.7966 9.71171 18.5927C9.70103 18.5928 9.6904 18.5931 9.67972 18.5931C8.34578 18.5931 7.35871 17.9195 6.49284 16.9252C6.47559 17.3598 6.40403 18.0764 6.24365 18.4791C6.26765 18.6913 6.32621 18.966 6.45171 19.3094V19.3094C6.8429 20.3802 7.63503 21.3708 8.41834 22.2014Z" fill="#FD995B"/>
<path d="M15.8092 9.7301C15.5567 9.49873 15.0539 9.61604 14.8365 9.75767C14.8841 10.0543 14.8868 10.3577 14.8457 10.6574L14.5891 12.526C14.5891 12.6767 14.5844 12.8245 14.5757 12.9697C15.2013 13.1584 15.5121 12.5967 15.5644 12.2112C15.587 12.0453 15.6238 11.8817 15.6749 11.7222C15.8413 11.2025 16.4417 10.3097 15.8092 9.7301Z" fill="#FCAD6D"/>
<path d="M15.237 11.6327C15.0469 11.6327 14.8725 11.5653 14.7364 11.4531L14.5891 12.526C14.5891 12.6766 14.5844 12.8244 14.5757 12.9696C15.2013 13.1583 15.5121 12.5967 15.5644 12.2112C15.587 12.0452 15.6238 11.8817 15.6749 11.7221C15.7067 11.623 15.7542 11.5102 15.806 11.3887C15.6626 11.5387 15.4609 11.6327 15.237 11.6327Z" fill="#FD995B"/>
<path d="M3.5958 9.7301C3.84823 9.49873 4.35111 9.61604 4.56848 9.75767C4.52086 10.0543 4.51817 10.3577 4.5593 10.6574L4.81586 12.526C4.81586 12.6767 4.82061 12.8245 4.8293 12.9697C4.20367 13.1584 3.89292 12.5967 3.84055 12.2112C3.81798 12.0453 3.78117 11.8817 3.73005 11.7222C3.56367 11.2025 2.9633 10.3097 3.5958 9.7301Z" fill="#FCAD6D"/>
<path d="M4.66043 11.3978C4.51762 11.5429 4.31912 11.633 4.0995 11.633C3.92693 11.633 3.76793 11.5769 3.63818 11.4828C3.67412 11.5688 3.70625 11.6494 3.72962 11.7225C3.78075 11.882 3.81756 12.0456 3.84012 12.2115C3.8925 12.597 4.20325 13.1586 4.82887 12.97C4.82012 12.8247 4.81537 12.677 4.81537 12.5263L4.66043 11.3978Z" fill="#FD995B"/>
<path d="M14.697 9.17983C14.6333 9.01345 14.5573 8.86058 14.4712 8.72545C14.3239 8.49445 14.254 8.21208 14.2744 7.93052C14.3395 7.03158 14.2857 5.45014 13.1932 4.95852C12.2756 4.54577 11.162 4.76527 10.3893 5.02227C9.93172 5.17458 9.42765 5.17452 8.97009 5.02227C8.1974 4.76527 7.08378 4.54552 6.16628 4.95852C5.69647 5.16995 4.93134 5.83814 5.08553 7.93764C5.10584 8.21427 5.03584 8.49402 4.88834 8.72552C4.80465 8.8567 4.73053 9.00483 4.66797 9.16552C4.48472 9.63627 4.4254 10.1587 4.49647 10.6764L4.75272 12.54C4.75272 15.6262 6.62003 17.4093 7.42284 18.0327C8.06359 18.5304 8.86516 18.8045 9.67978 18.8045C10.4944 18.8045 11.296 18.5304 11.9367 18.0327C12.7395 17.4093 14.6068 15.6261 14.6064 12.5455L14.863 10.6768C14.9333 10.1643 14.876 9.64658 14.697 9.17983Z" fill="#F9BA8F"/>
<path d="M10.209 18.0326C9.40622 17.4092 7.5389 15.6261 7.5389 12.5399L7.28265 10.6763C7.21159 10.1586 7.2709 9.63624 7.45415 9.16543C7.51672 9.00474 7.59084 8.85662 7.67453 8.72543C7.82203 8.49393 7.89209 8.21412 7.87172 7.93755C7.72515 5.94168 8.40915 5.23968 8.88072 4.99355C8.11315 4.74974 7.0494 4.56099 6.16634 4.95843C5.69653 5.16987 4.9314 5.83805 5.08559 7.93755C5.1059 8.21412 5.0359 8.49393 4.88834 8.72543C4.80465 8.85662 4.73053 9.00474 4.66797 9.16543C4.48472 9.63618 4.4254 10.1586 4.49647 10.6763L4.75272 12.5399C4.75272 15.6261 6.62003 17.4092 7.42284 18.0326C8.06359 18.5303 8.86515 18.8044 9.67984 18.8044C10.1588 18.8044 10.633 18.7089 11.0729 18.5297C10.7647 18.4041 10.473 18.2377 10.209 18.0326Z" fill="#FCAD6D"/>
<path d="M8.48585 22.0628L8.05791 21.7529C8.17685 21.8875 8.29416 22.0148 8.40716 22.1329C8.48347 22.2131 8.4751 22.3408 8.38891 22.4103L6.8941 23.6151C6.62085 23.8351 6.22197 23.7269 6.08935 23.4233C5.97647 23.1234 5.26647 21.8637 5.00635 19.9189C4.99116 19.8056 5.01916 19.6923 5.08504 19.5997L5.0836 19.5986C4.76497 19.7862 4.37754 19.9741 3.92266 20.1181C3.08947 20.3818 1.79141 20.9166 0.834473 21.3295C2.36341 25.7614 5.8696 29.2714 10.299 30.8058C10.299 28.7041 10.299 26.1423 10.299 25.1643C10.299 23.3908 8.48585 22.0628 8.48585 22.0628Z" fill="#BEC8F7"/>
<path d="M2.42572 24.6037L5.70235 22.5419C5.45429 21.9288 5.15597 21.0375 5.00635 19.9189C4.99116 19.8056 5.01916 19.6923 5.08504 19.5997L5.0836 19.5986C4.76497 19.7862 4.37754 19.9741 3.92266 20.1181C3.08947 20.3818 1.79141 20.9166 0.834473 21.3295C1.23497 22.4908 1.77254 23.588 2.42572 24.6037Z" fill="#A2B6F4"/>
<path d="M15.3123 31.6464C17.9442 31.6464 20.4208 30.9821 22.5841 29.8125C22.5688 29.583 22.553 29.4109 22.5365 29.3288C22.4365 28.8299 22.3918 28.3219 22.3957 27.8132C22.4071 26.3258 22.139 23.0893 19.7168 21.8423L19.7172 21.8414C19.2262 21.6076 16.783 20.5306 15.4793 20.1181C15.0245 19.9741 14.6371 19.7863 14.3184 19.5986L14.317 19.5997C14.3828 19.6923 14.4108 19.8056 14.3957 19.9189C14.1355 21.8642 13.4214 23.1326 13.3147 23.4183C13.178 23.7322 12.7782 23.8328 12.508 23.6151L11.0104 22.408C10.9262 22.3403 10.9114 22.2206 10.9947 22.1331C11.1083 22.0143 11.2257 21.8869 11.3445 21.7526L10.9162 22.0628C10.9162 22.0628 9.10303 23.3908 9.10303 25.1644V30.3342C11.001 31.1771 13.1017 31.6464 15.3123 31.6464Z" fill="#D3DCFB"/>
<path d="M6.57264 19.257L6.57258 19.2569C6.39339 18.7667 6.35577 18.4216 6.35846 18.203C6.35964 18.1065 6.24277 18.0576 6.17564 18.1269C5.60333 18.7186 5.19321 19.2663 4.99946 19.538C4.91789 19.6524 4.88327 19.7935 4.90189 19.9328C5.16471 21.8978 5.87883 23.1631 5.99071 23.4603C6.15614 23.8398 6.63783 23.9566 6.96014 23.6969L8.45495 22.4921C8.58895 22.3841 8.60202 22.1847 8.48339 22.0601C7.72645 21.2687 6.94602 20.2793 6.57264 19.257Z" fill="#D3DCFB"/>
<path d="M14.4031 19.538C14.2093 19.2663 13.7991 18.7187 13.2269 18.1269C13.1598 18.0576 13.0429 18.1065 13.0441 18.203C13.0468 18.4217 13.0091 18.7668 12.83 19.2569L12.8299 19.257C12.4565 20.2793 11.6761 21.2687 10.9191 22.0601L10.9168 22.0626C10.7968 22.1885 10.8095 22.3808 10.9449 22.4899L12.4424 23.6968C12.7647 23.9566 13.2465 23.8397 13.4118 23.4602C13.5236 23.163 14.2378 21.8978 14.5006 19.9327C14.5193 19.7935 14.4846 19.6524 14.4031 19.538Z" fill="#E9EFFF"/>
<path d="M19.2883 31.1247C19.1004 29.7504 18.6994 27.2734 18.1416 26.3006C18.0124 26.0754 17.6694 26.1652 17.6694 26.4248V31.4658C18.2192 31.3808 18.7594 31.2666 19.2883 31.1247Z" fill="#BEC8F7"/>
<path d="M26.0167 7.4894C26.4856 5.50578 25.2577 3.51762 23.2741 3.04873C21.2904 2.57984 19.3023 3.80777 18.8334 5.79139C18.3645 7.77501 19.5924 9.76317 21.576 10.2321C23.5597 10.701 25.5478 9.47303 26.0167 7.4894Z" fill="#FF4155"/>
<path d="M23.6437 7.88902C23.6338 7.76634 23.5434 7.66698 23.4243 7.63568C23.324 7.60931 23.2582 7.54723 23.2249 7.50783C23.2108 7.49112 23.1993 7.4728 23.1898 7.45316C23.1317 7.3341 22.7975 6.70419 22.038 6.29632C21.4517 5.98145 21.5034 5.54086 21.5887 5.30261C21.6267 5.19613 21.5982 5.07801 21.5173 4.99909C20.7959 4.29493 21.1396 3.53935 21.3421 3.22193C21.3685 3.18048 21.3831 3.1341 21.3869 3.08716C19.8509 3.53393 18.728 4.95096 18.728 6.63106C18.728 8.66972 20.3807 10.3224 22.4194 10.3224C23.5194 10.3224 24.5063 9.84072 25.1826 9.07741C23.9113 9.13176 23.6784 8.31908 23.6437 7.88902Z" fill="#E80054"/>
<path d="M24.4011 5.78077C24.0673 5.16937 23.2836 4.96703 22.6759 5.30758L22.5274 5.39079C22.4604 5.42838 22.3787 5.42838 22.3117 5.39079L22.1363 5.29255C21.5244 4.9497 20.7503 5.18072 20.4264 5.80272H20.4263C20.1207 6.38962 20.3264 7.11584 20.8986 7.44809C21.3812 7.72836 21.8387 8.0795 22.2232 8.49897C22.3283 8.6136 22.5108 8.6136 22.6159 8.4989C23.0004 8.0795 23.4577 7.72842 23.9405 7.44809C24.5198 7.1116 24.7235 6.37135 24.4011 5.78077Z" fill="#E9EFFF"/>
<path d="M20.8986 7.44801C21.3812 7.72827 21.8387 8.07942 22.2232 8.49888C22.3283 8.61352 22.5108 8.61352 22.6159 8.49882C22.8935 8.19599 23.2094 7.92937 23.5451 7.69873C23.511 7.66949 23.4698 7.64761 23.4244 7.63564C23.3241 7.60927 23.2584 7.54719 23.2251 7.50779C23.211 7.49108 23.1995 7.47276 23.1899 7.45312C23.1319 7.33406 22.7977 6.70414 22.0382 6.29628C21.4519 5.98141 21.5035 5.54082 21.5888 5.30257C21.6083 5.24808 21.6101 5.19061 21.5966 5.13681C21.1256 5.11144 20.6594 5.35499 20.4264 5.80257H20.4263C20.1207 6.38953 20.3264 7.11575 20.8986 7.44801Z" fill="#BEC8F7"/>
<path d="M29.3904 21.2263C30.8317 19.785 30.8317 17.4481 29.3904 16.0068C27.949 14.5655 25.6121 14.5655 24.1708 16.0068C22.7295 17.4481 22.7295 19.785 24.1708 21.2263C25.6121 22.6677 27.949 22.6677 29.3904 21.2263Z" fill="#FFB332"/>
<path d="M27.5112 20.7939L26.6272 16.8024C25.3262 16.3177 25.8502 15.0475 25.8519 15.0433C24.2651 15.4568 23.0938 16.8992 23.0938 18.6155C23.0938 20.6541 24.7464 22.3068 26.7851 22.3068C27.2664 22.3068 27.7258 22.2137 28.1475 22.0461C27.2311 21.7399 27.5112 20.7939 27.5112 20.7939Z" fill="#FF9100"/>
<path d="M25.1267 16.8021H28.4431C28.7362 16.8021 28.976 17.0419 28.976 17.335V19.6919C28.976 19.985 28.7362 20.2247 28.4431 20.2247H27.9688C27.9159 20.2247 27.8666 20.2513 27.8376 20.2956L27.5109 20.7936C27.4316 20.9147 27.2541 20.9147 27.1747 20.7936L26.8481 20.2956C26.8191 20.2514 26.7698 20.2247 26.7169 20.2247H25.1266C24.8336 20.2247 24.5938 19.9849 24.5938 19.6919V17.335C24.5939 17.0419 24.8337 16.8021 25.1267 16.8021Z" fill="#E9EFFF"/>
<path d="M26.0941 19.6918V17.335C26.0941 17.0419 26.3339 16.8021 26.6269 16.8021H25.1266C24.8336 16.8021 24.5938 17.0419 24.5938 17.335V19.6919C24.5938 19.9849 24.8336 20.2247 25.1266 20.2247H26.6269C26.3339 20.2247 26.0941 19.9849 26.0941 19.6918Z" fill="#BEC8F7"/>
</g>
<defs>
<clipPath id="clip0_412_3459">
<rect y="0.333984" width="32" height="32" rx="3.2" fill="white"/>
</clipPath>
</defs>
</svg>
