<svg width="42" height="169" viewBox="0 0 42 169" fill="none" xmlns="http://www.w3.org/2000/svg">
<g filter="url(#filter0_d_2612_50970)">
<g clip-path="url(#clip0_2612_50970)">
<mask id="path-1-inside-1_2612_50970" fill="white">
<path d="M10 166C5.58172 166 2 162.418 2 158L1.99999 9C1.99999 4.58173 5.58172 1 9.99999 1L42 0.999998L42 166L10 166Z"/>
</mask>
<path d="M10 166C5.58172 166 2 162.418 2 158L1.99999 9C1.99999 4.58173 5.58172 1 9.99999 1L42 0.999998L42 166L10 166Z" fill="#FFF6ED"/>
<path d="M16.8182 147.991L25.1108 145.158L25.1108 145.043L16.8182 142.21L16.8182 140.549L27 144.213L27 145.988L16.8182 149.652L16.8182 147.991ZM27 139.198L19.3636 139.198L19.3636 137.711L27 137.711L27 139.198ZM18.1854 138.447C18.1854 138.706 18.0992 138.928 17.9268 139.113C17.7512 139.296 17.5424 139.387 17.3004 139.387C17.0552 139.387 16.8464 139.296 16.674 139.113C16.4983 138.928 16.4105 138.706 16.4105 138.447C16.4105 138.189 16.4983 137.968 16.674 137.786C16.8464 137.6 17.0552 137.508 17.3004 137.508C17.5424 137.508 17.7512 137.6 17.9268 137.786C18.0992 137.968 18.1854 138.189 18.1854 138.447ZM27.1541 132.42C27.1541 133.173 26.9934 133.821 26.6719 134.364C26.3471 134.905 25.8913 135.322 25.3047 135.617C24.7147 135.909 24.0237 136.055 23.2315 136.055C22.4493 136.055 21.7599 135.909 21.1634 135.617C20.5668 135.322 20.1011 134.911 19.7663 134.384C19.4316 133.854 19.2642 133.234 19.2642 132.525C19.2642 132.094 19.3355 131.676 19.478 131.272C19.6205 130.868 19.8442 130.505 20.1491 130.183C20.4541 129.862 20.8501 129.608 21.3374 129.423C21.8213 129.237 22.4096 129.144 23.1023 129.144L23.6293 129.144L23.6293 135.214L22.5156 135.214L22.5156 130.601C22.1245 130.601 21.7782 130.68 21.4766 130.839C21.1716 130.999 20.9313 131.222 20.7557 131.511C20.58 131.796 20.4922 132.13 20.4922 132.515C20.4922 132.933 20.5949 133.297 20.8004 133.609C21.0026 133.917 21.2678 134.156 21.5959 134.325C21.9207 134.49 22.2737 134.573 22.6548 134.573L23.5249 134.573C24.0353 134.573 24.4695 134.484 24.8274 134.305C25.1854 134.122 25.4588 133.869 25.6477 133.544C25.8333 133.219 25.9261 132.84 25.9261 132.406C25.9261 132.124 25.8864 131.867 25.8068 131.635C25.724 131.403 25.6013 131.202 25.4389 131.033C25.2765 130.864 25.076 130.735 24.8374 130.646L25.0909 129.239C25.5052 129.351 25.8681 129.554 26.1797 129.845C26.4879 130.134 26.7282 130.496 26.9006 130.934C27.0696 131.368 27.1541 131.864 27.1541 132.42ZM27 125.853L19.3636 128.1L19.3636 126.564L24.9716 125.067L24.9716 124.993L19.3636 123.491L19.3636 121.955L24.9467 120.464L24.9467 120.389L19.3636 118.903L19.3636 117.366L27 119.609L27 121.125L21.4865 122.676L21.4865 122.79L27 124.342L27 125.853ZM20.1293 103.675L20.1293 105.226C19.7978 105.286 19.5062 105.397 19.2543 105.559C19.0024 105.721 18.7886 105.92 18.6129 106.156C18.4373 106.391 18.3047 106.654 18.2152 106.946C18.1257 107.234 18.081 107.541 18.081 107.866C18.081 108.452 18.2285 108.978 18.5234 109.442C18.8184 109.902 19.2509 110.267 19.821 110.536C20.3911 110.801 21.0871 110.933 21.9091 110.933C22.7377 110.933 23.437 110.801 24.0071 110.536C24.5772 110.267 25.008 109.901 25.2997 109.437C25.5914 108.973 25.7372 108.451 25.7372 107.871C25.7372 107.549 25.6941 107.244 25.608 106.956C25.5185 106.664 25.3875 106.401 25.2152 106.165C25.0428 105.93 24.8324 105.731 24.5838 105.569C24.3319 105.403 24.0436 105.289 23.7187 105.226L23.7237 103.675C24.2242 103.758 24.6849 103.918 25.1058 104.157C25.5234 104.392 25.8847 104.696 26.1896 105.067C26.4912 105.435 26.7249 105.856 26.8906 106.33C27.0563 106.804 27.1392 107.321 27.1392 107.881C27.1392 108.762 26.9304 109.548 26.5128 110.237C26.0919 110.927 25.4903 111.47 24.7081 111.868C23.9259 112.262 22.9929 112.46 21.9091 112.46C20.822 112.46 19.889 112.261 19.1101 111.863C18.3279 111.465 17.728 110.922 17.3104 110.232C16.8894 109.543 16.679 108.759 16.679 107.881C16.679 107.34 16.7569 106.837 16.9126 106.369C17.0651 105.899 17.2905 105.476 17.5888 105.102C17.8838 104.727 18.245 104.417 18.6726 104.172C19.0968 103.927 19.5824 103.761 20.1293 103.675ZM27.169 99.7335C27.169 100.217 27.0795 100.655 26.9006 101.046C26.7183 101.437 26.4548 101.747 26.1101 101.976C25.7654 102.201 25.3428 102.314 24.8423 102.314C24.4115 102.314 24.0568 102.231 23.7784 102.065C23.5 101.899 23.2796 101.676 23.1172 101.394C22.9548 101.112 22.8321 100.797 22.7493 100.449C22.6664 100.101 22.6035 99.7467 22.5604 99.3855C22.5073 98.9281 22.4642 98.5569 22.4311 98.2718C22.3946 97.9868 22.3366 97.7797 22.2571 97.6504C22.1776 97.5211 22.0483 97.4565 21.8693 97.4565L21.8345 97.4565C21.4003 97.4565 21.0639 97.5791 20.8253 97.8244C20.5866 98.0663 20.4673 98.4276 20.4673 98.9082C20.4673 99.4087 20.5784 99.8031 20.8004 100.091C21.0192 100.376 21.2628 100.574 21.5312 100.683L21.2131 102.08C20.7491 101.914 20.3745 101.672 20.0895 101.354C19.8011 101.033 19.5923 100.663 19.4631 100.246C19.3305 99.8279 19.2642 99.3888 19.2642 98.9281C19.2642 98.6232 19.3007 98.3 19.3736 97.9586C19.4432 97.6139 19.5724 97.2924 19.7614 96.9941C19.9503 96.6925 20.2204 96.4456 20.5717 96.2534C20.9197 96.0611 21.3722 95.965 21.929 95.965L27 95.965L27 97.4167L25.956 97.4167L25.956 97.4764C26.1482 97.5725 26.3371 97.7167 26.5227 97.9089C26.7083 98.1011 26.8625 98.3481 26.9851 98.6497C27.1077 98.9513 27.169 99.3126 27.169 99.7335ZM25.9758 99.4103C25.9758 98.9993 25.8946 98.648 25.7322 98.3564C25.5698 98.0614 25.3577 97.8377 25.0959 97.6852C24.8307 97.5294 24.5473 97.4515 24.2457 97.4515L23.2614 97.4515C23.3144 97.5046 23.3641 97.6073 23.4105 97.7598C23.4536 97.9089 23.4917 98.0796 23.5249 98.2718C23.5547 98.4641 23.5829 98.6513 23.6094 98.8336C23.6326 99.0159 23.6525 99.1684 23.669 99.291C23.7055 99.5794 23.7668 99.8429 23.853 100.081C23.9392 100.317 24.0634 100.506 24.2258 100.648C24.3849 100.787 24.5971 100.857 24.8622 100.857C25.2301 100.857 25.5085 100.721 25.6974 100.449C25.883 100.178 25.9759 99.8313 25.9758 99.4103ZM27 93.9851L19.3636 93.9851L19.3636 92.5582L20.6065 92.5582L20.6065 92.4638C20.1856 92.3047 19.8575 92.0445 19.6222 91.6832C19.3835 91.322 19.2642 90.8894 19.2642 90.3857C19.2642 89.8752 19.3835 89.4477 19.6222 89.103C19.8608 88.755 20.1889 88.4981 20.6065 88.3324L20.6065 88.2528C20.1989 88.0705 19.8741 87.7805 19.6321 87.3828C19.3868 86.9851 19.2642 86.5111 19.2642 85.9609C19.2642 85.2682 19.4813 84.7031 19.9155 84.2656C20.3497 83.8248 21.0043 83.6044 21.8793 83.6044L27 83.6044L27 85.0909L22.0185 85.0909C21.5014 85.0909 21.1269 85.2318 20.8949 85.5135C20.6629 85.7952 20.5469 86.1316 20.5469 86.5227C20.5469 87.0066 20.696 87.3828 20.9943 87.6513C21.2893 87.9197 21.6688 88.054 22.1328 88.054L27 88.054L27 89.5355L21.924 89.5355C21.5097 89.5355 21.1766 89.6648 20.9247 89.9233C20.6728 90.1818 20.5469 90.5182 20.5469 90.9325C20.5469 91.2143 20.6214 91.4744 20.7706 91.7131C20.9164 91.9484 21.1203 92.139 21.3821 92.2848C21.6439 92.4273 21.9472 92.4986 22.2919 92.4986L27 92.4986L27 93.9851ZM29.8636 81.612L19.3636 81.612L19.3636 80.1603L20.6016 80.1603L20.6016 80.036C20.4425 79.9499 20.2585 79.8256 20.0497 79.6632C19.8409 79.5008 19.6586 79.2754 19.5028 78.987C19.3437 78.6987 19.2642 78.3175 19.2642 77.8436C19.2642 77.2271 19.42 76.6769 19.7315 76.193C20.0431 75.7091 20.4922 75.3296 21.0788 75.0545C21.6655 74.7761 22.3714 74.6369 23.1967 74.6369C24.022 74.6369 24.7296 74.7744 25.3196 75.0495C25.9062 75.3246 26.3587 75.7025 26.6768 76.1831C26.9917 76.6636 27.1491 77.2122 27.1491 77.8287C27.1491 78.2927 27.0713 78.6722 26.9155 78.9672C26.7597 79.2588 26.5774 79.4875 26.3686 79.6532C26.1598 79.819 25.9742 79.9466 25.8118 80.036L25.8118 80.1255L29.8636 80.1255L29.8636 81.612ZM23.1818 80.1554C23.7187 80.1554 24.1894 80.0775 24.5937 79.9217C24.9981 79.7659 25.3146 79.5405 25.5433 79.2456C25.7687 78.9506 25.8814 78.5893 25.8814 78.1618C25.8814 77.7176 25.7637 77.3464 25.5284 77.0481C25.2898 76.7498 24.9666 76.5244 24.5589 76.372C24.1513 76.2162 23.6922 76.1383 23.1818 76.1383C22.678 76.1383 22.2256 76.2145 21.8246 76.367C21.4235 76.5162 21.107 76.7415 20.875 77.0431C20.643 77.3414 20.527 77.7143 20.527 78.1618C20.527 78.5926 20.638 78.9572 20.8601 79.2555C21.0821 79.5505 21.392 79.7742 21.7898 79.9267C22.1875 80.0791 22.6515 80.1554 23.1818 80.1554ZM27.169 70.7491C27.169 71.233 27.0795 71.6705 26.9006 72.0616C26.7183 72.4527 26.4548 72.7626 26.1101 72.9913C25.7654 73.2167 25.3428 73.3294 24.8423 73.3294C24.4115 73.3294 24.0568 73.2465 23.7784 73.0808C23.5 72.9151 23.2796 72.6913 23.1172 72.4096C22.9548 72.1279 22.8321 71.813 22.7493 71.465C22.6664 71.117 22.6035 70.7624 22.5604 70.4011C22.5073 69.9437 22.4642 69.5725 22.4311 69.2875C22.3946 69.0024 22.3366 68.7953 22.2571 68.666C22.1776 68.5368 22.0483 68.4721 21.8693 68.4721L21.8345 68.4721C21.4003 68.4721 21.0639 68.5948 20.8253 68.84C20.5866 69.082 20.4673 69.4432 20.4673 69.9238C20.4673 70.4243 20.5784 70.8187 20.8004 71.1071C21.0192 71.3921 21.2628 71.5893 21.5312 71.6987L21.2131 73.0957C20.749 72.93 20.3745 72.688 20.0895 72.3699C19.8011 72.0484 19.5923 71.6788 19.4631 71.2612C19.3305 70.8436 19.2642 70.4044 19.2642 69.9437C19.2642 69.6388 19.3007 69.3156 19.3736 68.9743C19.4432 68.6296 19.5724 68.3081 19.7614 68.0098C19.9503 67.7082 20.2204 67.4612 20.5717 67.269C20.9197 67.0768 21.3722 66.9806 21.929 66.9806L27 66.9806L27 68.4324L25.956 68.4324L25.956 68.492C26.1482 68.5881 26.3371 68.7323 26.5227 68.9245C26.7083 69.1168 26.8624 69.3637 26.9851 69.6653C27.1077 69.9669 27.169 70.3282 27.169 70.7491ZM25.9758 70.426C25.9758 70.015 25.8946 69.6636 25.7322 69.372C25.5698 69.077 25.3577 68.8533 25.0959 68.7008C24.8307 68.545 24.5473 68.4672 24.2457 68.4672L23.2614 68.4672C23.3144 68.5202 23.3641 68.6229 23.4105 68.7754C23.4536 68.9245 23.4917 69.0952 23.5249 69.2875C23.5547 69.4797 23.5829 69.667 23.6094 69.8493C23.6326 70.0315 23.6525 70.184 23.669 70.3066C23.7055 70.595 23.7668 70.8585 23.853 71.0971C23.9392 71.3324 24.0634 71.5214 24.2258 71.6639C24.3849 71.8031 24.5971 71.8727 24.8622 71.8727C25.2301 71.8727 25.5085 71.7368 25.6974 71.465C25.883 71.1932 25.9758 70.8469 25.9758 70.426ZM27 65.0007L19.3636 65.0007L19.3636 63.5142L27 63.5142L27 65.0007ZM18.1854 64.25C18.1854 64.5085 18.0992 64.7306 17.9268 64.9162C17.7512 65.0985 17.5424 65.1896 17.3004 65.1896C17.0552 65.1896 16.8464 65.0985 16.674 64.9162C16.4983 64.7306 16.4105 64.5085 16.4105 64.25C16.4105 63.9915 16.4983 63.7711 16.674 63.5888C16.8464 63.4032 17.0552 63.3104 17.3004 63.3104C17.5424 63.3104 17.7512 63.4032 17.9268 63.5888C18.0992 63.7711 18.1854 63.9915 18.1854 64.25ZM30.0227 58.3127C30.0227 58.9192 29.9432 59.4412 29.7841 59.8787C29.625 60.3129 29.4145 60.6676 29.1527 60.9426C28.8909 61.2177 28.6042 61.4232 28.2926 61.5591L27.7656 60.2814C27.9115 60.1919 28.0656 60.0726 28.228 59.9235C28.3937 59.771 28.5346 59.5655 28.6506 59.307C28.7666 59.0452 28.8246 58.7087 28.8246 58.2978C28.8246 57.7343 28.687 57.2686 28.4119 56.9007C28.1401 56.5328 27.706 56.3489 27.1094 56.3489L25.608 56.3489L25.608 56.4434C25.7704 56.5328 25.951 56.6621 26.1499 56.8311C26.3487 56.9969 26.5211 57.2256 26.6669 57.5172C26.8127 57.8089 26.8856 58.1884 26.8856 58.6557C26.8856 59.2589 26.7448 59.8025 26.4631 60.2864C26.178 60.767 25.7588 61.1481 25.2053 61.4299C24.6484 61.7083 23.964 61.8475 23.152 61.8475C22.34 61.8475 21.6439 61.7099 21.0639 61.4348C20.4839 61.1564 20.0398 60.7753 19.7315 60.2914C19.42 59.8075 19.2642 59.2589 19.2642 58.6458C19.2642 58.1718 19.3437 57.789 19.5028 57.4973C19.6586 57.2057 19.8409 56.9786 20.0497 56.8162C20.2585 56.6505 20.4425 56.5229 20.6016 56.4334L20.6016 56.324L19.3636 56.324L19.3636 54.8674L27.169 54.8674C27.8253 54.8674 28.3639 55.0198 28.7848 55.3248C29.2057 55.6297 29.5173 56.0423 29.7195 56.5627C29.9216 57.0797 30.0227 57.6631 30.0227 58.3127ZM25.6527 58.3276C25.6527 57.9 25.5533 57.5388 25.3544 57.2438C25.1522 56.9455 24.8639 56.7201 24.4893 56.5676C24.1115 56.4119 23.6591 56.334 23.1321 56.334C22.6184 56.334 22.166 56.4102 21.7749 56.5627C21.3838 56.7151 21.0788 56.9389 20.8601 57.2338C20.638 57.5288 20.527 57.8934 20.527 58.3276C20.527 58.775 20.643 59.1479 20.875 59.4462C21.1037 59.7445 21.4152 59.9699 21.8097 60.1223C22.2041 60.2715 22.6449 60.3461 23.1321 60.3461C23.6326 60.3461 24.0717 60.2698 24.4496 60.1174C24.8274 59.9649 25.1224 59.7395 25.3345 59.4412C25.5466 59.1396 25.6527 58.7684 25.6527 58.3276ZM22.4659 51.3873L27 51.3873L27 52.8738L19.3636 52.8738L19.3636 51.4469L20.6065 51.4469L20.6065 51.3524C20.2022 51.1768 19.8774 50.9017 19.6321 50.5272C19.3868 50.1493 19.2642 49.6737 19.2642 49.1003C19.2642 48.58 19.3736 48.1242 19.5923 47.7331C19.8078 47.342 20.1293 47.0388 20.5568 46.8233C20.9844 46.6079 21.513 46.5002 22.1428 46.5002L27 46.5002L27 47.9867L22.3217 47.9867C21.7682 47.9867 21.3357 48.1309 21.0241 48.4192C20.7093 48.7076 20.5518 49.1036 20.5518 49.6074C20.5518 49.9521 20.6264 50.2587 20.7756 50.5272C20.9247 50.7923 21.1435 51.0028 21.4318 51.1586C21.7169 51.311 22.0615 51.3873 22.4659 51.3873Z" fill="#C4320A"/>
<path d="M27 22.8346L22.8333 27.0013L27 31.168M21.1667 22.8346L17 27.0013L21.1667 31.168" stroke="#C4320A" stroke-width="1.66667" stroke-linecap="round" stroke-linejoin="round"/>
</g>
<path d="M10 167C5.02944 167 1 162.971 1 158L0.999993 9C0.999993 4.02943 5.02943 -1.32421e-07 9.99999 -3.49691e-07L9.99999 2C6.134 2 2.99999 5.134 2.99999 9L3 158C3 161.866 6.13401 165 10 165L10 167ZM42 0.999998L42 166L42 0.999998ZM42 167L10 167C5.02944 167 1 162.971 1 158L3 158C3 161.866 6.13401 165 10 165L42 165L42 167ZM0.999993 9C0.999993 4.02943 5.02943 -1.32421e-07 9.99999 -3.49691e-07L42 -1.74846e-06L42 2L9.99999 2C6.134 2 2.99999 5.134 2.99999 9L0.999993 9Z" fill="#C4320A" mask="url(#path-1-inside-1_2612_50970)"/>
</g>
<defs>
<filter id="filter0_d_2612_50970" x="0" y="0" width="44" height="169" filterUnits="userSpaceOnUse" color-interpolation-filters="sRGB">
<feFlood flood-opacity="0" result="BackgroundImageFix"/>
<feColorMatrix in="SourceAlpha" type="matrix" values="0 0 0 0 0 0 0 0 0 0 0 0 0 0 0 0 0 0 127 0" result="hardAlpha"/>
<feOffset dy="1"/>
<feGaussianBlur stdDeviation="1"/>
<feColorMatrix type="matrix" values="0 0 0 0 0.0627451 0 0 0 0 0.0941176 0 0 0 0 0.156863 0 0 0 0.05 0"/>
<feBlend mode="normal" in2="BackgroundImageFix" result="effect1_dropShadow_2612_50970"/>
<feBlend mode="normal" in="SourceGraphic" in2="effect1_dropShadow_2612_50970" result="shape"/>
</filter>
<clipPath id="clip0_2612_50970">
<path d="M10 166C5.58172 166 2 162.418 2 158L1.99999 9C1.99999 4.58173 5.58172 1 9.99999 1L42 0.999998L42 166L10 166Z" fill="white"/>
</clipPath>
</defs>
</svg>
