<svg width="120" height="120" viewBox="0 0 120 120" fill="none" xmlns="http://www.w3.org/2000/svg">
<rect width="120" height="120" rx="3.1746" fill="url(#paint0_linear_2080_181526)"/>
<g style="mix-blend-mode:luminosity">
<g clip-path="url(#clip0_2080_181526)">
<rect x="32" y="12" width="56" height="56" rx="4" fill="#78A9FF"/>
<path d="M71.9434 40.9779L65.9459 35.2478C65.1225 34.461 63.7578 35.0447 63.7578 36.1827L69.0135 41.4347H71.9755L71.9434 40.9779Z" fill="#F36548"/>
<path d="M66.3314 22.9185H53.7301C52.7487 22.9185 51.9531 23.7135 51.9531 24.6942V56.13C51.9531 57.1107 52.7487 57.9057 53.7301 57.9057H66.3314C67.3128 57.9057 68.1084 57.1107 68.1084 56.13V24.6942C68.1084 23.7135 67.3128 22.9185 66.3314 22.9185Z" fill="#2C53D1"/>
<path d="M68.1084 26.2104H51.9531V54.6114H68.1084V26.2104Z" fill="#353662"/>
<path d="M64.0041 30.6533H61.5914C61.4881 30.6533 61.4043 30.737 61.4043 30.8403C61.4043 30.9436 61.4881 31.0273 61.5914 31.0273H64.0041C64.1074 31.0273 64.1912 30.9436 64.1912 30.8403C64.1912 30.737 64.1074 30.6533 64.0041 30.6533Z" fill="#353662"/>
<path d="M48.8087 21.9995C49.0966 21.7007 49.2764 21.2953 49.2764 20.847C49.2764 19.9281 48.5318 19.1841 47.6123 19.1841C47.1732 19.1841 46.7755 19.3558 46.478 19.6324C46.1805 19.3558 45.7828 19.1841 45.3437 19.1841C44.4242 19.1841 43.6797 19.9281 43.6797 20.847C43.6797 21.3541 43.9072 21.8056 44.2651 22.1108L46.4399 24.284L48.7625 22.044C48.7737 22.0329 48.7864 22.0218 48.7975 22.0107L48.8087 21.9995Z" fill="#F36548"/>
<path d="M77.1485 35.336C77.4365 35.0371 77.6162 34.6317 77.6162 34.1834C77.6162 33.2645 76.8717 32.5205 75.9522 32.5205C75.5131 32.5205 75.1154 32.6922 74.8179 32.9688C74.5204 32.6922 74.1227 32.5205 73.6836 32.5205C72.7641 32.5205 72.0195 33.2645 72.0195 34.1834C72.0195 34.6905 72.247 35.142 72.605 35.4472L74.7797 37.6204L77.1024 35.3805C77.1135 35.3693 77.1262 35.3582 77.1374 35.3471L77.1485 35.336Z" fill="#BFD6FF"/>
<path d="M47.045 61.8545C47.3329 61.5556 47.5127 61.1503 47.5127 60.7019C47.5127 59.7831 46.7682 59.0391 45.8487 59.0391C45.4096 59.0391 45.0119 59.2108 44.7144 59.4874C44.4169 59.2108 44.0191 59.0391 43.5801 59.0391C42.6605 59.0391 41.916 59.7831 41.916 60.7019C41.916 61.2091 42.1435 61.6606 42.5015 61.9658L44.6762 64.139L46.9989 61.899C47.01 61.8879 47.0227 61.8768 47.0339 61.8656L47.045 61.8545Z" fill="#BFD6FF"/>
<path d="M61.9875 27.7349H43.9277V52.2918H61.9875V27.7349Z" fill="white"/>
<path d="M60.0181 29.2686H45.418V48.1015H60.0181V29.2686Z" fill="#5E98E7"/>
<path d="M47.9143 29.2686H45.418V31.6303H47.9143V29.2686Z" fill="#052D5E"/>
<path d="M46.716 31.1462C47.1168 31.1462 47.4417 30.8216 47.4417 30.421C47.4417 30.0205 47.1168 29.6958 46.716 29.6958C46.3152 29.6958 45.9902 30.0205 45.9902 30.421C45.9902 30.8216 46.3152 31.1462 46.716 31.1462Z" fill="white"/>
<path d="M56.6324 42.873H45.9648V43.342H56.6324V42.873Z" fill="white"/>
<path d="M56.6324 43.9385H45.9648V44.4074H56.6324V43.9385Z" fill="white"/>
<path d="M56.6324 45.0015H45.9648V45.4704H56.6324V45.0015Z" fill="white"/>
<path d="M46.5883 49.71H45.418V50.6345H46.5883V49.71Z" fill="#CBDFFF"/>
<path d="M46.7937 49.71H46.125V50.6345H46.7937V49.71Z" fill="#CBDFFF"/>
<path d="M46.2332 49.106C46.3339 49.106 46.4155 49.1876 46.4155 49.2882V50.171H46.0508V49.2882C46.0508 49.1876 46.1325 49.106 46.2332 49.106Z" fill="#CBDFFF"/>
<path d="M50.709 49.167V50.1751H51.4841L51.885 50.5757V50.1751V49.4973V49.167H50.709Z" fill="#CBDFFF"/>
<path d="M56.1235 50.0612C56.2295 50.0612 56.3154 49.9754 56.3154 49.8695C56.3154 49.7636 56.2295 49.6777 56.1235 49.6777C56.0175 49.6777 55.9316 49.7636 55.9316 49.8695C55.9316 49.9754 56.0175 50.0612 56.1235 50.0612Z" fill="#CBDFFF"/>
<path d="M57.0517 50.5926C57.0517 50.6989 56.9662 50.7844 56.8599 50.7844C56.7535 50.7844 56.668 50.6989 56.668 50.5926C56.668 50.4863 56.7535 50.4009 56.8599 50.4009C56.9662 50.4009 57.0517 50.4863 57.0517 50.5926Z" fill="#CBDFFF"/>
<path d="M56.8403 49.3396C56.9463 49.3396 57.0322 49.2537 57.0322 49.1478C57.0322 49.0419 56.9463 48.9561 56.8403 48.9561C56.7343 48.9561 56.6484 49.0419 56.6484 49.1478C56.6484 49.2537 56.7343 49.3396 56.8403 49.3396Z" fill="#CBDFFF"/>
<path d="M56.7944 49.1114L56.0703 49.835L56.1442 49.9088L56.8683 49.1852L56.7944 49.1114Z" fill="#CBDFFF"/>
<path d="M56.8706 50.5541L56.1465 49.8306L56.0726 49.9044L56.7967 50.628L56.8706 50.5541Z" fill="#CBDFFF"/>
<path d="M49.3103 49.5469H48.0964C47.9169 49.5469 47.7715 49.6918 47.7715 49.8706C47.7715 50.0493 47.9169 50.1943 48.0964 50.1943H49.3103C49.4898 50.1943 49.6352 50.0493 49.6352 49.8706C49.6352 49.6918 49.4898 49.5469 49.3103 49.5469Z" fill="#DBE8FF"/>
<path d="M54.5017 49.5469H53.2878C53.1083 49.5469 52.9629 49.6918 52.9629 49.8706C52.9629 50.0493 53.1083 50.1943 53.2878 50.1943H54.5017C54.6812 50.1943 54.8266 50.0493 54.8266 49.8706C54.8266 49.6918 54.6812 49.5469 54.5017 49.5469Z" fill="#DBE8FF"/>
<path d="M59.6951 49.5469H58.4811C58.3017 49.5469 58.1562 49.6918 58.1562 49.8706C58.1562 50.0493 58.3017 50.1943 58.4811 50.1943H59.6951C59.8745 50.1943 60.02 50.0493 60.02 49.8706C60.02 49.6918 59.8745 49.5469 59.6951 49.5469Z" fill="#DBE8FF"/>
<path d="M56.0303 37.0752H49.3828V38.3149H56.0303V37.0752Z" fill="#F36548"/>
<path d="M55.2978 38.3149H50.1113V41.8385H55.2978V38.3149Z" fill="#F89C7B"/>
<path d="M54.8978 37.0752C54.8978 37.0752 55.8287 33.9807 53.9802 32.4619C53.9802 32.4619 52.6978 34.5692 53.5926 37.0752H54.8978Z" fill="#5E9779"/>
<path d="M54.2289 37.0754C54.2289 37.0754 53.7863 34.3834 56.7158 33.3335L55.46 37.0754H54.2289Z" fill="#4F7F65"/>
<path d="M50.5645 37.0752C50.5645 37.0752 49.6336 33.9807 51.4821 32.4619C51.4821 32.4619 52.7645 34.5692 51.8697 37.0752H50.5645Z" fill="#5E9779"/>
<path d="M51.233 37.0754C51.233 37.0754 51.6756 34.3834 48.7461 33.3335L50.0019 37.0754H51.233Z" fill="#4F7F65"/>
<path d="M51.8694 37.0752C51.8694 37.0752 51.155 35.5621 52.7053 34.1401C52.7053 34.1401 54.4037 35.3419 53.5944 37.0752H51.8694Z" fill="#4F7F65"/>
<path d="M53.2983 45.9927H45.9688V47.4127H53.2983V45.9927Z" fill="#CDDFFF"/>
<path d="M73.1292 57.597L71.9743 41.4351H69.6259L69.5951 44.6955C69.6312 46.8446 69.6513 49.6028 69.5363 50.4189C69.3398 51.8121 65.35 54.6998 65.35 54.6998V47.0343C64.5734 46.2583 63.2461 46.8086 63.2461 47.9052V53.5712C63.2461 57.7332 64.4304 61.8084 66.6612 65.3226L77.1297 81.8158H94.7787L73.1292 57.597Z" fill="#A21B00"/>
<path d="M64.5907 48.1909H63.2461V49.5346H64.5907V48.1909Z" fill="#000107"/>
<path d="M57.5762 21.667V27.15H61.7872L63.9619 29.3232V27.15V23.4618V21.667H57.5762Z" fill="#CBDFFF"/>
<path d="M63.0886 23.1978H58.4512V23.5507H63.0886V23.1978Z" fill="white"/>
<path d="M63.0886 24.3042H58.4512V24.6571H63.0886V24.3042Z" fill="white"/>
<path d="M63.0886 25.4106H58.4512V25.7636H63.0886V25.4106Z" fill="white"/>
</g>
</g>
<path d="M22.6907 105H20.7219L24.3065 94.8182H26.5835L30.1729 105H28.2042L25.4847 96.9062H25.4052L22.6907 105ZM22.7553 101.008H28.1246V102.489H22.7553V101.008ZM34.0359 105.134C33.436 105.134 32.899 104.98 32.4251 104.672C31.9511 104.364 31.5766 103.916 31.3015 103.33C31.0264 102.743 30.8888 102.03 30.8888 101.192C30.8888 100.343 31.0281 99.6274 31.3065 99.044C31.5882 98.4574 31.9677 98.0149 32.445 97.7166C32.9222 97.415 33.4542 97.2642 34.0408 97.2642C34.4883 97.2642 34.8562 97.3404 35.1445 97.4929C35.4329 97.642 35.6616 97.8227 35.8306 98.0348C35.9996 98.2436 36.1306 98.4408 36.2234 98.6264H36.2979V94.8182H38.1026V105H36.3327V103.797H36.2234C36.1306 103.982 35.9963 104.18 35.8207 104.388C35.645 104.594 35.413 104.77 35.1246 104.915C34.8363 105.061 34.4734 105.134 34.0359 105.134ZM34.538 103.658C34.9192 103.658 35.244 103.555 35.5124 103.349C35.7809 103.141 35.9847 102.851 36.1239 102.479C36.2631 102.108 36.3327 101.676 36.3327 101.182C36.3327 100.688 36.2631 100.259 36.1239 99.8942C35.988 99.5296 35.7859 99.2462 35.5174 99.044C35.2522 98.8419 34.9258 98.7408 34.538 98.7408C34.137 98.7408 33.8022 98.8452 33.5337 99.054C33.2653 99.2628 33.0631 99.5511 32.9272 99.919C32.7913 100.287 32.7234 100.708 32.7234 101.182C32.7234 101.659 32.7913 102.085 32.9272 102.46C33.0664 102.831 33.2702 103.124 33.5387 103.339C33.8105 103.552 34.1436 103.658 34.538 103.658ZM52.2878 98.2536H50.4284C50.3754 97.9486 50.2776 97.6785 50.1351 97.4432C49.9926 97.2045 49.8153 97.0024 49.6032 96.8366C49.391 96.6709 49.1491 96.5466 48.8773 96.4638C48.6088 96.3776 48.3188 96.3345 48.0073 96.3345C47.4538 96.3345 46.9632 96.4737 46.5357 96.7521C46.1081 97.0272 45.7734 97.4316 45.5314 97.9652C45.2895 98.4955 45.1685 99.1435 45.1685 99.9091C45.1685 100.688 45.2895 101.344 45.5314 101.878C45.7767 102.408 46.1114 102.809 46.5357 103.081C46.9632 103.349 47.4521 103.484 48.0023 103.484C48.3072 103.484 48.5923 103.444 48.8574 103.364C49.1259 103.281 49.3662 103.161 49.5783 103.001C49.7937 102.842 49.9744 102.647 50.1202 102.415C50.2694 102.183 50.3721 101.918 50.4284 101.619L52.2878 101.629C52.2182 102.113 52.0674 102.567 51.8354 102.991C51.6067 103.416 51.3068 103.79 50.9355 104.115C50.5643 104.437 50.1301 104.688 49.633 104.871C49.1358 105.05 48.584 105.139 47.9775 105.139C47.0826 105.139 46.2838 104.932 45.5811 104.518C44.8785 104.103 44.325 103.505 43.9206 102.723C43.5163 101.941 43.3141 101.003 43.3141 99.9091C43.3141 98.812 43.5179 97.8741 43.9256 97.0952C44.3333 96.313 44.8884 95.7147 45.5911 95.3004C46.2937 94.8861 47.0892 94.679 47.9775 94.679C48.5442 94.679 49.0712 94.7585 49.5584 94.9176C50.0456 95.0767 50.4798 95.3104 50.861 95.6186C51.2421 95.9235 51.5553 96.2981 51.8006 96.7422C52.0492 97.183 52.2116 97.6868 52.2878 98.2536ZM53.8974 105V97.3636H55.6424V98.6364H55.7219C55.8612 98.1955 56.0998 97.8558 56.4379 97.6172C56.7792 97.3752 57.1687 97.2543 57.6062 97.2543C57.7056 97.2543 57.8166 97.2592 57.9393 97.2692C58.0652 97.2758 58.1696 97.2874 58.2525 97.304V98.9595C58.1763 98.933 58.0553 98.9098 57.8896 98.8899C57.7272 98.8667 57.5697 98.8551 57.4173 98.8551C57.0891 98.8551 56.7942 98.9264 56.5323 99.0689C56.2738 99.2081 56.07 99.402 55.9208 99.6506C55.7717 99.8991 55.6971 100.186 55.6971 100.511V105H53.8974ZM62.5144 105.149C61.7488 105.149 61.0875 104.99 60.5307 104.672C59.9772 104.35 59.5513 103.896 59.253 103.31C58.9547 102.72 58.8056 102.025 58.8056 101.227C58.8056 100.441 58.9547 99.7517 59.253 99.1584C59.5546 98.5618 59.9756 98.0978 60.5158 97.7663C61.056 97.4316 61.6908 97.2642 62.4199 97.2642C62.8906 97.2642 63.3347 97.3404 63.7523 97.4929C64.1732 97.642 64.5444 97.8741 64.8659 98.1889C65.1908 98.5038 65.446 98.9048 65.6316 99.392C65.8172 99.8759 65.91 100.453 65.91 101.122V101.674H59.6507V100.461H64.1848C64.1815 100.116 64.1069 99.8097 63.9611 99.5412C63.8153 99.2694 63.6114 99.0556 63.3496 98.8999C63.0911 98.7441 62.7895 98.6662 62.4448 98.6662C62.0769 98.6662 61.7537 98.7557 61.4753 98.9347C61.1969 99.1103 60.9798 99.3423 60.824 99.6307C60.6716 99.9157 60.5937 100.229 60.5904 100.57V101.629C60.5904 102.073 60.6716 102.455 60.834 102.773C60.9964 103.088 61.2234 103.33 61.5151 103.499C61.8068 103.664 62.1481 103.747 62.5392 103.747C62.8011 103.747 63.0381 103.711 63.2502 103.638C63.4623 103.562 63.6462 103.451 63.802 103.305C63.9578 103.159 64.0755 102.978 64.155 102.763L65.8354 102.952C65.7293 103.396 65.5272 103.784 65.2289 104.115C64.9339 104.443 64.556 104.698 64.0953 104.881C63.6346 105.06 63.1077 105.149 62.5144 105.149ZM69.63 105.154C69.1461 105.154 68.7102 105.068 68.3224 104.896C67.938 104.72 67.633 104.461 67.4077 104.12C67.1856 103.779 67.0746 103.358 67.0746 102.857C67.0746 102.426 67.1541 102.07 67.3132 101.788C67.4723 101.507 67.6894 101.281 67.9645 101.112C68.2396 100.943 68.5495 100.816 68.8942 100.729C69.2422 100.64 69.6018 100.575 69.973 100.536C70.4205 100.489 70.7834 100.448 71.0618 100.411C71.3402 100.371 71.5424 100.312 71.6683 100.232C71.7976 100.149 71.8622 100.022 71.8622 99.8494V99.8196C71.8622 99.4451 71.7512 99.1551 71.5291 98.9496C71.3071 98.7441 70.9872 98.6413 70.5696 98.6413C70.1288 98.6413 69.7791 98.7375 69.5206 98.9297C69.2654 99.1219 69.093 99.349 69.0036 99.6108L67.3232 99.3722C67.4557 98.9081 67.6745 98.5204 67.9794 98.2088C68.2843 97.8939 68.6572 97.6586 69.098 97.5028C69.5388 97.3438 70.026 97.2642 70.5597 97.2642C70.9276 97.2642 71.2938 97.3073 71.6584 97.3935C72.023 97.4796 72.3561 97.6222 72.6577 97.821C72.9593 98.0166 73.2012 98.2834 73.3835 98.6214C73.5691 98.9595 73.6619 99.3821 73.6619 99.8892V105H71.9318V103.951H71.8722C71.7628 104.163 71.6087 104.362 71.4098 104.548C71.2143 104.73 70.9673 104.877 70.669 104.99C70.3741 105.099 70.0277 105.154 69.63 105.154ZM70.0973 103.832C70.4586 103.832 70.7718 103.76 71.0369 103.618C71.3021 103.472 71.5059 103.28 71.6484 103.041C71.7943 102.803 71.8672 102.542 71.8672 102.261V101.361C71.8108 101.407 71.7147 101.45 71.5788 101.49C71.4463 101.53 71.2971 101.565 71.1314 101.594C70.9657 101.624 70.8016 101.651 70.6392 101.674C70.4768 101.697 70.3359 101.717 70.2166 101.734C69.9482 101.77 69.7079 101.83 69.4957 101.913C69.2836 101.996 69.1162 102.112 68.9936 102.261C68.871 102.406 68.8097 102.595 68.8097 102.827C68.8097 103.159 68.9306 103.409 69.1726 103.578C69.4145 103.747 69.7228 103.832 70.0973 103.832ZM79.2848 97.3636V98.7557H74.8949V97.3636H79.2848ZM75.9787 95.5341H77.7784V102.703C77.7784 102.945 77.8149 103.131 77.8878 103.26C77.964 103.386 78.0634 103.472 78.1861 103.518C78.3087 103.565 78.4446 103.588 78.5938 103.588C78.7064 103.588 78.8092 103.58 78.902 103.563C78.9981 103.547 79.071 103.532 79.1207 103.518L79.424 104.925C79.3279 104.959 79.1903 104.995 79.0114 105.035C78.8357 105.075 78.6203 105.098 78.3651 105.104C77.9143 105.118 77.5083 105.05 77.147 104.901C76.7857 104.748 76.4991 104.513 76.2869 104.195C76.0781 103.876 75.9754 103.479 75.9787 103.001V95.5341ZM80.79 105V97.3636H82.5897V105H80.79ZM81.6948 96.2798C81.4097 96.2798 81.1645 96.1854 80.959 95.9964C80.7535 95.8042 80.6507 95.5739 80.6507 95.3054C80.6507 95.0336 80.7535 94.8033 80.959 94.6143C81.1645 94.4221 81.4097 94.326 81.6948 94.326C81.9831 94.326 82.2284 94.4221 82.4306 94.6143C82.6361 94.8033 82.7388 95.0336 82.7388 95.3054C82.7388 95.5739 82.6361 95.8042 82.4306 95.9964C82.2284 96.1854 81.9831 96.2798 81.6948 96.2798ZM91.2614 97.3636L88.5419 105H86.5533L83.8338 97.3636H85.7528L87.5078 103.036H87.5874L89.3473 97.3636H91.2614ZM95.6277 105.149C94.862 105.149 94.2008 104.99 93.644 104.672C93.0905 104.35 92.6646 103.896 92.3663 103.31C92.068 102.72 91.9189 102.025 91.9189 101.227C91.9189 100.441 92.068 99.7517 92.3663 99.1584C92.6679 98.5618 93.0888 98.0978 93.6291 97.7663C94.1693 97.4316 94.804 97.2642 95.5332 97.2642C96.0038 97.2642 96.448 97.3404 96.8656 97.4929C97.2865 97.642 97.6577 97.8741 97.9792 98.1889C98.304 98.5038 98.5592 98.9048 98.7449 99.392C98.9305 99.8759 99.0233 100.453 99.0233 101.122V101.674H92.764V100.461H97.2981C97.2948 100.116 97.2202 99.8097 97.0744 99.5412C96.9286 99.2694 96.7247 99.0556 96.4629 98.8999C96.2044 98.7441 95.9028 98.6662 95.5581 98.6662C95.1902 98.6662 94.867 98.7557 94.5886 98.9347C94.3102 99.1103 94.0931 99.3423 93.9373 99.6307C93.7849 99.9157 93.707 100.229 93.7037 100.57V101.629C93.7037 102.073 93.7849 102.455 93.9473 102.773C94.1097 103.088 94.3367 103.33 94.6284 103.499C94.92 103.664 95.2614 103.747 95.6525 103.747C95.9144 103.747 96.1513 103.711 96.3635 103.638C96.5756 103.562 96.7595 103.451 96.9153 103.305C97.0711 103.159 97.1887 102.978 97.2683 102.763L98.9487 102.952C98.8426 103.396 98.6404 103.784 98.3422 104.115C98.0472 104.443 97.6693 104.698 97.2086 104.881C96.7479 105.06 96.2209 105.149 95.6277 105.149Z" fill="#F4F4F4"/>
<defs>
<linearGradient id="paint0_linear_2080_181526" x1="60" y1="0" x2="60" y2="120" gradientUnits="userSpaceOnUse">
<stop stop-color="#FF6F47"/>
<stop offset="1" stop-color="#FE4810"/>
</linearGradient>
<clipPath id="clip0_2080_181526">
<rect x="32" y="12" width="56" height="56" rx="4" fill="white"/>
</clipPath>
</defs>
</svg>
