<svg width="120" height="120" viewBox="0 0 120 120" fill="none" xmlns="http://www.w3.org/2000/svg">
<rect width="120" height="120" rx="4" fill="url(#paint0_linear_2080_181649)"/>
<g style="mix-blend-mode:luminosity">
<g clip-path="url(#clip0_2080_181649)">
<rect x="32" y="12" width="56" height="56" rx="1.81818" fill="#78A9FF"/>
<path d="M71.9453 40.9779L65.9478 35.2478C65.1245 34.461 63.7598 35.0447 63.7598 36.1827L69.0154 41.4347H71.9774L71.9453 40.9779Z" fill="#F36548"/>
<path d="M66.3314 22.9185H53.7301C52.7487 22.9185 51.9531 23.7135 51.9531 24.6942V56.13C51.9531 57.1107 52.7487 57.9057 53.7301 57.9057H66.3314C67.3128 57.9057 68.1084 57.1107 68.1084 56.13V24.6942C68.1084 23.7135 67.3128 22.9185 66.3314 22.9185Z" fill="#2C53D1"/>
<path d="M68.1084 26.2104H51.9531V54.6114H68.1084V26.2104Z" fill="#353662"/>
<path d="M64.006 30.6533H61.5934C61.49 30.6533 61.4062 30.737 61.4062 30.8403C61.4062 30.9436 61.49 31.0273 61.5934 31.0273H64.006C64.1094 31.0273 64.1931 30.9436 64.1931 30.8403C64.1931 30.737 64.1094 30.6533 64.006 30.6533Z" fill="#353662"/>
<path d="M48.8087 21.9995C49.0966 21.7007 49.2764 21.2953 49.2764 20.847C49.2764 19.9281 48.5319 19.1841 47.6123 19.1841C47.1732 19.1841 46.7755 19.3558 46.478 19.6324C46.1805 19.3558 45.7828 19.1841 45.3437 19.1841C44.4242 19.1841 43.6797 19.9281 43.6797 20.847C43.6797 21.3541 43.9072 21.8056 44.2651 22.1108L46.4399 24.284L48.7625 22.044C48.7737 22.0329 48.7864 22.0218 48.7975 22.0107L48.8087 21.9995Z" fill="#F36548"/>
<path d="M77.1485 35.336C77.4365 35.0371 77.6162 34.6317 77.6162 34.1834C77.6162 33.2645 76.8717 32.5205 75.9522 32.5205C75.5131 32.5205 75.1154 32.6922 74.8179 32.9688C74.5204 32.6922 74.1227 32.5205 73.6836 32.5205C72.7641 32.5205 72.0195 33.2645 72.0195 34.1834C72.0195 34.6905 72.247 35.142 72.605 35.4472L74.7797 37.6204L77.1024 35.3805C77.1135 35.3693 77.1262 35.3582 77.1374 35.3471L77.1485 35.336Z" fill="#BFD6FF"/>
<path d="M47.0469 61.8545C47.3349 61.5556 47.5147 61.1503 47.5147 60.7019C47.5147 59.7831 46.7701 59.0391 45.8506 59.0391C45.4115 59.0391 45.0138 59.2108 44.7163 59.4874C44.4188 59.2108 44.0211 59.0391 43.582 59.0391C42.6625 59.0391 41.918 59.7831 41.918 60.7019C41.918 61.2091 42.1455 61.6606 42.5034 61.9658L44.6781 64.139L47.0008 61.899C47.0119 61.8879 47.0247 61.8768 47.0358 61.8656L47.0469 61.8545Z" fill="#BFD6FF"/>
<path d="M68.8681 28.7998H51.1348V50.2665H68.8681V28.7998Z" fill="white"/>
<path d="M68.4016 29.2666H51.6016V46.0666H68.4016V29.2666Z" fill="#5E98E7"/>
<path d="M54.9163 31.1333H52.4199V33.495H54.9163V31.1333Z" fill="#052D5E"/>
<path d="M53.7199 33.011C54.1207 33.011 54.4456 32.6863 54.4456 32.2858C54.4456 31.8852 54.1207 31.5605 53.7199 31.5605C53.3191 31.5605 52.9941 31.8852 52.9941 32.2858C52.9941 32.6863 53.3191 33.011 53.7199 33.011Z" fill="white"/>
<path d="M63.6324 41.0063H52.9648V41.4753H63.6324V41.0063Z" fill="white"/>
<path d="M63.6324 42.0713H52.9648V42.5402H63.6324V42.0713Z" fill="white"/>
<path d="M63.6324 43.1348H52.9648V43.6037H63.6324V43.1348Z" fill="white"/>
<path d="M53.1418 46.8252H52.002V47.7257H53.1418V46.8252Z" fill="#CBDFFF"/>
<path d="M53.3428 46.8252H52.6914V47.7257H53.3428V46.8252Z" fill="#CBDFFF"/>
<path d="M52.7968 46.2368C52.8949 46.2368 52.9744 46.3163 52.9744 46.4143V47.2742H52.6191V46.4143C52.6191 46.3163 52.6987 46.2368 52.7968 46.2368Z" fill="#CBDFFF"/>
<path d="M55.8544 46.666H54.6719C54.4971 46.666 54.3555 46.8072 54.3555 46.9813C54.3555 47.1554 54.4971 47.2966 54.6719 47.2966H55.8544C56.0291 47.2966 56.1708 47.1554 56.1708 46.9813C56.1708 46.8072 56.0291 46.666 55.8544 46.666Z" fill="#DBE8FF"/>
<path d="M57.1855 46.2954V47.2773H57.9405L58.331 47.6675V47.2773V46.6172V46.2954H57.1855Z" fill="#CBDFFF"/>
<path d="M60.8426 46.666H59.6602C59.4854 46.666 59.3438 46.8072 59.3438 46.9813C59.3438 47.1554 59.4854 47.2966 59.6602 47.2966H60.8426C61.0174 47.2966 61.1591 47.1554 61.1591 46.9813C61.1591 46.8072 61.0174 46.666 60.8426 46.666Z" fill="#DBE8FF"/>
<path d="M62.3607 47.167C62.4639 47.167 62.5476 47.0834 62.5476 46.9802C62.5476 46.8771 62.4639 46.7935 62.3607 46.7935C62.2575 46.7935 62.1738 46.8771 62.1738 46.9802C62.1738 47.0834 62.2575 47.167 62.3607 47.167Z" fill="#CBDFFF"/>
<path d="M63.2644 47.6848C63.2644 47.7884 63.1811 47.8716 63.0775 47.8716C62.9739 47.8716 62.8906 47.7884 62.8906 47.6848C62.8906 47.5813 62.9739 47.498 63.0775 47.498C63.1811 47.498 63.2644 47.5813 63.2644 47.6848Z" fill="#CBDFFF"/>
<path d="M63.058 46.4644C63.1612 46.4644 63.2449 46.3807 63.2449 46.2776C63.2449 46.1744 63.1612 46.0908 63.058 46.0908C62.9548 46.0908 62.8711 46.1744 62.8711 46.2776C62.8711 46.3807 62.9548 46.4644 63.058 46.4644Z" fill="#CBDFFF"/>
<path d="M63.0158 46.242L62.3105 46.9468L62.3825 47.0187L63.0878 46.3139L63.0158 46.242Z" fill="#CBDFFF"/>
<path d="M63.09 47.6476L62.3848 46.9429L62.3128 47.0148L63.0181 47.7196L63.09 47.6476Z" fill="#CBDFFF"/>
<path d="M65.7762 46.666H64.5938C64.419 46.666 64.2773 46.8072 64.2773 46.9813C64.2773 47.1554 64.419 47.2966 64.5938 47.2966H65.7762C65.951 47.2966 66.0927 47.1554 66.0927 46.9813C66.0927 46.8072 65.951 46.666 65.7762 46.666Z" fill="#DBE8FF"/>
<path d="M61.9985 36.165H57.4375V37.0156H61.9985V36.165Z" fill="#F36548"/>
<path d="M61.4961 37.0161H57.9375V39.4337H61.4961V37.0161Z" fill="#F89C7B"/>
<path d="M61.2206 36.1653C61.2206 36.1653 61.8593 34.0421 60.591 33C60.591 33 59.7111 34.4459 60.3251 36.1653H61.2206Z" fill="#5E9779"/>
<path d="M60.7625 36.1656C60.7625 36.1656 60.4587 34.3185 62.4688 33.5981L61.6071 36.1656H60.7625Z" fill="#4F7F65"/>
<path d="M58.2468 36.1653C58.2468 36.1653 57.608 34.0421 58.8764 33C58.8764 33 59.7562 34.4459 59.1423 36.1653H58.2468Z" fill="#5E9779"/>
<path d="M58.7063 36.1656C58.7063 36.1656 59.01 34.3185 57 33.5981L57.8616 36.1656H58.7063Z" fill="#4F7F65"/>
<path d="M59.144 36.1652C59.144 36.1652 58.6539 35.127 59.7175 34.1514C59.7175 34.1514 60.8829 34.9759 60.3276 36.1652H59.144Z" fill="#4F7F65"/>
<path d="M60.3002 44.1255H52.9707V45.5456H60.3002V44.1255Z" fill="#CDDFFF"/>
<g opacity="0.64">
<path d="M87.0693 28.7998H69.3359V50.2665H87.0693V28.7998Z" fill="white"/>
<path d="M86.6027 29.2666H69.8027V46.0666H86.6027V29.2666Z" fill="#5E98E7"/>
<path d="M73.1155 31.1333H70.6191V33.495H73.1155V31.1333Z" fill="#052D5E"/>
<path d="M71.9191 33.011C72.3199 33.011 72.6448 32.6863 72.6448 32.2858C72.6448 31.8852 72.3199 31.5605 71.9191 31.5605C71.5183 31.5605 71.1934 31.8852 71.1934 32.2858C71.1934 32.6863 71.5183 33.011 71.9191 33.011Z" fill="white"/>
<path d="M81.8355 41.0063H71.168V41.4753H81.8355V41.0063Z" fill="white"/>
<path d="M81.8355 42.0713H71.168V42.5402H81.8355V42.0713Z" fill="white"/>
<path d="M81.8355 43.1348H71.168V43.6037H81.8355V43.1348Z" fill="white"/>
<path d="M70.8704 46.8252H69.7305V47.7257H70.8704V46.8252Z" fill="#CBDFFF"/>
<path d="M71.0713 46.8252H70.4199V47.7257H71.0713V46.8252Z" fill="#CBDFFF"/>
<path d="M70.5253 46.2368C70.6234 46.2368 70.7029 46.3163 70.7029 46.4143V47.2742H70.3477V46.4143C70.3477 46.3163 70.4272 46.2368 70.5253 46.2368Z" fill="#CBDFFF"/>
<path d="M73.5829 46.666H72.4004C72.2257 46.666 72.084 46.8072 72.084 46.9813C72.084 47.1554 72.2257 47.2966 72.4004 47.2966H73.5829C73.7576 47.2966 73.8993 47.1554 73.8993 46.9813C73.8993 46.8072 73.7576 46.666 73.5829 46.666Z" fill="#DBE8FF"/>
<path d="M74.9141 46.2954V47.2773H75.6691L76.0595 47.6675V47.2773V46.6172V46.2954H74.9141Z" fill="#CBDFFF"/>
<path d="M78.5712 46.666H77.3887C77.2139 46.666 77.0723 46.8072 77.0723 46.9813C77.0723 47.1554 77.2139 47.2966 77.3887 47.2966H78.5712C78.7459 47.2966 78.8876 47.1554 78.8876 46.9813C78.8876 46.8072 78.7459 46.666 78.5712 46.666Z" fill="#DBE8FF"/>
<path d="M80.0892 47.167C80.1925 47.167 80.2761 47.0834 80.2761 46.9802C80.2761 46.8771 80.1925 46.7935 80.0892 46.7935C79.986 46.7935 79.9023 46.8771 79.9023 46.9802C79.9023 47.0834 79.986 47.167 80.0892 47.167Z" fill="#CBDFFF"/>
<path d="M80.9929 47.6848C80.9929 47.7884 80.9097 47.8716 80.806 47.8716C80.7024 47.8716 80.6191 47.7884 80.6191 47.6848C80.6191 47.5813 80.7024 47.498 80.806 47.498C80.9097 47.498 80.9929 47.5813 80.9929 47.6848Z" fill="#CBDFFF"/>
<path d="M80.7865 46.4644C80.8897 46.4644 80.9734 46.3807 80.9734 46.2776C80.9734 46.1744 80.8897 46.0908 80.7865 46.0908C80.6833 46.0908 80.5996 46.1744 80.5996 46.2776C80.5996 46.3807 80.6833 46.4644 80.7865 46.4644Z" fill="#CBDFFF"/>
<path d="M80.7424 46.242L80.0371 46.9468L80.1091 47.0187L80.8144 46.3139L80.7424 46.242Z" fill="#CBDFFF"/>
<path d="M80.8166 47.6476L80.1113 46.9429L80.0394 47.0148L80.7446 47.7196L80.8166 47.6476Z" fill="#CBDFFF"/>
<path d="M83.5047 46.666H82.3223C82.1475 46.666 82.0059 46.8072 82.0059 46.9813C82.0059 47.1554 82.1475 47.2966 82.3223 47.2966H83.5047C83.6795 47.2966 83.8212 47.1554 83.8212 46.9813C83.8212 46.8072 83.6795 46.666 83.5047 46.666Z" fill="#DBE8FF"/>
<path d="M80.1997 36.165H75.6387V37.0156H80.1997V36.165Z" fill="#F36548"/>
<path d="M79.6973 37.0161H76.1387V39.4337H79.6973V37.0161Z" fill="#F89C7B"/>
<path d="M79.4218 36.1653C79.4218 36.1653 80.0605 34.0421 78.7922 33C78.7922 33 77.9123 34.4459 78.5263 36.1653H79.4218Z" fill="#5E9779"/>
<path d="M78.9636 36.1656C78.9636 36.1656 78.6599 34.3185 80.6699 33.5981L79.8083 36.1656H78.9636Z" fill="#4F7F65"/>
<path d="M76.4479 36.1653C76.4479 36.1653 75.8092 34.0421 77.0775 33C77.0775 33 77.9574 34.4459 77.3435 36.1653H76.4479Z" fill="#5E9779"/>
<path d="M76.9075 36.1656C76.9075 36.1656 77.2112 34.3185 75.2012 33.5981L76.0628 36.1656H76.9075Z" fill="#4F7F65"/>
<path d="M77.3452 36.1652C77.3452 36.1652 76.855 35.127 77.9187 34.1514C77.9187 34.1514 79.084 34.9759 78.5288 36.1652H77.3452Z" fill="#4F7F65"/>
<path d="M78.5014 44.1255H71.1719V45.5456H78.5014V44.1255Z" fill="#CDDFFF"/>
</g>
<g style="mix-blend-mode:overlay" opacity="0.64">
<path d="M50.6689 28.7998H32.9355V50.2665H50.6689V28.7998Z" fill="white"/>
<path d="M50.2023 29.2666H33.4023V46.0666H50.2023V29.2666Z" fill="#5E98E7"/>
<path d="M36.7171 31.1333H34.2207V33.495H36.7171V31.1333Z" fill="#052D5E"/>
<path d="M35.5207 33.011C35.9215 33.011 36.2464 32.6863 36.2464 32.2858C36.2464 31.8852 35.9215 31.5605 35.5207 31.5605C35.1198 31.5605 34.7949 31.8852 34.7949 32.2858C34.7949 32.6863 35.1198 33.011 35.5207 33.011Z" fill="white"/>
<path d="M45.4351 41.0063H34.7676V41.4753H45.4351V41.0063Z" fill="white"/>
<path d="M45.4351 42.0713H34.7676V42.5402H45.4351V42.0713Z" fill="white"/>
<path d="M45.4351 43.1348H34.7676V43.6037H45.4351V43.1348Z" fill="white"/>
<path d="M35.4153 46.8252H34.2754V47.7257H35.4153V46.8252Z" fill="#CBDFFF"/>
<path d="M35.6162 46.8252H34.9648V47.7257H35.6162V46.8252Z" fill="#CBDFFF"/>
<path d="M35.0702 46.2368C35.1683 46.2368 35.2479 46.3163 35.2479 46.4143V47.2742H34.8926V46.4143C34.8926 46.3163 34.9721 46.2368 35.0702 46.2368Z" fill="#CBDFFF"/>
<path d="M38.1278 46.666H36.9453C36.7706 46.666 36.6289 46.8072 36.6289 46.9813C36.6289 47.1554 36.7706 47.2966 36.9453 47.2966H38.1278C38.3026 47.2966 38.4442 47.1554 38.4442 46.9813C38.4442 46.8072 38.3026 46.666 38.1278 46.666Z" fill="#DBE8FF"/>
<path d="M39.459 46.2954V47.2773H40.214L40.6044 47.6675V47.2773V46.6172V46.2954H39.459Z" fill="#CBDFFF"/>
<path d="M43.1161 46.666H41.9336C41.7589 46.666 41.6172 46.8072 41.6172 46.9813C41.6172 47.1554 41.7589 47.2966 41.9336 47.2966H43.1161C43.2908 47.2966 43.4325 47.1554 43.4325 46.9813C43.4325 46.8072 43.2908 46.666 43.1161 46.666Z" fill="#DBE8FF"/>
<path d="M44.6342 47.167C44.7374 47.167 44.8211 47.0834 44.8211 46.9802C44.8211 46.8771 44.7374 46.7935 44.6342 46.7935C44.5309 46.7935 44.4473 46.8771 44.4473 46.9802C44.4473 47.0834 44.5309 47.167 44.6342 47.167Z" fill="#CBDFFF"/>
<path d="M45.5379 47.6848C45.5379 47.7884 45.4546 47.8716 45.351 47.8716C45.2473 47.8716 45.1641 47.7884 45.1641 47.6848C45.1641 47.5813 45.2473 47.498 45.351 47.498C45.4546 47.498 45.5379 47.5813 45.5379 47.6848Z" fill="#CBDFFF"/>
<path d="M45.3314 46.4644C45.4347 46.4644 45.5183 46.3807 45.5183 46.2776C45.5183 46.1744 45.4347 46.0908 45.3314 46.0908C45.2282 46.0908 45.1445 46.1744 45.1445 46.2776C45.1445 46.3807 45.2282 46.4644 45.3314 46.4644Z" fill="#CBDFFF"/>
<path d="M45.2893 46.242L44.584 46.9468L44.656 47.0187L45.3612 46.3139L45.2893 46.242Z" fill="#CBDFFF"/>
<path d="M45.3635 47.6476L44.6582 46.9429L44.5862 47.0148L45.2915 47.7196L45.3635 47.6476Z" fill="#CBDFFF"/>
<path d="M48.0497 46.666H46.8672C46.6925 46.666 46.5508 46.8072 46.5508 46.9813C46.5508 47.1554 46.6925 47.2966 46.8672 47.2966H48.0497C48.2244 47.2966 48.3661 47.1554 48.3661 46.9813C48.3661 46.8072 48.2244 46.666 48.0497 46.666Z" fill="#DBE8FF"/>
<path d="M43.7993 36.165H39.2383V37.0156H43.7993V36.165Z" fill="#F36548"/>
<path d="M43.2949 37.0161H39.7363V39.4337H43.2949V37.0161Z" fill="#F89C7B"/>
<path d="M43.0214 36.1653C43.0214 36.1653 43.6601 34.0421 42.3918 33C42.3918 33 41.5119 34.4459 42.1259 36.1653H43.0214Z" fill="#5E9779"/>
<path d="M42.5632 36.1656C42.5632 36.1656 42.2595 34.3185 44.2695 33.5981L43.4079 36.1656H42.5632Z" fill="#4F7F65"/>
<path d="M40.0475 36.1653C40.0475 36.1653 39.4088 34.0421 40.6771 33C40.6771 33 41.557 34.4459 40.9431 36.1653H40.0475Z" fill="#5E9779"/>
<path d="M40.5071 36.1656C40.5071 36.1656 40.8108 34.3185 38.8008 33.5981L39.6624 36.1656H40.5071Z" fill="#4F7F65"/>
<path d="M40.9428 36.1652C40.9428 36.1652 40.4527 35.127 41.5164 34.1514C41.5164 34.1514 42.6817 34.9759 42.1264 36.1652H40.9428Z" fill="#4F7F65"/>
<path d="M42.101 44.1255H34.7715V45.5456H42.101V44.1255Z" fill="#CDDFFF"/>
</g>
<path d="M73.1311 57.597L71.9763 41.4351H69.6278L69.5971 44.6955C69.6332 46.8446 69.6532 49.6028 69.5383 50.4189C69.3418 51.8121 65.3519 54.6998 65.3519 54.6998V47.0343C64.5753 46.2583 63.248 46.8086 63.248 47.9052V53.5712C63.248 57.7332 64.4323 61.8084 66.6632 65.3226L77.1317 81.8158H94.7806L73.1311 57.597Z" fill="#A21B00"/>
<path d="M64.5927 48.1904H63.248V49.5341H64.5927V48.1904Z" fill="#000107"/>
<path d="M57.5762 21.667V27.15H61.7872L63.9619 29.3232V27.15V23.4618V21.667H57.5762Z" fill="#CBDFFF"/>
<path d="M63.0886 23.1978H58.4512V23.5507H63.0886V23.1978Z" fill="white"/>
<path d="M63.0886 24.3042H58.4512V24.6571H63.0886V24.3042Z" fill="white"/>
<path d="M63.0886 25.4106H58.4512V25.7636H63.0886V25.4106Z" fill="white"/>
</g>
</g>
<path d="M39.5456 98.2536H37.6863C37.6332 97.9486 37.5355 97.6785 37.3929 97.4432C37.2504 97.2045 37.0731 97.0024 36.861 96.8366C36.6489 96.6709 36.4069 96.5466 36.1351 96.4638C35.8667 96.3776 35.5766 96.3345 35.2651 96.3345C34.7116 96.3345 34.2211 96.4737 33.7935 96.7521C33.3659 97.0272 33.0312 97.4316 32.7892 97.9652C32.5473 98.4955 32.4263 99.1435 32.4263 99.9091C32.4263 100.688 32.5473 101.344 32.7892 101.878C33.0345 102.408 33.3693 102.809 33.7935 103.081C34.2211 103.349 34.7099 103.484 35.2601 103.484C35.565 103.484 35.8501 103.444 36.1152 103.364C36.3837 103.281 36.624 103.161 36.8361 103.001C37.0516 102.842 37.2322 102.647 37.378 102.415C37.5272 102.183 37.6299 101.918 37.6863 101.619L39.5456 101.629C39.476 102.113 39.3252 102.567 39.0932 102.991C38.8645 103.416 38.5646 103.79 38.1934 104.115C37.8221 104.437 37.388 104.688 36.8908 104.871C36.3936 105.05 35.8418 105.139 35.2353 105.139C34.3404 105.139 33.5416 104.932 32.839 104.518C32.1363 104.103 31.5828 103.505 31.1784 102.723C30.7741 101.941 30.5719 101.003 30.5719 99.9091C30.5719 98.812 30.7757 97.8741 31.1834 97.0952C31.5911 96.313 32.1462 95.7147 32.8489 95.3004C33.5516 94.8861 34.347 94.679 35.2353 94.679C35.802 94.679 36.329 94.7585 36.8162 94.9176C37.3034 95.0767 37.7376 95.3104 38.1188 95.6186C38.4999 95.9235 38.8132 96.2981 39.0584 96.7422C39.307 97.183 39.4694 97.6868 39.5456 98.2536ZM43.3526 105.154C42.8687 105.154 42.4329 105.068 42.0451 104.896C41.6606 104.72 41.3557 104.461 41.1303 104.12C40.9083 103.779 40.7972 103.358 40.7972 102.857C40.7972 102.426 40.8768 102.07 41.0359 101.788C41.195 101.507 41.4121 101.281 41.6871 101.112C41.9622 100.943 42.2721 100.816 42.6168 100.729C42.9648 100.64 43.3245 100.575 43.6957 100.536C44.1431 100.489 44.506 100.448 44.7844 100.411C45.0629 100.371 45.265 100.312 45.391 100.232C45.5202 100.149 45.5849 100.022 45.5849 99.8494V99.8196C45.5849 99.4451 45.4738 99.1551 45.2518 98.9496C45.0297 98.7441 44.7099 98.6413 44.2923 98.6413C43.8514 98.6413 43.5018 98.7375 43.2433 98.9297C42.988 99.1219 42.8157 99.349 42.7262 99.6108L41.0458 99.3722C41.1784 98.9081 41.3971 98.5204 41.7021 98.2088C42.007 97.8939 42.3799 97.6586 42.8207 97.5028C43.2615 97.3438 43.7487 97.2642 44.2823 97.2642C44.6502 97.2642 45.0165 97.3073 45.381 97.3935C45.7456 97.4796 46.0787 97.6222 46.3803 97.821C46.6819 98.0166 46.9239 98.2834 47.1062 98.6214C47.2918 98.9595 47.3846 99.3821 47.3846 99.8892V105H45.6545V103.951H45.5948C45.4854 104.163 45.3313 104.362 45.1325 104.548C44.9369 104.73 44.69 104.877 44.3917 104.99C44.0967 105.099 43.7504 105.154 43.3526 105.154ZM43.82 103.832C44.1812 103.832 44.4944 103.76 44.7596 103.618C45.0247 103.472 45.2286 103.28 45.3711 103.041C45.5169 102.803 45.5898 102.542 45.5898 102.261V101.361C45.5335 101.407 45.4374 101.45 45.3015 101.49C45.1689 101.53 45.0198 101.565 44.854 101.594C44.6883 101.624 44.5243 101.651 44.3619 101.674C44.1995 101.697 44.0586 101.717 43.9393 101.734C43.6708 101.77 43.4305 101.83 43.2184 101.913C43.0063 101.996 42.8389 102.112 42.7163 102.261C42.5936 102.406 42.5323 102.595 42.5323 102.827C42.5323 103.159 42.6533 103.409 42.8952 103.578C43.1372 103.747 43.4454 103.832 43.82 103.832ZM49.1942 105V97.3636H50.9393V98.6364H51.0188C51.158 98.1955 51.3967 97.8558 51.7347 97.6172C52.0761 97.3752 52.4656 97.2543 52.9031 97.2543C53.0025 97.2543 53.1135 97.2592 53.2362 97.2692C53.3621 97.2758 53.4665 97.2874 53.5494 97.304V98.9595C53.4731 98.933 53.3522 98.9098 53.1864 98.8899C53.024 98.8667 52.8666 98.8551 52.7141 98.8551C52.386 98.8551 52.091 98.9264 51.8292 99.0689C51.5707 99.2081 51.3668 99.402 51.2177 99.6506C51.0685 99.8991 50.994 100.186 50.994 100.511V105H49.1942ZM57.7615 105.149C57.0158 105.149 56.3695 104.985 55.8226 104.657C55.2757 104.329 54.8515 103.87 54.5499 103.28C54.2516 102.69 54.1025 102 54.1025 101.212C54.1025 100.423 54.2516 99.7318 54.5499 99.1385C54.8515 98.5452 55.2757 98.0845 55.8226 97.7564C56.3695 97.4283 57.0158 97.2642 57.7615 97.2642C58.5073 97.2642 59.1536 97.4283 59.7005 97.7564C60.2473 98.0845 60.6699 98.5452 60.9682 99.1385C61.2698 99.7318 61.4206 100.423 61.4206 101.212C61.4206 102 61.2698 102.69 60.9682 103.28C60.6699 103.87 60.2473 104.329 59.7005 104.657C59.1536 104.985 58.5073 105.149 57.7615 105.149ZM57.7715 103.707C58.1758 103.707 58.5139 103.596 58.7857 103.374C59.0575 103.149 59.2596 102.847 59.3922 102.469C59.5281 102.092 59.5961 101.671 59.5961 101.207C59.5961 100.739 59.5281 100.317 59.3922 99.9389C59.2596 99.5578 59.0575 99.2545 58.7857 99.0291C58.5139 98.8037 58.1758 98.6911 57.7715 98.6911C57.3572 98.6911 57.0125 98.8037 56.7374 99.0291C56.4656 99.2545 56.2618 99.5578 56.1259 99.9389C55.9933 100.317 55.927 100.739 55.927 101.207C55.927 101.671 55.9933 102.092 56.1259 102.469C56.2618 102.847 56.4656 103.149 56.7374 103.374C57.0125 103.596 57.3572 103.707 57.7715 103.707ZM67.8153 101.788V97.3636H69.6151V105H67.87V103.643H67.7905C67.6181 104.07 67.3348 104.42 66.9403 104.692C66.5492 104.964 66.067 105.099 65.4936 105.099C64.9931 105.099 64.5507 104.988 64.1662 104.766C63.785 104.541 63.4867 104.214 63.2713 103.787C63.0559 103.356 62.9482 102.836 62.9482 102.226V97.3636H64.7479V101.947C64.7479 102.431 64.8804 102.816 65.1456 103.101C65.4107 103.386 65.7588 103.528 66.1896 103.528C66.4548 103.528 66.7116 103.464 66.9602 103.335C67.2088 103.205 67.4126 103.013 67.5717 102.758C67.7341 102.499 67.8153 102.176 67.8153 101.788ZM77.5012 99.3821L75.8606 99.5611C75.8142 99.3954 75.733 99.2396 75.617 99.0938C75.5043 98.9479 75.3519 98.8303 75.1596 98.7408C74.9674 98.6513 74.7321 98.6065 74.4537 98.6065C74.0791 98.6065 73.7643 98.6877 73.5091 98.8501C73.2572 99.0125 73.1329 99.223 73.1362 99.4815C73.1329 99.7036 73.2141 99.8842 73.3798 100.023C73.5488 100.163 73.8272 100.277 74.215 100.366L75.5176 100.645C76.2401 100.801 76.777 101.048 77.1284 101.386C77.483 101.724 77.662 102.166 77.6653 102.713C77.662 103.194 77.5211 103.618 77.2427 103.986C76.9676 104.35 76.5848 104.635 76.0943 104.841C75.6038 105.046 75.0403 105.149 74.4039 105.149C73.4693 105.149 72.7169 104.954 72.1468 104.562C71.5768 104.168 71.237 103.62 71.1277 102.917L72.8826 102.748C72.9622 103.093 73.1312 103.353 73.3897 103.528C73.6483 103.704 73.9847 103.792 74.399 103.792C74.8265 103.792 75.1696 103.704 75.4281 103.528C75.6899 103.353 75.8208 103.136 75.8208 102.877C75.8208 102.658 75.7363 102.478 75.5673 102.335C75.4016 102.193 75.1431 102.083 74.7917 102.007L73.4892 101.734C72.7567 101.581 72.2148 101.324 71.8635 100.963C71.5121 100.598 71.3381 100.138 71.3414 99.581C71.3381 99.1103 71.4657 98.7027 71.7243 98.358C71.9861 98.0099 72.349 97.7415 72.813 97.5526C73.2804 97.3603 73.819 97.2642 74.4288 97.2642C75.3237 97.2642 76.028 97.4548 76.5417 97.8359C77.0588 98.2171 77.3786 98.7325 77.5012 99.3821ZM82.53 105.149C81.7644 105.149 81.1032 104.99 80.5463 104.672C79.9928 104.35 79.5669 103.896 79.2686 103.31C78.9703 102.72 78.8212 102.025 78.8212 101.227C78.8212 100.441 78.9703 99.7517 79.2686 99.1584C79.5703 98.5618 79.9912 98.0978 80.5314 97.7663C81.0717 97.4316 81.7064 97.2642 82.4355 97.2642C82.9062 97.2642 83.3503 97.3404 83.7679 97.4929C84.1889 97.642 84.5601 97.8741 84.8816 98.1889C85.2064 98.5038 85.4616 98.9048 85.6472 99.392C85.8328 99.8759 85.9256 100.453 85.9256 101.122V101.674H79.6664V100.461H84.2005C84.1971 100.116 84.1226 99.8097 83.9767 99.5412C83.8309 99.2694 83.6271 99.0556 83.3652 98.8999C83.1067 98.7441 82.8051 98.6662 82.4604 98.6662C82.0925 98.6662 81.7694 98.7557 81.4909 98.9347C81.2125 99.1103 80.9954 99.3423 80.8397 99.6307C80.6872 99.9157 80.6093 100.229 80.606 100.57V101.629C80.606 102.073 80.6872 102.455 80.8496 102.773C81.012 103.088 81.2391 103.33 81.5307 103.499C81.8224 103.664 82.1638 103.747 82.5549 103.747C82.8167 103.747 83.0537 103.711 83.2658 103.638C83.4779 103.562 83.6619 103.451 83.8176 103.305C83.9734 103.159 84.0911 102.978 84.1706 102.763L85.851 102.952C85.745 103.396 85.5428 103.784 85.2445 104.115C84.9495 104.443 84.5717 104.698 84.111 104.881C83.6503 105.06 83.1233 105.149 82.53 105.149ZM89.2479 94.8182V105H87.4482V94.8182H89.2479Z" fill="#F4F4F4"/>
<defs>
<linearGradient id="paint0_linear_2080_181649" x1="60" y1="0" x2="60" y2="120" gradientUnits="userSpaceOnUse">
<stop stop-color="#8F51F6"/>
<stop offset="1" stop-color="#762AF4"/>
</linearGradient>
<clipPath id="clip0_2080_181649">
<rect x="32" y="12" width="56" height="56" rx="1.81818" fill="white"/>
</clipPath>
</defs>
</svg>
