<svg width="120" height="120" viewBox="0 0 120 120" fill="none" xmlns="http://www.w3.org/2000/svg">
<rect width="120" height="120" rx="3.1746" fill="url(#paint0_linear_2098_126222)"/>
<g style="mix-blend-mode:luminosity">
<g clip-path="url(#clip0_2098_126222)">
<rect x="32" y="12" width="56" height="56" rx="4" fill="#78A9FF"/>
<g clip-path="url(#clip1_2098_126222)">
<path d="M45.9465 41.5155C46.1812 41.5155 46.3715 41.3255 46.3715 41.0912C46.3715 40.8569 46.1812 40.667 45.9465 40.667C45.7118 40.667 45.5215 40.8569 45.5215 41.0912C45.5215 41.3255 45.7118 41.5155 45.9465 41.5155Z" fill="#2807B1"/>
<path d="M42.9777 53.9427C43.2124 53.9427 43.4027 53.7528 43.4027 53.5185C43.4027 53.2842 43.2124 53.0942 42.9777 53.0942C42.743 53.0942 42.5527 53.2842 42.5527 53.5185C42.5527 53.7528 42.743 53.9427 42.9777 53.9427Z" fill="#2807B1"/>
<path d="M55.7308 33.3857C55.7308 33.619 55.5422 33.8099 55.3058 33.8099C55.0694 33.8099 54.8809 33.6216 54.8809 33.3857C54.8809 33.1497 55.0694 32.9614 55.3058 32.9614C55.5422 32.9614 55.7308 33.1497 55.7308 33.3857Z" fill="#2807B1"/>
<path d="M69.391 33.3808C69.391 33.6141 69.2024 33.805 68.966 33.805C68.7296 33.805 68.541 33.6168 68.541 33.3808C68.541 33.1448 68.7296 32.9565 68.966 32.9565C69.2024 32.9565 69.391 33.1448 69.391 33.3808Z" fill="#2807B1"/>
<path d="M78.4621 41.9398C78.6968 41.9398 78.8871 41.7498 78.8871 41.5155C78.8871 41.2812 78.6968 41.0913 78.4621 41.0913C78.2274 41.0913 78.0371 41.2812 78.0371 41.5155C78.0371 41.7498 78.2274 41.9398 78.4621 41.9398Z" fill="#2807B1"/>
<path d="M81.3578 54.163C81.3578 54.3963 81.1692 54.5872 80.9328 54.5872C80.6964 54.5872 80.5078 54.399 80.5078 54.163C80.5078 53.927 80.6964 53.7388 80.9328 53.7388C81.1692 53.7388 81.3578 53.927 81.3578 54.163Z" fill="#2807B1"/>
<path d="M78.6044 29.4893L72.5566 35.5264L72.7445 35.7139L78.7923 29.6767L78.6044 29.4893Z" fill="#2807B1"/>
<path d="M62.2559 19.5107H61.9902V32.4155H62.2559V19.5107Z" fill="#2807B1"/>
<path d="M44.7972 30.7319L44.6094 30.9194L50.2327 36.5328L50.4205 36.3453L44.7972 30.7319Z" fill="#2807B1"/>
<path d="M31.3099 43.5323L31.2227 43.7827L43.4334 48.0203L43.5206 47.7698L31.3099 43.5323Z" fill="#2807B1"/>
<path d="M88.2378 45.1823L80.7656 47.7812L80.853 48.0316L88.3252 45.4327L88.2378 45.1823Z" fill="#2807B1"/>
<path d="M87.1212 29.4086C81.8195 29.4086 77.5059 25.1026 77.5059 19.8103C77.5059 14.5179 81.8195 10.2119 87.1212 10.2119C92.423 10.2119 96.7366 14.5179 96.7366 19.8103C96.7366 25.1026 92.423 29.4086 87.1212 29.4086ZM87.1212 11.2725C82.4065 11.2725 78.5683 15.1012 78.5683 19.8103C78.5683 24.5193 82.4038 28.348 87.1212 28.348C91.8386 28.348 95.6741 24.5193 95.6741 19.8103C95.6741 15.1012 91.8386 11.2725 87.1212 11.2725Z" fill="#80186D"/>
<path d="M85.4368 21.6927C85.1446 21.6927 84.879 21.645 84.6426 21.5469C84.4062 21.4488 84.2203 21.2897 84.0822 21.0696C83.9441 20.8495 83.875 20.5552 83.875 20.192V18.5056C83.875 18.1397 83.9441 17.8481 84.0822 17.628C84.2203 17.4079 84.4062 17.2488 84.6426 17.1507C84.879 17.0526 85.142 17.0049 85.4368 17.0049C85.7317 17.0049 85.9946 17.0526 86.2337 17.1507C86.4727 17.2488 86.6587 17.4079 86.7968 17.628C86.9349 17.8481 87.004 18.1424 87.004 18.5056V20.192C87.004 20.5579 86.9349 20.8495 86.7968 21.0696C86.6587 21.2897 86.4701 21.4488 86.2337 21.5469C85.9946 21.645 85.729 21.6927 85.4368 21.6927ZM85.4368 20.8283C85.6148 20.8283 85.7556 20.7779 85.8565 20.6745C85.9574 20.5738 86.0106 20.412 86.0106 20.192V18.5056C86.0106 18.2855 85.9601 18.1238 85.8565 18.0231C85.7556 17.9223 85.6148 17.8693 85.4368 17.8693C85.2589 17.8693 85.1181 17.9196 85.0198 18.0231C84.9189 18.1238 84.8711 18.2855 84.8711 18.5056V20.192C84.8711 20.412 84.9215 20.5738 85.0198 20.6745C85.1207 20.7753 85.2589 20.8283 85.4368 20.8283ZM85.4421 19.6749C85.3412 19.6749 85.2615 19.6431 85.2031 19.5821C85.1447 19.5211 85.1181 19.4416 85.1181 19.3435C85.1181 19.2454 85.1473 19.1738 85.2031 19.1181C85.2615 19.0598 85.3412 19.0333 85.4421 19.0333C85.5431 19.0333 85.6175 19.0624 85.6759 19.1181C85.7343 19.1738 85.7609 19.2507 85.7609 19.3435C85.7609 19.4363 85.7317 19.5211 85.6759 19.5821C85.6201 19.6431 85.5404 19.6749 85.4421 19.6749Z" fill="#80186D"/>
<path d="M89.5402 21.6556C89.4181 21.6556 89.3038 21.6291 89.2003 21.5787C89.0967 21.5283 89.0435 21.4514 89.0435 21.3507V20.6772H87.5508C87.4578 20.6772 87.3781 20.648 87.3144 20.587C87.2506 20.5287 87.2188 20.4439 87.2188 20.3325C87.2188 20.306 87.2241 20.2768 87.232 20.2423C87.24 20.2079 87.2533 20.1734 87.2692 20.1416L88.7407 17.2594C88.7885 17.1666 88.847 17.1003 88.9214 17.0632C88.9957 17.0261 89.0728 17.0049 89.1551 17.0049C89.2135 17.0049 89.2826 17.0208 89.3596 17.05C89.4367 17.0791 89.5031 17.1242 89.5642 17.1799C89.6226 17.2382 89.6545 17.3045 89.6545 17.3814C89.6545 17.4106 89.6438 17.4503 89.6226 17.5034L88.4937 19.7624H89.0409V19.317C89.0409 19.2109 89.094 19.134 89.1976 19.0889C89.3012 19.0412 89.4154 19.02 89.5376 19.02C89.6598 19.02 89.774 19.0439 89.8776 19.0889C89.9812 19.1367 90.0343 19.2109 90.0343 19.317V19.7624H90.3079C90.4088 19.7624 90.4858 19.8102 90.5363 19.9056C90.5868 20.0011 90.6133 20.1071 90.6133 20.2211C90.6133 20.3351 90.5815 20.4412 90.5177 20.5367C90.454 20.6321 90.3849 20.6798 90.3079 20.6798H90.0343V21.3533C90.0343 21.4541 89.9812 21.531 89.8776 21.5813C89.774 21.6317 89.6598 21.6582 89.5376 21.6582L89.5402 21.6556Z" fill="#80186D"/>
<path d="M81.1516 28.2206C81.847 28.2206 82.4106 27.6579 82.4106 26.9638C82.4106 26.2697 81.847 25.707 81.1516 25.707C80.4563 25.707 79.8926 26.2697 79.8926 26.9638C79.8926 27.6579 80.4563 28.2206 81.1516 28.2206Z" fill="#800A7F"/>
<path d="M81.1516 28.3505C80.384 28.3505 79.7598 27.7274 79.7598 26.9612C79.7598 26.1949 80.384 25.5718 81.1516 25.5718C81.9192 25.5718 82.5434 26.1949 82.5434 26.9612C82.5434 27.7274 81.9192 28.3505 81.1516 28.3505ZM81.1516 25.8396C80.5327 25.8396 80.0254 26.3434 80.0254 26.9638C80.0254 27.5843 80.5301 28.088 81.1516 28.088C81.7732 28.088 82.2778 27.5843 82.2778 26.9638C82.2778 26.3434 81.7732 25.8396 81.1516 25.8396Z" fill="#2807B1"/>
<path d="M36.7658 30.9067C31.464 30.9067 27.1504 26.6007 27.1504 21.3083C27.1504 16.016 31.464 11.71 36.7658 11.71C42.0675 11.71 46.3811 16.016 46.3811 21.3083C46.3811 26.6007 42.0675 30.9067 36.7658 30.9067ZM36.7658 12.7732C32.051 12.7732 28.2129 16.6019 28.2129 21.311C28.2129 26.02 32.0484 29.8487 36.7658 29.8487C41.4831 29.8487 45.3186 26.02 45.3186 21.311C45.3186 16.6019 41.4831 12.7732 36.7658 12.7732Z" fill="#754BA0"/>
<path d="M35.1146 23.1932C34.8224 23.1932 34.5568 23.1455 34.3204 23.0474C34.084 22.9493 33.898 22.7902 33.7599 22.5701C33.6218 22.35 33.5527 22.0557 33.5527 21.6925V20.0061C33.5527 19.6402 33.6218 19.3485 33.7599 19.1285C33.898 18.9084 34.084 18.7493 34.3204 18.6512C34.5568 18.5531 34.8197 18.5054 35.1146 18.5054C35.4094 18.5054 35.6724 18.5531 35.9114 18.6512C36.1505 18.7493 36.3364 18.9084 36.4745 19.1285C36.6127 19.3485 36.6817 19.6429 36.6817 20.0061V21.6925C36.6817 22.0584 36.6127 22.35 36.4745 22.5701C36.3364 22.7902 36.1478 22.9493 35.9114 23.0474C35.6724 23.1455 35.4067 23.1932 35.1146 23.1932ZM35.1146 22.3262C35.2925 22.3262 35.4333 22.2758 35.5342 22.1724C35.6352 22.0716 35.6883 21.9099 35.6883 21.6898V20.0035C35.6883 19.7834 35.6378 19.6216 35.5342 19.5209C35.4333 19.4201 35.2925 19.3671 35.1146 19.3671C34.9366 19.3671 34.7958 19.4175 34.6975 19.5209C34.5966 19.6216 34.5488 19.7834 34.5488 20.0035V21.6898C34.5488 21.9099 34.5993 22.0716 34.6975 22.1724C34.7985 22.2731 34.9366 22.3262 35.1146 22.3262ZM35.1199 21.1754C35.0189 21.1754 34.9393 21.1436 34.8808 21.0826C34.8224 21.0216 34.7958 20.9421 34.7958 20.844C34.7958 20.7459 34.825 20.6743 34.8808 20.6186C34.9393 20.5603 35.0189 20.5338 35.1199 20.5338C35.2208 20.5338 35.2952 20.5629 35.3536 20.6186C35.4121 20.6743 35.4386 20.7512 35.4386 20.844C35.4386 20.9368 35.4094 21.0216 35.3536 21.0826C35.2978 21.1436 35.2182 21.1754 35.1199 21.1754Z" fill="#754BA0"/>
<path d="M37.5111 23.1536C37.4208 23.1536 37.3278 23.1271 37.2269 23.0714C37.1259 23.0157 37.0781 22.9415 37.0781 22.8487V22.2309C37.0781 22.0665 37.1259 21.9101 37.2216 21.7642C37.3172 21.6184 37.442 21.4805 37.5934 21.3506C37.7475 21.2207 37.9095 21.0961 38.0822 20.9715C38.2548 20.8495 38.4168 20.7275 38.5656 20.6056C38.717 20.4836 38.8418 20.3616 38.9374 20.2396C39.0357 20.1177 39.0835 19.9878 39.0835 19.8525C39.0835 19.7836 39.0676 19.7147 39.0357 19.6457C39.0039 19.5768 38.9534 19.5184 38.8817 19.4707C38.8126 19.423 38.717 19.4018 38.5975 19.4018C38.47 19.4018 38.3584 19.4389 38.2628 19.5105C38.1672 19.5821 38.1193 19.7067 38.1193 19.879C38.1193 19.9718 38.0715 20.0567 37.9786 20.1309C37.8856 20.2052 37.7581 20.2423 37.5961 20.2423C37.4686 20.2423 37.3623 20.2052 37.2773 20.1336C37.1923 20.062 37.1498 19.9268 37.1498 19.7253C37.1498 19.4654 37.2189 19.2453 37.357 19.0624C37.4951 18.8794 37.6758 18.7416 37.8962 18.6461C38.1167 18.5507 38.3478 18.5029 38.5921 18.5029C38.8365 18.5029 39.0756 18.5533 39.304 18.6567C39.5324 18.7575 39.7184 18.906 39.8618 19.1022C40.0052 19.2984 40.0796 19.537 40.0796 19.8207C40.0796 20.0487 40.0318 20.2556 39.9362 20.4385C39.8406 20.6215 39.7184 20.7859 39.5696 20.9317C39.4209 21.0775 39.2615 21.2101 39.0942 21.3294C38.9268 21.4487 38.7675 21.5574 38.6187 21.6582C38.47 21.7589 38.3478 21.8544 38.2522 21.9472C38.1565 22.04 38.1087 22.1355 38.1087 22.2336V22.2919H39.7795C39.8591 22.2919 39.9309 22.3343 39.9893 22.4192C40.0477 22.504 40.0796 22.6048 40.0796 22.7188C40.0796 22.8328 40.0504 22.9362 39.9893 23.0237C39.9309 23.1139 39.8591 23.1563 39.7795 23.1563H37.5111V23.1536Z" fill="#754BA0"/>
<path d="M62.1525 15.1941C56.8507 15.1941 52.5371 10.8881 52.5371 5.59571C52.5371 0.303354 56.8507 -4 62.1525 -4C67.4542 -4 71.7678 0.306005 71.7678 5.59836C71.7678 10.8907 67.4542 15.1967 62.1525 15.1967V15.1941ZM62.1525 -2.93941C57.4378 -2.93941 53.5996 0.889331 53.5996 5.59836C53.5996 10.3074 57.4351 14.1361 62.1525 14.1361C66.8698 14.1361 70.7054 10.3074 70.7054 5.59836C70.7054 0.889331 66.8698 -2.93941 62.1525 -2.93941Z" fill="#800072"/>
<path d="M63.1131 13.6772C63.6603 14.2234 63.6603 15.1064 63.1131 15.6499C62.566 16.1961 61.6815 16.1961 61.1369 15.6499C60.5898 15.1037 60.5898 14.2208 61.1369 13.6772C61.6841 13.131 62.5686 13.131 63.1131 13.6772Z" fill="#800A7F"/>
<path d="M62.1244 16.1936C61.7154 16.1936 61.3302 16.0345 61.0407 15.7455C60.7512 15.4565 60.5918 15.072 60.5918 14.6637C60.5918 14.2554 60.7512 13.8709 61.0407 13.5819C61.3302 13.2929 61.7154 13.1338 62.1244 13.1338C62.5335 13.1338 62.9186 13.2929 63.2081 13.5819C63.4977 13.8709 63.657 14.2554 63.657 14.6637C63.657 15.072 63.4977 15.4565 63.2081 15.7455C62.9186 16.0345 62.5335 16.1936 62.1244 16.1936ZM62.1244 13.4016C61.7871 13.4016 61.4683 13.5342 61.2293 13.7728C60.9902 14.0114 60.8574 14.3296 60.8574 14.6663C60.8574 15.0031 60.9902 15.3213 61.2293 15.5599C61.4683 15.7985 61.7871 15.9311 62.1244 15.9311C62.4617 15.9311 62.7805 15.7985 63.0195 15.5599C63.2586 15.3213 63.3914 15.0031 63.3914 14.6663C63.3914 14.3296 63.2586 14.0114 63.0195 13.7728C62.7805 13.5342 62.4617 13.4016 62.1244 13.4016Z" fill="#2807B1"/>
<path d="M41.6895 28.3296C41.6895 28.7883 42.0613 29.1622 42.5235 29.1622C42.9857 29.1622 43.3575 28.791 43.3575 28.3296C43.3575 27.8683 42.9857 27.4971 42.5235 27.4971C42.0613 27.4971 41.6895 27.8683 41.6895 28.3296Z" fill="#800A7F"/>
<path d="M42.5215 29.2921C41.9903 29.2921 41.5547 28.8599 41.5547 28.327C41.5547 27.794 41.9876 27.3618 42.5215 27.3618C43.0554 27.3618 43.4884 27.794 43.4884 28.327C43.4884 28.8599 43.0554 29.2921 42.5215 29.2921ZM42.5215 27.6296C42.1364 27.6296 41.8203 27.9425 41.8203 28.3296C41.8203 28.7167 42.1337 29.0296 42.5215 29.0296C42.9093 29.0296 43.2228 28.7167 43.2228 28.3296C43.2228 27.9425 42.9093 27.6296 42.5215 27.6296Z" fill="#2807B1"/>
<path d="M62.1346 36.1938C61.8876 36.1938 61.6379 36.1992 61.3856 36.2124C53.5605 36.5889 47.2441 42.979 46.9705 50.7956C46.8642 53.8262 47.6505 56.6659 49.0848 59.0735C49.2946 59.4288 55.1568 67.9612 55.3613 74.0464C55.3799 74.6138 55.8474 75.0672 56.4158 75.0672H67.848C68.4191 75.0672 68.884 74.6165 68.9025 74.0464C69.1097 67.9612 74.9693 59.4288 75.1791 59.0735C76.6134 56.6633 77.3997 53.8262 77.2934 50.7956C77.0198 42.9816 70.7034 36.5889 62.8783 36.2124C62.6286 36.1992 62.379 36.1938 62.1293 36.1938H62.1346Z" fill="#303980"/>
<path d="M60.4499 63.2917C59.762 63.2917 59.1829 62.7853 58.7526 62.2311C58.3223 62.7853 57.7433 63.2917 57.0553 63.2917C55.5678 63.2891 54.5824 60.924 54.5426 60.8232C54.516 60.7543 54.5479 60.6774 54.6143 60.6509C54.6807 60.6243 54.7604 60.6562 54.7869 60.7225C54.7976 60.7463 55.7458 63.0239 57.0553 63.0266C57.6636 63.0266 58.1921 62.5334 58.5879 62.0058C58.1895 61.4304 57.9558 60.8709 57.9345 60.8232C57.5626 59.9403 57.7167 59.1607 57.985 58.7232C58.1789 58.4104 58.4471 58.2248 58.7446 58.2062V58.2301V58.2035L58.7499 58.2751L58.7553 58.2035C59.0528 58.2248 59.321 58.4077 59.5149 58.7206C59.7832 59.1554 59.9373 59.9376 59.5654 60.8206C59.5468 60.8683 59.3131 61.4277 58.9146 62.0005C59.3104 62.5281 59.839 63.0213 60.4472 63.0213C61.0529 63.0213 61.5814 62.5308 61.9745 62.0058C61.5708 61.4277 61.3371 60.863 61.3158 60.8153C60.944 59.9323 61.098 59.1528 61.3663 58.7153C61.5602 58.4024 61.8285 58.2168 62.126 58.1982C62.4447 58.2168 62.7156 58.4024 62.9095 58.7153C63.1778 59.1501 63.3319 59.9323 62.96 60.8153L62.9494 60.8365C62.9016 60.9505 62.6731 61.4702 62.3013 62.0031C62.6944 62.5281 63.223 63.016 63.8286 63.0186C64.4342 63.0186 64.9628 62.5281 65.3559 62.0031C64.9548 61.4277 64.721 60.863 64.6998 60.8153C64.3279 59.9323 64.482 59.1501 64.7503 58.7153C64.9442 58.4024 65.2124 58.2195 65.5099 58.1982C65.826 58.2195 66.0969 58.4024 66.2908 58.7153C66.5591 59.1501 66.7132 59.9323 66.3413 60.8153C66.3227 60.863 66.0863 61.4251 65.6879 62.0005C66.081 62.5281 66.6096 63.016 67.2152 63.016C68.5247 63.0133 69.4729 60.7357 69.4836 60.7118C69.5101 60.6429 69.5898 60.6111 69.6562 60.6403C69.7253 60.6668 69.7572 60.7463 69.7279 60.8126C69.6854 60.9134 68.7 63.2785 67.2152 63.2811C66.5299 63.2811 65.9508 62.7747 65.5205 62.2232C65.0929 62.7747 64.5139 63.2785 63.8286 63.2811C63.1433 63.2811 62.5669 62.7773 62.1366 62.2258C61.7089 62.7773 61.1299 63.2811 60.4446 63.2838L60.4499 63.2917ZM62.1445 58.4687C61.9294 58.4926 61.7408 58.6304 61.5974 58.8611C61.3636 59.2403 61.2308 59.9297 61.5655 60.7198C61.5708 60.7304 61.7833 61.2395 62.1419 61.7777C62.5005 61.2421 62.713 60.7331 62.7156 60.7225L62.7262 60.7012C63.0503 59.9191 62.9201 59.2376 62.6864 58.8611C62.5403 58.6251 62.3491 58.4873 62.1419 58.4687H62.1445ZM65.5179 58.4687C65.3266 58.482 65.1301 58.6225 64.984 58.8611C64.7503 59.2403 64.6174 59.9297 64.9521 60.7198C64.9574 60.7304 65.1673 61.2395 65.5285 61.7751C65.8871 61.2395 66.0969 60.7331 66.1023 60.7198C66.4369 59.927 66.3041 59.2403 66.0704 58.8611C65.9243 58.6225 65.7277 58.482 65.5179 58.4687ZM58.7526 58.4713C58.5481 58.4899 58.3568 58.6278 58.2134 58.8638C57.9797 59.2429 57.8468 59.9323 58.1815 60.7225C58.1868 60.7331 58.3967 61.2395 58.7526 61.7724C59.1085 61.2395 59.3184 60.7331 59.3237 60.7225C59.6584 59.9297 59.5256 59.2429 59.2918 58.8638C59.1484 58.6304 58.9571 58.4899 58.7526 58.4713Z" fill="white"/>
<path d="M59.7529 74.9927C59.6998 74.9927 59.6466 74.9582 59.628 74.9052L54.5388 60.8179C54.5149 60.7489 54.5494 60.672 54.6185 60.6482C54.6875 60.6243 54.7646 60.6588 54.7885 60.7277L59.8804 74.815C59.9043 74.884 59.8698 74.9609 59.8007 74.9847C59.7848 74.99 59.7715 74.9927 59.7555 74.9927H59.7529Z" fill="white"/>
<path d="M64.5172 74.9927C64.5012 74.9927 64.4879 74.9927 64.472 74.9847C64.4029 74.9609 64.3684 74.884 64.3923 74.815L69.4842 60.7277C69.5081 60.6588 69.5852 60.6243 69.6542 60.6482C69.7233 60.672 69.7578 60.7489 69.7339 60.8179L64.642 74.9052C64.6234 74.9582 64.5703 74.9927 64.5172 74.9927Z" fill="white"/>
</g>
</g>
</g>
<path d="M24.2735 94.8182V105H22.4291V94.8182H24.2735ZM27.991 100.526V105H26.1913V97.3636H27.9115V98.6612H28.001C28.1766 98.2337 28.4567 97.8939 28.8412 97.642C29.229 97.3902 29.7079 97.2642 30.278 97.2642C30.805 97.2642 31.264 97.3769 31.6551 97.6023C32.0495 97.8277 32.3544 98.1541 32.5699 98.5817C32.7886 99.0092 32.8963 99.5279 32.893 100.138V105H31.0933V100.416C31.0933 99.9058 30.9607 99.5064 30.6956 99.218C30.4337 98.9297 30.0708 98.7855 29.6068 98.7855C29.2919 98.7855 29.0119 98.8551 28.7666 98.9943C28.5247 99.1302 28.3341 99.3274 28.1949 99.5859C28.059 99.8445 27.991 100.158 27.991 100.526ZM38.5905 97.3636V98.7557H34.0763V97.3636H38.5905ZM35.2048 105V96.6428C35.2048 96.129 35.3109 95.7015 35.523 95.3601C35.7384 95.0187 36.0268 94.7635 36.3881 94.5945C36.7493 94.4254 37.1504 94.3409 37.5912 94.3409C37.9027 94.3409 38.1795 94.3658 38.4214 94.4155C38.6634 94.4652 38.8424 94.5099 38.9584 94.5497L38.6004 95.9418C38.5242 95.9186 38.4281 95.8954 38.3121 95.8722C38.1961 95.8456 38.0668 95.8324 37.9243 95.8324C37.5895 95.8324 37.3525 95.9136 37.2133 96.076C37.0774 96.2351 37.0095 96.4638 37.0095 96.7621V105H35.2048ZM43.0438 105.149C42.298 105.149 41.6517 104.985 41.1048 104.657C40.558 104.329 40.1337 103.87 39.8321 103.28C39.5338 102.69 39.3847 102 39.3847 101.212C39.3847 100.423 39.5338 99.7318 39.8321 99.1385C40.1337 98.5452 40.558 98.0845 41.1048 97.7564C41.6517 97.4283 42.298 97.2642 43.0438 97.2642C43.7895 97.2642 44.4358 97.4283 44.9827 97.7564C45.5296 98.0845 45.9521 98.5452 46.2504 99.1385C46.5521 99.7318 46.7029 100.423 46.7029 101.212C46.7029 102 46.5521 102.69 46.2504 103.28C45.9521 103.87 45.5296 104.329 44.9827 104.657C44.4358 104.985 43.7895 105.149 43.0438 105.149ZM43.0537 103.707C43.4581 103.707 43.7961 103.596 44.0679 103.374C44.3397 103.149 44.5419 102.847 44.6744 102.469C44.8103 102.092 44.8783 101.671 44.8783 101.207C44.8783 100.739 44.8103 100.317 44.6744 99.9389C44.5419 99.5578 44.3397 99.2545 44.0679 99.0291C43.7961 98.8037 43.4581 98.6911 43.0537 98.6911C42.6394 98.6911 42.2947 98.8037 42.0196 99.0291C41.7478 99.2545 41.544 99.5578 41.4081 99.9389C41.2755 100.317 41.2093 100.739 41.2093 101.207C41.2093 101.671 41.2755 102.092 41.4081 102.469C41.544 102.847 41.7478 103.149 42.0196 103.374C42.2947 103.596 42.6394 103.707 43.0537 103.707ZM51.5514 108.023C50.9051 108.023 50.3499 107.935 49.8859 107.759C49.4219 107.587 49.049 107.355 48.7673 107.063C48.4856 106.772 48.29 106.448 48.1807 106.094L49.8014 105.701C49.8743 105.85 49.9804 105.998 50.1196 106.143C50.2588 106.293 50.4461 106.415 50.6814 106.511C50.92 106.611 51.22 106.661 51.5812 106.661C52.0916 106.661 52.5142 106.536 52.849 106.288C53.1837 106.042 53.3511 105.638 53.3511 105.075V103.628H53.2616C53.1688 103.813 53.0329 104.004 52.854 104.2C52.6783 104.395 52.4446 104.559 52.153 104.692C51.8646 104.824 51.5017 104.891 51.0642 104.891C50.4775 104.891 49.9456 104.753 49.4683 104.478C48.9943 104.2 48.6165 103.785 48.3348 103.235C48.0564 102.682 47.9172 101.989 47.9172 101.157C47.9172 100.318 48.0564 99.6108 48.3348 99.0341C48.6165 98.4541 48.996 98.0149 49.4733 97.7166C49.9506 97.415 50.4825 97.2642 51.0692 97.2642C51.5166 97.2642 51.8845 97.3404 52.1729 97.4929C52.4645 97.642 52.6965 97.8227 52.8689 98.0348C53.0412 98.2436 53.1721 98.4408 53.2616 98.6264H53.3611V97.3636H55.1359V105.124C55.1359 105.777 54.9801 106.317 54.6686 106.745C54.357 107.173 53.9311 107.492 53.3909 107.705C52.8506 107.917 52.2375 108.023 51.5514 108.023ZM51.5663 103.479C51.9475 103.479 52.2723 103.386 52.5407 103.2C52.8092 103.015 53.0131 102.748 53.1523 102.4C53.2915 102.052 53.3611 101.634 53.3611 101.147C53.3611 100.666 53.2915 100.246 53.1523 99.8842C53.0164 99.523 52.8142 99.2429 52.5457 99.044C52.2806 98.8419 51.9541 98.7408 51.5663 98.7408C51.1653 98.7408 50.8305 98.8452 50.5621 99.054C50.2936 99.2628 50.0914 99.5495 49.9555 99.9141C49.8196 100.275 49.7517 100.686 49.7517 101.147C49.7517 101.614 49.8196 102.024 49.9555 102.375C50.0947 102.723 50.2986 102.995 50.567 103.19C50.8388 103.383 51.1719 103.479 51.5663 103.479ZM56.9804 105V97.3636H58.7254V98.6364H58.805C58.9442 98.1955 59.1828 97.8558 59.5209 97.6172C59.8622 97.3752 60.2517 97.2543 60.6892 97.2543C60.7886 97.2543 60.8997 97.2592 61.0223 97.2692C61.1482 97.2758 61.2526 97.2874 61.3355 97.304V98.9595C61.2593 98.933 61.1383 98.9098 60.9726 98.8899C60.8102 98.8667 60.6527 98.8551 60.5003 98.8551C60.1721 98.8551 59.8772 98.9264 59.6153 99.0689C59.3568 99.2081 59.153 99.402 59.0038 99.6506C58.8547 99.8991 58.7801 100.186 58.7801 100.511V105H56.9804ZM64.5919 105.154C64.108 105.154 63.6721 105.068 63.2844 104.896C62.8999 104.72 62.595 104.461 62.3696 104.12C62.1475 103.779 62.0365 103.358 62.0365 102.857C62.0365 102.426 62.116 102.07 62.2751 101.788C62.4342 101.507 62.6513 101.281 62.9264 101.112C63.2015 100.943 63.5114 100.816 63.8561 100.729C64.2041 100.64 64.5637 100.575 64.9349 100.536C65.3824 100.489 65.7453 100.448 66.0237 100.411C66.3021 100.371 66.5043 100.312 66.6302 100.232C66.7595 100.149 66.8241 100.022 66.8241 99.8494V99.8196C66.8241 99.4451 66.7131 99.1551 66.491 98.9496C66.269 98.7441 65.9491 98.6413 65.5315 98.6413C65.0907 98.6413 64.741 98.7375 64.4825 98.9297C64.2273 99.1219 64.055 99.349 63.9655 99.6108L62.2851 99.3722C62.4176 98.9081 62.6364 98.5204 62.9413 98.2088C63.2462 97.8939 63.6191 97.6586 64.0599 97.5028C64.5007 97.3438 64.988 97.2642 65.5216 97.2642C65.8895 97.2642 66.2557 97.3073 66.6203 97.3935C66.9849 97.4796 67.318 97.6222 67.6196 97.821C67.9212 98.0166 68.1631 98.2834 68.3454 98.6214C68.531 98.9595 68.6238 99.3821 68.6238 99.8892V105H66.8937V103.951H66.8341C66.7247 104.163 66.5706 104.362 66.3717 104.548C66.1762 104.73 65.9292 104.877 65.6309 104.99C65.336 105.099 64.9896 105.154 64.5919 105.154ZM65.0592 103.832C65.4205 103.832 65.7337 103.76 65.9988 103.618C66.264 103.472 66.4678 103.28 66.6104 103.041C66.7562 102.803 66.8291 102.542 66.8291 102.261V101.361C66.7728 101.407 66.6766 101.45 66.5407 101.49C66.4082 101.53 66.259 101.565 66.0933 101.594C65.9276 101.624 65.7635 101.651 65.6011 101.674C65.4387 101.697 65.2979 101.717 65.1785 101.734C64.9101 101.77 64.6698 101.83 64.4577 101.913C64.2455 101.996 64.0782 102.112 63.9555 102.261C63.8329 102.406 63.7716 102.595 63.7716 102.827C63.7716 103.159 63.8925 103.409 64.1345 103.578C64.3765 103.747 64.6847 103.832 65.0592 103.832ZM70.4335 107.864V97.3636H72.2034V98.6264H72.3078C72.4006 98.4408 72.5315 98.2436 72.7006 98.0348C72.8696 97.8227 73.0983 97.642 73.3866 97.4929C73.675 97.3404 74.0429 97.2642 74.4903 97.2642C75.0803 97.2642 75.6122 97.415 76.0862 97.7166C76.5635 98.0149 76.9413 98.4574 77.2197 99.044C77.5015 99.6274 77.6423 100.343 77.6423 101.192C77.6423 102.03 77.5048 102.743 77.2297 103.33C76.9546 103.916 76.58 104.364 76.1061 104.672C75.6321 104.98 75.0952 105.134 74.4953 105.134C74.0578 105.134 73.6949 105.061 73.4065 104.915C73.1182 104.77 72.8862 104.594 72.7105 104.388C72.5381 104.18 72.4039 103.982 72.3078 103.797H72.2332V107.864H70.4335ZM72.1984 101.182C72.1984 101.676 72.268 102.108 72.4072 102.479C72.5497 102.851 72.7536 103.141 73.0187 103.349C73.2872 103.555 73.612 103.658 73.9932 103.658C74.3909 103.658 74.724 103.552 74.9925 103.339C75.2609 103.124 75.4631 102.831 75.599 102.46C75.7382 102.085 75.8078 101.659 75.8078 101.182C75.8078 100.708 75.7398 100.287 75.604 99.919C75.4681 99.5511 75.2659 99.2628 74.9974 99.054C74.729 98.8452 74.3942 98.7408 73.9932 98.7408C73.6087 98.7408 73.2822 98.8419 73.0138 99.044C72.7453 99.2462 72.5415 99.5296 72.4023 99.8942C72.2664 100.259 72.1984 100.688 72.1984 101.182ZM80.9832 100.526V105H79.1835V94.8182H80.9434V98.6612H81.0329C81.2119 98.2304 81.4887 97.8906 81.8632 97.642C82.241 97.3902 82.7216 97.2642 83.305 97.2642C83.8353 97.2642 84.2976 97.3752 84.692 97.5973C85.0864 97.8194 85.3914 98.1442 85.6068 98.5717C85.8256 98.9993 85.9349 99.5213 85.9349 100.138V105H84.1352V100.416C84.1352 99.9025 84.0026 99.5031 83.7375 99.218C83.4756 98.9297 83.1077 98.7855 82.6338 98.7855C82.3156 98.7855 82.0306 98.8551 81.7787 98.9943C81.5301 99.1302 81.3345 99.3274 81.192 99.5859C81.0528 99.8445 80.9832 100.158 80.9832 100.526ZM87.7694 105V97.3636H89.5692V105H87.7694ZM88.6743 96.2798C88.3892 96.2798 88.144 96.1854 87.9385 95.9964C87.733 95.8042 87.6302 95.5739 87.6302 95.3054C87.6302 95.0336 87.733 94.8033 87.9385 94.6143C88.144 94.4221 88.3892 94.326 88.6743 94.326C88.9626 94.326 89.2079 94.4221 89.4101 94.6143C89.6156 94.8033 89.7183 95.0336 89.7183 95.3054C89.7183 95.5739 89.6156 95.8042 89.4101 95.9964C89.2079 96.1854 88.9626 96.2798 88.6743 96.2798ZM94.7508 105.149C93.9885 105.149 93.3339 104.982 92.787 104.647C92.2435 104.312 91.8242 103.85 91.5292 103.26C91.2375 102.667 91.0917 101.984 91.0917 101.212C91.0917 100.436 91.2409 99.7517 91.5392 99.1584C91.8374 98.5618 92.2584 98.0978 92.8019 97.7663C93.3488 97.4316 93.9951 97.2642 94.7409 97.2642C95.3606 97.2642 95.9092 97.3786 96.3865 97.6072C96.867 97.8326 97.2499 98.1525 97.5349 98.5668C97.8199 98.9777 97.9823 99.4583 98.0221 100.009H96.3019C96.2323 99.6406 96.0666 99.334 95.8048 99.0888C95.5463 98.8402 95.1999 98.7159 94.7657 98.7159C94.3978 98.7159 94.0747 98.8153 93.7963 99.0142C93.5178 99.2098 93.3008 99.4915 93.145 99.8594C92.9925 100.227 92.9163 100.668 92.9163 101.182C92.9163 101.702 92.9925 102.15 93.145 102.524C93.2974 102.895 93.5112 103.182 93.7863 103.384C94.0647 103.583 94.3912 103.683 94.7657 103.683C95.0309 103.683 95.2678 103.633 95.4767 103.533C95.6888 103.431 95.8661 103.283 96.0086 103.091C96.1511 102.899 96.2489 102.665 96.3019 102.39H98.0221C97.979 102.93 97.8199 103.409 97.5448 103.827C97.2697 104.241 96.8952 104.566 96.4213 104.801C95.9473 105.033 95.3905 105.149 94.7508 105.149Z" fill="#F4F4F4"/>
<defs>
<linearGradient id="paint0_linear_2098_126222" x1="60" y1="0" x2="60" y2="120" gradientUnits="userSpaceOnUse">
<stop stop-color="#4589FF"/>
<stop offset="1" stop-color="#0F62FE"/>
</linearGradient>
<clipPath id="clip0_2098_126222">
<rect x="32" y="12" width="56" height="56" rx="4" fill="white"/>
</clipPath>
<clipPath id="clip1_2098_126222">
<rect width="100.701" height="88" fill="white" transform="translate(9 -4)"/>
</clipPath>
</defs>
</svg>
