<svg width="25" height="24" viewBox="0 0 25 24" fill="none" xmlns="http://www.w3.org/2000/svg">
<path fill-rule="evenodd" clip-rule="evenodd" d="M6.33203 4H18.332C19.4366 4 20.332 4.89543 20.332 6V18C20.332 19.1046 19.4366 20 18.332 20H6.33203C5.22746 20 4.33203 19.1046 4.33203 18V6C4.33203 4.89543 5.22746 4 6.33203 4ZM10.999 8.667C10.999 9.77157 10.1036 10.667 8.99902 10.667C7.89445 10.667 6.99902 9.77157 6.99902 8.667C6.99902 7.56243 7.89445 6.667 8.99902 6.667C10.1036 6.667 10.999 7.56243 10.999 8.667ZM6.99902 17.333L9.66502 14.667L10.9984 15.9999L14.999 12L17.665 14.933V17.333H6.99902Z" fill="#172B4D"/>
</svg>
