<svg width="25" height="24" viewBox="0 0 25 24" fill="none" xmlns="http://www.w3.org/2000/svg">
<path d="M7.7586 12.1766L12.1944 16.6123L16.6291 12.1776L12.1944 7.74185L7.7586 12.1776V12.1766ZM6.28036 13.6559C6.08565 13.4621 5.93115 13.2317 5.82572 12.978C5.72029 12.7243 5.66602 12.4523 5.66602 12.1776C5.66602 11.9029 5.72029 11.6309 5.82572 11.3772C5.93115 11.1235 6.08565 10.8932 6.28036 10.6994L10.7161 6.26361C10.9099 6.0689 11.1403 5.91439 11.394 5.80896C11.6476 5.70354 11.9196 5.64926 12.1944 5.64926C12.4691 5.64926 12.7411 5.70354 12.9948 5.80896C13.2485 5.91439 13.4788 6.0689 13.6726 6.26361L18.1084 10.6994C18.9238 11.5148 18.9301 12.8331 18.1084 13.6559L13.6726 18.0916C13.4787 18.2862 13.2484 18.4406 12.9947 18.5459C12.741 18.6513 12.469 18.7055 12.1944 18.7055C11.9197 18.7055 11.6477 18.6513 11.394 18.5459C11.1404 18.4406 10.91 18.2862 10.7161 18.0916L6.28036 13.6559ZM6.38073 12.6366H17.8805L12.1933 18.0916L6.38073 12.6366ZM9.23684 3.30609C9.43289 3.1101 9.69875 3 9.97596 3C10.2532 3 10.519 3.1101 10.7151 3.30609L14.4117 7.00273L12.9335 8.48097L9.23684 4.78537C9.13964 4.68828 9.06253 4.57298 9.00992 4.44607C8.95731 4.31915 8.93023 4.18312 8.93023 4.04573C8.93023 3.90834 8.95731 3.77231 9.00992 3.64539C9.06253 3.51848 9.13964 3.40318 9.23684 3.30609ZM18.4032 15.7728C18.4032 15.7728 19.9713 17.8637 19.9713 19.4319C19.9713 20.4773 18.9259 21 18.4032 21C17.8805 21 16.835 20.5818 16.835 19.4319C16.835 17.8637 18.4032 15.7728 18.4032 15.7728Z" fill="#172B4D"/>
</svg>
