<svg width="57" height="57" viewBox="0 0 57 57" fill="none" xmlns="http://www.w3.org/2000/svg">
<g clip-path="url(#clip0_2570_209324)">
<rect width="56" height="56" transform="translate(0.640625 0.138184)" fill="#F7F8F9"/>
<path d="M0.632812 19.5483L9.9632 22.164L19.2925 19.5483L28.6229 22.164L37.9533 19.5483L47.2836 22.164L56.6151 19.5483" stroke="#172B4D" stroke-width="0.056" stroke-miterlimit="10"/>
<path d="M0.675781 36.689L10.0062 39.3047L19.3355 36.689L28.6658 39.3047L37.9962 36.689L47.3266 39.3047L56.6581 36.689" stroke="#172B4D" stroke-width="0.056" stroke-miterlimit="10"/>
<path d="M0.640625 9.85986L9.97101 12.4756L19.3003 9.85986L28.6307 12.4756L37.9611 9.85986L47.2915 12.4756L56.6229 9.85986" stroke="#172B4D" stroke-width="0.056" stroke-miterlimit="10"/>
<path d="M0.621094 29.269L9.95148 31.8847L19.2808 29.269L28.6112 31.8847L37.9415 29.269L47.2719 31.8847L56.6034 29.269" stroke="#172B4D" stroke-width="0.056" stroke-miterlimit="10"/>
<path d="M0.664062 46.4106L9.99445 49.0263L19.3237 46.4106L28.6541 49.0263L37.9845 46.4106L47.3149 49.0263L56.6464 46.4106" stroke="#172B4D" stroke-width="0.056" stroke-miterlimit="10"/>
<path d="M0.660156 4.99951L9.99054 7.61521L19.3198 4.99951L28.6502 7.61521L37.9806 4.99951L47.311 7.61521L56.6425 4.99951" stroke="#172B4D" stroke-width="0.056" stroke-miterlimit="10"/>
<path d="M0.636719 24.4087L9.96711 27.0244L19.2964 24.4087L28.6268 27.0244L37.9572 24.4087L47.2876 27.0244L56.619 24.4087" stroke="#172B4D" stroke-width="0.056" stroke-miterlimit="10"/>
<path d="M0.679688 41.5503L10.0101 44.166L19.3394 41.5503L28.6698 44.166L38.0001 41.5503L47.3305 44.166L56.662 41.5503" stroke="#172B4D" stroke-width="0.056" stroke-miterlimit="10"/>
<path d="M0.648438 14.7212L9.97882 17.3369L19.3081 14.7212L28.6385 17.3369L37.9689 14.7212L47.2993 17.3369L56.6308 14.7212" stroke="#172B4D" stroke-width="0.056" stroke-miterlimit="10"/>
<path d="M0.625 34.1304L9.95539 36.7461L19.2847 34.1304L28.6151 36.7461L37.9454 34.1304L47.2758 36.7461L56.6073 34.1304" stroke="#172B4D" stroke-width="0.056" stroke-miterlimit="10"/>
<path d="M0.671875 51.272L10.0023 53.8877L19.3316 51.272L28.6619 53.8877L37.9923 51.272L47.3227 53.8877L56.6542 51.272" stroke="#172B4D" stroke-width="0.056" stroke-miterlimit="10"/>
<path d="M0.648438 2.3833L9.97882 4.999L19.3081 2.3833L28.6385 4.999L37.9689 2.3833L47.2993 4.999L56.6308 2.3833" stroke="#172B4D" stroke-width="0.056" stroke-miterlimit="10"/>
<path d="M0.625 21.7925L9.95539 24.4082L19.2847 21.7925L28.6151 24.4082L37.9455 21.7925L47.2758 24.4082L56.6073 21.7925" stroke="#172B4D" stroke-width="0.056" stroke-miterlimit="10"/>
<path d="M0.671875 38.9351L10.0023 41.5508L19.3316 38.9351L28.6619 41.5508L37.9923 38.9351L47.3227 41.5508L56.6542 38.9351" stroke="#172B4D" stroke-width="0.056" stroke-miterlimit="10"/>
<path d="M0.632812 12.105L9.9632 14.7207L19.2925 12.105L28.6229 14.7207L37.9533 12.105L47.2837 14.7207L56.6151 12.105" stroke="#172B4D" stroke-width="0.056" stroke-miterlimit="10"/>
<path d="M0.613281 31.5142L9.94367 34.1299L19.273 31.5142L28.6033 34.1299L37.9337 31.5142L47.2641 34.1299L56.5956 31.5142" stroke="#172B4D" stroke-width="0.056" stroke-miterlimit="10"/>
<path d="M0.65625 48.6558L9.98664 51.2715L19.3159 48.6558L28.6463 51.2715L37.9767 48.6558L47.3071 51.2715L56.6386 48.6558" stroke="#172B4D" stroke-width="0.056" stroke-miterlimit="10"/>
<path d="M0.652344 7.24365L9.98273 9.85935L19.312 7.24365L28.6424 9.85935L37.9728 7.24365L47.3032 9.85935L56.6347 7.24365" stroke="#172B4D" stroke-width="0.056" stroke-miterlimit="10"/>
<path d="M0.632812 26.6538L9.9632 29.2695L19.2925 26.6538L28.6229 29.2695L37.9533 26.6538L47.2837 29.2695L56.6151 26.6538" stroke="#172B4D" stroke-width="0.056" stroke-miterlimit="10"/>
<path d="M0.675781 43.7954L10.0062 46.4111L19.3355 43.7954L28.6658 46.4111L37.9962 43.7954L47.3266 46.4111L56.6581 43.7954" stroke="#172B4D" stroke-width="0.056" stroke-miterlimit="10"/>
<path d="M0.640625 16.9653L9.97101 19.581L19.3003 16.9653L28.6307 19.581L37.9611 16.9653L47.2915 19.581L56.6229 16.9653" stroke="#172B4D" stroke-width="0.056" stroke-miterlimit="10"/>
<path d="M0.664062 53.5171L9.99445 56.1328L19.3237 53.5171L28.6541 56.1328L37.9845 53.5171L47.3149 56.1328L56.6464 53.5171" stroke="#172B4D" stroke-width="0.056" stroke-miterlimit="10"/>
<path d="M0.652344 0.138184L9.98273 2.75388L19.312 0.138184L28.6424 2.75388L37.9728 0.138184L47.3032 2.75388L56.6347 0.138184" stroke="#172B4D" stroke-width="0.056" stroke-miterlimit="10"/>
</g>
<defs>
<clipPath id="clip0_2570_209324">
<rect width="56" height="56" fill="white" transform="translate(0.640625 0.138184)"/>
</clipPath>
</defs>
</svg>
