<svg width="57" height="57" viewBox="0 0 57 57" fill="none" xmlns="http://www.w3.org/2000/svg">
<g clip-path="url(#clip0_2570_209321)">
<rect width="56" height="56" transform="translate(0.640625 0.138184)" fill="#F7F8F9"/>
<path d="M24.7062 0.138184L56.6415 32.0734V32.2053L24.5742 0.138184H24.7062Z" fill="#172B4D"/>
<path d="M27.3702 0.138184L56.639 29.4069V29.5388L27.2383 0.138184H27.3702Z" fill="#172B4D"/>
<path d="M30.0382 0.138184L56.6404 26.7404V26.8723L29.9062 0.138184H30.0382Z" fill="#172B4D"/>
<path d="M32.7023 0.138184L56.638 24.0738V24.2057L32.5703 0.138184H32.7023Z" fill="#172B4D"/>
<path d="M35.3703 0.138184L56.6394 21.4073V21.5392L35.2383 0.138184H35.3703Z" fill="#172B4D"/>
<path d="M38.0382 0.138184L56.6408 18.7408V18.8727L37.9062 0.138184H38.0382Z" fill="#172B4D"/>
<path d="M40.7023 0.138184L56.6384 16.0742V16.2062L40.5703 0.138184H40.7023Z" fill="#172B4D"/>
<path d="M43.3702 0.138184L56.6397 13.4077V13.5396L43.2383 0.138184H43.3702Z" fill="#172B4D"/>
<path d="M46.0382 0.138184L56.6412 10.7412V10.8731L45.9062 0.138184H46.0382Z" fill="#172B4D"/>
<path d="M48.7023 0.138184L56.6388 8.07457V8.20663L48.5703 0.138184H48.7023Z" fill="#172B4D"/>
<path d="M51.3703 0.138184L56.6402 5.40807V5.54003L51.2383 0.138184H51.3703Z" fill="#172B4D"/>
<path d="M54.0382 0.138184L56.6416 2.74157V2.87353L53.9062 0.138184H54.0382Z" fill="#172B4D"/>
<path d="M56.6392 0.138184V0.207032L56.5703 0.138184H56.6392Z" fill="#172B4D"/>
<path d="M22.0382 0.138184L56.64 34.74V34.8719L21.9062 0.138184H22.0382Z" fill="#172B4D"/>
<path d="M19.3742 0.138184L56.6425 37.4065V37.5384L19.2422 0.138184H19.3742Z" fill="#172B4D"/>
<path d="M16.7063 0.138184L56.6411 40.073V40.2049L16.5742 0.138184H16.7063Z" fill="#172B4D"/>
<path d="M14.0382 0.138184L56.6396 42.7395V42.8715L13.9062 0.138184H14.0382Z" fill="#172B4D"/>
<path d="M11.3741 0.138184L56.6421 45.4061V45.538L11.2422 0.138184H11.3741Z" fill="#172B4D"/>
<path d="M8.70618 0.138184L56.6406 48.0726V48.2045L8.57422 0.138184H8.70618Z" fill="#172B4D"/>
<path d="M6.03821 0.138184L56.6392 50.7391V50.871L5.90625 0.138184H6.03821Z" fill="#172B4D"/>
<path d="M3.37415 0.138184L56.6416 53.4057V53.5376L3.24219 0.138184H3.37415Z" fill="#172B4D"/>
<path d="M56.6406 56.1382H56.5746L0.640625 0.204212V0.138184H0.706653L56.6406 56.0722V56.1382Z" fill="#172B4D"/>
<path d="M53.9081 56.1382L0.640625 2.87073V2.73877L54.0401 56.1382H53.9081Z" fill="#172B4D"/>
<path d="M51.2416 56.1387L0.640625 5.53772V5.40576L51.3736 56.1387H51.2416Z" fill="#172B4D"/>
<path d="M48.575 56.1382L0.640625 8.20374V8.07178L48.707 56.1382H48.575Z" fill="#172B4D"/>
<path d="M45.9085 56.1376L0.640625 10.8698V10.7378L46.0405 56.1376H45.9085Z" fill="#172B4D"/>
<path d="M43.2419 56.1381L0.640625 13.5367V13.4048L43.374 56.1381H43.2419Z" fill="#172B4D"/>
<path d="M40.5754 56.1376L0.640625 16.2029V16.0708L40.7074 56.1376H40.5754Z" fill="#172B4D"/>
<path d="M37.9089 56.138L0.640625 18.8698V18.7378L38.0409 56.138H37.9089Z" fill="#172B4D"/>
<path d="M35.2424 56.1385L0.640625 21.5367V21.4048L35.3744 56.1385H35.2424Z" fill="#172B4D"/>
<path d="M32.5758 56.138L0.640625 24.2028V24.0708L32.7079 56.138H32.5758Z" fill="#172B4D"/>
<path d="M29.9093 56.1385L0.640625 26.8698V26.7378L30.0413 56.1385H29.9093Z" fill="#172B4D"/>
<path d="M27.2428 56.138L0.640625 29.5358V29.4038L27.3748 56.138H27.2428Z" fill="#172B4D"/>
<path d="M24.5762 56.1384L0.640625 32.2028V32.0708L24.7083 56.1384H24.5762Z" fill="#172B4D"/>
<path d="M21.9097 56.1388L0.640625 34.8698V34.7378L22.0417 56.1388H21.9097Z" fill="#172B4D"/>
<path d="M19.2432 56.1384L0.640625 37.5358V37.4038L19.3752 56.1384H19.2432Z" fill="#172B4D"/>
<path d="M16.5767 56.1379L0.640625 40.2018V40.0698L16.7087 56.1379H16.5767Z" fill="#172B4D"/>
<path d="M13.9101 56.1373L0.640625 42.8678V42.7358L14.0421 56.1373H13.9101Z" fill="#172B4D"/>
<path d="M11.2436 56.1378L0.640625 45.5348V45.4028L11.3756 56.1378H11.2436Z" fill="#172B4D"/>
<path d="M8.57701 56.1383L0.640625 48.2018V48.0698L8.70907 56.1383H8.57701Z" fill="#172B4D"/>
<path d="M5.91051 56.1378L0.640625 50.8679V50.7358L6.04247 56.1378H5.91051Z" fill="#172B4D"/>
<path d="M3.24401 56.1382L0.640625 53.5348V53.4028L3.37597 56.1382H3.24401Z" fill="#172B4D"/>
<path d="M0.640625 56.1387V56.0698L0.709473 56.1387H0.640625Z" fill="#172B4D"/>
<path d="M26.0577 0.138184L56.6397 30.72V30.852L25.9258 0.138184H26.0577Z" fill="#172B4D"/>
<path d="M28.7258 0.138184L56.6412 28.0535V28.1855L28.5938 0.138184H28.7258Z" fill="#172B4D"/>
<path d="M31.3898 0.138184L56.6386 25.387V25.519L31.2578 0.138184H31.3898Z" fill="#172B4D"/>
<path d="M34.0577 0.138184L56.6401 22.7204V22.8524L33.9258 0.138184H34.0577Z" fill="#172B4D"/>
<path d="M36.7258 0.138184L56.6416 20.0539V20.1859L36.5938 0.138184H36.7258Z" fill="#172B4D"/>
<path d="M39.3898 0.138184L56.639 17.3874V17.5194L39.2578 0.138184H39.3898Z" fill="#172B4D"/>
<path d="M42.0577 0.138184L56.6405 14.7208V14.8528L41.9258 0.138184H42.0577Z" fill="#172B4D"/>
<path d="M44.7257 0.138184L56.6419 12.0543V12.1863L44.5938 0.138184H44.7257Z" fill="#172B4D"/>
<path d="M47.3898 0.138184L56.6394 9.38784V9.5198L47.2578 0.138184H47.3898Z" fill="#172B4D"/>
<path d="M50.0577 0.138184L56.6409 6.72124V6.8533L49.9258 0.138184H50.0577Z" fill="#172B4D"/>
<path d="M52.7258 0.138184L56.6424 4.05474V4.1867L52.5938 0.138184H52.7258Z" fill="#172B4D"/>
<path d="M55.3898 0.138184L56.6398 1.38824V1.5202L55.2578 0.138184H55.3898Z" fill="#172B4D"/>
<path d="M23.3937 0.138184L56.6421 33.3866V33.5186L23.2617 0.138184H23.3937Z" fill="#172B4D"/>
<path d="M20.7258 0.138184L56.6408 36.0531V36.1851L20.5938 0.138184H20.7258Z" fill="#172B4D"/>
<path d="M18.0616 0.138184L56.6432 38.7196V38.8516L17.9297 0.138184H18.0616Z" fill="#172B4D"/>
<path d="M15.3937 0.138184L56.6417 41.3861V41.5182L15.2617 0.138184H15.3937Z" fill="#172B4D"/>
<path d="M12.7258 0.138184L56.6404 44.0526V44.1847L12.5938 0.138184H12.7258Z" fill="#172B4D"/>
<path d="M10.0617 0.138184L56.6428 46.7192V46.8512L9.92969 0.138184H10.0617Z" fill="#172B4D"/>
<path d="M7.39368 0.138184L56.6413 49.3858V49.5178L7.26172 0.138184H7.39368Z" fill="#172B4D"/>
<path d="M4.72571 0.138184L56.6399 52.0523V52.1843L4.59375 0.138184H4.72571Z" fill="#172B4D"/>
<path d="M2.06174 0.138184L56.6424 54.7188V54.8508L1.92969 0.138184H2.06174Z" fill="#172B4D"/>
<path d="M55.2614 56.139L0.640625 1.51819V1.38623L55.3934 56.139H55.2614Z" fill="#172B4D"/>
<path d="M52.5949 56.1385L0.640625 4.1842V4.05225L52.7269 56.1385H52.5949Z" fill="#172B4D"/>
<path d="M49.9283 56.138L0.640625 6.85022V6.71826L50.0603 56.138H49.9283Z" fill="#172B4D"/>
<path d="M47.2618 56.1384L0.640625 9.51721V9.38525L47.3938 56.1384H47.2618Z" fill="#172B4D"/>
<path d="M44.5953 56.1379L0.640625 12.1832V12.0513L44.7273 56.1379H44.5953Z" fill="#172B4D"/>
<path d="M41.9287 56.1374L0.640625 14.8492V14.7173L42.0607 56.1374H41.9287Z" fill="#172B4D"/>
<path d="M39.2622 56.1378L0.640625 17.5162V17.3843L39.3942 56.1378H39.2622Z" fill="#172B4D"/>
<path d="M36.5957 56.1383L0.640625 20.1832V20.0513L36.7277 56.1383H36.5957Z" fill="#172B4D"/>
<path d="M33.9291 56.1379L0.640625 22.8492V22.7173L34.0612 56.1379H33.9291Z" fill="#172B4D"/>
<path d="M31.2626 56.1382L0.640625 25.5162V25.3843L31.3946 56.1382H31.2626Z" fill="#172B4D"/>
<path d="M28.5961 56.1387L0.640625 28.1832V28.0513L28.7281 56.1387H28.5961Z" fill="#172B4D"/>
<path d="M25.9295 56.1383L0.640625 30.8492V30.7173L26.0616 56.1383H25.9295Z" fill="#172B4D"/>
<path d="M23.263 56.1386L0.640625 33.5162V33.3843L23.395 56.1386H23.263Z" fill="#172B4D"/>
<path d="M20.5965 56.1382L0.640625 36.1823V36.0503L20.7285 56.1382H20.5965Z" fill="#172B4D"/>
<path d="M17.9299 56.1377L0.640625 38.8483V38.7163L18.062 56.1377H17.9299Z" fill="#172B4D"/>
<path d="M15.2634 56.1382L0.640625 41.5154V41.3833L15.3954 56.1382H15.2634Z" fill="#172B4D"/>
<path d="M12.5969 56.1376L0.640625 44.1813V44.0493L12.7289 56.1376H12.5969Z" fill="#172B4D"/>
<path d="M9.93044 56.1381L0.640625 46.8483V46.7163L10.0624 56.1381H9.93044Z" fill="#172B4D"/>
<path d="M7.26384 56.1376L0.640625 49.5143V49.3823L7.3958 56.1376H7.26384Z" fill="#172B4D"/>
<path d="M4.59734 56.138L0.640625 52.1813V52.0493L4.7293 56.138H4.59734Z" fill="#172B4D"/>
<path d="M1.93085 56.1385L0.640625 54.8483V54.7163L2.0628 56.1385H1.93085Z" fill="#172B4D"/>
</g>
<defs>
<clipPath id="clip0_2570_209321">
<rect width="56" height="56" fill="white" transform="translate(0.640625 0.138184)"/>
</clipPath>
</defs>
</svg>
