<svg width="57" height="57" viewBox="0 0 57 57" fill="none" xmlns="http://www.w3.org/2000/svg">
<g clip-path="url(#clip0_2570_209333)">
<rect width="56" height="56" transform="translate(0.640625 0.138184)" fill="#F4F4F4"/>
<path d="M-36.2422 15.894C-35.2044 15.0816 -30.9443 20.5229 -29.906 19.7099C-28.8677 18.897 -33.1283 13.4562 -32.09 12.6432C-31.0517 11.8303 -26.7922 17.272 -25.7538 16.4591C-24.7155 15.6462 -28.9761 10.2053 -27.9378 9.39243C-26.8995 8.57951 -22.64 14.0212 -21.6017 13.2083C-20.5633 12.3954 -24.824 6.95454 -23.7856 6.14163C-22.7473 5.32871 -18.4878 10.7704 -17.4495 9.95752C-16.4111 9.1446 -20.6718 3.70374 -19.634 2.89125C-18.5962 2.07877 -14.3356 7.51963 -13.2956 6.70541C-12.2556 5.89118 -16.5179 0.451626 -15.4802 -0.360858C-14.4424 -1.17334 -10.1812 4.26708 -9.14566 3.45634C-8.11012 2.6456 -12.368 -2.79744 -11.3269 -3.61253C-10.2858 -4.42763 -6.02902 1.01628 -4.99125 0.203793C-3.95349 -0.608691 -8.213 -6.05042 -7.17523 -6.86291C-6.13746 -7.67539 -1.87739 -2.23409 -0.839071 -3.04701C0.199253 -3.85993 -4.06137 -9.30079 -3.02361 -10.1133C-1.98584 -10.9258 2.27479 -5.4849 3.31311 -6.29782C4.35144 -7.11074 0.0908099 -12.5516 1.12913 -13.3645C2.16746 -14.1774 6.42697 -8.7357 7.4653 -9.54862C8.50362 -10.3615 4.243 -15.8024 5.28132 -16.6153C6.31964 -17.4282 10.5792 -11.9865 11.6175 -12.7994C12.6558 -13.6123 8.39518 -19.0532 9.43351 -19.8661C10.4718 -20.6791 14.7313 -15.2373 15.7697 -16.0502C16.808 -16.8632 12.5479 -22.3045 13.5857 -23.1169C14.6235 -23.9294 18.8841 -18.4886 19.9219 -19.301C20.9596 -20.1135 16.7001 -25.5553 17.7379 -26.3677C18.7756 -27.1802 23.0363 -21.7394 24.0746 -22.5523C25.1129 -23.3652 20.8523 -28.8061 21.8906 -29.619C22.9289 -30.4319 27.189 -24.9906 28.2268 -25.8031C29.2645 -26.6156 25.005 -32.0573 26.0433 -32.8702C27.0817 -33.6831 31.3417 -28.2418 32.3801 -29.0548C33.4184 -29.8677 29.1583 -35.309 30.1961 -36.1215" stroke="#001141" stroke-width="0.056" stroke-miterlimit="10"/>
<path d="M-27.5 27.062C-26.4622 26.2495 -22.2022 31.6908 -21.1638 30.8779C-20.1255 30.065 -24.3861 24.6241 -23.3478 23.8112C-22.3095 22.9983 -18.05 28.44 -17.0117 27.6271C-15.9733 26.8142 -20.234 21.3733 -19.1956 20.5604C-18.1573 19.7475 -13.8978 25.1892 -12.8595 24.3763C-11.8211 23.5634 -16.0818 18.1225 -15.0434 17.3096C-14.0051 16.4967 -9.74561 21.9384 -8.70729 21.1255C-7.66896 20.3126 -11.9296 14.8717 -10.8918 14.0592C-9.85405 13.2467 -5.59343 18.6876 -4.55343 17.8734C-3.51344 17.0591 -7.77574 11.6196 -6.73797 10.8071C-5.7002 9.99463 -1.43902 15.4351 -0.403475 14.6243C0.632069 13.8136 -3.62578 8.37053 -2.58467 7.55543C-1.54357 6.74034 2.71317 12.1842 3.75093 11.3718C4.7887 10.5593 0.529189 5.11755 1.56696 4.30506C2.60472 3.49258 6.86479 8.93388 7.90312 8.12096C8.94144 7.30804 4.68081 1.86718 5.71858 1.05469C6.75635 0.24221 11.017 5.68307 12.0553 4.87015C13.0936 4.05723 8.833 -1.38363 9.87132 -2.19655C10.9096 -3.00947 15.1692 2.43226 16.2075 1.61934C17.2458 0.806425 12.9852 -4.63444 14.0235 -5.44735C15.0618 -6.26027 19.3213 -0.818541 20.3597 -1.63146C21.398 -2.44438 17.1374 -7.88524 18.1757 -8.69816C19.214 -9.51108 23.4735 -4.06935 24.5119 -4.88227C25.5502 -5.69519 21.2901 -11.1365 22.3279 -11.949C23.3656 -12.7615 27.6263 -7.32059 28.664 -8.13308C29.7018 -8.94556 25.4423 -14.3873 26.4801 -15.1998C27.5178 -16.0123 31.7785 -10.5714 32.8168 -11.3843C33.8551 -12.1972 29.5945 -17.6381 30.6328 -18.451C31.6711 -19.2639 35.9312 -13.8226 36.969 -14.6351C38.0067 -15.4476 33.7472 -20.8893 34.7855 -21.7023C35.8239 -22.5152 40.0839 -17.0739 41.1223 -17.8868C42.1606 -18.6997 37.9005 -24.141 38.9383 -24.9535" stroke="#001141" stroke-width="0.0392" stroke-miterlimit="10"/>
<path d="M-12.1367 46.6812C-11.099 45.8687 -6.83888 51.31 -5.80056 50.497C-4.76223 49.6841 -9.02286 44.2433 -7.98453 43.4303C-6.94621 42.6174 -2.6867 48.0592 -1.64837 47.2462C-0.610049 46.4333 -4.87067 40.9925 -3.83235 40.1795C-2.79403 39.3666 1.46549 44.8084 2.50381 43.9954C3.54214 43.1825 -0.718491 37.7417 0.319833 36.9287C1.35816 36.1158 5.61767 41.5575 6.656 40.7446C7.69432 39.9317 3.43369 34.4908 4.47146 33.6784C5.50923 32.8659 9.76985 38.3067 10.8098 37.4925C11.8498 36.6783 7.58755 31.2387 8.62531 30.4263C9.66308 29.6138 13.9243 35.0542 14.9598 34.2435C15.9953 33.4327 11.7375 27.9897 12.7786 27.1746C13.8197 26.3595 18.0764 31.8034 19.1142 30.9909C20.152 30.1784 15.8925 24.7367 16.9302 23.9242C17.968 23.1117 22.2281 28.553 23.2664 27.7401C24.3047 26.9272 20.0441 21.4863 21.0819 20.6738C22.1196 19.8614 26.3803 25.3022 27.4186 24.4893C28.4569 23.6764 24.1963 18.2355 25.2346 17.4226C26.2729 16.6097 30.5324 22.0514 31.5708 21.2385C32.6091 20.4256 28.3485 14.9847 29.3868 14.1718C30.4251 13.3589 34.6846 18.8006 35.7229 17.9877C36.7613 17.1748 32.5007 11.7339 33.539 10.921C34.5773 10.1081 38.8368 15.5498 39.8751 14.7369C40.9135 13.924 36.6534 8.48266 37.6912 7.67017C38.7289 6.85769 42.9896 12.2985 44.0273 11.4861C45.0651 10.6736 40.8056 5.23185 41.8433 4.41937C42.8811 3.60689 47.1417 9.04774 48.1801 8.23482C49.2184 7.42191 44.9578 1.98104 45.9961 1.16813C47.0344 0.355206 51.2945 5.7965 52.3322 4.98402C53.37 4.17154 49.1105 -1.27019 50.1488 -2.08311C51.1871 -2.89603 55.4472 2.54526 56.4855 1.73234C57.5239 0.919422 53.2638 -4.52187 54.3016 -5.33436" stroke="#001141" stroke-width="0.0392" stroke-miterlimit="10"/>
<path d="M9.83984 74.7515C10.8776 73.939 15.1377 79.3803 16.176 78.5674C17.2143 77.7544 12.9537 72.3136 13.992 71.5007C15.0304 70.6877 19.2899 76.1295 20.3282 75.3166C21.3665 74.5036 17.1059 69.0628 18.1442 68.2499C19.1825 67.4369 23.442 72.8787 24.4804 72.0657C25.5187 71.2528 21.2581 65.812 22.2964 64.999C23.3347 64.1861 27.5942 69.6279 28.6326 68.8149C29.6709 68.002 25.4103 62.5612 26.448 61.7487C27.4858 60.9362 31.7464 66.3771 32.7864 65.5628C33.8264 64.7486 29.5641 59.309 30.6019 58.4966C31.6396 57.6841 35.9008 63.1245 36.9364 62.3138C37.9719 61.503 33.7141 56.06 34.7552 55.2449C35.7963 54.4298 40.053 59.8737 41.0908 59.0612C42.1285 58.2487 37.869 52.807 38.9068 51.9945C39.9446 51.182 44.2046 56.6233 45.243 55.8104C46.2813 54.9975 42.0207 49.5566 43.0584 48.7441C44.0962 47.9317 48.3568 53.3725 49.3951 52.5596C50.4335 51.7467 46.1728 46.3058 47.2112 45.4929C48.2495 44.68 52.509 50.1217 53.5473 49.3088C54.5857 48.4959 50.325 43.055 51.3634 42.2421C52.4017 41.4292 56.6612 46.8709 57.6995 46.058C58.7378 45.2451 54.4772 39.8042 55.5155 38.9913C56.5539 38.1784 60.8134 43.6201 61.8517 42.8072C62.89 41.9943 58.63 36.553 59.6677 35.7405C60.7055 34.928 64.9661 40.3689 66.0039 39.5564C67.0417 38.7439 62.7821 33.3022 63.8199 32.4897C64.8577 31.6772 69.1183 37.1181 70.1566 36.3051C71.1949 35.4922 66.9343 30.0514 67.9726 29.2384C69.011 28.4255 73.271 33.8668 74.3088 33.0543C75.3466 32.2418 71.0871 26.8001 72.1254 25.9872C73.1637 25.1743 77.4238 30.6156 78.4621 29.8027C79.5004 28.9897 75.2404 23.5484 76.2781 22.736" stroke="#001141" stroke-width="0.0392" stroke-miterlimit="10"/>
<path d="M-31.9805 21.3345C-30.9427 20.522 -26.6826 25.9633 -25.6443 25.1504C-24.606 24.3374 -28.8666 18.8966 -27.8283 18.0837C-26.79 17.2707 -22.5304 22.7125 -21.4921 21.8996C-20.4538 21.0866 -24.7144 15.6458 -23.6761 14.8329C-22.6378 14.0199 -18.3783 19.4617 -17.3399 18.6488C-16.3016 17.8358 -20.5622 12.395 -19.5239 11.5821C-18.4856 10.7691 -14.2261 16.2109 -13.1878 15.3979C-12.1494 14.585 -16.4101 9.14417 -15.3723 8.33168C-14.3345 7.5192 -10.0739 12.9601 -9.0339 12.1458C-7.99391 11.3316 -12.2562 5.89206 -11.2184 5.07957C-10.1807 4.26709 -5.91949 9.70751 -4.88394 8.89677C-3.8484 8.08603 -8.10625 2.64299 -7.06514 1.8279C-6.02404 1.0128 -1.7673 6.45671 -0.729534 5.64422C0.308233 4.83174 -3.95128 -0.609993 -2.91351 -1.42248C-1.87574 -2.23496 2.38432 3.20634 3.42265 2.39342C4.46097 1.5805 0.200346 -3.86036 1.23811 -4.67285C2.27588 -5.48533 6.53651 -0.0444704 7.57483 -0.85739C8.61316 -1.67031 4.35253 -7.11117 5.39085 -7.92409C6.42918 -8.73701 10.6887 -3.29528 11.727 -4.10819C12.7653 -4.92111 8.50471 -10.362 9.54304 -11.1749C10.5814 -11.9878 14.8409 -6.54608 15.8792 -7.359C16.9175 -8.17192 12.6569 -13.6128 13.6952 -14.4257C14.7335 -15.2386 18.9931 -9.79689 20.0314 -10.6098C21.0697 -11.4227 16.8096 -16.864 17.8474 -17.6765C18.8852 -18.489 23.1458 -13.0481 24.1836 -13.8606C25.2213 -14.6731 20.9618 -20.1148 21.9996 -20.9273C23.0374 -21.7398 27.298 -16.2989 28.3363 -17.1119C29.3746 -17.9248 25.114 -23.3656 26.1523 -24.1786C27.1907 -24.9915 31.4507 -19.5502 32.4885 -20.3627C33.5263 -21.1751 29.2667 -26.6169 30.3051 -27.4298C31.3434 -28.2427 35.6035 -22.8014 36.6418 -23.6143C37.6801 -24.4273 33.42 -29.8686 34.4578 -30.681" stroke="#001141" stroke-width="0.0392" stroke-miterlimit="10"/>
<path d="M-16.6211 40.9546C-15.5833 40.1421 -11.3233 45.5834 -10.2849 44.7705C-9.24661 43.9576 -13.5072 38.5167 -12.4689 37.7038C-11.4306 36.8909 -7.17107 42.3326 -6.13275 41.5197C-5.09442 40.7068 -9.35505 35.2659 -8.31673 34.453C-7.2784 33.6401 -3.01889 39.0818 -1.98056 38.2689C-0.94224 37.456 -5.20287 32.0151 -4.16454 31.2022C-3.12622 30.3893 1.1333 35.831 2.17162 35.0181C3.20994 34.2051 -1.05068 28.7643 -0.0129142 27.9518C1.02485 27.1393 5.28548 32.5802 6.32547 31.766C7.36547 30.9517 3.10317 25.5122 4.14094 24.6997C5.17871 23.8872 9.43989 29.3276 10.4754 28.5169C11.511 27.7061 7.25313 22.2631 8.29423 21.448C9.33534 20.6329 13.5921 26.0768 14.6298 25.2643C15.6676 24.4519 11.4081 19.0101 12.4459 18.1976C13.4836 17.3852 17.7437 22.8265 18.782 22.0135C19.8203 21.2006 15.5597 15.7598 16.5975 14.9473C17.6353 14.1348 21.8959 19.5756 22.9342 18.7627C23.9725 17.9498 19.7119 12.509 20.7502 11.696C21.7886 10.8831 26.0481 16.3248 27.0864 15.5119C28.1247 14.699 23.8641 9.25814 24.9024 8.44522C25.9407 7.6323 30.2002 13.074 31.2386 12.2611C32.2769 11.4482 28.0163 6.00734 29.0546 5.19442C30.0929 4.3815 34.3524 9.82323 35.3908 9.01031C36.4291 8.19739 32.169 2.7561 33.2068 1.94361C34.2445 1.13113 38.5052 6.57199 39.5429 5.7595C40.5807 4.94702 36.3212 -0.49471 37.359 -1.30719C38.3967 -2.11968 42.6574 3.32118 43.6957 2.50826C44.734 1.69534 40.4734 -3.74552 41.5117 -4.55844C42.55 -5.37136 46.8101 0.0699413 47.8479 -0.742543C48.8856 -1.55503 44.6261 -6.99676 45.6644 -7.80967C46.7028 -8.62259 50.9628 -3.1813 52.0012 -3.99422C53.0395 -4.80714 48.7794 -10.2484 49.8172 -11.0609" stroke="#001141" stroke-width="0.0392" stroke-miterlimit="10"/>
<path d="M5.35547 69.0249C6.39324 68.2124 10.6533 73.6537 11.6916 72.8408C12.73 72.0279 8.46933 66.587 9.50765 65.7741C10.546 64.9612 14.8055 70.4029 15.8438 69.59C16.8821 68.7771 12.6215 63.3362 13.6598 62.5233C14.6982 61.7104 18.9577 67.1521 19.996 66.3392C21.0343 65.5263 16.7737 60.0854 17.812 59.2725C18.8503 58.4596 23.1099 63.9013 24.1482 63.0884C25.1865 62.2755 20.9259 56.8346 21.9636 56.0221C23.0014 55.2096 27.262 60.6505 28.302 59.8363C29.342 59.022 25.0797 53.5825 26.1175 52.77C27.1553 51.9575 31.4165 57.3979 32.452 56.5872C33.4875 55.7765 29.2297 50.3334 30.2708 49.5183C31.3119 48.7032 35.5686 54.1471 36.6064 53.3347C37.6442 52.5222 33.3847 47.0804 34.4224 46.268C35.4602 45.4555 39.7203 50.8968 40.7586 50.0838C41.7969 49.2709 37.5363 43.8301 38.5741 43.0176C39.6118 42.2051 43.8724 47.646 44.9108 46.833C45.9491 46.0201 41.6885 40.5793 42.7268 39.7663C43.7651 38.9534 48.0246 44.3952 49.063 43.5822C50.1013 42.7693 45.8407 37.3285 46.879 36.5155C47.9173 35.7026 52.1768 41.1443 53.2151 40.3314C54.2535 39.5185 49.9928 34.0776 51.0312 33.2647C52.0695 32.4518 56.329 37.8935 57.3673 37.0806C58.4056 36.2677 54.1456 30.8264 55.1833 30.0139C56.2211 29.2014 60.4817 34.6423 61.5195 33.8298C62.5573 33.0173 58.2978 27.5756 59.3355 26.7631C60.3733 25.9506 64.6339 31.3915 65.6722 30.5786C66.7106 29.7657 62.4499 24.3248 63.4883 23.5119C64.5266 22.699 68.7867 28.1403 69.8244 27.3278C70.8622 26.5153 66.6027 21.0736 67.641 20.2606C68.6793 19.4477 72.9394 24.889 73.9777 24.0761C75.0161 23.2632 70.756 17.8219 71.7937 17.0094" stroke="#001141" stroke-width="0.0392" stroke-miterlimit="10"/>
<path d="M-23.2383 32.5034C-22.2005 31.6909 -17.9404 37.1322 -16.9021 36.3193C-15.8638 35.5064 -20.1244 30.0655 -19.0861 29.2526C-18.0478 28.4397 -13.7883 33.8814 -12.7499 33.0685C-11.7116 32.2556 -15.9722 26.8147 -14.9339 26.0018C-13.8956 25.1889 -9.63608 30.6306 -8.59775 29.8177C-7.55943 29.0048 -11.8201 23.5639 -10.7817 22.751C-9.74341 21.9381 -5.48389 27.3798 -4.44557 26.5669C-3.40724 25.754 -7.66787 20.3131 -6.6301 19.5006C-5.59233 18.6881 -1.33171 24.129 -0.291715 23.3148C0.748278 22.5006 -3.51402 17.061 -2.47625 16.2485C-1.43848 15.436 2.8227 20.8765 3.85824 20.0657C4.89379 19.255 0.635942 13.8119 1.67705 12.9968C2.71815 12.1817 6.97489 17.6257 8.01265 16.8132C9.05042 16.0007 4.79091 10.559 5.82868 9.74647C6.86644 8.93398 11.1265 14.3753 12.1648 13.5624C13.2032 12.7494 8.94253 7.30858 9.9803 6.4961C11.0181 5.68362 15.2787 11.1245 16.317 10.3116C17.3553 9.49864 13.0947 4.05778 14.133 3.24486C15.1714 2.43194 19.4309 7.87367 20.4692 7.06075C21.5075 6.24783 17.2469 0.806971 18.2852 -0.00594834C19.3236 -0.818868 23.5831 4.62287 24.6214 3.80995C25.6597 2.99703 21.3991 -2.44384 22.4374 -3.25676C23.4757 -4.06968 27.7352 1.37206 28.7736 0.559139C29.8119 -0.253781 25.5518 -5.69508 26.5896 -6.50756C27.6274 -7.32004 31.888 -1.87919 32.9258 -2.69167C33.9635 -3.50415 29.704 -8.94588 30.7418 -9.75837C31.7795 -10.5708 36.0402 -5.12999 37.0785 -5.94291C38.1168 -6.75583 33.8562 -12.1967 34.8945 -13.0096C35.9328 -13.8225 40.1929 -8.38123 41.2307 -9.19371C42.2684 -10.0062 38.0089 -15.4479 39.0473 -16.2608C40.0856 -17.0738 44.3457 -11.6325 45.384 -12.4454C46.4223 -13.2583 42.1622 -18.6996 43.2 -19.5121" stroke="#001141" stroke-width="0.0392" stroke-miterlimit="10"/>
<path d="M-1.25781 60.5728C-0.220045 59.7603 4.04003 65.2016 5.07835 64.3886C6.11667 63.5757 1.85605 58.1349 2.89437 57.3219C3.9327 56.509 8.19221 61.9508 9.23053 61.1378C10.2689 60.3249 6.00823 54.8841 7.04656 54.0711C8.08488 53.2582 12.3444 58.7 13.3827 57.887C14.421 57.0741 10.1604 51.6333 11.1987 50.8203C12.2371 50.0074 16.4966 55.4491 17.5349 54.6362C18.5732 53.8233 14.3126 48.3824 15.3504 47.57C16.3881 46.7575 20.6488 52.1983 21.6888 51.3841C22.7287 50.5699 18.4665 45.1303 19.5042 44.3179C20.542 43.5054 24.8032 48.9458 25.8387 48.1351C26.8743 47.3243 22.6164 41.8813 23.6575 41.0662C24.6986 40.2511 28.9554 45.695 29.9931 44.8825C31.0309 44.07 26.7714 38.6283 27.8091 37.8158C28.8469 37.0033 33.107 42.4446 34.1453 41.6317C35.1836 40.8188 30.923 35.3779 31.9608 34.5654C32.9985 33.753 37.2592 39.1938 38.2975 38.3809C39.3358 37.568 35.0752 32.1271 36.1135 31.3142C37.1518 30.5013 41.4113 35.943 42.4497 35.1301C43.488 34.3172 39.2274 28.8763 40.2657 28.0634C41.304 27.2505 45.5635 32.6922 46.6019 31.8793C47.6402 31.0664 43.3796 25.6255 44.4179 24.8126C45.4562 23.9997 49.7157 29.4414 50.754 28.6285C51.7924 27.8156 47.5323 22.3743 48.5701 21.5618C49.6078 20.7493 53.8685 26.1902 54.9062 25.3777C55.944 24.5652 51.6845 19.1235 52.7222 18.311C53.76 17.4985 58.0206 22.9393 59.059 22.1264C60.0973 21.3135 55.8367 15.8726 56.875 15.0597C57.9133 14.2468 62.1734 19.6881 63.2111 18.8756C64.2489 18.0631 59.9894 12.6214 61.0277 11.8085C62.066 10.9956 66.3261 16.4369 67.3644 15.6239C68.4028 14.811 64.1427 9.36973 65.1805 8.55725" stroke="#001141" stroke-width="0.0392" stroke-miterlimit="10"/>
<path d="M-7.875 52.1226C-6.83723 51.3101 -2.57716 56.7514 -1.53884 55.9385C-0.500514 55.1255 -4.76114 49.6847 -3.72282 48.8718C-2.68449 48.0588 1.57502 53.5006 2.61335 52.6876C3.65167 51.8747 -0.608956 46.4339 0.429368 45.6209C1.46769 44.808 5.72721 50.2498 6.76553 49.4368C7.80385 48.6239 3.54323 43.1831 4.58155 42.3701C5.61988 41.5572 9.87939 46.999 10.9177 46.186C11.956 45.3731 7.69541 39.9323 8.73318 39.1198C9.77095 38.3073 14.0316 43.7481 15.0716 42.9339C16.1116 42.1197 11.8493 36.6801 12.887 35.8677C13.9248 35.0552 18.186 40.4956 19.2215 39.6849C20.2571 38.8741 15.9992 33.4311 17.0403 32.616C18.0814 31.8009 22.3382 37.2448 23.3759 36.4323C24.4137 35.6198 20.1542 30.1781 21.192 29.3656C22.2297 28.5531 26.4898 33.9944 27.5281 33.1815C28.5664 32.3686 24.3058 26.9277 25.3436 26.1152C26.3814 25.3028 30.642 30.7436 31.6803 29.9307C32.7186 29.1178 28.458 23.6769 29.4963 22.864C30.5346 22.0511 34.7942 27.4928 35.8325 26.6799C36.8708 25.867 32.6102 20.4261 33.6485 19.6132C34.6868 18.8003 38.9463 24.242 39.9847 23.4291C41.023 22.6162 36.7624 17.1753 37.8007 16.3624C38.839 15.5495 43.0985 20.9912 44.1369 20.1783C45.1752 19.3654 40.9151 13.9241 41.9529 13.1116C42.9906 12.2991 47.2513 17.74 48.289 16.9275C49.3268 16.115 45.0673 10.6733 46.1051 9.86078C47.1428 9.04829 51.4035 14.4892 52.4418 13.6762C53.4801 12.8633 49.2195 7.42245 50.2578 6.60953C51.2961 5.79661 55.5562 11.2379 56.594 10.4254C57.6317 9.61294 53.3722 4.17121 54.4105 3.35829C55.4489 2.54537 59.7089 7.98667 60.7473 7.17375C61.7856 6.36083 57.5255 0.919534 58.5633 0.107051" stroke="#001141" stroke-width="0.0392" stroke-miterlimit="10"/>
<path d="M14.1016 80.1929C15.1393 79.3804 19.3994 84.8217 20.4377 84.0088C21.476 83.1958 17.2154 77.755 18.2537 76.9421C19.2921 76.1291 23.5516 81.5709 24.5899 80.758C25.6282 79.945 21.3676 74.5042 22.4059 73.6913C23.4443 72.8783 27.7038 78.3201 28.7421 77.5072C29.7804 76.6942 25.5198 71.2534 26.5581 70.4405C27.5964 69.6275 31.856 75.0693 32.8943 74.2563C33.9326 73.4434 29.672 68.0026 30.7097 67.1901C31.7475 66.3776 36.0081 71.8185 37.0481 71.0042C38.0881 70.19 33.8258 64.7505 34.8636 63.938C35.9014 63.1255 40.1625 68.5659 41.1981 67.7552C42.2336 66.9444 37.9758 61.5014 39.0169 60.6863C40.058 59.8712 44.3147 65.3151 45.3525 64.5026C46.3903 63.6901 42.1308 58.2484 43.1685 57.4359C44.2063 56.6234 48.4664 62.0647 49.5047 61.2518C50.543 60.4389 46.2824 54.998 47.3201 54.1856C48.3579 53.3731 52.6185 58.8139 53.6569 58.001C54.6952 57.1881 50.4346 51.7472 51.4729 50.9343C52.5112 50.1214 56.7707 55.5631 57.809 54.7502C58.8474 53.9373 54.5867 48.4964 55.6251 47.6835C56.6634 46.8706 60.9229 52.3123 61.9612 51.4994C62.9996 50.6865 58.7389 45.2456 59.7773 44.4327C60.8156 43.6198 65.0751 49.0615 66.1134 48.2486C67.1517 47.4357 62.8917 41.9944 63.9294 41.1819C64.9672 40.3694 69.2278 45.8103 70.2656 44.9978C71.3034 44.1853 67.0439 38.7436 68.0816 37.9311C69.1194 37.1186 73.38 42.5595 74.4183 41.7465C75.4567 40.9336 71.196 35.4928 72.2344 34.6798C73.2727 33.8669 77.5328 39.3082 78.5705 38.4957C79.6083 37.6833 75.3488 32.2415 76.3871 31.4286C77.4254 30.6157 81.6855 36.057 82.7238 35.2441C83.7621 34.4311 79.5021 28.9898 80.5398 28.1774" stroke="#001141" stroke-width="0.0392" stroke-miterlimit="10"/>
<path d="M-34.1133 18.6118C-33.0755 17.7993 -28.8154 23.2406 -27.7771 22.4277C-26.7388 21.6148 -30.9994 16.1739 -29.9611 15.361C-28.9228 14.5481 -24.6633 19.9898 -23.6249 19.1769C-22.5866 18.364 -26.8472 12.9231 -25.8089 12.1102C-24.7706 11.2973 -20.5111 16.739 -19.4728 15.9261C-18.4344 15.1132 -22.6951 9.67232 -21.6567 8.8594C-20.6184 8.04648 -16.3589 13.4882 -15.3206 12.6753C-14.2822 11.8624 -18.5429 6.42151 -17.5051 5.60903C-16.4673 4.79654 -12.2067 10.2374 -11.1667 9.42318C-10.1267 8.60895 -14.389 3.1694 -13.3512 2.35692C-12.3135 1.54443 -8.0523 6.98486 -7.01676 6.17411C-5.98121 5.36337 -10.2391 -0.0796649 -9.19795 -0.894761C-8.15685 -1.70986 -3.90011 3.73405 -2.86235 2.92157C-1.82458 2.10908 -6.08409 -3.33265 -5.04632 -4.14513C-4.00856 -4.95762 0.251511 0.483681 1.28984 -0.329238C2.32816 -1.14216 -1.93247 -6.58302 -0.894699 -7.3955C0.143069 -8.20799 4.4037 -2.76713 5.44202 -3.58005C6.48035 -4.39297 2.21972 -9.83382 3.25804 -10.6467C4.29636 -11.4597 8.55588 -6.01793 9.5942 -6.83085C10.6325 -7.64377 6.3719 -13.0846 7.41023 -13.8975C8.44855 -14.7105 12.7081 -9.26874 13.7464 -10.0817C14.7847 -10.8946 10.5241 -16.3354 11.5624 -17.1484C12.6007 -17.9613 16.8602 -12.5195 17.8986 -13.3325C18.9369 -14.1454 14.6768 -19.5867 15.7146 -20.3992C16.7524 -21.2116 21.013 -15.7708 22.0508 -16.5833C23.0885 -17.3958 18.829 -22.8375 19.8668 -23.65C20.9045 -24.4625 25.1652 -19.0216 26.2035 -19.8345C27.2418 -20.6474 22.9812 -26.0883 24.0195 -26.9012C25.0578 -27.7141 29.3179 -22.2728 30.3557 -23.0853C31.3934 -23.8978 27.1339 -29.3395 28.1723 -30.1524C29.2106 -30.9654 33.4707 -25.5241 34.509 -26.337C35.5473 -27.1499 31.2872 -32.5912 32.325 -33.4037" stroke="#001141" stroke-width="0.056" stroke-miterlimit="10"/>
<path d="M-18.7539 38.231C-17.7161 37.4185 -13.4561 42.8598 -12.4177 42.0469C-11.3794 41.2339 -15.64 35.7931 -14.6017 34.9802C-13.5634 34.1672 -9.30388 39.609 -8.26556 38.796C-7.22724 37.9831 -11.4879 32.5423 -10.4495 31.7293C-9.41121 30.9164 -5.1517 36.3582 -4.11338 35.5452C-3.07505 34.7323 -7.33568 29.2915 -6.29735 28.4785C-5.25903 27.6656 -0.999516 33.1074 0.0388076 32.2944C1.07713 31.4815 -3.18349 26.0407 -2.14573 25.2282C-1.10796 24.4157 3.15267 29.8565 4.19266 29.0423C5.23265 28.2281 0.970358 22.7885 2.00813 21.9761C3.04589 21.1636 7.30708 26.604 8.34262 25.7933C9.37816 24.9825 5.12032 19.5395 6.16142 18.7244C7.20253 17.9093 11.4593 23.3532 12.497 22.5407C13.5348 21.7282 9.27528 16.2865 10.3131 15.474C11.3508 14.6615 15.6109 20.1028 16.6492 19.2899C17.6875 18.477 13.4269 13.0361 14.4647 12.2236C15.5024 11.4112 19.7631 16.852 20.8014 16.0391C21.8397 15.2262 17.5791 9.78532 18.6174 8.9724C19.6557 8.15948 23.9153 13.6012 24.9536 12.7883C25.9919 11.9754 21.7313 6.53451 22.7696 5.72159C23.8079 4.90867 28.0674 10.3504 29.1058 9.53749C30.1441 8.72457 25.8835 3.2837 26.9218 2.47078C27.9601 1.65786 32.2196 7.0996 33.2579 6.28668C34.2963 5.47376 30.0362 0.0324622 31.074 -0.780022C32.1117 -1.59251 36.3724 3.84835 37.4101 3.03587C38.4479 2.22339 34.1884 -3.21834 35.2262 -4.03083C36.2639 -4.84331 40.5245 0.597549 41.5629 -0.215371C42.6012 -1.02829 38.3406 -6.46915 39.3789 -7.28207C40.4172 -8.09499 44.6773 -2.65369 45.7151 -3.46618C46.7528 -4.27866 42.4933 -9.72039 43.5316 -10.5333C44.57 -11.3462 48.83 -5.90494 49.8684 -6.71785C50.9067 -7.53077 46.6466 -12.9721 47.6844 -13.7846" stroke="#001141" stroke-width="0.0392" stroke-miterlimit="10"/>
<path d="M3.22266 66.3003C4.26042 65.4878 8.52049 70.9291 9.55882 70.1162C10.5971 69.3033 6.33652 63.8624 7.37484 63.0495C8.41316 62.2366 12.6727 67.6783 13.711 66.8654C14.7493 66.0525 10.4887 60.6116 11.527 59.7987C12.5653 58.9858 16.8249 64.4275 17.8632 63.6146C18.9015 62.8017 14.6409 57.3608 15.6792 56.5479C16.7175 55.735 20.977 61.1767 22.0154 60.3638C23.0537 59.5508 18.7931 54.11 19.8308 53.2975C20.8686 52.485 25.1292 57.9259 26.1692 57.1117C27.2092 56.2974 22.9469 50.8579 23.9847 50.0454C25.0225 49.2329 29.2836 54.6733 30.3192 53.8626C31.3547 53.0518 27.0969 47.6088 28.138 46.7937C29.1791 45.9786 33.4358 51.4225 34.4736 50.61C35.5114 49.7976 31.2518 44.3558 32.2896 43.5433C33.3274 42.7309 37.5874 48.1722 38.6258 47.3592C39.6641 46.5463 35.4035 41.1055 36.4412 40.293C37.479 39.4805 41.7396 44.9213 42.778 44.1084C43.8163 43.2955 39.5557 37.8547 40.594 37.0417C41.6323 36.2288 45.8918 41.6705 46.9301 40.8576C47.9685 40.0447 43.7078 34.6038 44.7462 33.7909C45.7845 32.978 50.044 38.4197 51.0823 37.6068C52.1206 36.7939 47.86 31.353 48.8983 30.5401C49.9367 29.7272 54.1962 35.1689 55.2345 34.356C56.2728 33.5431 52.0128 28.1018 53.0505 27.2893C54.0883 26.4768 58.3489 31.9177 59.3867 31.1052C60.4245 30.2927 56.1649 24.851 57.2027 24.0385C58.2405 23.226 62.5011 28.6669 63.5394 27.854C64.5778 27.041 60.3171 21.6002 61.3555 20.7873C62.3938 19.9743 66.6538 25.4156 67.6916 24.6032C68.7294 23.7907 64.4699 18.3489 65.5082 17.536C66.5465 16.7231 70.8066 22.1644 71.8449 21.3515C72.8832 20.5386 68.6232 15.0973 69.6609 14.2848" stroke="#001141" stroke-width="0.0392" stroke-miterlimit="10"/>
<path d="M-25.3711 29.7798C-24.3333 28.9673 -20.0733 34.4086 -19.0349 33.5957C-17.9966 32.7828 -22.2572 27.3419 -21.2189 26.529C-20.1806 25.7161 -15.9211 31.1578 -14.8827 30.3449C-13.8444 29.532 -18.105 24.0911 -17.0667 23.2782C-16.0284 22.4653 -11.7689 27.907 -10.7306 27.0941C-9.69224 26.2811 -13.9529 20.8403 -12.9145 20.0274C-11.8762 19.2144 -7.6167 24.6562 -6.57838 23.8433C-5.54006 23.0303 -9.80068 17.5895 -8.76291 16.777C-7.72515 15.9645 -3.46452 21.4054 -2.42453 20.5911C-1.38453 19.7769 -5.64683 14.3374 -4.60906 13.5249C-3.57129 12.7124 0.689888 18.1528 1.72543 17.3421C2.76097 16.5313 -1.49687 11.0883 -0.455766 10.2732C0.585339 9.45811 4.84207 14.902 5.87984 14.0895C6.91761 13.2771 2.6581 7.83532 3.69586 7.02284C4.73363 6.21035 8.9937 11.6516 10.032 10.8387C11.0703 10.0258 6.80972 4.58495 7.84749 3.77247C8.88526 2.95998 13.1459 8.40084 14.1842 7.58792C15.2225 6.775 10.9619 1.33415 12.0002 0.521226C13.0386 -0.291693 17.2981 5.15004 18.3364 4.33712C19.3747 3.5242 15.1141 -1.91666 16.1524 -2.72958C17.1907 -3.5425 21.4502 1.89923 22.4886 1.08631C23.5269 0.273394 19.2663 -5.16747 20.3046 -5.98039C21.3429 -6.79331 25.6024 -1.35158 26.6408 -2.16449C27.6791 -2.97741 23.419 -8.41871 24.4568 -9.23119C25.4945 -10.0437 29.7552 -4.60282 30.7929 -5.4153C31.8307 -6.22779 27.5712 -11.6695 28.609 -12.482C29.6467 -13.2945 33.9074 -7.85362 34.9457 -8.66654C35.984 -9.47946 31.7234 -14.9203 32.7617 -15.7332C33.8 -16.5462 38.0601 -11.1049 39.0979 -11.9173C40.1356 -12.7298 35.8761 -18.1716 36.9144 -18.9845C37.9528 -19.7974 42.2128 -14.3561 43.2512 -15.169C44.2895 -15.9819 40.0294 -21.4232 41.0672 -22.2357" stroke="#001141" stroke-width="0.0392" stroke-miterlimit="10"/>
<path d="M-3.39062 57.8501C-2.35286 57.0376 1.90721 62.4789 2.94554 61.666C3.98386 60.8531 -0.276765 55.4122 0.761559 54.5993C1.79988 53.7864 6.0594 59.2281 7.09772 58.4152C8.13604 57.6023 3.87542 52.1614 4.91374 51.3485C5.95207 50.5356 10.2116 55.9773 11.2499 55.1644C12.2882 54.3515 8.0276 48.9106 9.06593 48.0977C10.1043 47.2848 14.3638 52.7265 15.4021 51.9136C16.4404 51.1007 12.1798 45.6598 13.2176 44.8473C14.2553 44.0348 18.5159 49.4757 19.5559 48.6615C20.5959 47.8472 16.3336 42.4077 17.3714 41.5952C18.4092 40.7827 22.6704 46.2231 23.7059 45.4124C24.7414 44.6017 20.4836 39.1586 21.5247 38.3435C22.5658 37.5284 26.8225 42.9723 27.8603 42.1598C28.8981 41.3474 24.6386 35.9056 25.6763 35.0931C26.7141 34.2807 30.9742 39.722 32.0125 38.909C33.0508 38.0961 28.7902 32.6553 29.828 31.8428C30.8657 31.0303 35.1264 36.4712 36.1647 35.6582C37.203 34.8453 32.9424 29.4045 33.9807 28.5915C35.019 27.7786 39.2785 33.2203 40.3169 32.4074C41.3552 31.5945 37.0946 26.1537 38.1329 25.3407C39.1712 24.5278 43.4307 29.9695 44.469 29.1566C45.5074 28.3437 41.2467 22.9028 42.2851 22.0899C43.3234 21.277 47.5829 26.7187 48.6212 25.9058C49.6596 25.0929 45.3995 19.6516 46.4373 18.8391C47.475 18.0266 51.7356 23.4675 52.7734 22.655C53.8112 21.8425 49.5517 16.4008 50.5894 15.5883C51.6272 14.7758 55.8878 20.2167 56.9262 19.4038C57.9645 18.5909 53.7039 13.15 54.7422 12.3371C55.7805 11.5242 60.0406 16.9654 61.0783 16.153C62.1161 15.3405 57.8566 9.89875 58.8949 9.08583C59.9332 8.27291 64.1933 13.7142 65.2316 12.9013C66.27 12.0884 62.0099 6.64707 63.0477 5.83459" stroke="#001141" stroke-width="0.0392" stroke-miterlimit="10"/>
<path d="M-10.0078 49.3989C-8.97004 48.5864 -4.70997 54.0277 -3.67165 53.2148C-2.63333 52.4019 -6.89395 46.961 -5.85563 46.1481C-4.8173 45.3352 -0.557791 50.7769 0.480533 49.964C1.51886 49.1511 -2.74177 43.7102 -1.70344 42.8973C-0.66512 42.0844 3.59439 47.5261 4.63272 46.7132C5.67104 45.9003 1.41041 40.4594 2.44874 39.6465C3.48706 38.8336 7.74658 44.2753 8.7849 43.4624C9.82323 42.6495 5.5626 37.2086 6.60037 36.3961C7.63813 35.5837 11.8988 41.0245 12.9388 40.2103C13.9787 39.3961 9.71645 33.9565 10.7542 33.144C11.792 32.3315 16.0532 37.772 17.0887 36.9612C18.1243 36.1505 13.8664 30.7074 14.9075 29.8923C15.9486 29.0773 20.2054 34.5212 21.2431 33.7087C22.2809 32.8962 18.0214 27.4545 19.0591 26.642C20.0969 25.8295 24.357 31.2708 25.3953 30.4579C26.4336 29.645 22.173 24.2041 23.2108 23.3916C24.2485 22.5791 28.5092 28.02 29.5475 27.2071C30.5858 26.3941 26.3252 20.9533 27.3635 20.1404C28.4018 19.3274 32.6613 24.7692 33.6997 23.9563C34.738 23.1433 30.4774 17.7025 31.5157 16.8896C32.554 16.0766 36.8135 21.5184 37.8519 20.7055C38.8902 19.8925 34.6296 14.4517 35.6679 13.6388C36.7062 12.8258 40.9657 18.2676 42.004 17.4546C43.0424 16.6417 38.7823 11.2004 39.8201 10.3879C40.8578 9.57546 45.1185 15.0163 46.1562 14.2038C47.194 13.3914 42.9345 7.94963 43.9722 7.13714C45.01 6.32466 49.2706 11.7655 50.309 10.9526C51.3473 10.1397 47.0867 4.69882 48.125 3.8859C49.1633 3.07298 53.4234 8.51428 54.4611 7.70179C55.4989 6.88931 51.2394 1.44758 52.2777 0.634661C53.316 -0.178258 57.5761 5.26303 58.6144 4.45011C59.6528 3.6372 55.3927 -1.8041 56.4305 -2.61658" stroke="#001141" stroke-width="0.0392" stroke-miterlimit="10"/>
<path d="M11.9688 77.4692C13.0065 76.6568 17.2666 82.0981 18.3049 81.2851C19.3432 80.4722 15.0826 75.0314 16.1209 74.2184C17.1593 73.4055 21.4188 78.8472 22.4571 78.0343C23.4954 77.2214 19.2348 71.7805 20.2731 70.9676C21.3114 70.1547 25.571 75.5964 26.6093 74.7835C27.6476 73.9706 23.387 68.5297 24.4253 67.7168C25.4636 66.9039 29.7231 72.3456 30.7615 71.5327C31.7998 70.7198 27.5392 65.2789 28.5769 64.4664C29.6147 63.654 33.8753 69.0948 34.9153 68.2806C35.9553 67.4664 31.693 62.0268 32.7308 61.2143C33.7685 60.4019 38.0297 65.8423 39.0653 65.0315C40.1008 64.2208 35.843 58.7778 36.8841 57.9627C37.9252 57.1476 42.1819 62.5915 43.2197 61.779C44.2575 60.9665 39.9979 55.5248 41.0357 54.7123C42.0735 53.8998 46.3335 59.3411 47.3719 58.5282C48.4102 57.7153 44.1496 52.2744 45.1873 51.4619C46.2251 50.6494 50.4857 56.0903 51.5241 55.2774C52.5624 54.4645 48.3017 49.0236 49.3401 48.2107C50.3784 47.3978 54.6379 52.8395 55.6762 52.0266C56.7146 51.2137 52.4539 45.7728 53.4923 44.9599C54.5306 44.147 58.7901 49.5887 59.8284 48.7758C60.8667 47.9628 56.6061 42.522 57.6444 41.7091C58.6828 40.8961 62.9423 46.3379 63.9806 45.525C65.0189 44.712 60.7589 39.2707 61.7966 38.4583C62.8344 37.6458 67.095 43.0866 68.1328 42.2742C69.1706 41.4617 64.911 36.0199 65.9488 35.2075C66.9866 34.395 71.2472 39.8358 72.2855 39.0229C73.3239 38.21 69.0632 32.7691 70.1016 31.9562C71.1399 31.1433 75.3999 36.5846 76.4377 35.7721C77.4755 34.9596 73.216 29.5179 74.2543 28.705C75.2926 27.8921 79.5527 33.3333 80.591 32.5204C81.6293 31.7075 77.3693 26.2662 78.407 25.4537" stroke="#001141" stroke-width="0.0392" stroke-miterlimit="10"/>
<path d="M-29.8516 24.0522C-28.8138 23.2398 -24.5537 28.6811 -23.5154 27.8681C-22.4771 27.0552 -26.7377 21.6144 -25.6994 20.8014C-24.6611 19.9885 -20.4015 25.4303 -19.3632 24.6173C-18.3249 23.8044 -22.5855 18.3636 -21.5472 17.5506C-20.5089 16.7377 -16.2494 22.1794 -15.211 21.3665C-14.1727 20.5536 -18.4333 15.1127 -17.395 14.2998C-16.3567 13.4869 -12.0972 18.9286 -11.0588 18.1157C-10.0205 17.3028 -14.2812 11.8619 -13.2434 11.0495C-12.2056 10.237 -7.94499 15.6778 -6.905 14.8636C-5.865 14.0494 -10.1273 8.60983 -9.08953 7.79735C-8.05176 6.98486 -3.79058 12.4253 -2.75504 11.6145C-1.71949 10.8038 -5.97734 5.36076 -4.93623 4.54567C-3.89513 3.73057 0.361604 9.17448 1.39937 8.362C2.43714 7.54951 -1.82237 2.10778 -0.784606 1.2953C0.253162 0.482813 4.51323 5.92411 5.55155 5.11119C6.58988 4.29827 2.32925 -1.14259 3.36702 -1.95507C4.40479 -2.76756 8.66542 2.6733 9.70374 1.86038C10.7421 1.04746 6.48143 -4.39339 7.51976 -5.20631C8.55808 -6.01923 12.8176 -0.577502 13.8559 -1.39042C14.8942 -2.20334 10.6336 -7.6442 11.6719 -8.45712C12.7103 -9.27004 16.9698 -3.82831 18.0081 -4.64123C19.0464 -5.45415 14.7858 -10.895 15.8241 -11.7079C16.8625 -12.5208 21.122 -7.07911 22.1603 -7.89203C23.1986 -8.70495 18.9385 -14.1462 19.9763 -14.9587C21.0141 -15.7712 25.2747 -10.3304 26.3125 -11.1428C27.3502 -11.9553 23.0907 -17.3971 24.1285 -18.2095C25.1663 -19.022 29.4269 -13.5812 30.4652 -14.3941C31.5035 -15.207 27.2429 -20.6479 28.2812 -21.4608C29.3196 -22.2737 33.5796 -16.8324 34.6174 -17.6449C35.6552 -18.4574 31.3956 -23.8991 32.434 -24.712C33.4723 -25.5249 37.7324 -20.0836 38.7707 -20.8966C39.809 -21.7095 35.5489 -27.1508 36.5867 -27.9633" stroke="#001141" stroke-width="0.0392" stroke-miterlimit="10"/>
<path d="M-14.4922 43.6724C-13.4544 42.8599 -9.19435 48.3012 -8.15603 47.4883C-7.1177 46.6753 -11.3783 41.2345 -10.34 40.4216C-9.30168 39.6086 -5.04217 45.0504 -4.00384 44.2375C-2.96552 43.4245 -7.22614 37.9837 -6.18782 37.1708C-5.1495 36.3578 -0.889982 41.7996 0.148342 40.9866C1.18667 40.1737 -3.07396 34.7329 -2.03564 33.9199C-0.997312 33.107 3.2622 38.5488 4.30053 37.7358C5.33885 36.9229 1.07822 31.4821 2.11599 30.6696C3.15376 29.8571 7.41439 35.298 8.45438 34.4837C9.49437 33.6695 5.23208 28.2299 6.26984 27.4175C7.30761 26.605 11.5688 32.0454 12.6043 31.2347C13.6399 30.4239 9.38204 24.9809 10.4231 24.1658C11.4642 23.3507 15.721 28.7946 16.7587 27.9821C17.7965 27.1696 13.537 21.7279 14.5748 20.9154C15.6125 20.1029 19.8726 25.5442 20.9109 24.7313C21.9493 23.9184 17.6886 18.4775 18.7264 17.665C19.7642 16.8526 24.0248 22.2934 25.0631 21.4805C26.1014 20.6676 21.8408 15.2267 22.8791 14.4138C23.9175 13.6009 28.177 19.0426 29.2153 18.2297C30.2536 17.4168 25.993 11.9759 27.0313 11.163C28.0696 10.3501 32.3292 15.7918 33.3675 14.9789C34.4058 14.166 30.1452 8.72511 31.1835 7.91219C32.2218 7.09927 36.4813 12.541 37.5197 11.7281C38.558 10.9152 34.2979 5.47387 35.3357 4.66138C36.3735 3.8489 40.6341 9.28976 41.6719 8.47728C42.7096 7.66479 38.4501 2.22306 39.4879 1.41058C40.5256 0.598096 44.7863 6.03895 45.8246 5.22604C46.8629 4.41312 42.6023 -1.02774 43.6406 -1.84066C44.6789 -2.65358 48.939 2.78771 49.9768 1.97523C51.0145 1.16275 46.755 -4.27898 47.7933 -5.0919C48.8317 -5.90482 53.0917 -0.463529 54.1301 -1.27645C55.1684 -2.08937 50.9083 -7.53066 51.9461 -8.34314" stroke="#001141" stroke-width="0.0392" stroke-miterlimit="10"/>
<path d="M7.48438 71.7417C8.52214 70.9292 12.7822 76.3705 13.8205 75.5576C14.8589 74.7447 10.5982 69.3038 11.6366 68.4909C12.6749 67.678 16.9344 73.1197 17.9727 72.3068C19.011 71.4939 14.7504 66.053 15.7887 65.2401C16.8271 64.4272 21.0866 69.8689 22.1249 69.056C23.1632 68.2431 18.9026 62.8022 19.9409 61.9893C20.9793 61.1764 25.2388 66.6181 26.2771 65.8052C27.3154 64.9923 23.0548 59.5514 24.0926 58.7389C25.1303 57.9264 29.3909 63.3673 30.4309 62.5531C31.4709 61.7388 27.2086 56.2993 28.2464 55.4868C29.2842 54.6743 33.5454 60.1147 34.5809 59.304C35.6164 58.4933 31.3586 53.0502 32.3997 52.2351C33.4408 51.42 37.6975 56.8639 38.7353 56.0514C39.7731 55.239 35.5136 49.7972 36.5513 48.9848C37.5891 48.1723 41.8492 53.6136 42.8875 52.8006C43.9258 51.9877 39.6652 46.5469 40.703 45.7344C41.7407 44.9219 46.0014 50.3628 47.0397 49.5498C48.078 48.7369 43.8174 43.2961 44.8557 42.4831C45.894 41.6702 50.1535 47.112 51.1919 46.299C52.2302 45.4861 47.9696 40.0453 49.0079 39.2323C50.0462 38.4194 54.3057 43.8611 55.344 43.0482C56.3824 42.2353 52.1217 36.7944 53.1601 35.9815C54.1984 35.1686 58.4579 40.6103 59.4962 39.7974C60.5346 38.9845 56.2745 33.5432 57.3123 32.7307C58.35 31.9182 62.6106 37.3591 63.6484 36.5466C64.6862 35.7341 60.4267 30.2924 61.4644 29.4799C62.5022 28.6674 66.7628 34.1083 67.8012 33.2954C68.8395 32.4825 64.5789 27.0416 65.6172 26.2287C66.6555 25.4158 70.9156 30.8571 71.9533 30.0446C72.9911 29.2321 68.7316 23.7904 69.7699 22.9774C70.8082 22.1645 75.0683 27.6058 76.1066 26.7929C77.145 25.98 72.8849 20.5387 73.9227 19.7262" stroke="#001141" stroke-width="0.0392" stroke-miterlimit="10"/>
<path d="M-21.1094 35.2212C-20.0716 34.4087 -15.8115 39.85 -14.7732 39.0371C-13.7349 38.2242 -17.9955 32.7833 -16.9572 31.9704C-15.9189 31.1575 -11.6594 36.5992 -10.621 35.7863C-9.58271 34.9734 -13.8433 29.5325 -12.805 28.7196C-11.7667 27.9067 -7.50717 33.3484 -6.46885 32.5355C-5.43052 31.7226 -9.69115 26.2817 -8.65282 25.4688C-7.6145 24.6559 -3.35499 30.0976 -2.31666 29.2847C-1.27834 28.4717 -5.53896 23.0309 -4.5012 22.2184C-3.46343 21.4059 0.797199 26.8468 1.83719 26.0326C2.87718 25.2183 -1.38511 19.7788 -0.347343 18.9663C0.690425 18.1538 4.95161 23.5942 5.98715 22.7835C7.02269 21.9727 2.76485 16.5297 3.80595 15.7146C4.84706 14.8995 9.10379 20.3434 10.1416 19.5309C11.1793 18.7185 6.91981 13.2767 7.95758 12.4642C8.99535 11.6518 13.2554 17.0931 14.2937 16.2801C15.3321 15.4672 11.0714 10.0264 12.1092 9.21387C13.147 8.40139 17.4076 13.8422 18.4459 13.0293C19.4843 12.2164 15.2236 6.77555 16.2619 5.96263C17.3003 5.14971 21.5598 10.5914 22.5981 9.77852C23.6364 8.96561 19.3758 3.52474 20.4141 2.71183C21.4525 1.89891 25.712 7.34064 26.7503 6.52772C27.7886 5.7148 23.528 0.273937 24.5663 -0.538982C25.6046 -1.3519 29.8642 4.08983 30.9025 3.27691C31.9408 2.46399 27.6807 -2.9773 28.7185 -3.78979C29.7563 -4.60227 34.0169 0.838588 35.0547 0.0261045C36.0924 -0.786379 31.8329 -6.22811 32.8707 -7.04059C33.9085 -7.85308 38.1691 -2.41222 39.2074 -3.22514C40.2457 -4.03806 35.9851 -9.47892 37.0234 -10.2918C38.0617 -11.1048 42.3218 -5.66346 43.3596 -6.47594C44.3974 -7.28842 40.1378 -12.7302 41.1762 -13.5431C42.2145 -14.356 46.4746 -8.9147 47.5129 -9.72762C48.5512 -10.5405 44.2911 -15.9818 45.3289 -16.7943" stroke="#001141" stroke-width="0.0392" stroke-miterlimit="10"/>
<path d="M0.867188 63.2915C1.90496 62.479 6.16503 67.9203 7.20335 67.1074C8.24167 66.2945 3.98105 60.8536 5.01937 60.0407C6.0577 59.2278 10.3172 64.6695 11.3555 63.8566C12.3939 63.0437 8.13323 57.6028 9.17156 56.7899C10.2099 55.977 14.4694 61.4187 15.5077 60.6058C16.546 59.7929 12.2854 54.352 13.3237 53.5391C14.3621 52.7262 18.6216 58.1679 19.6599 57.355C20.6982 56.5421 16.4376 51.1012 17.4754 50.2887C18.5131 49.4762 22.7738 54.9171 23.8138 54.1029C24.8537 53.2886 20.5915 47.8491 21.6292 47.0366C22.667 46.2241 26.9282 51.6645 27.9637 50.8538C28.9993 50.0431 24.7414 44.6 25.7825 43.7849C26.8236 42.9698 31.0804 48.4137 32.1181 47.6013C33.1559 46.7888 28.8964 41.347 29.9341 40.5346C30.9719 39.7221 35.232 45.1634 36.2703 44.3504C37.3086 43.5375 33.048 38.0967 34.0858 37.2842C35.1235 36.4717 39.3842 41.9126 40.4225 41.0996C41.4608 40.2867 37.2002 34.8459 38.2385 34.0329C39.2768 33.22 43.5363 38.6618 44.5747 37.8488C45.613 37.0359 41.3524 31.5951 42.3907 30.7821C43.429 29.9692 47.6885 35.411 48.7269 34.598C49.7652 33.7851 45.5046 28.3442 46.5429 27.5313C47.5812 26.7184 51.8407 32.1601 52.879 31.3472C53.9174 30.5343 49.6573 25.093 50.6951 24.2805C51.7328 23.468 55.9935 28.9089 57.0312 28.0964C58.069 27.2839 53.8095 21.8422 54.8472 21.0297C55.885 20.2172 60.1456 25.6581 61.184 24.8452C62.2223 24.0323 57.9617 18.5914 59 17.7785C60.0383 16.9656 64.2984 22.4069 65.3361 21.5944C66.3739 20.7819 62.1144 15.3402 63.1527 14.5272C64.191 13.7143 68.4511 19.1556 69.4894 18.3427C70.5278 17.5298 66.2677 12.0885 67.3055 11.276" stroke="#001141" stroke-width="0.0392" stroke-miterlimit="10"/>
<path d="M-5.75 54.8403C-4.71223 54.0278 -0.452162 59.4691 0.586162 58.6562C1.62449 57.8433 -2.63614 52.4024 -1.59782 51.5895C-0.559492 50.7766 3.70002 56.2183 4.73835 55.4054C5.77667 54.5925 1.51604 49.1516 2.55437 48.3387C3.59269 47.5258 7.85221 52.9675 8.89053 52.1546C9.92885 51.3417 5.66823 45.9008 6.70655 45.0879C7.74488 44.275 12.0044 49.7167 13.0427 48.9038C14.081 48.0909 9.82041 42.65 10.8582 41.8375C11.8959 41.0251 16.1566 46.4659 17.1966 45.6517C18.2366 44.8375 13.9743 39.3979 15.012 38.5854C16.0498 37.7729 20.311 43.2134 21.3465 42.4026C22.3821 41.5919 18.1242 36.1489 19.1653 35.3338C20.2064 34.5187 24.4632 39.9626 25.5009 39.1501C26.5387 38.3376 22.2792 32.8959 23.317 32.0834C24.3547 31.2709 28.6148 36.7122 29.6531 35.8993C30.6914 35.0864 26.4308 29.6455 27.4686 28.833C28.5064 28.0205 32.767 33.4614 33.8053 32.6485C34.8436 31.8356 30.583 26.3947 31.6213 25.5818C32.6596 24.7689 36.9192 30.2106 37.9575 29.3977C38.9958 28.5847 34.7352 23.1439 35.7735 22.331C36.8118 21.518 41.0713 26.9598 42.1097 26.1469C43.148 25.3339 38.8874 19.8931 39.9257 19.0802C40.964 18.2672 45.2235 23.709 46.2619 22.8961C47.3002 22.0831 43.0401 16.6418 44.0779 15.8294C45.1156 15.0169 49.3763 20.4577 50.414 19.6452C51.4518 18.8328 47.1923 13.391 48.2301 12.5785C49.2678 11.7661 53.5285 17.2069 54.5668 16.394C55.6051 15.5811 51.3445 10.1402 52.3828 9.32731C53.4211 8.51439 57.6812 13.9557 58.719 13.1432C59.7567 12.3307 55.4972 6.88899 56.5355 6.07607C57.5739 5.26315 61.8339 10.7044 62.8723 9.89152C63.9106 9.0786 59.6505 3.63731 60.6883 2.82482" stroke="#001141" stroke-width="0.0392" stroke-miterlimit="10"/>
<path d="M16.2266 82.9106C17.2643 82.0982 21.5244 87.5395 22.5627 86.7265C23.601 85.9136 19.3404 80.4728 20.3787 79.6598C21.4171 78.8469 25.6766 84.2887 26.7149 83.4757C27.7532 82.6628 23.4926 77.222 24.5309 76.409C25.5693 75.5961 29.8288 81.0378 30.8671 80.2249C31.9054 79.412 27.6448 73.9711 28.6831 73.1582C29.7214 72.3453 33.981 77.787 35.0193 76.9741C36.0576 76.1612 31.797 70.7203 32.8347 69.9079C33.8725 69.0954 38.1331 74.5362 39.1731 73.722C40.2131 72.9078 35.9508 67.4682 36.9886 66.6557C38.0264 65.8433 42.2875 71.2837 43.3231 70.4729C44.3586 69.6622 40.1008 64.2192 41.1419 63.4041C42.183 62.589 46.4397 68.0329 47.4775 67.2204C48.5153 66.4079 44.2558 60.9662 45.2935 60.1537C46.3313 59.3412 50.5914 64.7825 51.6297 63.9696C52.668 63.1567 48.4074 57.7158 49.4451 56.9033C50.4829 56.0908 54.7435 61.5317 55.7819 60.7188C56.8202 59.9059 52.5596 54.465 53.5979 53.6521C54.6362 52.8392 58.8957 58.2809 59.934 57.468C60.9724 56.6551 56.7117 51.2142 57.7501 50.4013C58.7884 49.5884 63.0479 55.0301 64.0862 54.2172C65.1246 53.4043 60.8639 47.9634 61.9023 47.1505C62.9406 46.3376 67.2001 51.7793 68.2384 50.9664C69.2767 50.1534 65.0167 44.7121 66.0544 43.8997C67.0922 43.0872 71.3528 48.528 72.3906 47.7156C73.4284 46.9031 69.1689 41.4613 70.2066 40.6489C71.2444 39.8364 75.505 45.2772 76.5433 44.4643C77.5817 43.6514 73.321 38.2105 74.3594 37.3976C75.3977 36.5847 79.6578 42.026 80.6955 41.2135C81.7333 40.401 77.4738 34.9593 78.5121 34.1464C79.5504 33.3335 83.8105 38.7748 84.8488 37.9618C85.8871 37.1489 81.6271 31.7076 82.6648 30.8951" stroke="#001141" stroke-width="0.0392" stroke-miterlimit="10"/>
</g>
<defs>
<clipPath id="clip0_2570_209333">
<rect width="56" height="56" fill="white" transform="translate(0.640625 0.138184)"/>
</clipPath>
</defs>
</svg>
