<svg width="57" height="57" viewBox="0 0 57 57" fill="none" xmlns="http://www.w3.org/2000/svg">
<g clip-path="url(#clip0_117_73019)">
<path fill-rule="evenodd" clip-rule="evenodd" d="M2.06143 2.45977C2.56027 2.45977 2.96465 2.05538 2.96465 1.55655C2.96465 1.05771 2.56027 0.65332 2.06143 0.65332C1.56259 0.65332 1.1582 1.05771 1.1582 1.55655C1.1582 2.05538 1.56259 2.45977 2.06143 2.45977ZM2.06143 2.23397C2.43556 2.23397 2.73885 1.93067 2.73885 1.55655C2.73885 1.18242 2.43556 0.879127 2.06143 0.879127C1.6873 0.879127 1.38401 1.18242 1.38401 1.55655C1.38401 1.93067 1.6873 2.23397 2.06143 2.23397ZM5.834 1.55655L6.50575 0.8848L6.34608 0.725131L5.67433 1.39688L5.00259 0.725131L4.84292 0.8848L5.51466 1.55655L4.84292 2.22829L5.00259 2.38796L5.67433 1.71622L6.34608 2.38796L6.50575 2.22829L5.834 1.55655ZM5.67433 6.07268C6.17317 6.07268 6.57756 5.66829 6.57756 5.16945C6.57756 4.67061 6.17317 4.26622 5.67433 4.26622C5.17549 4.26622 4.77111 4.67061 4.77111 5.16945C4.77111 5.66829 5.17549 6.07268 5.67433 6.07268ZM5.67433 5.84687C6.04846 5.84687 6.35175 5.54358 6.35175 5.16945C6.35175 4.79532 6.04846 4.49203 5.67433 4.49203C5.3002 4.49203 4.99691 4.79532 4.99691 5.16945C4.99691 5.54358 5.3002 5.84687 5.67433 5.84687ZM2.2211 5.16945L2.89284 4.4977L2.73317 4.33803L2.06143 5.00978L1.38968 4.33803L1.23001 4.4977L1.90176 5.16945L1.23001 5.8412L1.38968 6.00086L2.06143 5.32912L2.73317 6.00086L2.89284 5.8412L2.2211 5.16945Z" fill="#1E1E1E"/>
<path fill-rule="evenodd" clip-rule="evenodd" d="M9.13955 2.45977C9.63839 2.45977 10.0428 2.05538 10.0428 1.55655C10.0428 1.05771 9.63839 0.65332 9.13955 0.65332C8.64072 0.65332 8.23633 1.05771 8.23633 1.55655C8.23633 2.05538 8.64072 2.45977 9.13955 2.45977ZM9.13955 2.23397C9.51368 2.23397 9.81697 1.93067 9.81697 1.55655C9.81697 1.18242 9.51368 0.879127 9.13955 0.879127C8.76543 0.879127 8.46213 1.18242 8.46213 1.55655C8.46213 1.93067 8.76543 2.23397 9.13955 2.23397ZM12.9121 1.55655L13.5839 0.8848L13.4242 0.725131L12.7525 1.39688L12.0807 0.725131L11.921 0.8848L12.5928 1.55655L11.921 2.22829L12.0807 2.38796L12.7525 1.71622L13.4242 2.38796L13.5839 2.22829L12.9121 1.55655ZM12.7525 6.07268C13.2513 6.07268 13.6557 5.66829 13.6557 5.16945C13.6557 4.67061 13.2513 4.26622 12.7525 4.26622C12.2536 4.26622 11.8492 4.67061 11.8492 5.16945C11.8492 5.66829 12.2536 6.07268 12.7525 6.07268ZM12.7525 5.84687C13.1266 5.84687 13.4299 5.54358 13.4299 5.16945C13.4299 4.79532 13.1266 4.49203 12.7525 4.49203C12.3783 4.49203 12.075 4.79532 12.075 5.16945C12.075 5.54358 12.3783 5.84687 12.7525 5.84687ZM9.29922 5.16945L9.97097 4.4977L9.8113 4.33803L9.13955 5.00978L8.46781 4.33803L8.30814 4.4977L8.97988 5.16945L8.30814 5.8412L8.46781 6.00086L9.13955 5.32912L9.8113 6.00086L9.97097 5.8412L9.29922 5.16945Z" fill="#1E1E1E"/>
<path fill-rule="evenodd" clip-rule="evenodd" d="M16.2177 2.45977C16.7165 2.45977 17.1209 2.05538 17.1209 1.55655C17.1209 1.05771 16.7165 0.65332 16.2177 0.65332C15.7188 0.65332 15.3145 1.05771 15.3145 1.55655C15.3145 2.05538 15.7188 2.45977 16.2177 2.45977ZM16.2177 2.23397C16.5918 2.23397 16.8951 1.93067 16.8951 1.55655C16.8951 1.18242 16.5918 0.879127 16.2177 0.879127C15.8436 0.879127 15.5403 1.18242 15.5403 1.55655C15.5403 1.93067 15.8436 2.23397 16.2177 2.23397ZM19.9903 1.55655L20.662 0.8848L20.5023 0.725131L19.8306 1.39688L19.1588 0.725131L18.9992 0.8848L19.6709 1.55655L18.9992 2.22829L19.1588 2.38796L19.8306 1.71622L20.5023 2.38796L20.662 2.22829L19.9903 1.55655ZM19.8306 6.07268C20.3294 6.07268 20.7338 5.66829 20.7338 5.16945C20.7338 4.67061 20.3294 4.26622 19.8306 4.26622C19.3317 4.26622 18.9274 4.67061 18.9274 5.16945C18.9274 5.66829 19.3317 6.07268 19.8306 6.07268ZM19.8306 5.84687C20.2047 5.84687 20.508 5.54358 20.508 5.16945C20.508 4.79532 20.2047 4.49203 19.8306 4.49203C19.4565 4.49203 19.1532 4.79532 19.1532 5.16945C19.1532 5.54358 19.4565 5.84687 19.8306 5.84687ZM16.3773 5.16945L17.0491 4.4977L16.8894 4.33803L16.2177 5.00978L15.5459 4.33803L15.3863 4.4977L16.058 5.16945L15.3863 5.8412L15.5459 6.00086L16.2177 5.32912L16.8894 6.00086L17.0491 5.8412L16.3773 5.16945Z" fill="#1E1E1E"/>
<path fill-rule="evenodd" clip-rule="evenodd" d="M23.2978 2.45977C23.7966 2.45977 24.201 2.05538 24.201 1.55655C24.201 1.05771 23.7966 0.65332 23.2978 0.65332C22.7989 0.65332 22.3945 1.05771 22.3945 1.55655C22.3945 2.05538 22.7989 2.45977 23.2978 2.45977ZM23.2978 2.23397C23.6719 2.23397 23.9752 1.93067 23.9752 1.55655C23.9752 1.18242 23.6719 0.879127 23.2978 0.879127C22.9236 0.879127 22.6203 1.18242 22.6203 1.55655C22.6203 1.93067 22.9236 2.23397 23.2978 2.23397ZM27.0703 1.55655L27.7421 0.8848L27.5824 0.725131L26.9107 1.39688L26.2389 0.725131L26.0792 0.8848L26.751 1.55655L26.0792 2.22829L26.2389 2.38796L26.9107 1.71622L27.5824 2.38796L27.7421 2.22829L27.0703 1.55655ZM26.9107 6.07268C27.4095 6.07268 27.8139 5.66829 27.8139 5.16945C27.8139 4.67061 27.4095 4.26622 26.9107 4.26622C26.4118 4.26622 26.0074 4.67061 26.0074 5.16945C26.0074 5.66829 26.4118 6.07268 26.9107 6.07268ZM26.9107 5.84687C27.2848 5.84687 27.5881 5.54358 27.5881 5.16945C27.5881 4.79532 27.2848 4.49203 26.9107 4.49203C26.5365 4.49203 26.2332 4.79532 26.2332 5.16945C26.2332 5.54358 26.5365 5.84687 26.9107 5.84687ZM23.4574 5.16945L24.1292 4.4977L23.9695 4.33803L23.2978 5.00978L22.626 4.33803L22.4663 4.4977L23.1381 5.16945L22.4663 5.8412L22.626 6.00086L23.2978 5.32912L23.9695 6.00086L24.1292 5.8412L23.4574 5.16945Z" fill="#1E1E1E"/>
<path fill-rule="evenodd" clip-rule="evenodd" d="M30.3759 2.45977C30.8747 2.45977 31.2791 2.05538 31.2791 1.55655C31.2791 1.05771 30.8747 0.65332 30.3759 0.65332C29.877 0.65332 29.4727 1.05771 29.4727 1.55655C29.4727 2.05538 29.877 2.45977 30.3759 2.45977ZM30.3759 2.23397C30.75 2.23397 31.0533 1.93067 31.0533 1.55655C31.0533 1.18242 30.75 0.879127 30.3759 0.879127C30.0018 0.879127 29.6985 1.18242 29.6985 1.55655C29.6985 1.93067 30.0018 2.23397 30.3759 2.23397ZM34.1485 1.55655L34.8202 0.8848L34.6605 0.725131L33.9888 1.39688L33.317 0.725131L33.1574 0.8848L33.8291 1.55655L33.1574 2.22829L33.317 2.38796L33.9888 1.71622L34.6605 2.38796L34.8202 2.22829L34.1485 1.55655ZM33.9888 6.07268C34.4876 6.07268 34.892 5.66829 34.892 5.16945C34.892 4.67061 34.4876 4.26622 33.9888 4.26622C33.4899 4.26622 33.0856 4.67061 33.0856 5.16945C33.0856 5.66829 33.4899 6.07268 33.9888 6.07268ZM33.9888 5.84687C34.3629 5.84687 34.6662 5.54358 34.6662 5.16945C34.6662 4.79532 34.3629 4.49203 33.9888 4.49203C33.6147 4.49203 33.3114 4.79532 33.3114 5.16945C33.3114 5.54358 33.6147 5.84687 33.9888 5.84687ZM30.5356 5.16945L31.2073 4.4977L31.0476 4.33803L30.3759 5.00978L29.7041 4.33803L29.5445 4.4977L30.2162 5.16945L29.5445 5.8412L29.7041 6.00086L30.3759 5.32912L31.0476 6.00086L31.2073 5.8412L30.5356 5.16945Z" fill="#1E1E1E"/>
<path fill-rule="evenodd" clip-rule="evenodd" d="M37.454 2.45977C37.9528 2.45977 38.3572 2.05538 38.3572 1.55655C38.3572 1.05771 37.9528 0.65332 37.454 0.65332C36.9552 0.65332 36.5508 1.05771 36.5508 1.55655C36.5508 2.05538 36.9552 2.45977 37.454 2.45977ZM37.454 2.23397C37.8281 2.23397 38.1314 1.93067 38.1314 1.55655C38.1314 1.18242 37.8281 0.879127 37.454 0.879127C37.0799 0.879127 36.7766 1.18242 36.7766 1.55655C36.7766 1.93067 37.0799 2.23397 37.454 2.23397ZM41.2266 1.55655L41.8983 0.8848L41.7387 0.725131L41.0669 1.39688L40.3952 0.725131L40.2355 0.8848L40.9072 1.55655L40.2355 2.22829L40.3952 2.38796L41.0669 1.71622L41.7387 2.38796L41.8983 2.22829L41.2266 1.55655ZM41.0669 6.07268C41.5657 6.07268 41.9701 5.66829 41.9701 5.16945C41.9701 4.67061 41.5657 4.26622 41.0669 4.26622C40.5681 4.26622 40.1637 4.67061 40.1637 5.16945C40.1637 5.66829 40.5681 6.07268 41.0669 6.07268ZM41.0669 5.84687C41.441 5.84687 41.7443 5.54358 41.7443 5.16945C41.7443 4.79532 41.441 4.49203 41.0669 4.49203C40.6928 4.49203 40.3895 4.79532 40.3895 5.16945C40.3895 5.54358 40.6928 5.84687 41.0669 5.84687ZM37.6137 5.16945L38.2854 4.4977L38.1258 4.33803L37.454 5.00978L36.7823 4.33803L36.6226 4.4977L37.2943 5.16945L36.6226 5.8412L36.7823 6.00086L37.454 5.32912L38.1258 6.00086L38.2854 5.8412L37.6137 5.16945Z" fill="#1E1E1E"/>
<path fill-rule="evenodd" clip-rule="evenodd" d="M44.5321 2.45977C45.031 2.45977 45.4354 2.05538 45.4354 1.55655C45.4354 1.05771 45.031 0.65332 44.5321 0.65332C44.0333 0.65332 43.6289 1.05771 43.6289 1.55655C43.6289 2.05538 44.0333 2.45977 44.5321 2.45977ZM44.5321 2.23397C44.9063 2.23397 45.2096 1.93067 45.2096 1.55655C45.2096 1.18242 44.9063 0.879127 44.5321 0.879127C44.158 0.879127 43.8547 1.18242 43.8547 1.55655C43.8547 1.93067 44.158 2.23397 44.5321 2.23397ZM48.3047 1.55655L48.9765 0.8848L48.8168 0.725131L48.145 1.39688L47.4733 0.725131L47.3136 0.8848L47.9854 1.55655L47.3136 2.22829L47.4733 2.38796L48.145 1.71622L48.8168 2.38796L48.9765 2.22829L48.3047 1.55655ZM48.145 6.07268C48.6439 6.07268 49.0483 5.66829 49.0483 5.16945C49.0483 4.67061 48.6439 4.26622 48.145 4.26622C47.6462 4.26622 47.2418 4.67061 47.2418 5.16945C47.2418 5.66829 47.6462 6.07268 48.145 6.07268ZM48.145 5.84687C48.5192 5.84687 48.8225 5.54358 48.8225 5.16945C48.8225 4.79532 48.5192 4.49203 48.145 4.49203C47.7709 4.49203 47.4676 4.79532 47.4676 5.16945C47.4676 5.54358 47.7709 5.84687 48.145 5.84687ZM44.6918 5.16945L45.3635 4.4977L45.2039 4.33803L44.5321 5.00978L43.8604 4.33803L43.7007 4.4977L44.3725 5.16945L43.7007 5.8412L43.8604 6.00086L44.5321 5.32912L45.2039 6.00086L45.3635 5.8412L44.6918 5.16945Z" fill="#1E1E1E"/>
<path fill-rule="evenodd" clip-rule="evenodd" d="M51.6122 2.45977C52.111 2.45977 52.5154 2.05538 52.5154 1.55655C52.5154 1.05771 52.111 0.65332 51.6122 0.65332C51.1134 0.65332 50.709 1.05771 50.709 1.55655C50.709 2.05538 51.1134 2.45977 51.6122 2.45977ZM51.6122 2.23397C51.9863 2.23397 52.2896 1.93067 52.2896 1.55655C52.2896 1.18242 51.9863 0.879127 51.6122 0.879127C51.2381 0.879127 50.9348 1.18242 50.9348 1.55655C50.9348 1.93067 51.2381 2.23397 51.6122 2.23397ZM55.3848 1.55655L56.0565 0.8848L55.8969 0.725131L55.2251 1.39688L54.5534 0.725131L54.3937 0.8848L55.0654 1.55655L54.3937 2.22829L54.5534 2.38796L55.2251 1.71622L55.8969 2.38796L56.0565 2.22829L55.3848 1.55655ZM55.2251 6.07268C55.724 6.07268 56.1283 5.66829 56.1283 5.16945C56.1283 4.67061 55.724 4.26622 55.2251 4.26622C54.7263 4.26622 54.3219 4.67061 54.3219 5.16945C54.3219 5.66829 54.7263 6.07268 55.2251 6.07268ZM55.2251 5.84687C55.5992 5.84687 55.9025 5.54358 55.9025 5.16945C55.9025 4.79532 55.5992 4.49203 55.2251 4.49203C54.851 4.49203 54.5477 4.79532 54.5477 5.16945C54.5477 5.54358 54.851 5.84687 55.2251 5.84687ZM51.7719 5.16945L52.4436 4.4977L52.284 4.33803L51.6122 5.00978L50.9405 4.33803L50.7808 4.4977L51.4525 5.16945L50.7808 5.8412L50.9405 6.00086L51.6122 5.32912L52.284 6.00086L52.4436 5.8412L51.7719 5.16945Z" fill="#1E1E1E"/>
<path fill-rule="evenodd" clip-rule="evenodd" d="M2.06143 9.53839C2.56027 9.53839 2.96465 9.134 2.96465 8.63516C2.96465 8.13632 2.56027 7.73193 2.06143 7.73193C1.56259 7.73193 1.1582 8.13632 1.1582 8.63516C1.1582 9.134 1.56259 9.53839 2.06143 9.53839ZM2.06143 9.31258C2.43556 9.31258 2.73885 9.00929 2.73885 8.63516C2.73885 8.26103 2.43556 7.95774 2.06143 7.95774C1.6873 7.95774 1.38401 8.26103 1.38401 8.63516C1.38401 9.00929 1.6873 9.31258 2.06143 9.31258ZM5.834 8.63516L6.50575 7.96341L6.34608 7.80374L5.67433 8.47549L5.00259 7.80374L4.84292 7.96341L5.51466 8.63516L4.84292 9.30691L5.00259 9.46657L5.67433 8.79483L6.34608 9.46657L6.50575 9.30691L5.834 8.63516ZM5.67433 13.1513C6.17317 13.1513 6.57756 12.7469 6.57756 12.2481C6.57756 11.7492 6.17317 11.3448 5.67433 11.3448C5.17549 11.3448 4.77111 11.7492 4.77111 12.2481C4.77111 12.7469 5.17549 13.1513 5.67433 13.1513ZM5.67433 12.9255C6.04846 12.9255 6.35175 12.6222 6.35175 12.2481C6.35175 11.8739 6.04846 11.5706 5.67433 11.5706C5.3002 11.5706 4.99691 11.8739 4.99691 12.2481C4.99691 12.6222 5.3002 12.9255 5.67433 12.9255ZM2.2211 12.2481L2.89284 11.5763L2.73317 11.4166L2.06143 12.0884L1.38968 11.4166L1.23001 11.5763L1.90176 12.2481L1.23001 12.9198L1.38968 13.0795L2.06143 12.4077L2.73317 13.0795L2.89284 12.9198L2.2211 12.2481Z" fill="#1E1E1E"/>
<path fill-rule="evenodd" clip-rule="evenodd" d="M9.13955 9.53839C9.63839 9.53839 10.0428 9.134 10.0428 8.63516C10.0428 8.13632 9.63839 7.73193 9.13955 7.73193C8.64072 7.73193 8.23633 8.13632 8.23633 8.63516C8.23633 9.134 8.64072 9.53839 9.13955 9.53839ZM9.13955 9.31258C9.51368 9.31258 9.81697 9.00929 9.81697 8.63516C9.81697 8.26103 9.51368 7.95774 9.13955 7.95774C8.76543 7.95774 8.46213 8.26103 8.46213 8.63516C8.46213 9.00929 8.76543 9.31258 9.13955 9.31258ZM12.9121 8.63516L13.5839 7.96341L13.4242 7.80374L12.7525 8.47549L12.0807 7.80374L11.921 7.96341L12.5928 8.63516L11.921 9.30691L12.0807 9.46657L12.7525 8.79483L13.4242 9.46657L13.5839 9.30691L12.9121 8.63516ZM12.7525 13.1513C13.2513 13.1513 13.6557 12.7469 13.6557 12.2481C13.6557 11.7492 13.2513 11.3448 12.7525 11.3448C12.2536 11.3448 11.8492 11.7492 11.8492 12.2481C11.8492 12.7469 12.2536 13.1513 12.7525 13.1513ZM12.7525 12.9255C13.1266 12.9255 13.4299 12.6222 13.4299 12.2481C13.4299 11.8739 13.1266 11.5706 12.7525 11.5706C12.3783 11.5706 12.075 11.8739 12.075 12.2481C12.075 12.6222 12.3783 12.9255 12.7525 12.9255ZM9.29922 12.2481L9.97097 11.5763L9.8113 11.4166L9.13955 12.0884L8.46781 11.4166L8.30814 11.5763L8.97988 12.2481L8.30814 12.9198L8.46781 13.0795L9.13955 12.4077L9.8113 13.0795L9.97097 12.9198L9.29922 12.2481Z" fill="#1E1E1E"/>
<path fill-rule="evenodd" clip-rule="evenodd" d="M16.2177 9.53839C16.7165 9.53839 17.1209 9.134 17.1209 8.63516C17.1209 8.13632 16.7165 7.73193 16.2177 7.73193C15.7188 7.73193 15.3145 8.13632 15.3145 8.63516C15.3145 9.134 15.7188 9.53839 16.2177 9.53839ZM16.2177 9.31258C16.5918 9.31258 16.8951 9.00929 16.8951 8.63516C16.8951 8.26103 16.5918 7.95774 16.2177 7.95774C15.8436 7.95774 15.5403 8.26103 15.5403 8.63516C15.5403 9.00929 15.8436 9.31258 16.2177 9.31258ZM19.9903 8.63516L20.662 7.96341L20.5023 7.80374L19.8306 8.47549L19.1588 7.80374L18.9992 7.96341L19.6709 8.63516L18.9992 9.30691L19.1588 9.46657L19.8306 8.79483L20.5023 9.46657L20.662 9.30691L19.9903 8.63516ZM19.8306 13.1513C20.3294 13.1513 20.7338 12.7469 20.7338 12.2481C20.7338 11.7492 20.3294 11.3448 19.8306 11.3448C19.3317 11.3448 18.9274 11.7492 18.9274 12.2481C18.9274 12.7469 19.3317 13.1513 19.8306 13.1513ZM19.8306 12.9255C20.2047 12.9255 20.508 12.6222 20.508 12.2481C20.508 11.8739 20.2047 11.5706 19.8306 11.5706C19.4565 11.5706 19.1532 11.8739 19.1532 12.2481C19.1532 12.6222 19.4565 12.9255 19.8306 12.9255ZM16.3773 12.2481L17.0491 11.5763L16.8894 11.4166L16.2177 12.0884L15.5459 11.4166L15.3863 11.5763L16.058 12.2481L15.3863 12.9198L15.5459 13.0795L16.2177 12.4077L16.8894 13.0795L17.0491 12.9198L16.3773 12.2481Z" fill="#1E1E1E"/>
<path fill-rule="evenodd" clip-rule="evenodd" d="M23.2978 9.53839C23.7966 9.53839 24.201 9.134 24.201 8.63516C24.201 8.13632 23.7966 7.73193 23.2978 7.73193C22.7989 7.73193 22.3945 8.13632 22.3945 8.63516C22.3945 9.134 22.7989 9.53839 23.2978 9.53839ZM23.2978 9.31258C23.6719 9.31258 23.9752 9.00929 23.9752 8.63516C23.9752 8.26103 23.6719 7.95774 23.2978 7.95774C22.9236 7.95774 22.6203 8.26103 22.6203 8.63516C22.6203 9.00929 22.9236 9.31258 23.2978 9.31258ZM27.0703 8.63516L27.7421 7.96341L27.5824 7.80374L26.9107 8.47549L26.2389 7.80374L26.0792 7.96341L26.751 8.63516L26.0792 9.30691L26.2389 9.46657L26.9107 8.79483L27.5824 9.46657L27.7421 9.30691L27.0703 8.63516ZM26.9107 13.1513C27.4095 13.1513 27.8139 12.7469 27.8139 12.2481C27.8139 11.7492 27.4095 11.3448 26.9107 11.3448C26.4118 11.3448 26.0074 11.7492 26.0074 12.2481C26.0074 12.7469 26.4118 13.1513 26.9107 13.1513ZM26.9107 12.9255C27.2848 12.9255 27.5881 12.6222 27.5881 12.2481C27.5881 11.8739 27.2848 11.5706 26.9107 11.5706C26.5365 11.5706 26.2332 11.8739 26.2332 12.2481C26.2332 12.6222 26.5365 12.9255 26.9107 12.9255ZM23.4574 12.2481L24.1292 11.5763L23.9695 11.4166L23.2978 12.0884L22.626 11.4166L22.4663 11.5763L23.1381 12.2481L22.4663 12.9198L22.626 13.0795L23.2978 12.4077L23.9695 13.0795L24.1292 12.9198L23.4574 12.2481Z" fill="#1E1E1E"/>
<path fill-rule="evenodd" clip-rule="evenodd" d="M30.3759 9.53839C30.8747 9.53839 31.2791 9.134 31.2791 8.63516C31.2791 8.13632 30.8747 7.73193 30.3759 7.73193C29.877 7.73193 29.4727 8.13632 29.4727 8.63516C29.4727 9.134 29.877 9.53839 30.3759 9.53839ZM30.3759 9.31258C30.75 9.31258 31.0533 9.00929 31.0533 8.63516C31.0533 8.26103 30.75 7.95774 30.3759 7.95774C30.0018 7.95774 29.6985 8.26103 29.6985 8.63516C29.6985 9.00929 30.0018 9.31258 30.3759 9.31258ZM34.1485 8.63516L34.8202 7.96341L34.6605 7.80374L33.9888 8.47549L33.317 7.80374L33.1574 7.96341L33.8291 8.63516L33.1574 9.30691L33.317 9.46657L33.9888 8.79483L34.6605 9.46657L34.8202 9.30691L34.1485 8.63516ZM33.9888 13.1513C34.4876 13.1513 34.892 12.7469 34.892 12.2481C34.892 11.7492 34.4876 11.3448 33.9888 11.3448C33.4899 11.3448 33.0856 11.7492 33.0856 12.2481C33.0856 12.7469 33.4899 13.1513 33.9888 13.1513ZM33.9888 12.9255C34.3629 12.9255 34.6662 12.6222 34.6662 12.2481C34.6662 11.8739 34.3629 11.5706 33.9888 11.5706C33.6147 11.5706 33.3114 11.8739 33.3114 12.2481C33.3114 12.6222 33.6147 12.9255 33.9888 12.9255ZM30.5356 12.2481L31.2073 11.5763L31.0476 11.4166L30.3759 12.0884L29.7041 11.4166L29.5445 11.5763L30.2162 12.2481L29.5445 12.9198L29.7041 13.0795L30.3759 12.4077L31.0476 13.0795L31.2073 12.9198L30.5356 12.2481Z" fill="#1E1E1E"/>
<path fill-rule="evenodd" clip-rule="evenodd" d="M37.454 9.53839C37.9528 9.53839 38.3572 9.134 38.3572 8.63516C38.3572 8.13632 37.9528 7.73193 37.454 7.73193C36.9552 7.73193 36.5508 8.13632 36.5508 8.63516C36.5508 9.134 36.9552 9.53839 37.454 9.53839ZM37.454 9.31258C37.8281 9.31258 38.1314 9.00929 38.1314 8.63516C38.1314 8.26103 37.8281 7.95774 37.454 7.95774C37.0799 7.95774 36.7766 8.26103 36.7766 8.63516C36.7766 9.00929 37.0799 9.31258 37.454 9.31258ZM41.2266 8.63516L41.8983 7.96341L41.7387 7.80374L41.0669 8.47549L40.3952 7.80374L40.2355 7.96341L40.9072 8.63516L40.2355 9.30691L40.3952 9.46657L41.0669 8.79483L41.7387 9.46657L41.8983 9.30691L41.2266 8.63516ZM41.0669 13.1513C41.5657 13.1513 41.9701 12.7469 41.9701 12.2481C41.9701 11.7492 41.5657 11.3448 41.0669 11.3448C40.5681 11.3448 40.1637 11.7492 40.1637 12.2481C40.1637 12.7469 40.5681 13.1513 41.0669 13.1513ZM41.0669 12.9255C41.441 12.9255 41.7443 12.6222 41.7443 12.2481C41.7443 11.8739 41.441 11.5706 41.0669 11.5706C40.6928 11.5706 40.3895 11.8739 40.3895 12.2481C40.3895 12.6222 40.6928 12.9255 41.0669 12.9255ZM37.6137 12.2481L38.2854 11.5763L38.1258 11.4166L37.454 12.0884L36.7823 11.4166L36.6226 11.5763L37.2943 12.2481L36.6226 12.9198L36.7823 13.0795L37.454 12.4077L38.1258 13.0795L38.2854 12.9198L37.6137 12.2481Z" fill="#1E1E1E"/>
<path fill-rule="evenodd" clip-rule="evenodd" d="M44.5321 9.53839C45.031 9.53839 45.4354 9.134 45.4354 8.63516C45.4354 8.13632 45.031 7.73193 44.5321 7.73193C44.0333 7.73193 43.6289 8.13632 43.6289 8.63516C43.6289 9.134 44.0333 9.53839 44.5321 9.53839ZM44.5321 9.31258C44.9063 9.31258 45.2096 9.00929 45.2096 8.63516C45.2096 8.26103 44.9063 7.95774 44.5321 7.95774C44.158 7.95774 43.8547 8.26103 43.8547 8.63516C43.8547 9.00929 44.158 9.31258 44.5321 9.31258ZM48.3047 8.63516L48.9765 7.96341L48.8168 7.80374L48.145 8.47549L47.4733 7.80374L47.3136 7.96341L47.9854 8.63516L47.3136 9.30691L47.4733 9.46657L48.145 8.79483L48.8168 9.46657L48.9765 9.30691L48.3047 8.63516ZM48.145 13.1513C48.6439 13.1513 49.0483 12.7469 49.0483 12.2481C49.0483 11.7492 48.6439 11.3448 48.145 11.3448C47.6462 11.3448 47.2418 11.7492 47.2418 12.2481C47.2418 12.7469 47.6462 13.1513 48.145 13.1513ZM48.145 12.9255C48.5192 12.9255 48.8225 12.6222 48.8225 12.2481C48.8225 11.8739 48.5192 11.5706 48.145 11.5706C47.7709 11.5706 47.4676 11.8739 47.4676 12.2481C47.4676 12.6222 47.7709 12.9255 48.145 12.9255ZM44.6918 12.2481L45.3635 11.5763L45.2039 11.4166L44.5321 12.0884L43.8604 11.4166L43.7007 11.5763L44.3725 12.2481L43.7007 12.9198L43.8604 13.0795L44.5321 12.4077L45.2039 13.0795L45.3635 12.9198L44.6918 12.2481Z" fill="#1E1E1E"/>
<path fill-rule="evenodd" clip-rule="evenodd" d="M51.6122 9.53839C52.111 9.53839 52.5154 9.134 52.5154 8.63516C52.5154 8.13632 52.111 7.73193 51.6122 7.73193C51.1134 7.73193 50.709 8.13632 50.709 8.63516C50.709 9.134 51.1134 9.53839 51.6122 9.53839ZM51.6122 9.31258C51.9863 9.31258 52.2896 9.00929 52.2896 8.63516C52.2896 8.26103 51.9863 7.95774 51.6122 7.95774C51.2381 7.95774 50.9348 8.26103 50.9348 8.63516C50.9348 9.00929 51.2381 9.31258 51.6122 9.31258ZM55.3848 8.63516L56.0565 7.96341L55.8969 7.80374L55.2251 8.47549L54.5534 7.80374L54.3937 7.96341L55.0654 8.63516L54.3937 9.30691L54.5534 9.46657L55.2251 8.79483L55.8969 9.46657L56.0565 9.30691L55.3848 8.63516ZM55.2251 13.1513C55.724 13.1513 56.1283 12.7469 56.1283 12.2481C56.1283 11.7492 55.724 11.3448 55.2251 11.3448C54.7263 11.3448 54.3219 11.7492 54.3219 12.2481C54.3219 12.7469 54.7263 13.1513 55.2251 13.1513ZM55.2251 12.9255C55.5992 12.9255 55.9025 12.6222 55.9025 12.2481C55.9025 11.8739 55.5992 11.5706 55.2251 11.5706C54.851 11.5706 54.5477 11.8739 54.5477 12.2481C54.5477 12.6222 54.851 12.9255 55.2251 12.9255ZM51.7719 12.2481L52.4436 11.5763L52.284 11.4166L51.6122 12.0884L50.9405 11.4166L50.7808 11.5763L51.4525 12.2481L50.7808 12.9198L50.9405 13.0795L51.6122 12.4077L52.284 13.0795L52.4436 12.9198L51.7719 12.2481Z" fill="#1E1E1E"/>
<path fill-rule="evenodd" clip-rule="evenodd" d="M2.06143 16.617C2.56027 16.617 2.96465 16.2126 2.96465 15.7138C2.96465 15.2149 2.56027 14.8105 2.06143 14.8105C1.56259 14.8105 1.1582 15.2149 1.1582 15.7138C1.1582 16.2126 1.56259 16.617 2.06143 16.617ZM2.06143 16.3912C2.43556 16.3912 2.73885 16.0879 2.73885 15.7138C2.73885 15.3396 2.43556 15.0364 2.06143 15.0364C1.6873 15.0364 1.38401 15.3396 1.38401 15.7138C1.38401 16.0879 1.6873 16.3912 2.06143 16.3912ZM5.834 15.7138L6.50575 15.042L6.34608 14.8824L5.67433 15.5541L5.00259 14.8824L4.84292 15.042L5.51466 15.7138L4.84292 16.3855L5.00259 16.5452L5.67433 15.8734L6.34608 16.5452L6.50575 16.3855L5.834 15.7138ZM5.67433 20.2299C6.17317 20.2299 6.57756 19.8255 6.57756 19.3267C6.57756 18.8278 6.17317 18.4235 5.67433 18.4235C5.17549 18.4235 4.77111 18.8278 4.77111 19.3267C4.77111 19.8255 5.17549 20.2299 5.67433 20.2299ZM5.67433 20.0041C6.04846 20.0041 6.35175 19.7008 6.35175 19.3267C6.35175 18.9525 6.04846 18.6493 5.67433 18.6493C5.3002 18.6493 4.99691 18.9525 4.99691 19.3267C4.99691 19.7008 5.3002 20.0041 5.67433 20.0041ZM2.2211 19.3267L2.89284 18.6549L2.73317 18.4953L2.06143 19.167L1.38968 18.4953L1.23001 18.6549L1.90176 19.3267L1.23001 19.9984L1.38968 20.1581L2.06143 19.4863L2.73317 20.1581L2.89284 19.9984L2.2211 19.3267Z" fill="#1E1E1E"/>
<path fill-rule="evenodd" clip-rule="evenodd" d="M9.13955 16.617C9.63839 16.617 10.0428 16.2126 10.0428 15.7138C10.0428 15.2149 9.63839 14.8105 9.13955 14.8105C8.64072 14.8105 8.23633 15.2149 8.23633 15.7138C8.23633 16.2126 8.64072 16.617 9.13955 16.617ZM9.13955 16.3912C9.51368 16.3912 9.81697 16.0879 9.81697 15.7138C9.81697 15.3396 9.51368 15.0364 9.13955 15.0364C8.76543 15.0364 8.46213 15.3396 8.46213 15.7138C8.46213 16.0879 8.76543 16.3912 9.13955 16.3912ZM12.9121 15.7138L13.5839 15.042L13.4242 14.8824L12.7525 15.5541L12.0807 14.8824L11.921 15.042L12.5928 15.7138L11.921 16.3855L12.0807 16.5452L12.7525 15.8734L13.4242 16.5452L13.5839 16.3855L12.9121 15.7138ZM12.7525 20.2299C13.2513 20.2299 13.6557 19.8255 13.6557 19.3267C13.6557 18.8278 13.2513 18.4235 12.7525 18.4235C12.2536 18.4235 11.8492 18.8278 11.8492 19.3267C11.8492 19.8255 12.2536 20.2299 12.7525 20.2299ZM12.7525 20.0041C13.1266 20.0041 13.4299 19.7008 13.4299 19.3267C13.4299 18.9525 13.1266 18.6493 12.7525 18.6493C12.3783 18.6493 12.075 18.9525 12.075 19.3267C12.075 19.7008 12.3783 20.0041 12.7525 20.0041ZM9.29922 19.3267L9.97097 18.6549L9.8113 18.4953L9.13955 19.167L8.46781 18.4953L8.30814 18.6549L8.97988 19.3267L8.30814 19.9984L8.46781 20.1581L9.13955 19.4863L9.8113 20.1581L9.97097 19.9984L9.29922 19.3267Z" fill="#1E1E1E"/>
<path fill-rule="evenodd" clip-rule="evenodd" d="M16.2177 16.617C16.7165 16.617 17.1209 16.2126 17.1209 15.7138C17.1209 15.2149 16.7165 14.8105 16.2177 14.8105C15.7188 14.8105 15.3145 15.2149 15.3145 15.7138C15.3145 16.2126 15.7188 16.617 16.2177 16.617ZM16.2177 16.3912C16.5918 16.3912 16.8951 16.0879 16.8951 15.7138C16.8951 15.3396 16.5918 15.0364 16.2177 15.0364C15.8436 15.0364 15.5403 15.3396 15.5403 15.7138C15.5403 16.0879 15.8436 16.3912 16.2177 16.3912ZM19.9903 15.7138L20.662 15.042L20.5023 14.8824L19.8306 15.5541L19.1588 14.8824L18.9992 15.042L19.6709 15.7138L18.9992 16.3855L19.1588 16.5452L19.8306 15.8734L20.5023 16.5452L20.662 16.3855L19.9903 15.7138ZM19.8306 20.2299C20.3294 20.2299 20.7338 19.8255 20.7338 19.3267C20.7338 18.8278 20.3294 18.4235 19.8306 18.4235C19.3317 18.4235 18.9274 18.8278 18.9274 19.3267C18.9274 19.8255 19.3317 20.2299 19.8306 20.2299ZM19.8306 20.0041C20.2047 20.0041 20.508 19.7008 20.508 19.3267C20.508 18.9525 20.2047 18.6493 19.8306 18.6493C19.4565 18.6493 19.1532 18.9525 19.1532 19.3267C19.1532 19.7008 19.4565 20.0041 19.8306 20.0041ZM16.3773 19.3267L17.0491 18.6549L16.8894 18.4953L16.2177 19.167L15.5459 18.4953L15.3863 18.6549L16.058 19.3267L15.3863 19.9984L15.5459 20.1581L16.2177 19.4863L16.8894 20.1581L17.0491 19.9984L16.3773 19.3267Z" fill="#1E1E1E"/>
<path fill-rule="evenodd" clip-rule="evenodd" d="M23.2978 16.617C23.7966 16.617 24.201 16.2126 24.201 15.7138C24.201 15.2149 23.7966 14.8105 23.2978 14.8105C22.7989 14.8105 22.3945 15.2149 22.3945 15.7138C22.3945 16.2126 22.7989 16.617 23.2978 16.617ZM23.2978 16.3912C23.6719 16.3912 23.9752 16.0879 23.9752 15.7138C23.9752 15.3396 23.6719 15.0364 23.2978 15.0364C22.9236 15.0364 22.6203 15.3396 22.6203 15.7138C22.6203 16.0879 22.9236 16.3912 23.2978 16.3912ZM27.0703 15.7138L27.7421 15.042L27.5824 14.8824L26.9107 15.5541L26.2389 14.8824L26.0792 15.042L26.751 15.7138L26.0792 16.3855L26.2389 16.5452L26.9107 15.8734L27.5824 16.5452L27.7421 16.3855L27.0703 15.7138ZM26.9107 20.2299C27.4095 20.2299 27.8139 19.8255 27.8139 19.3267C27.8139 18.8278 27.4095 18.4235 26.9107 18.4235C26.4118 18.4235 26.0074 18.8278 26.0074 19.3267C26.0074 19.8255 26.4118 20.2299 26.9107 20.2299ZM26.9107 20.0041C27.2848 20.0041 27.5881 19.7008 27.5881 19.3267C27.5881 18.9525 27.2848 18.6493 26.9107 18.6493C26.5365 18.6493 26.2332 18.9525 26.2332 19.3267C26.2332 19.7008 26.5365 20.0041 26.9107 20.0041ZM23.4574 19.3267L24.1292 18.6549L23.9695 18.4953L23.2978 19.167L22.626 18.4953L22.4663 18.6549L23.1381 19.3267L22.4663 19.9984L22.626 20.1581L23.2978 19.4863L23.9695 20.1581L24.1292 19.9984L23.4574 19.3267Z" fill="#1E1E1E"/>
<path fill-rule="evenodd" clip-rule="evenodd" d="M30.3759 16.617C30.8747 16.617 31.2791 16.2126 31.2791 15.7138C31.2791 15.2149 30.8747 14.8105 30.3759 14.8105C29.877 14.8105 29.4727 15.2149 29.4727 15.7138C29.4727 16.2126 29.877 16.617 30.3759 16.617ZM30.3759 16.3912C30.75 16.3912 31.0533 16.0879 31.0533 15.7138C31.0533 15.3396 30.75 15.0364 30.3759 15.0364C30.0018 15.0364 29.6985 15.3396 29.6985 15.7138C29.6985 16.0879 30.0018 16.3912 30.3759 16.3912ZM34.1485 15.7138L34.8202 15.042L34.6605 14.8824L33.9888 15.5541L33.317 14.8824L33.1574 15.042L33.8291 15.7138L33.1574 16.3855L33.317 16.5452L33.9888 15.8734L34.6605 16.5452L34.8202 16.3855L34.1485 15.7138ZM33.9888 20.2299C34.4876 20.2299 34.892 19.8255 34.892 19.3267C34.892 18.8278 34.4876 18.4235 33.9888 18.4235C33.4899 18.4235 33.0856 18.8278 33.0856 19.3267C33.0856 19.8255 33.4899 20.2299 33.9888 20.2299ZM33.9888 20.0041C34.3629 20.0041 34.6662 19.7008 34.6662 19.3267C34.6662 18.9525 34.3629 18.6493 33.9888 18.6493C33.6147 18.6493 33.3114 18.9525 33.3114 19.3267C33.3114 19.7008 33.6147 20.0041 33.9888 20.0041ZM30.5356 19.3267L31.2073 18.6549L31.0476 18.4953L30.3759 19.167L29.7041 18.4953L29.5445 18.6549L30.2162 19.3267L29.5445 19.9984L29.7041 20.1581L30.3759 19.4863L31.0476 20.1581L31.2073 19.9984L30.5356 19.3267Z" fill="#1E1E1E"/>
<path fill-rule="evenodd" clip-rule="evenodd" d="M37.454 16.617C37.9528 16.617 38.3572 16.2126 38.3572 15.7138C38.3572 15.2149 37.9528 14.8105 37.454 14.8105C36.9552 14.8105 36.5508 15.2149 36.5508 15.7138C36.5508 16.2126 36.9552 16.617 37.454 16.617ZM37.454 16.3912C37.8281 16.3912 38.1314 16.0879 38.1314 15.7138C38.1314 15.3396 37.8281 15.0364 37.454 15.0364C37.0799 15.0364 36.7766 15.3396 36.7766 15.7138C36.7766 16.0879 37.0799 16.3912 37.454 16.3912ZM41.2266 15.7138L41.8983 15.042L41.7387 14.8824L41.0669 15.5541L40.3952 14.8824L40.2355 15.042L40.9072 15.7138L40.2355 16.3855L40.3952 16.5452L41.0669 15.8734L41.7387 16.5452L41.8983 16.3855L41.2266 15.7138ZM41.0669 20.2299C41.5657 20.2299 41.9701 19.8255 41.9701 19.3267C41.9701 18.8278 41.5657 18.4235 41.0669 18.4235C40.5681 18.4235 40.1637 18.8278 40.1637 19.3267C40.1637 19.8255 40.5681 20.2299 41.0669 20.2299ZM41.0669 20.0041C41.441 20.0041 41.7443 19.7008 41.7443 19.3267C41.7443 18.9525 41.441 18.6493 41.0669 18.6493C40.6928 18.6493 40.3895 18.9525 40.3895 19.3267C40.3895 19.7008 40.6928 20.0041 41.0669 20.0041ZM37.6137 19.3267L38.2854 18.6549L38.1258 18.4953L37.454 19.167L36.7823 18.4953L36.6226 18.6549L37.2943 19.3267L36.6226 19.9984L36.7823 20.1581L37.454 19.4863L38.1258 20.1581L38.2854 19.9984L37.6137 19.3267Z" fill="#1E1E1E"/>
<path fill-rule="evenodd" clip-rule="evenodd" d="M44.5321 16.617C45.031 16.617 45.4354 16.2126 45.4354 15.7138C45.4354 15.2149 45.031 14.8105 44.5321 14.8105C44.0333 14.8105 43.6289 15.2149 43.6289 15.7138C43.6289 16.2126 44.0333 16.617 44.5321 16.617ZM44.5321 16.3912C44.9063 16.3912 45.2096 16.0879 45.2096 15.7138C45.2096 15.3396 44.9063 15.0364 44.5321 15.0364C44.158 15.0364 43.8547 15.3396 43.8547 15.7138C43.8547 16.0879 44.158 16.3912 44.5321 16.3912ZM48.3047 15.7138L48.9765 15.042L48.8168 14.8824L48.145 15.5541L47.4733 14.8824L47.3136 15.042L47.9854 15.7138L47.3136 16.3855L47.4733 16.5452L48.145 15.8734L48.8168 16.5452L48.9765 16.3855L48.3047 15.7138ZM48.145 20.2299C48.6439 20.2299 49.0483 19.8255 49.0483 19.3267C49.0483 18.8278 48.6439 18.4235 48.145 18.4235C47.6462 18.4235 47.2418 18.8278 47.2418 19.3267C47.2418 19.8255 47.6462 20.2299 48.145 20.2299ZM48.145 20.0041C48.5192 20.0041 48.8225 19.7008 48.8225 19.3267C48.8225 18.9525 48.5192 18.6493 48.145 18.6493C47.7709 18.6493 47.4676 18.9525 47.4676 19.3267C47.4676 19.7008 47.7709 20.0041 48.145 20.0041ZM44.6918 19.3267L45.3635 18.6549L45.2039 18.4953L44.5321 19.167L43.8604 18.4953L43.7007 18.6549L44.3725 19.3267L43.7007 19.9984L43.8604 20.1581L44.5321 19.4863L45.2039 20.1581L45.3635 19.9984L44.6918 19.3267Z" fill="#1E1E1E"/>
<path fill-rule="evenodd" clip-rule="evenodd" d="M51.6122 16.617C52.111 16.617 52.5154 16.2126 52.5154 15.7138C52.5154 15.2149 52.111 14.8105 51.6122 14.8105C51.1134 14.8105 50.709 15.2149 50.709 15.7138C50.709 16.2126 51.1134 16.617 51.6122 16.617ZM51.6122 16.3912C51.9863 16.3912 52.2896 16.0879 52.2896 15.7138C52.2896 15.3396 51.9863 15.0364 51.6122 15.0364C51.2381 15.0364 50.9348 15.3396 50.9348 15.7138C50.9348 16.0879 51.2381 16.3912 51.6122 16.3912ZM55.3848 15.7138L56.0565 15.042L55.8969 14.8824L55.2251 15.5541L54.5534 14.8824L54.3937 15.042L55.0654 15.7138L54.3937 16.3855L54.5534 16.5452L55.2251 15.8734L55.8969 16.5452L56.0565 16.3855L55.3848 15.7138ZM55.2251 20.2299C55.724 20.2299 56.1283 19.8255 56.1283 19.3267C56.1283 18.8278 55.724 18.4235 55.2251 18.4235C54.7263 18.4235 54.3219 18.8278 54.3219 19.3267C54.3219 19.8255 54.7263 20.2299 55.2251 20.2299ZM55.2251 20.0041C55.5992 20.0041 55.9025 19.7008 55.9025 19.3267C55.9025 18.9525 55.5992 18.6493 55.2251 18.6493C54.851 18.6493 54.5477 18.9525 54.5477 19.3267C54.5477 19.7008 54.851 20.0041 55.2251 20.0041ZM51.7719 19.3267L52.4436 18.6549L52.284 18.4953L51.6122 19.167L50.9405 18.4953L50.7808 18.6549L51.4525 19.3267L50.7808 19.9984L50.9405 20.1581L51.6122 19.4863L52.284 20.1581L52.4436 19.9984L51.7719 19.3267Z" fill="#1E1E1E"/>
<path fill-rule="evenodd" clip-rule="evenodd" d="M2.06143 23.6956C2.56027 23.6956 2.96465 23.2912 2.96465 22.7924C2.96465 22.2935 2.56027 21.8892 2.06143 21.8892C1.56259 21.8892 1.1582 22.2935 1.1582 22.7924C1.1582 23.2912 1.56259 23.6956 2.06143 23.6956ZM2.06143 23.4698C2.43556 23.4698 2.73885 23.1665 2.73885 22.7924C2.73885 22.4183 2.43556 22.115 2.06143 22.115C1.6873 22.115 1.38401 22.4183 1.38401 22.7924C1.38401 23.1665 1.6873 23.4698 2.06143 23.4698ZM5.834 22.7924L6.50575 22.1206L6.34608 21.961L5.67433 22.6327L5.00259 21.961L4.84292 22.1206L5.51466 22.7924L4.84292 23.4641L5.00259 23.6238L5.67433 22.9521L6.34608 23.6238L6.50575 23.4641L5.834 22.7924ZM5.67433 27.3085C6.17317 27.3085 6.57756 26.9041 6.57756 26.4053C6.57756 25.9065 6.17317 25.5021 5.67433 25.5021C5.17549 25.5021 4.77111 25.9065 4.77111 26.4053C4.77111 26.9041 5.17549 27.3085 5.67433 27.3085ZM5.67433 27.0827C6.04846 27.0827 6.35175 26.7794 6.35175 26.4053C6.35175 26.0312 6.04846 25.7279 5.67433 25.7279C5.3002 25.7279 4.99691 26.0312 4.99691 26.4053C4.99691 26.7794 5.3002 27.0827 5.67433 27.0827ZM2.2211 26.4053L2.89284 25.7335L2.73317 25.5739L2.06143 26.2456L1.38968 25.5739L1.23001 25.7335L1.90176 26.4053L1.23001 27.077L1.38968 27.2367L2.06143 26.565L2.73317 27.2367L2.89284 27.077L2.2211 26.4053Z" fill="#1E1E1E"/>
<path fill-rule="evenodd" clip-rule="evenodd" d="M9.13955 23.6956C9.63839 23.6956 10.0428 23.2912 10.0428 22.7924C10.0428 22.2935 9.63839 21.8892 9.13955 21.8892C8.64072 21.8892 8.23633 22.2935 8.23633 22.7924C8.23633 23.2912 8.64072 23.6956 9.13955 23.6956ZM9.13955 23.4698C9.51368 23.4698 9.81697 23.1665 9.81697 22.7924C9.81697 22.4183 9.51368 22.115 9.13955 22.115C8.76543 22.115 8.46213 22.4183 8.46213 22.7924C8.46213 23.1665 8.76543 23.4698 9.13955 23.4698ZM12.9121 22.7924L13.5839 22.1206L13.4242 21.961L12.7525 22.6327L12.0807 21.961L11.921 22.1206L12.5928 22.7924L11.921 23.4641L12.0807 23.6238L12.7525 22.9521L13.4242 23.6238L13.5839 23.4641L12.9121 22.7924ZM12.7525 27.3085C13.2513 27.3085 13.6557 26.9041 13.6557 26.4053C13.6557 25.9065 13.2513 25.5021 12.7525 25.5021C12.2536 25.5021 11.8492 25.9065 11.8492 26.4053C11.8492 26.9041 12.2536 27.3085 12.7525 27.3085ZM12.7525 27.0827C13.1266 27.0827 13.4299 26.7794 13.4299 26.4053C13.4299 26.0312 13.1266 25.7279 12.7525 25.7279C12.3783 25.7279 12.075 26.0312 12.075 26.4053C12.075 26.7794 12.3783 27.0827 12.7525 27.0827ZM9.29922 26.4053L9.97097 25.7335L9.8113 25.5739L9.13955 26.2456L8.46781 25.5739L8.30814 25.7335L8.97988 26.4053L8.30814 27.077L8.46781 27.2367L9.13955 26.565L9.8113 27.2367L9.97097 27.077L9.29922 26.4053Z" fill="#1E1E1E"/>
<path fill-rule="evenodd" clip-rule="evenodd" d="M16.2177 23.6956C16.7165 23.6956 17.1209 23.2912 17.1209 22.7924C17.1209 22.2935 16.7165 21.8892 16.2177 21.8892C15.7188 21.8892 15.3145 22.2935 15.3145 22.7924C15.3145 23.2912 15.7188 23.6956 16.2177 23.6956ZM16.2177 23.4698C16.5918 23.4698 16.8951 23.1665 16.8951 22.7924C16.8951 22.4183 16.5918 22.115 16.2177 22.115C15.8436 22.115 15.5403 22.4183 15.5403 22.7924C15.5403 23.1665 15.8436 23.4698 16.2177 23.4698ZM19.9903 22.7924L20.662 22.1206L20.5023 21.961L19.8306 22.6327L19.1588 21.961L18.9992 22.1206L19.6709 22.7924L18.9992 23.4641L19.1588 23.6238L19.8306 22.9521L20.5023 23.6238L20.662 23.4641L19.9903 22.7924ZM19.8306 27.3085C20.3294 27.3085 20.7338 26.9041 20.7338 26.4053C20.7338 25.9065 20.3294 25.5021 19.8306 25.5021C19.3317 25.5021 18.9274 25.9065 18.9274 26.4053C18.9274 26.9041 19.3317 27.3085 19.8306 27.3085ZM19.8306 27.0827C20.2047 27.0827 20.508 26.7794 20.508 26.4053C20.508 26.0312 20.2047 25.7279 19.8306 25.7279C19.4565 25.7279 19.1532 26.0312 19.1532 26.4053C19.1532 26.7794 19.4565 27.0827 19.8306 27.0827ZM16.3773 26.4053L17.0491 25.7335L16.8894 25.5739L16.2177 26.2456L15.5459 25.5739L15.3863 25.7335L16.058 26.4053L15.3863 27.077L15.5459 27.2367L16.2177 26.565L16.8894 27.2367L17.0491 27.077L16.3773 26.4053Z" fill="#1E1E1E"/>
<path fill-rule="evenodd" clip-rule="evenodd" d="M23.2978 23.6956C23.7966 23.6956 24.201 23.2912 24.201 22.7924C24.201 22.2935 23.7966 21.8892 23.2978 21.8892C22.7989 21.8892 22.3945 22.2935 22.3945 22.7924C22.3945 23.2912 22.7989 23.6956 23.2978 23.6956ZM23.2978 23.4698C23.6719 23.4698 23.9752 23.1665 23.9752 22.7924C23.9752 22.4183 23.6719 22.115 23.2978 22.115C22.9236 22.115 22.6203 22.4183 22.6203 22.7924C22.6203 23.1665 22.9236 23.4698 23.2978 23.4698ZM27.0703 22.7924L27.7421 22.1206L27.5824 21.961L26.9107 22.6327L26.2389 21.961L26.0792 22.1206L26.751 22.7924L26.0792 23.4641L26.2389 23.6238L26.9107 22.9521L27.5824 23.6238L27.7421 23.4641L27.0703 22.7924ZM26.9107 27.3085C27.4095 27.3085 27.8139 26.9041 27.8139 26.4053C27.8139 25.9065 27.4095 25.5021 26.9107 25.5021C26.4118 25.5021 26.0074 25.9065 26.0074 26.4053C26.0074 26.9041 26.4118 27.3085 26.9107 27.3085ZM26.9107 27.0827C27.2848 27.0827 27.5881 26.7794 27.5881 26.4053C27.5881 26.0312 27.2848 25.7279 26.9107 25.7279C26.5365 25.7279 26.2332 26.0312 26.2332 26.4053C26.2332 26.7794 26.5365 27.0827 26.9107 27.0827ZM23.4574 26.4053L24.1292 25.7335L23.9695 25.5739L23.2978 26.2456L22.626 25.5739L22.4663 25.7335L23.1381 26.4053L22.4663 27.077L22.626 27.2367L23.2978 26.565L23.9695 27.2367L24.1292 27.077L23.4574 26.4053Z" fill="#1E1E1E"/>
<path fill-rule="evenodd" clip-rule="evenodd" d="M30.3759 23.6956C30.8747 23.6956 31.2791 23.2912 31.2791 22.7924C31.2791 22.2935 30.8747 21.8892 30.3759 21.8892C29.877 21.8892 29.4727 22.2935 29.4727 22.7924C29.4727 23.2912 29.877 23.6956 30.3759 23.6956ZM30.3759 23.4698C30.75 23.4698 31.0533 23.1665 31.0533 22.7924C31.0533 22.4183 30.75 22.115 30.3759 22.115C30.0018 22.115 29.6985 22.4183 29.6985 22.7924C29.6985 23.1665 30.0018 23.4698 30.3759 23.4698ZM34.1485 22.7924L34.8202 22.1206L34.6605 21.961L33.9888 22.6327L33.317 21.961L33.1574 22.1206L33.8291 22.7924L33.1574 23.4641L33.317 23.6238L33.9888 22.9521L34.6605 23.6238L34.8202 23.4641L34.1485 22.7924ZM33.9888 27.3085C34.4876 27.3085 34.892 26.9041 34.892 26.4053C34.892 25.9065 34.4876 25.5021 33.9888 25.5021C33.4899 25.5021 33.0856 25.9065 33.0856 26.4053C33.0856 26.9041 33.4899 27.3085 33.9888 27.3085ZM33.9888 27.0827C34.3629 27.0827 34.6662 26.7794 34.6662 26.4053C34.6662 26.0312 34.3629 25.7279 33.9888 25.7279C33.6147 25.7279 33.3114 26.0312 33.3114 26.4053C33.3114 26.7794 33.6147 27.0827 33.9888 27.0827ZM30.5356 26.4053L31.2073 25.7335L31.0476 25.5739L30.3759 26.2456L29.7041 25.5739L29.5445 25.7335L30.2162 26.4053L29.5445 27.077L29.7041 27.2367L30.3759 26.565L31.0476 27.2367L31.2073 27.077L30.5356 26.4053Z" fill="#1E1E1E"/>
<path fill-rule="evenodd" clip-rule="evenodd" d="M37.454 23.6956C37.9528 23.6956 38.3572 23.2912 38.3572 22.7924C38.3572 22.2935 37.9528 21.8892 37.454 21.8892C36.9552 21.8892 36.5508 22.2935 36.5508 22.7924C36.5508 23.2912 36.9552 23.6956 37.454 23.6956ZM37.454 23.4698C37.8281 23.4698 38.1314 23.1665 38.1314 22.7924C38.1314 22.4183 37.8281 22.115 37.454 22.115C37.0799 22.115 36.7766 22.4183 36.7766 22.7924C36.7766 23.1665 37.0799 23.4698 37.454 23.4698ZM41.2266 22.7924L41.8983 22.1206L41.7387 21.961L41.0669 22.6327L40.3952 21.961L40.2355 22.1206L40.9072 22.7924L40.2355 23.4641L40.3952 23.6238L41.0669 22.9521L41.7387 23.6238L41.8983 23.4641L41.2266 22.7924ZM41.0669 27.3085C41.5657 27.3085 41.9701 26.9041 41.9701 26.4053C41.9701 25.9065 41.5657 25.5021 41.0669 25.5021C40.5681 25.5021 40.1637 25.9065 40.1637 26.4053C40.1637 26.9041 40.5681 27.3085 41.0669 27.3085ZM41.0669 27.0827C41.441 27.0827 41.7443 26.7794 41.7443 26.4053C41.7443 26.0312 41.441 25.7279 41.0669 25.7279C40.6928 25.7279 40.3895 26.0312 40.3895 26.4053C40.3895 26.7794 40.6928 27.0827 41.0669 27.0827ZM37.6137 26.4053L38.2854 25.7335L38.1258 25.5739L37.454 26.2456L36.7823 25.5739L36.6226 25.7335L37.2943 26.4053L36.6226 27.077L36.7823 27.2367L37.454 26.565L38.1258 27.2367L38.2854 27.077L37.6137 26.4053Z" fill="#1E1E1E"/>
<path fill-rule="evenodd" clip-rule="evenodd" d="M44.5321 23.6956C45.031 23.6956 45.4354 23.2912 45.4354 22.7924C45.4354 22.2935 45.031 21.8892 44.5321 21.8892C44.0333 21.8892 43.6289 22.2935 43.6289 22.7924C43.6289 23.2912 44.0333 23.6956 44.5321 23.6956ZM44.5321 23.4698C44.9063 23.4698 45.2096 23.1665 45.2096 22.7924C45.2096 22.4183 44.9063 22.115 44.5321 22.115C44.158 22.115 43.8547 22.4183 43.8547 22.7924C43.8547 23.1665 44.158 23.4698 44.5321 23.4698ZM48.3047 22.7924L48.9765 22.1206L48.8168 21.961L48.145 22.6327L47.4733 21.961L47.3136 22.1206L47.9854 22.7924L47.3136 23.4641L47.4733 23.6238L48.145 22.9521L48.8168 23.6238L48.9765 23.4641L48.3047 22.7924ZM48.145 27.3085C48.6439 27.3085 49.0483 26.9041 49.0483 26.4053C49.0483 25.9065 48.6439 25.5021 48.145 25.5021C47.6462 25.5021 47.2418 25.9065 47.2418 26.4053C47.2418 26.9041 47.6462 27.3085 48.145 27.3085ZM48.145 27.0827C48.5192 27.0827 48.8225 26.7794 48.8225 26.4053C48.8225 26.0312 48.5192 25.7279 48.145 25.7279C47.7709 25.7279 47.4676 26.0312 47.4676 26.4053C47.4676 26.7794 47.7709 27.0827 48.145 27.0827ZM44.6918 26.4053L45.3635 25.7335L45.2039 25.5739L44.5321 26.2456L43.8604 25.5739L43.7007 25.7335L44.3725 26.4053L43.7007 27.077L43.8604 27.2367L44.5321 26.565L45.2039 27.2367L45.3635 27.077L44.6918 26.4053Z" fill="#1E1E1E"/>
<path fill-rule="evenodd" clip-rule="evenodd" d="M51.6122 23.6956C52.111 23.6956 52.5154 23.2912 52.5154 22.7924C52.5154 22.2935 52.111 21.8892 51.6122 21.8892C51.1134 21.8892 50.709 22.2935 50.709 22.7924C50.709 23.2912 51.1134 23.6956 51.6122 23.6956ZM51.6122 23.4698C51.9863 23.4698 52.2896 23.1665 52.2896 22.7924C52.2896 22.4183 51.9863 22.115 51.6122 22.115C51.2381 22.115 50.9348 22.4183 50.9348 22.7924C50.9348 23.1665 51.2381 23.4698 51.6122 23.4698ZM55.3848 22.7924L56.0565 22.1206L55.8969 21.961L55.2251 22.6327L54.5534 21.961L54.3937 22.1206L55.0654 22.7924L54.3937 23.4641L54.5534 23.6238L55.2251 22.9521L55.8969 23.6238L56.0565 23.4641L55.3848 22.7924ZM55.2251 27.3085C55.724 27.3085 56.1283 26.9041 56.1283 26.4053C56.1283 25.9065 55.724 25.5021 55.2251 25.5021C54.7263 25.5021 54.3219 25.9065 54.3219 26.4053C54.3219 26.9041 54.7263 27.3085 55.2251 27.3085ZM55.2251 27.0827C55.5992 27.0827 55.9025 26.7794 55.9025 26.4053C55.9025 26.0312 55.5992 25.7279 55.2251 25.7279C54.851 25.7279 54.5477 26.0312 54.5477 26.4053C54.5477 26.7794 54.851 27.0827 55.2251 27.0827ZM51.7719 26.4053L52.4436 25.7335L52.284 25.5739L51.6122 26.2456L50.9405 25.5739L50.7808 25.7335L51.4525 26.4053L50.7808 27.077L50.9405 27.2367L51.6122 26.565L52.284 27.2367L52.4436 27.077L51.7719 26.4053Z" fill="#1E1E1E"/>
<path fill-rule="evenodd" clip-rule="evenodd" d="M2.06143 30.7742C2.56027 30.7742 2.96465 30.3698 2.96465 29.871C2.96465 29.3722 2.56027 28.9678 2.06143 28.9678C1.56259 28.9678 1.1582 29.3722 1.1582 29.871C1.1582 30.3698 1.56259 30.7742 2.06143 30.7742ZM2.06143 30.5484C2.43556 30.5484 2.73885 30.2451 2.73885 29.871C2.73885 29.4969 2.43556 29.1936 2.06143 29.1936C1.6873 29.1936 1.38401 29.4969 1.38401 29.871C1.38401 30.2451 1.6873 30.5484 2.06143 30.5484ZM5.834 29.871L6.50575 29.1993L6.34608 29.0396L5.67433 29.7113L5.00259 29.0396L4.84292 29.1993L5.51466 29.871L4.84292 30.5427L5.00259 30.7024L5.67433 30.0307L6.34608 30.7024L6.50575 30.5427L5.834 29.871ZM5.67433 34.3871C6.17317 34.3871 6.57756 33.9827 6.57756 33.4839C6.57756 32.9851 6.17317 32.5807 5.67433 32.5807C5.17549 32.5807 4.77111 32.9851 4.77111 33.4839C4.77111 33.9827 5.17549 34.3871 5.67433 34.3871ZM5.67433 34.1613C6.04846 34.1613 6.35175 33.858 6.35175 33.4839C6.35175 33.1098 6.04846 32.8065 5.67433 32.8065C5.3002 32.8065 4.99691 33.1098 4.99691 33.4839C4.99691 33.858 5.3002 34.1613 5.67433 34.1613ZM2.2211 33.4839L2.89284 32.8122L2.73317 32.6525L2.06143 33.3242L1.38968 32.6525L1.23001 32.8122L1.90176 33.4839L1.23001 34.1556L1.38968 34.3153L2.06143 33.6436L2.73317 34.3153L2.89284 34.1556L2.2211 33.4839Z" fill="#1E1E1E"/>
<path fill-rule="evenodd" clip-rule="evenodd" d="M9.13955 30.7742C9.63839 30.7742 10.0428 30.3698 10.0428 29.871C10.0428 29.3722 9.63839 28.9678 9.13955 28.9678C8.64072 28.9678 8.23633 29.3722 8.23633 29.871C8.23633 30.3698 8.64072 30.7742 9.13955 30.7742ZM9.13955 30.5484C9.51368 30.5484 9.81697 30.2451 9.81697 29.871C9.81697 29.4969 9.51368 29.1936 9.13955 29.1936C8.76543 29.1936 8.46213 29.4969 8.46213 29.871C8.46213 30.2451 8.76543 30.5484 9.13955 30.5484ZM12.9121 29.871L13.5839 29.1993L13.4242 29.0396L12.7525 29.7113L12.0807 29.0396L11.921 29.1993L12.5928 29.871L11.921 30.5427L12.0807 30.7024L12.7525 30.0307L13.4242 30.7024L13.5839 30.5427L12.9121 29.871ZM12.7525 34.3871C13.2513 34.3871 13.6557 33.9827 13.6557 33.4839C13.6557 32.9851 13.2513 32.5807 12.7525 32.5807C12.2536 32.5807 11.8492 32.9851 11.8492 33.4839C11.8492 33.9827 12.2536 34.3871 12.7525 34.3871ZM12.7525 34.1613C13.1266 34.1613 13.4299 33.858 13.4299 33.4839C13.4299 33.1098 13.1266 32.8065 12.7525 32.8065C12.3783 32.8065 12.075 33.1098 12.075 33.4839C12.075 33.858 12.3783 34.1613 12.7525 34.1613ZM9.29922 33.4839L9.97097 32.8122L9.8113 32.6525L9.13955 33.3242L8.46781 32.6525L8.30814 32.8122L8.97988 33.4839L8.30814 34.1556L8.46781 34.3153L9.13955 33.6436L9.8113 34.3153L9.97097 34.1556L9.29922 33.4839Z" fill="#1E1E1E"/>
<path fill-rule="evenodd" clip-rule="evenodd" d="M16.2177 30.7742C16.7165 30.7742 17.1209 30.3698 17.1209 29.871C17.1209 29.3722 16.7165 28.9678 16.2177 28.9678C15.7188 28.9678 15.3145 29.3722 15.3145 29.871C15.3145 30.3698 15.7188 30.7742 16.2177 30.7742ZM16.2177 30.5484C16.5918 30.5484 16.8951 30.2451 16.8951 29.871C16.8951 29.4969 16.5918 29.1936 16.2177 29.1936C15.8436 29.1936 15.5403 29.4969 15.5403 29.871C15.5403 30.2451 15.8436 30.5484 16.2177 30.5484ZM19.9903 29.871L20.662 29.1993L20.5023 29.0396L19.8306 29.7113L19.1588 29.0396L18.9992 29.1993L19.6709 29.871L18.9992 30.5427L19.1588 30.7024L19.8306 30.0307L20.5023 30.7024L20.662 30.5427L19.9903 29.871ZM19.8306 34.3871C20.3294 34.3871 20.7338 33.9827 20.7338 33.4839C20.7338 32.9851 20.3294 32.5807 19.8306 32.5807C19.3317 32.5807 18.9274 32.9851 18.9274 33.4839C18.9274 33.9827 19.3317 34.3871 19.8306 34.3871ZM19.8306 34.1613C20.2047 34.1613 20.508 33.858 20.508 33.4839C20.508 33.1098 20.2047 32.8065 19.8306 32.8065C19.4565 32.8065 19.1532 33.1098 19.1532 33.4839C19.1532 33.858 19.4565 34.1613 19.8306 34.1613ZM16.3773 33.4839L17.0491 32.8122L16.8894 32.6525L16.2177 33.3242L15.5459 32.6525L15.3863 32.8122L16.058 33.4839L15.3863 34.1556L15.5459 34.3153L16.2177 33.6436L16.8894 34.3153L17.0491 34.1556L16.3773 33.4839Z" fill="#1E1E1E"/>
<path fill-rule="evenodd" clip-rule="evenodd" d="M23.2978 30.7742C23.7966 30.7742 24.201 30.3698 24.201 29.871C24.201 29.3722 23.7966 28.9678 23.2978 28.9678C22.7989 28.9678 22.3945 29.3722 22.3945 29.871C22.3945 30.3698 22.7989 30.7742 23.2978 30.7742ZM23.2978 30.5484C23.6719 30.5484 23.9752 30.2451 23.9752 29.871C23.9752 29.4969 23.6719 29.1936 23.2978 29.1936C22.9236 29.1936 22.6203 29.4969 22.6203 29.871C22.6203 30.2451 22.9236 30.5484 23.2978 30.5484ZM27.0703 29.871L27.7421 29.1993L27.5824 29.0396L26.9107 29.7113L26.2389 29.0396L26.0792 29.1993L26.751 29.871L26.0792 30.5427L26.2389 30.7024L26.9107 30.0307L27.5824 30.7024L27.7421 30.5427L27.0703 29.871ZM26.9107 34.3871C27.4095 34.3871 27.8139 33.9827 27.8139 33.4839C27.8139 32.9851 27.4095 32.5807 26.9107 32.5807C26.4118 32.5807 26.0074 32.9851 26.0074 33.4839C26.0074 33.9827 26.4118 34.3871 26.9107 34.3871ZM26.9107 34.1613C27.2848 34.1613 27.5881 33.858 27.5881 33.4839C27.5881 33.1098 27.2848 32.8065 26.9107 32.8065C26.5365 32.8065 26.2332 33.1098 26.2332 33.4839C26.2332 33.858 26.5365 34.1613 26.9107 34.1613ZM23.4574 33.4839L24.1292 32.8122L23.9695 32.6525L23.2978 33.3242L22.626 32.6525L22.4663 32.8122L23.1381 33.4839L22.4663 34.1556L22.626 34.3153L23.2978 33.6436L23.9695 34.3153L24.1292 34.1556L23.4574 33.4839Z" fill="#1E1E1E"/>
<path fill-rule="evenodd" clip-rule="evenodd" d="M30.3759 30.7742C30.8747 30.7742 31.2791 30.3698 31.2791 29.871C31.2791 29.3722 30.8747 28.9678 30.3759 28.9678C29.877 28.9678 29.4727 29.3722 29.4727 29.871C29.4727 30.3698 29.877 30.7742 30.3759 30.7742ZM30.3759 30.5484C30.75 30.5484 31.0533 30.2451 31.0533 29.871C31.0533 29.4969 30.75 29.1936 30.3759 29.1936C30.0018 29.1936 29.6985 29.4969 29.6985 29.871C29.6985 30.2451 30.0018 30.5484 30.3759 30.5484ZM34.1485 29.871L34.8202 29.1993L34.6605 29.0396L33.9888 29.7113L33.317 29.0396L33.1574 29.1993L33.8291 29.871L33.1574 30.5427L33.317 30.7024L33.9888 30.0307L34.6605 30.7024L34.8202 30.5427L34.1485 29.871ZM33.9888 34.3871C34.4876 34.3871 34.892 33.9827 34.892 33.4839C34.892 32.9851 34.4876 32.5807 33.9888 32.5807C33.4899 32.5807 33.0856 32.9851 33.0856 33.4839C33.0856 33.9827 33.4899 34.3871 33.9888 34.3871ZM33.9888 34.1613C34.3629 34.1613 34.6662 33.858 34.6662 33.4839C34.6662 33.1098 34.3629 32.8065 33.9888 32.8065C33.6147 32.8065 33.3114 33.1098 33.3114 33.4839C33.3114 33.858 33.6147 34.1613 33.9888 34.1613ZM30.5356 33.4839L31.2073 32.8122L31.0476 32.6525L30.3759 33.3242L29.7041 32.6525L29.5445 32.8122L30.2162 33.4839L29.5445 34.1556L29.7041 34.3153L30.3759 33.6436L31.0476 34.3153L31.2073 34.1556L30.5356 33.4839Z" fill="#1E1E1E"/>
<path fill-rule="evenodd" clip-rule="evenodd" d="M37.454 30.7742C37.9528 30.7742 38.3572 30.3698 38.3572 29.871C38.3572 29.3722 37.9528 28.9678 37.454 28.9678C36.9552 28.9678 36.5508 29.3722 36.5508 29.871C36.5508 30.3698 36.9552 30.7742 37.454 30.7742ZM37.454 30.5484C37.8281 30.5484 38.1314 30.2451 38.1314 29.871C38.1314 29.4969 37.8281 29.1936 37.454 29.1936C37.0799 29.1936 36.7766 29.4969 36.7766 29.871C36.7766 30.2451 37.0799 30.5484 37.454 30.5484ZM41.2266 29.871L41.8983 29.1993L41.7387 29.0396L41.0669 29.7113L40.3952 29.0396L40.2355 29.1993L40.9072 29.871L40.2355 30.5427L40.3952 30.7024L41.0669 30.0307L41.7387 30.7024L41.8983 30.5427L41.2266 29.871ZM41.0669 34.3871C41.5657 34.3871 41.9701 33.9827 41.9701 33.4839C41.9701 32.9851 41.5657 32.5807 41.0669 32.5807C40.5681 32.5807 40.1637 32.9851 40.1637 33.4839C40.1637 33.9827 40.5681 34.3871 41.0669 34.3871ZM41.0669 34.1613C41.441 34.1613 41.7443 33.858 41.7443 33.4839C41.7443 33.1098 41.441 32.8065 41.0669 32.8065C40.6928 32.8065 40.3895 33.1098 40.3895 33.4839C40.3895 33.858 40.6928 34.1613 41.0669 34.1613ZM37.6137 33.4839L38.2854 32.8122L38.1258 32.6525L37.454 33.3242L36.7823 32.6525L36.6226 32.8122L37.2943 33.4839L36.6226 34.1556L36.7823 34.3153L37.454 33.6436L38.1258 34.3153L38.2854 34.1556L37.6137 33.4839Z" fill="#1E1E1E"/>
<path fill-rule="evenodd" clip-rule="evenodd" d="M44.5321 30.7742C45.031 30.7742 45.4354 30.3698 45.4354 29.871C45.4354 29.3722 45.031 28.9678 44.5321 28.9678C44.0333 28.9678 43.6289 29.3722 43.6289 29.871C43.6289 30.3698 44.0333 30.7742 44.5321 30.7742ZM44.5321 30.5484C44.9063 30.5484 45.2096 30.2451 45.2096 29.871C45.2096 29.4969 44.9063 29.1936 44.5321 29.1936C44.158 29.1936 43.8547 29.4969 43.8547 29.871C43.8547 30.2451 44.158 30.5484 44.5321 30.5484ZM48.3047 29.871L48.9765 29.1993L48.8168 29.0396L48.145 29.7113L47.4733 29.0396L47.3136 29.1993L47.9854 29.871L47.3136 30.5427L47.4733 30.7024L48.145 30.0307L48.8168 30.7024L48.9765 30.5427L48.3047 29.871ZM48.145 34.3871C48.6439 34.3871 49.0483 33.9827 49.0483 33.4839C49.0483 32.9851 48.6439 32.5807 48.145 32.5807C47.6462 32.5807 47.2418 32.9851 47.2418 33.4839C47.2418 33.9827 47.6462 34.3871 48.145 34.3871ZM48.145 34.1613C48.5192 34.1613 48.8225 33.858 48.8225 33.4839C48.8225 33.1098 48.5192 32.8065 48.145 32.8065C47.7709 32.8065 47.4676 33.1098 47.4676 33.4839C47.4676 33.858 47.7709 34.1613 48.145 34.1613ZM44.6918 33.4839L45.3635 32.8122L45.2039 32.6525L44.5321 33.3242L43.8604 32.6525L43.7007 32.8122L44.3725 33.4839L43.7007 34.1556L43.8604 34.3153L44.5321 33.6436L45.2039 34.3153L45.3635 34.1556L44.6918 33.4839Z" fill="#1E1E1E"/>
<path fill-rule="evenodd" clip-rule="evenodd" d="M51.6122 30.7742C52.111 30.7742 52.5154 30.3698 52.5154 29.871C52.5154 29.3722 52.111 28.9678 51.6122 28.9678C51.1134 28.9678 50.709 29.3722 50.709 29.871C50.709 30.3698 51.1134 30.7742 51.6122 30.7742ZM51.6122 30.5484C51.9863 30.5484 52.2896 30.2451 52.2896 29.871C52.2896 29.4969 51.9863 29.1936 51.6122 29.1936C51.2381 29.1936 50.9348 29.4969 50.9348 29.871C50.9348 30.2451 51.2381 30.5484 51.6122 30.5484ZM55.3848 29.871L56.0565 29.1993L55.8969 29.0396L55.2251 29.7113L54.5534 29.0396L54.3937 29.1993L55.0654 29.871L54.3937 30.5427L54.5534 30.7024L55.2251 30.0307L55.8969 30.7024L56.0565 30.5427L55.3848 29.871ZM55.2251 34.3871C55.724 34.3871 56.1283 33.9827 56.1283 33.4839C56.1283 32.9851 55.724 32.5807 55.2251 32.5807C54.7263 32.5807 54.3219 32.9851 54.3219 33.4839C54.3219 33.9827 54.7263 34.3871 55.2251 34.3871ZM55.2251 34.1613C55.5992 34.1613 55.9025 33.858 55.9025 33.4839C55.9025 33.1098 55.5992 32.8065 55.2251 32.8065C54.851 32.8065 54.5477 33.1098 54.5477 33.4839C54.5477 33.858 54.851 34.1613 55.2251 34.1613ZM51.7719 33.4839L52.4436 32.8122L52.284 32.6525L51.6122 33.3242L50.9405 32.6525L50.7808 32.8122L51.4525 33.4839L50.7808 34.1556L50.9405 34.3153L51.6122 33.6436L52.284 34.3153L52.4436 34.1556L51.7719 33.4839Z" fill="#1E1E1E"/>
<path fill-rule="evenodd" clip-rule="evenodd" d="M2.06143 37.8528C2.56027 37.8528 2.96465 37.4485 2.96465 36.9496C2.96465 36.4508 2.56027 36.0464 2.06143 36.0464C1.56259 36.0464 1.1582 36.4508 1.1582 36.9496C1.1582 37.4485 1.56259 37.8528 2.06143 37.8528ZM2.06143 37.627C2.43556 37.627 2.73885 37.3237 2.73885 36.9496C2.73885 36.5755 2.43556 36.2722 2.06143 36.2722C1.6873 36.2722 1.38401 36.5755 1.38401 36.9496C1.38401 37.3237 1.6873 37.627 2.06143 37.627ZM5.834 36.9496L6.50575 36.2779L6.34608 36.1182L5.67433 36.7899L5.00259 36.1182L4.84292 36.2779L5.51466 36.9496L4.84292 37.6214L5.00259 37.781L5.67433 37.1093L6.34608 37.781L6.50575 37.6214L5.834 36.9496ZM5.67433 41.4657C6.17317 41.4657 6.57756 41.0614 6.57756 40.5625C6.57756 40.0637 6.17317 39.6593 5.67433 39.6593C5.17549 39.6593 4.77111 40.0637 4.77111 40.5625C4.77111 41.0614 5.17549 41.4657 5.67433 41.4657ZM5.67433 41.2399C6.04846 41.2399 6.35175 40.9366 6.35175 40.5625C6.35175 40.1884 6.04846 39.8851 5.67433 39.8851C5.3002 39.8851 4.99691 40.1884 4.99691 40.5625C4.99691 40.9366 5.3002 41.2399 5.67433 41.2399ZM2.2211 40.5625L2.89284 39.8908L2.73317 39.7311L2.06143 40.4028L1.38968 39.7311L1.23001 39.8908L1.90176 40.5625L1.23001 41.2343L1.38968 41.3939L2.06143 40.7222L2.73317 41.3939L2.89284 41.2343L2.2211 40.5625Z" fill="#1E1E1E"/>
<path fill-rule="evenodd" clip-rule="evenodd" d="M9.13955 37.8528C9.63839 37.8528 10.0428 37.4485 10.0428 36.9496C10.0428 36.4508 9.63839 36.0464 9.13955 36.0464C8.64072 36.0464 8.23633 36.4508 8.23633 36.9496C8.23633 37.4485 8.64072 37.8528 9.13955 37.8528ZM9.13955 37.627C9.51368 37.627 9.81697 37.3237 9.81697 36.9496C9.81697 36.5755 9.51368 36.2722 9.13955 36.2722C8.76543 36.2722 8.46213 36.5755 8.46213 36.9496C8.46213 37.3237 8.76543 37.627 9.13955 37.627ZM12.9121 36.9496L13.5839 36.2779L13.4242 36.1182L12.7525 36.7899L12.0807 36.1182L11.921 36.2779L12.5928 36.9496L11.921 37.6214L12.0807 37.781L12.7525 37.1093L13.4242 37.781L13.5839 37.6214L12.9121 36.9496ZM12.7525 41.4657C13.2513 41.4657 13.6557 41.0614 13.6557 40.5625C13.6557 40.0637 13.2513 39.6593 12.7525 39.6593C12.2536 39.6593 11.8492 40.0637 11.8492 40.5625C11.8492 41.0614 12.2536 41.4657 12.7525 41.4657ZM12.7525 41.2399C13.1266 41.2399 13.4299 40.9366 13.4299 40.5625C13.4299 40.1884 13.1266 39.8851 12.7525 39.8851C12.3783 39.8851 12.075 40.1884 12.075 40.5625C12.075 40.9366 12.3783 41.2399 12.7525 41.2399ZM9.29922 40.5625L9.97097 39.8908L9.8113 39.7311L9.13955 40.4028L8.46781 39.7311L8.30814 39.8908L8.97988 40.5625L8.30814 41.2343L8.46781 41.3939L9.13955 40.7222L9.8113 41.3939L9.97097 41.2343L9.29922 40.5625Z" fill="#1E1E1E"/>
<path fill-rule="evenodd" clip-rule="evenodd" d="M16.2177 37.8528C16.7165 37.8528 17.1209 37.4485 17.1209 36.9496C17.1209 36.4508 16.7165 36.0464 16.2177 36.0464C15.7188 36.0464 15.3145 36.4508 15.3145 36.9496C15.3145 37.4485 15.7188 37.8528 16.2177 37.8528ZM16.2177 37.627C16.5918 37.627 16.8951 37.3237 16.8951 36.9496C16.8951 36.5755 16.5918 36.2722 16.2177 36.2722C15.8436 36.2722 15.5403 36.5755 15.5403 36.9496C15.5403 37.3237 15.8436 37.627 16.2177 37.627ZM19.9903 36.9496L20.662 36.2779L20.5023 36.1182L19.8306 36.7899L19.1588 36.1182L18.9992 36.2779L19.6709 36.9496L18.9992 37.6214L19.1588 37.781L19.8306 37.1093L20.5023 37.781L20.662 37.6214L19.9903 36.9496ZM19.8306 41.4657C20.3294 41.4657 20.7338 41.0614 20.7338 40.5625C20.7338 40.0637 20.3294 39.6593 19.8306 39.6593C19.3317 39.6593 18.9274 40.0637 18.9274 40.5625C18.9274 41.0614 19.3317 41.4657 19.8306 41.4657ZM19.8306 41.2399C20.2047 41.2399 20.508 40.9366 20.508 40.5625C20.508 40.1884 20.2047 39.8851 19.8306 39.8851C19.4565 39.8851 19.1532 40.1884 19.1532 40.5625C19.1532 40.9366 19.4565 41.2399 19.8306 41.2399ZM16.3773 40.5625L17.0491 39.8908L16.8894 39.7311L16.2177 40.4028L15.5459 39.7311L15.3863 39.8908L16.058 40.5625L15.3863 41.2343L15.5459 41.3939L16.2177 40.7222L16.8894 41.3939L17.0491 41.2343L16.3773 40.5625Z" fill="#1E1E1E"/>
<path fill-rule="evenodd" clip-rule="evenodd" d="M23.2978 37.8528C23.7966 37.8528 24.201 37.4485 24.201 36.9496C24.201 36.4508 23.7966 36.0464 23.2978 36.0464C22.7989 36.0464 22.3945 36.4508 22.3945 36.9496C22.3945 37.4485 22.7989 37.8528 23.2978 37.8528ZM23.2978 37.627C23.6719 37.627 23.9752 37.3237 23.9752 36.9496C23.9752 36.5755 23.6719 36.2722 23.2978 36.2722C22.9236 36.2722 22.6203 36.5755 22.6203 36.9496C22.6203 37.3237 22.9236 37.627 23.2978 37.627ZM27.0703 36.9496L27.7421 36.2779L27.5824 36.1182L26.9107 36.7899L26.2389 36.1182L26.0792 36.2779L26.751 36.9496L26.0792 37.6214L26.2389 37.781L26.9107 37.1093L27.5824 37.781L27.7421 37.6214L27.0703 36.9496ZM26.9107 41.4657C27.4095 41.4657 27.8139 41.0614 27.8139 40.5625C27.8139 40.0637 27.4095 39.6593 26.9107 39.6593C26.4118 39.6593 26.0074 40.0637 26.0074 40.5625C26.0074 41.0614 26.4118 41.4657 26.9107 41.4657ZM26.9107 41.2399C27.2848 41.2399 27.5881 40.9366 27.5881 40.5625C27.5881 40.1884 27.2848 39.8851 26.9107 39.8851C26.5365 39.8851 26.2332 40.1884 26.2332 40.5625C26.2332 40.9366 26.5365 41.2399 26.9107 41.2399ZM23.4574 40.5625L24.1292 39.8908L23.9695 39.7311L23.2978 40.4028L22.626 39.7311L22.4663 39.8908L23.1381 40.5625L22.4663 41.2343L22.626 41.3939L23.2978 40.7222L23.9695 41.3939L24.1292 41.2343L23.4574 40.5625Z" fill="#1E1E1E"/>
<path fill-rule="evenodd" clip-rule="evenodd" d="M30.3759 37.8528C30.8747 37.8528 31.2791 37.4485 31.2791 36.9496C31.2791 36.4508 30.8747 36.0464 30.3759 36.0464C29.877 36.0464 29.4727 36.4508 29.4727 36.9496C29.4727 37.4485 29.877 37.8528 30.3759 37.8528ZM30.3759 37.627C30.75 37.627 31.0533 37.3237 31.0533 36.9496C31.0533 36.5755 30.75 36.2722 30.3759 36.2722C30.0018 36.2722 29.6985 36.5755 29.6985 36.9496C29.6985 37.3237 30.0018 37.627 30.3759 37.627ZM34.1485 36.9496L34.8202 36.2779L34.6605 36.1182L33.9888 36.7899L33.317 36.1182L33.1574 36.2779L33.8291 36.9496L33.1574 37.6214L33.317 37.781L33.9888 37.1093L34.6605 37.781L34.8202 37.6214L34.1485 36.9496ZM33.9888 41.4657C34.4876 41.4657 34.892 41.0614 34.892 40.5625C34.892 40.0637 34.4876 39.6593 33.9888 39.6593C33.4899 39.6593 33.0856 40.0637 33.0856 40.5625C33.0856 41.0614 33.4899 41.4657 33.9888 41.4657ZM33.9888 41.2399C34.3629 41.2399 34.6662 40.9366 34.6662 40.5625C34.6662 40.1884 34.3629 39.8851 33.9888 39.8851C33.6147 39.8851 33.3114 40.1884 33.3114 40.5625C33.3114 40.9366 33.6147 41.2399 33.9888 41.2399ZM30.5356 40.5625L31.2073 39.8908L31.0476 39.7311L30.3759 40.4028L29.7041 39.7311L29.5445 39.8908L30.2162 40.5625L29.5445 41.2343L29.7041 41.3939L30.3759 40.7222L31.0476 41.3939L31.2073 41.2343L30.5356 40.5625Z" fill="#1E1E1E"/>
<path fill-rule="evenodd" clip-rule="evenodd" d="M37.454 37.8528C37.9528 37.8528 38.3572 37.4485 38.3572 36.9496C38.3572 36.4508 37.9528 36.0464 37.454 36.0464C36.9552 36.0464 36.5508 36.4508 36.5508 36.9496C36.5508 37.4485 36.9552 37.8528 37.454 37.8528ZM37.454 37.627C37.8281 37.627 38.1314 37.3237 38.1314 36.9496C38.1314 36.5755 37.8281 36.2722 37.454 36.2722C37.0799 36.2722 36.7766 36.5755 36.7766 36.9496C36.7766 37.3237 37.0799 37.627 37.454 37.627ZM41.2266 36.9496L41.8983 36.2779L41.7387 36.1182L41.0669 36.7899L40.3952 36.1182L40.2355 36.2779L40.9072 36.9496L40.2355 37.6214L40.3952 37.781L41.0669 37.1093L41.7387 37.781L41.8983 37.6214L41.2266 36.9496ZM41.0669 41.4657C41.5657 41.4657 41.9701 41.0614 41.9701 40.5625C41.9701 40.0637 41.5657 39.6593 41.0669 39.6593C40.5681 39.6593 40.1637 40.0637 40.1637 40.5625C40.1637 41.0614 40.5681 41.4657 41.0669 41.4657ZM41.0669 41.2399C41.441 41.2399 41.7443 40.9366 41.7443 40.5625C41.7443 40.1884 41.441 39.8851 41.0669 39.8851C40.6928 39.8851 40.3895 40.1884 40.3895 40.5625C40.3895 40.9366 40.6928 41.2399 41.0669 41.2399ZM37.6137 40.5625L38.2854 39.8908L38.1258 39.7311L37.454 40.4028L36.7823 39.7311L36.6226 39.8908L37.2943 40.5625L36.6226 41.2343L36.7823 41.3939L37.454 40.7222L38.1258 41.3939L38.2854 41.2343L37.6137 40.5625Z" fill="#1E1E1E"/>
<path fill-rule="evenodd" clip-rule="evenodd" d="M44.5321 37.8528C45.031 37.8528 45.4354 37.4485 45.4354 36.9496C45.4354 36.4508 45.031 36.0464 44.5321 36.0464C44.0333 36.0464 43.6289 36.4508 43.6289 36.9496C43.6289 37.4485 44.0333 37.8528 44.5321 37.8528ZM44.5321 37.627C44.9063 37.627 45.2096 37.3237 45.2096 36.9496C45.2096 36.5755 44.9063 36.2722 44.5321 36.2722C44.158 36.2722 43.8547 36.5755 43.8547 36.9496C43.8547 37.3237 44.158 37.627 44.5321 37.627ZM48.3047 36.9496L48.9765 36.2779L48.8168 36.1182L48.145 36.7899L47.4733 36.1182L47.3136 36.2779L47.9854 36.9496L47.3136 37.6214L47.4733 37.781L48.145 37.1093L48.8168 37.781L48.9765 37.6214L48.3047 36.9496ZM48.145 41.4657C48.6439 41.4657 49.0483 41.0614 49.0483 40.5625C49.0483 40.0637 48.6439 39.6593 48.145 39.6593C47.6462 39.6593 47.2418 40.0637 47.2418 40.5625C47.2418 41.0614 47.6462 41.4657 48.145 41.4657ZM48.145 41.2399C48.5192 41.2399 48.8225 40.9366 48.8225 40.5625C48.8225 40.1884 48.5192 39.8851 48.145 39.8851C47.7709 39.8851 47.4676 40.1884 47.4676 40.5625C47.4676 40.9366 47.7709 41.2399 48.145 41.2399ZM44.6918 40.5625L45.3635 39.8908L45.2039 39.7311L44.5321 40.4028L43.8604 39.7311L43.7007 39.8908L44.3725 40.5625L43.7007 41.2343L43.8604 41.3939L44.5321 40.7222L45.2039 41.3939L45.3635 41.2343L44.6918 40.5625Z" fill="#1E1E1E"/>
<path fill-rule="evenodd" clip-rule="evenodd" d="M51.6122 37.8528C52.111 37.8528 52.5154 37.4485 52.5154 36.9496C52.5154 36.4508 52.111 36.0464 51.6122 36.0464C51.1134 36.0464 50.709 36.4508 50.709 36.9496C50.709 37.4485 51.1134 37.8528 51.6122 37.8528ZM51.6122 37.627C51.9863 37.627 52.2896 37.3237 52.2896 36.9496C52.2896 36.5755 51.9863 36.2722 51.6122 36.2722C51.2381 36.2722 50.9348 36.5755 50.9348 36.9496C50.9348 37.3237 51.2381 37.627 51.6122 37.627ZM55.3848 36.9496L56.0565 36.2779L55.8969 36.1182L55.2251 36.7899L54.5534 36.1182L54.3937 36.2779L55.0654 36.9496L54.3937 37.6214L54.5534 37.781L55.2251 37.1093L55.8969 37.781L56.0565 37.6214L55.3848 36.9496ZM55.2251 41.4657C55.724 41.4657 56.1283 41.0614 56.1283 40.5625C56.1283 40.0637 55.724 39.6593 55.2251 39.6593C54.7263 39.6593 54.3219 40.0637 54.3219 40.5625C54.3219 41.0614 54.7263 41.4657 55.2251 41.4657ZM55.2251 41.2399C55.5992 41.2399 55.9025 40.9366 55.9025 40.5625C55.9025 40.1884 55.5992 39.8851 55.2251 39.8851C54.851 39.8851 54.5477 40.1884 54.5477 40.5625C54.5477 40.9366 54.851 41.2399 55.2251 41.2399ZM51.7719 40.5625L52.4436 39.8908L52.284 39.7311L51.6122 40.4028L50.9405 39.7311L50.7808 39.8908L51.4525 40.5625L50.7808 41.2343L50.9405 41.3939L51.6122 40.7222L52.284 41.3939L52.4436 41.2343L51.7719 40.5625Z" fill="#1E1E1E"/>
<path fill-rule="evenodd" clip-rule="evenodd" d="M2.06143 44.9315C2.56027 44.9315 2.96465 44.5271 2.96465 44.0282C2.96465 43.5294 2.56027 43.125 2.06143 43.125C1.56259 43.125 1.1582 43.5294 1.1582 44.0282C1.1582 44.5271 1.56259 44.9315 2.06143 44.9315ZM2.06143 44.7056C2.43556 44.7056 2.73885 44.4024 2.73885 44.0282C2.73885 43.6541 2.43556 43.3508 2.06143 43.3508C1.6873 43.3508 1.38401 43.6541 1.38401 44.0282C1.38401 44.4024 1.6873 44.7056 2.06143 44.7056ZM5.834 44.0282L6.50575 43.3565L6.34608 43.1968L5.67433 43.8686L5.00259 43.1968L4.84292 43.3565L5.51466 44.0282L4.84292 44.7L5.00259 44.8596L5.67433 44.1879L6.34608 44.8596L6.50575 44.7L5.834 44.0282ZM5.67433 48.5444C6.17317 48.5444 6.57756 48.14 6.57756 47.6411C6.57756 47.1423 6.17317 46.7379 5.67433 46.7379C5.17549 46.7379 4.77111 47.1423 4.77111 47.6411C4.77111 48.14 5.17549 48.5444 5.67433 48.5444ZM5.67433 48.3185C6.04846 48.3185 6.35175 48.0153 6.35175 47.6411C6.35175 47.267 6.04846 46.9637 5.67433 46.9637C5.3002 46.9637 4.99691 47.267 4.99691 47.6411C4.99691 48.0153 5.3002 48.3185 5.67433 48.3185ZM2.2211 47.6411L2.89284 46.9694L2.73317 46.8097L2.06143 47.4815L1.38968 46.8097L1.23001 46.9694L1.90176 47.6411L1.23001 48.3129L1.38968 48.4725L2.06143 47.8008L2.73317 48.4725L2.89284 48.3129L2.2211 47.6411Z" fill="#1E1E1E"/>
<path fill-rule="evenodd" clip-rule="evenodd" d="M9.13955 44.9315C9.63839 44.9315 10.0428 44.5271 10.0428 44.0282C10.0428 43.5294 9.63839 43.125 9.13955 43.125C8.64072 43.125 8.23633 43.5294 8.23633 44.0282C8.23633 44.5271 8.64072 44.9315 9.13955 44.9315ZM9.13955 44.7056C9.51368 44.7056 9.81697 44.4024 9.81697 44.0282C9.81697 43.6541 9.51368 43.3508 9.13955 43.3508C8.76543 43.3508 8.46213 43.6541 8.46213 44.0282C8.46213 44.4024 8.76543 44.7056 9.13955 44.7056ZM12.9121 44.0282L13.5839 43.3565L13.4242 43.1968L12.7525 43.8686L12.0807 43.1968L11.921 43.3565L12.5928 44.0282L11.921 44.7L12.0807 44.8596L12.7525 44.1879L13.4242 44.8596L13.5839 44.7L12.9121 44.0282ZM12.7525 48.5444C13.2513 48.5444 13.6557 48.14 13.6557 47.6411C13.6557 47.1423 13.2513 46.7379 12.7525 46.7379C12.2536 46.7379 11.8492 47.1423 11.8492 47.6411C11.8492 48.14 12.2536 48.5444 12.7525 48.5444ZM12.7525 48.3185C13.1266 48.3185 13.4299 48.0153 13.4299 47.6411C13.4299 47.267 13.1266 46.9637 12.7525 46.9637C12.3783 46.9637 12.075 47.267 12.075 47.6411C12.075 48.0153 12.3783 48.3185 12.7525 48.3185ZM9.29922 47.6411L9.97097 46.9694L9.8113 46.8097L9.13955 47.4815L8.46781 46.8097L8.30814 46.9694L8.97988 47.6411L8.30814 48.3129L8.46781 48.4725L9.13955 47.8008L9.8113 48.4725L9.97097 48.3129L9.29922 47.6411Z" fill="#1E1E1E"/>
<path fill-rule="evenodd" clip-rule="evenodd" d="M16.2177 44.9315C16.7165 44.9315 17.1209 44.5271 17.1209 44.0282C17.1209 43.5294 16.7165 43.125 16.2177 43.125C15.7188 43.125 15.3145 43.5294 15.3145 44.0282C15.3145 44.5271 15.7188 44.9315 16.2177 44.9315ZM16.2177 44.7056C16.5918 44.7056 16.8951 44.4024 16.8951 44.0282C16.8951 43.6541 16.5918 43.3508 16.2177 43.3508C15.8436 43.3508 15.5403 43.6541 15.5403 44.0282C15.5403 44.4024 15.8436 44.7056 16.2177 44.7056ZM19.9903 44.0282L20.662 43.3565L20.5023 43.1968L19.8306 43.8686L19.1588 43.1968L18.9992 43.3565L19.6709 44.0282L18.9992 44.7L19.1588 44.8596L19.8306 44.1879L20.5023 44.8596L20.662 44.7L19.9903 44.0282ZM19.8306 48.5444C20.3294 48.5444 20.7338 48.14 20.7338 47.6411C20.7338 47.1423 20.3294 46.7379 19.8306 46.7379C19.3317 46.7379 18.9274 47.1423 18.9274 47.6411C18.9274 48.14 19.3317 48.5444 19.8306 48.5444ZM19.8306 48.3185C20.2047 48.3185 20.508 48.0153 20.508 47.6411C20.508 47.267 20.2047 46.9637 19.8306 46.9637C19.4565 46.9637 19.1532 47.267 19.1532 47.6411C19.1532 48.0153 19.4565 48.3185 19.8306 48.3185ZM16.3773 47.6411L17.0491 46.9694L16.8894 46.8097L16.2177 47.4815L15.5459 46.8097L15.3863 46.9694L16.058 47.6411L15.3863 48.3129L15.5459 48.4725L16.2177 47.8008L16.8894 48.4725L17.0491 48.3129L16.3773 47.6411Z" fill="#1E1E1E"/>
<path fill-rule="evenodd" clip-rule="evenodd" d="M23.2978 44.9315C23.7966 44.9315 24.201 44.5271 24.201 44.0282C24.201 43.5294 23.7966 43.125 23.2978 43.125C22.7989 43.125 22.3945 43.5294 22.3945 44.0282C22.3945 44.5271 22.7989 44.9315 23.2978 44.9315ZM23.2978 44.7056C23.6719 44.7056 23.9752 44.4024 23.9752 44.0282C23.9752 43.6541 23.6719 43.3508 23.2978 43.3508C22.9236 43.3508 22.6203 43.6541 22.6203 44.0282C22.6203 44.4024 22.9236 44.7056 23.2978 44.7056ZM27.0703 44.0282L27.7421 43.3565L27.5824 43.1968L26.9107 43.8686L26.2389 43.1968L26.0792 43.3565L26.751 44.0282L26.0792 44.7L26.2389 44.8596L26.9107 44.1879L27.5824 44.8596L27.7421 44.7L27.0703 44.0282ZM26.9107 48.5444C27.4095 48.5444 27.8139 48.14 27.8139 47.6411C27.8139 47.1423 27.4095 46.7379 26.9107 46.7379C26.4118 46.7379 26.0074 47.1423 26.0074 47.6411C26.0074 48.14 26.4118 48.5444 26.9107 48.5444ZM26.9107 48.3185C27.2848 48.3185 27.5881 48.0153 27.5881 47.6411C27.5881 47.267 27.2848 46.9637 26.9107 46.9637C26.5365 46.9637 26.2332 47.267 26.2332 47.6411C26.2332 48.0153 26.5365 48.3185 26.9107 48.3185ZM23.4574 47.6411L24.1292 46.9694L23.9695 46.8097L23.2978 47.4815L22.626 46.8097L22.4663 46.9694L23.1381 47.6411L22.4663 48.3129L22.626 48.4725L23.2978 47.8008L23.9695 48.4725L24.1292 48.3129L23.4574 47.6411Z" fill="#1E1E1E"/>
<path fill-rule="evenodd" clip-rule="evenodd" d="M30.3759 44.9315C30.8747 44.9315 31.2791 44.5271 31.2791 44.0282C31.2791 43.5294 30.8747 43.125 30.3759 43.125C29.877 43.125 29.4727 43.5294 29.4727 44.0282C29.4727 44.5271 29.877 44.9315 30.3759 44.9315ZM30.3759 44.7056C30.75 44.7056 31.0533 44.4024 31.0533 44.0282C31.0533 43.6541 30.75 43.3508 30.3759 43.3508C30.0018 43.3508 29.6985 43.6541 29.6985 44.0282C29.6985 44.4024 30.0018 44.7056 30.3759 44.7056ZM34.1485 44.0282L34.8202 43.3565L34.6605 43.1968L33.9888 43.8686L33.317 43.1968L33.1574 43.3565L33.8291 44.0282L33.1574 44.7L33.317 44.8596L33.9888 44.1879L34.6605 44.8596L34.8202 44.7L34.1485 44.0282ZM33.9888 48.5444C34.4876 48.5444 34.892 48.14 34.892 47.6411C34.892 47.1423 34.4876 46.7379 33.9888 46.7379C33.4899 46.7379 33.0856 47.1423 33.0856 47.6411C33.0856 48.14 33.4899 48.5444 33.9888 48.5444ZM33.9888 48.3185C34.3629 48.3185 34.6662 48.0153 34.6662 47.6411C34.6662 47.267 34.3629 46.9637 33.9888 46.9637C33.6147 46.9637 33.3114 47.267 33.3114 47.6411C33.3114 48.0153 33.6147 48.3185 33.9888 48.3185ZM30.5356 47.6411L31.2073 46.9694L31.0476 46.8097L30.3759 47.4815L29.7041 46.8097L29.5445 46.9694L30.2162 47.6411L29.5445 48.3129L29.7041 48.4725L30.3759 47.8008L31.0476 48.4725L31.2073 48.3129L30.5356 47.6411Z" fill="#1E1E1E"/>
<path fill-rule="evenodd" clip-rule="evenodd" d="M37.454 44.9315C37.9528 44.9315 38.3572 44.5271 38.3572 44.0282C38.3572 43.5294 37.9528 43.125 37.454 43.125C36.9552 43.125 36.5508 43.5294 36.5508 44.0282C36.5508 44.5271 36.9552 44.9315 37.454 44.9315ZM37.454 44.7056C37.8281 44.7056 38.1314 44.4024 38.1314 44.0282C38.1314 43.6541 37.8281 43.3508 37.454 43.3508C37.0799 43.3508 36.7766 43.6541 36.7766 44.0282C36.7766 44.4024 37.0799 44.7056 37.454 44.7056ZM41.2266 44.0282L41.8983 43.3565L41.7387 43.1968L41.0669 43.8686L40.3952 43.1968L40.2355 43.3565L40.9072 44.0282L40.2355 44.7L40.3952 44.8596L41.0669 44.1879L41.7387 44.8596L41.8983 44.7L41.2266 44.0282ZM41.0669 48.5444C41.5657 48.5444 41.9701 48.14 41.9701 47.6411C41.9701 47.1423 41.5657 46.7379 41.0669 46.7379C40.5681 46.7379 40.1637 47.1423 40.1637 47.6411C40.1637 48.14 40.5681 48.5444 41.0669 48.5444ZM41.0669 48.3185C41.441 48.3185 41.7443 48.0153 41.7443 47.6411C41.7443 47.267 41.441 46.9637 41.0669 46.9637C40.6928 46.9637 40.3895 47.267 40.3895 47.6411C40.3895 48.0153 40.6928 48.3185 41.0669 48.3185ZM37.6137 47.6411L38.2854 46.9694L38.1258 46.8097L37.454 47.4815L36.7823 46.8097L36.6226 46.9694L37.2943 47.6411L36.6226 48.3129L36.7823 48.4725L37.454 47.8008L38.1258 48.4725L38.2854 48.3129L37.6137 47.6411Z" fill="#1E1E1E"/>
<path fill-rule="evenodd" clip-rule="evenodd" d="M44.5321 44.9315C45.031 44.9315 45.4354 44.5271 45.4354 44.0282C45.4354 43.5294 45.031 43.125 44.5321 43.125C44.0333 43.125 43.6289 43.5294 43.6289 44.0282C43.6289 44.5271 44.0333 44.9315 44.5321 44.9315ZM44.5321 44.7056C44.9063 44.7056 45.2096 44.4024 45.2096 44.0282C45.2096 43.6541 44.9063 43.3508 44.5321 43.3508C44.158 43.3508 43.8547 43.6541 43.8547 44.0282C43.8547 44.4024 44.158 44.7056 44.5321 44.7056ZM48.3047 44.0282L48.9765 43.3565L48.8168 43.1968L48.145 43.8686L47.4733 43.1968L47.3136 43.3565L47.9854 44.0282L47.3136 44.7L47.4733 44.8596L48.145 44.1879L48.8168 44.8596L48.9765 44.7L48.3047 44.0282ZM48.145 48.5444C48.6439 48.5444 49.0483 48.14 49.0483 47.6411C49.0483 47.1423 48.6439 46.7379 48.145 46.7379C47.6462 46.7379 47.2418 47.1423 47.2418 47.6411C47.2418 48.14 47.6462 48.5444 48.145 48.5444ZM48.145 48.3185C48.5192 48.3185 48.8225 48.0153 48.8225 47.6411C48.8225 47.267 48.5192 46.9637 48.145 46.9637C47.7709 46.9637 47.4676 47.267 47.4676 47.6411C47.4676 48.0153 47.7709 48.3185 48.145 48.3185ZM44.6918 47.6411L45.3635 46.9694L45.2039 46.8097L44.5321 47.4815L43.8604 46.8097L43.7007 46.9694L44.3725 47.6411L43.7007 48.3129L43.8604 48.4725L44.5321 47.8008L45.2039 48.4725L45.3635 48.3129L44.6918 47.6411Z" fill="#1E1E1E"/>
<path fill-rule="evenodd" clip-rule="evenodd" d="M51.6122 44.9315C52.111 44.9315 52.5154 44.5271 52.5154 44.0282C52.5154 43.5294 52.111 43.125 51.6122 43.125C51.1134 43.125 50.709 43.5294 50.709 44.0282C50.709 44.5271 51.1134 44.9315 51.6122 44.9315ZM51.6122 44.7056C51.9863 44.7056 52.2896 44.4024 52.2896 44.0282C52.2896 43.6541 51.9863 43.3508 51.6122 43.3508C51.2381 43.3508 50.9348 43.6541 50.9348 44.0282C50.9348 44.4024 51.2381 44.7056 51.6122 44.7056ZM55.3848 44.0282L56.0565 43.3565L55.8969 43.1968L55.2251 43.8686L54.5534 43.1968L54.3937 43.3565L55.0654 44.0282L54.3937 44.7L54.5534 44.8596L55.2251 44.1879L55.8969 44.8596L56.0565 44.7L55.3848 44.0282ZM55.2251 48.5444C55.724 48.5444 56.1283 48.14 56.1283 47.6411C56.1283 47.1423 55.724 46.7379 55.2251 46.7379C54.7263 46.7379 54.3219 47.1423 54.3219 47.6411C54.3219 48.14 54.7263 48.5444 55.2251 48.5444ZM55.2251 48.3185C55.5992 48.3185 55.9025 48.0153 55.9025 47.6411C55.9025 47.267 55.5992 46.9637 55.2251 46.9637C54.851 46.9637 54.5477 47.267 54.5477 47.6411C54.5477 48.0153 54.851 48.3185 55.2251 48.3185ZM51.7719 47.6411L52.4436 46.9694L52.284 46.8097L51.6122 47.4815L50.9405 46.8097L50.7808 46.9694L51.4525 47.6411L50.7808 48.3129L50.9405 48.4725L51.6122 47.8008L52.284 48.4725L52.4436 48.3129L51.7719 47.6411Z" fill="#1E1E1E"/>
<path fill-rule="evenodd" clip-rule="evenodd" d="M2.06143 52.0101C2.56027 52.0101 2.96465 51.6057 2.96465 51.1068C2.96465 50.608 2.56027 50.2036 2.06143 50.2036C1.56259 50.2036 1.1582 50.608 1.1582 51.1068C1.1582 51.6057 1.56259 52.0101 2.06143 52.0101ZM2.06143 51.7843C2.43556 51.7843 2.73885 51.481 2.73885 51.1068C2.73885 50.7327 2.43556 50.4294 2.06143 50.4294C1.6873 50.4294 1.38401 50.7327 1.38401 51.1068C1.38401 51.481 1.6873 51.7843 2.06143 51.7843ZM5.834 51.1068L6.50575 50.4351L6.34608 50.2754L5.67433 50.9472L5.00259 50.2754L4.84292 50.4351L5.51466 51.1068L4.84292 51.7786L5.00259 51.9383L5.67433 51.2665L6.34608 51.9383L6.50575 51.7786L5.834 51.1068ZM5.67433 55.623C6.17317 55.623 6.57756 55.2186 6.57756 54.7197C6.57756 54.2209 6.17317 53.8165 5.67433 53.8165C5.17549 53.8165 4.77111 54.2209 4.77111 54.7197C4.77111 55.2186 5.17549 55.623 5.67433 55.623ZM5.67433 55.3972C6.04846 55.3972 6.35175 55.0939 6.35175 54.7197C6.35175 54.3456 6.04846 54.0423 5.67433 54.0423C5.3002 54.0423 4.99691 54.3456 4.99691 54.7197C4.99691 55.0939 5.3002 55.3972 5.67433 55.3972ZM2.2211 54.7197L2.89284 54.048L2.73317 53.8883L2.06143 54.5601L1.38968 53.8883L1.23001 54.048L1.90176 54.7197L1.23001 55.3915L1.38968 55.5512L2.06143 54.8794L2.73317 55.5512L2.89284 55.3915L2.2211 54.7197Z" fill="#1E1E1E"/>
<path fill-rule="evenodd" clip-rule="evenodd" d="M9.13955 52.0101C9.63839 52.0101 10.0428 51.6057 10.0428 51.1068C10.0428 50.608 9.63839 50.2036 9.13955 50.2036C8.64072 50.2036 8.23633 50.608 8.23633 51.1068C8.23633 51.6057 8.64072 52.0101 9.13955 52.0101ZM9.13955 51.7843C9.51368 51.7843 9.81697 51.481 9.81697 51.1068C9.81697 50.7327 9.51368 50.4294 9.13955 50.4294C8.76543 50.4294 8.46213 50.7327 8.46213 51.1068C8.46213 51.481 8.76543 51.7843 9.13955 51.7843ZM12.9121 51.1068L13.5839 50.4351L13.4242 50.2754L12.7525 50.9472L12.0807 50.2754L11.921 50.4351L12.5928 51.1068L11.921 51.7786L12.0807 51.9383L12.7525 51.2665L13.4242 51.9383L13.5839 51.7786L12.9121 51.1068ZM12.7525 55.623C13.2513 55.623 13.6557 55.2186 13.6557 54.7197C13.6557 54.2209 13.2513 53.8165 12.7525 53.8165C12.2536 53.8165 11.8492 54.2209 11.8492 54.7197C11.8492 55.2186 12.2536 55.623 12.7525 55.623ZM12.7525 55.3972C13.1266 55.3972 13.4299 55.0939 13.4299 54.7197C13.4299 54.3456 13.1266 54.0423 12.7525 54.0423C12.3783 54.0423 12.075 54.3456 12.075 54.7197C12.075 55.0939 12.3783 55.3972 12.7525 55.3972ZM9.29922 54.7197L9.97097 54.048L9.8113 53.8883L9.13955 54.5601L8.46781 53.8883L8.30814 54.048L8.97988 54.7197L8.30814 55.3915L8.46781 55.5512L9.13955 54.8794L9.8113 55.5512L9.97097 55.3915L9.29922 54.7197Z" fill="#1E1E1E"/>
<path fill-rule="evenodd" clip-rule="evenodd" d="M16.2177 52.0101C16.7165 52.0101 17.1209 51.6057 17.1209 51.1068C17.1209 50.608 16.7165 50.2036 16.2177 50.2036C15.7188 50.2036 15.3145 50.608 15.3145 51.1068C15.3145 51.6057 15.7188 52.0101 16.2177 52.0101ZM16.2177 51.7843C16.5918 51.7843 16.8951 51.481 16.8951 51.1068C16.8951 50.7327 16.5918 50.4294 16.2177 50.4294C15.8436 50.4294 15.5403 50.7327 15.5403 51.1068C15.5403 51.481 15.8436 51.7843 16.2177 51.7843ZM19.9903 51.1068L20.662 50.4351L20.5023 50.2754L19.8306 50.9472L19.1588 50.2754L18.9992 50.4351L19.6709 51.1068L18.9992 51.7786L19.1588 51.9383L19.8306 51.2665L20.5023 51.9383L20.662 51.7786L19.9903 51.1068ZM19.8306 55.623C20.3294 55.623 20.7338 55.2186 20.7338 54.7197C20.7338 54.2209 20.3294 53.8165 19.8306 53.8165C19.3317 53.8165 18.9274 54.2209 18.9274 54.7197C18.9274 55.2186 19.3317 55.623 19.8306 55.623ZM19.8306 55.3972C20.2047 55.3972 20.508 55.0939 20.508 54.7197C20.508 54.3456 20.2047 54.0423 19.8306 54.0423C19.4565 54.0423 19.1532 54.3456 19.1532 54.7197C19.1532 55.0939 19.4565 55.3972 19.8306 55.3972ZM16.3773 54.7197L17.0491 54.048L16.8894 53.8883L16.2177 54.5601L15.5459 53.8883L15.3863 54.048L16.058 54.7197L15.3863 55.3915L15.5459 55.5512L16.2177 54.8794L16.8894 55.5512L17.0491 55.3915L16.3773 54.7197Z" fill="#1E1E1E"/>
<path fill-rule="evenodd" clip-rule="evenodd" d="M23.2978 52.0101C23.7966 52.0101 24.201 51.6057 24.201 51.1068C24.201 50.608 23.7966 50.2036 23.2978 50.2036C22.7989 50.2036 22.3945 50.608 22.3945 51.1068C22.3945 51.6057 22.7989 52.0101 23.2978 52.0101ZM23.2978 51.7843C23.6719 51.7843 23.9752 51.481 23.9752 51.1068C23.9752 50.7327 23.6719 50.4294 23.2978 50.4294C22.9236 50.4294 22.6203 50.7327 22.6203 51.1068C22.6203 51.481 22.9236 51.7843 23.2978 51.7843ZM27.0703 51.1068L27.7421 50.4351L27.5824 50.2754L26.9107 50.9472L26.2389 50.2754L26.0792 50.4351L26.751 51.1068L26.0792 51.7786L26.2389 51.9383L26.9107 51.2665L27.5824 51.9383L27.7421 51.7786L27.0703 51.1068ZM26.9107 55.623C27.4095 55.623 27.8139 55.2186 27.8139 54.7197C27.8139 54.2209 27.4095 53.8165 26.9107 53.8165C26.4118 53.8165 26.0074 54.2209 26.0074 54.7197C26.0074 55.2186 26.4118 55.623 26.9107 55.623ZM26.9107 55.3972C27.2848 55.3972 27.5881 55.0939 27.5881 54.7197C27.5881 54.3456 27.2848 54.0423 26.9107 54.0423C26.5365 54.0423 26.2332 54.3456 26.2332 54.7197C26.2332 55.0939 26.5365 55.3972 26.9107 55.3972ZM23.4574 54.7197L24.1292 54.048L23.9695 53.8883L23.2978 54.5601L22.626 53.8883L22.4663 54.048L23.1381 54.7197L22.4663 55.3915L22.626 55.5512L23.2978 54.8794L23.9695 55.5512L24.1292 55.3915L23.4574 54.7197Z" fill="#1E1E1E"/>
<path fill-rule="evenodd" clip-rule="evenodd" d="M30.3759 52.0101C30.8747 52.0101 31.2791 51.6057 31.2791 51.1068C31.2791 50.608 30.8747 50.2036 30.3759 50.2036C29.877 50.2036 29.4727 50.608 29.4727 51.1068C29.4727 51.6057 29.877 52.0101 30.3759 52.0101ZM30.3759 51.7843C30.75 51.7843 31.0533 51.481 31.0533 51.1068C31.0533 50.7327 30.75 50.4294 30.3759 50.4294C30.0018 50.4294 29.6985 50.7327 29.6985 51.1068C29.6985 51.481 30.0018 51.7843 30.3759 51.7843ZM34.1485 51.1068L34.8202 50.4351L34.6605 50.2754L33.9888 50.9472L33.317 50.2754L33.1574 50.4351L33.8291 51.1068L33.1574 51.7786L33.317 51.9383L33.9888 51.2665L34.6605 51.9383L34.8202 51.7786L34.1485 51.1068ZM33.9888 55.623C34.4876 55.623 34.892 55.2186 34.892 54.7197C34.892 54.2209 34.4876 53.8165 33.9888 53.8165C33.4899 53.8165 33.0856 54.2209 33.0856 54.7197C33.0856 55.2186 33.4899 55.623 33.9888 55.623ZM33.9888 55.3972C34.3629 55.3972 34.6662 55.0939 34.6662 54.7197C34.6662 54.3456 34.3629 54.0423 33.9888 54.0423C33.6147 54.0423 33.3114 54.3456 33.3114 54.7197C33.3114 55.0939 33.6147 55.3972 33.9888 55.3972ZM30.5356 54.7197L31.2073 54.048L31.0476 53.8883L30.3759 54.5601L29.7041 53.8883L29.5445 54.048L30.2162 54.7197L29.5445 55.3915L29.7041 55.5512L30.3759 54.8794L31.0476 55.5512L31.2073 55.3915L30.5356 54.7197Z" fill="#1E1E1E"/>
<path fill-rule="evenodd" clip-rule="evenodd" d="M37.454 52.0101C37.9528 52.0101 38.3572 51.6057 38.3572 51.1068C38.3572 50.608 37.9528 50.2036 37.454 50.2036C36.9552 50.2036 36.5508 50.608 36.5508 51.1068C36.5508 51.6057 36.9552 52.0101 37.454 52.0101ZM37.454 51.7843C37.8281 51.7843 38.1314 51.481 38.1314 51.1068C38.1314 50.7327 37.8281 50.4294 37.454 50.4294C37.0799 50.4294 36.7766 50.7327 36.7766 51.1068C36.7766 51.481 37.0799 51.7843 37.454 51.7843ZM41.2266 51.1068L41.8983 50.4351L41.7387 50.2754L41.0669 50.9472L40.3952 50.2754L40.2355 50.4351L40.9072 51.1068L40.2355 51.7786L40.3952 51.9383L41.0669 51.2665L41.7387 51.9383L41.8983 51.7786L41.2266 51.1068ZM41.0669 55.623C41.5657 55.623 41.9701 55.2186 41.9701 54.7197C41.9701 54.2209 41.5657 53.8165 41.0669 53.8165C40.5681 53.8165 40.1637 54.2209 40.1637 54.7197C40.1637 55.2186 40.5681 55.623 41.0669 55.623ZM41.0669 55.3972C41.441 55.3972 41.7443 55.0939 41.7443 54.7197C41.7443 54.3456 41.441 54.0423 41.0669 54.0423C40.6928 54.0423 40.3895 54.3456 40.3895 54.7197C40.3895 55.0939 40.6928 55.3972 41.0669 55.3972ZM37.6137 54.7197L38.2854 54.048L38.1258 53.8883L37.454 54.5601L36.7823 53.8883L36.6226 54.048L37.2943 54.7197L36.6226 55.3915L36.7823 55.5512L37.454 54.8794L38.1258 55.5512L38.2854 55.3915L37.6137 54.7197Z" fill="#1E1E1E"/>
<path fill-rule="evenodd" clip-rule="evenodd" d="M44.5321 52.0101C45.031 52.0101 45.4354 51.6057 45.4354 51.1068C45.4354 50.608 45.031 50.2036 44.5321 50.2036C44.0333 50.2036 43.6289 50.608 43.6289 51.1068C43.6289 51.6057 44.0333 52.0101 44.5321 52.0101ZM44.5321 51.7843C44.9063 51.7843 45.2096 51.481 45.2096 51.1068C45.2096 50.7327 44.9063 50.4294 44.5321 50.4294C44.158 50.4294 43.8547 50.7327 43.8547 51.1068C43.8547 51.481 44.158 51.7843 44.5321 51.7843ZM48.3047 51.1068L48.9765 50.4351L48.8168 50.2754L48.145 50.9472L47.4733 50.2754L47.3136 50.4351L47.9854 51.1068L47.3136 51.7786L47.4733 51.9383L48.145 51.2665L48.8168 51.9383L48.9765 51.7786L48.3047 51.1068ZM48.145 55.623C48.6439 55.623 49.0483 55.2186 49.0483 54.7197C49.0483 54.2209 48.6439 53.8165 48.145 53.8165C47.6462 53.8165 47.2418 54.2209 47.2418 54.7197C47.2418 55.2186 47.6462 55.623 48.145 55.623ZM48.145 55.3972C48.5192 55.3972 48.8225 55.0939 48.8225 54.7197C48.8225 54.3456 48.5192 54.0423 48.145 54.0423C47.7709 54.0423 47.4676 54.3456 47.4676 54.7197C47.4676 55.0939 47.7709 55.3972 48.145 55.3972ZM44.6918 54.7197L45.3635 54.048L45.2039 53.8883L44.5321 54.5601L43.8604 53.8883L43.7007 54.048L44.3725 54.7197L43.7007 55.3915L43.8604 55.5512L44.5321 54.8794L45.2039 55.5512L45.3635 55.3915L44.6918 54.7197Z" fill="#1E1E1E"/>
<path fill-rule="evenodd" clip-rule="evenodd" d="M51.6122 52.0101C52.111 52.0101 52.5154 51.6057 52.5154 51.1068C52.5154 50.608 52.111 50.2036 51.6122 50.2036C51.1134 50.2036 50.709 50.608 50.709 51.1068C50.709 51.6057 51.1134 52.0101 51.6122 52.0101ZM51.6122 51.7843C51.9863 51.7843 52.2896 51.481 52.2896 51.1068C52.2896 50.7327 51.9863 50.4294 51.6122 50.4294C51.2381 50.4294 50.9348 50.7327 50.9348 51.1068C50.9348 51.481 51.2381 51.7843 51.6122 51.7843ZM55.3848 51.1068L56.0565 50.4351L55.8969 50.2754L55.2251 50.9472L54.5534 50.2754L54.3937 50.4351L55.0654 51.1068L54.3937 51.7786L54.5534 51.9383L55.2251 51.2665L55.8969 51.9383L56.0565 51.7786L55.3848 51.1068ZM55.2251 55.623C55.724 55.623 56.1283 55.2186 56.1283 54.7197C56.1283 54.2209 55.724 53.8165 55.2251 53.8165C54.7263 53.8165 54.3219 54.2209 54.3219 54.7197C54.3219 55.2186 54.7263 55.623 55.2251 55.623ZM55.2251 55.3972C55.5992 55.3972 55.9025 55.0939 55.9025 54.7197C55.9025 54.3456 55.5992 54.0423 55.2251 54.0423C54.851 54.0423 54.5477 54.3456 54.5477 54.7197C54.5477 55.0939 54.851 55.3972 55.2251 55.3972ZM51.7719 54.7197L52.4436 54.048L52.284 53.8883L51.6122 54.5601L50.9405 53.8883L50.7808 54.048L51.4525 54.7197L50.7808 55.3915L50.9405 55.5512L51.6122 54.8794L52.284 55.5512L52.4436 55.3915L51.7719 54.7197Z" fill="#1E1E1E"/>
</g>
<defs>
<clipPath id="clip0_117_73019">
<rect width="56" height="56" fill="white" transform="translate(0.642578 0.138184)"/>
</clipPath>
</defs>
</svg>
