<svg width="57" height="57" viewBox="0 0 57 57" fill="none" xmlns="http://www.w3.org/2000/svg">
<rect width="56" height="56" transform="translate(0.642578 0.138184)" fill="#F7F8F9"/>
<path d="M21.9403 23.4109V32.1382H20.7301L16.294 25.7376H16.2131V32.1382H14.8963V23.4109H16.1151L20.5554 29.82H20.6364V23.4109H21.9403ZM26.516 32.2703C25.9023 32.2703 25.3668 32.1297 24.9094 31.8484C24.4521 31.5672 24.0969 31.1737 23.8441 30.668C23.5913 30.1623 23.4648 29.5714 23.4648 28.8953C23.4648 28.2163 23.5913 27.6226 23.8441 27.114C24.0969 26.6055 24.4521 26.2106 24.9094 25.9294C25.3668 25.6481 25.9023 25.5075 26.516 25.5075C27.1296 25.5075 27.6651 25.6481 28.1225 25.9294C28.5799 26.2106 28.935 26.6055 29.1879 27.114C29.4407 27.6226 29.5671 28.2163 29.5671 28.8953C29.5671 29.5714 29.4407 30.1623 29.1879 30.668C28.935 31.1737 28.5799 31.5672 28.1225 31.8484C27.6651 32.1297 27.1296 32.2703 26.516 32.2703ZM26.5202 31.2007C26.918 31.2007 27.2475 31.0956 27.5089 30.8853C27.7702 30.6751 27.9634 30.3953 28.0884 30.0459C28.2163 29.6964 28.2802 29.3115 28.2802 28.891C28.2802 28.4734 28.2163 28.0899 28.0884 27.7405C27.9634 27.3882 27.7702 27.1055 27.5089 26.8924C27.2475 26.6794 26.918 26.5728 26.5202 26.5728C26.1197 26.5728 25.7873 26.6794 25.5231 26.8924C25.2617 27.1055 25.0671 27.3882 24.9393 27.7405C24.8143 28.0899 24.7518 28.4734 24.7518 28.891C24.7518 29.3115 24.8143 29.6964 24.9393 30.0459C25.0671 30.3953 25.2617 30.6751 25.5231 30.8853C25.7873 31.0956 26.1197 31.2007 26.5202 31.2007ZM32.2635 28.2518V32.1382H30.9893V25.5927H32.2124V26.6581H32.2933C32.4439 26.3115 32.6797 26.0331 33.0007 25.8228C33.3246 25.6126 33.7322 25.5075 34.2237 25.5075C34.6697 25.5075 35.0604 25.6013 35.3956 25.7888C35.7308 25.9734 35.9908 26.249 36.1754 26.6155C36.3601 26.9819 36.4524 27.4351 36.4524 27.9748V32.1382H35.1783V28.1282C35.1783 27.6538 35.0547 27.2831 34.8075 27.016C34.5604 26.7461 34.2209 26.6112 33.7891 26.6112C33.4936 26.6112 33.2308 26.6751 33.0007 26.803C32.7734 26.9308 32.593 27.1183 32.4595 27.3655C32.3288 27.6098 32.2635 27.9052 32.2635 28.2518ZM40.9822 32.2703C40.3374 32.2703 39.782 32.1325 39.3161 31.8569C38.853 31.5785 38.495 31.1879 38.2422 30.6851C37.9922 30.1794 37.8672 29.587 37.8672 28.9081C37.8672 28.2376 37.9922 27.6467 38.2422 27.1353C38.495 26.624 38.8473 26.2248 39.299 25.9379C39.7536 25.651 40.2848 25.5075 40.8928 25.5075C41.2621 25.5075 41.62 25.5686 41.9666 25.6907C42.3132 25.8129 42.6243 26.0047 42.8999 26.266C43.1754 26.5274 43.3928 26.8669 43.5518 27.2845C43.7109 27.6993 43.7905 28.2035 43.7905 28.7973V29.249H38.5874V28.2944H42.5419C42.5419 27.9592 42.4737 27.6623 42.3374 27.4038C42.201 27.1424 42.0092 26.9365 41.7621 26.7859C41.5178 26.6353 41.2308 26.5601 40.9013 26.5601C40.5433 26.5601 40.2308 26.6481 39.9638 26.8243C39.6996 26.9976 39.495 27.2248 39.3501 27.5061C39.2081 27.7845 39.1371 28.087 39.1371 28.4138V29.1595C39.1371 29.597 39.2138 29.9691 39.3672 30.276C39.5234 30.5828 39.7408 30.8172 40.0192 30.9791C40.2976 31.1382 40.6229 31.2177 40.995 31.2177C41.2365 31.2177 41.4567 31.1836 41.6555 31.1155C41.8544 31.0444 42.0263 30.9393 42.1712 30.8001C42.3161 30.6609 42.4268 30.489 42.5036 30.2845L43.7095 30.5018C43.6129 30.8569 43.4396 31.168 43.1896 31.4351C42.9425 31.6993 42.6314 31.9052 42.2564 32.053C41.8842 32.1978 41.4595 32.2703 40.9822 32.2703Z" fill="#626F86"/>
</svg>
