<svg width="57" height="57" viewBox="0 0 57 57" fill="none" xmlns="http://www.w3.org/2000/svg">
<g clip-path="url(#clip0_117_76196)">
<g clip-path="url(#clip1_117_76196)">
<path d="M70.6861 56.8464L68.0403 56.2442C66.5956 55.9136 64.4001 56.2921 63.1495 57.0873C61.8989 57.8824 59.6396 58.2815 58.1676 57.946C56.6957 57.6105 54.5275 57.9938 53.2628 58.7914C51.9982 59.589 49.7553 59.9852 48.2833 59.6497C46.8113 59.3142 44.6432 59.6976 43.3902 60.4932C42.1372 61.2887 39.8803 61.6874 38.4083 61.3519C36.9364 61.0164 34.7682 61.3997 33.5176 62.1949C32.267 62.9901 30.0077 63.3891 28.5357 63.0536C27.0637 62.7181 24.8956 63.1015 23.6309 63.899C22.3663 64.6966 20.121 65.0933 18.6491 64.7578C17.1771 64.4223 15.0089 64.8056 13.7443 65.6032C12.4796 66.4008 10.2367 66.797 8.76242 66.4619C7.28811 66.1268 5.12227 66.5098 3.87165 67.3049C2.62103 68.1001 0.359436 68.4996 -1.11254 68.1641L-3.75842 67.5619L-3.73297 67.4445L-1.05206 68.0406C0.39455 68.3685 2.59003 67.99 3.84105 67.1972C5.09208 66.4043 7.35095 66.003 8.82526 66.3381C10.2996 66.6732 12.465 66.2879 13.716 65.495C14.9671 64.7022 17.2259 64.3008 18.6979 64.6363C20.1699 64.9718 22.34 64.5857 23.6027 63.7909C24.8654 62.996 27.1126 62.5967 28.5845 62.9322C30.0565 63.2677 32.2243 62.882 33.4753 62.0891C34.7263 61.2963 36.9852 60.8949 38.4572 61.2304C39.9291 61.5659 42.0969 61.1803 43.3503 60.387C44.6036 59.5938 46.8602 59.1928 48.3321 59.5283C49.8041 59.8638 51.9719 59.4781 53.2229 58.6853C54.4739 57.8924 56.7328 57.491 58.2048 57.8265C59.6767 58.1621 61.8445 57.7764 63.1095 56.9811C64.3746 56.1859 66.6171 55.7873 68.0891 56.1228L70.735 56.7249L70.6861 56.8464Z" fill="#1E1E1E"/>
<path d="M70.315 54.6808L67.6692 54.0787C66.2245 53.7481 64.029 54.1265 62.7784 54.9217C61.5278 55.7169 59.2685 56.116 57.7965 55.7805C56.3246 55.4449 54.1564 55.8283 52.8917 56.6259C51.6271 57.4235 49.3842 57.8197 47.9122 57.4842C46.4402 57.1487 44.2721 57.532 43.0191 58.3276C41.7662 59.1232 39.5092 59.5219 38.0372 59.1863C36.5653 58.8508 34.3971 59.2342 33.1465 60.0294C31.8959 60.8245 29.6366 61.2236 28.1646 60.8881C26.6927 60.5526 24.5245 60.9359 23.2598 61.7335C21.9952 62.5311 19.75 62.9277 18.278 62.5922C16.806 62.2567 14.6378 62.6401 13.3732 63.4377C12.1086 64.2353 9.86564 64.6315 8.39133 64.2964C6.91702 63.9613 4.75118 64.3442 3.50056 65.1394C2.24993 65.9346 -0.0116576 66.334 -1.48363 65.9985L-4.12952 65.3964L-4.10406 65.279L-1.45778 65.8834C-0.010767 66.2136 2.18471 65.8352 3.43533 65.04C4.68596 64.2448 6.94521 63.8458 8.41952 64.1809C9.89383 64.516 12.0597 64.1331 13.3103 63.3379C14.5609 62.5427 16.8202 62.1437 18.2922 62.4792C19.7641 62.8147 21.9346 62.4309 23.1969 61.6337C24.4592 60.8365 26.7068 60.4395 28.1788 60.775C29.6508 61.1105 31.819 60.7272 33.0696 59.932C34.3202 59.1368 36.5795 58.7378 38.0514 59.0733C39.5234 59.4088 41.6916 59.0254 42.9445 58.2298C44.1975 57.4343 46.4544 57.0356 47.9264 57.3711C49.3984 57.7066 51.5666 57.3233 52.8172 56.5281C54.0678 55.7329 56.3271 55.3339 57.799 55.6694C59.271 56.0049 61.4392 55.6215 62.7038 54.8239C63.9684 54.0264 66.2114 53.6301 67.6833 53.9656L70.3292 54.5678L70.315 54.6808Z" fill="#1E1E1E"/>
<path d="M69.94 52.5163L67.2938 51.9118C65.8495 51.5836 63.654 51.962 62.403 52.7548C61.152 53.5477 58.8931 53.9491 57.4211 53.6136C55.9492 53.2781 53.7814 53.6637 52.5163 54.459C51.2513 55.2543 49.0088 55.6528 47.5368 55.3173C46.0648 54.9818 43.8971 55.3675 42.6437 56.1607C41.3903 56.954 39.1338 57.355 37.6618 57.0195C36.1899 56.6839 34.0221 57.0696 32.7711 57.8625C31.5201 58.6553 29.2612 59.0567 27.7892 58.7212C26.3172 58.3857 24.1495 58.7714 22.8844 59.5666C21.6194 60.3619 19.3745 60.7609 17.9026 60.4254C16.4306 60.0898 14.2628 60.4755 12.9978 61.2708C11.7327 62.066 9.49023 62.4646 8.01592 62.1295C6.54161 61.7944 4.37618 62.1797 3.12515 62.9725C1.87413 63.7654 -0.387061 64.1672 -1.85904 63.8316L-4.50492 63.2295L-4.47906 63.1144L-1.83318 63.7166C-0.386168 64.0468 1.80931 63.6683 3.05993 62.8731C4.31056 62.078 6.56981 61.6789 8.04412 62.014C9.51843 62.3491 11.6843 61.9662 12.9349 61.171C14.1855 60.3758 16.4448 59.9768 17.9168 60.3123C19.3887 60.6478 21.5592 60.264 22.8215 59.4668C24.0838 58.6697 26.3314 58.2726 27.8034 58.6081C29.2754 58.9436 31.4436 58.5603 32.6942 57.7651C33.9448 56.9699 36.2041 56.5709 37.676 56.9064C39.148 57.2419 41.3162 56.8586 42.5691 56.063C43.8221 55.2674 46.079 54.8687 47.551 55.2042C49.023 55.5398 51.1912 55.1564 52.4418 54.3612C53.6924 53.566 55.9517 53.167 57.4236 53.5025C58.8956 53.838 61.0638 53.4547 62.3284 52.6571C63.593 51.8595 65.836 51.4632 67.3079 51.7988L69.9538 52.4009L69.94 52.5163Z" fill="#1E1E1E"/>
<path d="M69.5689 50.3508L66.9227 49.7463C65.4784 49.418 63.2829 49.7965 62.0319 50.5893C60.7809 51.3822 58.522 51.7836 57.05 51.448C55.5781 51.1125 53.4103 51.4982 52.1453 52.2935C50.8802 53.0887 48.6377 53.4873 47.1657 53.1518C45.6938 52.8163 43.526 53.202 42.2726 53.9952C41.0193 54.7885 38.7627 55.1895 37.2908 54.8539C35.8188 54.5184 33.651 54.9041 32.4 55.697C31.149 56.4898 28.8901 56.8912 27.4181 56.5557C25.9462 56.2202 23.7784 56.6059 22.5133 57.4011C21.2483 58.1964 19.0035 58.5953 17.5315 58.2598C16.0595 57.9243 13.8917 58.31 12.6267 59.1053C11.3617 59.9005 9.11914 60.2991 7.64483 59.964C6.17052 59.6289 4.00509 60.0142 2.75406 60.807C1.50304 61.5999 -0.758152 62.0016 -2.23013 61.6661L-4.87601 61.064L-4.85015 60.9489L-2.20427 61.551C-0.757261 61.8812 1.43822 61.5028 2.68884 60.7076C3.93946 59.9124 6.19872 59.5134 7.67303 59.8485C9.14734 60.1836 11.3132 59.8007 12.5638 59.0055C13.8144 58.2103 16.0737 57.8112 17.5457 58.1468C19.0176 58.4823 21.1881 58.0985 22.4504 57.3013C23.7128 56.5041 25.9603 56.1071 27.4323 56.4426C28.9043 56.7781 31.0725 56.3948 32.3231 55.5996C33.5737 54.8044 35.833 54.4054 37.3049 54.7409C38.7769 55.0764 40.9451 54.693 42.198 53.8974C43.451 53.1019 45.7079 52.7032 47.1799 53.0387C48.6519 53.3742 50.8201 52.9909 52.0707 52.1957C53.3213 51.4005 55.5806 51.0015 57.0525 51.337C58.5245 51.6725 60.6927 51.2891 61.9573 50.4915C63.2219 49.694 65.4649 49.2977 66.9368 49.6332L69.5827 50.2354L69.5689 50.3508Z" fill="#1E1E1E"/>
<path d="M69.1939 48.1853L66.5477 47.5808C65.1034 47.2525 62.9079 47.6309 61.6569 48.4238C60.4059 49.2166 58.147 49.618 56.675 49.2825C55.2031 48.947 53.0353 49.3327 51.7703 50.1279C50.5052 50.9232 48.2627 51.3218 46.7907 50.9863C45.3188 50.6508 43.151 51.0364 41.8976 51.8297C40.6443 52.6229 38.3877 53.0239 36.9157 52.6884C35.4438 52.3529 33.276 52.7386 32.025 53.5314C30.774 54.3243 28.5151 54.7256 27.0431 54.3901C25.5712 54.0546 23.4034 54.4403 22.1383 55.2356C20.8733 56.0308 18.6285 56.4298 17.1565 56.0943C15.6845 55.7588 13.5167 56.1445 12.2517 56.9397C10.9867 57.735 8.74181 58.134 7.26983 57.7985C5.79786 57.4629 3.63009 57.8486 2.37906 58.6415C1.12803 59.4343 -1.13315 59.8361 -2.60513 59.5006L-5.25101 58.8984L-5.22515 58.7834L-2.57927 59.3855C-1.13226 59.7157 1.06321 59.3373 2.31384 58.5421C3.56446 57.7469 5.82372 57.3479 7.29803 57.683C8.77234 58.0181 10.9382 57.6351 12.1888 56.8399C13.4394 56.0448 15.6987 55.6457 17.1707 55.9812C18.6426 56.3167 20.8131 55.933 22.0754 55.1358C23.3377 54.3386 25.5853 53.9416 27.0573 54.2771C28.5293 54.6126 30.6975 54.2292 31.9481 53.434C33.1987 52.6389 35.458 52.2398 36.9299 52.5753C38.4019 52.9108 40.5701 52.5275 41.823 51.7319C43.076 50.9363 45.3329 50.5377 46.8049 50.8732C48.2769 51.2087 50.4451 50.8253 51.6957 50.0302C52.9463 49.235 55.2056 48.8359 56.6775 49.1714C58.1495 49.5069 60.3177 49.1236 61.5823 48.326C62.8469 47.5284 65.0899 47.1322 66.5618 47.4677L69.2081 48.0722L69.1939 48.1853Z" fill="#1E1E1E"/>
<path d="M68.8229 46.0207L66.1766 45.4162C64.7323 45.088 62.5368 45.4664 61.2858 46.2592C60.0348 47.0521 57.7759 47.4535 56.3039 47.118C54.832 46.7824 52.6642 47.1681 51.3992 47.9634C50.1341 48.7587 47.8916 49.1572 46.4196 48.8217C44.9477 48.4862 42.7799 48.8719 41.5265 49.6651C40.2732 50.4584 38.0166 50.8594 36.5447 50.5239C35.0727 50.1883 32.9049 50.574 31.6539 51.3669C30.4029 52.1597 28.144 52.5611 26.672 52.2256C25.2001 51.8901 23.0323 52.2758 21.7673 53.071C20.5022 53.8663 18.2574 54.2653 16.7854 53.9297C15.3134 53.5942 13.1456 53.9799 11.8806 54.7752C10.6156 55.5704 8.37071 55.9694 6.89874 55.6339C5.42676 55.2984 3.25899 55.6841 2.00796 56.4769C0.756939 57.2698 -1.50425 57.6716 -2.97622 57.336L-5.6221 56.7339L-5.59625 56.6188L-2.95036 57.221C-1.50336 57.5512 0.692123 57.1727 1.94275 56.3775C3.19337 55.5824 5.45262 55.1833 6.92693 55.5184C8.40125 55.8535 10.5671 55.4706 11.8177 54.6754C13.0683 53.8802 15.3276 53.4812 16.7996 53.8167C18.2715 54.1522 20.4421 53.7684 21.7044 52.9712C22.9667 52.1741 25.2142 51.777 26.6862 52.1125C28.1582 52.448 30.3264 52.0647 31.577 51.2695C32.8276 50.4743 35.0869 50.0753 36.5588 50.4108C38.0308 50.7463 40.199 50.3629 41.452 49.5674C42.7049 48.7718 44.9618 48.3731 46.4338 48.7086C47.9058 49.0441 50.074 48.6608 51.3246 47.8656C52.5752 47.0704 54.8345 46.6714 56.3064 47.0069C57.7784 47.3424 59.9466 46.9591 61.2112 46.1615C62.4759 45.3639 64.7188 44.9676 66.1907 45.3032L68.837 45.9076L68.8229 46.0207Z" fill="#1E1E1E"/>
<path d="M68.4479 43.8547L65.802 43.2525C64.3573 42.9219 62.1618 43.3004 60.9112 44.0956C59.6606 44.8907 57.4013 45.2898 55.9294 44.9543C54.4574 44.6188 52.2892 45.0021 51.0246 45.7997C49.7599 46.5973 47.517 46.9935 46.045 46.658C44.5731 46.3225 42.4049 46.7059 41.1519 47.5015C39.899 48.297 37.642 48.6957 36.1701 48.3602C34.6981 48.0247 32.5299 48.408 31.2793 49.2032C30.0287 49.9984 27.7694 50.3974 26.2974 50.0619C24.8255 49.7264 22.6573 50.1098 21.3927 50.9073C20.128 51.7049 17.8828 52.1016 16.4108 51.7661C14.9388 51.4306 12.7706 51.8139 11.506 52.6115C10.2414 53.4091 7.99612 53.8057 6.52414 53.4702C5.05217 53.1347 2.88399 53.5181 1.63337 54.3132C0.382745 55.1084 -1.87884 55.5079 -3.35082 55.1724L-5.99711 54.5679L-5.97125 54.4528L-3.32537 55.0549C-1.87836 55.3851 0.317121 55.0067 1.56774 54.2115C2.81837 53.4163 5.07762 53.0173 6.55193 53.3524C8.02624 53.6875 10.1921 53.3046 11.4427 52.5094C12.6933 51.7142 14.9526 51.3151 16.4246 51.6506C17.8965 51.9862 20.0671 51.6024 21.3294 50.8052C22.5917 50.008 24.8392 49.611 26.3112 49.9465C27.7832 50.282 29.9514 49.8987 31.202 49.1035C32.4526 48.3083 34.7119 47.9092 36.1838 48.2448C37.6558 48.5803 39.824 48.1969 41.077 47.4013C42.3299 46.6057 44.5868 46.2071 46.0588 46.5426C47.5308 46.8781 49.699 46.4948 50.9496 45.6996C52.2002 44.9044 54.4595 44.5054 55.9314 44.8409C57.4034 45.1764 59.5716 44.793 60.8362 43.9954C62.1009 43.1978 64.3438 42.8016 65.8158 43.1371L68.4729 43.7349L68.4479 43.8547Z" fill="#1E1E1E"/>
<path d="M68.0768 41.6906L65.4309 41.0885C63.9862 40.7579 61.7907 41.1363 60.5401 41.9315C59.2895 42.7267 57.0302 43.1257 55.5583 42.7902C54.0863 42.4547 51.9181 42.8381 50.6535 43.6357C49.3888 44.4332 47.1459 44.8295 45.6739 44.494C44.202 44.1585 42.0338 44.5418 40.7808 45.3374C39.5279 46.133 37.2709 46.5316 35.799 46.1961C34.327 45.8606 32.1588 46.2439 30.9082 47.0391C29.6576 47.8343 27.3983 48.2334 25.9263 47.8978C24.4544 47.5623 22.2862 47.9457 21.0216 48.7433C19.7569 49.5409 17.5117 49.9375 16.0397 49.602C14.5677 49.2665 12.3995 49.6498 11.1349 50.4474C9.87027 51.245 7.62502 51.6417 6.15305 51.3062C4.68107 50.9707 2.5129 51.354 1.26227 52.1492C0.011651 52.9444 -2.24994 53.3438 -3.72191 53.0083L-6.3682 52.4038L-6.34234 52.2887L-3.69606 52.8932C-2.24945 53.2211 -0.0539725 52.8426 1.19705 52.0498C2.44808 51.2569 4.70693 50.8556 6.18124 51.1907C7.65555 51.5258 9.82099 51.1405 11.072 50.3476C12.323 49.5548 14.5819 49.1534 16.0539 49.4889C17.5259 49.8244 19.696 49.4383 20.9587 48.6435C22.2214 47.8486 24.4681 47.4469 25.9405 47.7848C27.4129 48.1226 29.5803 47.7346 30.8313 46.9417C32.0823 46.1489 34.3408 45.7452 35.8131 46.083C37.2855 46.4209 39.4529 46.0329 40.7063 45.2396C41.9596 44.4464 44.2157 44.043 45.6881 44.3809C47.1605 44.7187 49.3279 44.3307 50.5789 43.5379C51.8299 42.745 54.0884 42.3413 55.5607 42.6791C57.0331 43.017 59.2005 42.629 60.4655 41.8337C61.7306 41.0385 63.9727 40.6376 65.4451 40.9754L68.0909 41.5775L68.0768 41.6906Z" fill="#1E1E1E"/>
<path d="M67.7018 39.5246L65.0559 38.9225C63.6112 38.5919 61.4157 38.9703 60.1651 39.7655C58.9145 40.5607 56.6552 40.9597 55.1833 40.6242C53.7113 40.2887 51.5431 40.6721 50.2785 41.4696C49.0138 42.2672 46.7709 42.6635 45.2989 42.328C43.827 41.9925 41.6588 42.3758 40.4058 43.1714C39.1529 43.967 36.8959 44.3656 35.424 44.0301C33.952 43.6946 31.7838 44.0779 30.5332 44.8731C29.2826 45.6683 27.0233 46.0674 25.5513 45.7318C24.0794 45.3963 21.9112 45.7797 20.6466 46.5773C19.3819 47.3749 17.1367 47.7715 15.6647 47.436C14.1927 47.1005 12.0245 47.4838 10.7599 48.2814C9.49528 49.079 7.25002 49.4757 5.77805 49.1402C4.30607 48.8047 2.1379 49.188 0.887277 49.9832C-0.363347 50.7784 -2.62494 51.1778 -4.09691 50.8423L-6.7432 50.2378L-6.71734 50.1227L-4.07105 50.7272C-2.62445 51.0551 -0.42897 50.6766 0.822056 49.8838C2.07308 49.0909 4.33193 48.6896 5.80624 49.0247C7.28055 49.3598 9.44599 48.9745 10.697 48.1816C11.948 47.3888 14.2069 46.9874 15.6789 47.3229C17.1509 47.6584 19.321 47.2723 20.5837 46.4775C21.8464 45.6826 24.0936 45.2833 25.5655 45.6188C27.0375 45.9543 29.2053 45.5686 30.4563 44.7757C31.7073 43.9829 33.9662 43.5815 35.4382 43.917C36.9101 44.2525 39.0779 43.8669 40.3313 43.0736C41.5846 42.2804 43.8412 41.8794 45.3131 42.2149C46.7851 42.5504 48.9529 42.1647 50.2039 41.3719C51.4549 40.579 53.7138 40.1776 55.1857 40.5131C56.6577 40.8487 58.8255 40.463 60.0905 39.6677C61.3556 38.8725 63.5981 38.4739 65.0701 38.8094L67.7159 39.4115L67.7018 39.5246Z" fill="#1E1E1E"/>
<path d="M67.3268 37.3591L64.6809 36.7569C63.2362 36.4263 61.0407 36.8048 59.7901 37.6C58.5395 38.3951 56.2802 38.7942 54.8083 38.4587C53.3363 38.1232 51.1681 38.5065 49.9035 39.3041C48.6388 40.1017 46.3959 40.4979 44.9239 40.1624C43.452 39.8269 41.2838 40.2103 40.0308 41.0058C38.7779 41.8014 36.5209 42.2001 35.049 41.8646C33.577 41.5291 31.4088 41.9124 30.1582 42.7076C28.9076 43.5028 26.6483 43.9018 25.1763 43.5663C23.7044 43.2308 21.5362 43.6141 20.2716 44.4117C19.0069 45.2093 16.7617 45.606 15.2897 45.2705C13.8177 44.935 11.6495 45.3183 10.3849 46.1159C9.12027 46.9135 6.87736 47.3097 5.40305 46.9746C3.92874 46.6395 1.7629 47.0225 0.512274 47.8176C-0.738349 48.6128 -2.99994 49.0123 -4.47191 48.6768L-7.1178 48.0746L-7.09234 47.9572L-4.44606 48.5617C-2.99945 48.8895 -0.803973 48.5111 0.447053 47.7182C1.69808 46.9254 3.95693 46.524 5.43124 46.8591C6.90555 47.1942 9.07099 46.8089 10.322 46.0161C11.573 45.2233 13.8319 44.8219 15.3039 45.1574C16.7759 45.4929 18.946 45.1068 20.2087 44.3119C21.4714 43.5171 23.7186 43.1177 25.1905 43.4532C26.6625 43.7887 28.8303 43.4031 30.0813 42.6102C31.3323 41.8174 33.5912 41.416 35.0631 41.7515C36.5351 42.087 38.7029 41.7013 39.9563 40.9081C41.2096 40.1148 43.4661 39.7138 44.9381 40.0493C46.4101 40.3849 48.5779 39.9992 49.8289 39.2063C51.0799 38.4135 53.3388 38.0121 54.8107 38.3476C56.2827 38.6831 58.4505 38.2974 59.7155 37.5022C60.9806 36.7069 63.2231 36.3083 64.6951 36.6439L67.3409 37.246L67.3268 37.3591Z" fill="#1E1E1E"/>
<path d="M66.9557 35.1945L64.3098 34.5924C62.8651 34.2618 60.6696 34.6402 59.419 35.4354C58.1684 36.2306 55.9091 36.6296 54.4372 36.2941C52.9652 35.9586 50.797 36.342 49.5324 37.1396C48.2677 37.9372 46.0248 38.3334 44.5528 37.9979C43.0809 37.6624 40.9127 38.0457 39.6597 38.8413C38.4068 39.6369 36.1498 40.0355 34.6779 39.7C33.2059 39.3645 31.0377 39.7479 29.7871 40.543C28.5365 41.3382 26.2772 41.7373 24.8053 41.4018C23.3333 41.0662 21.1651 41.4496 19.9005 42.2472C18.6358 43.0448 16.3906 43.4414 14.9186 43.1059C13.4466 42.7704 11.2785 43.1538 10.0138 43.9513C8.74918 44.7489 6.50626 45.1452 5.03195 44.8101C3.55764 44.475 1.3918 44.8579 0.141181 45.6531C-1.10944 46.4483 -3.37103 46.8477 -4.84301 46.5122L-7.48889 45.9101L-7.46344 45.7926L-4.78293 46.3864C-3.33632 46.7143 -1.14084 46.3358 0.110182 45.543C1.36121 44.7501 3.62007 44.3488 5.09438 44.6839C6.56869 45.019 8.73413 44.6337 9.98516 43.8408C11.2362 43.048 13.495 42.6466 14.967 42.9821C16.439 43.3176 18.6091 42.9316 19.8718 42.1367C21.1345 41.3418 23.3817 40.9425 24.8537 41.278C26.3256 41.6135 28.4938 41.2301 29.7444 40.435C30.9951 39.6398 33.2543 39.2407 34.7263 39.5762C36.1983 39.9117 38.366 39.5261 39.6194 38.7328C40.8728 37.9396 43.1293 37.5386 44.6013 37.8741C46.0732 38.2096 48.241 37.8239 49.492 37.0311C50.7431 36.2382 53.0019 35.8368 54.4739 36.1724C55.9459 36.5079 58.1136 36.1222 59.3787 35.3269C60.6437 34.5317 62.8862 34.1331 64.3582 34.4686L67.0041 35.0707L66.9557 35.1945Z" fill="#1E1E1E"/>
<path d="M66.5842 33.0291L63.9383 32.427C62.4936 32.0964 60.2982 32.4748 59.0475 33.27C57.7969 34.0652 55.5376 34.4642 54.0657 34.1287C52.5937 33.7932 50.4255 34.1766 49.1609 34.9741C47.8962 35.7717 45.6533 36.168 44.1814 35.8325C42.7094 35.497 40.5412 35.8803 39.2882 36.6759C38.0353 37.4715 35.7784 37.8701 34.3064 37.5346C32.8344 37.1991 30.6662 37.5824 29.4156 38.3776C28.165 39.1728 25.9057 39.5719 24.4338 39.2363C22.9618 38.9008 20.7936 39.2842 19.529 40.0818C18.2643 40.8794 16.0191 41.276 14.5471 40.9405C13.0751 40.605 10.907 40.9883 9.64232 41.7859C8.37769 42.5835 6.13477 42.9798 4.66046 42.6447C3.18615 42.3096 1.02031 42.6925 -0.230314 43.4877C-1.48094 44.2829 -3.74253 44.6823 -5.2145 44.3468L-7.86039 43.7447L-7.83453 43.6296L-5.18864 44.2317C-3.74164 44.5619 -1.54616 44.1835 -0.295535 43.3883C0.955089 42.5931 3.21434 42.1941 4.68865 42.5292C6.16296 42.8643 8.3288 42.4813 9.57943 41.6861C10.83 40.891 13.0893 40.4919 14.5613 40.8274C16.0333 41.1629 18.2038 40.7792 19.4661 39.982C20.7284 39.1848 22.976 38.7878 24.4479 39.1233C25.9199 39.4588 28.0881 39.0754 29.3387 38.2802C30.5893 37.4851 32.8486 37.086 34.3206 37.4215C35.7925 37.757 37.9607 37.3737 39.2137 36.5781C40.4666 35.7825 42.7236 35.3839 44.1955 35.7194C45.6675 36.0549 47.8357 35.6715 49.0863 34.8764C50.3369 34.0812 52.5962 33.6821 54.0682 34.0176C55.5401 34.3532 57.7083 33.9698 58.9729 33.1722C60.2376 32.3746 62.4805 31.9784 63.9525 32.3139L66.5984 32.916L66.5842 33.0291Z" fill="#1E1E1E"/>
<path d="M66.2096 30.8659L63.5633 30.2614C62.119 29.9332 59.9236 30.3116 58.6725 31.1044C57.4215 31.8973 55.1626 32.2987 53.6907 31.9632C52.2187 31.6277 50.0509 32.0133 48.7859 32.8086C47.5208 33.6039 45.2783 34.0024 43.8063 33.6669C42.3344 33.3314 40.1666 33.7171 38.9132 34.5103C37.6599 35.3036 35.4033 35.7046 33.9314 35.3691C32.4594 35.0336 30.2916 35.4192 29.0406 36.2121C27.7896 37.0049 25.5307 37.4063 24.0588 37.0708C22.5868 36.7353 20.419 37.121 19.154 37.9162C17.8889 38.7115 15.6441 39.1105 14.1721 38.775C12.7001 38.4395 10.5324 38.8251 9.26732 39.6204C8.00228 40.4157 5.75977 40.8142 4.28546 40.4791C2.81115 40.144 0.64571 40.5293 -0.605316 41.3221C-1.85634 42.115 -4.11753 42.5168 -5.5895 42.1813L-8.23539 41.5791L-8.20953 41.464L-5.56365 42.0662C-4.11664 42.3964 -1.92116 42.0179 -0.670537 41.2227C0.580086 40.4276 2.83934 40.0285 4.31365 40.3636C5.78796 40.6987 7.9538 40.3158 9.20442 39.5206C10.455 38.7254 12.7143 38.3264 14.1863 38.6619C15.6583 38.9974 17.8288 38.6136 19.0911 37.8164C20.3534 37.0193 22.601 36.6222 24.0729 36.9577C25.5449 37.2932 27.7131 36.9099 28.9637 36.1147C30.2143 35.3195 32.4736 34.9205 33.9456 35.256C35.4175 35.5915 37.5857 35.2081 38.8387 34.4126C40.0916 33.617 42.3486 33.2183 43.8205 33.5538C45.2925 33.8894 47.4607 33.506 48.7113 32.7108C49.9619 31.9156 52.2212 31.5166 53.6932 31.8521C55.1651 32.1876 57.3333 31.8043 58.5979 31.0067C59.8626 30.2091 62.1055 29.8128 63.5775 30.1484L66.2233 30.7505L66.2096 30.8659Z" fill="#1E1E1E"/>
<path d="M65.8346 28.7014L63.1883 28.0969C61.744 27.7686 59.5486 28.1471 58.2975 28.9399C57.0465 29.7328 54.7876 30.1341 53.3157 29.7986C51.8437 29.4631 49.6759 29.8488 48.4109 30.6441C47.1458 31.4393 44.9033 31.8379 43.4314 31.5024C41.9594 31.1669 39.7916 31.5526 38.5382 32.3458C37.2849 33.1391 35.0284 33.54 33.5564 33.2045C32.0844 32.869 29.9166 33.2547 28.6656 34.0475C27.4146 34.8404 25.1557 35.2418 23.6838 34.9063C22.2118 34.5708 20.044 34.9564 18.779 35.7517C17.5139 36.547 15.2691 36.9459 13.7971 36.6104C12.3251 36.2749 10.1574 36.6606 8.89232 37.4559C7.62728 38.2511 5.38477 38.6497 3.91046 38.3146C2.43615 37.9795 0.270713 38.3648 -0.980314 39.1576C-2.23134 39.9504 -4.49253 40.3522 -5.9645 40.0167L-8.61039 39.4146L-8.58453 39.2995L-5.93864 39.9016C-4.49164 40.2318 -2.29616 39.8534 -1.04553 39.0582C0.205089 38.263 2.46434 37.864 3.93865 38.1991C5.41296 38.5342 7.5788 38.1512 8.82942 37.3561C10.08 36.5609 12.3393 36.1618 13.8113 36.4973C15.2833 36.8329 17.4538 36.4491 18.7161 35.6519C19.9784 34.8547 22.226 34.4577 23.6979 34.7932C25.1699 35.1287 27.3381 34.7453 28.5887 33.9502C29.8393 33.155 32.0986 32.7559 33.5706 33.0914C35.0425 33.427 37.2107 33.0436 38.4637 32.248C39.7166 31.4524 41.9736 31.0538 43.4455 31.3893C44.9175 31.7248 47.0857 31.3415 48.3363 30.5463C49.5869 29.7511 51.8462 29.3521 53.3182 29.6876C54.7901 30.0231 56.9583 29.6397 58.2229 28.8421C59.4876 28.0445 61.7305 27.6483 63.2025 27.9838L65.8483 28.5859L65.8346 28.7014Z" fill="#1E1E1E"/>
<path d="M65.4635 26.5353L62.8172 25.9309C61.3729 25.6026 59.1775 25.981 57.9264 26.7739C56.6754 27.5667 54.4165 27.9681 52.9446 27.6326C51.4726 27.2971 49.3048 27.6828 48.0398 28.478C46.7747 29.2733 44.5322 29.6719 43.0603 29.3364C41.5883 29.0008 39.4205 29.3865 38.1671 30.1798C36.9138 30.973 34.6573 31.374 33.1853 31.0385C31.7133 30.703 29.5456 31.0887 28.2945 31.8815C27.0435 32.6744 24.7846 33.0757 23.3127 32.7402C21.8407 32.4047 19.6729 32.7904 18.4079 33.5857C17.1428 34.3809 14.898 34.7799 13.426 34.4444C11.954 34.1089 9.78627 34.4946 8.52123 35.2898C7.25619 36.0851 5.01134 36.4841 3.53936 36.1485C2.06739 35.813 -0.100383 36.1987 -1.35141 36.9916C-2.60244 37.7844 -4.86362 38.1862 -6.3356 37.8507L-8.98148 37.2485L-8.95562 37.1335L-6.30974 37.7356C-4.86273 38.0658 -2.66725 37.6874 -1.41663 36.8922C-0.166007 36.097 2.09325 35.6979 3.56756 36.0331C5.04187 36.3682 7.20771 35.9852 8.45833 35.19C9.70895 34.3949 11.9682 33.9958 13.4402 34.3313C14.9122 34.6668 17.0827 34.2831 18.345 33.4859C19.6073 32.6887 21.8549 32.2916 23.3268 32.6272C24.7988 32.9627 26.967 32.5793 28.2176 31.7841C29.4682 30.989 31.7275 30.5899 33.1995 30.9254C34.6714 31.2609 36.8396 30.8776 38.0926 30.082C39.3455 29.2864 41.6025 28.8878 43.0744 29.2233C44.5464 29.5588 46.7146 29.1754 47.9652 28.3803C49.2158 27.5851 51.4751 27.186 52.9471 27.5215C54.419 27.857 56.5872 27.4737 57.8518 26.6761C59.1165 25.8785 61.3594 25.4823 62.8314 25.8178L65.4777 26.4223L65.4635 26.5353Z" fill="#1E1E1E"/>
<path d="M65.0885 24.3698L62.4426 23.7677C60.9979 23.4371 58.8025 23.8155 57.5518 24.6107C56.3012 25.4059 54.0419 25.8049 52.57 25.4694C51.098 25.1339 48.9298 25.5173 47.6652 26.3148C46.4005 27.1124 44.1576 27.5087 42.6857 27.1732C41.2137 26.8377 39.0455 27.221 37.7925 28.0166C36.5396 28.8122 34.2827 29.2108 32.8107 28.8753C31.3387 28.5398 29.1706 28.9231 27.9199 29.7183C26.6693 30.5135 24.41 30.9126 22.9381 30.577C21.4661 30.2415 19.2979 30.6249 18.0333 31.4225C16.7686 32.2201 14.5234 32.6167 13.0514 32.2812C11.5794 31.9457 9.41127 32.329 8.14663 33.1266C6.88199 33.9242 4.63674 34.3209 3.16476 33.9854C1.69279 33.6499 -0.475383 34.0332 -1.72601 34.8284C-2.97663 35.6236 -5.23822 36.023 -6.71019 35.6875L-9.35648 35.083L-9.33062 34.9679L-6.68474 35.5701C-5.23773 35.9003 -3.04225 35.5218 -1.79163 34.7267C-0.541005 33.9315 1.71825 33.5324 3.19256 33.8675C4.66687 34.2026 6.83271 33.8197 8.08333 33.0245C9.33395 32.2293 11.5932 31.8303 13.0652 32.1658C14.5372 32.5013 16.7077 32.1176 17.97 31.3204C19.2323 30.5232 21.4799 30.1261 22.9518 30.4616C24.4238 30.7972 26.592 30.4138 27.8426 29.6186C29.0932 28.8234 31.3525 28.4244 32.8245 28.7599C34.2964 29.0954 36.4646 28.7121 37.7176 27.9165C38.9705 27.1209 41.2275 26.7223 42.6994 27.0578C44.1714 27.3933 46.3396 27.0099 47.5902 26.2147C48.8408 25.4196 51.1001 25.0205 52.5721 25.356C54.044 25.6915 56.2122 25.3082 57.4768 24.5106C58.7415 23.713 60.9844 23.3168 62.4564 23.6523L65.1027 24.2567L65.0885 24.3698Z" fill="#1E1E1E"/>
<path d="M64.7174 22.2053L62.0715 21.6031C60.6269 21.2725 58.4314 21.651 57.1808 22.4462C55.9301 23.2413 53.6709 23.6404 52.1989 23.3049C50.7269 22.9694 48.5587 23.3527 47.2941 24.1503C46.0295 24.9479 43.7865 25.3441 42.3146 25.0086C40.8426 24.6731 38.6744 25.0565 37.4215 25.8521C36.1685 26.6476 33.9116 27.0463 32.4396 26.7108C30.9676 26.3753 28.7995 26.7586 27.5488 27.5538C26.2982 28.349 24.0389 28.748 22.567 28.4125C21.095 28.077 18.9268 28.4604 17.6622 29.2579C16.3976 30.0555 14.1523 30.4522 12.6803 30.1167C11.2084 29.7812 9.04018 30.1645 7.77554 30.9621C6.5109 31.7597 4.26565 32.1563 2.79368 31.8208C1.3217 31.4853 -0.846473 31.8687 -2.0971 32.6638C-3.34772 33.459 -5.60931 33.8585 -7.08129 33.523L-9.72757 32.9185L-9.70172 32.8034L-7.05583 33.4055C-5.60882 33.7357 -3.41335 33.3573 -2.16272 32.5621C-0.912098 31.7669 1.34716 31.3679 2.82147 31.703C4.29578 32.0381 6.46162 31.6552 7.71224 30.86C8.96286 30.0648 11.2221 29.6657 12.6941 30.0012C14.1661 30.3368 16.3366 29.953 17.5989 29.1558C18.8612 28.3586 21.1088 27.9616 22.5808 28.2971C24.0527 28.6326 26.2209 28.2493 27.4715 27.4541C28.7221 26.6589 30.9814 26.2598 32.4534 26.5954C33.9254 26.9309 36.0935 26.5475 37.3465 25.7519C38.5994 24.9563 40.8564 24.5577 42.3284 24.8932C43.8003 25.2287 45.9685 24.8454 47.2191 24.0502C48.4697 23.255 50.729 22.856 52.201 23.1915C53.6729 23.527 55.8411 23.1436 57.1058 22.346C58.3704 21.5484 60.6133 21.1522 62.0853 21.4877L64.742 22.0832L64.7174 22.2053Z" fill="#1E1E1E"/>
<path d="M64.3424 20.0397L61.6965 19.4376C60.2518 19.107 58.0564 19.4854 56.8057 20.2806C55.5551 21.0758 53.2958 21.4748 51.8239 21.1393C50.3519 20.8038 48.1837 21.1872 46.9191 21.9848C45.6545 22.7824 43.4115 23.1786 41.9396 22.8431C40.4676 22.5076 38.2994 22.8909 37.0465 23.6865C35.7935 24.4821 33.5366 24.8807 32.0646 24.5452C30.5926 24.2097 28.4245 24.5931 27.1738 25.3882C25.9232 26.1834 23.6639 26.5825 22.192 26.247C20.72 25.9115 18.5518 26.2948 17.2872 27.0924C16.0225 27.89 13.7773 28.2866 12.3053 27.9511C10.8333 27.6156 8.66517 27.999 7.40054 28.7966C6.1359 29.5942 3.89065 29.9908 2.41867 29.6553C0.946697 29.3198 -1.22148 29.7031 -2.4721 30.4983C-3.72272 31.2935 -5.98431 31.6929 -7.45629 31.3574L-10.1026 30.753L-10.0767 30.6379L-7.43043 31.2423C-5.98383 31.5702 -3.78835 31.1918 -2.53732 30.3989C-1.2863 29.6061 0.972556 29.2047 2.44687 29.5398C3.92118 29.8749 6.08661 29.4896 7.33764 28.6968C8.58866 27.9039 10.8475 27.5025 12.3195 27.838C13.7915 28.1736 15.9616 27.7875 17.2243 26.9926C18.487 26.1978 20.7342 25.7984 22.2062 26.1339C23.6781 26.4694 25.8459 26.0837 27.0969 25.2909C28.3479 24.498 30.6068 24.0966 32.0788 24.4322C33.5507 24.7677 35.7185 24.382 36.9719 23.5887C38.2252 22.7955 40.4818 22.3945 41.9537 22.73C43.4257 23.0655 45.5935 22.6798 46.8445 21.887C48.0955 21.0941 50.3544 20.6928 51.8264 21.0283C53.2983 21.3638 55.4661 20.9781 56.7312 20.1828C57.9962 19.3876 60.2387 18.989 61.7107 19.3245L64.3566 19.9267L64.3424 20.0397Z" fill="#1E1E1E"/>
<path d="M63.9713 17.8752L61.3254 17.273C59.8807 16.9425 57.6853 17.3209 56.4346 18.1161C55.184 18.9112 52.9248 19.3103 51.4528 18.9748C49.9808 18.6393 47.8126 19.0226 46.548 19.8202C45.2834 20.6178 43.0404 21.014 41.5685 20.6785C40.0965 20.343 37.9283 20.7264 36.6754 21.522C35.4224 22.3175 33.1655 22.7162 31.6935 22.3807C30.2215 22.0452 28.0534 22.4285 26.8027 23.2237C25.5521 24.0189 23.2928 24.4179 21.8209 24.0824C20.3489 23.7469 18.1807 24.1303 16.9161 24.9279C15.6515 25.7255 13.4062 26.1221 11.9342 25.7866C10.4623 25.4511 8.29408 25.8344 7.02944 26.632C5.7648 27.4296 3.51955 27.8262 2.04758 27.4907C0.575603 27.1552 -1.59257 27.5386 -2.84319 28.3338C-4.09382 29.1289 -6.35541 29.5284 -7.82738 29.1929L-10.4737 28.5884L-10.4478 28.4733L-7.80152 29.0778C-6.35492 29.4056 -4.15944 29.0272 -2.90841 28.2344C-1.65739 27.4415 0.601464 27.0401 2.07577 27.3752C3.55009 27.7104 5.71552 27.3251 6.96655 26.5322C8.21757 25.7394 10.4764 25.338 11.9484 25.6735C13.4204 26.009 15.5905 25.6229 16.8532 24.8281C18.1159 24.0332 20.3631 23.6338 21.8351 23.9694C23.307 24.3049 25.4748 23.9192 26.7258 23.1263C27.9769 22.3335 30.2357 21.9321 31.7077 22.2676C33.1797 22.6031 35.3474 22.2174 36.6008 21.4242C37.8542 20.6309 40.1107 20.23 41.5827 20.5655C43.0546 20.901 45.2224 20.5153 46.4734 19.7225C47.7245 18.9296 49.9833 18.5282 51.4553 18.8637C52.9273 19.1992 55.095 18.8136 56.3601 18.0183C57.6251 17.223 59.8676 16.8245 61.3396 17.16L63.9855 17.7621L63.9713 17.8752Z" fill="#1E1E1E"/>
<path d="M63.5963 15.7097L60.9504 15.1075C59.5057 14.7769 57.3103 15.1554 56.0596 15.9505C54.809 16.7457 52.5498 17.1448 51.0778 16.8093C49.6058 16.4738 47.4376 16.8571 46.173 17.6547C44.9084 18.4523 42.6654 18.8485 41.1935 18.513C39.7215 18.1775 37.5533 18.5609 36.3004 19.3564C35.0474 20.152 32.7905 20.5507 31.3185 20.2152C29.8465 19.8796 27.6784 20.263 26.4277 21.0582C25.1771 21.8534 22.9178 22.2524 21.4459 21.9169C19.9739 21.5814 17.8057 21.9647 16.5411 22.7623C15.2765 23.5599 13.0312 23.9566 11.5592 23.621C10.0873 23.2855 7.91908 23.6689 6.65444 24.4665C5.3898 25.2641 3.14455 25.6607 1.67258 25.3252C0.200603 24.9897 -1.96757 25.373 -3.21819 26.1682C-4.46882 26.9634 -6.73041 27.3629 -8.20238 27.0273L-10.8483 26.4252L-10.8228 26.3078L-8.17653 26.9123C-6.72992 27.2401 -4.53444 26.8617 -3.28342 26.0688C-2.03239 25.276 0.226462 24.8746 1.70077 25.2097C3.17508 25.5448 5.34052 25.1595 6.59154 24.3667C7.84257 23.5738 10.1014 23.1725 11.5734 23.508C13.0454 23.8435 15.2155 23.4574 16.4782 22.6625C17.7409 21.8677 19.9881 21.4683 21.4601 21.8038C22.932 22.1393 25.0998 21.7536 26.3508 20.9608C27.6019 20.1679 29.8607 19.7666 31.3327 20.1021C32.8047 20.4376 34.9724 20.0519 36.2258 19.2587C37.4792 18.4654 39.7357 18.0644 41.2077 18.3999C42.6796 18.7354 44.8474 18.3498 46.0984 17.5569C47.3495 16.7641 49.6083 16.3627 51.0803 16.6982C52.5522 17.0337 54.72 16.648 55.9851 15.8528C57.2501 15.0575 59.4926 14.6589 60.9646 14.9944L63.6105 15.5966L63.5963 15.7097Z" fill="#1E1E1E"/>
<path d="M63.2252 13.5437L60.5793 12.9415C59.1347 12.6109 56.9392 12.9893 55.6886 13.7845C54.4379 14.5797 52.1787 14.9788 50.7067 14.6432C49.2347 14.3077 47.0665 14.6911 45.8019 15.4887C44.5373 16.2863 42.2944 16.6825 40.8224 16.347C39.3504 16.0115 37.1822 16.3948 35.9293 17.1904C34.6763 17.986 32.4194 18.3846 30.9474 18.0491C29.4754 17.7136 27.3073 18.097 26.0566 18.8922C24.806 19.6873 22.5468 20.0864 21.0748 19.7509C19.6028 19.4154 17.4346 19.7987 16.17 20.5963C14.9054 21.3939 12.6601 21.7905 11.1881 21.455C9.71616 21.1195 7.54799 21.5029 6.28335 22.3005C5.01871 23.0981 2.7758 23.4943 1.30148 23.1592C-0.172826 22.8241 -2.33866 23.207 -3.58929 24.0022C-4.83991 24.7974 -7.1015 25.1968 -8.57348 24.8613L-11.2194 24.2592L-11.1939 24.1418L-8.5138 24.7332C-7.06679 25.0634 -4.87131 24.685 -3.62069 23.8898C-2.37007 23.0946 -0.110797 22.6955 1.36351 23.0307C2.83782 23.3658 5.00366 22.9828 6.25429 22.1876C7.50491 21.3925 9.76416 20.9934 11.2361 21.3289C12.7081 21.6644 14.8782 21.2783 16.1409 20.4835C17.4036 19.6886 19.6508 19.2893 21.1228 19.6248C22.5948 19.9603 24.7629 19.5769 26.0136 18.7817C27.2642 17.9866 29.5234 17.5875 30.9954 17.923C32.4674 18.2585 34.6352 17.8728 35.8885 17.0796C37.1419 16.2863 39.3984 15.8854 40.8704 16.2209C42.3424 16.5564 44.5105 16.173 45.7612 15.3779C47.0118 14.5827 49.271 14.1836 50.743 14.5191C52.215 14.8546 54.3832 14.4713 55.6478 13.6737C56.9124 12.8761 59.1554 12.4799 60.6273 12.8154L63.2732 13.4175L63.2252 13.5437Z" fill="#1E1E1E"/>
<path d="M62.8498 11.3782L60.2039 10.7761C58.7593 10.4455 56.5638 10.8239 55.3132 11.6191C54.0625 12.4143 51.8033 12.8133 50.3313 12.4778C48.8593 12.1423 46.6911 12.5257 45.4265 13.3233C44.1619 14.1209 41.919 14.5171 40.447 14.1816C38.975 13.8461 36.8072 14.2318 35.5539 15.025C34.3005 15.8183 32.044 16.2192 30.572 15.8837C29.1 15.5482 26.9319 15.9316 25.6812 16.7267C24.4306 17.5219 22.1714 17.921 20.6994 17.5855C19.2274 17.25 17.0596 17.6356 15.7946 18.4309C14.5296 19.2262 12.2847 19.6251 10.8127 19.2896C9.34076 18.9541 7.17299 19.3398 5.90795 20.1351C4.64291 20.9303 2.40039 21.3289 0.926083 20.9938C-0.548227 20.6587 -2.71366 21.044 -3.96469 21.8368C-5.21571 22.6296 -7.4769 23.0314 -8.94888 22.6959L-11.5948 22.0938L-11.5689 21.9787L-8.92302 22.5808C-7.47601 22.911 -5.28053 22.5326 -4.02991 21.7374C-2.77929 20.9422 -0.520032 20.5432 0.954278 20.8783C2.42859 21.2134 4.59443 20.8304 5.84505 20.0353C7.09567 19.2401 9.35494 18.841 10.8269 19.1765C12.2989 19.5121 14.4694 19.1283 15.7317 18.3311C16.994 17.5339 19.2416 17.1369 20.7136 17.4724C22.1855 17.8079 24.3537 17.4245 25.6043 16.6294C26.855 15.8342 29.1142 15.4351 30.5862 15.7706C32.0582 16.1062 34.2263 15.7228 35.4793 14.9272C36.7323 14.1316 38.9892 13.733 40.4612 14.0685C41.9331 14.404 44.1013 14.0207 45.3519 13.2255C46.6026 12.4303 48.8618 12.0313 50.3338 12.3668C51.8058 12.7023 53.9739 12.3189 55.2386 11.5213C56.5032 10.7237 58.7461 10.3275 60.2181 10.663L62.864 11.2652L62.8498 11.3782Z" fill="#1E1E1E"/>
<path d="M62.4791 9.21649L59.8328 8.61202C58.3886 8.28376 56.1931 8.66219 54.9421 9.45504C53.691 10.2479 51.4322 10.6493 49.9602 10.3138C48.4882 9.97825 46.3204 10.3639 45.0554 11.1592C43.7904 11.9545 41.5479 12.353 40.0759 12.0175C38.6039 11.682 36.4361 12.0677 35.1828 12.8609C33.9294 13.6542 31.6729 14.0552 30.2009 13.7197C28.7289 13.3841 26.5612 13.7698 25.3101 14.5627C24.0591 15.3555 21.8003 15.7569 20.3283 15.4214C18.8563 15.0859 16.6885 15.4716 15.4235 16.2668C14.1585 17.0621 11.9136 17.4611 10.4416 17.1255C8.96966 16.79 6.80189 17.1757 5.53685 17.971C4.27181 18.7662 2.0293 19.1648 0.554987 18.8297C-0.919323 18.4946 -3.08476 18.8799 -4.33579 19.6727C-5.58681 20.4656 -7.848 20.8674 -9.31997 20.5318L-11.9659 19.9297L-11.94 19.8146L-9.29412 20.4167C-7.84711 20.7469 -5.65163 20.3685 -4.40101 19.5733C-3.15038 18.7781 -0.891129 18.3791 0.583182 18.7142C2.05749 19.0493 4.22333 18.6664 5.47395 17.8712C6.72458 17.076 8.98384 16.677 10.4558 17.0125C11.9278 17.348 14.0983 16.9642 15.3606 16.167C16.6229 15.3698 18.8705 14.9728 20.3425 15.3083C21.8144 15.6438 23.9826 15.2605 25.2332 14.4653C26.4839 13.6701 28.7431 13.2711 30.2151 13.6066C31.6871 13.9421 33.8552 13.5587 35.1082 12.7631C36.3612 11.9676 38.6181 11.5689 40.0901 11.9044C41.562 12.2399 43.7302 11.8566 44.9808 11.0614C46.2315 10.2662 48.4907 9.86718 49.9627 10.2027C51.4347 10.5382 53.6028 10.1549 54.8675 9.35726C56.1321 8.55966 58.375 8.16343 59.847 8.49894L62.4929 9.10109L62.4791 9.21649Z" fill="#1E1E1E"/>
<path d="M62.1041 7.05049L59.4578 6.446C58.0136 6.11774 55.8181 6.49617 54.5671 7.28902C53.316 8.08186 51.0572 8.48325 49.5852 8.14774C48.1132 7.81223 45.9454 8.19792 44.6804 8.99318C43.4154 9.78844 41.1729 10.187 39.7009 9.85149C38.2289 9.51599 36.0611 9.90167 34.8078 10.6949C33.5544 11.4882 31.2979 11.8891 29.8259 11.5536C28.3539 11.2181 26.1862 11.6038 24.9351 12.3967C23.6841 13.1895 21.4253 13.5909 19.9533 13.2554C18.4813 12.9199 16.3135 13.3055 15.0485 14.1008C13.7835 14.8961 11.5386 15.295 10.0666 14.9595C8.59466 14.624 6.42689 15.0097 5.16185 15.805C3.89681 16.6002 1.6543 16.9988 0.179987 16.6637C-1.29432 16.3286 -3.45976 16.7139 -4.71079 17.5067C-5.96181 18.2996 -8.223 18.7013 -9.69497 18.3658L-12.3409 17.7637L-12.315 17.6486L-9.66911 18.2507C-8.22211 18.5809 -6.02663 18.2025 -4.776 17.4073C-3.52538 16.6121 -1.26613 16.2131 0.208184 16.5482C1.6825 16.8833 3.84833 16.5004 5.09896 15.7052C6.34958 14.91 8.60885 14.511 10.0808 14.8465C11.5528 15.182 13.7233 14.7982 14.9856 14.001C16.2479 13.2038 18.4955 12.8068 19.9675 13.1423C21.4394 13.4778 23.6076 13.0945 24.8582 12.2993C26.1089 11.5041 28.3681 11.1051 29.8401 11.4406C31.3121 11.7761 33.4802 11.3927 34.7332 10.5971C35.9862 9.80156 38.2431 9.40292 39.7151 9.73843C41.187 10.0739 43.3552 9.69059 44.6058 8.89541C45.8565 8.10023 48.1157 7.70118 49.5877 8.03669C51.0597 8.3722 53.2278 7.98885 54.4925 7.19125C55.7571 6.39366 58 5.99743 59.472 6.33294L62.1183 6.93741L62.1041 7.05049Z" fill="#1E1E1E"/>
<path d="M61.733 4.88592L59.0867 4.28145C57.6425 3.95319 55.447 4.33162 54.196 5.12447C52.9449 5.91731 50.6861 6.3187 49.2141 5.98319C47.7421 5.64768 45.5744 6.03336 44.3093 6.82863C43.0443 7.62389 40.8018 8.02245 39.3298 7.68694C37.8578 7.35143 35.69 7.73712 34.4367 8.53037C33.1833 9.32361 30.9268 9.72459 29.4548 9.38909C27.9828 9.05358 25.8151 9.43926 24.5641 10.2321C23.313 11.0249 21.0542 11.4263 19.5822 11.0908C18.1102 10.7553 15.9424 11.141 14.6774 11.9363C13.4124 12.7315 11.1675 13.1305 9.69554 12.795C8.22357 12.4595 6.0558 12.8452 4.79076 13.6404C3.52572 14.4357 1.28087 14.8346 -0.191107 14.4991C-1.66308 14.1636 -3.83085 14.5493 -5.08188 15.3422C-6.3329 16.135 -8.59409 16.5368 -10.0661 16.2013L-12.712 15.5991L-12.6861 15.484L-10.0402 16.0862C-8.5932 16.4164 -6.39772 16.0379 -5.1471 15.2428C-3.89648 14.4476 -1.63722 14.0485 -0.162912 14.3836C1.3114 14.7187 3.47724 14.3358 4.72786 13.5406C5.97848 12.7454 8.23775 12.3464 9.70972 12.6819C11.1817 13.0174 13.3522 12.6337 14.6145 11.8365C15.8768 11.0393 18.1244 10.6422 19.5964 10.9777C21.0683 11.3133 23.2365 10.9299 24.4871 10.1347C25.7378 9.33954 27.997 8.9405 29.469 9.27601C30.941 9.61151 33.1091 9.22817 34.3621 8.43258C35.6151 7.637 37.872 7.23835 39.344 7.57386C40.8159 7.90937 42.9841 7.52602 44.2347 6.73084C45.4854 5.93566 47.7446 5.53662 49.2166 5.87212C50.6886 6.20763 52.8567 5.82429 54.1214 5.02669C55.386 4.22909 57.6289 3.83286 59.1009 4.16837L61.7472 4.77286L61.733 4.88592Z" fill="#1E1E1E"/>
<path d="M61.358 2.72041L58.7121 2.11826C57.2675 1.78767 55.072 2.1661 53.8214 2.96128C52.5707 3.75646 50.3115 4.15551 48.8395 3.82C47.3675 3.48449 45.1994 3.86784 43.9347 4.66544C42.6701 5.46303 40.4272 5.85926 38.9552 5.52375C37.4832 5.18825 35.315 5.57159 34.0621 6.36718C32.8091 7.16276 30.5522 7.5614 29.0802 7.2259C27.6082 6.89039 25.4401 7.27373 24.1895 8.06891C22.9388 8.86409 20.6792 9.26081 19.2076 8.92763C17.736 8.59446 15.5674 8.97547 14.3028 9.77307C13.0382 10.5707 10.7929 10.9673 9.32094 10.6318C7.84897 10.2963 5.6808 10.6796 4.41616 11.4772C3.15152 12.2748 0.906271 12.6715 -0.565704 12.3359C-2.03768 12.0004 -4.20585 12.3838 -5.45648 13.179C-6.7071 13.9741 -8.96869 14.3736 -10.4407 14.0381L-13.0869 13.4336L-13.0611 13.3185L-10.4152 13.9207C-8.9682 14.2509 -6.77272 13.8724 -5.5221 13.0772C-4.27147 12.2821 -2.01222 11.883 -0.537909 12.2181C0.936401 12.5532 3.10224 12.1703 4.35286 11.3751C5.60349 10.5799 7.86275 10.1809 9.33473 10.5164C10.8067 10.8519 12.9772 10.4681 14.2395 9.67095C15.5018 8.87376 17.7494 8.47672 19.2214 8.81223C20.6933 9.14774 22.8615 8.76439 24.1121 7.96921C25.3628 7.17403 27.622 6.77498 29.094 7.11049C30.566 7.446 32.7341 7.06265 33.9871 6.26707C35.2401 5.47149 37.497 5.07284 38.969 5.40835C40.4409 5.74386 42.6091 5.36051 43.8597 4.56533C45.1104 3.77015 47.3696 3.3711 48.8416 3.70661C50.3136 4.04212 52.4817 3.65877 53.7464 2.86118C55.011 2.06358 57.2539 1.66735 58.7259 2.00286L61.3722 2.60733L61.358 2.72041Z" fill="#1E1E1E"/>
<path d="M60.983 0.554393L58.3371 -0.0477572C56.8925 -0.378351 54.697 8.2053e-05 53.4464 0.795263C52.1957 1.59044 49.9365 1.98949 48.4645 1.65398C46.9925 1.31848 44.8244 1.70182 43.5597 2.49942C42.2951 3.29701 40.0522 3.69324 38.5802 3.35774C37.1082 3.02223 34.94 3.40558 33.6871 4.20116C32.4341 4.99674 30.1772 5.39539 28.7052 5.05988C27.2332 4.72437 25.0651 5.10772 23.8145 5.9029C22.5638 6.69808 20.3046 7.09713 18.8326 6.76162C17.3606 6.42611 15.1924 6.80946 13.9278 7.60705C12.6632 8.40465 10.4179 8.80128 8.94595 8.46577C7.47397 8.13027 5.3058 8.51361 4.04116 9.31121C2.77653 10.1088 0.531273 10.5054 -0.940702 10.1699C-2.41268 9.83442 -4.58085 10.2178 -5.83147 11.0129C-7.0821 11.8081 -9.34369 12.2076 -10.8157 11.8721L-13.4619 11.2676L-13.4361 11.1525L-10.7902 11.7547C-9.3432 12.0848 -7.14772 11.7064 -5.8971 10.9112C-4.64647 10.1161 -2.38722 9.71701 -0.912907 10.0521C0.561402 10.3872 2.72724 10.0043 3.97786 9.20909C5.22849 8.41391 7.48775 8.01486 8.95973 8.35037C10.4317 8.68588 12.6022 8.30213 13.8645 7.50493C15.1268 6.70774 17.3744 6.31071 18.8464 6.64621C20.3184 6.98172 22.4865 6.59837 23.7372 5.80319C24.9878 5.00801 27.247 4.60897 28.719 4.94448C30.191 5.27998 32.3592 4.89664 33.6121 4.10105C34.8651 3.30547 37.122 2.90682 38.594 3.24233C40.066 3.57784 42.2341 3.19449 43.4848 2.39931C44.7354 1.60413 46.9946 1.20509 48.4666 1.54059C49.9386 1.8761 52.1067 1.49276 53.3714 0.695159C54.636 -0.102437 56.8789 -0.498666 58.3509 -0.163159L61.0073 0.429962L60.983 0.554393Z" fill="#1E1E1E"/>
<path d="M60.6119 -1.60968L57.966 -2.21182C56.5214 -2.54241 54.3259 -2.16398 53.0753 -1.3688C51.8246 -0.573618 49.5654 -0.174569 48.0934 -0.510077C46.6214 -0.845585 44.4533 -0.462239 43.1886 0.335358C41.924 1.13295 39.6811 1.52918 38.2091 1.19368C36.7371 0.858167 34.5689 1.24151 33.316 2.0371C32.063 2.83268 29.8061 3.23133 28.3341 2.89582C26.8621 2.56031 24.694 2.94366 23.4434 3.73884C22.1927 4.53402 19.9335 4.93306 18.4615 4.59756C16.9895 4.26205 14.8214 4.6454 13.5567 5.44299C12.2921 6.24059 10.0468 6.63722 8.57485 6.30171C7.10288 5.9662 4.9347 6.34955 3.67007 7.14715C2.40543 7.94474 0.160177 8.34138 -1.3118 8.00587C-2.78377 7.67036 -4.95195 8.05371 -6.20257 8.84889C-7.45319 9.64407 -9.71478 10.0435 -11.1868 9.70801L-13.833 9.10352L-13.8072 8.98844L-11.1609 9.59292C-9.71429 9.92077 -7.51882 9.54234 -6.26779 8.74949C-5.01676 7.95665 -2.75791 7.55527 -1.2836 7.89037C0.190708 8.22548 2.35614 7.8402 3.60717 7.04735C4.8582 6.25451 7.11706 5.85312 8.58903 6.18863C10.061 6.52414 12.2311 6.13805 13.4938 5.3432C14.7565 4.54834 17.0037 4.14897 18.4757 4.48448C19.9477 4.81998 22.1154 4.4343 23.3665 3.64146C24.6175 2.84861 26.8763 2.44723 28.3483 2.78274C29.8203 3.11825 31.9881 2.73256 33.2414 1.93932C34.4948 1.14607 36.7513 0.745086 38.2233 1.08059C39.6953 1.4161 41.863 1.03042 43.1141 0.237575C44.3651 -0.55527 46.6239 -0.956651 48.0959 -0.621144C49.5679 -0.285635 51.7356 -0.671318 53.0007 -1.46658C54.2657 -2.26184 56.5082 -2.6604 57.9802 -2.3249L60.6261 -1.72275L60.6119 -1.60968Z" fill="#1E1E1E"/>
<path d="M60.2369 -3.7752L57.591 -4.37735C56.1464 -4.70794 53.9509 -4.32951 52.7003 -3.53433C51.4496 -2.73915 49.1904 -2.3401 47.7184 -2.6756C46.2464 -3.01111 44.0783 -2.62777 42.8136 -1.83017C41.549 -1.03257 39.3061 -0.636344 37.8341 -0.971852C36.3621 -1.30736 34.1939 -0.924012 32.941 -0.128429C31.688 0.667154 29.4311 1.0658 27.9591 0.730292C26.4871 0.394783 24.319 0.778128 23.0684 1.57331C21.8177 2.36849 19.5585 2.76754 18.0865 2.43203C16.6145 2.09652 14.4464 2.47987 13.1817 3.27746C11.9171 4.07506 9.67183 4.47169 8.19985 4.13619C6.72788 3.80068 4.5597 4.18402 3.29507 4.98162C2.03043 5.77922 -0.214823 6.17585 -1.6868 5.84034C-3.15877 5.50483 -5.32695 5.88818 -6.57757 6.68336C-7.82819 7.47854 -10.0898 7.87799 -11.5618 7.54248L-14.208 6.93801L-14.1822 6.82292L-11.5359 7.4274C-10.0893 7.75526 -7.89381 7.37682 -6.64279 6.58398C-5.39176 5.79114 -3.13291 5.38975 -1.6586 5.72486C-0.184289 6.05996 1.98115 5.67468 3.23217 4.88184C4.4832 4.08899 6.74206 3.68761 8.21404 4.02312C9.68601 4.35863 11.8561 3.97254 13.1188 3.17768C14.3815 2.38283 16.6287 1.98345 18.1007 2.31896C19.5727 2.65447 21.7404 2.26879 22.9915 1.47594C24.2425 0.683099 26.5013 0.281717 27.9733 0.617224C29.4453 0.952733 31.6131 0.567049 32.8664 -0.226198C34.1198 -1.01945 36.3763 -1.42043 37.8483 -1.08492C39.3203 -0.749411 41.488 -1.13509 42.7391 -1.92794C43.9901 -2.72078 46.2489 -3.12216 47.7209 -2.78666C49.1929 -2.45115 51.3606 -2.83683 52.6257 -3.63209C53.8907 -4.42735 56.1332 -4.82592 57.6052 -4.49041L60.2511 -3.88828L60.2369 -3.7752Z" fill="#1E1E1E"/>
<path d="M59.8658 -5.94123L57.22 -6.54336C55.7753 -6.87395 53.5798 -6.49552 52.3292 -5.70034C51.0786 -4.90516 48.8193 -4.50611 47.3473 -4.84162C45.8753 -5.17713 43.7072 -4.79378 42.4425 -3.99619C41.1779 -3.19859 38.935 -2.80236 37.463 -3.13787C35.991 -3.47338 33.8229 -3.09003 32.5699 -2.29444C31.3169 -1.49886 29.06 -1.10022 27.588 -1.43572C26.1161 -1.77123 23.9479 -1.38789 22.6973 -0.592707C21.4466 0.202473 19.1874 0.601522 17.7154 0.266014C16.2434 -0.0694942 14.0753 0.313852 12.8106 1.11145C11.546 1.90904 9.30073 2.30568 7.82876 1.97017C6.35678 1.63466 4.18861 2.01801 2.92397 2.8156C1.65934 3.6132 -0.585916 4.00983 -2.05789 3.67433C-3.52987 3.33882 -5.69804 3.72216 -6.94866 4.51734C-8.19929 5.31253 -10.4609 5.71197 -11.9329 5.37647L-14.5787 4.77432L-14.5533 4.6569L-11.907 5.26137C-10.4604 5.58923 -8.26491 5.2108 -7.01388 4.41795C-5.76286 3.62511 -3.50401 3.22372 -2.0297 3.55883C-0.555386 3.89393 1.61005 3.50865 2.86108 2.71581C4.1121 1.92296 6.37097 1.52158 7.84294 1.85709C9.31491 2.1926 11.485 1.80651 12.7477 1.01165C14.0104 0.216796 16.2576 -0.182575 17.7296 0.152933C19.2016 0.488441 21.3693 0.102758 22.6204 -0.690087C23.8714 -1.48293 26.1302 -1.88431 27.6022 -1.54881C29.0742 -1.2133 31.242 -1.59898 32.4953 -2.39223C33.7487 -3.18548 36.0052 -3.58646 37.4772 -3.25095C38.9492 -2.91544 41.1169 -3.30112 42.368 -4.09397C43.619 -4.88681 45.8778 -5.28819 47.3498 -4.95269C48.8218 -4.61718 50.9896 -5.00286 52.2546 -5.79812C53.5196 -6.59338 55.7621 -6.99195 57.2341 -6.65644L59.88 -6.05429L59.8658 -5.94123Z" fill="#1E1E1E"/>
<path d="M59.4908 -8.10576L56.845 -8.70791C55.4003 -9.03851 53.2048 -8.66007 51.9542 -7.86489C50.7036 -7.06971 48.4443 -6.67066 46.9723 -7.00617C45.5003 -7.34168 43.3322 -6.95833 42.0675 -6.16074C40.8029 -5.36314 38.56 -4.96691 37.088 -5.30242C35.616 -5.63793 33.4479 -5.25458 32.1949 -4.459C30.9419 -3.66341 28.685 -3.26477 27.213 -3.60027C25.7411 -3.93578 23.5729 -3.55244 22.3223 -2.75726C21.0716 -1.96208 18.8124 -1.56303 17.3404 -1.89854C15.8684 -2.23405 13.7003 -1.8507 12.4356 -1.0531C11.171 -0.255506 8.92573 0.141127 7.45376 -0.194381C5.98178 -0.529889 3.81361 -0.146542 2.54897 0.651053C1.28434 1.44865 -0.958581 1.84488 -2.43289 1.50977C-3.9072 1.17467 -6.07304 1.55761 -7.32366 2.35279C-8.57429 3.14797 -10.8359 3.54742 -12.3079 3.21192L-14.9537 2.60977L-14.9283 2.49235L-12.282 3.09682C-10.835 3.42701 -8.63951 3.04858 -7.38888 2.2534C-6.13826 1.45822 -3.87901 1.05917 -2.4047 1.39428C-0.930386 1.72938 1.23545 1.34644 2.48608 0.551259C3.7367 -0.243922 5.99597 -0.64297 7.46794 -0.307462C8.93991 0.0280456 11.11 -0.358039 12.3727 -1.1529C13.6354 -1.94775 15.8826 -2.34713 17.3546 -2.01162C18.8266 -1.67611 20.9947 -2.05946 22.2454 -2.85464C23.496 -3.64982 25.7552 -4.04886 27.2272 -3.71336C28.6992 -3.37785 30.8674 -3.7612 32.1203 -4.55678C33.3733 -5.35236 35.6302 -5.75101 37.1022 -5.4155C38.5742 -5.07999 40.7423 -5.46334 41.993 -6.25852C43.2436 -7.0537 45.5028 -7.45275 46.9748 -7.11724C48.4468 -6.78173 50.615 -7.16508 51.8796 -7.96267C53.1442 -8.76027 55.3871 -9.1565 56.8591 -8.82099L59.505 -8.21884L59.4908 -8.10576Z" fill="#1E1E1E"/>
<path d="M59.1197 -10.2713L56.4735 -10.8758C55.0288 -11.2064 52.8333 -10.8279 51.5827 -10.0328C50.3321 -9.23758 48.0728 -8.83853 46.6008 -9.17404C45.1288 -9.50954 42.9607 -9.1262 41.696 -8.3286C40.4314 -7.53101 38.1885 -7.13478 36.7165 -7.47028C35.2445 -7.80579 33.0768 -7.42011 31.8234 -6.62686C30.57 -5.83361 28.3135 -5.43263 26.8415 -5.76814C25.3696 -6.10365 23.2014 -5.7203 21.9508 -4.92512C20.7001 -4.12994 18.4409 -3.73089 16.9689 -4.0664C15.4969 -4.40191 13.3292 -4.01623 12.0641 -3.22097C10.7991 -2.42571 8.55424 -2.02674 7.08226 -2.36225C5.61029 -2.69775 3.44252 -2.31207 2.17748 -1.51681C0.912437 -0.721552 -1.33008 -0.322986 -2.80439 -0.658091C-4.2787 -0.993196 -6.44454 -0.610252 -7.69516 0.184929C-8.94578 0.980109 -11.2074 1.37956 -12.6793 1.04405L-15.3252 0.441917L-15.2994 0.326823L-12.6535 0.928971C-11.2065 1.25916 -9.011 0.880729 -7.76038 0.0855485C-6.50975 -0.709632 -4.2505 -1.10868 -2.77619 -0.773573C-1.30188 -0.438468 0.863958 -0.821412 2.11458 -1.61659C3.3652 -2.41177 5.62447 -2.81082 7.09644 -2.47531C8.56842 -2.13981 10.7389 -2.52355 12.0012 -3.32075C13.2635 -4.11794 15.5111 -4.51498 16.9831 -4.17947C18.4551 -3.84396 20.6232 -4.22731 21.8739 -5.02249C23.1245 -5.81767 25.3837 -6.21672 26.8557 -5.88121C28.3277 -5.5457 30.4959 -5.92905 31.7488 -6.72463C33.0018 -7.52021 35.2587 -7.91886 36.7307 -7.58335C38.2027 -7.24784 40.3708 -7.63119 41.6215 -8.42637C42.8721 -9.22155 45.1313 -9.6206 46.6033 -9.28509C48.0753 -8.94958 50.2435 -9.33293 51.5081 -10.1305C52.7727 -10.9281 55.0156 -11.3243 56.4876 -10.9888L59.1335 -10.3867L59.1197 -10.2713Z" fill="#1E1E1E"/>
<path d="M58.7447 -12.4368L56.0985 -13.0413C54.6542 -13.3695 52.4587 -12.9911 51.2077 -12.1983C49.9567 -11.4054 47.6978 -11.004 46.2258 -11.3395C44.7538 -11.6751 42.5861 -11.2894 41.321 -10.4941C40.056 -9.69885 37.8135 -9.30029 36.3415 -9.6358C34.8695 -9.9713 32.7018 -9.58562 31.4484 -8.79237C30.195 -7.99913 27.9385 -7.59815 26.4665 -7.93365C24.9946 -8.26916 22.8268 -7.88348 21.5758 -7.09064C20.3247 -6.29779 18.0659 -5.89641 16.5939 -6.23192C15.1219 -6.56742 12.9542 -6.18174 11.6891 -5.38648C10.4241 -4.59122 8.17924 -4.19225 6.70726 -4.52776C5.23529 -4.86327 3.06752 -4.47759 1.80248 -3.68233C0.537439 -2.88706 -1.70508 -2.4885 -3.17939 -2.8236C-4.6537 -3.15871 -6.81913 -2.77343 -8.07016 -1.98058C-9.32118 -1.18774 -11.5824 -0.785955 -13.0543 -1.12146L-15.7002 -1.7236L-15.6744 -1.8387L-13.0285 -1.23656C-11.5815 -0.906365 -9.386 -1.2848 -8.13538 -2.07998C-6.88475 -2.87516 -4.6255 -3.27421 -3.15119 -2.9391C-1.67688 -2.604 0.488958 -2.98694 1.73958 -3.78212C2.9902 -4.5773 5.24947 -4.97635 6.72144 -4.64084C8.19342 -4.30533 10.3639 -4.68908 11.6262 -5.48628C12.8885 -6.28347 15.1361 -6.6805 16.6081 -6.345C18.0801 -6.00949 20.2482 -6.39284 21.4989 -7.18802C22.7495 -7.9832 25.0087 -8.38224 26.4807 -8.04673C27.9527 -7.71123 30.1209 -8.09457 31.3738 -8.89016C32.6268 -9.68574 34.8837 -10.0844 36.3557 -9.74888C37.8277 -9.41337 39.9958 -9.79672 41.2465 -10.5919C42.4971 -11.3871 44.7563 -11.7861 46.2283 -11.4506C47.7003 -11.1151 49.8685 -11.4985 51.1331 -12.2961C52.3977 -13.0936 54.6406 -13.4899 56.1126 -13.1544L58.7585 -12.5522L58.7447 -12.4368Z" fill="#1E1E1E"/>
</g>
</g>
<defs>
<clipPath id="clip0_117_76196">
<rect width="56" height="56" fill="white" transform="translate(0.640625 0.138184)"/>
</clipPath>
<clipPath id="clip1_117_76196">
<rect width="56" height="56" fill="white" transform="translate(0.640625 0.138184)"/>
</clipPath>
</defs>
</svg>
