<svg width="57" height="57" viewBox="0 0 57 57" fill="none" xmlns="http://www.w3.org/2000/svg">
<path fill-rule="evenodd" clip-rule="evenodd" d="M5.40912 4.70122V4.2864H5.20171V4.70122H4.78689V4.90863H5.20171V5.32344H5.40912V4.90863H5.82393V4.70122H5.40912ZM5.40912 1.59011V1.17529H5.20171V1.59011H4.78689V1.79752H5.20171V2.21233H5.40912V1.79752H5.82393V1.59011H5.40912ZM2.298 4.70122V4.2864H2.0906V4.70122H1.67578V4.90863H2.0906V5.32344H2.298V4.90863H2.71282V4.70122H2.298ZM2.298 1.59011V1.17529H2.0906V1.59011H1.67578V1.79752H2.0906V2.21233H2.298V1.79752H2.71282V1.59011H2.298Z" fill="#1E1E1E"/>
<path fill-rule="evenodd" clip-rule="evenodd" d="M11.6318 4.70122V4.2864H11.4244V4.70122H11.0095V4.90863H11.4244V5.32344H11.6318V4.90863H12.0466V4.70122H11.6318ZM11.6318 1.59011V1.17529H11.4244V1.59011H11.0095V1.79752H11.4244V2.21233H11.6318V1.79752H12.0466V1.59011H11.6318ZM8.52066 4.70122V4.2864H8.31325V4.70122H7.89844V4.90863H8.31325V5.32344H8.52066V4.90863H8.93547V4.70122H8.52066ZM8.52066 1.59011V1.17529H8.31325V1.59011H7.89844V1.79752H8.31325V2.21233H8.52066V1.79752H8.93547V1.59011H8.52066Z" fill="#1E1E1E"/>
<path fill-rule="evenodd" clip-rule="evenodd" d="M17.8544 4.70122V4.2864H17.647V4.70122H17.2322V4.90863H17.647V5.32344H17.8544V4.90863H18.2692V4.70122H17.8544ZM17.8544 1.59011V1.17529H17.647V1.59011H17.2322V1.79752H17.647V2.21233H17.8544V1.79752H18.2692V1.59011H17.8544ZM14.7433 4.70122V4.2864H14.5359V4.70122H14.1211V4.90863H14.5359V5.32344H14.7433V4.90863H15.1581V4.70122H14.7433ZM14.7433 1.59011V1.17529H14.5359V1.59011H14.1211V1.79752H14.5359V2.21233H14.7433V1.79752H15.1581V1.59011H14.7433Z" fill="#1E1E1E"/>
<path fill-rule="evenodd" clip-rule="evenodd" d="M24.0771 4.70122V4.2864H23.8697V4.70122H23.4549V4.90863H23.8697V5.32344H24.0771V4.90863H24.4919V4.70122H24.0771ZM24.0771 1.59011V1.17529H23.8697V1.59011H23.4549V1.79752H23.8697V2.21233H24.0771V1.79752H24.4919V1.59011H24.0771ZM20.966 4.70122V4.2864H20.7586V4.70122H20.3438V4.90863H20.7586V5.32344H20.966V4.90863H21.3808V4.70122H20.966ZM20.966 1.59011V1.17529H20.7586V1.59011H20.3438V1.79752H20.7586V2.21233H20.966V1.79752H21.3808V1.59011H20.966Z" fill="#1E1E1E"/>
<path fill-rule="evenodd" clip-rule="evenodd" d="M30.2997 4.70122V4.2864H30.0923V4.70122H29.6775V4.90863H30.0923V5.32344H30.2997V4.90863H30.7146V4.70122H30.2997ZM30.2997 1.59011V1.17529H30.0923V1.59011H29.6775V1.79752H30.0923V2.21233H30.2997V1.79752H30.7146V1.59011H30.2997ZM27.1886 4.70122V4.2864H26.9812V4.70122H26.5664V4.90863H26.9812V5.32344H27.1886V4.90863H27.6034V4.70122H27.1886ZM27.1886 1.59011V1.17529H26.9812V1.59011H26.5664V1.79752H26.9812V2.21233H27.1886V1.79752H27.6034V1.59011H27.1886Z" fill="#1E1E1E"/>
<path fill-rule="evenodd" clip-rule="evenodd" d="M36.5224 4.70122V4.2864H36.315V4.70122H35.9002V4.90863H36.315V5.32344H36.5224V4.90863H36.9372V4.70122H36.5224ZM36.5224 1.59011V1.17529H36.315V1.59011H35.9002V1.79752H36.315V2.21233H36.5224V1.79752H36.9372V1.59011H36.5224ZM33.4113 4.70122V4.2864H33.2039V4.70122H32.7891V4.90863H33.2039V5.32344H33.4113V4.90863H33.8261V4.70122H33.4113ZM33.4113 1.59011V1.17529H33.2039V1.59011H32.7891V1.79752H33.2039V2.21233H33.4113V1.79752H33.8261V1.59011H33.4113Z" fill="#1E1E1E"/>
<path fill-rule="evenodd" clip-rule="evenodd" d="M42.7451 4.70122V4.2864H42.5376V4.70122H42.1228V4.90863H42.5376V5.32344H42.7451V4.90863H43.1599V4.70122H42.7451ZM42.7451 1.59011V1.17529H42.5376V1.59011H42.1228V1.79752H42.5376V2.21233H42.7451V1.79752H43.1599V1.59011H42.7451ZM39.6339 4.70122V4.2864H39.4265V4.70122H39.0117V4.90863H39.4265V5.32344H39.6339V4.90863H40.0488V4.70122H39.6339ZM39.6339 1.59011V1.17529H39.4265V1.59011H39.0117V1.79752H39.4265V2.21233H39.6339V1.79752H40.0488V1.59011H39.6339Z" fill="#1E1E1E"/>
<path fill-rule="evenodd" clip-rule="evenodd" d="M48.9677 4.70122V4.2864H48.7603V4.70122H48.3455V4.90863H48.7603V5.32344H48.9677V4.90863H49.3825V4.70122H48.9677ZM48.9677 1.59011V1.17529H48.7603V1.59011H48.3455V1.79752H48.7603V2.21233H48.9677V1.79752H49.3825V1.59011H48.9677ZM45.8566 4.70122V4.2864H45.6492V4.70122H45.2344V4.90863H45.6492V5.32344H45.8566V4.90863H46.2714V4.70122H45.8566ZM45.8566 1.59011V1.17529H45.6492V1.59011H45.2344V1.79752H45.6492V2.21233H45.8566V1.79752H46.2714V1.59011H45.8566Z" fill="#1E1E1E"/>
<path fill-rule="evenodd" clip-rule="evenodd" d="M55.1904 4.70122V4.2864H54.983V4.70122H54.5681V4.90863H54.983V5.32344H55.1904V4.90863H55.6052V4.70122H55.1904ZM55.1904 1.59011V1.17529H54.983V1.59011H54.5681V1.79752H54.983V2.21233H55.1904V1.79752H55.6052V1.59011H55.1904ZM52.0793 4.70122V4.2864H51.8718V4.70122H51.457V4.90863H51.8718V5.32344H52.0793V4.90863H52.4941V4.70122H52.0793ZM52.0793 1.59011V1.17529H51.8718V1.59011H51.457V1.79752H51.8718V2.21233H52.0793V1.79752H52.4941V1.59011H52.0793Z" fill="#1E1E1E"/>
<path fill-rule="evenodd" clip-rule="evenodd" d="M5.40912 10.9234V10.5086H5.20171V10.9234H4.78689V11.1308H5.20171V11.5456H5.40912V11.1308H5.82393V10.9234H5.40912ZM5.40912 7.81228V7.39746H5.20171V7.81228H4.78689V8.01968H5.20171V8.4345H5.40912V8.01968H5.82393V7.81228H5.40912ZM2.298 10.9234V10.5086H2.0906V10.9234H1.67578V11.1308H2.0906V11.5456H2.298V11.1308H2.71282V10.9234H2.298ZM2.298 7.81228V7.39746H2.0906V7.81228H1.67578V8.01968H2.0906V8.4345H2.298V8.01968H2.71282V7.81228H2.298Z" fill="#1E1E1E"/>
<path fill-rule="evenodd" clip-rule="evenodd" d="M11.6318 10.9234V10.5086H11.4244V10.9234H11.0095V11.1308H11.4244V11.5456H11.6318V11.1308H12.0466V10.9234H11.6318ZM11.6318 7.81228V7.39746H11.4244V7.81228H11.0095V8.01968H11.4244V8.4345H11.6318V8.01968H12.0466V7.81228H11.6318ZM8.52066 10.9234V10.5086H8.31325V10.9234H7.89844V11.1308H8.31325V11.5456H8.52066V11.1308H8.93547V10.9234H8.52066ZM8.52066 7.81228V7.39746H8.31325V7.81228H7.89844V8.01968H8.31325V8.4345H8.52066V8.01968H8.93547V7.81228H8.52066Z" fill="#1E1E1E"/>
<path fill-rule="evenodd" clip-rule="evenodd" d="M17.8544 10.9234V10.5086H17.647V10.9234H17.2322V11.1308H17.647V11.5456H17.8544V11.1308H18.2692V10.9234H17.8544ZM17.8544 7.81228V7.39746H17.647V7.81228H17.2322V8.01968H17.647V8.4345H17.8544V8.01968H18.2692V7.81228H17.8544ZM14.7433 10.9234V10.5086H14.5359V10.9234H14.1211V11.1308H14.5359V11.5456H14.7433V11.1308H15.1581V10.9234H14.7433ZM14.7433 7.81228V7.39746H14.5359V7.81228H14.1211V8.01968H14.5359V8.4345H14.7433V8.01968H15.1581V7.81228H14.7433Z" fill="#1E1E1E"/>
<path fill-rule="evenodd" clip-rule="evenodd" d="M24.0771 10.9234V10.5086H23.8697V10.9234H23.4549V11.1308H23.8697V11.5456H24.0771V11.1308H24.4919V10.9234H24.0771ZM24.0771 7.81228V7.39746H23.8697V7.81228H23.4549V8.01968H23.8697V8.4345H24.0771V8.01968H24.4919V7.81228H24.0771ZM20.966 10.9234V10.5086H20.7586V10.9234H20.3438V11.1308H20.7586V11.5456H20.966V11.1308H21.3808V10.9234H20.966ZM20.966 7.81228V7.39746H20.7586V7.81228H20.3438V8.01968H20.7586V8.4345H20.966V8.01968H21.3808V7.81228H20.966Z" fill="#1E1E1E"/>
<path fill-rule="evenodd" clip-rule="evenodd" d="M30.2997 10.9234V10.5086H30.0923V10.9234H29.6775V11.1308H30.0923V11.5456H30.2997V11.1308H30.7146V10.9234H30.2997ZM30.2997 7.81228V7.39746H30.0923V7.81228H29.6775V8.01968H30.0923V8.4345H30.2997V8.01968H30.7146V7.81228H30.2997ZM27.1886 10.9234V10.5086H26.9812V10.9234H26.5664V11.1308H26.9812V11.5456H27.1886V11.1308H27.6034V10.9234H27.1886ZM27.1886 7.81228V7.39746H26.9812V7.81228H26.5664V8.01968H26.9812V8.4345H27.1886V8.01968H27.6034V7.81228H27.1886Z" fill="#1E1E1E"/>
<path fill-rule="evenodd" clip-rule="evenodd" d="M36.5224 10.9234V10.5086H36.315V10.9234H35.9002V11.1308H36.315V11.5456H36.5224V11.1308H36.9372V10.9234H36.5224ZM36.5224 7.81228V7.39746H36.315V7.81228H35.9002V8.01968H36.315V8.4345H36.5224V8.01968H36.9372V7.81228H36.5224ZM33.4113 10.9234V10.5086H33.2039V10.9234H32.7891V11.1308H33.2039V11.5456H33.4113V11.1308H33.8261V10.9234H33.4113ZM33.4113 7.81228V7.39746H33.2039V7.81228H32.7891V8.01968H33.2039V8.4345H33.4113V8.01968H33.8261V7.81228H33.4113Z" fill="#1E1E1E"/>
<path fill-rule="evenodd" clip-rule="evenodd" d="M42.7451 10.9234V10.5086H42.5376V10.9234H42.1228V11.1308H42.5376V11.5456H42.7451V11.1308H43.1599V10.9234H42.7451ZM42.7451 7.81228V7.39746H42.5376V7.81228H42.1228V8.01968H42.5376V8.4345H42.7451V8.01968H43.1599V7.81228H42.7451ZM39.6339 10.9234V10.5086H39.4265V10.9234H39.0117V11.1308H39.4265V11.5456H39.6339V11.1308H40.0488V10.9234H39.6339ZM39.6339 7.81228V7.39746H39.4265V7.81228H39.0117V8.01968H39.4265V8.4345H39.6339V8.01968H40.0488V7.81228H39.6339Z" fill="#1E1E1E"/>
<path fill-rule="evenodd" clip-rule="evenodd" d="M48.9677 10.9234V10.5086H48.7603V10.9234H48.3455V11.1308H48.7603V11.5456H48.9677V11.1308H49.3825V10.9234H48.9677ZM48.9677 7.81228V7.39746H48.7603V7.81228H48.3455V8.01968H48.7603V8.4345H48.9677V8.01968H49.3825V7.81228H48.9677ZM45.8566 10.9234V10.5086H45.6492V10.9234H45.2344V11.1308H45.6492V11.5456H45.8566V11.1308H46.2714V10.9234H45.8566ZM45.8566 7.81228V7.39746H45.6492V7.81228H45.2344V8.01968H45.6492V8.4345H45.8566V8.01968H46.2714V7.81228H45.8566Z" fill="#1E1E1E"/>
<path fill-rule="evenodd" clip-rule="evenodd" d="M55.1904 10.9234V10.5086H54.983V10.9234H54.5681V11.1308H54.983V11.5456H55.1904V11.1308H55.6052V10.9234H55.1904ZM55.1904 7.81228V7.39746H54.983V7.81228H54.5681V8.01968H54.983V8.4345H55.1904V8.01968H55.6052V7.81228H55.1904ZM52.0793 10.9234V10.5086H51.8718V10.9234H51.457V11.1308H51.8718V11.5456H52.0793V11.1308H52.4941V10.9234H52.0793ZM52.0793 7.81228V7.39746H51.8718V7.81228H51.457V8.01968H51.8718V8.4345H52.0793V8.01968H52.4941V7.81228H52.0793Z" fill="#1E1E1E"/>
<path fill-rule="evenodd" clip-rule="evenodd" d="M5.40912 17.1456V16.7307H5.20171V17.1456H4.78689V17.353H5.20171V17.7678H5.40912V17.353H5.82393V17.1456H5.40912ZM5.40912 14.0344V13.6196H5.20171V14.0344H4.78689V14.2419H5.20171V14.6567H5.40912V14.2419H5.82393V14.0344H5.40912ZM2.298 17.1456V16.7307H2.0906V17.1456H1.67578V17.353H2.0906V17.7678H2.298V17.353H2.71282V17.1456H2.298ZM2.298 14.0344V13.6196H2.0906V14.0344H1.67578V14.2419H2.0906V14.6567H2.298V14.2419H2.71282V14.0344H2.298Z" fill="#1E1E1E"/>
<path fill-rule="evenodd" clip-rule="evenodd" d="M11.6318 17.1456V16.7307H11.4244V17.1456H11.0095V17.353H11.4244V17.7678H11.6318V17.353H12.0466V17.1456H11.6318ZM11.6318 14.0344V13.6196H11.4244V14.0344H11.0095V14.2419H11.4244V14.6567H11.6318V14.2419H12.0466V14.0344H11.6318ZM8.52066 17.1456V16.7307H8.31325V17.1456H7.89844V17.353H8.31325V17.7678H8.52066V17.353H8.93547V17.1456H8.52066ZM8.52066 14.0344V13.6196H8.31325V14.0344H7.89844V14.2419H8.31325V14.6567H8.52066V14.2419H8.93547V14.0344H8.52066Z" fill="#1E1E1E"/>
<path fill-rule="evenodd" clip-rule="evenodd" d="M17.8544 17.1456V16.7307H17.647V17.1456H17.2322V17.353H17.647V17.7678H17.8544V17.353H18.2692V17.1456H17.8544ZM17.8544 14.0344V13.6196H17.647V14.0344H17.2322V14.2419H17.647V14.6567H17.8544V14.2419H18.2692V14.0344H17.8544ZM14.7433 17.1456V16.7307H14.5359V17.1456H14.1211V17.353H14.5359V17.7678H14.7433V17.353H15.1581V17.1456H14.7433ZM14.7433 14.0344V13.6196H14.5359V14.0344H14.1211V14.2419H14.5359V14.6567H14.7433V14.2419H15.1581V14.0344H14.7433Z" fill="#1E1E1E"/>
<path fill-rule="evenodd" clip-rule="evenodd" d="M24.0771 17.1456V16.7307H23.8697V17.1456H23.4549V17.353H23.8697V17.7678H24.0771V17.353H24.4919V17.1456H24.0771ZM24.0771 14.0344V13.6196H23.8697V14.0344H23.4549V14.2419H23.8697V14.6567H24.0771V14.2419H24.4919V14.0344H24.0771ZM20.966 17.1456V16.7307H20.7586V17.1456H20.3438V17.353H20.7586V17.7678H20.966V17.353H21.3808V17.1456H20.966ZM20.966 14.0344V13.6196H20.7586V14.0344H20.3438V14.2419H20.7586V14.6567H20.966V14.2419H21.3808V14.0344H20.966Z" fill="#1E1E1E"/>
<path fill-rule="evenodd" clip-rule="evenodd" d="M30.2997 17.1456V16.7307H30.0923V17.1456H29.6775V17.353H30.0923V17.7678H30.2997V17.353H30.7146V17.1456H30.2997ZM30.2997 14.0344V13.6196H30.0923V14.0344H29.6775V14.2419H30.0923V14.6567H30.2997V14.2419H30.7146V14.0344H30.2997ZM27.1886 17.1456V16.7307H26.9812V17.1456H26.5664V17.353H26.9812V17.7678H27.1886V17.353H27.6034V17.1456H27.1886ZM27.1886 14.0344V13.6196H26.9812V14.0344H26.5664V14.2419H26.9812V14.6567H27.1886V14.2419H27.6034V14.0344H27.1886Z" fill="#1E1E1E"/>
<path fill-rule="evenodd" clip-rule="evenodd" d="M36.5224 17.1456V16.7307H36.315V17.1456H35.9002V17.353H36.315V17.7678H36.5224V17.353H36.9372V17.1456H36.5224ZM36.5224 14.0344V13.6196H36.315V14.0344H35.9002V14.2419H36.315V14.6567H36.5224V14.2419H36.9372V14.0344H36.5224ZM33.4113 17.1456V16.7307H33.2039V17.1456H32.7891V17.353H33.2039V17.7678H33.4113V17.353H33.8261V17.1456H33.4113ZM33.4113 14.0344V13.6196H33.2039V14.0344H32.7891V14.2419H33.2039V14.6567H33.4113V14.2419H33.8261V14.0344H33.4113Z" fill="#1E1E1E"/>
<path fill-rule="evenodd" clip-rule="evenodd" d="M42.7451 17.1456V16.7307H42.5376V17.1456H42.1228V17.353H42.5376V17.7678H42.7451V17.353H43.1599V17.1456H42.7451ZM42.7451 14.0344V13.6196H42.5376V14.0344H42.1228V14.2419H42.5376V14.6567H42.7451V14.2419H43.1599V14.0344H42.7451ZM39.6339 17.1456V16.7307H39.4265V17.1456H39.0117V17.353H39.4265V17.7678H39.6339V17.353H40.0488V17.1456H39.6339ZM39.6339 14.0344V13.6196H39.4265V14.0344H39.0117V14.2419H39.4265V14.6567H39.6339V14.2419H40.0488V14.0344H39.6339Z" fill="#1E1E1E"/>
<path fill-rule="evenodd" clip-rule="evenodd" d="M48.9677 17.1456V16.7307H48.7603V17.1456H48.3455V17.353H48.7603V17.7678H48.9677V17.353H49.3825V17.1456H48.9677ZM48.9677 14.0344V13.6196H48.7603V14.0344H48.3455V14.2419H48.7603V14.6567H48.9677V14.2419H49.3825V14.0344H48.9677ZM45.8566 17.1456V16.7307H45.6492V17.1456H45.2344V17.353H45.6492V17.7678H45.8566V17.353H46.2714V17.1456H45.8566ZM45.8566 14.0344V13.6196H45.6492V14.0344H45.2344V14.2419H45.6492V14.6567H45.8566V14.2419H46.2714V14.0344H45.8566Z" fill="#1E1E1E"/>
<path fill-rule="evenodd" clip-rule="evenodd" d="M55.1904 17.1456V16.7307H54.983V17.1456H54.5681V17.353H54.983V17.7678H55.1904V17.353H55.6052V17.1456H55.1904ZM55.1904 14.0344V13.6196H54.983V14.0344H54.5681V14.2419H54.983V14.6567H55.1904V14.2419H55.6052V14.0344H55.1904ZM52.0793 17.1456V16.7307H51.8718V17.1456H51.457V17.353H51.8718V17.7678H52.0793V17.353H52.4941V17.1456H52.0793ZM52.0793 14.0344V13.6196H51.8718V14.0344H51.457V14.2419H51.8718V14.6567H52.0793V14.2419H52.4941V14.0344H52.0793Z" fill="#1E1E1E"/>
<path fill-rule="evenodd" clip-rule="evenodd" d="M5.40912 23.3677V22.9529H5.20171V23.3677H4.78689V23.5751H5.20171V23.9899H5.40912V23.5751H5.82393V23.3677H5.40912ZM5.40912 20.2566V19.8418H5.20171V20.2566H4.78689V20.464H5.20171V20.8788H5.40912V20.464H5.82393V20.2566H5.40912ZM2.298 23.3677V22.9529H2.0906V23.3677H1.67578V23.5751H2.0906V23.9899H2.298V23.5751H2.71282V23.3677H2.298ZM2.298 20.2566V19.8418H2.0906V20.2566H1.67578V20.464H2.0906V20.8788H2.298V20.464H2.71282V20.2566H2.298Z" fill="#1E1E1E"/>
<path fill-rule="evenodd" clip-rule="evenodd" d="M11.6318 23.3677V22.9529H11.4244V23.3677H11.0095V23.5751H11.4244V23.9899H11.6318V23.5751H12.0466V23.3677H11.6318ZM11.6318 20.2566V19.8418H11.4244V20.2566H11.0095V20.464H11.4244V20.8788H11.6318V20.464H12.0466V20.2566H11.6318ZM8.52066 23.3677V22.9529H8.31325V23.3677H7.89844V23.5751H8.31325V23.9899H8.52066V23.5751H8.93547V23.3677H8.52066ZM8.52066 20.2566V19.8418H8.31325V20.2566H7.89844V20.464H8.31325V20.8788H8.52066V20.464H8.93547V20.2566H8.52066Z" fill="#1E1E1E"/>
<path fill-rule="evenodd" clip-rule="evenodd" d="M17.8544 23.3677V22.9529H17.647V23.3677H17.2322V23.5751H17.647V23.9899H17.8544V23.5751H18.2692V23.3677H17.8544ZM17.8544 20.2566V19.8418H17.647V20.2566H17.2322V20.464H17.647V20.8788H17.8544V20.464H18.2692V20.2566H17.8544ZM14.7433 23.3677V22.9529H14.5359V23.3677H14.1211V23.5751H14.5359V23.9899H14.7433V23.5751H15.1581V23.3677H14.7433ZM14.7433 20.2566V19.8418H14.5359V20.2566H14.1211V20.464H14.5359V20.8788H14.7433V20.464H15.1581V20.2566H14.7433Z" fill="#1E1E1E"/>
<path fill-rule="evenodd" clip-rule="evenodd" d="M24.0771 23.3677V22.9529H23.8697V23.3677H23.4549V23.5751H23.8697V23.9899H24.0771V23.5751H24.4919V23.3677H24.0771ZM24.0771 20.2566V19.8418H23.8697V20.2566H23.4549V20.464H23.8697V20.8788H24.0771V20.464H24.4919V20.2566H24.0771ZM20.966 23.3677V22.9529H20.7586V23.3677H20.3438V23.5751H20.7586V23.9899H20.966V23.5751H21.3808V23.3677H20.966ZM20.966 20.2566V19.8418H20.7586V20.2566H20.3438V20.464H20.7586V20.8788H20.966V20.464H21.3808V20.2566H20.966Z" fill="#1E1E1E"/>
<path fill-rule="evenodd" clip-rule="evenodd" d="M30.2997 23.3677V22.9529H30.0923V23.3677H29.6775V23.5751H30.0923V23.9899H30.2997V23.5751H30.7146V23.3677H30.2997ZM30.2997 20.2566V19.8418H30.0923V20.2566H29.6775V20.464H30.0923V20.8788H30.2997V20.464H30.7146V20.2566H30.2997ZM27.1886 23.3677V22.9529H26.9812V23.3677H26.5664V23.5751H26.9812V23.9899H27.1886V23.5751H27.6034V23.3677H27.1886ZM27.1886 20.2566V19.8418H26.9812V20.2566H26.5664V20.464H26.9812V20.8788H27.1886V20.464H27.6034V20.2566H27.1886Z" fill="#1E1E1E"/>
<path fill-rule="evenodd" clip-rule="evenodd" d="M36.5224 23.3677V22.9529H36.315V23.3677H35.9002V23.5751H36.315V23.9899H36.5224V23.5751H36.9372V23.3677H36.5224ZM36.5224 20.2566V19.8418H36.315V20.2566H35.9002V20.464H36.315V20.8788H36.5224V20.464H36.9372V20.2566H36.5224ZM33.4113 23.3677V22.9529H33.2039V23.3677H32.7891V23.5751H33.2039V23.9899H33.4113V23.5751H33.8261V23.3677H33.4113ZM33.4113 20.2566V19.8418H33.2039V20.2566H32.7891V20.464H33.2039V20.8788H33.4113V20.464H33.8261V20.2566H33.4113Z" fill="#1E1E1E"/>
<path fill-rule="evenodd" clip-rule="evenodd" d="M42.7451 23.3677V22.9529H42.5376V23.3677H42.1228V23.5751H42.5376V23.9899H42.7451V23.5751H43.1599V23.3677H42.7451ZM42.7451 20.2566V19.8418H42.5376V20.2566H42.1228V20.464H42.5376V20.8788H42.7451V20.464H43.1599V20.2566H42.7451ZM39.6339 23.3677V22.9529H39.4265V23.3677H39.0117V23.5751H39.4265V23.9899H39.6339V23.5751H40.0488V23.3677H39.6339ZM39.6339 20.2566V19.8418H39.4265V20.2566H39.0117V20.464H39.4265V20.8788H39.6339V20.464H40.0488V20.2566H39.6339Z" fill="#1E1E1E"/>
<path fill-rule="evenodd" clip-rule="evenodd" d="M48.9677 23.3677V22.9529H48.7603V23.3677H48.3455V23.5751H48.7603V23.9899H48.9677V23.5751H49.3825V23.3677H48.9677ZM48.9677 20.2566V19.8418H48.7603V20.2566H48.3455V20.464H48.7603V20.8788H48.9677V20.464H49.3825V20.2566H48.9677ZM45.8566 23.3677V22.9529H45.6492V23.3677H45.2344V23.5751H45.6492V23.9899H45.8566V23.5751H46.2714V23.3677H45.8566ZM45.8566 20.2566V19.8418H45.6492V20.2566H45.2344V20.464H45.6492V20.8788H45.8566V20.464H46.2714V20.2566H45.8566Z" fill="#1E1E1E"/>
<path fill-rule="evenodd" clip-rule="evenodd" d="M55.1904 23.3677V22.9529H54.983V23.3677H54.5681V23.5751H54.983V23.9899H55.1904V23.5751H55.6052V23.3677H55.1904ZM55.1904 20.2566V19.8418H54.983V20.2566H54.5681V20.464H54.983V20.8788H55.1904V20.464H55.6052V20.2566H55.1904ZM52.0793 23.3677V22.9529H51.8718V23.3677H51.457V23.5751H51.8718V23.9899H52.0793V23.5751H52.4941V23.3677H52.0793ZM52.0793 20.2566V19.8418H51.8718V20.2566H51.457V20.464H51.8718V20.8788H52.0793V20.464H52.4941V20.2566H52.0793Z" fill="#1E1E1E"/>
<path fill-rule="evenodd" clip-rule="evenodd" d="M5.40912 29.5899V29.1751H5.20171V29.5899H4.78689V29.7973H5.20171V30.2121H5.40912V29.7973H5.82393V29.5899H5.40912ZM5.40912 26.4788V26.064H5.20171V26.4788H4.78689V26.6862H5.20171V27.101H5.40912V26.6862H5.82393V26.4788H5.40912ZM2.298 29.5899V29.1751H2.0906V29.5899H1.67578V29.7973H2.0906V30.2121H2.298V29.7973H2.71282V29.5899H2.298ZM2.298 26.4788V26.064H2.0906V26.4788H1.67578V26.6862H2.0906V27.101H2.298V26.6862H2.71282V26.4788H2.298Z" fill="#1E1E1E"/>
<path fill-rule="evenodd" clip-rule="evenodd" d="M11.6318 29.5899V29.1751H11.4244V29.5899H11.0095V29.7973H11.4244V30.2121H11.6318V29.7973H12.0466V29.5899H11.6318ZM11.6318 26.4788V26.064H11.4244V26.4788H11.0095V26.6862H11.4244V27.101H11.6318V26.6862H12.0466V26.4788H11.6318ZM8.52066 29.5899V29.1751H8.31325V29.5899H7.89844V29.7973H8.31325V30.2121H8.52066V29.7973H8.93547V29.5899H8.52066ZM8.52066 26.4788V26.064H8.31325V26.4788H7.89844V26.6862H8.31325V27.101H8.52066V26.6862H8.93547V26.4788H8.52066Z" fill="#1E1E1E"/>
<path fill-rule="evenodd" clip-rule="evenodd" d="M17.8544 29.5899V29.1751H17.647V29.5899H17.2322V29.7973H17.647V30.2121H17.8544V29.7973H18.2692V29.5899H17.8544ZM17.8544 26.4788V26.064H17.647V26.4788H17.2322V26.6862H17.647V27.101H17.8544V26.6862H18.2692V26.4788H17.8544ZM14.7433 29.5899V29.1751H14.5359V29.5899H14.1211V29.7973H14.5359V30.2121H14.7433V29.7973H15.1581V29.5899H14.7433ZM14.7433 26.4788V26.064H14.5359V26.4788H14.1211V26.6862H14.5359V27.101H14.7433V26.6862H15.1581V26.4788H14.7433Z" fill="#1E1E1E"/>
<path fill-rule="evenodd" clip-rule="evenodd" d="M24.0771 29.5899V29.1751H23.8697V29.5899H23.4549V29.7973H23.8697V30.2121H24.0771V29.7973H24.4919V29.5899H24.0771ZM24.0771 26.4788V26.064H23.8697V26.4788H23.4549V26.6862H23.8697V27.101H24.0771V26.6862H24.4919V26.4788H24.0771ZM20.966 29.5899V29.1751H20.7586V29.5899H20.3438V29.7973H20.7586V30.2121H20.966V29.7973H21.3808V29.5899H20.966ZM20.966 26.4788V26.064H20.7586V26.4788H20.3438V26.6862H20.7586V27.101H20.966V26.6862H21.3808V26.4788H20.966Z" fill="#1E1E1E"/>
<path fill-rule="evenodd" clip-rule="evenodd" d="M30.2997 29.5899V29.1751H30.0923V29.5899H29.6775V29.7973H30.0923V30.2121H30.2997V29.7973H30.7146V29.5899H30.2997ZM30.2997 26.4788V26.064H30.0923V26.4788H29.6775V26.6862H30.0923V27.101H30.2997V26.6862H30.7146V26.4788H30.2997ZM27.1886 29.5899V29.1751H26.9812V29.5899H26.5664V29.7973H26.9812V30.2121H27.1886V29.7973H27.6034V29.5899H27.1886ZM27.1886 26.4788V26.064H26.9812V26.4788H26.5664V26.6862H26.9812V27.101H27.1886V26.6862H27.6034V26.4788H27.1886Z" fill="#1E1E1E"/>
<path fill-rule="evenodd" clip-rule="evenodd" d="M36.5224 29.5899V29.1751H36.315V29.5899H35.9002V29.7973H36.315V30.2121H36.5224V29.7973H36.9372V29.5899H36.5224ZM36.5224 26.4788V26.064H36.315V26.4788H35.9002V26.6862H36.315V27.101H36.5224V26.6862H36.9372V26.4788H36.5224ZM33.4113 29.5899V29.1751H33.2039V29.5899H32.7891V29.7973H33.2039V30.2121H33.4113V29.7973H33.8261V29.5899H33.4113ZM33.4113 26.4788V26.064H33.2039V26.4788H32.7891V26.6862H33.2039V27.101H33.4113V26.6862H33.8261V26.4788H33.4113Z" fill="#1E1E1E"/>
<path fill-rule="evenodd" clip-rule="evenodd" d="M42.7451 29.5899V29.1751H42.5376V29.5899H42.1228V29.7973H42.5376V30.2121H42.7451V29.7973H43.1599V29.5899H42.7451ZM42.7451 26.4788V26.064H42.5376V26.4788H42.1228V26.6862H42.5376V27.101H42.7451V26.6862H43.1599V26.4788H42.7451ZM39.6339 29.5899V29.1751H39.4265V29.5899H39.0117V29.7973H39.4265V30.2121H39.6339V29.7973H40.0488V29.5899H39.6339ZM39.6339 26.4788V26.064H39.4265V26.4788H39.0117V26.6862H39.4265V27.101H39.6339V26.6862H40.0488V26.4788H39.6339Z" fill="#1E1E1E"/>
<path fill-rule="evenodd" clip-rule="evenodd" d="M48.9677 29.5899V29.1751H48.7603V29.5899H48.3455V29.7973H48.7603V30.2121H48.9677V29.7973H49.3825V29.5899H48.9677ZM48.9677 26.4788V26.064H48.7603V26.4788H48.3455V26.6862H48.7603V27.101H48.9677V26.6862H49.3825V26.4788H48.9677ZM45.8566 29.5899V29.1751H45.6492V29.5899H45.2344V29.7973H45.6492V30.2121H45.8566V29.7973H46.2714V29.5899H45.8566ZM45.8566 26.4788V26.064H45.6492V26.4788H45.2344V26.6862H45.6492V27.101H45.8566V26.6862H46.2714V26.4788H45.8566Z" fill="#1E1E1E"/>
<path fill-rule="evenodd" clip-rule="evenodd" d="M55.1904 29.5899V29.1751H54.983V29.5899H54.5681V29.7973H54.983V30.2121H55.1904V29.7973H55.6052V29.5899H55.1904ZM55.1904 26.4788V26.064H54.983V26.4788H54.5681V26.6862H54.983V27.101H55.1904V26.6862H55.6052V26.4788H55.1904ZM52.0793 29.5899V29.1751H51.8718V29.5899H51.457V29.7973H51.8718V30.2121H52.0793V29.7973H52.4941V29.5899H52.0793ZM52.0793 26.4788V26.064H51.8718V26.4788H51.457V26.6862H51.8718V27.101H52.0793V26.6862H52.4941V26.4788H52.0793Z" fill="#1E1E1E"/>
<path fill-rule="evenodd" clip-rule="evenodd" d="M5.40912 35.8121V35.3972H5.20171V35.8121H4.78689V36.0195H5.20171V36.4343H5.40912V36.0195H5.82393V35.8121H5.40912ZM5.40912 32.7009V32.2861H5.20171V32.7009H4.78689V32.9084H5.20171V33.3232H5.40912V32.9084H5.82393V32.7009H5.40912ZM2.298 35.8121V35.3972H2.0906V35.8121H1.67578V36.0195H2.0906V36.4343H2.298V36.0195H2.71282V35.8121H2.298ZM2.298 32.7009V32.2861H2.0906V32.7009H1.67578V32.9084H2.0906V33.3232H2.298V32.9084H2.71282V32.7009H2.298Z" fill="#1E1E1E"/>
<path fill-rule="evenodd" clip-rule="evenodd" d="M11.6318 35.8121V35.3972H11.4244V35.8121H11.0095V36.0195H11.4244V36.4343H11.6318V36.0195H12.0466V35.8121H11.6318ZM11.6318 32.7009V32.2861H11.4244V32.7009H11.0095V32.9084H11.4244V33.3232H11.6318V32.9084H12.0466V32.7009H11.6318ZM8.52066 35.8121V35.3972H8.31325V35.8121H7.89844V36.0195H8.31325V36.4343H8.52066V36.0195H8.93547V35.8121H8.52066ZM8.52066 32.7009V32.2861H8.31325V32.7009H7.89844V32.9084H8.31325V33.3232H8.52066V32.9084H8.93547V32.7009H8.52066Z" fill="#1E1E1E"/>
<path fill-rule="evenodd" clip-rule="evenodd" d="M17.8544 35.8121V35.3972H17.647V35.8121H17.2322V36.0195H17.647V36.4343H17.8544V36.0195H18.2692V35.8121H17.8544ZM17.8544 32.7009V32.2861H17.647V32.7009H17.2322V32.9084H17.647V33.3232H17.8544V32.9084H18.2692V32.7009H17.8544ZM14.7433 35.8121V35.3972H14.5359V35.8121H14.1211V36.0195H14.5359V36.4343H14.7433V36.0195H15.1581V35.8121H14.7433ZM14.7433 32.7009V32.2861H14.5359V32.7009H14.1211V32.9084H14.5359V33.3232H14.7433V32.9084H15.1581V32.7009H14.7433Z" fill="#1E1E1E"/>
<path fill-rule="evenodd" clip-rule="evenodd" d="M24.0771 35.8121V35.3972H23.8697V35.8121H23.4549V36.0195H23.8697V36.4343H24.0771V36.0195H24.4919V35.8121H24.0771ZM24.0771 32.7009V32.2861H23.8697V32.7009H23.4549V32.9084H23.8697V33.3232H24.0771V32.9084H24.4919V32.7009H24.0771ZM20.966 35.8121V35.3972H20.7586V35.8121H20.3438V36.0195H20.7586V36.4343H20.966V36.0195H21.3808V35.8121H20.966ZM20.966 32.7009V32.2861H20.7586V32.7009H20.3438V32.9084H20.7586V33.3232H20.966V32.9084H21.3808V32.7009H20.966Z" fill="#1E1E1E"/>
<path fill-rule="evenodd" clip-rule="evenodd" d="M30.2997 35.8121V35.3972H30.0923V35.8121H29.6775V36.0195H30.0923V36.4343H30.2997V36.0195H30.7146V35.8121H30.2997ZM30.2997 32.7009V32.2861H30.0923V32.7009H29.6775V32.9084H30.0923V33.3232H30.2997V32.9084H30.7146V32.7009H30.2997ZM27.1886 35.8121V35.3972H26.9812V35.8121H26.5664V36.0195H26.9812V36.4343H27.1886V36.0195H27.6034V35.8121H27.1886ZM27.1886 32.7009V32.2861H26.9812V32.7009H26.5664V32.9084H26.9812V33.3232H27.1886V32.9084H27.6034V32.7009H27.1886Z" fill="#1E1E1E"/>
<path fill-rule="evenodd" clip-rule="evenodd" d="M36.5224 35.8121V35.3972H36.315V35.8121H35.9002V36.0195H36.315V36.4343H36.5224V36.0195H36.9372V35.8121H36.5224ZM36.5224 32.7009V32.2861H36.315V32.7009H35.9002V32.9084H36.315V33.3232H36.5224V32.9084H36.9372V32.7009H36.5224ZM33.4113 35.8121V35.3972H33.2039V35.8121H32.7891V36.0195H33.2039V36.4343H33.4113V36.0195H33.8261V35.8121H33.4113ZM33.4113 32.7009V32.2861H33.2039V32.7009H32.7891V32.9084H33.2039V33.3232H33.4113V32.9084H33.8261V32.7009H33.4113Z" fill="#1E1E1E"/>
<path fill-rule="evenodd" clip-rule="evenodd" d="M42.7451 35.8121V35.3972H42.5376V35.8121H42.1228V36.0195H42.5376V36.4343H42.7451V36.0195H43.1599V35.8121H42.7451ZM42.7451 32.7009V32.2861H42.5376V32.7009H42.1228V32.9084H42.5376V33.3232H42.7451V32.9084H43.1599V32.7009H42.7451ZM39.6339 35.8121V35.3972H39.4265V35.8121H39.0117V36.0195H39.4265V36.4343H39.6339V36.0195H40.0488V35.8121H39.6339ZM39.6339 32.7009V32.2861H39.4265V32.7009H39.0117V32.9084H39.4265V33.3232H39.6339V32.9084H40.0488V32.7009H39.6339Z" fill="#1E1E1E"/>
<path fill-rule="evenodd" clip-rule="evenodd" d="M48.9677 35.8121V35.3972H48.7603V35.8121H48.3455V36.0195H48.7603V36.4343H48.9677V36.0195H49.3825V35.8121H48.9677ZM48.9677 32.7009V32.2861H48.7603V32.7009H48.3455V32.9084H48.7603V33.3232H48.9677V32.9084H49.3825V32.7009H48.9677ZM45.8566 35.8121V35.3972H45.6492V35.8121H45.2344V36.0195H45.6492V36.4343H45.8566V36.0195H46.2714V35.8121H45.8566ZM45.8566 32.7009V32.2861H45.6492V32.7009H45.2344V32.9084H45.6492V33.3232H45.8566V32.9084H46.2714V32.7009H45.8566Z" fill="#1E1E1E"/>
<path fill-rule="evenodd" clip-rule="evenodd" d="M55.1904 35.8121V35.3972H54.983V35.8121H54.5681V36.0195H54.983V36.4343H55.1904V36.0195H55.6052V35.8121H55.1904ZM55.1904 32.7009V32.2861H54.983V32.7009H54.5681V32.9084H54.983V33.3232H55.1904V32.9084H55.6052V32.7009H55.1904ZM52.0793 35.8121V35.3972H51.8718V35.8121H51.457V36.0195H51.8718V36.4343H52.0793V36.0195H52.4941V35.8121H52.0793ZM52.0793 32.7009V32.2861H51.8718V32.7009H51.457V32.9084H51.8718V33.3232H52.0793V32.9084H52.4941V32.7009H52.0793Z" fill="#1E1E1E"/>
<path fill-rule="evenodd" clip-rule="evenodd" d="M5.40912 42.0347V41.6199H5.20171V42.0347H4.78689V42.2421H5.20171V42.6569H5.40912V42.2421H5.82393V42.0347H5.40912ZM5.40912 38.9236V38.5088H5.20171V38.9236H4.78689V39.131H5.20171V39.5458H5.40912V39.131H5.82393V38.9236H5.40912ZM2.298 42.0347V41.6199H2.0906V42.0347H1.67578V42.2421H2.0906V42.6569H2.298V42.2421H2.71282V42.0347H2.298ZM2.298 38.9236V38.5088H2.0906V38.9236H1.67578V39.131H2.0906V39.5458H2.298V39.131H2.71282V38.9236H2.298Z" fill="#1E1E1E"/>
<path fill-rule="evenodd" clip-rule="evenodd" d="M11.6318 42.0347V41.6199H11.4244V42.0347H11.0095V42.2421H11.4244V42.6569H11.6318V42.2421H12.0466V42.0347H11.6318ZM11.6318 38.9236V38.5088H11.4244V38.9236H11.0095V39.131H11.4244V39.5458H11.6318V39.131H12.0466V38.9236H11.6318ZM8.52066 42.0347V41.6199H8.31325V42.0347H7.89844V42.2421H8.31325V42.6569H8.52066V42.2421H8.93547V42.0347H8.52066ZM8.52066 38.9236V38.5088H8.31325V38.9236H7.89844V39.131H8.31325V39.5458H8.52066V39.131H8.93547V38.9236H8.52066Z" fill="#1E1E1E"/>
<path fill-rule="evenodd" clip-rule="evenodd" d="M17.8544 42.0347V41.6199H17.647V42.0347H17.2322V42.2421H17.647V42.6569H17.8544V42.2421H18.2692V42.0347H17.8544ZM17.8544 38.9236V38.5088H17.647V38.9236H17.2322V39.131H17.647V39.5458H17.8544V39.131H18.2692V38.9236H17.8544ZM14.7433 42.0347V41.6199H14.5359V42.0347H14.1211V42.2421H14.5359V42.6569H14.7433V42.2421H15.1581V42.0347H14.7433ZM14.7433 38.9236V38.5088H14.5359V38.9236H14.1211V39.131H14.5359V39.5458H14.7433V39.131H15.1581V38.9236H14.7433Z" fill="#1E1E1E"/>
<path fill-rule="evenodd" clip-rule="evenodd" d="M24.0771 42.0347V41.6199H23.8697V42.0347H23.4549V42.2421H23.8697V42.6569H24.0771V42.2421H24.4919V42.0347H24.0771ZM24.0771 38.9236V38.5088H23.8697V38.9236H23.4549V39.131H23.8697V39.5458H24.0771V39.131H24.4919V38.9236H24.0771ZM20.966 42.0347V41.6199H20.7586V42.0347H20.3438V42.2421H20.7586V42.6569H20.966V42.2421H21.3808V42.0347H20.966ZM20.966 38.9236V38.5088H20.7586V38.9236H20.3438V39.131H20.7586V39.5458H20.966V39.131H21.3808V38.9236H20.966Z" fill="#1E1E1E"/>
<path fill-rule="evenodd" clip-rule="evenodd" d="M30.2997 42.0347V41.6199H30.0923V42.0347H29.6775V42.2421H30.0923V42.6569H30.2997V42.2421H30.7146V42.0347H30.2997ZM30.2997 38.9236V38.5088H30.0923V38.9236H29.6775V39.131H30.0923V39.5458H30.2997V39.131H30.7146V38.9236H30.2997ZM27.1886 42.0347V41.6199H26.9812V42.0347H26.5664V42.2421H26.9812V42.6569H27.1886V42.2421H27.6034V42.0347H27.1886ZM27.1886 38.9236V38.5088H26.9812V38.9236H26.5664V39.131H26.9812V39.5458H27.1886V39.131H27.6034V38.9236H27.1886Z" fill="#1E1E1E"/>
<path fill-rule="evenodd" clip-rule="evenodd" d="M36.5224 42.0347V41.6199H36.315V42.0347H35.9002V42.2421H36.315V42.6569H36.5224V42.2421H36.9372V42.0347H36.5224ZM36.5224 38.9236V38.5088H36.315V38.9236H35.9002V39.131H36.315V39.5458H36.5224V39.131H36.9372V38.9236H36.5224ZM33.4113 42.0347V41.6199H33.2039V42.0347H32.7891V42.2421H33.2039V42.6569H33.4113V42.2421H33.8261V42.0347H33.4113ZM33.4113 38.9236V38.5088H33.2039V38.9236H32.7891V39.131H33.2039V39.5458H33.4113V39.131H33.8261V38.9236H33.4113Z" fill="#1E1E1E"/>
<path fill-rule="evenodd" clip-rule="evenodd" d="M42.7451 42.0347V41.6199H42.5376V42.0347H42.1228V42.2421H42.5376V42.6569H42.7451V42.2421H43.1599V42.0347H42.7451ZM42.7451 38.9236V38.5088H42.5376V38.9236H42.1228V39.131H42.5376V39.5458H42.7451V39.131H43.1599V38.9236H42.7451ZM39.6339 42.0347V41.6199H39.4265V42.0347H39.0117V42.2421H39.4265V42.6569H39.6339V42.2421H40.0488V42.0347H39.6339ZM39.6339 38.9236V38.5088H39.4265V38.9236H39.0117V39.131H39.4265V39.5458H39.6339V39.131H40.0488V38.9236H39.6339Z" fill="#1E1E1E"/>
<path fill-rule="evenodd" clip-rule="evenodd" d="M48.9677 42.0347V41.6199H48.7603V42.0347H48.3455V42.2421H48.7603V42.6569H48.9677V42.2421H49.3825V42.0347H48.9677ZM48.9677 38.9236V38.5088H48.7603V38.9236H48.3455V39.131H48.7603V39.5458H48.9677V39.131H49.3825V38.9236H48.9677ZM45.8566 42.0347V41.6199H45.6492V42.0347H45.2344V42.2421H45.6492V42.6569H45.8566V42.2421H46.2714V42.0347H45.8566ZM45.8566 38.9236V38.5088H45.6492V38.9236H45.2344V39.131H45.6492V39.5458H45.8566V39.131H46.2714V38.9236H45.8566Z" fill="#1E1E1E"/>
<path fill-rule="evenodd" clip-rule="evenodd" d="M55.1904 42.0347V41.6199H54.983V42.0347H54.5681V42.2421H54.983V42.6569H55.1904V42.2421H55.6052V42.0347H55.1904ZM55.1904 38.9236V38.5088H54.983V38.9236H54.5681V39.131H54.983V39.5458H55.1904V39.131H55.6052V38.9236H55.1904ZM52.0793 42.0347V41.6199H51.8718V42.0347H51.457V42.2421H51.8718V42.6569H52.0793V42.2421H52.4941V42.0347H52.0793ZM52.0793 38.9236V38.5088H51.8718V38.9236H51.457V39.131H51.8718V39.5458H52.0793V39.131H52.4941V38.9236H52.0793Z" fill="#1E1E1E"/>
<path fill-rule="evenodd" clip-rule="evenodd" d="M5.40912 48.2569V47.8421H5.20171V48.2569H4.78689V48.4643H5.20171V48.8791H5.40912V48.4643H5.82393V48.2569H5.40912ZM5.40912 45.1458V44.731H5.20171V45.1458H4.78689V45.3532H5.20171V45.768H5.40912V45.3532H5.82393V45.1458H5.40912ZM2.298 48.2569V47.8421H2.0906V48.2569H1.67578V48.4643H2.0906V48.8791H2.298V48.4643H2.71282V48.2569H2.298ZM2.298 45.1458V44.731H2.0906V45.1458H1.67578V45.3532H2.0906V45.768H2.298V45.3532H2.71282V45.1458H2.298Z" fill="#1E1E1E"/>
<path fill-rule="evenodd" clip-rule="evenodd" d="M11.6318 48.2569V47.8421H11.4244V48.2569H11.0095V48.4643H11.4244V48.8791H11.6318V48.4643H12.0466V48.2569H11.6318ZM11.6318 45.1458V44.731H11.4244V45.1458H11.0095V45.3532H11.4244V45.768H11.6318V45.3532H12.0466V45.1458H11.6318ZM8.52066 48.2569V47.8421H8.31325V48.2569H7.89844V48.4643H8.31325V48.8791H8.52066V48.4643H8.93547V48.2569H8.52066ZM8.52066 45.1458V44.731H8.31325V45.1458H7.89844V45.3532H8.31325V45.768H8.52066V45.3532H8.93547V45.1458H8.52066Z" fill="#1E1E1E"/>
<path fill-rule="evenodd" clip-rule="evenodd" d="M17.8544 48.2569V47.8421H17.647V48.2569H17.2322V48.4643H17.647V48.8791H17.8544V48.4643H18.2692V48.2569H17.8544ZM17.8544 45.1458V44.731H17.647V45.1458H17.2322V45.3532H17.647V45.768H17.8544V45.3532H18.2692V45.1458H17.8544ZM14.7433 48.2569V47.8421H14.5359V48.2569H14.1211V48.4643H14.5359V48.8791H14.7433V48.4643H15.1581V48.2569H14.7433ZM14.7433 45.1458V44.731H14.5359V45.1458H14.1211V45.3532H14.5359V45.768H14.7433V45.3532H15.1581V45.1458H14.7433Z" fill="#1E1E1E"/>
<path fill-rule="evenodd" clip-rule="evenodd" d="M24.0771 48.2569V47.8421H23.8697V48.2569H23.4549V48.4643H23.8697V48.8791H24.0771V48.4643H24.4919V48.2569H24.0771ZM24.0771 45.1458V44.731H23.8697V45.1458H23.4549V45.3532H23.8697V45.768H24.0771V45.3532H24.4919V45.1458H24.0771ZM20.966 48.2569V47.8421H20.7586V48.2569H20.3438V48.4643H20.7586V48.8791H20.966V48.4643H21.3808V48.2569H20.966ZM20.966 45.1458V44.731H20.7586V45.1458H20.3438V45.3532H20.7586V45.768H20.966V45.3532H21.3808V45.1458H20.966Z" fill="#1E1E1E"/>
<path fill-rule="evenodd" clip-rule="evenodd" d="M30.2997 48.2569V47.8421H30.0923V48.2569H29.6775V48.4643H30.0923V48.8791H30.2997V48.4643H30.7146V48.2569H30.2997ZM30.2997 45.1458V44.731H30.0923V45.1458H29.6775V45.3532H30.0923V45.768H30.2997V45.3532H30.7146V45.1458H30.2997ZM27.1886 48.2569V47.8421H26.9812V48.2569H26.5664V48.4643H26.9812V48.8791H27.1886V48.4643H27.6034V48.2569H27.1886ZM27.1886 45.1458V44.731H26.9812V45.1458H26.5664V45.3532H26.9812V45.768H27.1886V45.3532H27.6034V45.1458H27.1886Z" fill="#1E1E1E"/>
<path fill-rule="evenodd" clip-rule="evenodd" d="M36.5224 48.2569V47.8421H36.315V48.2569H35.9002V48.4643H36.315V48.8791H36.5224V48.4643H36.9372V48.2569H36.5224ZM36.5224 45.1458V44.731H36.315V45.1458H35.9002V45.3532H36.315V45.768H36.5224V45.3532H36.9372V45.1458H36.5224ZM33.4113 48.2569V47.8421H33.2039V48.2569H32.7891V48.4643H33.2039V48.8791H33.4113V48.4643H33.8261V48.2569H33.4113ZM33.4113 45.1458V44.731H33.2039V45.1458H32.7891V45.3532H33.2039V45.768H33.4113V45.3532H33.8261V45.1458H33.4113Z" fill="#1E1E1E"/>
<path fill-rule="evenodd" clip-rule="evenodd" d="M42.7451 48.2569V47.8421H42.5376V48.2569H42.1228V48.4643H42.5376V48.8791H42.7451V48.4643H43.1599V48.2569H42.7451ZM42.7451 45.1458V44.731H42.5376V45.1458H42.1228V45.3532H42.5376V45.768H42.7451V45.3532H43.1599V45.1458H42.7451ZM39.6339 48.2569V47.8421H39.4265V48.2569H39.0117V48.4643H39.4265V48.8791H39.6339V48.4643H40.0488V48.2569H39.6339ZM39.6339 45.1458V44.731H39.4265V45.1458H39.0117V45.3532H39.4265V45.768H39.6339V45.3532H40.0488V45.1458H39.6339Z" fill="#1E1E1E"/>
<path fill-rule="evenodd" clip-rule="evenodd" d="M48.9677 48.2569V47.8421H48.7603V48.2569H48.3455V48.4643H48.7603V48.8791H48.9677V48.4643H49.3825V48.2569H48.9677ZM48.9677 45.1458V44.731H48.7603V45.1458H48.3455V45.3532H48.7603V45.768H48.9677V45.3532H49.3825V45.1458H48.9677ZM45.8566 48.2569V47.8421H45.6492V48.2569H45.2344V48.4643H45.6492V48.8791H45.8566V48.4643H46.2714V48.2569H45.8566ZM45.8566 45.1458V44.731H45.6492V45.1458H45.2344V45.3532H45.6492V45.768H45.8566V45.3532H46.2714V45.1458H45.8566Z" fill="#1E1E1E"/>
<path fill-rule="evenodd" clip-rule="evenodd" d="M55.1904 48.2569V47.8421H54.983V48.2569H54.5681V48.4643H54.983V48.8791H55.1904V48.4643H55.6052V48.2569H55.1904ZM55.1904 45.1458V44.731H54.983V45.1458H54.5681V45.3532H54.983V45.768H55.1904V45.3532H55.6052V45.1458H55.1904ZM52.0793 48.2569V47.8421H51.8718V48.2569H51.457V48.4643H51.8718V48.8791H52.0793V48.4643H52.4941V48.2569H52.0793ZM52.0793 45.1458V44.731H51.8718V45.1458H51.457V45.3532H51.8718V45.768H52.0793V45.3532H52.4941V45.1458H52.0793Z" fill="#1E1E1E"/>
<path fill-rule="evenodd" clip-rule="evenodd" d="M5.40912 54.4791V54.0642H5.20171V54.4791H4.78689V54.6865H5.20171V55.1013H5.40912V54.6865H5.82393V54.4791H5.40912ZM5.40912 51.3679V50.9531H5.20171V51.3679H4.78689V51.5753H5.20171V51.9902H5.40912V51.5753H5.82393V51.3679H5.40912ZM2.298 54.4791V54.0642H2.0906V54.4791H1.67578V54.6865H2.0906V55.1013H2.298V54.6865H2.71282V54.4791H2.298ZM2.298 51.3679V50.9531H2.0906V51.3679H1.67578V51.5753H2.0906V51.9902H2.298V51.5753H2.71282V51.3679H2.298Z" fill="#1E1E1E"/>
<path fill-rule="evenodd" clip-rule="evenodd" d="M11.6318 54.4791V54.0642H11.4244V54.4791H11.0095V54.6865H11.4244V55.1013H11.6318V54.6865H12.0466V54.4791H11.6318ZM11.6318 51.3679V50.9531H11.4244V51.3679H11.0095V51.5753H11.4244V51.9902H11.6318V51.5753H12.0466V51.3679H11.6318ZM8.52066 54.4791V54.0642H8.31325V54.4791H7.89844V54.6865H8.31325V55.1013H8.52066V54.6865H8.93547V54.4791H8.52066ZM8.52066 51.3679V50.9531H8.31325V51.3679H7.89844V51.5753H8.31325V51.9902H8.52066V51.5753H8.93547V51.3679H8.52066Z" fill="#1E1E1E"/>
<path fill-rule="evenodd" clip-rule="evenodd" d="M17.8544 54.4791V54.0642H17.647V54.4791H17.2322V54.6865H17.647V55.1013H17.8544V54.6865H18.2692V54.4791H17.8544ZM17.8544 51.3679V50.9531H17.647V51.3679H17.2322V51.5753H17.647V51.9902H17.8544V51.5753H18.2692V51.3679H17.8544ZM14.7433 54.4791V54.0642H14.5359V54.4791H14.1211V54.6865H14.5359V55.1013H14.7433V54.6865H15.1581V54.4791H14.7433ZM14.7433 51.3679V50.9531H14.5359V51.3679H14.1211V51.5753H14.5359V51.9902H14.7433V51.5753H15.1581V51.3679H14.7433Z" fill="#1E1E1E"/>
<path fill-rule="evenodd" clip-rule="evenodd" d="M24.0771 54.4791V54.0642H23.8697V54.4791H23.4549V54.6865H23.8697V55.1013H24.0771V54.6865H24.4919V54.4791H24.0771ZM24.0771 51.3679V50.9531H23.8697V51.3679H23.4549V51.5753H23.8697V51.9902H24.0771V51.5753H24.4919V51.3679H24.0771ZM20.966 54.4791V54.0642H20.7586V54.4791H20.3438V54.6865H20.7586V55.1013H20.966V54.6865H21.3808V54.4791H20.966ZM20.966 51.3679V50.9531H20.7586V51.3679H20.3438V51.5753H20.7586V51.9902H20.966V51.5753H21.3808V51.3679H20.966Z" fill="#1E1E1E"/>
<path fill-rule="evenodd" clip-rule="evenodd" d="M30.2997 54.4791V54.0642H30.0923V54.4791H29.6775V54.6865H30.0923V55.1013H30.2997V54.6865H30.7146V54.4791H30.2997ZM30.2997 51.3679V50.9531H30.0923V51.3679H29.6775V51.5753H30.0923V51.9902H30.2997V51.5753H30.7146V51.3679H30.2997ZM27.1886 54.4791V54.0642H26.9812V54.4791H26.5664V54.6865H26.9812V55.1013H27.1886V54.6865H27.6034V54.4791H27.1886ZM27.1886 51.3679V50.9531H26.9812V51.3679H26.5664V51.5753H26.9812V51.9902H27.1886V51.5753H27.6034V51.3679H27.1886Z" fill="#1E1E1E"/>
<path fill-rule="evenodd" clip-rule="evenodd" d="M36.5224 54.4791V54.0642H36.315V54.4791H35.9002V54.6865H36.315V55.1013H36.5224V54.6865H36.9372V54.4791H36.5224ZM36.5224 51.3679V50.9531H36.315V51.3679H35.9002V51.5753H36.315V51.9902H36.5224V51.5753H36.9372V51.3679H36.5224ZM33.4113 54.4791V54.0642H33.2039V54.4791H32.7891V54.6865H33.2039V55.1013H33.4113V54.6865H33.8261V54.4791H33.4113ZM33.4113 51.3679V50.9531H33.2039V51.3679H32.7891V51.5753H33.2039V51.9902H33.4113V51.5753H33.8261V51.3679H33.4113Z" fill="#1E1E1E"/>
<path fill-rule="evenodd" clip-rule="evenodd" d="M42.7451 54.4791V54.0642H42.5376V54.4791H42.1228V54.6865H42.5376V55.1013H42.7451V54.6865H43.1599V54.4791H42.7451ZM42.7451 51.3679V50.9531H42.5376V51.3679H42.1228V51.5753H42.5376V51.9902H42.7451V51.5753H43.1599V51.3679H42.7451ZM39.6339 54.4791V54.0642H39.4265V54.4791H39.0117V54.6865H39.4265V55.1013H39.6339V54.6865H40.0488V54.4791H39.6339ZM39.6339 51.3679V50.9531H39.4265V51.3679H39.0117V51.5753H39.4265V51.9902H39.6339V51.5753H40.0488V51.3679H39.6339Z" fill="#1E1E1E"/>
<path fill-rule="evenodd" clip-rule="evenodd" d="M48.9677 54.4791V54.0642H48.7603V54.4791H48.3455V54.6865H48.7603V55.1013H48.9677V54.6865H49.3825V54.4791H48.9677ZM48.9677 51.3679V50.9531H48.7603V51.3679H48.3455V51.5753H48.7603V51.9902H48.9677V51.5753H49.3825V51.3679H48.9677ZM45.8566 54.4791V54.0642H45.6492V54.4791H45.2344V54.6865H45.6492V55.1013H45.8566V54.6865H46.2714V54.4791H45.8566ZM45.8566 51.3679V50.9531H45.6492V51.3679H45.2344V51.5753H45.6492V51.9902H45.8566V51.5753H46.2714V51.3679H45.8566Z" fill="#1E1E1E"/>
<path fill-rule="evenodd" clip-rule="evenodd" d="M55.1904 54.4791V54.0642H54.983V54.4791H54.5681V54.6865H54.983V55.1013H55.1904V54.6865H55.6052V54.4791H55.1904ZM55.1904 51.3679V50.9531H54.983V51.3679H54.5681V51.5753H54.983V51.9902H55.1904V51.5753H55.6052V51.3679H55.1904ZM52.0793 54.4791V54.0642H51.8718V54.4791H51.457V54.6865H51.8718V55.1013H52.0793V54.6865H52.4941V54.4791H52.0793ZM52.0793 51.3679V50.9531H51.8718V51.3679H51.457V51.5753H51.8718V51.9902H52.0793V51.5753H52.4941V51.3679H52.0793Z" fill="#1E1E1E"/>
</svg>
