<svg width="57" height="57" viewBox="0 0 57 57" fill="none" xmlns="http://www.w3.org/2000/svg">
<g clip-path="url(#clip0_2589_150714)">
<rect width="56" height="56" transform="translate(0.640625 0.138184)" fill="#F7F8F9"/>
<path d="M56.6101 57.7247L54.7444 56.948C53.7259 56.5226 52.0667 56.5226 51.0483 56.948C50.0298 57.3734 48.3211 57.3805 47.2833 56.948C46.2454 56.5155 44.6056 56.5226 43.5765 56.948C42.5475 57.3734 40.8512 57.3805 39.8133 56.948C38.7754 56.5155 37.1356 56.5226 36.1154 56.948C35.0951 57.3734 33.3883 57.3805 32.3504 56.948C31.3125 56.5155 29.6727 56.5226 28.6543 56.948C27.6358 57.3734 25.9272 57.3805 24.8893 56.948C23.8514 56.5155 22.2116 56.5226 21.1825 56.948C20.1535 57.3734 18.4554 57.3805 17.4175 56.948C16.3797 56.5155 14.7399 56.5226 13.7108 56.948C12.6817 57.3734 10.9855 57.3805 9.94581 56.948C8.90616 56.5155 7.26813 56.5226 6.24966 56.948C5.23119 57.3734 3.5208 57.3805 2.48291 56.948L0.617188 56.1696L0.650725 56.0884L2.51645 56.8668C3.53669 57.2904 5.1959 57.2904 6.21437 56.8668C7.23284 56.4432 8.94146 56.4343 9.98111 56.8668C11.0208 57.2993 12.6588 57.2904 13.6773 56.8668C14.6957 56.4432 16.4044 56.4343 17.4423 56.8668C18.4801 57.2993 20.1217 57.2904 21.149 56.8668C22.1763 56.4432 23.8761 56.4343 24.914 56.8668C25.9519 57.2993 27.5917 57.2904 28.6101 56.8668C29.6286 56.4432 31.3372 56.4343 32.3751 56.8668C33.413 57.2993 35.0528 57.2904 36.073 56.8668C37.0933 56.4432 38.8001 56.4343 39.838 56.8668C40.8759 57.2993 42.5157 57.2904 43.5342 56.8668C44.5526 56.4432 46.2613 56.4343 47.2991 56.8668C48.337 57.2993 49.9768 57.2904 51.0059 56.8668C52.0349 56.4432 53.7312 56.4343 54.7691 56.8668L56.6348 57.6435L56.6101 57.7247Z" fill="#172B4D"/>
<path d="M56.6101 56.0879L54.7444 55.3113C53.7259 54.8859 52.0667 54.8859 51.0483 55.3113C50.0298 55.7367 48.3212 55.7437 47.2833 55.3113C46.2454 54.8788 44.6056 54.8859 43.5765 55.3113C42.5475 55.7367 40.8512 55.7437 39.8133 55.3113C38.7754 54.8788 37.1356 54.8859 36.1154 55.3113C35.0952 55.7367 33.3883 55.7437 32.3504 55.3113C31.3125 54.8788 29.6727 54.8859 28.6543 55.3113C27.6358 55.7367 25.9272 55.7437 24.8893 55.3113C23.8514 54.8788 22.2116 54.8859 21.1825 55.3113C20.1535 55.7367 18.4554 55.7437 17.4175 55.3113C16.3797 54.8788 14.7399 54.8859 13.7108 55.3113C12.6817 55.7367 10.9855 55.7437 9.94581 55.3113C8.90616 54.8788 7.26813 54.8859 6.24966 55.3113C5.23119 55.7367 3.5208 55.7437 2.48291 55.3113L0.617188 54.5346L0.650725 54.4517L2.54292 55.2283C3.56316 55.652 5.22237 55.652 6.24084 55.2283C7.25931 54.8047 8.96794 54.7959 10.0076 55.2283C11.0472 55.6608 12.6853 55.652 13.7037 55.2283C14.7222 54.8047 16.4308 54.7959 17.4687 55.2283C18.5066 55.6608 20.1482 55.652 21.1755 55.2283C22.2028 54.8047 23.9026 54.7959 24.9405 55.2283C25.9783 55.6608 27.6181 55.652 28.6366 55.2283C29.6551 54.8047 31.3637 54.7959 32.4016 55.2283C33.4395 55.6608 35.0793 55.652 36.0995 55.2283C37.1197 54.8047 38.8266 54.7959 39.8645 55.2283C40.9024 55.6608 42.5422 55.652 43.5606 55.2283C44.5791 54.8047 46.2877 54.7959 47.3256 55.2283C48.3635 55.6608 50.0033 55.652 51.0324 55.2283C52.0614 54.8047 53.7577 54.7959 54.7956 55.2283L56.6613 56.005L56.6101 56.0879Z" fill="#172B4D"/>
<path d="M56.6101 54.4512L54.7444 53.6746C53.7259 53.2492 52.0667 53.2492 51.0483 53.6746C50.0298 54.1 48.3211 54.107 47.2833 53.6746C46.2454 53.2421 44.6056 53.2492 43.5765 53.6746C42.5475 54.1 40.8512 54.107 39.8133 53.6746C38.7754 53.2421 37.1356 53.2492 36.1154 53.6746C35.0951 54.1 33.3883 54.107 32.3504 53.6746C31.3125 53.2421 29.6727 53.2492 28.6543 53.6746C27.6358 54.1 25.9272 54.107 24.8893 53.6746C23.8514 53.2421 22.2116 53.2492 21.1825 53.6746C20.1535 54.1 18.4554 54.107 17.4175 53.6746C16.3797 53.2421 14.7399 53.2492 13.7108 53.6746C12.6817 54.1 10.9855 54.107 9.94581 53.6746C8.90616 53.2421 7.26813 53.2492 6.24966 53.6746C5.23119 54.1 3.5208 54.107 2.48291 53.6746L0.617188 52.8979L0.650725 52.8149L2.51645 53.5934C3.53669 54.0188 5.1959 54.0188 6.21437 53.5934C7.23284 53.168 8.94146 53.1609 9.98111 53.5934C11.0208 54.0258 12.6588 54.0188 13.6773 53.5934C14.6957 53.168 16.4044 53.1609 17.4423 53.5934C18.4801 54.0258 20.1217 54.0188 21.149 53.5934C22.1763 53.168 23.8761 53.1609 24.914 53.5934C25.9519 54.0258 27.5917 54.0188 28.6101 53.5934C29.6286 53.168 31.3372 53.1609 32.3751 53.5934C33.413 54.0258 35.0528 54.0188 36.073 53.5934C37.0933 53.168 38.8001 53.1609 39.838 53.5934C40.8759 54.0258 42.5157 54.0188 43.5342 53.5934C44.5526 53.168 46.2613 53.1609 47.2991 53.5934C48.337 54.0258 49.9768 54.0188 51.0059 53.5934C52.0349 53.168 53.7312 53.1609 54.7691 53.5934L56.6348 54.37L56.6101 54.4512Z" fill="#172B4D"/>
<path d="M56.6101 52.8155L54.7444 52.037C53.7259 51.6134 52.0667 51.6134 51.0483 52.037C50.0298 52.4607 48.3211 52.4695 47.2833 52.037C46.2454 51.6046 44.6056 51.6134 43.5765 52.037C42.5475 52.4607 40.8512 52.4695 39.8133 52.037C38.7754 51.6046 37.1356 51.6134 36.1154 52.037C35.0951 52.4607 33.3883 52.4695 32.3504 52.037C31.3125 51.6046 29.6727 51.6134 28.6543 52.037C27.6358 52.4607 25.9272 52.4695 24.8893 52.037C23.8514 51.6046 22.2116 51.6134 21.1825 52.037C20.1535 52.4607 18.4554 52.4695 17.4175 52.037C16.3797 51.6046 14.7399 51.6134 13.7108 52.037C12.6817 52.4607 10.9855 52.4695 9.94581 52.037C8.90616 51.6046 7.26813 51.6134 6.24966 52.037C5.23119 52.4607 3.5208 52.4695 2.48291 52.037L0.617188 51.2604L0.650725 51.1792L2.51645 51.9559C3.53669 52.3813 5.1959 52.3813 6.21437 51.9559C7.23284 51.5305 8.94146 51.5234 9.98111 51.9559C11.0208 52.3883 12.6588 52.3813 13.6773 51.9559C14.6957 51.5305 16.4044 51.5234 17.4423 51.9559C18.4801 52.3883 20.1217 52.3813 21.149 51.9559C22.1763 51.5305 23.8761 51.5234 24.914 51.9559C25.9519 52.3883 27.5917 52.3813 28.6101 51.9559C29.6286 51.5305 31.3372 51.5234 32.3751 51.9559C33.413 52.3883 35.0528 52.3813 36.073 51.9559C37.0933 51.5305 38.8001 51.5234 39.838 51.9559C40.8759 52.3883 42.5157 52.3813 43.5342 51.9559C44.5526 51.5305 46.2613 51.5234 47.2991 51.9559C48.337 52.3883 49.9768 52.3813 51.0059 51.9559C52.0349 51.5305 53.7312 51.5234 54.7691 51.9559L56.6348 52.7325L56.6101 52.8155Z" fill="#172B4D"/>
<path d="M56.6101 51.1788L54.7444 50.4003C53.7259 49.9767 52.0667 49.9767 51.0483 50.4003C50.0298 50.824 48.3211 50.8328 47.2833 50.4003C46.2454 49.9679 44.6056 49.9767 43.5765 50.4003C42.5475 50.824 40.8512 50.8328 39.8133 50.4003C38.7754 49.9679 37.1356 49.9767 36.1154 50.4003C35.0951 50.824 33.3883 50.8328 32.3504 50.4003C31.3125 49.9679 29.6727 49.9767 28.6543 50.4003C27.6358 50.824 25.9272 50.8328 24.8893 50.4003C23.8514 49.9679 22.2116 49.9767 21.1825 50.4003C20.1535 50.824 18.4554 50.8328 17.4175 50.4003C16.3797 49.9679 14.7399 49.9767 13.7108 50.4003C12.6817 50.824 10.9855 50.8328 9.94581 50.4003C8.90616 49.9679 7.26813 49.9767 6.24966 50.4003C5.23119 50.824 3.5208 50.8328 2.48291 50.4003L0.617188 49.6237L0.650725 49.5425L2.51645 50.3191C3.53669 50.7445 5.1959 50.7445 6.21437 50.3191C7.23284 49.8937 8.94146 49.8867 9.98111 50.3191C11.0208 50.7516 12.6588 50.7445 13.6773 50.3191C14.6957 49.8937 16.4044 49.8867 17.4423 50.3191C18.4801 50.7516 20.1217 50.7445 21.149 50.3191C22.1763 49.8937 23.8761 49.8867 24.914 50.3191C25.9519 50.7516 27.5917 50.7445 28.6101 50.3191C29.6286 49.8937 31.3372 49.8867 32.3751 50.3191C33.413 50.7516 35.0528 50.7445 36.073 50.3191C37.0933 49.8937 38.8001 49.8867 39.838 50.3191C40.8759 50.7516 42.5157 50.7445 43.5342 50.3191C44.5526 49.8937 46.2613 49.8867 47.2991 50.3191C48.337 50.7516 49.9768 50.7445 51.0059 50.3191C52.0349 49.8937 53.7312 49.8867 54.7691 50.3191L56.6348 51.0958L56.6101 51.1788Z" fill="#172B4D"/>
<path d="M56.6101 49.542L54.7444 48.7636C53.7259 48.34 52.0667 48.34 51.0483 48.7636C50.0298 49.1872 48.3211 49.1961 47.2833 48.7636C46.2454 48.3312 44.6056 48.34 43.5765 48.7636C42.5475 49.1872 40.8512 49.1961 39.8133 48.7636C38.7754 48.3312 37.1356 48.34 36.1154 48.7636C35.0951 49.1872 33.3883 49.1961 32.3504 48.7636C31.3125 48.3312 29.6727 48.34 28.6543 48.7636C27.6358 49.1872 25.9272 49.1961 24.8893 48.7636C23.8514 48.3312 22.2116 48.34 21.1825 48.7636C20.1535 49.1872 18.4554 49.1961 17.4175 48.7636C16.3797 48.3312 14.7399 48.34 13.7108 48.7636C12.6817 49.1872 10.9837 49.1961 9.94581 48.7636C8.90792 48.3312 7.26813 48.34 6.24966 48.7636C5.23119 49.1872 3.5208 49.1961 2.48291 48.7636L0.617188 47.987L0.650725 47.9058L2.51645 48.6824C3.53669 49.1078 5.1959 49.1078 6.21437 48.6824C7.23284 48.257 8.94146 48.25 9.98111 48.6824C11.0208 49.1149 12.6588 49.1078 13.6773 48.6824C14.6957 48.257 16.4044 48.25 17.4423 48.6824C18.4801 49.1149 20.1217 49.1078 21.149 48.6824C22.1763 48.257 23.8761 48.25 24.914 48.6824C25.9519 49.1149 27.5917 49.1078 28.6101 48.6824C29.6286 48.257 31.3372 48.25 32.3751 48.6824C33.413 49.1149 35.0528 49.1078 36.073 48.6824C37.0933 48.257 38.8001 48.25 39.838 48.6824C40.8759 49.1149 42.5157 49.1078 43.5342 48.6824C44.5526 48.257 46.2613 48.25 47.2991 48.6824C48.337 49.1149 49.9768 49.1078 51.0059 48.6824C52.0349 48.257 53.7312 48.25 54.7691 48.6824L56.6348 49.4608L56.6101 49.542Z" fill="#172B4D"/>
<path d="M56.6101 47.9063L54.7444 47.1279C53.7259 46.7042 52.0667 46.7042 51.0483 47.1279C50.0298 47.5515 48.3211 47.5603 47.2833 47.1279C46.2454 46.6954 44.6056 46.7042 43.5765 47.1279C42.5475 47.5515 40.8512 47.5603 39.8133 47.1279C38.7754 46.6954 37.1356 46.7042 36.1154 47.1279C35.0951 47.5515 33.3883 47.5603 32.3504 47.1279C31.3125 46.6954 29.6727 46.7042 28.6543 47.1279C27.6358 47.5515 25.9272 47.5603 24.8893 47.1279C23.8514 46.6954 22.2116 46.7042 21.1825 47.1279C20.1535 47.5515 18.4554 47.5603 17.4175 47.1279C16.3797 46.6954 14.7399 46.7042 13.7108 47.1279C12.6817 47.5515 10.9837 47.5603 9.94581 47.1279C8.90792 46.6954 7.26813 46.7042 6.24966 47.1279C5.23119 47.5515 3.5208 47.5603 2.48291 47.1279L0.617188 46.3512L0.650725 46.27L2.51645 47.0467C3.53669 47.4721 5.1959 47.4721 6.21437 47.0467C7.23284 46.6213 8.94146 46.6142 9.98111 47.0467C11.0208 47.4791 12.6588 47.4721 13.6773 47.0467C14.6957 46.6213 16.4044 46.6142 17.4423 47.0467C18.4801 47.4791 20.1217 47.4721 21.149 47.0467C22.1763 46.6213 23.8761 46.6142 24.914 47.0467C25.9519 47.4791 27.5917 47.4721 28.6101 47.0467C29.6286 46.6213 31.3372 46.6142 32.3751 47.0467C33.413 47.4791 35.0528 47.4721 36.073 47.0467C37.0933 46.6213 38.8001 46.6142 39.838 47.0467C40.8759 47.4791 42.5157 47.4721 43.5342 47.0467C44.5526 46.6213 46.2613 46.6142 47.2991 47.0467C48.337 47.4791 49.9768 47.4721 51.0059 47.0467C52.0349 46.6213 53.7312 46.6142 54.7691 47.0467L56.6348 47.8251L56.6101 47.9063Z" fill="#172B4D"/>
<path d="M56.6101 46.2696L54.7444 45.4929C53.7259 45.0675 52.0667 45.0675 51.0483 45.4929C50.0298 45.9183 48.3212 45.9254 47.2833 45.4929C46.2454 45.0605 44.6056 45.0675 43.5765 45.4929C42.5475 45.9183 40.8512 45.9254 39.8133 45.4929C38.7754 45.0605 37.1356 45.0675 36.1154 45.4929C35.0952 45.9183 33.3883 45.9254 32.3504 45.4929C31.3125 45.0605 29.6727 45.0675 28.6543 45.4929C27.6358 45.9183 25.9272 45.9254 24.8893 45.4929C23.8514 45.0605 22.2116 45.0675 21.1825 45.4929C20.1535 45.9183 18.4554 45.9254 17.4175 45.4929C16.3797 45.0605 14.7399 45.0675 13.7108 45.4929C12.6817 45.9183 10.9837 45.9254 9.94581 45.4929C8.90792 45.0605 7.26813 45.0675 6.24966 45.4929C5.23119 45.9183 3.5208 45.9254 2.48291 45.4929L0.617188 44.7145L0.650725 44.6333L2.51645 45.41C3.53669 45.8353 5.1959 45.8353 6.21437 45.41C7.23284 44.9846 8.94146 44.9775 9.98111 45.41C11.0208 45.8424 12.6588 45.8353 13.6773 45.41C14.6957 44.9846 16.4044 44.9775 17.4423 45.41C18.4801 45.8424 20.1217 45.8353 21.149 45.41C22.1763 44.9846 23.8761 44.9775 24.914 45.41C25.9519 45.8424 27.5917 45.8353 28.6101 45.41C29.6286 44.9846 31.3372 44.9775 32.3751 45.41C33.413 45.8424 35.0528 45.8353 36.073 45.41C37.0933 44.9846 38.8001 44.9775 39.838 45.41C40.8759 45.8424 42.5157 45.8353 43.5342 45.41C44.5526 44.9846 46.2613 44.9775 47.2991 45.41C48.337 45.8424 49.9768 45.8353 51.0059 45.41C52.035 44.9846 53.7312 44.9775 54.7691 45.41L56.6437 46.1848L56.6101 46.2696Z" fill="#172B4D"/>
<path d="M56.6101 44.6338L54.7444 43.8572C53.7259 43.4318 52.0667 43.4318 51.0483 43.8572C50.0298 44.2826 48.3211 44.2896 47.2833 43.8572C46.2454 43.4247 44.6056 43.4318 43.5765 43.8572C42.5475 44.2826 40.8512 44.2896 39.8133 43.8572C38.7754 43.4247 37.1356 43.4318 36.1154 43.8572C35.0951 44.2826 33.3883 44.2896 32.3504 43.8572C31.3125 43.4247 29.6727 43.4318 28.6543 43.8572C27.6358 44.2826 25.9272 44.2896 24.8893 43.8572C23.8514 43.4247 22.2116 43.4318 21.1825 43.8572C20.1535 44.2826 18.4554 44.2896 17.4175 43.8572C16.3797 43.4247 14.7399 43.4318 13.7108 43.8572C12.6817 44.2826 10.9837 44.2896 9.94581 43.8572C8.90792 43.4247 7.26813 43.4318 6.24966 43.8572C5.23119 44.2826 3.5208 44.2896 2.48291 43.8572L0.617188 43.0788L0.650725 42.9976L2.51645 43.776C3.53669 44.1996 5.1959 44.1996 6.21437 43.776C7.23284 43.3523 8.94146 43.3435 9.98111 43.776C11.0208 44.2084 12.6588 44.1996 13.6773 43.776C14.6957 43.3523 16.4044 43.3435 17.4423 43.776C18.4801 44.2084 20.1217 44.1996 21.149 43.776C22.1763 43.3523 23.8761 43.3418 24.914 43.776C25.9519 44.2102 27.5917 44.1996 28.6101 43.776C29.6286 43.3523 31.3372 43.3418 32.3751 43.776C33.413 44.2102 35.0528 44.1996 36.073 43.776C37.0933 43.3523 38.8001 43.3418 39.838 43.776C40.8759 44.2102 42.5157 44.1996 43.5342 43.776C44.5526 43.3523 46.2613 43.3418 47.2991 43.776C48.337 44.2102 49.9768 44.1996 51.0059 43.776C52.0349 43.3523 53.7312 43.3418 54.7691 43.776L56.6348 44.5526L56.6101 44.6338Z" fill="#172B4D"/>
<path d="M56.6101 42.9971L54.7444 42.2205C53.7259 41.7951 52.0667 41.7951 51.0483 42.2205C50.0298 42.6459 48.3211 42.6529 47.2833 42.2205C46.2454 41.788 44.6056 41.7951 43.5765 42.2205C42.5475 42.6459 40.8512 42.6529 39.8133 42.2205C38.7754 41.788 37.1356 41.7951 36.1154 42.2205C35.0951 42.6459 33.3883 42.6529 32.3504 42.2205C31.3125 41.788 29.6727 41.7951 28.6543 42.2205C27.6358 42.6459 25.9272 42.6529 24.8893 42.2205C23.8514 41.788 22.2116 41.7951 21.1825 42.2205C20.1535 42.6459 18.4554 42.6529 17.4175 42.2205C16.3797 41.788 14.7399 41.7951 13.7108 42.2205C12.6817 42.6459 10.9837 42.6529 9.94581 42.2205C8.90792 41.788 7.26813 41.7951 6.24966 42.2205C5.23119 42.6459 3.5208 42.6529 2.48291 42.2205L0.617188 41.442L0.650725 41.3608L2.51645 42.1393C3.53669 42.5629 5.1959 42.5629 6.21437 42.1393C7.23284 41.7156 8.94146 41.7068 9.98111 42.1393C11.0208 42.5717 12.6588 42.5629 13.6773 42.1393C14.6957 41.7156 16.4044 41.7068 17.4423 42.1393C18.4801 42.5717 20.1217 42.5629 21.149 42.1393C22.1763 41.7156 23.8761 41.7068 24.914 42.1393C25.9519 42.5717 27.5917 42.5629 28.6101 42.1393C29.6286 41.7156 31.3372 41.7068 32.3751 42.1393C33.413 42.5717 35.0528 42.5629 36.073 42.1393C37.0933 41.7156 38.8001 41.7068 39.838 42.1393C40.8759 42.5717 42.5157 42.5629 43.5342 42.1393C44.5526 41.7156 46.2613 41.7068 47.2991 42.1393C48.337 42.5717 49.9768 42.5629 51.0059 42.1393C52.0349 41.7156 53.7312 41.7068 54.7691 42.1393L56.6348 42.9159L56.6101 42.9971Z" fill="#172B4D"/>
<path d="M56.6101 41.3604L54.7444 40.5837C53.7259 40.1583 52.0667 40.1583 51.0483 40.5837C50.0298 41.0091 48.3211 41.0162 47.2833 40.5837C46.2454 40.1513 44.6056 40.1583 43.5765 40.5837C42.5475 41.0091 40.8512 41.0162 39.8133 40.5837C38.7754 40.1513 37.1356 40.1583 36.1154 40.5837C35.0951 41.0091 33.3883 41.0162 32.3504 40.5837C31.3125 40.1513 29.6727 40.1583 28.6543 40.5837C27.6358 41.0091 25.9272 41.0162 24.8893 40.5837C23.8514 40.1513 22.2116 40.1583 21.1825 40.5837C20.1535 41.0091 18.4554 41.0162 17.4175 40.5837C16.3797 40.1513 14.7399 40.1583 13.7108 40.5837C12.6817 41.0091 10.9855 41.0162 9.94581 40.5837C8.90616 40.1513 7.26813 40.1583 6.24966 40.5837C5.23119 41.0091 3.5208 41.0162 2.48291 40.5837L0.617188 39.8071L0.650725 39.7241L2.51645 40.5025C3.53669 40.9262 5.1959 40.9262 6.21437 40.5025C7.23284 40.0789 8.94146 40.0701 9.98111 40.5025C11.0208 40.935 12.6588 40.9262 13.6773 40.5025C14.6957 40.0789 16.4044 40.0701 17.4423 40.5025C18.4801 40.935 20.1217 40.9262 21.149 40.5025C22.1763 40.0789 23.8761 40.0701 24.914 40.5025C25.9519 40.935 27.5917 40.9262 28.6101 40.5025C29.6286 40.0789 31.3372 40.0701 32.3751 40.5025C33.413 40.935 35.0528 40.9262 36.073 40.5025C37.0933 40.0789 38.8001 40.0701 39.838 40.5025C40.8759 40.935 42.5157 40.9262 43.5342 40.5025C44.5526 40.0789 46.2613 40.0701 47.2991 40.5025C48.337 40.935 49.9768 40.9262 51.0059 40.5025C52.0349 40.0789 53.7312 40.0701 54.7691 40.5025L56.6348 41.2792L56.6101 41.3604Z" fill="#172B4D"/>
<path d="M56.6101 39.7247L54.7444 38.948C53.7259 38.5226 52.0667 38.5226 51.0483 38.948C50.0298 39.3734 48.3212 39.3805 47.2833 38.948C46.2454 38.5155 44.6056 38.5226 43.5765 38.948C42.5475 39.3734 40.8512 39.3805 39.8133 38.948C38.7754 38.5155 37.1356 38.5226 36.1154 38.948C35.0952 39.3734 33.3883 39.3805 32.3504 38.948C31.3125 38.5155 29.6727 38.5226 28.6543 38.948C27.6358 39.3734 25.9272 39.3805 24.8893 38.948C23.8514 38.5155 22.2116 38.5226 21.1825 38.948C20.1535 39.3734 18.4554 39.3805 17.4175 38.948C16.3797 38.5155 14.7399 38.5226 13.7108 38.948C12.6817 39.3734 10.9855 39.3805 9.94581 38.948C8.90616 38.5155 7.26813 38.5226 6.24966 38.948C5.23119 39.3734 3.5208 39.3805 2.48291 38.948L0.617188 38.1713L0.650725 38.0884L2.54292 38.8633C3.56316 39.2869 5.22237 39.2869 6.24084 38.8633C7.25931 38.4396 8.96794 38.4308 10.0076 38.8633C11.0472 39.2957 12.6853 39.2869 13.7037 38.8633C14.7222 38.4396 16.4308 38.4308 17.4687 38.8633C18.5066 39.2957 20.1482 39.2869 21.1755 38.8633C22.2028 38.4396 23.9026 38.4308 24.9405 38.8633C25.9783 39.2957 27.6181 39.2887 28.6366 38.8633C29.6551 38.4379 31.3637 38.4308 32.4016 38.8633C33.4395 39.2957 35.0793 39.2869 36.0995 38.8633C37.1197 38.4396 38.8266 38.4308 39.8645 38.8633C40.9024 39.2957 42.5422 39.2869 43.5606 38.8633C44.5791 38.4396 46.2877 38.4308 47.3256 38.8633C48.3635 39.2957 50.0033 39.2869 51.0324 38.8633C52.0614 38.4396 53.7577 38.4308 54.7956 38.8633L56.6613 39.6399L56.6101 39.7247Z" fill="#172B4D"/>
<path d="M56.6101 38.0881L54.7444 37.3115C53.7259 36.8861 52.0667 36.8861 51.0483 37.3115C50.0298 37.7369 48.3211 37.7439 47.2833 37.3115C46.2454 36.879 44.6056 36.8861 43.5765 37.3115C42.5475 37.7369 40.8512 37.7439 39.8133 37.3115C38.7754 36.879 37.1356 36.8861 36.1154 37.3115C35.0951 37.7369 33.3883 37.7439 32.3504 37.3115C31.3125 36.879 29.6727 36.8861 28.6543 37.3115C27.6358 37.7369 25.9272 37.7439 24.8893 37.3115C23.8514 36.879 22.2116 36.8861 21.1825 37.3115C20.1535 37.7369 18.4554 37.7439 17.4175 37.3115C16.3797 36.879 14.7399 36.8861 13.7108 37.3115C12.6817 37.7369 10.9855 37.7439 9.94581 37.3115C8.90616 36.879 7.26813 36.8861 6.24966 37.3115C5.23119 37.7369 3.5208 37.7439 2.48291 37.3115L0.617188 36.5348L0.650725 36.4536L2.51645 37.2303C3.53669 37.6557 5.1959 37.6557 6.21437 37.2303C7.23284 36.8049 8.94146 36.7978 9.98111 37.2303C11.0208 37.6627 12.6588 37.6557 13.6773 37.2303C14.6957 36.8049 16.4044 36.7978 17.4423 37.2303C18.4801 37.6627 20.1217 37.6557 21.149 37.2303C22.1763 36.8049 23.8761 36.7978 24.914 37.2303C25.9519 37.6627 27.5917 37.6557 28.6101 37.2303C29.6286 36.8049 31.3372 36.7978 32.3751 37.2303C33.413 37.6627 35.0528 37.6557 36.073 37.2303C37.0933 36.8049 38.8001 36.7978 39.838 37.2303C40.8759 37.6627 42.5157 37.6557 43.5342 37.2303C44.5526 36.8049 46.2613 36.7978 47.2991 37.2303C48.337 37.6627 49.9768 37.6557 51.0059 37.2303C52.0349 36.8049 53.7312 36.7978 54.7691 37.2303L56.6348 38.0069L56.6101 38.0881Z" fill="#172B4D"/>
<path d="M56.6101 36.4532L54.7444 35.6747C53.7259 35.2511 52.0667 35.2511 51.0483 35.6747C50.0298 36.0984 48.3211 36.1072 47.2833 35.6747C46.2454 35.2423 44.6056 35.2511 43.5765 35.6747C42.5475 36.0984 40.8512 36.1072 39.8133 35.6747C38.7754 35.2423 37.1356 35.2511 36.1154 35.6747C35.0951 36.0984 33.3883 36.1072 32.3504 35.6747C31.3125 35.2423 29.6727 35.2511 28.6543 35.6747C27.6358 36.0984 25.9272 36.1072 24.8893 35.6747C23.8514 35.2423 22.2116 35.2511 21.1825 35.6747C20.1535 36.0984 18.4554 36.1072 17.4175 35.6747C16.3797 35.2423 14.7399 35.2511 13.7108 35.6747C12.6817 36.0984 10.9855 36.1072 9.94581 35.6747C8.90616 35.2423 7.26813 35.2511 6.24966 35.6747C5.23119 36.0984 3.5208 36.1072 2.48291 35.6747L0.617188 34.8981L0.650725 34.8169L2.51645 35.5935C3.53669 36.0189 5.1959 36.0189 6.21437 35.5935C7.23284 35.1681 8.94146 35.1611 9.98111 35.5935C11.0208 36.026 12.6588 36.0189 13.6773 35.5935C14.6957 35.1681 16.4044 35.1611 17.4423 35.5935C18.4801 36.026 20.1217 36.0189 21.149 35.5935C22.1763 35.1681 23.8761 35.1611 24.914 35.5935C25.9519 36.026 27.5917 36.0189 28.6101 35.5935C29.6286 35.1681 31.3372 35.1611 32.3751 35.5935C33.413 36.026 35.0528 36.0189 36.073 35.5935C37.0933 35.1681 38.8001 35.1611 39.838 35.5935C40.8759 36.026 42.5157 36.0189 43.5342 35.5935C44.5526 35.1681 46.2613 35.1611 47.2991 35.5935C48.337 36.026 49.9768 36.0189 51.0059 35.5935C52.0349 35.1681 53.7312 35.1611 54.7691 35.5935L56.6348 36.3702L56.6101 36.4532Z" fill="#172B4D"/>
<path d="M56.6101 34.8174L54.7444 34.039C53.7259 33.6154 52.0667 33.6154 51.0483 34.039C50.0298 34.4626 48.3211 34.4715 47.2833 34.039C46.2454 33.6066 44.6056 33.6154 43.5765 34.039C42.5475 34.4626 40.8512 34.4715 39.8133 34.039C38.7754 33.6066 37.1356 33.6154 36.1154 34.039C35.0951 34.4626 33.3883 34.4715 32.3504 34.039C31.3125 33.6066 29.6727 33.6154 28.6543 34.039C27.6358 34.4626 25.9272 34.4715 24.8893 34.039C23.8514 33.6066 22.2116 33.6154 21.1825 34.039C20.1535 34.4626 18.4554 34.4715 17.4175 34.039C16.3797 33.6066 14.7399 33.6154 13.7108 34.039C12.6817 34.4626 10.9855 34.4715 9.94581 34.039C8.90616 33.6066 7.26813 33.6154 6.24966 34.039C5.23119 34.4626 3.5208 34.4715 2.48291 34.039L0.617188 33.2624L0.650725 33.1812L2.51645 33.9578C3.53669 34.3832 5.1959 34.3832 6.21437 33.9578C7.23284 33.5324 8.94146 33.5254 9.98111 33.9578C11.0208 34.3903 12.6588 34.3832 13.6773 33.9578C14.6957 33.5324 16.4044 33.5254 17.4423 33.9578C18.4801 34.3903 20.1217 34.3832 21.149 33.9578C22.1763 33.5324 23.8761 33.5254 24.914 33.9578C25.9519 34.3903 27.5917 34.3832 28.6101 33.9578C29.6286 33.5324 31.3372 33.5254 32.3751 33.9578C33.413 34.3903 35.0528 34.3832 36.073 33.9578C37.0933 33.5324 38.8001 33.5254 39.838 33.9578C40.8759 34.3903 42.5157 34.3832 43.5342 33.9578C44.5526 33.5324 46.2613 33.5254 47.2991 33.9578C48.337 34.3903 49.9768 34.3832 51.0059 33.9578C52.0349 33.5324 53.7312 33.5254 54.7691 33.9578L56.6348 34.7345L56.6101 34.8174Z" fill="#172B4D"/>
<path d="M56.6101 33.1807L54.7444 32.4023C53.7259 31.9787 52.0667 31.9787 51.0483 32.4023C50.0298 32.8259 48.3211 32.8347 47.2833 32.4023C46.2454 31.9698 44.6056 31.9787 43.5765 32.4023C42.5475 32.8259 40.8512 32.8347 39.8133 32.4023C38.7754 31.9698 37.1356 31.9787 36.1154 32.4023C35.0951 32.8259 33.3883 32.8347 32.3504 32.4023C31.3125 31.9698 29.6727 31.9787 28.6543 32.4023C27.6358 32.8259 25.9272 32.8347 24.8893 32.4023C23.8514 31.9698 22.2116 31.9787 21.1825 32.4023C20.1535 32.8259 18.4554 32.8347 17.4175 32.4023C16.3797 31.9698 14.7399 31.9787 13.7108 32.4023C12.6817 32.8259 10.9837 32.8347 9.94581 32.4023C8.90792 31.9698 7.26813 31.9787 6.24966 32.4023C5.23119 32.8259 3.5208 32.8347 2.48291 32.4023L0.617188 31.6256L0.650725 31.5444L2.51645 32.3211C3.53669 32.7465 5.1959 32.7465 6.21437 32.3211C7.23284 31.8957 8.94146 31.8886 9.98111 32.3211C11.0208 32.7535 12.6588 32.7465 13.6773 32.3211C14.6957 31.8957 16.4044 31.8886 17.4423 32.3211C18.4801 32.7535 20.1217 32.7465 21.149 32.3211C22.1763 31.8957 23.8761 31.8886 24.914 32.3211C25.9519 32.7535 27.5917 32.7465 28.6101 32.3211C29.6286 31.8957 31.3372 31.8886 32.3751 32.3211C33.413 32.7535 35.0528 32.7465 36.073 32.3211C37.0933 31.8957 38.8001 31.8886 39.838 32.3211C40.8759 32.7535 42.5157 32.7465 43.5342 32.3211C44.5526 31.8957 46.2613 31.8886 47.2991 32.3211C48.337 32.7535 49.9768 32.7465 51.0059 32.3211C52.0349 31.8957 53.7312 31.8886 54.7691 32.3211L56.6348 33.0995L56.6101 33.1807Z" fill="#172B4D"/>
<path d="M56.6101 31.544L54.7444 30.7673C53.7259 30.3419 52.0667 30.3419 51.0483 30.7673C50.0298 31.1927 48.3211 31.1998 47.2833 30.7673C46.2454 30.3349 44.6056 30.3419 43.5765 30.7673C42.5475 31.1927 40.8512 31.1998 39.8133 30.7673C38.7754 30.3349 37.1356 30.3419 36.1154 30.7673C35.0951 31.1927 33.3883 31.1998 32.3504 30.7673C31.3125 30.3349 29.6727 30.3419 28.6543 30.7673C27.6358 31.1927 25.9272 31.1998 24.8893 30.7673C23.8514 30.3349 22.2116 30.3419 21.1825 30.7673C20.1535 31.1927 18.4554 31.1998 17.4175 30.7673C16.3797 30.3349 14.7399 30.3419 13.7108 30.7673C12.6817 31.1927 10.9837 31.1998 9.94581 30.7673C8.90792 30.3349 7.26813 30.3419 6.24966 30.7673C5.23119 31.1927 3.5208 31.1998 2.48291 30.7673L0.617188 29.9889L0.650725 29.9077L2.51645 30.6844C3.53669 31.1098 5.1959 31.1098 6.21437 30.6844C7.23284 30.259 8.94146 30.2519 9.98111 30.6844C11.0208 31.1168 12.6588 31.1098 13.6773 30.6844C14.6957 30.259 16.4044 30.2519 17.4423 30.6844C18.4801 31.1168 20.1217 31.1098 21.149 30.6844C22.1763 30.259 23.8761 30.2519 24.914 30.6844C25.9519 31.1168 27.5917 31.1098 28.6101 30.6844C29.6286 30.259 31.3372 30.2519 32.3751 30.6844C33.413 31.1168 35.0528 31.1098 36.073 30.6844C37.0933 30.259 38.8001 30.2519 39.838 30.6844C40.8759 31.1168 42.5157 31.1098 43.5342 30.6844C44.5526 30.259 46.2613 30.2519 47.2991 30.6844C48.337 31.1168 49.9768 31.1098 51.0059 30.6844C52.0349 30.259 53.7312 30.2519 54.7691 30.6844L56.6348 31.4628L56.6101 31.544Z" fill="#172B4D"/>
<path d="M56.6101 29.9082L54.7444 29.1316C53.7259 28.7062 52.0667 28.7062 51.0483 29.1316C50.0298 29.557 48.3212 29.5641 47.2833 29.1316C46.2454 28.6991 44.6056 28.7062 43.5765 29.1316C42.5475 29.557 40.8512 29.5641 39.8133 29.1316C38.7754 28.6991 37.1356 28.7062 36.1154 29.1316C35.0952 29.557 33.3883 29.5641 32.3504 29.1316C31.3125 28.6991 29.6727 28.7062 28.6543 29.1316C27.6358 29.557 25.9272 29.5641 24.8893 29.1316C23.8514 28.6991 22.2116 28.7062 21.1825 29.1316C20.1535 29.557 18.4554 29.5641 17.4175 29.1316C16.3797 28.6991 14.7399 28.7062 13.7108 29.1316C12.6817 29.557 10.9837 29.5641 9.94581 29.1316C8.90792 28.6991 7.26813 28.7062 6.24966 29.1316C5.23119 29.557 3.5208 29.5641 2.48291 29.1316L0.617188 28.3532L0.650725 28.272L2.51645 29.0486C3.53669 29.474 5.1959 29.474 6.21437 29.0486C7.23284 28.6232 8.94146 28.6162 9.98111 29.0486C11.0208 29.4811 12.6588 29.474 13.6773 29.0486C14.6957 28.6232 16.4044 28.6162 17.4423 29.0486C18.4801 29.4811 20.1217 29.474 21.149 29.0486C22.1763 28.6232 23.8761 28.6162 24.914 29.0486C25.9519 29.4811 27.5917 29.474 28.6101 29.0486C29.6286 28.6232 31.3372 28.6162 32.3751 29.0486C33.413 29.4811 35.0528 29.474 36.073 29.0486C37.0933 28.6232 38.8001 28.6162 39.838 29.0486C40.8759 29.4811 42.5157 29.474 43.5342 29.0486C44.5526 28.6232 46.2613 28.6162 47.2991 29.0486C48.337 29.4811 49.9768 29.474 51.0059 29.0486C52.035 28.6232 53.7312 28.6162 54.7691 29.0486L56.6437 29.8218L56.6101 29.9082Z" fill="#172B4D"/>
<path d="M56.6101 28.2715L54.7444 27.4949C53.7259 27.0695 52.0667 27.0695 51.0483 27.4949C50.0298 27.9203 48.3211 27.9273 47.2833 27.4949C46.2454 27.0624 44.6056 27.0695 43.5765 27.4949C42.5475 27.9203 40.8512 27.9273 39.8133 27.4949C38.7754 27.0624 37.1356 27.0695 36.1154 27.4949C35.0951 27.9203 33.3883 27.9273 32.3504 27.4949C31.3125 27.0624 29.6727 27.0695 28.6543 27.4949C27.6358 27.9203 25.9272 27.9273 24.8893 27.4949C23.8514 27.0624 22.2116 27.0695 21.1825 27.4949C20.1535 27.9203 18.4554 27.9273 17.4175 27.4949C16.3797 27.0624 14.7399 27.0695 13.7108 27.4949C12.6817 27.9203 10.9837 27.9273 9.94581 27.4949C8.90792 27.0624 7.26813 27.0695 6.24966 27.4949C5.23119 27.9203 3.5208 27.9273 2.48291 27.4949L0.617188 26.7165L0.650725 26.6353L2.51645 27.4137C3.53669 27.8373 5.1959 27.8373 6.21437 27.4137C7.23284 26.99 8.94146 26.9812 9.98111 27.4137C11.0208 27.8461 12.6588 27.8373 13.6773 27.4137C14.6957 26.99 16.4044 26.9812 17.4423 27.4137C18.4801 27.8461 20.1217 27.8373 21.149 27.4137C22.1763 26.99 23.8761 26.9812 24.914 27.4137C25.9519 27.8461 27.5917 27.8373 28.6101 27.4137C29.6286 26.99 31.3372 26.9812 32.3751 27.4137C33.413 27.8461 35.0528 27.8373 36.073 27.4137C37.0933 26.99 38.8001 26.9812 39.838 27.4137C40.8759 27.8461 42.5157 27.8373 43.5342 27.4137C44.5526 26.99 46.2613 26.9812 47.2991 27.4137C48.337 27.8461 49.9768 27.8373 51.0059 27.4137C52.0349 26.99 53.7312 26.9812 54.7691 27.4137L56.6348 28.1903L56.6101 28.2715Z" fill="#172B4D"/>
<path d="M56.6101 26.6358L54.7444 25.8591C53.7259 25.4337 52.0667 25.4337 51.0483 25.8591C50.0298 26.2845 48.3211 26.2916 47.2833 25.8591C46.2454 25.4267 44.6056 25.4337 43.5765 25.8591C42.5475 26.2845 40.8512 26.2916 39.8133 25.8591C38.7754 25.4267 37.1356 25.4337 36.1154 25.8591C35.0951 26.2845 33.3883 26.2916 32.3504 25.8591C31.3125 25.4267 29.6727 25.4337 28.6543 25.8591C27.6358 26.2845 25.9272 26.2916 24.8893 25.8591C23.8514 25.4267 22.2116 25.4337 21.1825 25.8591C20.1535 26.2845 18.4554 26.2916 17.4175 25.8591C16.3797 25.4267 14.7399 25.4337 13.7108 25.8591C12.6817 26.2845 10.9837 26.2916 9.94581 25.8591C8.90792 25.4267 7.26813 25.4337 6.24966 25.8591C5.23119 26.2845 3.5208 26.2916 2.48291 25.8591L0.617188 25.0807L0.650725 24.9995L2.51645 25.7779C3.53669 26.2016 5.1959 26.2016 6.21437 25.7779C7.23284 25.3543 8.94146 25.3455 9.98111 25.7779C11.0208 26.2104 12.6588 26.2016 13.6773 25.7779C14.6957 25.3543 16.4044 25.3455 17.4423 25.7779C18.4801 26.2104 20.1217 26.2016 21.149 25.7779C22.1763 25.3543 23.8761 25.3455 24.914 25.7779C25.9519 26.2104 27.5917 26.2016 28.6101 25.7779C29.6286 25.3543 31.3372 25.3455 32.3751 25.7779C33.413 26.2104 35.0528 26.2016 36.073 25.7779C37.0933 25.3543 38.8001 25.3455 39.838 25.7779C40.8759 26.2104 42.5157 26.2016 43.5342 25.7779C44.5526 25.3543 46.2613 25.3455 47.2991 25.7779C48.337 26.2104 49.9768 26.2016 51.0059 25.7779C52.0349 25.3543 53.7312 25.3455 54.7691 25.7779L56.6348 26.5546L56.6101 26.6358Z" fill="#172B4D"/>
<path d="M56.6101 24.9991L54.7444 24.2224C53.7259 23.797 52.0667 23.797 51.0483 24.2224C50.0298 24.6478 48.3211 24.6549 47.2833 24.2224C46.2454 23.79 44.6056 23.797 43.5765 24.2224C42.5475 24.6478 40.8512 24.6549 39.8133 24.2224C38.7754 23.79 37.1356 23.797 36.1154 24.2224C35.0951 24.6478 33.3883 24.6549 32.3504 24.2224C31.3125 23.79 29.6727 23.797 28.6543 24.2224C27.6358 24.6478 25.9272 24.6549 24.8893 24.2224C23.8514 23.79 22.2116 23.797 21.1825 24.2224C20.1535 24.6478 18.4554 24.6549 17.4175 24.2224C16.3797 23.79 14.7399 23.797 13.7108 24.2224C12.6817 24.6478 10.9837 24.6549 9.94581 24.2224C8.90792 23.79 7.26813 23.797 6.24966 24.2224C5.23119 24.6478 3.5208 24.6549 2.48291 24.2224L0.617188 23.4457L0.650725 23.3628L2.51645 24.1412C3.53669 24.5648 5.1959 24.5648 6.21437 24.1412C7.23284 23.7176 8.94146 23.7088 9.98111 24.1412C11.0208 24.5737 12.6588 24.5648 13.6773 24.1412C14.6957 23.7176 16.4044 23.7088 17.4423 24.1412C18.4801 24.5737 20.1217 24.5648 21.149 24.1412C22.1763 23.7176 23.8761 23.7088 24.914 24.1412C25.9519 24.5737 27.5917 24.5648 28.6101 24.1412C29.6286 23.7176 31.3372 23.7088 32.3751 24.1412C33.413 24.5737 35.0528 24.5648 36.073 24.1412C37.0933 23.7176 38.8001 23.7088 39.838 24.1412C40.8759 24.5737 42.5157 24.5648 43.5342 24.1412C44.5526 23.7176 46.2613 23.7088 47.2991 24.1412C48.337 24.5737 49.9768 24.5648 51.0059 24.1412C52.0349 23.7176 53.7312 23.7088 54.7691 24.1412L56.6348 24.9179L56.6101 24.9991Z" fill="#172B4D"/>
<path d="M56.6101 23.3624L54.7444 22.5857C53.7259 22.1603 52.0667 22.1603 51.0483 22.5857C50.0298 23.0111 48.3212 23.0181 47.2833 22.5857C46.2454 22.1532 44.6056 22.1603 43.5765 22.5857C42.5475 23.0111 40.8512 23.0181 39.8133 22.5857C38.7754 22.1532 37.1356 22.1603 36.1154 22.5857C35.0952 23.0111 33.3883 23.0181 32.3504 22.5857C31.3125 22.1532 29.6727 22.1603 28.6543 22.5857C27.6358 23.0111 25.9272 23.0181 24.8893 22.5857C23.8514 22.1532 22.2116 22.1603 21.1825 22.5857C20.1535 23.0111 18.4554 23.0181 17.4175 22.5857C16.3797 22.1532 14.7399 22.1603 13.7108 22.5857C12.6817 23.0111 10.9855 23.0181 9.94581 22.5857C8.90616 22.1532 7.26813 22.1603 6.24966 22.5857C5.23119 23.0111 3.5208 23.0181 2.48291 22.5857L0.617188 21.809L0.650725 21.7261L2.54292 22.4992C3.56316 22.9246 5.22237 22.9246 6.24084 22.4992C7.25931 22.0738 8.96794 22.0667 10.0076 22.4992C11.0472 22.9317 12.6853 22.9246 13.7037 22.4992C14.7222 22.0738 16.4308 22.0667 17.4687 22.4992C18.5066 22.9317 20.1482 22.9228 21.1755 22.4992C22.2028 22.0756 23.9026 22.0667 24.9405 22.4992C25.9783 22.9317 27.6181 22.9246 28.6366 22.4992C29.6551 22.0738 31.3637 22.0667 32.4016 22.4992C33.4395 22.9317 35.0793 22.9228 36.0995 22.4992C37.1197 22.0756 38.8266 22.0667 39.8645 22.4992C40.9024 22.9317 42.5422 22.9246 43.5606 22.4992C44.5791 22.0738 46.2877 22.0667 47.3256 22.4992C48.3635 22.9317 50.0033 22.9246 51.0324 22.4992C52.0614 22.0738 53.7577 22.0667 54.7956 22.4992L56.6613 23.2759L56.6101 23.3624Z" fill="#172B4D"/>
<path d="M56.6101 21.7258L54.7444 20.9492C53.7259 20.5238 52.0667 20.5238 51.0483 20.9492C50.0298 21.3746 48.3211 21.3816 47.2833 20.9492C46.2454 20.5167 44.6056 20.5238 43.5765 20.9492C42.5475 21.3746 40.8512 21.3816 39.8133 20.9492C38.7754 20.5167 37.1356 20.5255 36.1154 20.9492C35.0951 21.3728 33.3883 21.3816 32.3504 20.9492C31.3125 20.5167 29.6727 20.5238 28.6543 20.9492C27.6358 21.3746 25.9272 21.3816 24.8893 20.9492C23.8514 20.5167 22.2116 20.5255 21.1825 20.9492C20.1535 21.3728 18.4554 21.3816 17.4175 20.9492C16.3797 20.5167 14.7399 20.5255 13.7108 20.9492C12.6817 21.3728 10.9855 21.3816 9.94581 20.9492C8.90616 20.5167 7.26813 20.5255 6.24966 20.9492C5.23119 21.3728 3.5208 21.3816 2.48291 20.9492L0.617188 20.1725L0.650725 20.0913L2.51645 20.868C3.53669 21.2934 5.1959 21.2934 6.21437 20.868C7.23284 20.4426 8.94146 20.4355 9.98111 20.868C11.0208 21.3004 12.6588 21.2934 13.6773 20.868C14.6957 20.4426 16.4044 20.4355 17.4423 20.868C18.4801 21.3004 20.1217 21.2934 21.149 20.868C22.1763 20.4426 23.8761 20.4355 24.914 20.868C25.9519 21.3004 27.5917 21.2934 28.6101 20.868C29.6286 20.4426 31.3372 20.4355 32.3751 20.868C33.413 21.3004 35.0528 21.2934 36.073 20.868C37.0933 20.4426 38.8001 20.4355 39.838 20.868C40.8759 21.3004 42.5157 21.2934 43.5342 20.868C44.5526 20.4426 46.2613 20.4355 47.2991 20.868C48.337 21.3004 49.9768 21.2934 51.0059 20.868C52.0349 20.4426 53.7312 20.4355 54.7691 20.868L56.6348 21.6446L56.6101 21.7258Z" fill="#172B4D"/>
<path d="M56.6101 20.0918L54.7444 19.3134C53.7259 18.8898 52.0667 18.8898 51.0483 19.3134C50.0298 19.737 48.3211 19.7459 47.2833 19.3134C46.2454 18.881 44.6056 18.8898 43.5765 19.3134C42.5475 19.737 40.8512 19.7459 39.8133 19.3134C38.7754 18.881 37.1356 18.8898 36.1154 19.3134C35.0951 19.737 33.3883 19.7459 32.3504 19.3134C31.3125 18.881 29.6727 18.8898 28.6543 19.3134C27.6358 19.737 25.9272 19.7459 24.8893 19.3134C23.8514 18.881 22.2116 18.8898 21.1825 19.3134C20.1535 19.737 18.4554 19.7459 17.4175 19.3134C16.3797 18.881 14.7399 18.8898 13.7108 19.3134C12.6817 19.737 10.9855 19.7459 9.94581 19.3134C8.90616 18.881 7.26813 18.8898 6.24966 19.3134C5.23119 19.737 3.5208 19.7459 2.48291 19.3134L0.617188 18.5368L0.650725 18.4556L2.51645 19.2322C3.53669 19.6576 5.1959 19.6576 6.21437 19.2322C7.23284 18.8068 8.94146 18.7998 9.98111 19.2322C11.0208 19.6647 12.6588 19.6576 13.6773 19.2322C14.6957 18.8068 16.4044 18.7998 17.4423 19.2322C18.4801 19.6647 20.1217 19.6576 21.149 19.2322C22.1763 18.8068 23.8761 18.7998 24.914 19.2322C25.9519 19.6647 27.5917 19.6576 28.6101 19.2322C29.6286 18.8068 31.3372 18.7998 32.3751 19.2322C33.413 19.6647 35.0528 19.6576 36.073 19.2322C37.0933 18.8068 38.8001 18.7998 39.838 19.2322C40.8759 19.6647 42.5157 19.6576 43.5342 19.2322C44.5526 18.8068 46.2613 18.7998 47.2991 19.2322C48.337 19.6647 49.9768 19.6576 51.0059 19.2322C52.0349 18.8068 53.7312 18.7998 54.7691 19.2322L56.6348 20.0089L56.6101 20.0918Z" fill="#172B4D"/>
<path d="M56.6101 18.4551L54.7444 17.6767C53.7259 17.2531 52.0667 17.2531 51.0483 17.6767C50.0298 18.1003 48.3211 18.1092 47.2833 17.6767C46.2454 17.2442 44.6056 17.2531 43.5765 17.6767C42.5475 18.1003 40.8512 18.1092 39.8133 17.6767C38.7754 17.2442 37.1356 17.2531 36.1154 17.6767C35.0951 18.1003 33.3883 18.1092 32.3504 17.6767C31.3125 17.2442 29.6727 17.2531 28.6543 17.6767C27.6358 18.1003 25.9272 18.1092 24.8893 17.6767C23.8514 17.2442 22.2116 17.2531 21.1825 17.6767C20.1535 18.1003 18.4554 18.1092 17.4175 17.6767C16.3797 17.2442 14.7399 17.2531 13.7108 17.6767C12.6817 18.1003 10.9855 18.1092 9.94581 17.6767C8.90616 17.2442 7.26813 17.2531 6.24966 17.6767C5.23119 18.1003 3.5208 18.1092 2.48291 17.6767L0.617188 16.9L0.650725 16.8188L2.51645 17.5955C3.53669 18.0209 5.1959 18.0209 6.21437 17.5955C7.23284 17.1701 8.94146 17.1631 9.98111 17.5955C11.0208 18.028 12.6588 18.0209 13.6773 17.5955C14.6957 17.1701 16.4044 17.1631 17.4423 17.5955C18.4801 18.028 20.1217 18.0209 21.149 17.5955C22.1763 17.1701 23.8761 17.1631 24.914 17.5955C25.9519 18.028 27.5917 18.0209 28.6101 17.5955C29.6286 17.1701 31.3372 17.1631 32.3751 17.5955C33.413 18.028 35.0528 18.0209 36.073 17.5955C37.0933 17.1701 38.8001 17.1631 39.838 17.5955C40.8759 18.028 42.5157 18.0209 43.5342 17.5955C44.5526 17.1701 46.2613 17.1631 47.2991 17.5955C48.337 18.028 49.9768 18.0209 51.0059 17.5955C52.0349 17.1701 53.7312 17.1631 54.7691 17.5955L56.6348 18.3739L56.6101 18.4551Z" fill="#172B4D"/>
<path d="M56.6101 16.8194L54.7444 16.041C53.7259 15.6173 52.0667 15.6173 51.0483 16.041C50.0298 16.4646 48.3211 16.4734 47.2833 16.041C46.2454 15.6085 44.6056 15.6173 43.5765 16.041C42.5475 16.4646 40.8512 16.4734 39.8133 16.041C38.7754 15.6085 37.1356 15.6173 36.1154 16.041C35.0951 16.4646 33.3883 16.4734 32.3504 16.041C31.3125 15.6085 29.6727 15.6173 28.6543 16.041C27.6358 16.4646 25.9272 16.4734 24.8893 16.041C23.8514 15.6085 22.2116 15.6173 21.1825 16.041C20.1535 16.4646 18.4554 16.4734 17.4175 16.041C16.3797 15.6085 14.7399 15.6173 13.7108 16.041C12.6817 16.4646 10.9837 16.4734 9.94581 16.041C8.90792 15.6085 7.26813 15.6173 6.24966 16.041C5.23119 16.4646 3.5208 16.4734 2.48291 16.041L0.617188 15.2643L0.650725 15.1831L2.51645 15.9598C3.53669 16.3852 5.1959 16.3852 6.21437 15.9598C7.23284 15.5344 8.94146 15.5273 9.98111 15.9598C11.0208 16.3922 12.6588 16.3852 13.6773 15.9598C14.6957 15.5344 16.4044 15.5273 17.4423 15.9598C18.4801 16.3922 20.1217 16.3852 21.149 15.9598C22.1763 15.5344 23.8761 15.5273 24.914 15.9598C25.9519 16.3922 27.5917 16.3852 28.6101 15.9598C29.6286 15.5344 31.3372 15.5273 32.3751 15.9598C33.413 16.3922 35.0528 16.3852 36.073 15.9598C37.0933 15.5344 38.8001 15.5273 39.838 15.9598C40.8759 16.3922 42.5157 16.3852 43.5342 15.9598C44.5526 15.5344 46.2613 15.5273 47.2991 15.9598C48.337 16.3922 49.9768 16.3852 51.0059 15.9598C52.0349 15.5344 53.7312 15.5273 54.7691 15.9598L56.6348 16.7382L56.6101 16.8194Z" fill="#172B4D"/>
<path d="M56.6101 15.1827L54.7444 14.406C53.7259 13.9806 52.0667 13.9806 51.0483 14.406C50.0298 14.8314 48.3211 14.8385 47.2833 14.406C46.2454 13.9735 44.6056 13.9806 43.5765 14.406C42.5475 14.8314 40.8512 14.8385 39.8133 14.406C38.7754 13.9735 37.1356 13.9806 36.1154 14.406C35.0951 14.8314 33.3883 14.8385 32.3504 14.406C31.3125 13.9735 29.6727 13.9806 28.6543 14.406C27.6358 14.8314 25.9272 14.8367 24.8893 14.406C23.8514 13.9753 22.2116 13.9806 21.1825 14.406C20.1535 14.8314 18.4554 14.8385 17.4175 14.406C16.3797 13.9735 14.7399 13.9806 13.7108 14.406C12.6817 14.8314 10.9837 14.8385 9.94581 14.406C8.90792 13.9735 7.26813 13.9806 6.24966 14.406C5.23119 14.8314 3.5208 14.8385 2.48291 14.406L0.617188 13.6276L0.650725 13.5464L2.51645 14.323C3.53669 14.7484 5.1959 14.7484 6.21437 14.323C7.23284 13.8977 8.94146 13.8906 9.98111 14.323C11.0208 14.7555 12.6588 14.7484 13.6773 14.323C14.6957 13.8977 16.4044 13.8906 17.4423 14.323C18.4801 14.7555 20.1217 14.7484 21.149 14.323C22.1763 13.8977 23.8761 13.8906 24.914 14.323C25.9519 14.7555 27.5917 14.7484 28.6101 14.323C29.6286 13.8977 31.3372 13.8906 32.3751 14.323C33.413 14.7555 35.0528 14.7484 36.073 14.323C37.0933 13.8977 38.8001 13.8906 39.838 14.323C40.8759 14.7555 42.5157 14.7484 43.5342 14.323C44.5526 13.8977 46.2613 13.8906 47.2991 14.323C48.337 14.7555 49.9768 14.7484 51.0059 14.323C52.0349 13.8977 53.7312 13.8906 54.7691 14.323L56.6348 15.1015L56.6101 15.1827Z" fill="#172B4D"/>
<path d="M56.6101 13.5459L54.7444 12.7693C53.7259 12.3439 52.0667 12.3439 51.0483 12.7693C50.0298 13.1947 48.3212 13.2017 47.2833 12.7693C46.2454 12.3368 44.6056 12.3439 43.5765 12.7693C42.5475 13.1947 40.8512 13.2017 39.8133 12.7693C38.7754 12.3368 37.1356 12.3439 36.1154 12.7693C35.0952 13.1947 33.3883 13.2017 32.3504 12.7693C31.3125 12.3368 29.6727 12.3439 28.6543 12.7693C27.6358 13.1947 25.9272 13.2017 24.8893 12.7693C23.8514 12.3368 22.2116 12.3439 21.1825 12.7693C20.1535 13.1947 18.4554 13.2017 17.4175 12.7693C16.3797 12.3368 14.7399 12.3439 13.7108 12.7693C12.6817 13.1947 10.9837 13.2017 9.94581 12.7693C8.90792 12.3368 7.26813 12.3439 6.24966 12.7693C5.23119 13.1947 3.5208 13.2017 2.48291 12.7693L0.617188 11.9909L0.650725 11.9097L2.51645 12.6863C3.53669 13.1117 5.1959 13.1117 6.21437 12.6863C7.23284 12.2609 8.94146 12.2539 9.98111 12.6863C11.0208 13.1188 12.6588 13.1117 13.6773 12.6863C14.6957 12.2609 16.4044 12.2539 17.4423 12.6863C18.4801 13.1188 20.1217 13.1117 21.149 12.6863C22.1763 12.2609 23.8761 12.2539 24.914 12.6863C25.9519 13.1188 27.5917 13.1117 28.6101 12.6863C29.6286 12.2609 31.3372 12.2539 32.3751 12.6863C33.413 13.1188 35.0528 13.1117 36.073 12.6863C37.0933 12.2609 38.8001 12.2539 39.838 12.6863C40.8759 13.1188 42.5157 13.1117 43.5342 12.6863C44.5526 12.2609 46.2613 12.2539 47.2991 12.6863C48.337 13.1188 49.9768 13.1117 51.0059 12.6863C52.035 12.2609 53.7312 12.2539 54.7691 12.6863L56.6437 13.4577L56.6101 13.5459Z" fill="#172B4D"/>
<path d="M56.6101 11.9102L54.7444 11.1335C53.7259 10.7081 52.0667 10.7081 51.0483 11.1335C50.0298 11.5589 48.3211 11.566 47.2833 11.1335C46.2454 10.7011 44.6056 10.7081 43.5765 11.1335C42.5475 11.5589 40.8512 11.566 39.8133 11.1335C38.7754 10.7011 37.1356 10.7081 36.1154 11.1335C35.0951 11.5589 33.3883 11.566 32.3504 11.1335C31.3125 10.7011 29.6727 10.7081 28.6543 11.1335C27.6358 11.5589 25.9272 11.566 24.8893 11.1335C23.8514 10.7011 22.2116 10.7081 21.1825 11.1335C20.1535 11.5589 18.4554 11.566 17.4175 11.1335C16.3797 10.7011 14.7399 10.7081 13.7108 11.1335C12.6817 11.5589 10.9837 11.566 9.94581 11.1335C8.90792 10.7011 7.26813 10.7081 6.24966 11.1335C5.23119 11.5589 3.5208 11.566 2.48291 11.1335L0.617188 10.3551L0.650725 10.2739L2.51645 11.0523C3.53669 11.476 5.1959 11.476 6.21437 11.0523C7.23284 10.6287 8.94146 10.6199 9.98111 11.0523C11.0208 11.4848 12.6588 11.476 13.6773 11.0523C14.6957 10.6287 16.4044 10.6199 17.4423 11.0523C18.4801 11.4848 20.1217 11.476 21.149 11.0523C22.1763 10.6287 23.8761 10.6199 24.914 11.0523C25.9519 11.4848 27.5917 11.476 28.6101 11.0523C29.6286 10.6287 31.3372 10.6199 32.3751 11.0523C33.413 11.4848 35.0528 11.476 36.073 11.0523C37.0933 10.6287 38.8001 10.6199 39.838 11.0523C40.8759 11.4848 42.5157 11.476 43.5342 11.0523C44.5526 10.6287 46.2613 10.6199 47.2991 11.0523C48.337 11.4848 49.9768 11.476 51.0059 11.0523C52.0349 10.6287 53.7312 10.6199 54.7691 11.0523L56.6348 11.829L56.6101 11.9102Z" fill="#172B4D"/>
<path d="M56.6101 10.2735L54.7444 9.49682C53.7259 9.07143 52.0667 9.07143 51.0483 9.49682C50.0298 9.92222 48.3211 9.92928 47.2833 9.49682C46.2454 9.06437 44.6056 9.07143 43.5765 9.49682C42.5475 9.92222 40.8512 9.92928 39.8133 9.49682C38.7754 9.06437 37.1356 9.07143 36.1154 9.49682C35.0951 9.92222 33.3883 9.92928 32.3504 9.49682C31.3125 9.06437 29.6727 9.07143 28.6543 9.49682C27.6358 9.92222 25.9272 9.92928 24.8893 9.49682C23.8514 9.06437 22.2116 9.07143 21.1825 9.49682C20.1535 9.92222 18.4554 9.92928 17.4175 9.49682C16.3797 9.06437 14.7399 9.07143 13.7108 9.49682C12.6817 9.92222 10.9837 9.92928 9.94581 9.49682C8.90792 9.06437 7.26813 9.07143 6.24966 9.49682C5.23119 9.92222 3.5208 9.92928 2.48291 9.49682L0.617188 8.71841L0.650725 8.63721L2.51645 9.41563C3.53669 9.83927 5.1959 9.83927 6.21437 9.41563C7.23284 8.992 8.94146 8.98318 9.98111 9.41563C11.0208 9.84809 12.6588 9.83927 13.6773 9.41563C14.6957 8.992 16.4044 8.98318 17.4423 9.41563C18.4801 9.84809 20.1217 9.83927 21.149 9.41563C22.1763 8.992 23.8761 8.98318 24.914 9.41563C25.9519 9.84809 27.5917 9.83927 28.6101 9.41563C29.6286 8.992 31.3372 8.98318 32.3751 9.41563C33.413 9.84809 35.0528 9.83927 36.073 9.41563C37.0933 8.992 38.8001 8.98318 39.838 9.41563C40.8759 9.84809 42.5157 9.83927 43.5342 9.41563C44.5526 8.992 46.2613 8.98318 47.2991 9.41563C48.337 9.84809 49.9768 9.83927 51.0059 9.41563C52.0349 8.992 53.7312 8.98318 54.7691 9.41563L56.6348 10.1923L56.6101 10.2735Z" fill="#172B4D"/>
<path d="M56.6101 8.63675L54.7444 7.8601C53.7259 7.43471 52.0667 7.43471 51.0483 7.8601C50.0298 8.2855 48.3211 8.29256 47.2833 7.8601C46.2454 7.42765 44.6056 7.43471 43.5765 7.8601C42.5475 8.2855 40.8512 8.29256 39.8133 7.8601C38.7754 7.42765 37.1356 7.43471 36.1154 7.8601C35.0951 8.2855 33.3883 8.29256 32.3504 7.8601C31.3125 7.42765 29.6727 7.43471 28.6543 7.8601C27.6358 8.2855 25.9272 8.29256 24.8893 7.8601C23.8514 7.42765 22.2116 7.43471 21.1825 7.8601C20.1535 8.2855 18.4554 8.29256 17.4175 7.8601C16.3797 7.42765 14.7399 7.43471 13.7108 7.8601C12.6817 8.2855 10.9837 8.29256 9.94581 7.8601C8.90792 7.42765 7.26813 7.43471 6.24966 7.8601C5.23119 8.2855 3.5208 8.29256 2.48291 7.8601L0.617188 7.08344L0.650725 7.00049L2.51645 7.77891C3.53669 8.20254 5.1959 8.20254 6.21437 7.77891C7.23284 7.35527 8.94146 7.34645 9.98111 7.77891C11.0208 8.21136 12.6588 8.20254 13.6773 7.77891C14.6957 7.35527 16.4044 7.34645 17.4423 7.77891C18.4801 8.21136 20.1217 8.20254 21.149 7.77891C22.1763 7.35527 23.8761 7.34645 24.914 7.77891C25.9519 8.21136 27.5917 8.20254 28.6101 7.77891C29.6286 7.35527 31.3372 7.34645 32.3751 7.77891C33.413 8.21136 35.0528 8.20254 36.073 7.77891C37.0933 7.35527 38.8001 7.34645 39.838 7.77891C40.8759 8.21136 42.5157 8.20254 43.5342 7.77891C44.5526 7.35527 46.2613 7.34645 47.2991 7.77891C48.337 8.21136 49.9768 8.20254 51.0059 7.77891C52.0349 7.35527 53.7312 7.34645 54.7691 7.77891L56.6348 8.55557L56.6101 8.63675Z" fill="#172B4D"/>
<path d="M56.6101 7.00102L54.7444 6.22436C53.7259 5.79897 52.0667 5.79897 51.0483 6.22436C50.0298 6.64976 48.3211 6.65682 47.2833 6.22436C46.2454 5.79191 44.6056 5.79897 43.5765 6.22436C42.5475 6.64976 40.8512 6.65682 39.8133 6.22436C38.7754 5.79191 37.1356 5.79897 36.1154 6.22436C35.0951 6.64976 33.3883 6.65682 32.3504 6.22436C31.3125 5.79191 29.6727 5.79897 28.6543 6.22436C27.6358 6.64976 25.9272 6.65682 24.8893 6.22436C23.8514 5.79191 22.2116 5.79897 21.1825 6.22436C20.1535 6.64976 18.4554 6.65682 17.4175 6.22436C16.3797 5.79191 14.7399 5.79897 13.7108 6.22436C12.6817 6.64976 10.9855 6.65682 9.94581 6.22436C8.90616 5.79191 7.26813 5.79897 6.24966 6.22436C5.23119 6.64976 3.5208 6.65682 2.48291 6.22436L0.617188 5.4477L0.650725 5.36475L2.51645 6.14316C3.53669 6.56856 5.1959 6.56856 6.21437 6.14316C7.23284 5.71777 8.94146 5.71071 9.98111 6.14316C11.0208 6.57562 12.6588 6.56856 13.6773 6.14316C14.6957 5.71777 16.4044 5.71071 17.4423 6.14316C18.4801 6.57562 20.1217 6.56679 21.149 6.14316C22.1763 5.71953 23.8761 5.71071 24.914 6.14316C25.9519 6.57562 27.5917 6.56856 28.6101 6.14316C29.6286 5.71777 31.3372 5.71071 32.3751 6.14316C33.413 6.57562 35.0528 6.56856 36.073 6.14316C37.0933 5.71777 38.8001 5.71071 39.838 6.14316C40.8759 6.57562 42.5157 6.56856 43.5342 6.14316C44.5526 5.71777 46.2613 5.71071 47.2991 6.14316C48.337 6.57562 49.9768 6.56856 51.0059 6.14316C52.0349 5.71777 53.7312 5.71071 54.7691 6.14316L56.6348 6.91982L56.6101 7.00102Z" fill="#172B4D"/>
<path d="M56.6101 5.3643L54.7444 4.58588C53.7259 4.16048 52.0667 4.16048 51.0483 4.58588C50.0298 5.01127 48.3211 5.01833 47.2833 4.58588C46.2454 4.15342 44.6056 4.16048 43.5765 4.58588C42.5475 5.01127 40.8512 5.01833 39.8133 4.58588C38.7754 4.15342 37.1356 4.16225 36.1154 4.58588C35.0951 5.00951 33.3883 5.01833 32.3504 4.58588C31.3125 4.15342 29.6727 4.16048 28.6543 4.58588C27.6358 5.01127 25.9272 5.01833 24.8893 4.58588C23.8514 4.15342 22.2116 4.16225 21.1825 4.58588C20.1535 5.00951 18.4554 5.01833 17.4175 4.58588C16.3797 4.15342 14.7399 4.16225 13.7108 4.58588C12.6817 5.00951 10.9855 5.01833 9.94581 4.58588C8.90616 4.15342 7.26813 4.16048 6.24966 4.58588C5.23119 5.01127 3.5208 5.01833 2.48291 4.58588L0.617188 3.80923L0.650725 3.72803L2.51645 4.50469C3.53669 4.93008 5.1959 4.93008 6.21437 4.50469C7.23284 4.07929 8.94146 4.07223 9.98111 4.50469C11.0208 4.93714 12.6588 4.93008 13.6773 4.50469C14.6957 4.07929 16.4044 4.07223 17.4423 4.50469C18.4801 4.93714 20.1217 4.93008 21.149 4.50469C22.1763 4.07929 23.8761 4.07223 24.914 4.50469C25.9519 4.93714 27.5917 4.93008 28.6101 4.50469C29.6286 4.07929 31.3372 4.07223 32.3751 4.50469C33.413 4.93714 35.0528 4.93008 36.073 4.50469C37.0933 4.07929 38.8001 4.07223 39.838 4.50469C40.8759 4.93714 42.5157 4.93008 43.5342 4.50469C44.5526 4.07929 46.2613 4.07223 47.2991 4.50469C48.337 4.93714 49.9768 4.93008 51.0059 4.50469C52.0349 4.07929 53.7312 4.07223 54.7691 4.50469L56.6348 5.28134L56.6101 5.3643Z" fill="#172B4D"/>
<path d="M56.6101 3.72759L54.7444 2.94917C53.7259 2.52554 52.0667 2.52554 51.0483 2.94917C50.0298 3.3728 48.3211 3.38163 47.2833 2.94917C46.2454 2.51671 44.6056 2.52554 43.5765 2.94917C42.5475 3.3728 40.8512 3.38163 39.8133 2.94917C38.7754 2.51671 37.1356 2.52554 36.1154 2.94917C35.0951 3.3728 33.3883 3.38163 32.3504 2.94917C31.3125 2.51671 29.6727 2.52554 28.6543 2.94917C27.6358 3.3728 25.9272 3.38163 24.8893 2.94917C23.8514 2.51671 22.2116 2.52554 21.1825 2.94917C20.1535 3.3728 18.4554 3.38163 17.4175 2.94917C16.3797 2.51671 14.7399 2.52554 13.7108 2.94917C12.6817 3.3728 10.9855 3.38163 9.94581 2.94917C8.90616 2.51671 7.26813 2.52554 6.24966 2.94917C5.23119 3.3728 3.5208 3.38163 2.48291 2.94917L0.617188 2.17252L0.650725 2.09131L2.51645 2.86797C3.53669 3.29337 5.1959 3.29337 6.21437 2.86797C7.23284 2.44257 8.94146 2.43551 9.98111 2.86797C11.0208 3.30043 12.6588 3.29337 13.6773 2.86797C14.6957 2.44257 16.4044 2.43551 17.4423 2.86797C18.4801 3.30043 20.1217 3.29337 21.149 2.86797C22.1763 2.44257 23.8761 2.43551 24.914 2.86797C25.9519 3.30043 27.5917 3.29337 28.6101 2.86797C29.6286 2.44257 31.3372 2.43551 32.3751 2.86797C33.413 3.30043 35.0528 3.29337 36.073 2.86797C37.0933 2.44257 38.8001 2.43551 39.838 2.86797C40.8759 3.30043 42.5157 3.29337 43.5342 2.86797C44.5526 2.44257 46.2613 2.43551 47.2991 2.86797C48.337 3.30043 49.9768 3.29337 51.0059 2.86797C52.0349 2.44257 53.7312 2.43551 54.7691 2.86797L56.6348 3.64463L56.6101 3.72759Z" fill="#172B4D"/>
<path d="M56.6101 2.09184L54.7444 1.31344C53.7259 0.889807 52.0667 0.889807 51.0483 1.31344C50.0298 1.73707 48.3211 1.74589 47.2833 1.31344C46.2454 0.880981 44.6056 0.889807 43.5765 1.31344C42.5475 1.73707 40.8512 1.74589 39.8133 1.31344C38.7754 0.880981 37.1356 0.889807 36.1154 1.31344C35.0951 1.73707 33.3883 1.74589 32.3504 1.31344C31.3125 0.880981 29.6727 0.889807 28.6543 1.31344C27.6358 1.73707 25.9272 1.74589 24.8893 1.31344C23.8514 0.880981 22.2116 0.889807 21.1825 1.31344C20.1535 1.73707 18.4554 1.74589 17.4175 1.31344C16.3797 0.880981 14.7399 0.889807 13.7108 1.31344C12.6817 1.73707 10.9855 1.74589 9.94581 1.31344C8.90616 0.880981 7.26813 0.889807 6.24966 1.31344C5.23119 1.73707 3.5208 1.74589 2.48291 1.31344L0.617188 0.536777L0.650725 0.455566L2.51645 1.23223C3.53669 1.65762 5.1959 1.65762 6.21437 1.23223C7.23284 0.806831 8.94146 0.799771 9.98111 1.23223C11.0208 1.66468 12.6588 1.65762 13.6773 1.23223C14.6957 0.806831 16.4044 0.799771 17.4423 1.23223C18.4801 1.66468 20.1217 1.65762 21.149 1.23223C22.1763 0.806831 23.8761 0.799771 24.914 1.23223C25.9519 1.66468 27.5917 1.65762 28.6101 1.23223C29.6286 0.806831 31.3372 0.799771 32.3751 1.23223C33.413 1.66468 35.0528 1.65762 36.073 1.23223C37.0933 0.806831 38.8001 0.799771 39.838 1.23223C40.8759 1.66468 42.5157 1.65762 43.5342 1.23223C44.5526 0.806831 46.2613 0.799771 47.2991 1.23223C48.337 1.66468 49.9768 1.65762 51.0059 1.23223C52.0349 0.806831 53.7312 0.799771 54.7691 1.23223L56.6348 2.01065L56.6101 2.09184Z" fill="#172B4D"/>
<path d="M56.6101 0.455125L54.7444 -0.323303C53.7259 -0.746933 52.0667 -0.746933 51.0483 -0.323303C50.0298 0.100328 48.3211 0.109154 47.2833 -0.323303C46.2454 -0.755759 44.6056 -0.746933 43.5765 -0.323303C42.5475 0.100328 40.8512 0.110919 39.8133 -0.323303C38.7754 -0.757524 37.1356 -0.746933 36.1154 -0.323303C35.0951 0.100328 33.3883 0.110919 32.3504 -0.323303C31.3125 -0.757524 29.6727 -0.746933 28.6543 -0.323303C27.6358 0.100328 25.9272 0.109154 24.8893 -0.323303C23.8514 -0.755759 22.2116 -0.746933 21.1825 -0.323303C20.1535 0.100328 18.4554 0.110919 17.4175 -0.323303C16.3797 -0.757524 14.7399 -0.746933 13.7108 -0.323303C12.6817 0.100328 10.9837 0.110919 9.94581 -0.323303C8.90792 -0.757524 7.26813 -0.746933 6.24966 -0.323303C5.23119 0.100328 3.5208 0.109154 2.48291 -0.323303L0.617188 -1.09996L0.650725 -1.18115L2.51645 -0.404513C3.53669 0.0208826 5.1959 0.0208826 6.21437 -0.404513C7.23284 -0.829909 8.94146 -0.83697 9.98111 -0.404513C11.0208 0.0279431 12.6588 0.0208826 13.6773 -0.404513C14.6957 -0.829909 16.4044 -0.83697 17.4423 -0.404513C18.4801 0.0279431 20.1217 0.0208826 21.149 -0.404513C22.1763 -0.829909 23.8761 -0.83697 24.914 -0.404513C25.9519 0.0279431 27.5917 0.0208826 28.6101 -0.404513C29.6286 -0.829909 31.3372 -0.83697 32.3751 -0.404513C33.413 0.0279431 35.0528 0.0208826 36.073 -0.404513C37.0933 -0.829909 38.8001 -0.83697 39.838 -0.404513C40.8759 0.0279431 42.5157 0.0208826 43.5342 -0.404513C44.5526 -0.829909 46.2613 -0.83697 47.2991 -0.404513C48.337 0.0279431 49.9768 0.0208826 51.0059 -0.404513C52.0349 -0.829909 53.7312 -0.83697 54.7691 -0.404513L56.6348 0.373914L56.6101 0.455125Z" fill="#172B4D"/>
</g>
<defs>
<clipPath id="clip0_2589_150714">
<rect width="56" height="56" fill="white" transform="translate(0.640625 0.138184)"/>
</clipPath>
</defs>
</svg>
