<svg width="57" height="57" viewBox="0 0 57 57" fill="none" xmlns="http://www.w3.org/2000/svg">
<g clip-path="url(#clip0_2570_209331)">
<rect width="56" height="56" transform="translate(0.642578 0.138184)" fill="#F7F8F9"/>
<path d="M56.6426 1.93213H0.642578V2.02547H56.6426V1.93213Z" fill="#172B4D"/>
<path d="M56.6426 3.94482H0.642578V4.03817H56.6426V3.94482Z" fill="#172B4D"/>
<path d="M56.6426 5.95654H0.642578V6.04989H56.6426V5.95654Z" fill="#172B4D"/>
<path d="M56.6426 7.96924H0.642578V8.06258H56.6426V7.96924Z" fill="#172B4D"/>
<path d="M56.6426 9.98193H0.642578V10.0753H56.6426V9.98193Z" fill="#172B4D"/>
<path d="M56.6426 11.9937H0.642578V12.087H56.6426V11.9937Z" fill="#172B4D"/>
<path d="M56.6426 14.0063H0.642578V14.0997H56.6426V14.0063Z" fill="#172B4D"/>
<path d="M56.6426 16.019H0.642578V16.1124H56.6426V16.019Z" fill="#172B4D"/>
<path d="M56.6426 18.0308H0.642578V18.1241H56.6426V18.0308Z" fill="#172B4D"/>
<path d="M56.6426 20.0435H0.642578V20.1368H56.6426V20.0435Z" fill="#172B4D"/>
<path d="M56.6426 22.0552H0.642578V22.1485H56.6426V22.0552Z" fill="#172B4D"/>
<path d="M56.6426 24.0679H0.642578V24.1612H56.6426V24.0679Z" fill="#172B4D"/>
<path d="M56.6426 26.0806H0.642578V26.1739H56.6426V26.0806Z" fill="#172B4D"/>
<path d="M56.6426 28.0923H0.642578V28.1856H56.6426V28.0923Z" fill="#172B4D"/>
<path d="M56.6426 30.105H0.642578V30.1983H56.6426V30.105Z" fill="#172B4D"/>
<path d="M56.6426 32.1167H0.642578V32.21H56.6426V32.1167Z" fill="#172B4D"/>
<path d="M56.6426 34.1284H0.642578V34.2218H56.6426V34.1284Z" fill="#172B4D"/>
<path d="M56.6426 36.1411H0.642578V36.2345H56.6426V36.1411Z" fill="#172B4D"/>
<path d="M56.6426 38.1538H0.642578V38.2472H56.6426V38.1538Z" fill="#172B4D"/>
<path d="M56.6426 40.1655H0.642578V40.2589H56.6426V40.1655Z" fill="#172B4D"/>
<path d="M56.6426 42.1782H0.642578V42.2716H56.6426V42.1782Z" fill="#172B4D"/>
<path d="M56.6426 44.1899H0.642578V44.2833H56.6426V44.1899Z" fill="#172B4D"/>
<path d="M56.6426 46.2026H0.642578V46.296H56.6426V46.2026Z" fill="#172B4D"/>
<path d="M56.6426 48.2153H0.642578V48.3087H56.6426V48.2153Z" fill="#172B4D"/>
<path d="M56.6426 50.2271H0.642578V50.3204H56.6426V50.2271Z" fill="#172B4D"/>
<path d="M56.6426 52.2397H0.642578V52.3331H56.6426V52.2397Z" fill="#172B4D"/>
<path d="M56.6426 54.2515H0.642578V54.3448H56.6426V54.2515Z" fill="#172B4D"/>
<path d="M56.6426 0.92627H0.642578V1.01961H56.6426V0.92627Z" fill="#172B4D"/>
<path d="M56.6426 2.93896H0.642578V3.03231H56.6426V2.93896Z" fill="#172B4D"/>
<path d="M56.6426 4.95068H0.642578V5.04403H56.6426V4.95068Z" fill="#172B4D"/>
<path d="M56.6426 6.96338H0.642578V7.05672H56.6426V6.96338Z" fill="#172B4D"/>
<path d="M56.6426 8.97607H0.642578V9.06942H56.6426V8.97607Z" fill="#172B4D"/>
<path d="M56.6426 10.9878H0.642578V11.0811H56.6426V10.9878Z" fill="#172B4D"/>
<path d="M56.6426 12.9995H0.642578V13.0929H56.6426V12.9995Z" fill="#172B4D"/>
<path d="M56.6426 15.0132H0.642578V15.1065H56.6426V15.0132Z" fill="#172B4D"/>
<path d="M56.6426 17.0239H0.642578V17.1173H56.6426V17.0239Z" fill="#172B4D"/>
<path d="M56.6426 19.0366H0.642578V19.13H56.6426V19.0366Z" fill="#172B4D"/>
<path d="M56.6426 21.0493H0.642578V21.1427H56.6426V21.0493Z" fill="#172B4D"/>
<path d="M56.6426 23.061H0.642578V23.1544H56.6426V23.061Z" fill="#172B4D"/>
<path d="M56.6426 25.0737H0.642578V25.1671H56.6426V25.0737Z" fill="#172B4D"/>
<path d="M56.6426 27.0854H0.642578V27.1788H56.6426V27.0854Z" fill="#172B4D"/>
<path d="M56.6426 29.0981H0.642578V29.1915H56.6426V29.0981Z" fill="#172B4D"/>
<path d="M56.6426 31.1108H0.642578V31.2042H56.6426V31.1108Z" fill="#172B4D"/>
<path d="M56.6426 33.1226H0.642578V33.2159H56.6426V33.1226Z" fill="#172B4D"/>
<path d="M56.6426 35.1353H0.642578V35.2286H56.6426V35.1353Z" fill="#172B4D"/>
<path d="M56.6426 37.1479H0.642578V37.2413H56.6426V37.1479Z" fill="#172B4D"/>
<path d="M56.6426 39.1597H0.642578V39.253H56.6426V39.1597Z" fill="#172B4D"/>
<path d="M56.6426 41.1724H0.642578V41.2657H56.6426V41.1724Z" fill="#172B4D"/>
<path d="M56.6426 43.1851H0.642578V43.2784H56.6426V43.1851Z" fill="#172B4D"/>
<path d="M56.6426 45.1968H0.642578V45.2901H56.6426V45.1968Z" fill="#172B4D"/>
<path d="M56.6426 47.2085H0.642578V47.3018H56.6426V47.2085Z" fill="#172B4D"/>
<path d="M56.6426 49.2202H0.642578V49.3136H56.6426V49.2202Z" fill="#172B4D"/>
<path d="M56.6426 51.2329H0.642578V51.3263H56.6426V51.2329Z" fill="#172B4D"/>
<path d="M56.6426 53.2456H0.642578V53.339H56.6426V53.2456Z" fill="#172B4D"/>
<path d="M56.6426 55.2573H0.642578V55.3507H56.6426V55.2573Z" fill="#172B4D"/>
<path d="M1.63734 0.00546122L1.53711 56.0054L1.63045 56.0055L1.73068 0.00562829L1.63734 0.00546122Z" fill="#172B4D"/>
<path d="M3.87367 0.00936747L3.77344 56.0093L3.86678 56.0094L3.96701 0.00953454L3.87367 0.00936747Z" fill="#172B4D"/>
<path d="M6.10804 0.0122972L6.00781 56.0122L6.10116 56.0124L6.20139 0.0124642L6.10804 0.0122972Z" fill="#172B4D"/>
<path d="M8.34242 0.0152268L8.24219 56.0151L8.33553 56.0153L8.43576 0.0153939L8.34242 0.0152268Z" fill="#172B4D"/>
<path d="M10.5787 0.0191331L10.4785 56.019L10.5719 56.0192L10.6721 0.0193002L10.5787 0.0191331Z" fill="#172B4D"/>
<path d="M12.8151 0.0220628L12.7148 56.022L12.8082 56.0221L12.9084 0.0222298L12.8151 0.0220628Z" fill="#172B4D"/>
<path d="M15.0494 0.025969L14.9492 56.0259L15.0426 56.026L15.1428 0.0261361L15.0494 0.025969Z" fill="#172B4D"/>
<path d="M17.2838 0.0288987L17.1836 56.0288L17.2769 56.029L17.3772 0.0290658L17.2838 0.0288987Z" fill="#172B4D"/>
<path d="M19.5182 0.032805L19.418 56.0327L19.5113 56.0329L19.6115 0.032972L19.5182 0.032805Z" fill="#172B4D"/>
<path d="M21.7545 0.0357347L21.6543 56.0356L21.7476 56.0358L21.8479 0.0359017L21.7545 0.0357347Z" fill="#172B4D"/>
<path d="M23.9889 0.0396409L23.8887 56.0396L23.982 56.0397L24.0822 0.039808L23.9889 0.0396409Z" fill="#172B4D"/>
<path d="M26.2252 0.0425706L26.125 56.0425L26.2183 56.0426L26.3186 0.0427377L26.2252 0.0425706Z" fill="#172B4D"/>
<path d="M28.4596 0.0464768L28.3594 56.0464L28.4527 56.0466L28.5529 0.0466439L28.4596 0.0464768Z" fill="#172B4D"/>
<path d="M30.6959 0.04843L30.5957 56.0483L30.689 56.0485L30.7893 0.048597L30.6959 0.04843Z" fill="#172B4D"/>
<path d="M32.9303 0.0523362L32.8301 56.0522L32.9234 56.0524L33.0237 0.0525033L32.9303 0.0523362Z" fill="#172B4D"/>
<path d="M35.1647 0.0552659L35.0645 56.0552L35.1578 56.0553L35.258 0.055433L35.1647 0.0552659Z" fill="#172B4D"/>
<path d="M37.3991 0.0591722L37.2988 56.0591L37.3922 56.0592L37.4924 0.0593392L37.3991 0.0591722Z" fill="#172B4D"/>
<path d="M39.6354 0.0621018L39.5352 56.062L39.6285 56.0622L39.7287 0.0622689L39.6354 0.0621018Z" fill="#172B4D"/>
<path d="M41.8698 0.0660081L41.7695 56.0659L41.8629 56.0661L41.9631 0.0661752L41.8698 0.0660081Z" fill="#172B4D"/>
<path d="M44.1061 0.0689378L44.0059 56.0688L44.0992 56.069L44.1994 0.0691048L44.1061 0.0689378Z" fill="#172B4D"/>
<path d="M46.3405 0.072844L46.2402 56.0728L46.3336 56.0729L46.4338 0.0730111L46.3405 0.072844Z" fill="#172B4D"/>
<path d="M48.5768 0.0757737L48.4766 56.0757L48.5699 56.0759L48.6701 0.0759408L48.5768 0.0757737Z" fill="#172B4D"/>
<path d="M50.8112 0.07968L50.7109 56.0796L50.8043 56.0798L50.9045 0.079847L50.8112 0.07968Z" fill="#172B4D"/>
<path d="M53.0475 0.0826097L52.9473 56.0825L53.0406 56.0827L53.1408 0.0827767L53.0475 0.0826097Z" fill="#172B4D"/>
<path d="M55.2799 0.0865159L55.1797 56.0864L55.273 56.0866L55.3733 0.086683L55.2799 0.0865159Z" fill="#172B4D"/>
<path d="M2.75453 0.00741434L2.6543 56.0073L2.74764 56.0075L2.84787 0.00758141L2.75453 0.00741434Z" fill="#172B4D"/>
<path d="M4.99085 0.0113206L4.89062 56.0112L4.98397 56.0114L5.0842 0.0114877L4.99085 0.0113206Z" fill="#172B4D"/>
<path d="M7.22523 0.0132737L7.125 56.0132L7.21834 56.0134L7.31857 0.0134408L7.22523 0.0132737Z" fill="#172B4D"/>
<path d="M9.46156 0.01718L9.36133 56.0171L9.45467 56.0173L9.5549 0.017347L9.46156 0.01718Z" fill="#172B4D"/>
<path d="M11.6959 0.0201097L11.5957 56.02L11.689 56.0202L11.7893 0.0202767L11.6959 0.0201097Z" fill="#172B4D"/>
<path d="M13.9323 0.0240159L13.832 56.0239L13.9254 56.0241L14.0256 0.024183L13.9323 0.0240159Z" fill="#172B4D"/>
<path d="M16.1647 0.0269456L16.0645 56.0269L16.1578 56.027L16.258 0.0271127L16.1647 0.0269456Z" fill="#172B4D"/>
<path d="M18.401 0.0308518L18.3008 56.0308L18.3941 56.0309L18.4944 0.0310189L18.401 0.0308518Z" fill="#172B4D"/>
<path d="M20.6354 0.0337815L20.5352 56.0337L20.6285 56.0339L20.7287 0.0339486L20.6354 0.0337815Z" fill="#172B4D"/>
<path d="M22.8717 0.0376878L22.7715 56.0376L22.8648 56.0378L22.9651 0.0378548L22.8717 0.0376878Z" fill="#172B4D"/>
<path d="M25.1061 0.0406175L25.0059 56.0405L25.0992 56.0407L25.1994 0.0407845L25.1061 0.0406175Z" fill="#172B4D"/>
<path d="M27.3424 0.0445237L27.2422 56.0444L27.3355 56.0446L27.4358 0.0446908L27.3424 0.0445237Z" fill="#172B4D"/>
<path d="M29.5768 0.0474534L29.4766 56.0474L29.5699 56.0475L29.6701 0.0476205L29.5768 0.0474534Z" fill="#172B4D"/>
<path d="M31.8131 0.0503831L31.7129 56.0503L31.8062 56.0505L31.9065 0.0505502L31.8131 0.0503831Z" fill="#172B4D"/>
<path d="M34.0475 0.0542893L33.9473 56.0542L34.0406 56.0544L34.1408 0.0544564L34.0475 0.0542893Z" fill="#172B4D"/>
<path d="M36.2819 0.057219L36.1816 56.0571L36.275 56.0573L36.3752 0.0573861L36.2819 0.057219Z" fill="#172B4D"/>
<path d="M38.5162 0.0601487L38.416 56.0601L38.5094 56.0602L38.6096 0.0603158L38.5162 0.0601487Z" fill="#172B4D"/>
<path d="M40.7526 0.064055L40.6523 56.064L40.7457 56.0641L40.8459 0.064222L40.7526 0.064055Z" fill="#172B4D"/>
<path d="M42.9889 0.0679612L42.8887 56.0679L42.982 56.068L43.0822 0.0681283L42.9889 0.0679612Z" fill="#172B4D"/>
<path d="M45.2233 0.0708909L45.123 56.0708L45.2164 56.071L45.3166 0.071058L45.2233 0.0708909Z" fill="#172B4D"/>
<path d="M47.4596 0.0747972L47.3594 56.0747L47.4527 56.0749L47.5529 0.0749642L47.4596 0.0747972Z" fill="#172B4D"/>
<path d="M49.694 0.0777268L49.5938 56.0776L49.6871 56.0778L49.7873 0.0778939L49.694 0.0777268Z" fill="#172B4D"/>
<path d="M51.9284 0.0806565L51.8281 56.0806L51.9215 56.0807L52.0217 0.0808236L51.9284 0.0806565Z" fill="#172B4D"/>
<path d="M54.1627 0.0845628L54.0625 56.0845L54.1558 56.0846L54.2561 0.0847298L54.1627 0.0845628Z" fill="#172B4D"/>
</g>
<defs>
<clipPath id="clip0_2570_209331">
<rect width="56" height="56" fill="white" transform="translate(0.642578 0.138184)"/>
</clipPath>
</defs>
</svg>
