<svg width="20" height="19" viewBox="0 0 20 19" fill="none" xmlns="http://www.w3.org/2000/svg">
<path d="M8.687 14.792C8.5956 14.6997 8.48681 14.6264 8.36691 14.5764C8.24702 14.5264 8.1184 14.5007 7.9885 14.5007C7.8586 14.5007 7.72998 14.5264 7.61009 14.5764C7.49019 14.6264 7.3814 14.6997 7.29 14.792C7.10466 14.9792 7.0007 15.232 7.0007 15.4955C7.0007 15.759 7.10466 16.0118 7.29 16.199L9.254 18.179C9.35461 18.2807 9.47438 18.3613 9.60638 18.4164C9.73837 18.4715 9.87998 18.4998 10.023 18.4998C10.166 18.4998 10.3076 18.4715 10.4396 18.4164C10.5716 18.3613 10.6914 18.2807 10.792 18.179L12.711 16.246C12.8966 16.0587 13.0008 15.8057 13.0008 15.542C13.0008 15.2783 12.8966 15.0253 12.711 14.838C12.6196 14.7455 12.5107 14.6721 12.3907 14.622C12.2708 14.5719 12.142 14.5462 12.012 14.5462C11.882 14.5462 11.7532 14.5719 11.6333 14.622C11.5133 14.6721 11.4044 14.7455 11.313 14.838L10.023 16.138L8.687 14.792Z" fill="#001141"/>
<path d="M11.001 17.493L11 7.506C11 6.951 10.552 6.5 10 6.5C9.448 6.5 9 6.95 9 7.507L9.001 17.494C9.001 18.049 9.449 18.5 10.001 18.5C10.553 18.5 11.001 18.05 11.001 17.493Z" fill="#001141"/>
<path fill-rule="evenodd" clip-rule="evenodd" d="M5.938 2.98C5.68111 2.9383 5.42125 2.91757 5.161 2.918C2.356 2.918 0 5.12 0 7.998C0 10.909 2.385 13.5 5.1 13.5H7.981V11.507H5.1C3.443 11.507 1.985 9.844 1.985 7.999C1.985 6.221 3.454 4.912 5.089 4.912H5.101C5.49 4.912 5.787 4.962 6.071 5.062L6.241 5.125C6.846 5.373 7.116 4.879 7.116 4.879L7.266 4.612C7.996 3.265 9.467 2.516 10.982 2.492C11.9871 2.50203 12.9543 2.87742 13.703 3.54812C14.4517 4.21882 14.9309 5.13901 15.051 6.137L15.097 6.477C15.097 6.477 15.168 7.002 15.762 7.002C15.775 7.002 15.774 7.007 15.785 7.007H16.039C17.175 7.007 18.015 7.966 18.015 9.165C18.015 10.372 17.028 11.507 15.945 11.507H11.981V13.5H15.945C18.105 13.5 20 11.455 20 9.165C20 7.165 18.688 5.502 16.862 5.091C16.155 2.384 13.809 0.539 10.976 0.5C9.001 0.52 7.075 1.4 5.938 2.98Z" fill="#001141"/>
</svg>
