<svg width="25" height="24" viewBox="0 0 25 24" fill="none" xmlns="http://www.w3.org/2000/svg">
<path d="M8.81 15.06C9.32 14.67 9.89 14.3625 10.52 14.1375C11.15 13.9125 11.81 13.8 12.5 13.8C13.19 13.8 13.85 13.9125 14.48 14.1375C15.11 14.3625 15.68 14.67 16.19 15.06C16.54 14.65 16.8125 14.185 17.0075 13.665C17.2025 13.145 17.3 12.59 17.3 12C17.3 10.67 16.8325 9.5375 15.8975 8.6025C14.9625 7.6675 13.83 7.2 12.5 7.2C11.17 7.2 10.0375 7.6675 9.1025 8.6025C8.1675 9.5375 7.7 10.67 7.7 12C7.7 12.59 7.7975 13.145 7.9925 13.665C8.1875 14.185 8.46 14.65 8.81 15.06ZM12.5 12.6C11.91 12.6 11.4125 12.3975 11.0075 11.9925C10.6025 11.5875 10.4 11.09 10.4 10.5C10.4 9.91 10.6025 9.4125 11.0075 9.0075C11.4125 8.6025 11.91 8.4 12.5 8.4C13.09 8.4 13.5875 8.6025 13.9925 9.0075C14.3975 9.4125 14.6 9.91 14.6 10.5C14.6 11.09 14.3975 11.5875 13.9925 11.9925C13.5875 12.3975 13.09 12.6 12.5 12.6ZM12.5 18C11.67 18 10.89 17.8425 10.16 17.5275C9.43 17.2125 8.795 16.785 8.255 16.245C7.715 15.705 7.2875 15.07 6.9725 14.34C6.6575 13.61 6.5 12.83 6.5 12C6.5 11.17 6.6575 10.39 6.9725 9.66C7.2875 8.93 7.715 8.295 8.255 7.755C8.795 7.215 9.43 6.7875 10.16 6.4725C10.89 6.1575 11.67 6 12.5 6C13.33 6 14.11 6.1575 14.84 6.4725C15.57 6.7875 16.205 7.215 16.745 7.755C17.285 8.295 17.7125 8.93 18.0275 9.66C18.3425 10.39 18.5 11.17 18.5 12C18.5 12.83 18.3425 13.61 18.0275 14.34C17.7125 15.07 17.285 15.705 16.745 16.245C16.205 16.785 15.57 17.2125 14.84 17.5275C14.11 17.8425 13.33 18 12.5 18ZM12.5 16.8C13.03 16.8 13.53 16.7225 14 16.5675C14.47 16.4125 14.9 16.19 15.29 15.9C14.9 15.61 14.47 15.3875 14 15.2325C13.53 15.0775 13.03 15 12.5 15C11.97 15 11.47 15.0775 11 15.2325C10.53 15.3875 10.1 15.61 9.71 15.9C10.1 16.19 10.53 16.4125 11 16.5675C11.47 16.7225 11.97 16.8 12.5 16.8ZM12.5 11.4C12.76 11.4 12.975 11.315 13.145 11.145C13.315 10.975 13.4 10.76 13.4 10.5C13.4 10.24 13.315 10.025 13.145 9.855C12.975 9.685 12.76 9.6 12.5 9.6C12.24 9.6 12.025 9.685 11.855 9.855C11.685 10.025 11.6 10.24 11.6 10.5C11.6 10.76 11.685 10.975 11.855 11.145C12.025 11.315 12.24 11.4 12.5 11.4Z" fill="#001141"/>
</svg>
