<svg width="25" height="24" viewBox="0 0 25 24" fill="none" xmlns="http://www.w3.org/2000/svg">
<path d="M6.29778 14.5861C6.09037 14.4306 5.98991 14.2264 5.99639 13.9736C6.00287 13.7208 6.10981 13.5167 6.31722 13.3611C6.45981 13.2574 6.61537 13.2056 6.78389 13.2056C6.95241 13.2056 7.10796 13.2574 7.25056 13.3611L12.5006 17.425L17.7506 13.3611C17.8931 13.2574 18.0487 13.2056 18.2172 13.2056C18.3857 13.2056 18.5413 13.2574 18.6839 13.3611C18.8913 13.5167 18.9982 13.7208 19.0047 13.9736C19.0112 14.2264 18.9107 14.4306 18.7033 14.5861L13.4533 18.6694C13.1681 18.8898 12.8506 19 12.5006 19C12.1506 19 11.833 18.8898 11.5478 18.6694L6.29778 14.5861ZM11.5478 14.7417L7.07556 11.2611C6.6737 10.95 6.47278 10.5417 6.47278 10.0361C6.47278 9.53056 6.6737 9.12222 7.07556 8.81111L11.5478 5.33056C11.833 5.11019 12.1506 5 12.5006 5C12.8506 5 13.1681 5.11019 13.4533 5.33056L17.9256 8.81111C18.3274 9.12222 18.5283 9.53056 18.5283 10.0361C18.5283 10.5417 18.3274 10.95 17.9256 11.2611L13.4533 14.7417C13.1681 14.962 12.8506 15.0722 12.5006 15.0722C12.1506 15.0722 11.833 14.962 11.5478 14.7417ZM12.5006 13.4972L16.9728 10.0361L12.5006 6.575L8.02833 10.0361L12.5006 13.4972Z" fill="#001141"/>
</svg>
