<svg width="25" height="24" viewBox="0 0 25 24" fill="none" xmlns="http://www.w3.org/2000/svg">
<path d="M12.5 14.8639C13.2955 14.8639 13.9716 14.5855 14.5284 14.0287C15.0852 13.4719 15.3636 12.7957 15.3636 12.0003C15.3636 11.2048 15.0852 10.5287 14.5284 9.97186C13.9716 9.41504 13.2955 9.13663 12.5 9.13663C11.7045 9.13663 11.0284 9.41504 10.4716 9.97186C9.91477 10.5287 9.63636 11.2048 9.63636 12.0003C9.63636 12.7957 9.91477 13.4719 10.4716 14.0287C11.0284 14.5855 11.7045 14.8639 12.5 14.8639ZM12.5 13.7184C12.0227 13.7184 11.617 13.5514 11.283 13.2173C10.9489 12.8832 10.7818 12.4775 10.7818 12.0003C10.7818 11.523 10.9489 11.1173 11.283 10.7832C11.617 10.4491 12.0227 10.2821 12.5 10.2821C12.9773 10.2821 13.383 10.4491 13.717 10.7832C14.0511 11.1173 14.2182 11.523 14.2182 12.0003C14.2182 12.4775 14.0511 12.8832 13.717 13.2173C13.383 13.5514 12.9773 13.7184 12.5 13.7184ZM12.5 16.773C10.9515 16.773 9.54091 16.3408 8.26818 15.4764C6.99545 14.612 6.07273 13.4533 5.5 12.0003C6.07273 10.5472 6.99545 9.38852 8.26818 8.52413C9.54091 7.65974 10.9515 7.22754 12.5 7.22754C14.0485 7.22754 15.4591 7.65974 16.7318 8.52413C18.0045 9.38852 18.9273 10.5472 19.5 12.0003C18.9273 13.4533 18.0045 14.612 16.7318 15.4764C15.4591 16.3408 14.0485 16.773 12.5 16.773ZM12.5 15.5003C13.6985 15.5003 14.7989 15.1847 15.8011 14.5537C16.8034 13.9226 17.5697 13.0715 18.1 12.0003C17.5697 10.9291 16.8034 10.0779 15.8011 9.44686C14.7989 8.8158 13.6985 8.50027 12.5 8.50027C11.3015 8.50027 10.2011 8.8158 9.19886 9.44686C8.19659 10.0779 7.4303 10.9291 6.9 12.0003C7.4303 13.0715 8.19659 13.9226 9.19886 14.5537C10.2011 15.1847 11.3015 15.5003 12.5 15.5003Z" fill="#001141"/>
</svg>
