<svg width="19" height="18" viewBox="0 0 19 18" fill="none" xmlns="http://www.w3.org/2000/svg">
<path d="M2.5 18C1.95 18 1.47917 17.8042 1.0875 17.4125C0.695833 17.0208 0.5 16.55 0.5 16V2C0.5 1.45 0.695833 0.979167 1.0875 0.5875C1.47917 0.195833 1.95 0 2.5 0H9.5C9.78333 0 10.0208 0.0958333 10.2125 0.2875C10.4042 0.479167 10.5 0.716667 10.5 1C10.5 1.28333 10.4042 1.52083 10.2125 1.7125C10.0208 1.90417 9.78333 2 9.5 2H2.5V16H16.5V9C16.5 8.71667 16.5958 8.47917 16.7875 8.2875C16.9792 8.09583 17.2167 8 17.5 8C17.7833 8 18.0208 8.09583 18.2125 8.2875C18.4042 8.47917 18.5 8.71667 18.5 9V16C18.5 16.55 18.3042 17.0208 17.9125 17.4125C17.5208 17.8042 17.05 18 16.5 18H2.5ZM3.5 14H15.5L11.75 9L8.75 13L6.5 10L3.5 14ZM14.5 4H13.5C13.2167 4 12.9792 3.90417 12.7875 3.7125C12.5958 3.52083 12.5 3.28333 12.5 3C12.5 2.71667 12.5958 2.47917 12.7875 2.2875C12.9792 2.09583 13.2167 2 13.5 2H14.5V1C14.5 0.716667 14.5958 0.479167 14.7875 0.2875C14.9792 0.0958333 15.2167 0 15.5 0C15.7833 0 16.0208 0.0958333 16.2125 0.2875C16.4042 0.479167 16.5 0.716667 16.5 1V2H17.5C17.7833 2 18.0208 2.09583 18.2125 2.2875C18.4042 2.47917 18.5 2.71667 18.5 3C18.5 3.28333 18.4042 3.52083 18.2125 3.7125C18.0208 3.90417 17.7833 4 17.5 4H16.5V5C16.5 5.28333 16.4042 5.52083 16.2125 5.7125C16.0208 5.90417 15.7833 6 15.5 6C15.2167 6 14.9792 5.90417 14.7875 5.7125C14.5958 5.52083 14.5 5.28333 14.5 5V4Z" fill="#001141"/>
</svg>
