<svg width="25" height="24" viewBox="0 0 25 24" fill="none" xmlns="http://www.w3.org/2000/svg">
<path fill-rule="evenodd" clip-rule="evenodd" d="M11.5 15L10.5 14L8.5 16H16.5V14.2L14.5 12L11.5 15ZM6.5 6.5C6.5 6.224 6.729 6 7 6H18C18.276 6 18.5 6.229 18.5 6.5V17.5C18.5 17.776 18.271 18 18 18H7C6.86772 17.999 6.74115 17.9459 6.6476 17.8524C6.55406 17.7589 6.50105 17.6323 6.5 17.5V6.5ZM10 11C10.3978 11 10.7794 10.842 11.0607 10.5607C11.342 10.2794 11.5 9.89782 11.5 9.5C11.5 9.10218 11.342 8.72064 11.0607 8.43934C10.7794 8.15804 10.3978 8 10 8C9.60218 8 9.22064 8.15804 8.93934 8.43934C8.65804 8.72064 8.5 9.10218 8.5 9.5C8.5 9.89782 8.65804 10.2794 8.93934 10.5607C9.22064 10.842 9.60218 11 10 11Z" fill="#001141"/>
</svg>
