<svg width="25" height="24" viewBox="0 0 25 24" fill="none" xmlns="http://www.w3.org/2000/svg">
<path d="M14.6515 12.0648L13.7727 11.186C13.8636 10.7113 13.7273 10.2668 13.3636 9.85269C13 9.43855 12.5303 9.27693 11.9545 9.36784L11.0758 8.48905C11.2475 8.40824 11.4217 8.34764 11.5985 8.30723C11.7753 8.26683 11.9646 8.24663 12.1667 8.24663C12.9242 8.24663 13.5682 8.51178 14.0985 9.04208C14.6288 9.57238 14.8939 10.2163 14.8939 10.9739C14.8939 11.1759 14.8737 11.3653 14.8333 11.5421C14.7929 11.7188 14.7323 11.8931 14.6515 12.0648ZM16.5909 13.9739L15.7121 13.1254C16.096 12.8325 16.4369 12.5118 16.7348 12.1633C17.0328 11.8148 17.2879 11.4183 17.5 10.9739C16.9949 9.9537 16.2702 9.14309 15.3258 8.54208C14.3813 7.94107 13.3283 7.64057 12.1667 7.64057C11.8737 7.64057 11.5859 7.66077 11.303 7.70117C11.0202 7.74158 10.7424 7.80218 10.4697 7.88299L9.5303 6.9436C9.94444 6.77188 10.3687 6.64309 10.803 6.55723C11.2374 6.47137 11.6919 6.42844 12.1667 6.42844C13.6919 6.42844 15.0505 6.85016 16.2424 7.6936C17.4343 8.53703 18.298 9.63047 18.8333 10.9739C18.601 11.5699 18.2955 12.1229 17.9167 12.633C17.5379 13.1431 17.096 13.5901 16.5909 13.9739ZM16.8939 17.7012L14.3485 15.186C13.9949 15.2971 13.6389 15.3805 13.2803 15.436C12.9217 15.4916 12.5505 15.5194 12.1667 15.5194C10.6414 15.5194 9.28283 15.0976 8.09091 14.2542C6.89899 13.4108 6.03535 12.3173 5.5 10.9739C5.71212 10.4385 5.9798 9.94107 6.30303 9.48148C6.62626 9.02188 6.99495 8.61026 7.40909 8.24663L5.74242 6.54966L6.59091 5.70117L17.7424 16.8527L16.8939 17.7012ZM8.25758 9.09511C7.96465 9.35774 7.69697 9.64562 7.45455 9.95875C7.21212 10.2719 7.00505 10.6103 6.83333 10.9739C7.33838 11.9941 8.06313 12.8047 9.00758 13.4057C9.95202 14.0067 11.0051 14.3072 12.1667 14.3072C12.3687 14.3072 12.5657 14.2946 12.7576 14.2694C12.9495 14.2441 13.1465 14.2163 13.3485 14.186L12.803 13.6103C12.6919 13.6406 12.5859 13.6633 12.4848 13.6784C12.3838 13.6936 12.2778 13.7012 12.1667 13.7012C11.4091 13.7012 10.7652 13.436 10.2348 12.9057C9.70455 12.3754 9.43939 11.7315 9.43939 10.9739C9.43939 10.8628 9.44697 10.7567 9.46212 10.6557C9.47727 10.5547 9.5 10.4486 9.5303 10.3375L8.25758 9.09511Z" fill="#001141"/>
</svg>
