<svg width="25" height="24" viewBox="0 0 25 24" fill="none" xmlns="http://www.w3.org/2000/svg">
<path d="M10.334 18.2222H16.734V8.44444H10.334V18.2222ZM8.73398 8.43733C8.73398 7.45955 9.45558 6.66666 10.3412 6.66666H16.7268C17.6148 6.66666 18.334 7.46044 18.334 8.43733V18.2293C18.334 19.2071 17.6124 20 16.7268 20H10.342C10.1318 20.001 9.92342 19.9561 9.72883 19.8677C9.53425 19.7792 9.35725 19.6491 9.20793 19.4847C9.05862 19.3203 8.93991 19.1248 8.85859 18.9094C8.77727 18.694 8.73493 18.4629 8.73398 18.2293V8.43733Z" fill="#001141"/>
<path d="M6.33398 15.5555V5.77066C6.33398 4.79289 7.05558 4 7.94118 4H14.334V15.5555H6.33398ZM7.93398 15.5555H14.334V5.77778H7.93398V15.5555Z" fill="#001141"/>
</svg>
