<svg width="15" height="18" viewBox="0 0 15 18" fill="none" xmlns="http://www.w3.org/2000/svg">
<path d="M5.5 6C6.05228 6 6.5 5.55228 6.5 5C6.5 4.44772 6.05228 4 5.5 4C4.94772 4 4.5 4.44772 4.5 5C4.5 5.55228 4.94772 6 5.5 6Z" fill="#001141"/>
<path d="M9.5 6C10.0523 6 10.5 5.55228 10.5 5C10.5 4.44772 10.0523 4 9.5 4C8.94772 4 8.5 4.44772 8.5 5C8.5 5.55228 8.94772 6 9.5 6Z" fill="#001141"/>
<path d="M5.5 14C6.05228 14 6.5 13.5523 6.5 13C6.5 12.4477 6.05228 12 5.5 12C4.94772 12 4.5 12.4477 4.5 13C4.5 13.5523 4.94772 14 5.5 14Z" fill="#001141"/>
<path d="M9.5 14C10.0523 14 10.5 13.5523 10.5 13C10.5 12.4477 10.0523 12 9.5 12C8.94772 12 8.5 12.4477 8.5 13C8.5 13.5523 8.94772 14 9.5 14Z" fill="#001141"/>
<path d="M5.5 10C6.05228 10 6.5 9.55228 6.5 9C6.5 8.44772 6.05228 8 5.5 8C4.94772 8 4.5 8.44772 4.5 9C4.5 9.55228 4.94772 10 5.5 10Z" fill="#001141"/>
<path d="M9.5 10C10.0523 10 10.5 9.55228 10.5 9C10.5 8.44772 10.0523 8 9.5 8C8.94772 8 8.5 8.44772 8.5 9C8.5 9.55228 8.94772 10 9.5 10Z" fill="#001141"/>
</svg>
