<svg width="25" height="24" viewBox="0 0 25 24" fill="none" xmlns="http://www.w3.org/2000/svg">
<path fill-rule="evenodd" clip-rule="evenodd" d="M7.5 7H17.5C17.7652 7 18.0196 7.10536 18.2071 7.29289C18.3946 7.48043 18.5 7.73478 18.5 8C18.5 8.26522 18.3946 8.51957 18.2071 8.70711C18.0196 8.89464 17.7652 9 17.5 9H7.5C7.23478 9 6.98043 8.89464 6.79289 8.70711C6.60536 8.51957 6.5 8.26522 6.5 8C6.5 7.73478 6.60536 7.48043 6.79289 7.29289C6.98043 7.10536 7.23478 7 7.5 7ZM10.28 18C10.0571 18 9.84054 17.9255 9.66479 17.7883C9.48905 17.6512 9.36417 17.4592 9.31 17.243L7.656 10.62C7.63782 10.5465 7.63659 10.4697 7.65239 10.3957C7.6682 10.3216 7.70064 10.252 7.74726 10.1923C7.79387 10.1326 7.85345 10.0843 7.92149 10.0509C7.98953 10.0176 8.06424 10.0002 8.14 10H16.86C16.9359 10 17.0109 10.0173 17.0791 10.0507C17.1474 10.084 17.2072 10.1324 17.2539 10.1922C17.3007 10.2521 17.3332 10.3218 17.3489 10.3961C17.3647 10.4704 17.3634 10.5473 17.345 10.621L15.689 17.243C15.6348 17.4592 15.51 17.6512 15.3342 17.7883C15.1585 17.9255 14.9419 18 14.719 18H10.281H10.28ZM11.5 6H13.5C13.7652 6 14.0196 6.10536 14.2071 6.29289C14.3946 6.48043 14.5 6.73478 14.5 7H10.5C10.5 6.73478 10.6054 6.48043 10.7929 6.29289C10.9804 6.10536 11.2348 6 11.5 6Z" fill="#001141"/>
</svg>
