<svg width="24" height="24" viewBox="0 0 24 24" fill="none" xmlns="http://www.w3.org/2000/svg">
<path d="M8.92572 13.7101C8.79661 13.3398 9.00583 12.9393 9.39394 12.8156C9.78283 12.692 10.202 12.8918 10.3312 13.2628C10.3778 13.3982 10.5062 13.6416 10.7162 13.882C11.0475 14.2615 11.4589 14.4762 11.9987 14.4762C12.5377 14.4762 12.9499 14.2615 13.282 13.882C13.492 13.6408 13.6188 13.3982 13.6663 13.2628C13.7954 12.8926 14.2154 12.692 14.6027 12.8156C14.9916 12.9393 15.2016 13.3391 15.0717 13.7101C14.9706 13.9986 14.7645 14.3914 14.4192 14.7873C13.8249 15.4686 13.0145 15.8902 11.9987 15.8902C10.9829 15.8902 10.1725 15.4686 9.57827 14.7873C9.29572 14.4719 9.07442 14.1066 8.92572 13.7101ZM10.0543 11.2235C9.74485 11.2235 9.44811 11.1006 9.22931 10.8818C9.01052 10.663 8.88761 10.3663 8.88761 10.0568C8.88761 9.74743 9.01052 9.45068 9.22931 9.23189C9.44811 9.0131 9.74485 8.89018 10.0543 8.89018C10.3637 8.89018 10.6604 9.0131 10.8792 9.23189C11.098 9.45068 11.2209 9.74743 11.2209 10.0568C11.2209 10.3663 11.098 10.663 10.8792 10.8818C10.6604 11.1006 10.3637 11.2235 10.0543 11.2235ZM13.9432 11.2235C13.6337 11.2235 13.337 11.1006 13.1182 10.8818C12.8994 10.663 12.7765 10.3663 12.7765 10.0568C12.7765 9.74743 12.8994 9.45068 13.1182 9.23189C13.337 9.0131 13.6337 8.89018 13.9432 8.89018C14.2526 8.89018 14.5493 9.0131 14.7681 9.23189C14.9869 9.45068 15.1098 9.74743 15.1098 10.0568C15.1098 10.3663 14.9869 10.663 14.7681 10.8818C14.5493 11.1006 14.2526 11.2235 13.9432 11.2235ZM17.4432 6.55685H18.2209C18.4272 6.55685 18.625 6.63879 18.7709 6.78465C18.9168 6.93052 18.9987 7.12835 18.9987 7.33463C18.9987 7.5409 18.9168 7.73873 18.7709 7.8846C18.625 8.03046 18.4272 8.1124 18.2209 8.1124H17.4432V8.89018C17.4432 9.09646 17.3612 9.29429 17.2153 9.44015C17.0695 9.58601 16.8717 9.66796 16.6654 9.66796C16.4591 9.66796 16.2613 9.58601 16.1154 9.44015C15.9695 9.29429 15.8876 9.09646 15.8876 8.89018V8.1124H15.1098C14.9035 8.1124 14.7057 8.03046 14.5599 7.8846C14.414 7.73873 14.332 7.5409 14.332 7.33463C14.332 7.12835 14.414 6.93052 14.5599 6.78465C14.7057 6.63879 14.9035 6.55685 15.1098 6.55685H15.8876V5.77907C15.8876 5.57279 15.9695 5.37496 16.1154 5.2291C16.2613 5.08324 16.4591 5.00129 16.6654 5.00129C16.8717 5.00129 17.0695 5.08324 17.2153 5.2291C17.3612 5.37496 17.4432 5.57279 17.4432 5.77907V6.55685ZM13.5543 5.17474V6.7824C12.3933 6.43652 11.15 6.48773 10.0214 6.92794C8.89278 7.36815 7.9432 8.17221 7.32298 9.21284C6.70277 10.2535 6.44734 11.4712 6.59713 12.6734C6.74692 13.8755 7.29337 14.9934 8.14999 15.85C9.00661 16.7066 10.1245 17.2531 11.3266 17.4029C12.5288 17.5527 13.7465 17.2972 14.7872 16.677C15.8278 16.0568 16.6319 15.1072 17.0721 13.9786C17.5123 12.85 17.5635 11.6067 17.2176 10.4457H18.8253C19.1624 11.9261 19.009 13.4759 18.3884 14.8615C17.7678 16.2471 16.7135 17.3933 15.3845 18.1274C14.0555 18.8615 12.5239 19.1436 11.0206 18.9311C9.51731 18.7187 8.12382 18.0233 7.05026 16.9497C5.9767 15.8762 5.28128 14.4827 5.06886 12.9794C4.85644 11.4761 5.13853 9.94447 5.87261 8.61549C6.60668 7.28651 7.75293 6.23221 9.13852 5.61158C10.5241 4.99095 12.0739 4.83763 13.5543 5.17474Z" fill="#001141"/>
</svg>
