<svg width="25" height="24" viewBox="0 0 25 24" fill="none" xmlns="http://www.w3.org/2000/svg">
<path d="M12.5 22C11.1333 22 9.84167 21.7375 8.625 21.2125C7.40833 20.6875 6.34583 19.9708 5.4375 19.0625C4.52917 18.1542 3.8125 17.0917 3.2875 15.875C2.7625 14.6583 2.5 13.3667 2.5 12C2.5 10.6167 2.77083 9.31667 3.3125 8.1C3.85417 6.88333 4.5875 5.825 5.5125 4.925C6.4375 4.025 7.51667 3.3125 8.75 2.7875C9.98333 2.2625 11.3 2 12.7 2C14.0333 2 15.2917 2.22917 16.475 2.6875C17.6583 3.14583 18.6958 3.77917 19.5875 4.5875C20.4792 5.39583 21.1875 6.35417 21.7125 7.4625C22.2375 8.57083 22.5 9.76667 22.5 11.05C22.5 12.9667 21.9167 14.4375 20.75 15.4625C19.5833 16.4875 18.1667 17 16.5 17H14.65C14.5 17 14.3958 17.0417 14.3375 17.125C14.2792 17.2083 14.25 17.3 14.25 17.4C14.25 17.6 14.375 17.8875 14.625 18.2625C14.875 18.6375 15 19.0667 15 19.55C15 20.3833 14.7708 21 14.3125 21.4C13.8542 21.8 13.25 22 12.5 22ZM7 13C7.43333 13 7.79167 12.8583 8.075 12.575C8.35833 12.2917 8.5 11.9333 8.5 11.5C8.5 11.0667 8.35833 10.7083 8.075 10.425C7.79167 10.1417 7.43333 10 7 10C6.56667 10 6.20833 10.1417 5.925 10.425C5.64167 10.7083 5.5 11.0667 5.5 11.5C5.5 11.9333 5.64167 12.2917 5.925 12.575C6.20833 12.8583 6.56667 13 7 13ZM10 9C10.4333 9 10.7917 8.85833 11.075 8.575C11.3583 8.29167 11.5 7.93333 11.5 7.5C11.5 7.06667 11.3583 6.70833 11.075 6.425C10.7917 6.14167 10.4333 6 10 6C9.56667 6 9.20833 6.14167 8.925 6.425C8.64167 6.70833 8.5 7.06667 8.5 7.5C8.5 7.93333 8.64167 8.29167 8.925 8.575C9.20833 8.85833 9.56667 9 10 9ZM15 9C15.4333 9 15.7917 8.85833 16.075 8.575C16.3583 8.29167 16.5 7.93333 16.5 7.5C16.5 7.06667 16.3583 6.70833 16.075 6.425C15.7917 6.14167 15.4333 6 15 6C14.5667 6 14.2083 6.14167 13.925 6.425C13.6417 6.70833 13.5 7.06667 13.5 7.5C13.5 7.93333 13.6417 8.29167 13.925 8.575C14.2083 8.85833 14.5667 9 15 9ZM18 13C18.4333 13 18.7917 12.8583 19.075 12.575C19.3583 12.2917 19.5 11.9333 19.5 11.5C19.5 11.0667 19.3583 10.7083 19.075 10.425C18.7917 10.1417 18.4333 10 18 10C17.5667 10 17.2083 10.1417 16.925 10.425C16.6417 10.7083 16.5 11.0667 16.5 11.5C16.5 11.9333 16.6417 12.2917 16.925 12.575C17.2083 12.8583 17.5667 13 18 13ZM12.5 20C12.65 20 12.7708 19.9583 12.8625 19.875C12.9542 19.7917 13 19.6833 13 19.55C13 19.3167 12.875 19.0417 12.625 18.725C12.375 18.4083 12.25 17.9333 12.25 17.3C12.25 16.6 12.4917 16.0417 12.975 15.625C13.4583 15.2083 14.05 15 14.75 15H16.5C17.6 15 18.5417 14.6792 19.325 14.0375C20.1083 13.3958 20.5 12.4 20.5 11.05C20.5 9.03333 19.7292 7.35417 18.1875 6.0125C16.6458 4.67083 14.8167 4 12.7 4C10.4333 4 8.5 4.775 6.9 6.325C5.3 7.875 4.5 9.76667 4.5 12C4.5 14.2167 5.27917 16.1042 6.8375 17.6625C8.39583 19.2208 10.2833 20 12.5 20Z" fill="#001141"/>
</svg>
