<svg width="25" height="24" viewBox="0 0 25 24" fill="none" xmlns="http://www.w3.org/2000/svg">
<path d="M20.5 6H4.492C4.5 6 4.5 18 4.5 18H20.508C20.5 18 20.5 6 20.5 6ZM22.5 18.006C22.5 19.107 21.602 20 20.51 20H4.49C3.392 20 2.5 19.105 2.5 18.006V5.994C2.50079 5.46609 2.71058 4.95997 3.08349 4.58631C3.4564 4.21265 3.9621 4.00185 4.49 4H20.51C21.0381 4.00106 21.5443 4.21161 21.9174 4.58544C22.2905 4.95927 22.5 5.46585 22.5 5.994V18.006Z" fill="#001141"/>
<path d="M17.5 19V5H15.5V19H17.5Z" fill="#001141"/>
<path d="M17.5 13H3.5V15H17.5V13Z" fill="#001141"/>
</svg>
