<svg width="25" height="24" viewBox="0 0 25 24" fill="none" xmlns="http://www.w3.org/2000/svg">
<path d="M17 8.4C16.745 8.4 16.5313 8.31375 16.3588 8.14125C16.1863 7.96875 16.1 7.755 16.1 7.5C16.1 7.245 16.1863 7.03125 16.3588 6.85875C16.5313 6.68625 16.745 6.6 17 6.6C17.255 6.6 17.4688 6.68625 17.6413 6.85875C17.8138 7.03125 17.9 7.245 17.9 7.5C17.9 7.755 17.8138 7.96875 17.6413 8.14125C17.4688 8.31375 17.255 8.4 17 8.4ZM9.8 13.8L12.23 10.65L13.625 12.45L15.695 9.75L18.8 13.8H9.8ZM5.3 21C4.805 21 4.38125 20.8238 4.02875 20.4713C3.67625 20.1188 3.5 19.695 3.5 19.2V6.6H5.3V19.2H17.9V21H5.3ZM7.1 9.6375V4.8C7.1 4.305 7.27625 3.88125 7.62875 3.52875C7.98125 3.17625 8.405 3 8.9 3H13.4V4.8H8.9V9.6375H7.1ZM8.9 17.4C8.405 17.4 7.98125 17.2238 7.62875 16.8713C7.27625 16.5188 7.1 16.095 7.1 15.6V11.4375H8.9V15.6H13.4V17.4H8.9ZM15.2 17.4V15.6H19.7V11.4375H21.5V15.6C21.5 16.095 21.3238 16.5188 20.9713 16.8713C20.6188 17.2238 20.195 17.4 19.7 17.4H15.2ZM19.7 9.6375V4.8H15.2V3H19.7C20.195 3 20.6188 3.17625 20.9713 3.52875C21.3238 3.88125 21.5 4.305 21.5 4.8V9.6375H19.7Z" fill="#001141"/>
</svg>
