<svg width="25" height="24" viewBox="0 0 25 24" fill="none" xmlns="http://www.w3.org/2000/svg">
<path d="M4.5246 15.325C4.25793 15.125 4.12876 14.8625 4.1371 14.5375C4.14543 14.2125 4.28293 13.95 4.5496 13.75C4.73293 13.6167 4.93293 13.55 5.1496 13.55C5.36626 13.55 5.56626 13.6167 5.7496 13.75L12.4996 18.975L19.2496 13.75C19.4329 13.6167 19.6329 13.55 19.8496 13.55C20.0663 13.55 20.2663 13.6167 20.4496 13.75C20.7163 13.95 20.8538 14.2125 20.8621 14.5375C20.8704 14.8625 20.7413 15.125 20.4746 15.325L13.7246 20.575C13.3579 20.8583 12.9496 21 12.4996 21C12.0496 21 11.6413 20.8583 11.2746 20.575L4.5246 15.325ZM11.2746 15.525L5.5246 11.05C5.00793 10.65 4.7496 10.125 4.7496 9.475C4.7496 8.825 5.00793 8.3 5.5246 7.9L11.2746 3.425C11.6413 3.14167 12.0496 3 12.4996 3C12.9496 3 13.3579 3.14167 13.7246 3.425L19.4746 7.9C19.9913 8.3 20.2496 8.825 20.2496 9.475C20.2496 10.125 19.9913 10.65 19.4746 11.05L13.7246 15.525C13.3579 15.8083 12.9496 15.95 12.4996 15.95C12.0496 15.95 11.6413 15.8083 11.2746 15.525ZM12.4996 13.925L18.2496 9.475L12.4996 5.025L6.7496 9.475L12.4996 13.925Z" fill="#001141"/>
</svg>
