<svg width="25" height="24" viewBox="0 0 25 24" fill="none" xmlns="http://www.w3.org/2000/svg">
<path fill-rule="evenodd" clip-rule="evenodd" d="M10.2957 6.66764L8.92441 10.0733L5.44944 11.4152C5.34566 11.4556 5.25664 11.5255 5.19391 11.616C5.13119 11.7065 5.09766 11.8134 5.09766 11.9228C5.09766 12.0321 5.13119 12.139 5.19391 12.2295C5.25664 12.32 5.34566 12.3899 5.44944 12.4303L8.92441 13.7729L10.2957 17.1772C10.3369 17.2789 10.4083 17.3661 10.5006 17.4275C10.593 17.489 10.7021 17.5218 10.8137 17.5218C10.9254 17.5218 11.0345 17.489 11.1269 17.4275C11.2192 17.3661 11.2906 17.2789 11.3318 17.1772H11.3311L12.7017 13.7729L16.1773 12.4296C16.2808 12.389 16.3695 12.3189 16.432 12.2285C16.4945 12.138 16.5279 12.0313 16.5279 11.9221C16.5279 11.8128 16.4945 11.7061 16.432 11.6157C16.3695 11.5252 16.2808 11.4552 16.1773 11.4145L12.7017 10.0733L11.3311 6.66764C11.3031 6.59809 11.2607 6.53495 11.2066 6.48219C11.1525 6.42943 11.0878 6.38818 11.0167 6.36103C10.9487 6.3347 10.8762 6.32174 10.8031 6.3229C10.7301 6.32406 10.658 6.33931 10.591 6.36779C10.5239 6.39627 10.4633 6.43741 10.4125 6.48886C10.3617 6.54031 10.3218 6.60106 10.295 6.66764H10.2957ZM16.2245 5.24658L15.6936 6.56684L14.3473 7.08696C14.2735 7.11628 14.2103 7.16651 14.1657 7.23124C14.1212 7.29596 14.0975 7.37223 14.0975 7.45028C14.0975 7.52832 14.1212 7.60459 14.1657 7.66932C14.2103 7.73404 14.2735 7.78428 14.3473 7.81359L15.6936 8.33372L16.2245 9.65397C16.2539 9.72686 16.305 9.7894 16.3711 9.83348C16.4372 9.87755 16.5154 9.90112 16.5954 9.90112C16.6754 9.90112 16.7535 9.87755 16.8196 9.83348C16.8858 9.7894 16.9369 9.72686 16.9662 9.65397L17.4986 8.33372L18.8441 7.81359C18.9188 7.78509 18.983 7.73515 19.0282 7.67033C19.0735 7.6055 19.0977 7.5288 19.0977 7.45028C19.0977 7.37175 19.0735 7.29506 19.0282 7.23023C18.983 7.1654 18.9188 7.11547 18.8441 7.08696L17.4986 6.56684L16.9662 5.24728C16.9464 5.19742 16.9162 5.15214 16.8776 5.1143C16.839 5.07646 16.7928 5.0469 16.7419 5.02748C16.6434 4.99018 16.534 4.99233 16.4372 5.03346C16.3404 5.07459 16.264 5.15141 16.2245 5.24728V5.24658ZM15.7214 14.3491L15.1898 15.6672L13.8443 16.188C13.7931 16.2073 13.7466 16.2368 13.7078 16.2747C13.6689 16.3125 13.6385 16.3579 13.6184 16.4079C13.5801 16.5044 13.5823 16.6119 13.6246 16.7069C13.6669 16.8019 13.7459 16.8766 13.8443 16.9147L15.1898 17.4348L15.7214 18.7537C15.7622 18.8545 15.8429 18.9343 15.9458 18.9742C16.0443 19.0118 16.154 19.0097 16.2509 18.9684C16.3478 18.9271 16.4242 18.8499 16.4632 18.7537L16.9948 17.4348L18.3404 16.9147C18.415 16.8862 18.4792 16.8362 18.5244 16.7714C18.5697 16.7066 18.5939 16.6299 18.5939 16.5514C18.5939 16.4728 18.5697 16.3961 18.5244 16.3313C18.4792 16.2665 18.415 16.2166 18.3404 16.188L16.9948 15.6672L16.4632 14.3491C16.4435 14.2989 16.4133 14.2532 16.3745 14.2151C16.3357 14.177 16.2893 14.1473 16.2381 14.1279C16.1396 14.0905 16.03 14.0927 15.9332 14.1342C15.8365 14.1756 15.7603 14.2529 15.7214 14.3491Z" fill="#172B4D"/>
</svg>
