<svg width="25" height="24" viewBox="0 0 25 24" fill="none" xmlns="http://www.w3.org/2000/svg">
<path d="M10.5394 11.4157L11.9215 10.0175L11.0215 9.10139L10.3144 9.80854L9.4144 8.90854L10.1055 8.2014L9.38225 7.47818L7.98404 8.87639L10.5394 11.4157ZM15.8108 16.7032L17.209 15.305L16.4858 14.5818L15.7787 15.2728L14.8787 14.3728L15.5698 13.6657L14.6537 12.7657L13.2715 14.1478L15.8108 16.7032ZM9.54297 17.8764H6.81083V15.1443L9.62333 12.3318L6.16797 8.87639L9.38225 5.66211L12.8537 9.13354L15.2805 6.69068C15.409 6.56211 15.5537 6.46568 15.7144 6.4014C15.8751 6.33711 16.0412 6.30497 16.2126 6.30497C16.384 6.30497 16.5501 6.33711 16.7108 6.4014C16.8715 6.46568 17.0162 6.56211 17.1448 6.69068L17.9965 7.55854C18.1251 7.68711 18.2215 7.83175 18.2858 7.99247C18.3501 8.15318 18.3823 8.31925 18.3823 8.49068C18.3823 8.66211 18.3501 8.8255 18.2858 8.98086C18.2215 9.13622 18.1251 9.27818 17.9965 9.40675L15.5698 11.8496L19.0251 15.305L15.8108 18.5193L12.3555 15.0639L9.54297 17.8764ZM8.09654 16.5907H8.99654L15.2965 10.3068L14.3805 9.39068L8.09654 15.6907V16.5907ZM14.8465 9.85675L14.3805 9.39068L15.2965 10.3068L14.8465 9.85675Z" fill="#001141"/>
<rect x="4.31836" y="3.91016" width="16.3623" height="16.3623" stroke="#001141" stroke-width="0.428571" stroke-linecap="square" stroke-dasharray="0.69 0.69"/>
<rect x="3.5" y="3.07812" width="1.71429" height="1.71429" fill="#001141"/>
<rect x="3.5" y="19.3643" width="1.71429" height="1.71429" fill="#001141"/>
<rect x="19.7871" y="3.07812" width="1.71429" height="1.71429" fill="#001141"/>
<rect x="19.7871" y="19.3643" width="1.71429" height="1.71429" fill="#001141"/>
</svg>
