<svg width="56" height="16" viewBox="0 0 56 16" fill="none" xmlns="http://www.w3.org/2000/svg">
<path fill-rule="evenodd" clip-rule="evenodd" d="M2.88525 2.00005H13.1148C13.3462 1.99819 13.569 2.08777 13.7348 2.2493C13.9005 2.41083 13.9959 2.63125 14 2.86267V13.1335C13.9969 13.3656 13.902 13.587 13.7362 13.7494C13.5703 13.9118 13.3469 14.0019 13.1148 14H2.88525C2.65348 14.0024 2.43022 13.9129 2.26431 13.751C2.09841 13.5892 2.00337 13.3682 2 13.1364V2.86562C2.00285 2.63352 2.09766 2.41204 2.26363 2.24977C2.42959 2.08749 2.65315 1.99768 2.88525 2.00005ZM5.55707 6.49788H3.77575V12.2294H5.55707V6.49788ZM5.24079 3.81955C5.07093 3.70602 4.87121 3.64543 4.6669 3.64543C4.39316 3.64543 4.13062 3.7541 3.93696 3.94757C3.7433 4.14105 3.63438 4.40349 3.63412 4.67723C3.63392 4.88154 3.69433 5.08131 3.80769 5.25128C3.92106 5.42125 4.08229 5.55378 4.27099 5.6321C4.45969 5.71042 4.66738 5.73101 4.86779 5.69127C5.06819 5.65154 5.25231 5.55325 5.39684 5.40885C5.54138 5.26445 5.63984 5.08043 5.67977 4.88006C5.7197 4.67969 5.69931 4.47198 5.62117 4.28321C5.54303 4.09443 5.41065 3.93308 5.24079 3.81955ZM8.38198 6.49788H6.67444V12.2294H8.4528V9.39756C8.4528 8.64608 8.60821 7.92215 9.52199 7.92215C10.4358 7.92215 10.4476 8.7769 10.4476 9.44084V12.2294H12.2289V9.08182C12.2289 7.54247 11.8944 6.35526 10.0905 6.3592C9.22395 6.3592 8.64362 6.83428 8.40559 7.28477H8.38198V6.49788Z" fill="#0076B2"/>
<path d="M34 8.03667C34 4.70273 31.3137 2 28 2C24.6863 2 22 4.70273 22 8.03667C22 11.0497 24.1941 13.5472 27.0625 14V9.78164H25.5391V8.03667H27.0625V6.70671C27.0625 5.19377 27.9583 4.35807 29.3288 4.35807C29.9853 4.35807 30.6719 4.47598 30.6719 4.47598V5.96156H29.9153C29.17 5.96156 28.9375 6.42691 28.9375 6.90432V8.03667H30.6016L30.3355 9.78164H28.9375V14C31.8059 13.5472 34 11.0498 34 8.03667Z" fill="#1877F2"/>
<path d="M51.1875 2H44.8125C43.2592 2 42 3.2592 42 4.8125V11.1875C42 12.7408 43.2592 14 44.8125 14H51.1875C52.7408 14 54 12.7408 54 11.1875V4.8125C54 3.2592 52.7408 2 51.1875 2Z" fill="url(#paint0_radial_4106_63587)"/>
<path d="M51.1875 2H44.8125C43.2592 2 42 3.2592 42 4.8125V11.1875C42 12.7408 43.2592 14 44.8125 14H51.1875C52.7408 14 54 12.7408 54 11.1875V4.8125C54 3.2592 52.7408 2 51.1875 2Z" fill="url(#paint1_radial_4106_63587)"/>
<path d="M48.0004 3.3125C46.7274 3.3125 46.5676 3.31808 46.0676 3.34081C45.5686 3.36369 45.228 3.44267 44.9299 3.55859C44.6216 3.67831 44.3601 3.83848 44.0995 4.09911C43.8388 4.35969 43.6786 4.6212 43.5585 4.92941C43.4423 5.22753 43.3632 5.56831 43.3407 6.06711C43.3184 6.56713 43.3125 6.72697 43.3125 8.00005C43.3125 9.27313 43.3181 9.43241 43.3408 9.93238C43.3638 10.4314 43.4428 10.772 43.5586 11.0701C43.6784 11.3784 43.8386 11.6399 44.0992 11.9005C44.3597 12.1612 44.6212 12.3218 44.9293 12.4415C45.2276 12.5574 45.5683 12.6364 46.0672 12.6593C46.5672 12.682 46.7269 12.6876 47.9999 12.6876C49.273 12.6876 49.4323 12.682 49.9323 12.6593C50.4313 12.6364 50.7723 12.5574 51.0706 12.4415C51.3788 12.3218 51.6399 12.1612 51.9004 11.9005C52.1611 11.6399 52.3213 11.3784 52.4414 11.0702C52.5566 10.772 52.6357 10.4313 52.6592 9.93247C52.6816 9.4325 52.6875 9.27313 52.6875 8.00005C52.6875 6.72697 52.6816 6.56722 52.6592 6.0672C52.6357 5.56817 52.5566 5.22758 52.4414 4.92955C52.3213 4.6212 52.1611 4.35969 51.9004 4.09911C51.6397 3.83839 51.3789 3.67822 51.0703 3.55864C50.7715 3.44267 50.4307 3.36364 49.9316 3.34081C49.4316 3.31808 49.2724 3.3125 47.999 3.3125H48.0004ZM47.5799 4.15723C47.7047 4.15705 47.844 4.15723 48.0004 4.15723C49.252 4.15723 49.4003 4.16173 49.8946 4.18419C50.3516 4.20509 50.5997 4.28145 50.7649 4.34563C50.9837 4.43056 51.1396 4.53214 51.3036 4.69625C51.4677 4.86031 51.5692 5.01655 51.6544 5.23531C51.7185 5.40031 51.795 5.64838 51.8158 6.10541C51.8383 6.59956 51.8431 6.74797 51.8431 7.99897C51.8431 9.24997 51.8383 9.39842 51.8158 9.89253C51.7949 10.3496 51.7185 10.5976 51.6544 10.7627C51.5694 10.9814 51.4677 11.1372 51.3036 11.3012C51.1395 11.4652 50.9838 11.5668 50.7649 11.6518C50.5999 11.7162 50.3516 11.7924 49.8946 11.8133C49.4004 11.8357 49.252 11.8406 48.0004 11.8406C46.7488 11.8406 46.6004 11.8357 46.1063 11.8133C45.6493 11.7922 45.4012 11.7158 45.2358 11.6517C45.0171 11.5667 44.8608 11.4651 44.6968 11.3011C44.5327 11.137 44.4312 10.9812 44.346 10.7623C44.2818 10.5973 44.2054 10.3492 44.1846 9.89216C44.1621 9.398 44.1576 9.24959 44.1576 7.9978C44.1576 6.74605 44.1621 6.59839 44.1846 6.10423C44.2055 5.6472 44.2818 5.39914 44.346 5.23391C44.431 5.01514 44.5327 4.85891 44.6968 4.69484C44.8609 4.53078 45.0171 4.4292 45.2359 4.34408C45.4011 4.27963 45.6493 4.20345 46.1063 4.18245C46.5387 4.16291 46.7063 4.15705 47.5799 4.15606V4.15723ZM50.5026 4.93555C50.1921 4.93555 49.9401 5.18727 49.9401 5.49786C49.9401 5.80841 50.1921 6.06036 50.5026 6.06036C50.8132 6.06036 51.0651 5.80841 51.0651 5.49786C51.0651 5.18731 50.8132 4.93536 50.5026 4.93536V4.93555ZM48.0004 5.59278C46.671 5.59278 45.5932 6.67063 45.5932 8.00005C45.5932 9.32947 46.671 10.4068 48.0004 10.4068C49.3298 10.4068 50.4073 9.32947 50.4073 8.00005C50.4073 6.67067 49.3298 5.59278 48.0003 5.59278H48.0004ZM48.0004 6.43752C48.8633 6.43752 49.563 7.13703 49.563 8.00005C49.563 8.86297 48.8633 9.56258 48.0004 9.56258C47.1375 9.56258 46.4379 8.86297 46.4379 8.00005C46.4379 7.13703 47.1375 6.43752 48.0004 6.43752Z" fill="white"/>
<defs>
<radialGradient id="paint0_radial_4106_63587" cx="0" cy="0" r="1" gradientUnits="userSpaceOnUse" gradientTransform="translate(45.1875 14.9242) rotate(-90) scale(11.8929 11.0613)">
<stop stop-color="#FFDD55"/>
<stop offset="0.1" stop-color="#FFDD55"/>
<stop offset="0.5" stop-color="#FF543E"/>
<stop offset="1" stop-color="#C837AB"/>
</radialGradient>
<radialGradient id="paint1_radial_4106_63587" cx="0" cy="0" r="1" gradientUnits="userSpaceOnUse" gradientTransform="translate(39.99 2.86442) rotate(78.681) scale(5.31619 21.9135)">
<stop stop-color="#3771C8"/>
<stop offset="0.128" stop-color="#3771C8"/>
<stop offset="1" stop-color="#6600FF" stop-opacity="0"/>
</radialGradient>
</defs>
</svg>
