<svg width="36" height="16" viewBox="0 0 36 16" fill="none" xmlns="http://www.w3.org/2000/svg">
<path fill-rule="evenodd" clip-rule="evenodd" d="M2.88525 2.00005H13.1148C13.3462 1.99819 13.569 2.08777 13.7348 2.2493C13.9005 2.41083 13.9959 2.63125 14 2.86267V13.1335C13.9969 13.3656 13.902 13.587 13.7362 13.7494C13.5703 13.9118 13.3469 14.0019 13.1148 14H2.88525C2.65348 14.0024 2.43022 13.9129 2.26431 13.751C2.09841 13.5892 2.00337 13.3682 2 13.1364V2.86562C2.00285 2.63352 2.09766 2.41204 2.26363 2.24977C2.42959 2.08749 2.65315 1.99768 2.88525 2.00005ZM5.55707 6.49788H3.77575V12.2294H5.55707V6.49788ZM5.24079 3.81955C5.07093 3.70602 4.87121 3.64543 4.6669 3.64543C4.39316 3.64543 4.13062 3.7541 3.93696 3.94757C3.7433 4.14105 3.63438 4.40349 3.63412 4.67723C3.63392 4.88154 3.69433 5.08131 3.80769 5.25128C3.92106 5.42125 4.08229 5.55378 4.27099 5.6321C4.45969 5.71042 4.66738 5.73101 4.86779 5.69127C5.06819 5.65154 5.25231 5.55325 5.39684 5.40885C5.54138 5.26445 5.63984 5.08043 5.67977 4.88006C5.7197 4.67969 5.69931 4.47198 5.62117 4.28321C5.54303 4.09443 5.41065 3.93308 5.24079 3.81955ZM8.38198 6.49788H6.67444V12.2294H8.4528V9.39756C8.4528 8.64608 8.60821 7.92215 9.52199 7.92215C10.4358 7.92215 10.4476 8.7769 10.4476 9.44084V12.2294H12.2289V9.08182C12.2289 7.54247 11.8944 6.35526 10.0905 6.3592C9.22395 6.3592 8.64362 6.83428 8.40559 7.28477H8.38198V6.49788Z" fill="#0076B2"/>
<path d="M31.1875 2H24.8125C23.2592 2 22 3.2592 22 4.8125V11.1875C22 12.7408 23.2592 14 24.8125 14H31.1875C32.7408 14 34 12.7408 34 11.1875V4.8125C34 3.2592 32.7408 2 31.1875 2Z" fill="url(#paint0_radial_4357_68112)"/>
<path d="M31.1875 2H24.8125C23.2592 2 22 3.2592 22 4.8125V11.1875C22 12.7408 23.2592 14 24.8125 14H31.1875C32.7408 14 34 12.7408 34 11.1875V4.8125C34 3.2592 32.7408 2 31.1875 2Z" fill="url(#paint1_radial_4357_68112)"/>
<path d="M28.0004 3.3125C26.7274 3.3125 26.5676 3.31808 26.0676 3.34081C25.5686 3.36369 25.228 3.44267 24.9299 3.55859C24.6216 3.67831 24.3601 3.83848 24.0995 4.09911C23.8388 4.35969 23.6786 4.6212 23.5585 4.92941C23.4423 5.22753 23.3632 5.56831 23.3407 6.06711C23.3184 6.56713 23.3125 6.72697 23.3125 8.00005C23.3125 9.27313 23.3181 9.43241 23.3408 9.93238C23.3638 10.4314 23.4428 10.772 23.5586 11.0701C23.6784 11.3784 23.8386 11.6399 24.0992 11.9005C24.3597 12.1612 24.6212 12.3218 24.9293 12.4415C25.2276 12.5574 25.5683 12.6364 26.0672 12.6593C26.5672 12.682 26.7269 12.6876 27.9999 12.6876C29.273 12.6876 29.4323 12.682 29.9323 12.6593C30.4313 12.6364 30.7723 12.5574 31.0706 12.4415C31.3788 12.3218 31.6399 12.1612 31.9004 11.9005C32.1611 11.6399 32.3213 11.3784 32.4414 11.0702C32.5566 10.772 32.6357 10.4313 32.6592 9.93247C32.6816 9.4325 32.6875 9.27313 32.6875 8.00005C32.6875 6.72697 32.6816 6.56722 32.6592 6.0672C32.6357 5.56817 32.5566 5.22758 32.4414 4.92955C32.3213 4.6212 32.1611 4.35969 31.9004 4.09911C31.6397 3.83839 31.3789 3.67822 31.0703 3.55864C30.7715 3.44267 30.4307 3.36364 29.9316 3.34081C29.4316 3.31808 29.2724 3.3125 27.999 3.3125H28.0004ZM27.5799 4.15723C27.7047 4.15705 27.844 4.15723 28.0004 4.15723C29.252 4.15723 29.4003 4.16173 29.8946 4.18419C30.3516 4.20509 30.5997 4.28145 30.7649 4.34563C30.9837 4.43056 31.1396 4.53214 31.3036 4.69625C31.4677 4.86031 31.5692 5.01655 31.6544 5.23531C31.7185 5.40031 31.795 5.64838 31.8158 6.10541C31.8383 6.59956 31.8431 6.74797 31.8431 7.99897C31.8431 9.24997 31.8383 9.39842 31.8158 9.89253C31.7949 10.3496 31.7185 10.5976 31.6544 10.7627C31.5694 10.9814 31.4677 11.1372 31.3036 11.3012C31.1395 11.4652 30.9838 11.5668 30.7649 11.6518C30.5999 11.7162 30.3516 11.7924 29.8946 11.8133C29.4004 11.8357 29.252 11.8406 28.0004 11.8406C26.7488 11.8406 26.6004 11.8357 26.1063 11.8133C25.6493 11.7922 25.4012 11.7158 25.2358 11.6517C25.0171 11.5667 24.8608 11.4651 24.6968 11.3011C24.5327 11.137 24.4312 10.9812 24.346 10.7623C24.2818 10.5973 24.2054 10.3492 24.1846 9.89216C24.1621 9.398 24.1576 9.24959 24.1576 7.9978C24.1576 6.74605 24.1621 6.59839 24.1846 6.10423C24.2055 5.6472 24.2818 5.39914 24.346 5.23391C24.431 5.01514 24.5327 4.85891 24.6968 4.69484C24.8609 4.53078 25.0171 4.4292 25.2359 4.34408C25.4011 4.27963 25.6493 4.20345 26.1063 4.18245C26.5387 4.16291 26.7063 4.15705 27.5799 4.15606V4.15723ZM30.5026 4.93555C30.1921 4.93555 29.9401 5.18727 29.9401 5.49786C29.9401 5.80841 30.1921 6.06036 30.5026 6.06036C30.8132 6.06036 31.0651 5.80841 31.0651 5.49786C31.0651 5.18731 30.8132 4.93536 30.5026 4.93536V4.93555ZM28.0004 5.59278C26.671 5.59278 25.5932 6.67063 25.5932 8.00005C25.5932 9.32947 26.671 10.4068 28.0004 10.4068C29.3298 10.4068 30.4073 9.32947 30.4073 8.00005C30.4073 6.67067 29.3298 5.59278 28.0003 5.59278H28.0004ZM28.0004 6.43752C28.8633 6.43752 29.563 7.13703 29.563 8.00005C29.563 8.86297 28.8633 9.56258 28.0004 9.56258C27.1375 9.56258 26.4379 8.86297 26.4379 8.00005C26.4379 7.13703 27.1375 6.43752 28.0004 6.43752Z" fill="white"/>
<defs>
<radialGradient id="paint0_radial_4357_68112" cx="0" cy="0" r="1" gradientUnits="userSpaceOnUse" gradientTransform="translate(25.1875 14.9242) rotate(-90) scale(11.8929 11.0613)">
<stop stop-color="#FFDD55"/>
<stop offset="0.1" stop-color="#FFDD55"/>
<stop offset="0.5" stop-color="#FF543E"/>
<stop offset="1" stop-color="#C837AB"/>
</radialGradient>
<radialGradient id="paint1_radial_4357_68112" cx="0" cy="0" r="1" gradientUnits="userSpaceOnUse" gradientTransform="translate(19.99 2.86442) rotate(78.681) scale(5.31619 21.9135)">
<stop stop-color="#3771C8"/>
<stop offset="0.128" stop-color="#3771C8"/>
<stop offset="1" stop-color="#6600FF" stop-opacity="0"/>
</radialGradient>
</defs>
</svg>
