<svg width="65" height="64" viewBox="0 0 65 64" fill="none" xmlns="http://www.w3.org/2000/svg">
<rect x="0.5" width="64" height="64" rx="5.33333" fill="#FFEDEB"/>
<path d="M23.1667 44C22.4333 44 21.8056 43.7389 21.2833 43.2167C20.7611 42.6944 20.5 42.0667 20.5 41.3333V22.6667C20.5 21.9333 20.7611 21.3056 21.2833 20.7833C21.8056 20.2611 22.4333 20 23.1667 20H32.5C32.8778 20 33.1944 20.1278 33.45 20.3833C33.7056 20.6389 33.8333 20.9556 33.8333 21.3333C33.8333 21.7111 33.7056 22.0278 33.45 22.2833C33.1944 22.5389 32.8778 22.6667 32.5 22.6667H23.1667V41.3333H41.8333V32C41.8333 31.6222 41.9611 31.3056 42.2167 31.05C42.4722 30.7944 42.7889 30.6667 43.1667 30.6667C43.5444 30.6667 43.8611 30.7944 44.1167 31.05C44.3722 31.3056 44.5 31.6222 44.5 32V41.3333C44.5 42.0667 44.2389 42.6944 43.7167 43.2167C43.1944 43.7389 42.5667 44 41.8333 44H23.1667ZM24.5 38.6667H40.5L35.5 32L31.5 37.3333L28.5 33.3333L24.5 38.6667ZM39.1667 25.3333H37.8333C37.4556 25.3333 37.1389 25.2056 36.8833 24.95C36.6278 24.6944 36.5 24.3778 36.5 24C36.5 23.6222 36.6278 23.3056 36.8833 23.05C37.1389 22.7944 37.4556 22.6667 37.8333 22.6667H39.1667V21.3333C39.1667 20.9556 39.2944 20.6389 39.55 20.3833C39.8056 20.1278 40.1222 20 40.5 20C40.8778 20 41.1944 20.1278 41.45 20.3833C41.7056 20.6389 41.8333 20.9556 41.8333 21.3333V22.6667H43.1667C43.5444 22.6667 43.8611 22.7944 44.1167 23.05C44.3722 23.3056 44.5 23.6222 44.5 24C44.5 24.3778 44.3722 24.6944 44.1167 24.95C43.8611 25.2056 43.5444 25.3333 43.1667 25.3333H41.8333V26.6667C41.8333 27.0444 41.7056 27.3611 41.45 27.6167C41.1944 27.8722 40.8778 28 40.5 28C40.1222 28 39.8056 27.8722 39.55 27.6167C39.2944 27.3611 39.1667 27.0444 39.1667 26.6667V25.3333Z" fill="#F53D00"/>
</svg>
